<?xml version="1.0" encoding="UTF-8"?>
<!DOCTYPE svg PUBLIC "-//W3C//DTD SVG 1.1//EN"
    "http://www.w3.org/Graphics/SVG/1.1/DTD/svg11.dtd"><svg xmlns="http://www.w3.org/2000/svg" height="330.0" xmlns:xlink="http://www.w3.org/1999/xlink" version="1.11.1"><g><g><rect height="20.0" width="20.0" stroke="black" fill="none" x="0.0" y="0.0"/><text x="25.0" y="15.0">You need all of</text></g><line x2="10.0" y1="20.0" stroke="grey" y2="25.0" x1="10.0"/><line x2="40.0" y1="25.0" stroke="grey" y2="25.0" x1="10.0"/><line x2="40.0" y1="25.0" stroke="grey" y2="30.0" x1="40.0"/><g transform="translate(30.0000 30.0000)"><g><rect height="20.0" width="20.0" stroke="black" fill="none" x="0.0" y="0.0"/><text x="25.0" y="15.0">Item 1;</text></g><line x2="10.0" y1="20.0" stroke="grey" y2="25.0" x1="10.0"/><g transform="translate(0.0000 25.0000)"><g><rect height="20.0" width="20.0" stroke="black" fill="none" x="0.0" y="0.0"/><text x="25.0" y="15.0">Item 2;</text></g><line x2="10.0" y1="20.0" stroke="grey" y2="25.0" x1="10.0"/><g transform="translate(0.0000 25.0000)"><g><g><rect height="20.0" width="20.0" stroke="black" fill="none" x="0.0" y="0.0"/><text x="25.0" y="15.0">Item 3 which may be satisfied by any of:</text></g><line x2="10.0" y1="20.0" stroke="grey" y2="85.0" x1="10.0"/><g transform="translate(30.0000 25.0000)"><g><rect height="20.0" width="20.0" stroke="black" fill="none" x="0.0" y="0.0"/><text x="25.0" y="15.0">3.a;</text></g><line x2="0.0" y1="10.0" stroke="grey" y2="10.0" x1="-20.0"/><g transform="translate(0.0000 25.0000)"><g><rect height="20.0" width="20.0" stroke="black" fill="none" x="0.0" y="0.0"/><text x="25.0" y="15.0">3.b; or</text></g><line x2="0.0" y1="10.0" stroke="grey" y2="10.0" x1="-20.0"/><g transform="translate(0.0000 25.0000)"><g><rect height="20.0" width="20.0" stroke="black" fill="none" x="0.0" y="0.0"/><text x="25.0" y="15.0">3.c;</text></g><line x2="0.0" y1="10.0" stroke="grey" y2="10.0" x1="-20.0"/></g></g></g></g><line x2="10.0" y1="20.0" stroke="grey" y2="100.0" x1="10.0"/><g transform="translate(0.0000 100.0000)"><g><rect height="20.0" width="20.0" stroke="black" fill="none" x="0.0" y="0.0"/><text x="25.0" y="15.0">Item 4; and</text></g><line x2="10.0" y1="20.0" stroke="grey" y2="25.0" x1="10.0"/><g transform="translate(0.0000 25.0000)"><g><rect height="20.0" width="20.0" stroke="black" fill="none" x="0.0" y="0.0"/><text x="25.0" y="15.0">Item 5 which requires all of:</text></g><line x2="10.0" y1="20.0" stroke="grey" y2="25.0" x1="10.0"/><line x2="40.0" y1="25.0" stroke="grey" y2="25.0" x1="10.0"/><line x2="40.0" y1="25.0" stroke="grey" y2="30.0" x1="40.0"/><g transform="translate(30.0000 30.0000)"><g><rect height="20.0" width="20.0" stroke="black" fill="none" x="0.0" y="0.0"/><text x="25.0" y="15.0">5.a;</text></g><line x2="10.0" y1="20.0" stroke="grey" y2="25.0" x1="10.0"/><g transform="translate(0.0000 25.0000)"><g><rect height="20.0" width="20.0" stroke="black" fill="none" x="0.0" y="0.0"/><text x="25.0" y="15.0">5.b; and</text></g><line x2="10.0" y1="20.0" stroke="grey" y2="25.0" x1="10.0"/><g transform="translate(0.0000 25.0000)"><rect height="20.0" width="20.0" stroke="black" fill="none" x="0.0" y="0.0"/><text x="25.0" y="15.0">5.c.</text></g></g></g></g></g></g></g></g><g transform="translate(40.0000 310.0000)"><text x="0.0" y="15.0">to survive.</text></g></g></svg>