<?xml version="1.0" encoding="UTF-8" standalone="no"?>
<!DOCTYPE svg PUBLIC "-//W3C//DTD SVG 1.1//EN"
 "http://www.w3.org/Graphics/SVG/1.1/DTD/svg11.dtd">
<!-- Generated by graphviz version 5.0.1 (0)
 -->
<!-- Title: G Pages: 1 -->
<svg width="6234pt" height="800pt"
 viewBox="0.00 0.00 6234.00 800.27" xmlns="http://www.w3.org/2000/svg" xmlns:xlink="http://www.w3.org/1999/xlink">
<g id="graph0" class="graph" transform="scale(1 1) rotate(0) translate(4 796.27)">
<title>G</title>
<polygon fill="white" stroke="none" points="-4,4 -4,-796.27 6230,-796.27 6230,4 -4,4"/>
<!-- s4 -->
<g id="node1" class="node">
<title>s4</title>
<ellipse fill="none" stroke="black" cx="342" cy="-772.01" rx="156.96" ry="16.08"/>
<ellipse fill="none" stroke="black" cx="342" cy="-772.01" rx="160.96" ry="20.03"/>
<text text-anchor="middle" x="342" y="-768.31" font-family="Times,serif" font-size="14.00">(3,(lambda p: Place. [])[p0 &#45;&gt; [0, 0]])</text>
</g>
<!-- s1 -->
<g id="node3" class="node">
<title>s1</title>
<ellipse fill="none" stroke="black" cx="2697" cy="-16.26" rx="161.85" ry="16.03"/>
<text text-anchor="middle" x="2697" y="-12.56" font-family="Times,serif" font-size="14.00">(1,(lambda p3: Place. [])[p0 &#45;&gt; [0, 0]])</text>
</g>
<!-- s4&#45;&gt;s1 -->
<g id="edge90" class="edge">
<title>s4&#45;&gt;s1</title>
<path fill="none" stroke="black" d="M203.39,-761.58C108.59,-751.17 0,-729.62 0,-685.48 0,-685.48 0,-685.48 0,-98.79 0,-39.65 65.95,-61.81 124,-50.53 241.58,-27.66 1968.45,-19.76 2525.3,-17.8"/>
<polygon fill="black" stroke="black" points="2525.44,-21.3 2535.43,-17.76 2525.42,-14.3 2525.44,-21.3"/>
<text text-anchor="middle" x="59.5" y="-388.43" font-family="Times,serif" font-size="14.00">get_tokens(p0, [0, 0])</text>
</g>
<!-- s4&#45;&gt;s1 -->
<g id="edge91" class="edge">
<title>s4&#45;&gt;s1</title>
<path fill="none" stroke="black" d="M261.4,-754.37C200.74,-739.45 128,-715.34 128,-685.48 128,-685.48 128,-685.48 128,-98.79 128,-48.24 181.73,-61.85 231,-50.53 342.37,-24.94 1983.32,-18.89 2524.96,-17.59"/>
<polygon fill="black" stroke="black" points="2525.21,-21.09 2535.21,-17.57 2525.2,-14.09 2525.21,-21.09"/>
<text text-anchor="middle" x="177" y="-388.43" font-family="Times,serif" font-size="14.00">get_tokens(p1, [])</text>
</g>
<!-- s4&#45;&gt;s1 -->
<g id="edge93" class="edge">
<title>s4&#45;&gt;s1</title>
<path fill="none" stroke="black" d="M291.63,-752.65C263.88,-738.96 235,-717.11 235,-685.48 235,-685.48 235,-685.48 235,-98.79 235,-48.24 288.73,-61.86 338,-50.53 444.04,-26.13 1999.85,-19.32 2525.2,-17.7"/>
<polygon fill="black" stroke="black" points="2525.53,-21.2 2535.52,-17.67 2525.51,-14.2 2525.53,-21.2"/>
<text text-anchor="middle" x="284" y="-388.43" font-family="Times,serif" font-size="14.00">get_tokens(p5, [])</text>
</g>
<!-- s4&#45;&gt;s1 -->
<g id="edge94" class="edge">
<title>s4&#45;&gt;s1</title>
<path fill="none" stroke="black" d="M342,-751.64C342,-734.31 342,-708.2 342,-685.48 342,-685.48 342,-685.48 342,-98.79 342,-48.24 395.74,-61.88 445,-50.53 545.7,-27.32 2016.03,-19.76 2525.07,-17.83"/>
<polygon fill="black" stroke="black" points="2525.46,-21.33 2535.44,-17.79 2525.43,-14.33 2525.46,-21.33"/>
<text text-anchor="middle" x="391" y="-388.43" font-family="Times,serif" font-size="14.00">get_tokens(p4, [])</text>
</g>
<!-- s4&#45;&gt;s1 -->
<g id="edge95" class="edge">
<title>s4&#45;&gt;s1</title>
<path fill="none" stroke="black" d="M392.37,-752.65C420.12,-738.96 449,-717.11 449,-685.48 449,-685.48 449,-685.48 449,-98.79 449,-48.24 502.74,-61.9 552,-50.53 647.4,-28.51 2033.62,-20.22 2525.47,-17.96"/>
<polygon fill="black" stroke="black" points="2525.52,-21.46 2535.5,-17.91 2525.49,-14.46 2525.52,-21.46"/>
<text text-anchor="middle" x="498" y="-388.43" font-family="Times,serif" font-size="14.00">get_tokens(p3, [])</text>
</g>
<!-- s4&#45;&gt;s1 -->
<g id="edge96" class="edge">
<title>s4&#45;&gt;s1</title>
<path fill="none" stroke="black" d="M422.6,-754.37C483.26,-739.45 556,-715.34 556,-685.48 556,-685.48 556,-685.48 556,-98.79 556,-85.82 577.38,-54.23 584,-50.53 626.15,-26.95 2029.12,-19.65 2525.27,-17.81"/>
<polygon fill="black" stroke="black" points="2525.4,-21.31 2535.39,-17.77 2525.37,-14.31 2525.4,-21.31"/>
<text text-anchor="middle" x="605" y="-388.43" font-family="Times,serif" font-size="14.00">get_tokens(p2, [])</text>
</g>
<!-- s15 -->
<g id="node16" class="node">
<title>s15</title>
<ellipse fill="none" stroke="black" cx="899" cy="-684.48" rx="229.62" ry="16.03"/>
<text text-anchor="middle" x="899" y="-680.78" font-family="Times,serif" font-size="14.00">(4,(lambda p: Place. [])[p2 &#45;&gt; [2]][p1 &#45;&gt; [1]][p0 &#45;&gt; [0]])</text>
</g>
<!-- s4&#45;&gt;s15 -->
<g id="edge92" class="edge">
<title>s4&#45;&gt;s15</title>
<path fill="none" stroke="black" d="M440.3,-755.91C540.95,-740.46 696.62,-716.55 798.18,-700.96"/>
<polygon fill="black" stroke="black" points="798.79,-704.41 808.14,-699.43 797.72,-697.49 798.79,-704.41"/>
<text text-anchor="middle" x="706" y="-722.54" font-family="Times,serif" font-size="14.00">fire_trans(t0)</text>
</g>
<!-- s0 -->
<g id="node2" class="node">
<title>s0</title>
<ellipse fill="none" stroke="black" cx="5620" cy="-600.95" rx="245.23" ry="16.03"/>
<text text-anchor="middle" x="5620" y="-597.25" font-family="Times,serif" font-size="14.00">(4,(lambda p: Place. [])[p2 &#45;&gt; [2, 2]][p1 &#45;&gt; [1, 1]][p0 &#45;&gt; []])</text>
</g>
<!-- s0&#45;&gt;s1 -->
<g id="edge24" class="edge">
<title>s0&#45;&gt;s1</title>
<path fill="none" stroke="black" d="M5731.3,-586.39C5804.56,-574.23 5887,-552.9 5887,-518.42 5887,-518.42 5887,-518.42 5887,-98.79 5887,-48.24 5833.29,-61.78 5784,-50.53 5641.42,-17.97 3497.47,-16.75 2868.94,-17.1"/>
<polygon fill="black" stroke="black" points="2868.89,-13.6 2858.89,-17.1 2868.89,-20.6 2868.89,-13.6"/>
<text text-anchor="middle" x="5936" y="-304.91" font-family="Times,serif" font-size="14.00">get_tokens(p0, [])</text>
</g>
<!-- s0&#45;&gt;s1 -->
<g id="edge25" class="edge">
<title>s0&#45;&gt;s1</title>
<path fill="none" stroke="black" d="M5810.83,-590.68C5903.04,-580.78 5994,-560.37 5994,-518.42 5994,-518.42 5994,-518.42 5994,-98.79 5994,-22.81 5905.14,-61.76 5830,-50.53 5683,-28.55 3502.59,-19.85 2868.65,-17.78"/>
<polygon fill="black" stroke="black" points="2868.53,-14.28 2858.51,-17.75 2868.5,-21.28 2868.53,-14.28"/>
<text text-anchor="middle" x="6053.5" y="-304.91" font-family="Times,serif" font-size="14.00">get_tokens(p1, [1, 1])</text>
</g>
<!-- s0&#45;&gt;s1 -->
<g id="edge26" class="edge">
<title>s0&#45;&gt;s1</title>
<path fill="none" stroke="black" d="M5505.51,-586.5C5469.06,-575.31 5438,-555.04 5438,-518.42 5438,-518.42 5438,-518.42 5438,-98.79 5438,-28.99 5400.29,-63.8 5295,-50.53 5056.25,-20.42 3410.45,-17.39 2869.15,-17.22"/>
<polygon fill="black" stroke="black" points="2868.91,-13.72 2858.91,-17.22 2868.91,-20.72 2868.91,-13.72"/>
<text text-anchor="middle" x="5497.5" y="-304.91" font-family="Times,serif" font-size="14.00">get_tokens(p2, [2, 2])</text>
</g>
<!-- s0&#45;&gt;s1 -->
<g id="edge28" class="edge">
<title>s0&#45;&gt;s1</title>
<path fill="none" stroke="black" d="M5601.72,-584.47C5586.05,-569.39 5566,-544.91 5566,-518.42 5566,-518.42 5566,-518.42 5566,-98.79 5566,-7.78 5457.3,-61.89 5367,-50.53 5120.93,-19.56 3420.51,-17.12 2869.16,-17.15"/>
<polygon fill="black" stroke="black" points="2869.14,-13.65 2859.14,-17.16 2869.14,-20.65 2869.14,-13.65"/>
<text text-anchor="middle" x="5615" y="-304.91" font-family="Times,serif" font-size="14.00">get_tokens(p5, [])</text>
</g>
<!-- s0&#45;&gt;s1 -->
<g id="edge29" class="edge">
<title>s0&#45;&gt;s1</title>
<path fill="none" stroke="black" d="M5637.65,-584.7C5653.07,-569.59 5673,-544.93 5673,-518.42 5673,-518.42 5673,-518.42 5673,-98.79 5673,-4.32 5559.78,-61.89 5466,-50.53 5209.7,-19.48 3433.96,-17.12 2869.11,-17.16"/>
<polygon fill="black" stroke="black" points="2868.84,-13.66 2858.84,-17.16 2868.84,-20.66 2868.84,-13.66"/>
<text text-anchor="middle" x="5722" y="-304.91" font-family="Times,serif" font-size="14.00">get_tokens(p4, [])</text>
</g>
<!-- s0&#45;&gt;s1 -->
<g id="edge30" class="edge">
<title>s0&#45;&gt;s1</title>
<path fill="none" stroke="black" d="M5711.68,-585.77C5747.43,-574.54 5780,-554.43 5780,-518.42 5780,-518.42 5780,-518.42 5780,-98.79 5780,-2.59 5664.53,-61.87 5569,-50.53 5302.1,-18.83 3447.64,-16.93 2869.03,-17.12"/>
<polygon fill="black" stroke="black" points="2868.93,-13.62 2858.93,-17.12 2868.93,-20.62 2868.93,-13.62"/>
<text text-anchor="middle" x="5829" y="-304.91" font-family="Times,serif" font-size="14.00">get_tokens(p3, [])</text>
</g>
<!-- s13 -->
<g id="node14" class="node">
<title>s13</title>
<ellipse fill="none" stroke="black" cx="4625" cy="-517.42" rx="276.46" ry="16.03"/>
<text text-anchor="middle" x="4625" y="-513.72" font-family="Times,serif" font-size="14.00">(4,(lambda p: Place. [])[p4 &#45;&gt; [4]][p2 &#45;&gt; [2]][p1 &#45;&gt; [1, 1]][p0 &#45;&gt; []])</text>
</g>
<!-- s0&#45;&gt;s13 -->
<g id="edge27" class="edge">
<title>s0&#45;&gt;s13</title>
<path fill="none" stroke="black" d="M5472.92,-587.9C5290.03,-572.92 4978.79,-547.41 4788.56,-531.83"/>
<polygon fill="black" stroke="black" points="4788.72,-528.33 4778.47,-531 4788.15,-535.3 4788.72,-528.33"/>
<text text-anchor="middle" x="5247" y="-555.49" font-family="Times,serif" font-size="14.00">fire_trans(t2)</text>
</g>
<!-- s2 -->
<g id="node4" class="node">
<title>s2</title>
<ellipse fill="none" stroke="black" cx="3361" cy="-99.79" rx="340.24" ry="16.03"/>
<text text-anchor="middle" x="3361" y="-96.09" font-family="Times,serif" font-size="14.00">(4,(lambda p: Place. [])[p5 &#45;&gt; [5, 5]][p4 &#45;&gt; []][p3 &#45;&gt; []][p2 &#45;&gt; []][p1 &#45;&gt; []][p0 &#45;&gt; []])</text>
</g>
<!-- s2&#45;&gt;s1 -->
<g id="edge104" class="edge">
<title>s2&#45;&gt;s1</title>
<path fill="none" stroke="black" d="M3276.85,-84C3262.87,-79.41 3249.03,-73.39 3237,-65.53 3229.85,-60.85 3232.57,-54.47 3225,-50.53 3193.37,-34.08 3005.86,-25.35 2863.21,-21.02"/>
<polygon fill="black" stroke="black" points="2863.12,-17.52 2853.02,-20.72 2862.91,-24.51 2863.12,-17.52"/>
<text text-anchor="middle" x="3296.5" y="-54.33" font-family="Times,serif" font-size="14.00">get_tokens(p5, [5, 5])</text>
</g>
<!-- s2&#45;&gt;s1 -->
<g id="edge105" class="edge">
<title>s2&#45;&gt;s1</title>
<path fill="none" stroke="black" d="M3363.01,-83.38C3363.48,-72.53 3362,-58.56 3353,-50.53 3334.95,-34.42 3052.52,-25.05 2864.19,-20.56"/>
<polygon fill="black" stroke="black" points="2864.25,-17.06 2854.17,-20.33 2864.09,-24.06 2864.25,-17.06"/>
<text text-anchor="middle" x="3410" y="-54.33" font-family="Times,serif" font-size="14.00">get_tokens(p1, [])</text>
</g>
<!-- s2&#45;&gt;s1 -->
<g id="edge106" class="edge">
<title>s2&#45;&gt;s1</title>
<path fill="none" stroke="black" d="M3436.64,-83.9C3459.03,-76.26 3474.21,-65.37 3460,-50.53 3439.82,-29.45 3086.43,-21.63 2867.76,-18.8"/>
<polygon fill="black" stroke="black" points="2867.49,-15.3 2857.45,-18.67 2867.4,-22.3 2867.49,-15.3"/>
<text text-anchor="middle" x="3514" y="-54.33" font-family="Times,serif" font-size="14.00">get_tokens(p0, [])</text>
</g>
<!-- s2&#45;&gt;s1 -->
<g id="edge107" class="edge">
<title>s2&#45;&gt;s1</title>
<path fill="none" stroke="black" d="M3113.97,-88.59C3021.98,-83.21 2935.1,-75.6 2916,-65.53 2908.45,-61.54 2911.38,-54.83 2904,-50.53 2888.66,-41.58 2854.94,-34.63 2819.08,-29.44"/>
<polygon fill="black" stroke="black" points="2819.31,-25.94 2808.92,-28.02 2818.34,-32.87 2819.31,-25.94"/>
<text text-anchor="middle" x="2965" y="-54.33" font-family="Times,serif" font-size="14.00">get_tokens(p4, [])</text>
</g>
<!-- s2&#45;&gt;s1 -->
<g id="edge108" class="edge">
<title>s2&#45;&gt;s1</title>
<path fill="none" stroke="black" d="M3121.75,-88.18C3079.25,-83.24 3042.37,-76.04 3023,-65.53 3015.5,-61.46 3018.49,-54.63 3011,-50.53 2984.07,-35.79 2920.59,-27.58 2857.71,-23.01"/>
<polygon fill="black" stroke="black" points="2857.85,-19.51 2847.63,-22.3 2857.36,-26.49 2857.85,-19.51"/>
<text text-anchor="middle" x="3072" y="-54.33" font-family="Times,serif" font-size="14.00">get_tokens(p3, [])</text>
</g>
<!-- s2&#45;&gt;s1 -->
<g id="edge109" class="edge">
<title>s2&#45;&gt;s1</title>
<path fill="none" stroke="black" d="M3193.08,-85.61C3163.73,-80.83 3138.57,-74.33 3126,-65.53 3119.81,-61.19 3124.32,-54.67 3118,-50.53 3096.1,-36.19 2967.65,-27.5 2858.33,-22.61"/>
<polygon fill="black" stroke="black" points="2858.29,-19.11 2848.15,-22.17 2857.99,-26.1 2858.29,-19.11"/>
<text text-anchor="middle" x="3175" y="-54.33" font-family="Times,serif" font-size="14.00">get_tokens(p2, [])</text>
</g>
<!-- s3 -->
<g id="node5" class="node">
<title>s3</title>
<ellipse fill="none" stroke="black" cx="3907" cy="-266.84" rx="318.4" ry="16.03"/>
<text text-anchor="middle" x="3907" y="-263.14" font-family="Times,serif" font-size="14.00">(4,(lambda p: Place. [])[p4 &#45;&gt; [4, 4]][p3 &#45;&gt; [3, 3]][p2 &#45;&gt; []][p1 &#45;&gt; []][p0 &#45;&gt; []])</text>
</g>
<!-- s3&#45;&gt;s1 -->
<g id="edge97" class="edge">
<title>s3&#45;&gt;s1</title>
<path fill="none" stroke="black" d="M3910.26,-250.33C3913.73,-229.53 3916.67,-192.31 3900,-167.05 3890.37,-152.45 3874.11,-163.99 3865,-149.05 3861.53,-143.36 3860.52,-138.99 3865,-134.05 3893.23,-103 4024.77,-147.11 4053,-116.05 4062.79,-105.28 4063.17,-60.95 4053,-50.53 4032.59,-29.61 3227.83,-21.13 2867.91,-18.38"/>
<polygon fill="black" stroke="black" points="2867.69,-14.87 2857.66,-18.3 2867.63,-21.87 2867.69,-14.87"/>
<text text-anchor="middle" x="3924.5" y="-137.85" font-family="Times,serif" font-size="14.00">get_tokens(p3, [3, 3])</text>
</g>
<!-- s3&#45;&gt;s1 -->
<g id="edge98" class="edge">
<title>s3&#45;&gt;s1</title>
<path fill="none" stroke="black" d="M3916.59,-250.51C3937.84,-216.64 3987.46,-138.07 3993,-134.05 4017.96,-115.95 4041.24,-140.52 4060,-116.05 4077.72,-92.94 4079.66,-71.06 4059,-50.53 4038.16,-29.81 3228.63,-21.21 2867.68,-18.4"/>
<polygon fill="black" stroke="black" points="2867.69,-14.9 2857.66,-18.32 2867.63,-21.9 2867.69,-14.9"/>
<text text-anchor="middle" x="4052.5" y="-137.85" font-family="Times,serif" font-size="14.00">get_tokens(p4, [4, 4])</text>
</g>
<!-- s3&#45;&gt;s1 -->
<g id="edge100" class="edge">
<title>s3&#45;&gt;s1</title>
<path fill="none" stroke="black" d="M3937.16,-250.54C3991.08,-222.87 4099.31,-165.85 4109,-149.05 4129.38,-113.72 4136.84,-94.59 4068,-50.53 4018.39,-18.77 3226.09,-16.24 2869.08,-16.72"/>
<polygon fill="black" stroke="black" points="2868.9,-13.22 2858.9,-16.73 2868.91,-20.22 2868.9,-13.22"/>
<text text-anchor="middle" x="4165" y="-137.85" font-family="Times,serif" font-size="14.00">get_tokens(p1, [])</text>
</g>
<!-- s3&#45;&gt;s1 -->
<g id="edge101" class="edge">
<title>s3&#45;&gt;s1</title>
<path fill="none" stroke="black" d="M3945.06,-250.67C3958.93,-245.07 3974.71,-238.62 3989,-232.58 4022.54,-218.4 4033.3,-219.17 4064,-199.58 4082.46,-187.81 4081.18,-176.36 4101,-167.05 4148.75,-144.64 4240.52,-180.22 4215,-134.05 4181.23,-72.97 4148.84,-70.65 4082,-50.53 4024.88,-33.33 3224.39,-22.81 2867.09,-18.95"/>
<polygon fill="black" stroke="black" points="2866.95,-15.44 2856.91,-18.84 2866.87,-22.44 2866.95,-15.44"/>
<text text-anchor="middle" x="4268" y="-137.85" font-family="Times,serif" font-size="14.00">get_tokens(p0, [])</text>
</g>
<!-- s3&#45;&gt;s1 -->
<g id="edge102" class="edge">
<title>s3&#45;&gt;s1</title>
<path fill="none" stroke="black" d="M3958.67,-250.75C3975.78,-245.41 3994.84,-239.1 4012,-232.58 4045.66,-219.79 4057.72,-221.87 4086,-199.58 4100.32,-188.29 4095.01,-175.81 4111,-167.05 4192.71,-122.3 4370.11,-211.28 4318,-134.05 4262.51,-51.82 4208.16,-70.58 4111,-50.53 3992.53,-26.08 3218.62,-19.56 2868.52,-17.85"/>
<polygon fill="black" stroke="black" points="2868.31,-14.35 2858.29,-17.8 2868.27,-21.35 2868.31,-14.35"/>
<text text-anchor="middle" x="4374" y="-137.85" font-family="Times,serif" font-size="14.00">get_tokens(p5, [])</text>
</g>
<!-- s3&#45;&gt;s1 -->
<g id="edge103" class="edge">
<title>s3&#45;&gt;s1</title>
<path fill="none" stroke="black" d="M3906.32,-250.25C3904.89,-225.35 3900.68,-178.3 3889,-167.05 3847.29,-126.91 3723.4,-176.28 3763,-134.05 3805.65,-88.57 4000.35,-161.53 4043,-116.05 4052.96,-105.43 4052.33,-60.8 4042,-50.53 4021.47,-30.11 3225.37,-21.36 2867.82,-18.46"/>
<polygon fill="black" stroke="black" points="2867.66,-14.96 2857.63,-18.38 2867.6,-21.96 2867.66,-14.96"/>
<text text-anchor="middle" x="3812" y="-137.85" font-family="Times,serif" font-size="14.00">get_tokens(p2, [])</text>
</g>
<!-- s9 -->
<g id="node10" class="node">
<title>s9</title>
<ellipse fill="none" stroke="black" cx="3444" cy="-183.32" rx="339.32" ry="16.03"/>
<text text-anchor="middle" x="3444" y="-179.62" font-family="Times,serif" font-size="14.00">(4,(lambda p: Place. [])[p5 &#45;&gt; [5]][p4 &#45;&gt; [4]][p3 &#45;&gt; [3]][p2 &#45;&gt; []][p1 &#45;&gt; []][p0 &#45;&gt; []])</text>
</g>
<!-- s3&#45;&gt;s9 -->
<g id="edge99" class="edge">
<title>s3&#45;&gt;s9</title>
<path fill="none" stroke="black" d="M3823.42,-251.13C3743.08,-236.98 3621.83,-215.63 3538.12,-200.89"/>
<polygon fill="black" stroke="black" points="3538.56,-197.41 3528.1,-199.13 3537.34,-204.31 3538.56,-197.41"/>
<text text-anchor="middle" x="3752" y="-221.38" font-family="Times,serif" font-size="14.00">fire_trans(t3)</text>
</g>
<!-- s5 -->
<g id="node6" class="node">
<title>s5</title>
<ellipse fill="none" stroke="black" cx="3931" cy="-350.37" rx="313.5" ry="16.03"/>
<text text-anchor="middle" x="3931" y="-346.67" font-family="Times,serif" font-size="14.00">(4,(lambda p: Place. [])[p4 &#45;&gt; [4, 4]][p3 &#45;&gt; [3]][p2 &#45;&gt; []][p1 &#45;&gt; [1]][p0 &#45;&gt; []])</text>
</g>
<!-- s5&#45;&gt;s1 -->
<g id="edge82" class="edge">
<title>s5&#45;&gt;s1</title>
<path fill="none" stroke="black" d="M4063.92,-335.62C4131.73,-325.57 4204.25,-309.06 4225,-283.11 4275.58,-219.86 4146.6,-244.9 4118,-199.58 4110.28,-187.36 4108.08,-177.57 4118,-167.05 4164.73,-117.49 4377.27,-198.61 4424,-149.05 4428.57,-144.2 4427.8,-139.53 4424,-134.05 4355.32,-35.01 4285.31,-67.63 4166,-50.53 4040.75,-32.57 3227.28,-22.47 2867.59,-18.83"/>
<polygon fill="black" stroke="black" points="2867.38,-15.33 2857.34,-18.73 2867.31,-22.33 2867.38,-15.33"/>
<text text-anchor="middle" x="4177.5" y="-179.62" font-family="Times,serif" font-size="14.00">get_tokens(p4, [4, 4])</text>
</g>
<!-- s5&#45;&gt;s1 -->
<g id="edge83" class="edge">
<title>s5&#45;&gt;s1</title>
<path fill="none" stroke="black" d="M4104.27,-336.82C4131.11,-331.94 4158.15,-325.26 4183,-316.11 4208.34,-306.78 4219.99,-306.19 4234,-283.11 4247.44,-260.96 4226.71,-185.4 4245,-167.05 4274.01,-137.96 4401.4,-179.49 4429,-149.05 4449.52,-126.43 4430.92,-107.91 4396,-83.53 4342.52,-46.19 4317.72,-58.6 4253,-50.53 3990.07,-17.73 3216.72,-15.66 2869.37,-16.49"/>
<polygon fill="black" stroke="black" points="2869.21,-12.99 2859.22,-16.51 2869.23,-19.99 2869.21,-12.99"/>
<text text-anchor="middle" x="4297.5" y="-179.62" font-family="Times,serif" font-size="14.00">get_tokens(p3, [3])</text>
</g>
<!-- s5&#45;&gt;s1 -->
<g id="edge84" class="edge">
<title>s5&#45;&gt;s1</title>
<path fill="none" stroke="black" d="M4102.96,-336.76C4145.61,-331.76 4184.65,-325.02 4204,-316.11 4223.71,-307.03 4226.18,-299.85 4240,-283.11 4250.8,-270.02 4247.87,-262.45 4260,-250.58 4292.03,-219.22 4318.7,-234.34 4347,-199.58 4356.64,-187.75 4346.67,-177.28 4358,-167.05 4384.73,-142.92 4414.54,-177.2 4437,-149.05 4451.02,-131.49 4440.76,-105.01 4418,-83.53 4382.12,-49.66 4360.7,-58.45 4312,-50.53 4172.8,-27.89 3255.23,-20.29 2868.45,-18.07"/>
<polygon fill="black" stroke="black" points="2868.31,-14.57 2858.29,-18.01 2868.27,-21.57 2868.31,-14.57"/>
<text text-anchor="middle" x="4407" y="-179.62" font-family="Times,serif" font-size="14.00">get_tokens(p0, [])</text>
</g>
<!-- s5&#45;&gt;s1 -->
<g id="edge87" class="edge">
<title>s5&#45;&gt;s1</title>
<path fill="none" stroke="black" d="M4113.27,-337.09C4157.51,-332.12 4197.87,-325.31 4218,-316.11 4237.74,-307.09 4240.77,-300.32 4254,-283.11 4263.94,-270.17 4258.76,-261.36 4271,-250.58 4278.91,-243.61 4349.84,-220.43 4360,-217.58 4400.54,-206.22 4426.21,-232.06 4453,-199.58 4472.82,-175.56 4455.3,-109.98 4433,-83.53 4409,-55.06 4392.4,-58.38 4356,-50.53 4213.87,-19.87 3264.16,-16.88 2869,-16.98"/>
<polygon fill="black" stroke="black" points="2868.91,-13.48 2858.91,-16.99 2868.91,-20.48 2868.91,-13.48"/>
<text text-anchor="middle" x="4513.5" y="-179.62" font-family="Times,serif" font-size="14.00">get_tokens(p1, [1])</text>
</g>
<!-- s5&#45;&gt;s1 -->
<g id="edge88" class="edge">
<title>s5&#45;&gt;s1</title>
<path fill="none" stroke="black" d="M3756.36,-336.87C3699.33,-331.73 3635.82,-324.89 3578,-316.11 3525.46,-308.13 3162.2,-227.55 3110,-217.58 3086.75,-213.14 3020.26,-217.68 3005,-199.58 2995.68,-188.53 2995.94,-178.32 3005,-167.05 3028.38,-137.98 3063.62,-178.13 3087,-149.05 3091.18,-143.86 3091.6,-138.88 3087,-134.05 3056.96,-102.6 2726.04,-147.51 2696,-116.05 2686.36,-105.96 2689.38,-68.77 2692.86,-43.02"/>
<polygon fill="black" stroke="black" points="2696.37,-43.19 2694.35,-32.8 2689.45,-42.19 2696.37,-43.19"/>
<text text-anchor="middle" x="3054" y="-179.62" font-family="Times,serif" font-size="14.00">get_tokens(p5, [])</text>
</g>
<!-- s5&#45;&gt;s1 -->
<g id="edge89" class="edge">
<title>s5&#45;&gt;s1</title>
<path fill="none" stroke="black" d="M3762.14,-336.66C3687.72,-327.21 3611.95,-310.93 3589,-283.11 3579.8,-271.96 3579.52,-261.49 3589,-250.58 3607.84,-228.9 3689.57,-241.12 3717,-232.58 3748.31,-222.84 3765.76,-227.48 3783,-199.58 3790.6,-187.28 3790.03,-179.69 3783,-167.05 3775.63,-153.8 3761.37,-162.31 3754,-149.05 3750.76,-143.23 3749.44,-138.92 3754,-134.05 3796.18,-89.04 3988.82,-161.06 4031,-116.05 4040.89,-105.51 4040.43,-94.49 4031,-83.53 3993.62,-40.06 3217.72,-24.21 2866.77,-19.24"/>
<polygon fill="black" stroke="black" points="2866.82,-15.74 2856.77,-19.1 2866.72,-22.74 2866.82,-15.74"/>
<text text-anchor="middle" x="3837" y="-179.62" font-family="Times,serif" font-size="14.00">get_tokens(p2, [])</text>
</g>
<!-- s5&#45;&gt;s3 -->
<g id="edge86" class="edge">
<title>s5&#45;&gt;s3</title>
<path fill="none" stroke="black" d="M3926.49,-334.04C3923.07,-322.42 3918.3,-306.22 3914.33,-292.75"/>
<polygon fill="black" stroke="black" points="3917.68,-291.71 3911.49,-283.11 3910.96,-293.69 3917.68,-291.71"/>
<text text-anchor="middle" x="3957" y="-304.91" font-family="Times,serif" font-size="14.00">fire_trans(t1)</text>
</g>
<!-- s6 -->
<g id="node7" class="node">
<title>s6</title>
<ellipse fill="none" stroke="black" cx="2848" cy="-266.84" rx="339.32" ry="16.03"/>
<text text-anchor="middle" x="2848" y="-263.14" font-family="Times,serif" font-size="14.00">(4,(lambda p: Place. [])[p5 &#45;&gt; [5]][p4 &#45;&gt; [4]][p3 &#45;&gt; []][p2 &#45;&gt; []][p1 &#45;&gt; [1]][p0 &#45;&gt; []])</text>
</g>
<!-- s5&#45;&gt;s6 -->
<g id="edge85" class="edge">
<title>s5&#45;&gt;s6</title>
<path fill="none" stroke="black" d="M3628.99,-346.02C3478.41,-342.02 3293.73,-333.6 3129,-316.11 3061.32,-308.92 2985.28,-295.53 2929.39,-284.68"/>
<polygon fill="black" stroke="black" points="2930.03,-281.24 2919.54,-282.75 2928.69,-288.11 2930.03,-281.24"/>
<text text-anchor="middle" x="3165" y="-304.91" font-family="Times,serif" font-size="14.00">fire_trans(t3)</text>
</g>
<!-- s6&#45;&gt;s1 -->
<g id="edge54" class="edge">
<title>s6&#45;&gt;s1</title>
<path fill="none" stroke="black" d="M2829.5,-250.3C2823.19,-244.83 2816.17,-238.56 2810,-232.58 2780.53,-204.04 2782.24,-184.25 2745,-167.05 2701.87,-147.14 2564.14,-184.03 2532,-149.05 2489.23,-102.52 2578.9,-58.89 2642.02,-35.36"/>
<polygon fill="black" stroke="black" points="2643.32,-38.61 2651.51,-31.9 2640.92,-32.04 2643.32,-38.61"/>
<text text-anchor="middle" x="2584.5" y="-137.85" font-family="Times,serif" font-size="14.00">get_tokens(p5, [5])</text>
</g>
<!-- s6&#45;&gt;s1 -->
<g id="edge55" class="edge">
<title>s6&#45;&gt;s1</title>
<path fill="none" stroke="black" d="M2835.36,-250.28C2830.83,-244.7 2825.68,-238.36 2821,-232.58 2797.42,-203.48 2800.53,-185.62 2768,-167.05 2720.4,-139.89 2683.06,-189.44 2646,-149.05 2635.79,-137.93 2632.55,-71.24 2644,-50.53 2646.53,-45.95 2649.98,-41.92 2653.92,-38.39"/>
<polygon fill="black" stroke="black" points="2656.18,-41.07 2661.98,-32.21 2651.92,-35.52 2656.18,-41.07"/>
<text text-anchor="middle" x="2695" y="-137.85" font-family="Times,serif" font-size="14.00">get_tokens(p0, [])</text>
</g>
<!-- s6&#45;&gt;s1 -->
<g id="edge56" class="edge">
<title>s6&#45;&gt;s1</title>
<path fill="none" stroke="black" d="M2841.6,-250.39C2832.24,-229.33 2813.05,-191.43 2787,-167.05 2774.52,-155.37 2766.17,-159.96 2753,-149.05 2746.42,-143.61 2748.27,-138.52 2741,-134.05 2707.73,-113.6 2679.62,-146.36 2655,-116.05 2636.64,-93.45 2642.32,-76.74 2655,-50.53 2656.97,-46.46 2659.7,-42.74 2662.83,-39.38"/>
<polygon fill="black" stroke="black" points="2665.21,-41.95 2670.21,-32.61 2660.47,-36.8 2665.21,-41.95"/>
<text text-anchor="middle" x="2805.5" y="-137.85" font-family="Times,serif" font-size="14.00">get_tokens(p4, [4])</text>
</g>
<!-- s6&#45;&gt;s1 -->
<g id="edge58" class="edge">
<title>s6&#45;&gt;s1</title>
<path fill="none" stroke="black" d="M2855,-250.5C2866.25,-223.26 2884.29,-166.26 2855,-134.05 2826.62,-102.84 2694.38,-147.27 2666,-116.05 2646.41,-94.51 2655.33,-77.63 2666,-50.53 2667.38,-47.02 2669.33,-43.65 2671.58,-40.51"/>
<polygon fill="black" stroke="black" points="2674.35,-42.66 2678.08,-32.75 2668.98,-38.17 2674.35,-42.66"/>
<text text-anchor="middle" x="2916.5" y="-137.85" font-family="Times,serif" font-size="14.00">get_tokens(p1, [1])</text>
</g>
<!-- s6&#45;&gt;s1 -->
<g id="edge59" class="edge">
<title>s6&#45;&gt;s1</title>
<path fill="none" stroke="black" d="M2880.23,-250.51C2928.08,-225.83 3008.26,-175.8 2969,-134.05 2924.31,-86.53 2720.69,-163.57 2676,-116.05 2657.19,-96.05 2669.25,-63.54 2681.46,-41.32"/>
<polygon fill="black" stroke="black" points="2684.59,-42.9 2686.61,-32.49 2678.55,-39.37 2684.59,-42.9"/>
<text text-anchor="middle" x="3027" y="-137.85" font-family="Times,serif" font-size="14.00">get_tokens(p3, [])</text>
</g>
<!-- s6&#45;&gt;s1 -->
<g id="edge60" class="edge">
<title>s6&#45;&gt;s1</title>
<path fill="none" stroke="black" d="M2823.04,-250.46C2815.08,-245.15 2806.42,-238.93 2799,-232.58 2792.07,-226.65 2792.78,-222.35 2785,-217.58 2750.3,-196.32 2648.97,-174.66 2609,-167.05 2568.21,-159.29 2450.91,-179.8 2423,-149.05 2407.39,-131.87 2446.27,-102.24 2574,-50.53 2589.85,-44.11 2607.35,-38.53 2624.06,-33.88"/>
<polygon fill="black" stroke="black" points="2625.04,-37.23 2633.78,-31.24 2623.21,-30.48 2625.04,-37.23"/>
<text text-anchor="middle" x="2472" y="-137.85" font-family="Times,serif" font-size="14.00">get_tokens(p2, [])</text>
</g>
<!-- s6&#45;&gt;s9 -->
<g id="edge57" class="edge">
<title>s6&#45;&gt;s9</title>
<path fill="none" stroke="black" d="M2964.14,-251.54C3009.65,-245.81 3062.29,-239.06 3110,-232.58 3185.65,-222.31 3270.83,-209.99 3336.23,-200.37"/>
<polygon fill="black" stroke="black" points="3336.76,-203.83 3346.14,-198.91 3335.74,-196.91 3336.76,-203.83"/>
<text text-anchor="middle" x="3247" y="-221.38" font-family="Times,serif" font-size="14.00">fire_trans(t1)</text>
</g>
<!-- s7 -->
<g id="node8" class="node">
<title>s7</title>
<ellipse fill="none" stroke="black" cx="1567" cy="-517.42" rx="302.78" ry="16.03"/>
<text text-anchor="middle" x="1567" y="-513.72" font-family="Times,serif" font-size="14.00">(4,(lambda p: Place. [])[p4 &#45;&gt; [4]][p3 &#45;&gt; [3]][p2 &#45;&gt; []][p1 &#45;&gt; []][p0 &#45;&gt; [0]])</text>
</g>
<!-- s7&#45;&gt;s1 -->
<g id="edge39" class="edge">
<title>s7&#45;&gt;s1</title>
<path fill="none" stroke="black" d="M1866.5,-515.07C2571.16,-510.88 4275,-494.59 4275,-434.9 4275,-434.9 4275,-434.9 4275,-307.61 4275,-282.23 4261.49,-269.86 4278,-250.58 4283.8,-243.81 4426.22,-219.1 4435,-217.58 4463.95,-212.56 4546.69,-221.73 4566,-199.58 4575.5,-188.68 4572.72,-179.85 4566,-167.05 4522.06,-83.33 4479.07,-75.95 4388,-50.53 4315.82,-30.38 3283.22,-21.21 2868.03,-18.32"/>
<polygon fill="black" stroke="black" points="2867.75,-14.82 2857.73,-18.25 2867.71,-21.82 2867.75,-14.82"/>
<text text-anchor="middle" x="4330.5" y="-263.14" font-family="Times,serif" font-size="14.00">get_tokens(p3, [3])</text>
</g>
<!-- s7&#45;&gt;s1 -->
<g id="edge40" class="edge">
<title>s7&#45;&gt;s1</title>
<path fill="none" stroke="black" d="M1424.33,-503.01C1402.65,-498.26 1384.88,-491.84 1377,-483.16 1349.73,-453.12 1391.47,-330.02 1363,-301.11 1332.46,-270.1 1198.16,-314.48 1168,-283.11 1150.41,-264.81 1165,-251.46 1165,-226.08 1165,-226.08 1165,-226.08 1165,-98.79 1165,-48.64 1218.2,-62.09 1267,-50.53 1386.22,-22.28 2171.48,-17.82 2525.01,-17.25"/>
<polygon fill="black" stroke="black" points="2525.09,-20.75 2535.08,-17.24 2525.08,-13.75 2525.09,-20.75"/>
<text text-anchor="middle" x="1217" y="-263.14" font-family="Times,serif" font-size="14.00">get_tokens(p1, [])</text>
</g>
<!-- s7&#45;&gt;s1 -->
<g id="edge42" class="edge">
<title>s7&#45;&gt;s1</title>
<path fill="none" stroke="black" d="M1434.85,-502.69C1413.44,-497.96 1395.73,-491.62 1388,-483.16 1360.58,-453.15 1397.8,-330.77 1370,-301.11 1340.31,-269.43 1302.59,-315.77 1274,-283.11 1257.28,-264.01 1271,-251.46 1271,-226.08 1271,-226.08 1271,-226.08 1271,-98.79 1271,-45.81 1328.31,-62.14 1380,-50.53 1488.64,-26.11 2194.05,-19.59 2525.47,-17.87"/>
<polygon fill="black" stroke="black" points="2525.67,-21.37 2535.65,-17.82 2525.63,-14.37 2525.67,-21.37"/>
<text text-anchor="middle" x="1326.5" y="-263.14" font-family="Times,serif" font-size="14.00">get_tokens(p4, [4])</text>
</g>
<!-- s7&#45;&gt;s1 -->
<g id="edge43" class="edge">
<title>s7&#45;&gt;s1</title>
<path fill="none" stroke="black" d="M1520.66,-501.26C1510.76,-496.54 1500.91,-490.58 1493,-483.16 1402.45,-398.3 1384,-350.18 1384,-226.08 1384,-226.08 1384,-226.08 1384,-98.79 1384,-77.05 1375.6,-64.8 1392,-50.53 1413.1,-32.17 2177.81,-22.34 2526.63,-18.81"/>
<polygon fill="black" stroke="black" points="2526.86,-22.31 2536.83,-18.71 2526.79,-15.31 2526.86,-22.31"/>
<text text-anchor="middle" x="1437.5" y="-263.14" font-family="Times,serif" font-size="14.00">get_tokens(p0, [0])</text>
</g>
<!-- s7&#45;&gt;s1 -->
<g id="edge45" class="edge">
<title>s7&#45;&gt;s1</title>
<path fill="none" stroke="black" d="M1524.75,-501.23C1516.77,-496.57 1509.28,-490.64 1504,-483.16 1491.5,-465.45 1497,-456.57 1497,-434.9 1497,-434.9 1497,-434.9 1497,-307.61 1497,-282.01 1506.48,-269.27 1489,-250.58 1462.33,-222.06 1427.62,-262.89 1403,-232.58 1390.25,-216.88 1388.88,-65.01 1403,-50.53 1422.32,-30.7 2179.09,-21.68 2526.19,-18.59"/>
<polygon fill="black" stroke="black" points="2526.37,-22.09 2536.34,-18.5 2526.31,-15.09 2526.37,-22.09"/>
<text text-anchor="middle" x="1548" y="-263.14" font-family="Times,serif" font-size="14.00">get_tokens(p5, [])</text>
</g>
<!-- s7&#45;&gt;s1 -->
<g id="edge46" class="edge">
<title>s7&#45;&gt;s1</title>
<path fill="none" stroke="black" d="M1549.47,-500.97C1536.91,-488.64 1521.02,-470.18 1514,-450.16 1509.22,-436.52 1510.13,-431.56 1514,-417.63 1525.04,-377.88 1622.67,-281.19 1595,-250.58 1568.34,-221.09 1443.66,-262.07 1417,-232.58 1407.64,-222.23 1407.14,-204.17 1426,-167.05 1462.98,-94.27 1489.09,-71.46 1568,-50.53 1657.71,-26.73 2232.18,-19.94 2525.36,-18.01"/>
<polygon fill="black" stroke="black" points="2525.69,-21.51 2535.67,-17.95 2525.65,-14.51 2525.69,-21.51"/>
<text text-anchor="middle" x="1648" y="-263.14" font-family="Times,serif" font-size="14.00">get_tokens(p2, [])</text>
</g>
<!-- s10 -->
<g id="node11" class="node">
<title>s10</title>
<ellipse fill="none" stroke="black" cx="1848" cy="-433.9" rx="334.42" ry="16.03"/>
<text text-anchor="middle" x="1848" y="-430.2" font-family="Times,serif" font-size="14.00">(4,(lambda p: Place. [])[p5 &#45;&gt; [5]][p4 &#45;&gt; []][p3 &#45;&gt; []][p2 &#45;&gt; []][p1 &#45;&gt; []][p0 &#45;&gt; [0]])</text>
</g>
<!-- s7&#45;&gt;s10 -->
<g id="edge41" class="edge">
<title>s7&#45;&gt;s10</title>
<path fill="none" stroke="black" d="M1618.87,-501.38C1666.14,-487.66 1736.05,-467.38 1786.2,-452.83"/>
<polygon fill="black" stroke="black" points="1787.33,-456.14 1795.96,-450 1785.38,-449.42 1787.33,-456.14"/>
<text text-anchor="middle" x="1768" y="-471.96" font-family="Times,serif" font-size="14.00">fire_trans(t3)</text>
</g>
<!-- s11 -->
<g id="node12" class="node">
<title>s11</title>
<ellipse fill="none" stroke="black" cx="2494" cy="-433.9" rx="307.68" ry="16.03"/>
<text text-anchor="middle" x="2494" y="-430.2" font-family="Times,serif" font-size="14.00">(4,(lambda p: Place. [])[p4 &#45;&gt; [4]][p3 &#45;&gt; [3]][p2 &#45;&gt; [2]][p1 &#45;&gt; [1]][p0 &#45;&gt; []])</text>
</g>
<!-- s7&#45;&gt;s11 -->
<g id="edge44" class="edge">
<title>s7&#45;&gt;s11</title>
<path fill="none" stroke="black" d="M1716.45,-503.28C1885.62,-488.4 2160.17,-464.26 2333.7,-449"/>
<polygon fill="black" stroke="black" points="2334.03,-452.48 2343.69,-448.12 2333.42,-445.51 2334.03,-452.48"/>
<text text-anchor="middle" x="2149" y="-471.96" font-family="Times,serif" font-size="14.00">fire_trans(t0)</text>
</g>
<!-- s8 -->
<g id="node9" class="node">
<title>s8</title>
<ellipse fill="none" stroke="black" cx="4913" cy="-433.9" rx="281.36" ry="16.03"/>
<text text-anchor="middle" x="4913" y="-430.2" font-family="Times,serif" font-size="14.00">(4,(lambda p: Place. [])[p4 &#45;&gt; [4, 4]][p2 &#45;&gt; []][p1 &#45;&gt; [1, 1]][p0 &#45;&gt; []])</text>
</g>
<!-- s8&#45;&gt;s1 -->
<g id="edge75" class="edge">
<title>s8&#45;&gt;s1</title>
<path fill="none" stroke="black" d="M4854.02,-417.81C4845.5,-413.25 4837.7,-407.33 4832,-399.63 4812.2,-372.9 4841.5,-274.13 4818,-250.58 4788.51,-221.03 4660.07,-262.54 4631,-232.58 4602.77,-203.48 4648.36,-78.49 4619,-50.53 4587.55,-20.56 3335.09,-17.34 2869.2,-17.18"/>
<polygon fill="black" stroke="black" points="2869.02,-13.68 2859.02,-17.17 2869.02,-20.68 2869.02,-13.68"/>
<text text-anchor="middle" x="4690.5" y="-221.38" font-family="Times,serif" font-size="14.00">get_tokens(p4, [4, 4])</text>
</g>
<!-- s8&#45;&gt;s1 -->
<g id="edge76" class="edge">
<title>s8&#45;&gt;s1</title>
<path fill="none" stroke="black" d="M4878.1,-417.66C4870.5,-412.88 4863.18,-406.9 4858,-399.63 4818.68,-344.46 4872.67,-299.7 4826,-250.58 4804.76,-228.23 4784.43,-250.02 4759,-232.58 4753.84,-229.04 4631.56,-53.41 4626,-50.53 4587.27,-30.44 3333.26,-21.01 2868.26,-18.2"/>
<polygon fill="black" stroke="black" points="2868.11,-14.7 2858.09,-18.14 2868.07,-21.7 2868.11,-14.7"/>
<text text-anchor="middle" x="4808" y="-221.38" font-family="Times,serif" font-size="14.00">get_tokens(p0, [])</text>
</g>
<!-- s8&#45;&gt;s1 -->
<g id="edge77" class="edge">
<title>s8&#45;&gt;s1</title>
<path fill="none" stroke="black" d="M4896.02,-417.51C4881.18,-402.31 4862,-377.58 4862,-351.37 4862,-351.37 4862,-351.37 4862,-98.79 4862,4.35 4737.48,-62.19 4635,-50.53 4462.55,-30.9 3309.34,-21.3 2868.19,-18.32"/>
<polygon fill="black" stroke="black" points="2867.93,-14.82 2857.9,-18.25 2867.88,-21.82 2867.93,-14.82"/>
<text text-anchor="middle" x="4921.5" y="-221.38" font-family="Times,serif" font-size="14.00">get_tokens(p1, [1, 1])</text>
</g>
<!-- s8&#45;&gt;s1 -->
<g id="edge79" class="edge">
<title>s8&#45;&gt;s1</title>
<path fill="none" stroke="black" d="M4941.67,-417.56C4963.56,-403.55 4990,-380.57 4990,-351.37 4990,-351.37 4990,-351.37 4990,-98.79 4990,10.45 4857.61,-62.19 4749,-50.53 4564.92,-30.77 3327.17,-21.17 2867.99,-18.25"/>
<polygon fill="black" stroke="black" points="2867.98,-14.75 2857.95,-18.19 2867.93,-21.75 2867.98,-14.75"/>
<text text-anchor="middle" x="5039" y="-221.38" font-family="Times,serif" font-size="14.00">get_tokens(p5, [])</text>
</g>
<!-- s8&#45;&gt;s1 -->
<g id="edge80" class="edge">
<title>s8&#45;&gt;s1</title>
<path fill="none" stroke="black" d="M5031.09,-419.07C5066.92,-407.78 5097,-387.53 5097,-351.37 5097,-351.37 5097,-351.37 5097,-98.79 5097,4.79 4971.93,-62.1 4869,-50.53 4672.94,-28.48 3346.15,-20.25 2868.18,-17.98"/>
<polygon fill="black" stroke="black" points="2868.1,-14.48 2858.08,-17.93 2868.07,-21.48 2868.1,-14.48"/>
<text text-anchor="middle" x="5146" y="-221.38" font-family="Times,serif" font-size="14.00">get_tokens(p3, [])</text>
</g>
<!-- s8&#45;&gt;s1 -->
<g id="edge81" class="edge">
<title>s8&#45;&gt;s1</title>
<path fill="none" stroke="black" d="M5041.39,-419.37C5056.14,-414.52 5070.39,-408.1 5083,-399.63 5148.83,-355.45 5133.77,-314.26 5181,-250.58 5187.2,-242.22 5192.45,-242.37 5196,-232.58 5220.41,-165.17 5237.82,-179.87 5101,-83.53 5056.47,-52.18 5036.9,-58.32 4983,-50.53 4776.35,-20.64 3364.89,-17.41 2868.9,-17.21"/>
<polygon fill="black" stroke="black" points="2868.79,-13.71 2858.79,-17.21 2868.79,-20.71 2868.79,-13.71"/>
<text text-anchor="middle" x="5250" y="-221.38" font-family="Times,serif" font-size="14.00">get_tokens(p2, [])</text>
</g>
<!-- s8&#45;&gt;s5 -->
<g id="edge78" class="edge">
<title>s8&#45;&gt;s5</title>
<path fill="none" stroke="black" d="M4760.37,-420.23C4580.98,-405.33 4284.29,-380.7 4098.64,-365.29"/>
<polygon fill="black" stroke="black" points="4098.76,-361.79 4088.51,-364.45 4098.18,-368.76 4098.76,-361.79"/>
<text text-anchor="middle" x="4545" y="-388.43" font-family="Times,serif" font-size="14.00">fire_trans(t1)</text>
</g>
<!-- s9&#45;&gt;s1 -->
<g id="edge68" class="edge">
<title>s9&#45;&gt;s1</title>
<path fill="none" stroke="black" d="M3552.32,-167.84C3613.86,-157.15 3682.27,-140.23 3701,-116.05 3709.85,-104.63 3709.95,-94.88 3701,-83.53 3662.24,-34.33 3626.04,-59.1 3564,-50.53 3433.92,-32.55 3078.85,-23.63 2865.61,-19.77"/>
<polygon fill="black" stroke="black" points="2865.62,-16.27 2855.56,-19.59 2865.5,-23.27 2865.62,-16.27"/>
<text text-anchor="middle" x="3759.5" y="-96.09" font-family="Times,serif" font-size="14.00">get_tokens(p3, [3])</text>
</g>
<!-- s9&#45;&gt;s1 -->
<g id="edge69" class="edge">
<title>s9&#45;&gt;s1</title>
<path fill="none" stroke="black" d="M3546.75,-167.78C3582.38,-162.38 3622.53,-155.89 3659,-149.05 3689.42,-143.35 3696.74,-140.56 3727,-134.05 3765.18,-125.85 3788.38,-146.36 3813,-116.05 3822.12,-104.83 3822.29,-94.6 3813,-83.53 3758.76,-18.87 3709.93,-59.39 3626,-50.53 3483.44,-35.47 3091.39,-25.29 2864.75,-20.47"/>
<polygon fill="black" stroke="black" points="2864.49,-16.97 2854.42,-20.25 2864.34,-23.97 2864.49,-16.97"/>
<text text-anchor="middle" x="3871.5" y="-96.09" font-family="Times,serif" font-size="14.00">get_tokens(p5, [5])</text>
</g>
<!-- s9&#45;&gt;s1 -->
<g id="edge71" class="edge">
<title>s9&#45;&gt;s1</title>
<path fill="none" stroke="black" d="M3590.51,-168.61C3625.67,-163.8 3662.9,-157.42 3697,-149.05 3715.84,-144.43 3719.08,-138.35 3738,-134.05 3778.71,-124.81 3896.93,-146.96 3925,-116.05 3934.72,-105.35 3934.4,-94.51 3925,-83.53 3862.97,-11.1 3807.94,-59.44 3713,-50.53 3417.52,-22.8 3071.84,-17.14 2869.4,-16.53"/>
<polygon fill="black" stroke="black" points="2869.28,-13.03 2859.27,-16.5 2869.26,-20.03 2869.28,-13.03"/>
<text text-anchor="middle" x="3981" y="-96.09" font-family="Times,serif" font-size="14.00">get_tokens(p1, [])</text>
</g>
<!-- s9&#45;&gt;s1 -->
<g id="edge72" class="edge">
<title>s9&#45;&gt;s1</title>
<path fill="none" stroke="black" d="M3217.17,-171.21C3172.22,-166.31 3132.57,-159.24 3112,-149.05 3103.83,-145.01 3106.28,-137.88 3098,-134.05 3058.11,-115.63 2734.3,-146.88 2703,-116.05 2697.89,-111.02 2696.89,-70.59 2696.82,-43.03"/>
<polygon fill="black" stroke="black" points="2700.32,-42.85 2696.83,-32.85 2693.32,-42.85 2700.32,-42.85"/>
<text text-anchor="middle" x="2752" y="-96.09" font-family="Times,serif" font-size="14.00">get_tokens(p0, [])</text>
</g>
<!-- s9&#45;&gt;s1 -->
<g id="edge73" class="edge">
<title>s9&#45;&gt;s1</title>
<path fill="none" stroke="black" d="M3225.08,-170.83C3181.45,-165.94 3142.94,-158.97 3123,-149.05 3114.84,-144.99 3117.25,-137.94 3109,-134.05 3048.57,-105.61 2862.07,-156.59 2809,-116.05 2796.87,-106.79 2807.33,-95.6 2798,-83.53 2782.76,-63.82 2759.91,-48.13 2739.8,-36.98"/>
<polygon fill="black" stroke="black" points="2741.26,-33.79 2730.79,-32.17 2737.97,-39.96 2741.26,-33.79"/>
<text text-anchor="middle" x="2861.5" y="-96.09" font-family="Times,serif" font-size="14.00">get_tokens(p4, [4])</text>
</g>
<!-- s9&#45;&gt;s1 -->
<g id="edge74" class="edge">
<title>s9&#45;&gt;s1</title>
<path fill="none" stroke="black" d="M3354.8,-167.61C3289.82,-157.25 3199.62,-143.58 3120,-134.05 3075.91,-128.78 2955.49,-144.02 2921,-116.05 2909.25,-106.53 2921.68,-94.23 2911,-83.53 2884.32,-56.79 2847.08,-40.8 2811.14,-31.26"/>
<polygon fill="black" stroke="black" points="2811.59,-27.76 2801.04,-28.73 2809.9,-34.55 2811.59,-27.76"/>
<text text-anchor="middle" x="2970" y="-96.09" font-family="Times,serif" font-size="14.00">get_tokens(p2, [])</text>
</g>
<!-- s9&#45;&gt;s2 -->
<g id="edge70" class="edge">
<title>s9&#45;&gt;s2</title>
<path fill="none" stroke="black" d="M3428.39,-166.98C3415.87,-154.68 3398.11,-137.24 3383.97,-123.35"/>
<polygon fill="black" stroke="black" points="3386.13,-120.57 3376.54,-116.06 3381.22,-125.56 3386.13,-120.57"/>
<text text-anchor="middle" x="3445" y="-137.85" font-family="Times,serif" font-size="14.00">fire_trans(t3)</text>
</g>
<!-- s10&#45;&gt;s1 -->
<g id="edge61" class="edge">
<title>s10&#45;&gt;s1</title>
<path fill="none" stroke="black" d="M1765.75,-418.08C1747.21,-413.12 1731.16,-406.95 1725,-399.63 1703.56,-374.19 1734.46,-274.17 1711,-250.58 1682.5,-221.92 1557.13,-262.54 1530,-232.58 1516.01,-217.13 1481.77,-137.48 1629,-50.53 1666.84,-28.18 2233.88,-20.69 2525.91,-18.31"/>
<polygon fill="black" stroke="black" points="2526.21,-21.81 2536.18,-18.22 2526.16,-14.81 2526.21,-21.81"/>
<text text-anchor="middle" x="1579" y="-221.38" font-family="Times,serif" font-size="14.00">get_tokens(p1, [])</text>
</g>
<!-- s10&#45;&gt;s1 -->
<g id="edge62" class="edge">
<title>s10&#45;&gt;s1</title>
<path fill="none" stroke="black" d="M1777.72,-417.91C1768.68,-413.35 1760.37,-407.4 1754,-399.63 1740.25,-382.88 1747,-373.05 1747,-351.37 1747,-351.37 1747,-351.37 1747,-98.79 1747,-76.97 1739.47,-64.76 1756,-50.53 1784.61,-25.89 2262.01,-19.49 2525.54,-17.83"/>
<polygon fill="black" stroke="black" points="2525.62,-21.33 2535.6,-17.77 2525.58,-14.33 2525.62,-21.33"/>
<text text-anchor="middle" x="1799.5" y="-221.38" font-family="Times,serif" font-size="14.00">get_tokens(p5, [5])</text>
</g>
<!-- s10&#45;&gt;s1 -->
<g id="edge63" class="edge">
<title>s10&#45;&gt;s1</title>
<path fill="none" stroke="black" d="M1769.76,-418.01C1760.4,-413.42 1751.78,-407.43 1745,-399.63 1700.88,-348.88 1765.51,-299.15 1719,-250.58 1693.19,-223.63 1660.38,-261.66 1637,-232.58 1623.54,-215.84 1603.35,-130.86 1745,-50.53 1778.33,-31.62 2262.53,-22.66 2527.18,-19.15"/>
<polygon fill="black" stroke="black" points="2527.33,-22.64 2537.28,-19.01 2527.24,-15.64 2527.33,-22.64"/>
<text text-anchor="middle" x="1689.5" y="-221.38" font-family="Times,serif" font-size="14.00">get_tokens(p0, [0])</text>
</g>
<!-- s10&#45;&gt;s1 -->
<g id="edge65" class="edge">
<title>s10&#45;&gt;s1</title>
<path fill="none" stroke="black" d="M1785.72,-417.83C1777.55,-413.27 1770.22,-407.35 1765,-399.63 1748.68,-375.51 1754.82,-361.39 1765,-334.11 1787.68,-273.3 1893.92,-267.95 1853,-217.58 1828.38,-187.27 1791.62,-229.89 1767,-199.58 1756.56,-186.73 1755.5,-62.45 1767,-50.53 1792.83,-23.75 2263.11,-18.29 2524.77,-17.33"/>
<polygon fill="black" stroke="black" points="2525.16,-20.83 2535.15,-17.29 2525.14,-13.83 2525.16,-20.83"/>
<text text-anchor="middle" x="1910" y="-221.38" font-family="Times,serif" font-size="14.00">get_tokens(p4, [])</text>
</g>
<!-- s10&#45;&gt;s1 -->
<g id="edge66" class="edge">
<title>s10&#45;&gt;s1</title>
<path fill="none" stroke="black" d="M1822.57,-417.5C1794.78,-398.63 1756.53,-365.31 1775,-334.11 1799.75,-292.3 1992.62,-253.59 1960,-217.58 1932.71,-187.46 1805.29,-229.7 1778,-199.58 1747.35,-165.75 1794.41,-106.1 1820,-83.53 1852.89,-54.51 1869.94,-58.88 1913,-50.53 2026.05,-28.59 2331.7,-21.12 2526.27,-18.58"/>
<polygon fill="black" stroke="black" points="2526.36,-22.07 2536.31,-18.45 2526.27,-15.08 2526.36,-22.07"/>
<text text-anchor="middle" x="2012" y="-221.38" font-family="Times,serif" font-size="14.00">get_tokens(p3, [])</text>
</g>
<!-- s10&#45;&gt;s1 -->
<g id="edge67" class="edge">
<title>s10&#45;&gt;s1</title>
<path fill="none" stroke="black" d="M1759.14,-418.2C1739.98,-413.29 1723.5,-407.12 1717,-399.63 1695.17,-374.47 1725.05,-273.63 1701,-250.58 1656.14,-207.59 1464.49,-277.9 1422,-232.58 1408.94,-218.65 1429.52,-175.97 1546,-83.53 1569.23,-65.09 1575.45,-58.55 1604,-50.53 1690,-26.37 2240.3,-19.75 2525.73,-17.94"/>
<polygon fill="black" stroke="black" points="2525.8,-21.44 2535.77,-17.88 2525.75,-14.44 2525.8,-21.44"/>
<text text-anchor="middle" x="1471" y="-221.38" font-family="Times,serif" font-size="14.00">get_tokens(p2, [])</text>
</g>
<!-- s14 -->
<g id="node15" class="node">
<title>s14</title>
<ellipse fill="none" stroke="black" cx="2114" cy="-350.37" rx="339.32" ry="16.03"/>
<text text-anchor="middle" x="2114" y="-346.67" font-family="Times,serif" font-size="14.00">(4,(lambda p: Place. [])[p5 &#45;&gt; [5]][p4 &#45;&gt; []][p3 &#45;&gt; []][p2 &#45;&gt; [2]][p1 &#45;&gt; [1]][p0 &#45;&gt; []])</text>
</g>
<!-- s10&#45;&gt;s14 -->
<g id="edge64" class="edge">
<title>s10&#45;&gt;s14</title>
<path fill="none" stroke="black" d="M1897.41,-417.75C1941.87,-404.13 2007.3,-384.07 2054.6,-369.58"/>
<polygon fill="black" stroke="black" points="2055.87,-372.85 2064.4,-366.57 2053.82,-366.16 2055.87,-372.85"/>
<text text-anchor="middle" x="2040" y="-388.43" font-family="Times,serif" font-size="14.00">fire_trans(t0)</text>
</g>
<!-- s11&#45;&gt;s1 -->
<g id="edge32" class="edge">
<title>s11&#45;&gt;s1</title>
<path fill="none" stroke="black" d="M2491.13,-417.34C2490.11,-411.76 2488.98,-405.42 2488,-399.63 2487.73,-398.02 2452.07,-168.29 2451,-167.05 2433.66,-146.93 2409.7,-170.48 2394,-149.05 2381.06,-131.39 2379.39,-66.83 2394,-50.53 2404.88,-38.39 2475.45,-30.23 2545.75,-25.03"/>
<polygon fill="black" stroke="black" points="2546.39,-28.5 2556.11,-24.29 2545.89,-21.51 2546.39,-28.5"/>
<text text-anchor="middle" x="2513.5" y="-221.38" font-family="Times,serif" font-size="14.00">get_tokens(p3, [3])</text>
</g>
<!-- s11&#45;&gt;s1 -->
<g id="edge33" class="edge">
<title>s11&#45;&gt;s1</title>
<path fill="none" stroke="black" d="M2492.17,-417.4C2487.87,-378.17 2478.95,-276.2 2499,-250.58 2517.47,-226.97 2545.85,-256.44 2564,-232.58 2568.04,-227.27 2567.57,-223.21 2564,-217.58 2535.85,-173.16 2505.7,-186.91 2457,-167.05 2434.35,-157.82 2419.19,-168.98 2405,-149.05 2392.3,-131.22 2390.42,-66.86 2405,-50.53 2415.32,-38.96 2481.63,-30.88 2548.45,-25.58"/>
<polygon fill="black" stroke="black" points="2549.04,-29.05 2558.74,-24.79 2548.5,-22.07 2549.04,-29.05"/>
<text text-anchor="middle" x="2615" y="-221.38" font-family="Times,serif" font-size="14.00">get_tokens(p0, [])</text>
</g>
<!-- s11&#45;&gt;s1 -->
<g id="edge34" class="edge">
<title>s11&#45;&gt;s1</title>
<path fill="none" stroke="black" d="M2494.17,-417.63C2494.78,-375.93 2497.49,-262.48 2509,-250.58 2557.54,-200.43 2618.56,-284.68 2665,-232.58 2669.44,-227.6 2668.93,-222.97 2665,-217.58 2663.64,-215.72 2509.23,-167.63 2507,-167.05 2467.94,-156.89 2443.55,-180.29 2418,-149.05 2413.78,-143.89 2416.7,-140.59 2418,-134.05 2422.76,-110.21 2421.22,-100.12 2439,-83.53 2462.83,-61.29 2538.64,-43.45 2601.96,-31.91"/>
<polygon fill="black" stroke="black" points="2602.78,-35.32 2612.01,-30.11 2601.55,-28.43 2602.78,-35.32"/>
<text text-anchor="middle" x="2720.5" y="-221.38" font-family="Times,serif" font-size="14.00">get_tokens(p4, [4])</text>
</g>
<!-- s11&#45;&gt;s1 -->
<g id="edge35" class="edge">
<title>s11&#45;&gt;s1</title>
<path fill="none" stroke="black" d="M2740.12,-424.13C2915.52,-412.1 3129.93,-383.6 3187,-316.11 3305.15,-176.38 3062.56,-288.15 3004,-232.58 2982.81,-212.48 2980.85,-189.94 2999,-167.05 3020.84,-139.52 3054.16,-176.59 3076,-149.05 3080.14,-143.83 3080.6,-138.88 3076,-134.05 3046.2,-102.84 2717.8,-147.27 2688,-116.05 2669.54,-96.72 2676.78,-64.51 2685.33,-42.15"/>
<polygon fill="black" stroke="black" points="2688.67,-43.23 2689.27,-32.65 2682.21,-40.55 2688.67,-43.23"/>
<text text-anchor="middle" x="3056.5" y="-221.38" font-family="Times,serif" font-size="14.00">get_tokens(p2, [2])</text>
</g>
<!-- s11&#45;&gt;s1 -->
<g id="edge36" class="edge">
<title>s11&#45;&gt;s1</title>
<path fill="none" stroke="black" d="M2478.24,-417.48C2473.66,-412.21 2469.07,-406.03 2466,-399.63 2453.15,-372.87 2472.06,-356.88 2453,-334.11 2438.91,-317.27 2427.05,-325.05 2407,-316.11 2328.65,-281.16 2183.27,-281.04 2241,-217.58 2269.54,-186.21 2402.46,-230.95 2431,-199.58 2480.71,-144.94 2373.77,-151.45 2372,-149.05 2345.94,-113.86 2342.65,-83.03 2372,-50.53 2384,-37.23 2463.3,-28.96 2540.56,-23.99"/>
<polygon fill="black" stroke="black" points="2541.18,-27.46 2550.94,-23.34 2540.74,-20.47 2541.18,-27.46"/>
<text text-anchor="middle" x="2293.5" y="-221.38" font-family="Times,serif" font-size="14.00">get_tokens(p1, [1])</text>
</g>
<!-- s11&#45;&gt;s1 -->
<g id="edge38" class="edge">
<title>s11&#45;&gt;s1</title>
<path fill="none" stroke="black" d="M2489.32,-417.63C2481.33,-391.76 2465.48,-341.38 2461,-334.11 2427.59,-279.93 2384.28,-291.42 2360,-232.58 2357.46,-226.42 2355.83,-222.78 2360,-217.58 2383.08,-188.81 2417.92,-228.35 2441,-199.58 2450.05,-188.3 2449.48,-178.76 2441,-167.05 2425.9,-146.23 2402.02,-169.17 2386,-149.05 2358.72,-114.8 2355.28,-81.74 2386,-50.53 2397.91,-38.42 2472.47,-30.2 2545.59,-24.96"/>
<polygon fill="black" stroke="black" points="2546.16,-28.43 2555.89,-24.25 2545.67,-21.45 2546.16,-28.43"/>
<text text-anchor="middle" x="2409" y="-221.38" font-family="Times,serif" font-size="14.00">get_tokens(p5, [])</text>
</g>
<!-- s11&#45;&gt;s5 -->
<g id="edge37" class="edge">
<title>s11&#45;&gt;s5</title>
<path fill="none" stroke="black" d="M2724.32,-423.09C2861.85,-416.97 3039.95,-408.57 3198,-399.63 3384.24,-389.1 3596.94,-374.85 3745.07,-364.57"/>
<polygon fill="black" stroke="black" points="3745.45,-368.05 3755.18,-363.87 3744.96,-361.07 3745.45,-368.05"/>
<text text-anchor="middle" x="3475" y="-388.43" font-family="Times,serif" font-size="14.00">fire_trans(t2)</text>
</g>
<!-- s11&#45;&gt;s14 -->
<g id="edge31" class="edge">
<title>s11&#45;&gt;s14</title>
<path fill="none" stroke="black" d="M2424.74,-418.04C2359.55,-404.05 2261.98,-383.12 2193.61,-368.45"/>
<polygon fill="black" stroke="black" points="2194.25,-365.01 2183.74,-366.33 2192.79,-371.85 2194.25,-365.01"/>
<text text-anchor="middle" x="2374" y="-388.43" font-family="Times,serif" font-size="14.00">fire_trans(t3)</text>
</g>
<!-- s12 -->
<g id="node13" class="node">
<title>s12</title>
<ellipse fill="none" stroke="black" cx="1279" cy="-600.95" rx="266.66" ry="16.03"/>
<text text-anchor="middle" x="1279" y="-597.25" font-family="Times,serif" font-size="14.00">(4,(lambda p: Place. [])[p4 &#45;&gt; [4]][p2 &#45;&gt; []][p1 &#45;&gt; [1]][p0 &#45;&gt; [0]])</text>
</g>
<!-- s12&#45;&gt;s1 -->
<g id="edge9" class="edge">
<title>s12&#45;&gt;s1</title>
<path fill="none" stroke="black" d="M1171.12,-586.06C1159.41,-581.27 1148.36,-574.96 1139,-566.69 1121.84,-551.53 1121,-541.32 1121,-518.42 1121,-518.42 1121,-518.42 1121,-391.13 1121,-365.6 1131.16,-353.01 1114,-334.11 1089.21,-306.8 1057.24,-343.9 1033,-316.11 1018.85,-299.89 1029,-289.37 1029,-267.84 1029,-267.84 1029,-267.84 1029,-98.79 1029,-45.4 1086.87,-62.04 1139,-50.53 1271.08,-21.35 2147.62,-17.46 2524.86,-17.15"/>
<polygon fill="black" stroke="black" points="2525.05,-20.65 2535.05,-17.15 2525.05,-13.65 2525.05,-20.65"/>
<text text-anchor="middle" x="1085.5" y="-304.91" font-family="Times,serif" font-size="14.00">get_tokens(p4, [4])</text>
</g>
<!-- s12&#45;&gt;s1 -->
<g id="edge11" class="edge">
<title>s12&#45;&gt;s1</title>
<path fill="none" stroke="black" d="M1209.8,-585.21C1176.21,-573.56 1143,-553.25 1143,-518.42 1143,-518.42 1143,-518.42 1143,-98.79 1143,-77.12 1133.76,-64.89 1150,-50.53 1175.46,-28.01 2128.07,-20.3 2525.55,-18.07"/>
<polygon fill="black" stroke="black" points="2525.72,-21.56 2535.7,-18.01 2525.68,-14.56 2525.72,-21.56"/>
<text text-anchor="middle" x="1195.5" y="-304.91" font-family="Times,serif" font-size="14.00">get_tokens(p1, [1])</text>
</g>
<!-- s12&#45;&gt;s1 -->
<g id="edge12" class="edge">
<title>s12&#45;&gt;s1</title>
<path fill="none" stroke="black" d="M1272.28,-584.65C1265.81,-568.51 1257,-542.17 1257,-518.42 1257,-518.42 1257,-518.42 1257,-349.37 1257,-338.5 1256.54,-308.94 1249,-301.11 1221.31,-272.36 1188.08,-312.44 1161,-283.11 1143.68,-264.35 1154,-251.62 1154,-226.08 1154,-226.08 1154,-226.08 1154,-98.79 1154,-86.62 1173.66,-54.77 1181,-50.53 1238.26,-17.44 2139.89,-15.8 2524.89,-16.63"/>
<polygon fill="black" stroke="black" points="2525,-20.13 2535.01,-16.65 2525.01,-13.13 2525,-20.13"/>
<text text-anchor="middle" x="1306.5" y="-304.91" font-family="Times,serif" font-size="14.00">get_tokens(p0, [0])</text>
</g>
<!-- s12&#45;&gt;s1 -->
<g id="edge14" class="edge">
<title>s12&#45;&gt;s1</title>
<path fill="none" stroke="black" d="M1545.48,-599.99C2425.09,-599.83 5182.37,-596.91 5217,-566.69 5233.33,-552.44 5224,-540.1 5224,-518.42 5224,-518.42 5224,-518.42 5224,-349.37 5224,-327.85 5212.9,-316.45 5228,-301.11 5256.51,-272.14 5382.71,-313.23 5410,-283.11 5419.71,-272.39 5415.8,-263.82 5410,-250.58 5347.19,-107.15 5274.73,-74.52 5120,-50.53 4899.89,-16.39 3385.7,-15.97 2869.19,-16.84"/>
<polygon fill="black" stroke="black" points="2869.04,-13.34 2859.04,-16.86 2869.05,-20.34 2869.04,-13.34"/>
<text text-anchor="middle" x="5277" y="-304.91" font-family="Times,serif" font-size="14.00">get_tokens(p5, [])</text>
</g>
<!-- s12&#45;&gt;s1 -->
<g id="edge15" class="edge">
<title>s12&#45;&gt;s1</title>
<path fill="none" stroke="black" d="M1544.07,-599.19C2414.53,-596.52 5135.14,-586.58 5225,-566.69 5275.54,-555.5 5331,-570.19 5331,-518.42 5331,-518.42 5331,-518.42 5331,-349.37 5331,-327.85 5320.85,-317.33 5335,-301.11 5359.24,-273.32 5390.29,-309.55 5416,-283.11 5433.99,-264.6 5427,-251.89 5427,-226.08 5427,-226.08 5427,-226.08 5427,-98.79 5427,20.92 5281.15,-62.1 5162,-50.53 4936,-28.58 3390.76,-20.16 2868.81,-17.92"/>
<polygon fill="black" stroke="black" points="2868.57,-14.42 2858.56,-17.88 2868.54,-21.42 2868.57,-14.42"/>
<text text-anchor="middle" x="5384" y="-304.91" font-family="Times,serif" font-size="14.00">get_tokens(p3, [])</text>
</g>
<!-- s12&#45;&gt;s1 -->
<g id="edge16" class="edge">
<title>s12&#45;&gt;s1</title>
<path fill="none" stroke="black" d="M1176.54,-585.85C1153.67,-580.91 1133.63,-574.58 1125,-566.69 1108.43,-551.52 1110,-540.89 1110,-518.42 1110,-518.42 1110,-518.42 1110,-391.13 1110,-365.6 1121.24,-351.98 1103,-334.11 1074.75,-306.44 953.69,-344.32 926,-316.11 910.92,-300.75 922,-289.37 922,-267.84 922,-267.84 922,-267.84 922,-98.79 922,-40.07 987.41,-62.02 1045,-50.53 1186.9,-22.2 2131.26,-17.86 2525.06,-17.3"/>
<polygon fill="black" stroke="black" points="2525.12,-20.8 2535.12,-17.28 2525.11,-13.8 2525.12,-20.8"/>
<text text-anchor="middle" x="975" y="-304.91" font-family="Times,serif" font-size="14.00">get_tokens(p2, [])</text>
</g>
<!-- s12&#45;&gt;s7 -->
<g id="edge10" class="edge">
<title>s12&#45;&gt;s7</title>
<path fill="none" stroke="black" d="M1331.82,-585C1380.34,-571.27 1452.3,-550.89 1503.84,-536.3"/>
<polygon fill="black" stroke="black" points="1504.87,-539.65 1513.54,-533.56 1502.96,-532.92 1504.87,-539.65"/>
<text text-anchor="middle" x="1484" y="-555.49" font-family="Times,serif" font-size="14.00">fire_trans(t1)</text>
</g>
<!-- s12&#45;&gt;s13 -->
<g id="edge13" class="edge">
<title>s12&#45;&gt;s13</title>
<path fill="none" stroke="black" d="M1520.65,-594.06C2131.89,-579.17 3735.63,-540.09 4365.61,-524.75"/>
<polygon fill="black" stroke="black" points="4365.82,-528.24 4375.73,-524.5 4365.65,-521.24 4365.82,-528.24"/>
<text text-anchor="middle" x="3287" y="-555.49" font-family="Times,serif" font-size="14.00">fire_trans(t0)</text>
</g>
<!-- s13&#45;&gt;s1 -->
<g id="edge17" class="edge">
<title>s13&#45;&gt;s1</title>
<path fill="none" stroke="black" d="M4823.73,-506.1C4977.79,-496.01 5169.18,-478.04 5194,-450.16 5223.5,-417.02 5159.22,-284.35 5188,-250.58 5221.66,-211.08 5322.84,-264.18 5300,-217.58 5237.89,-90.87 5169.05,-74.55 5030,-50.53 4924.05,-32.22 3388.76,-21.4 2868.18,-18.24"/>
<polygon fill="black" stroke="black" points="2867.97,-14.74 2857.95,-18.18 2867.93,-21.74 2867.97,-14.74"/>
<text text-anchor="middle" x="5247.5" y="-263.14" font-family="Times,serif" font-size="14.00">get_tokens(p1, [1, 1])</text>
</g>
<!-- s13&#45;&gt;s1 -->
<g id="edge18" class="edge">
<title>s13&#45;&gt;s1</title>
<path fill="none" stroke="black" d="M4846.29,-507.67C4950.79,-502.26 5063.5,-494.2 5114,-483.16 5154.4,-474.33 5175.51,-482.72 5201,-450.16 5242.13,-397.62 5173.95,-350.33 5219,-301.11 5245.07,-272.62 5279.39,-312.87 5304,-283.11 5322.56,-260.66 5310.46,-246.19 5305,-217.58 5290.82,-143.24 5266.5,-119.66 5200,-83.53 5148.38,-55.48 5130.23,-58.33 5072,-50.53 4856.05,-21.6 3377.92,-17.76 2868.85,-17.31"/>
<polygon fill="black" stroke="black" points="2868.85,-13.81 2858.85,-17.3 2868.84,-20.81 2868.85,-13.81"/>
<text text-anchor="middle" x="5362" y="-263.14" font-family="Times,serif" font-size="14.00">get_tokens(p0, [])</text>
</g>
<!-- s13&#45;&gt;s1 -->
<g id="edge19" class="edge">
<title>s13&#45;&gt;s1</title>
<path fill="none" stroke="black" d="M4532.69,-502.06C4466.15,-489.01 4388,-466.88 4388,-434.9 4388,-434.9 4388,-434.9 4388,-307.61 4388,-282.23 4375.14,-270.39 4391,-250.58 4417.25,-217.79 4547.62,-233.05 4573,-199.58 4607.96,-153.48 4561.42,-116.68 4514,-83.53 4477.02,-57.68 4462.43,-58.39 4418,-50.53 4268.67,-24.09 3274.11,-18.66 2868.62,-17.55"/>
<polygon fill="black" stroke="black" points="2868.57,-14.05 2858.56,-17.52 2868.55,-21.05 2868.57,-14.05"/>
<text text-anchor="middle" x="4443.5" y="-263.14" font-family="Times,serif" font-size="14.00">get_tokens(p4, [4])</text>
</g>
<!-- s13&#45;&gt;s1 -->
<g id="edge20" class="edge">
<title>s13&#45;&gt;s1</title>
<path fill="none" stroke="black" d="M4565.91,-501.51C4533.97,-489.52 4501,-468.91 4501,-434.9 4501,-434.9 4501,-434.9 4501,-307.61 4501,-282.23 4491.28,-272.54 4504,-250.58 4524.95,-214.42 4563.01,-236.28 4583,-199.58 4609.46,-151 4582.84,-115.93 4538,-83.53 4505.49,-60.03 4493.34,-58.36 4454,-50.53 4301.79,-20.21 3281.47,-17.07 2869.26,-17.06"/>
<polygon fill="black" stroke="black" points="2869.04,-13.56 2859.04,-17.06 2869.04,-20.56 2869.04,-13.56"/>
<text text-anchor="middle" x="4556.5" y="-263.14" font-family="Times,serif" font-size="14.00">get_tokens(p2, [2])</text>
</g>
<!-- s13&#45;&gt;s1 -->
<g id="edge22" class="edge">
<title>s13&#45;&gt;s1</title>
<path fill="none" stroke="black" d="M4621.64,-500.88C4618.4,-484.54 4614,-458.04 4614,-434.9 4614,-434.9 4614,-434.9 4614,-307.61 4614,-268.76 4606.3,-170.55 4593,-134.05 4572.22,-77.04 4544.26,-63.57 4485,-50.53 4330.34,-16.5 3286.47,-15.58 2869.02,-16.61"/>
<polygon fill="black" stroke="black" points="2868.96,-13.11 2858.97,-16.64 2868.98,-20.11 2868.96,-13.11"/>
<text text-anchor="middle" x="4662" y="-263.14" font-family="Times,serif" font-size="14.00">get_tokens(p5, [])</text>
</g>
<!-- s13&#45;&gt;s1 -->
<g id="edge23" class="edge">
<title>s13&#45;&gt;s1</title>
<path fill="none" stroke="black" d="M4623.93,-500.96C4623.04,-481.16 4623.11,-446.02 4632,-417.63 4644.31,-378.36 4738.1,-282.41 4712,-250.58 4686.14,-219.03 4651.24,-261.02 4622,-232.58 4600.58,-211.75 4613.85,-196.13 4607,-167.05 4603.54,-152.36 4603.69,-148.4 4599,-134.05 4591.45,-110.94 4594.53,-101.36 4578,-83.53 4555.98,-59.77 4544.44,-58.36 4513,-50.53 4434.16,-30.89 3304.93,-21.31 2867.94,-18.32"/>
<polygon fill="black" stroke="black" points="2867.77,-14.82 2857.75,-18.25 2867.72,-21.82 2867.77,-14.82"/>
<text text-anchor="middle" x="4765" y="-263.14" font-family="Times,serif" font-size="14.00">get_tokens(p3, [])</text>
</g>
<!-- s13&#45;&gt;s8 -->
<g id="edge21" class="edge">
<title>s13&#45;&gt;s8</title>
<path fill="none" stroke="black" d="M4678.16,-501.38C4726.71,-487.63 4798.56,-467.29 4849.99,-452.74"/>
<polygon fill="black" stroke="black" points="4850.99,-456.09 4859.66,-450 4849.09,-449.35 4850.99,-456.09"/>
<text text-anchor="middle" x="4830" y="-471.96" font-family="Times,serif" font-size="14.00">fire_trans(t2)</text>
</g>
<!-- s14&#45;&gt;s1 -->
<g id="edge47" class="edge">
<title>s14&#45;&gt;s1</title>
<path fill="none" stroke="black" d="M2101.72,-333.91C2098.04,-328.55 2094.36,-322.32 2092,-316.11 2084.15,-295.43 2093.99,-232.86 2078,-217.58 2047.82,-188.74 1919.07,-230.48 1891,-199.58 1862.52,-168.22 1926.78,-81.59 1990,-50.53 2036.78,-27.54 2332.13,-20.41 2526,-18.22"/>
<polygon fill="black" stroke="black" points="2526.06,-21.72 2536.02,-18.11 2525.98,-14.72 2526.06,-21.72"/>
<text text-anchor="middle" x="1940" y="-179.62" font-family="Times,serif" font-size="14.00">get_tokens(p0, [])</text>
</g>
<!-- s14&#45;&gt;s1 -->
<g id="edge48" class="edge">
<title>s14&#45;&gt;s1</title>
<path fill="none" stroke="black" d="M2108.4,-333.93C2106.51,-328.37 2104.51,-322 2103,-316.11 2091.99,-272.98 2116.14,-249.39 2085,-217.58 2057.07,-189.06 2022.24,-230.51 1997,-199.58 1969.39,-165.75 2044.82,-78.22 2103,-50.53 2140.62,-32.62 2366.84,-24.07 2528.94,-20.2"/>
<polygon fill="black" stroke="black" points="2529.12,-23.69 2539.03,-19.96 2528.95,-16.7 2529.12,-23.69"/>
<text text-anchor="middle" x="2049.5" y="-179.62" font-family="Times,serif" font-size="14.00">get_tokens(p5, [5])</text>
</g>
<!-- s14&#45;&gt;s1 -->
<g id="edge49" class="edge">
<title>s14&#45;&gt;s1</title>
<path fill="none" stroke="black" d="M2111.9,-334.08C2109.84,-317.72 2107,-291 2107,-267.84 2107,-267.84 2107,-267.84 2107,-98.79 2107,-45.81 2164.57,-63.27 2216,-50.53 2274.57,-36.01 2419.73,-27.3 2535.37,-22.45"/>
<polygon fill="black" stroke="black" points="2535.55,-25.95 2545.4,-22.04 2535.26,-18.95 2535.55,-25.95"/>
<text text-anchor="middle" x="2159.5" y="-179.62" font-family="Times,serif" font-size="14.00">get_tokens(p2, [2])</text>
</g>
<!-- s14&#45;&gt;s1 -->
<g id="edge50" class="edge">
<title>s14&#45;&gt;s1</title>
<path fill="none" stroke="black" d="M2125.98,-333.98C2146.01,-307.68 2186.58,-251.84 2212,-199.58 2218.68,-185.86 2215.26,-180.2 2223,-167.05 2258.52,-106.72 2266.31,-81.7 2329,-50.53 2364.12,-33.07 2449.64,-24.7 2529.4,-20.72"/>
<polygon fill="black" stroke="black" points="2529.78,-24.2 2539.6,-20.23 2529.45,-17.21 2529.78,-24.2"/>
<text text-anchor="middle" x="2275.5" y="-179.62" font-family="Times,serif" font-size="14.00">get_tokens(p1, [1])</text>
</g>
<!-- s14&#45;&gt;s1 -->
<g id="edge52" class="edge">
<title>s14&#45;&gt;s1</title>
<path fill="none" stroke="black" d="M2130.16,-334.05C2135.89,-328.49 2142.32,-322.1 2148,-316.11 2161.43,-301.94 2164.28,-297.92 2177,-283.11 2201.77,-254.26 2199.23,-236.86 2232,-217.58 2268.29,-196.23 2294.56,-228.66 2325,-199.58 2337.32,-187.81 2348.15,-61.71 2361,-50.53 2375.34,-38.05 2461.4,-29.67 2542.82,-24.45"/>
<polygon fill="black" stroke="black" points="2543.48,-27.92 2553.24,-23.8 2543.04,-20.93 2543.48,-27.92"/>
<text text-anchor="middle" x="2384" y="-179.62" font-family="Times,serif" font-size="14.00">get_tokens(p4, [])</text>
</g>
<!-- s14&#45;&gt;s1 -->
<g id="edge53" class="edge">
<title>s14&#45;&gt;s1</title>
<path fill="none" stroke="black" d="M2099.71,-334.1C2095.38,-328.76 2090.98,-322.48 2088,-316.11 2069.06,-275.54 2100.89,-246.84 2067,-217.58 2019.47,-176.54 1827.96,-245.38 1785,-199.58 1775.11,-189.04 1778.16,-179.79 1785,-167.05 1829.9,-83.42 1873.34,-78.68 1964,-50.53 2016.38,-34.26 2330.01,-24.83 2529.69,-20.39"/>
<polygon fill="black" stroke="black" points="2529.78,-23.89 2539.7,-20.17 2529.63,-16.89 2529.78,-23.89"/>
<text text-anchor="middle" x="1834" y="-179.62" font-family="Times,serif" font-size="14.00">get_tokens(p3, [])</text>
</g>
<!-- s14&#45;&gt;s6 -->
<g id="edge51" class="edge">
<title>s14&#45;&gt;s6</title>
<path fill="none" stroke="black" d="M2241.02,-335.26C2372.21,-320.69 2576.27,-298.03 2711.02,-283.06"/>
<polygon fill="black" stroke="black" points="2711.45,-286.53 2721,-281.95 2710.68,-279.58 2711.45,-286.53"/>
<text text-anchor="middle" x="2582" y="-304.91" font-family="Times,serif" font-size="14.00">fire_trans(t2)</text>
</g>
<!-- s15&#45;&gt;s0 -->
<g id="edge5" class="edge">
<title>s15&#45;&gt;s0</title>
<path fill="none" stroke="black" d="M1118.8,-679.68C1902.36,-666.15 4555.83,-620.33 5376.25,-606.16"/>
<polygon fill="black" stroke="black" points="5376.47,-609.66 5386.41,-605.99 5376.35,-602.66 5376.47,-609.66"/>
<text text-anchor="middle" x="3718" y="-639.02" font-family="Times,serif" font-size="14.00">fire_trans(t0)</text>
</g>
<!-- s15&#45;&gt;s1 -->
<g id="edge1" class="edge">
<title>s15&#45;&gt;s1</title>
<path fill="none" stroke="black" d="M1128.01,-682.94C2135.17,-680.19 6121,-665.32 6121,-601.95 6121,-601.95 6121,-601.95 6121,-98.79 6121,-2.59 6005.54,-61.81 5910,-50.53 5608.22,-14.87 3492.48,-15.81 2869.31,-16.88"/>
<polygon fill="black" stroke="black" points="2868.89,-13.39 2858.9,-16.9 2868.9,-20.39 2868.89,-13.39"/>
<text text-anchor="middle" x="6173.5" y="-346.67" font-family="Times,serif" font-size="14.00">get_tokens(p2, [2])</text>
</g>
<!-- s15&#45;&gt;s1 -->
<g id="edge2" class="edge">
<title>s15&#45;&gt;s1</title>
<path fill="none" stroke="black" d="M743.87,-672.45C713.66,-667.54 687.72,-660.45 676,-650.22 659.18,-635.52 662,-624.29 662,-601.95 662,-601.95 662,-601.95 662,-432.9 662,-411.22 669.82,-400.45 655,-384.63 628.59,-356.46 595.09,-395.99 570,-366.63 553.51,-347.34 567,-334.99 567,-309.61 567,-309.61 567,-309.61 567,-98.79 567,-45.81 624.26,-61.92 676,-50.53 765.46,-30.84 2053.86,-21.14 2525.58,-18.23"/>
<polygon fill="black" stroke="black" points="2525.91,-21.73 2535.89,-18.17 2525.87,-14.73 2525.91,-21.73"/>
<text text-anchor="middle" x="622.5" y="-346.67" font-family="Times,serif" font-size="14.00">get_tokens(p1, [1])</text>
</g>
<!-- s15&#45;&gt;s1 -->
<g id="edge3" class="edge">
<title>s15&#45;&gt;s1</title>
<path fill="none" stroke="black" d="M819.32,-669.18C756.7,-655.59 680,-632.68 680,-601.95 680,-601.95 680,-601.95 680,-98.79 680,-45.81 737.26,-61.94 789,-50.53 872.88,-32.02 2073.38,-21.67 2526,-18.4"/>
<polygon fill="black" stroke="black" points="2526.25,-21.9 2536.22,-18.33 2526.2,-14.9 2526.25,-21.9"/>
<text text-anchor="middle" x="732.5" y="-346.67" font-family="Times,serif" font-size="14.00">get_tokens(p0, [0])</text>
</g>
<!-- s15&#45;&gt;s1 -->
<g id="edge6" class="edge">
<title>s15&#45;&gt;s1</title>
<path fill="none" stroke="black" d="M853.43,-668.45C824.7,-655.79 793,-634.45 793,-601.95 793,-601.95 793,-601.95 793,-98.79 793,-48.64 846.17,-61.97 895,-50.53 973.42,-32.15 2091.84,-21.81 2526.23,-18.47"/>
<polygon fill="black" stroke="black" points="2526.39,-21.97 2536.37,-18.4 2526.34,-14.97 2526.39,-21.97"/>
<text text-anchor="middle" x="842" y="-346.67" font-family="Times,serif" font-size="14.00">get_tokens(p5, [])</text>
</g>
<!-- s15&#45;&gt;s1 -->
<g id="edge7" class="edge">
<title>s15&#45;&gt;s1</title>
<path fill="none" stroke="black" d="M899,-668.15C899,-651.77 899,-625.02 899,-601.95 899,-601.95 899,-601.95 899,-98.79 899,-77.12 889.74,-64.86 906,-50.53 936.1,-23.99 2082.29,-18.62 2524.98,-17.54"/>
<polygon fill="black" stroke="black" points="2525.32,-21.04 2535.31,-17.51 2525.3,-14.04 2525.32,-21.04"/>
<text text-anchor="middle" x="948" y="-346.67" font-family="Times,serif" font-size="14.00">get_tokens(p4, [])</text>
</g>
<!-- s15&#45;&gt;s1 -->
<g id="edge8" class="edge">
<title>s15&#45;&gt;s1</title>
<path fill="none" stroke="black" d="M944.57,-668.45C973.3,-655.79 1005,-634.45 1005,-601.95 1005,-601.95 1005,-601.95 1005,-391.13 1005,-384.74 1001.34,-338.81 997,-334.11 972.31,-307.3 941.76,-342.85 917,-316.11 902.28,-300.2 910,-289.52 910,-267.84 910,-267.84 910,-267.84 910,-98.79 910,-90.38 923.48,-58.12 936,-50.53 969.67,-30.1 2090.14,-21.01 2525.98,-18.24"/>
<polygon fill="black" stroke="black" points="2526.16,-21.73 2536.14,-18.17 2526.12,-14.73 2526.16,-21.73"/>
<text text-anchor="middle" x="1052" y="-346.67" font-family="Times,serif" font-size="14.00">get_tokens(p3, [])</text>
</g>
<!-- s15&#45;&gt;s12 -->
<g id="edge4" class="edge">
<title>s15&#45;&gt;s12</title>
<path fill="none" stroke="black" d="M966.94,-668.9C1032.45,-654.85 1131.55,-633.59 1200.43,-618.81"/>
<polygon fill="black" stroke="black" points="1201.33,-622.2 1210.37,-616.68 1199.86,-615.35 1201.33,-622.2"/>
<text text-anchor="middle" x="1159" y="-639.02" font-family="Times,serif" font-size="14.00">fire_trans(t2)</text>
</g>
</g>
</svg>
