<?xml version="1.0" encoding="UTF-8" standalone="no"?>
<!DOCTYPE svg PUBLIC "-//W3C//DTD SVG 1.1//EN"
 "http://www.w3.org/Graphics/SVG/1.1/DTD/svg11.dtd">
<!-- Generated by graphviz version 5.0.1 (0)
 -->
<!-- Title: G Pages: 1 -->
<svg width="5408pt" height="884pt"
 viewBox="0.00 0.00 5408.00 883.80" xmlns="http://www.w3.org/2000/svg" xmlns:xlink="http://www.w3.org/1999/xlink">
<g id="graph0" class="graph" transform="scale(1 1) rotate(0) translate(4 879.8)">
<title>G</title>
<polygon fill="white" stroke="none" points="-4,4 -4,-879.8 5404,-879.8 5404,4 -4,4"/>
<!-- s0 -->
<g id="node1" class="node">
<title>s0</title>
<ellipse fill="none" stroke="black" cx="342" cy="-855.53" rx="84.71" ry="16.08"/>
<ellipse fill="none" stroke="black" cx="342" cy="-855.53" rx="88.71" ry="20.03"/>
<text text-anchor="middle" x="342" y="-851.83" font-family="Times,serif" font-size="14.00">(3,initial_marking)</text>
</g>
<!-- s1 -->
<g id="node2" class="node">
<title>s1</title>
<ellipse fill="none" stroke="black" cx="2571" cy="-99.79" rx="84.71" ry="16.03"/>
<text text-anchor="middle" x="2571" y="-96.09" font-family="Times,serif" font-size="14.00">(1,initial_marking)</text>
</g>
<!-- s0&#45;&gt;s1 -->
<g id="edge1" class="edge">
<title>s0&#45;&gt;s1</title>
<path fill="none" stroke="black" d="M256.14,-849.99C154.83,-842.22 0,-821.72 0,-769.01 0,-769.01 0,-769.01 0,-182.32 0,-123.18 65.95,-145.36 124,-134.05 241.21,-111.22 2040.33,-102.84 2476.36,-101.13"/>
<polygon fill="black" stroke="black" points="2476.42,-104.63 2486.4,-101.09 2476.39,-97.63 2476.42,-104.63"/>
<text text-anchor="middle" x="59.5" y="-471.96" font-family="Times,serif" font-size="14.00">get_tokens(p0, [0, 0])</text>
</g>
<!-- s0&#45;&gt;s1 -->
<g id="edge2" class="edge">
<title>s0&#45;&gt;s1</title>
<path fill="none" stroke="black" d="M277.21,-841.65C214.23,-827.21 128,-801.51 128,-769.01 128,-769.01 128,-769.01 128,-182.32 128,-131.76 181.73,-145.39 231,-134.05 341.89,-108.53 2051.12,-102.2 2475.96,-101.02"/>
<polygon fill="black" stroke="black" points="2476.07,-104.52 2486.06,-101 2476.05,-97.52 2476.07,-104.52"/>
<text text-anchor="middle" x="177" y="-471.96" font-family="Times,serif" font-size="14.00">get_tokens(p1, [])</text>
</g>
<!-- s0&#45;&gt;s1 -->
<g id="edge3" class="edge">
<title>s0&#45;&gt;s1</title>
<path fill="none" stroke="black" d="M295.69,-838.13C266.77,-824.6 235,-802.18 235,-769.01 235,-769.01 235,-769.01 235,-182.32 235,-131.76 288.74,-145.41 338,-134.05 443.46,-109.74 2064.18,-102.53 2476.27,-101.09"/>
<polygon fill="black" stroke="black" points="2476.37,-104.59 2486.36,-101.05 2476.35,-97.59 2476.37,-104.59"/>
<text text-anchor="middle" x="284" y="-471.96" font-family="Times,serif" font-size="14.00">get_tokens(p2, [])</text>
</g>
<!-- s0&#45;&gt;s1 -->
<g id="edge4" class="edge">
<title>s0&#45;&gt;s1</title>
<path fill="none" stroke="black" d="M342,-835.17C342,-817.84 342,-791.72 342,-769.01 342,-769.01 342,-769.01 342,-182.32 342,-131.76 395.74,-145.43 445,-134.05 545.02,-110.96 2076.59,-102.88 2476.22,-101.16"/>
<polygon fill="black" stroke="black" points="2476.32,-104.66 2486.3,-101.12 2476.29,-97.66 2476.32,-104.66"/>
<text text-anchor="middle" x="391" y="-471.96" font-family="Times,serif" font-size="14.00">get_tokens(p3, [])</text>
</g>
<!-- s0&#45;&gt;s1 -->
<g id="edge5" class="edge">
<title>s0&#45;&gt;s1</title>
<path fill="none" stroke="black" d="M388.31,-838.13C417.23,-824.6 449,-802.18 449,-769.01 449,-769.01 449,-769.01 449,-182.32 449,-131.76 502.75,-145.45 552,-134.05 646.58,-112.17 2089.44,-103.25 2476.22,-101.25"/>
<polygon fill="black" stroke="black" points="2476.27,-104.75 2486.25,-101.2 2476.24,-97.75 2476.27,-104.75"/>
<text text-anchor="middle" x="498" y="-471.96" font-family="Times,serif" font-size="14.00">get_tokens(p4, [])</text>
</g>
<!-- s0&#45;&gt;s1 -->
<g id="edge6" class="edge">
<title>s0&#45;&gt;s1</title>
<path fill="none" stroke="black" d="M406.79,-841.65C469.77,-827.21 556,-801.51 556,-769.01 556,-769.01 556,-769.01 556,-182.32 556,-160.57 547.53,-148.25 564,-134.05 600.61,-102.48 2082.61,-100.65 2475.97,-100.72"/>
<polygon fill="black" stroke="black" points="2476.18,-104.22 2486.18,-100.73 2476.18,-97.22 2476.18,-104.22"/>
<text text-anchor="middle" x="605" y="-471.96" font-family="Times,serif" font-size="14.00">get_tokens(p5, [])</text>
</g>
<!-- s2 -->
<g id="node3" class="node">
<title>s2</title>
<ellipse fill="none" stroke="black" cx="4617" cy="-768.01" rx="229.62" ry="16.03"/>
<text text-anchor="middle" x="4617" y="-764.31" font-family="Times,serif" font-size="14.00">(4,(lambda p: Place. [])[p2 &#45;&gt; [2]][p1 &#45;&gt; [1]][p0 &#45;&gt; [0]])</text>
</g>
<!-- s0&#45;&gt;s2 -->
<g id="edge7" class="edge">
<title>s0&#45;&gt;s2</title>
<path fill="none" stroke="black" d="M430.31,-852.77C947.93,-842.41 3592.71,-789.5 4389.53,-773.56"/>
<polygon fill="black" stroke="black" points="4389.75,-777.05 4399.68,-773.35 4389.61,-770.05 4389.75,-777.05"/>
<text text-anchor="middle" x="2898" y="-806.07" font-family="Times,serif" font-size="14.00">fire_trans(t0)</text>
</g>
<!-- s3 -->
<g id="node4" class="node">
<title>s3</title>
<ellipse fill="none" stroke="black" cx="2571" cy="-16.26" rx="84.71" ry="16.03"/>
<text text-anchor="middle" x="2571" y="-12.56" font-family="Times,serif" font-size="14.00">(2,initial_marking)</text>
</g>
<!-- s1&#45;&gt;s3 -->
<g id="edge8" class="edge">
<title>s1&#45;&gt;s3</title>
<path fill="none" stroke="black" d="M2571,-83.46C2571,-71.95 2571,-55.96 2571,-42.57"/>
<polygon fill="black" stroke="black" points="2574.5,-42.53 2571,-32.53 2567.5,-42.53 2574.5,-42.53"/>
<text text-anchor="middle" x="2599.5" y="-54.33" font-family="Times,serif" font-size="14.00">Terminate</text>
</g>
<!-- s2&#45;&gt;s1 -->
<g id="edge9" class="edge">
<title>s2&#45;&gt;s1</title>
<path fill="none" stroke="black" d="M4782.91,-756.71C4871.7,-746.46 4963,-726.06 4963,-685.48 4963,-685.48 4963,-685.48 4963,-474.66 4963,-449.28 4949.36,-436.8 4966,-417.63 4993.32,-386.18 5029.27,-429.81 5058,-399.63 5072.94,-383.94 5065,-373.05 5065,-351.37 5065,-351.37 5065,-351.37 5065,-182.32 5065,-86.12 4949.51,-145.54 4854,-134.05 4634.94,-107.7 3070.1,-102.03 2666.02,-101"/>
<polygon fill="black" stroke="black" points="2665.84,-97.49 2655.83,-100.97 2665.83,-104.49 2665.84,-97.49"/>
<text text-anchor="middle" x="5018.5" y="-430.2" font-family="Times,serif" font-size="14.00">get_tokens(p0, [0])</text>
</g>
<!-- s2&#45;&gt;s1 -->
<g id="edge10" class="edge">
<title>s2&#45;&gt;s1</title>
<path fill="none" stroke="black" d="M4759.09,-755.18C4893.89,-741.98 5076,-718.11 5076,-685.48 5076,-685.48 5076,-685.48 5076,-182.32 5076,-123.57 5014.54,-142.6 4959,-134.05 4730.08,-98.83 3081.55,-99.75 2665.94,-100.56"/>
<polygon fill="black" stroke="black" points="2665.76,-97.06 2655.77,-100.58 2665.77,-104.06 2665.76,-97.06"/>
<text text-anchor="middle" x="5128.5" y="-430.2" font-family="Times,serif" font-size="14.00">get_tokens(p1, [1])</text>
</g>
<!-- s2&#45;&gt;s1 -->
<g id="edge11" class="edge">
<title>s2&#45;&gt;s1</title>
<path fill="none" stroke="black" d="M4799.16,-758.06C4966.61,-747.32 5189,-725.51 5189,-685.48 5189,-685.48 5189,-685.48 5189,-182.32 5189,-102.06 5094.44,-145.42 5015,-134.05 4779.96,-100.43 3087.92,-100.17 2666.08,-100.64"/>
<polygon fill="black" stroke="black" points="2666.05,-97.14 2656.05,-100.65 2666.05,-104.14 2666.05,-97.14"/>
<text text-anchor="middle" x="5241.5" y="-430.2" font-family="Times,serif" font-size="14.00">get_tokens(p2, [2])</text>
</g>
<!-- s2&#45;&gt;s1 -->
<g id="edge12" class="edge">
<title>s2&#45;&gt;s1</title>
<path fill="none" stroke="black" d="M4828.58,-761.63C5029.8,-753.59 5302,-733.8 5302,-685.48 5302,-685.48 5302,-685.48 5302,-182.32 5302,-90.01 5191.6,-145.46 5100,-134.05 4855.59,-103.63 3097.01,-100.98 2666.12,-100.79"/>
<polygon fill="black" stroke="black" points="2665.88,-97.29 2655.88,-100.79 2665.88,-104.29 2665.88,-97.29"/>
<text text-anchor="middle" x="5351" y="-430.2" font-family="Times,serif" font-size="14.00">get_tokens(p3, [])</text>
</g>
<!-- s2&#45;&gt;s1 -->
<g id="edge13" class="edge">
<title>s2&#45;&gt;s1</title>
<path fill="none" stroke="black" d="M4387.43,-767.05C3549.7,-766.99 704.23,-764.49 669,-733.74 652.67,-719.49 662,-707.15 662,-685.48 662,-685.48 662,-685.48 662,-516.42 662,-494.75 669.82,-483.98 655,-468.16 628.59,-439.99 595.09,-479.51 570,-450.16 553.51,-430.87 567,-418.51 567,-393.13 567,-393.13 567,-393.13 567,-182.32 567,-160.64 557.73,-148.37 574,-134.05 610.1,-102.28 2084.13,-100.6 2476.1,-100.71"/>
<polygon fill="black" stroke="black" points="2476.27,-104.21 2486.27,-100.72 2476.27,-97.21 2476.27,-104.21"/>
<text text-anchor="middle" x="619" y="-430.2" font-family="Times,serif" font-size="14.00">get_tokens(p4, [])</text>
</g>
<!-- s2&#45;&gt;s1 -->
<g id="edge14" class="edge">
<title>s2&#45;&gt;s1</title>
<path fill="none" stroke="black" d="M4390.07,-765.3C3551.09,-758.62 673,-732.28 673,-685.48 673,-685.48 673,-685.48 673,-474.66 673,-468.26 669.33,-422.35 665,-417.63 640.64,-391.12 610.69,-425.85 586,-399.63 571.09,-383.81 578,-373.11 578,-351.37 578,-351.37 578,-351.37 578,-182.32 578,-171.37 596.58,-139.89 607,-134.05 648.21,-110.98 2089.68,-102.93 2476.36,-101.18"/>
<polygon fill="black" stroke="black" points="2476.41,-104.68 2486.4,-101.14 2476.38,-97.68 2476.41,-104.68"/>
<text text-anchor="middle" x="721" y="-430.2" font-family="Times,serif" font-size="14.00">get_tokens(p5, [])</text>
</g>
<!-- s4 -->
<g id="node5" class="node">
<title>s4</title>
<ellipse fill="none" stroke="black" cx="1032" cy="-684.48" rx="229.62" ry="16.03"/>
<text text-anchor="middle" x="1032" y="-680.78" font-family="Times,serif" font-size="14.00">(4,(lambda p: Place. [])[p4 &#45;&gt; [4]][p1 &#45;&gt; [1]][p0 &#45;&gt; [0]])</text>
</g>
<!-- s2&#45;&gt;s4 -->
<g id="edge15" class="edge">
<title>s2&#45;&gt;s4</title>
<path fill="none" stroke="black" d="M4402.48,-762.13C3768.01,-747.7 1904.51,-705.32 1256.87,-690.59"/>
<polygon fill="black" stroke="black" points="1256.57,-687.08 1246.49,-690.36 1256.41,-694.08 1256.57,-687.08"/>
<text text-anchor="middle" x="3181" y="-722.54" font-family="Times,serif" font-size="14.00">fire_trans(t2)</text>
</g>
<!-- s5 -->
<g id="node6" class="node">
<title>s5</title>
<ellipse fill="none" stroke="black" cx="4617" cy="-684.48" rx="208.69" ry="16.03"/>
<text text-anchor="middle" x="4617" y="-680.78" font-family="Times,serif" font-size="14.00">(4,(lambda p: Place. [])[p2 &#45;&gt; [2, 2]][p1 &#45;&gt; [1, 1]])</text>
</g>
<!-- s2&#45;&gt;s5 -->
<g id="edge16" class="edge">
<title>s2&#45;&gt;s5</title>
<path fill="none" stroke="black" d="M4617,-751.67C4617,-740.17 4617,-724.17 4617,-710.79"/>
<polygon fill="black" stroke="black" points="4620.5,-710.74 4617,-700.74 4613.5,-710.74 4620.5,-710.74"/>
<text text-anchor="middle" x="4653" y="-722.54" font-family="Times,serif" font-size="14.00">fire_trans(t0)</text>
</g>
<!-- s4&#45;&gt;s1 -->
<g id="edge17" class="edge">
<title>s4&#45;&gt;s1</title>
<path fill="none" stroke="black" d="M1252.68,-679.87C1597.31,-674.15 2284.24,-662.4 2867,-650.22 3021.9,-646.98 4131.6,-702.41 4261,-617.22 4267.23,-613.11 4268,-609.41 4268,-601.95 4268,-601.95 4268,-601.95 4268,-432.9 4268,-411.37 4256.84,-399.92 4272,-384.63 4302.95,-353.42 4439.36,-399.1 4469,-366.63 4497.47,-335.44 4476.57,-244.39 4375,-167.05 4326.54,-130.16 4302.38,-142.04 4242,-134.05 4086.08,-113.42 2995.65,-103.88 2665.5,-101.44"/>
<polygon fill="black" stroke="black" points="2665.51,-97.94 2655.49,-101.37 2665.46,-104.94 2665.51,-97.94"/>
<text text-anchor="middle" x="4324.5" y="-388.43" font-family="Times,serif" font-size="14.00">get_tokens(p0, [0])</text>
</g>
<!-- s4&#45;&gt;s1 -->
<g id="edge18" class="edge">
<title>s4&#45;&gt;s1</title>
<path fill="none" stroke="black" d="M853.47,-674.23C822.51,-669.21 796.53,-661.63 785,-650.22 769.6,-634.97 778,-623.63 778,-601.95 778,-601.95 778,-601.95 778,-474.66 778,-449.13 789.24,-435.5 771,-417.63 742.75,-389.97 621.69,-427.85 594,-399.63 578.92,-384.27 590,-372.9 590,-351.37 590,-351.37 590,-351.37 590,-182.32 590,-128.93 647.85,-145.48 700,-134.05 787.32,-114.93 2107.84,-104.1 2476.22,-101.44"/>
<polygon fill="black" stroke="black" points="2476.34,-104.94 2486.32,-101.37 2476.29,-97.94 2476.34,-104.94"/>
<text text-anchor="middle" x="646.5" y="-388.43" font-family="Times,serif" font-size="14.00">get_tokens(p1, [1])</text>
</g>
<!-- s4&#45;&gt;s1 -->
<g id="edge19" class="edge">
<title>s4&#45;&gt;s1</title>
<path fill="none" stroke="black" d="M868.48,-672.99C840.54,-668.04 817.21,-660.8 807,-650.22 734.77,-575.37 849.6,-495.82 781,-417.63 758.96,-392.52 729.68,-425.07 708,-399.63 694.04,-383.25 704,-372.9 704,-351.37 704,-351.37 704,-351.37 704,-182.32 704,-131.76 757.76,-145.51 807,-134.05 888.66,-115.06 2121.16,-104.22 2476.06,-101.48"/>
<polygon fill="black" stroke="black" points="2476.33,-104.98 2486.3,-101.41 2476.27,-97.98 2476.33,-104.98"/>
<text text-anchor="middle" x="757" y="-388.43" font-family="Times,serif" font-size="14.00">get_tokens(p2, [])</text>
</g>
<!-- s4&#45;&gt;s1 -->
<g id="edge20" class="edge">
<title>s4&#45;&gt;s1</title>
<path fill="none" stroke="black" d="M951.28,-669.23C888.14,-655.72 811,-632.88 811,-601.95 811,-601.95 811,-601.95 811,-182.32 811,-150.46 834.4,-145.84 864,-134.05 939.18,-104.11 2128.57,-101.05 2476.25,-100.79"/>
<polygon fill="black" stroke="black" points="2476.29,-104.29 2486.29,-100.79 2476.29,-97.29 2476.29,-104.29"/>
<text text-anchor="middle" x="860" y="-388.43" font-family="Times,serif" font-size="14.00">get_tokens(p3, [])</text>
</g>
<!-- s4&#45;&gt;s1 -->
<g id="edge21" class="edge">
<title>s4&#45;&gt;s1</title>
<path fill="none" stroke="black" d="M981,-668.62C950.65,-656.29 918,-635.29 918,-601.95 918,-601.95 918,-601.95 918,-432.9 918,-411.15 922.81,-402.2 910,-384.63 899.69,-370.5 885.01,-380.98 875,-366.63 860.39,-345.69 868,-335.14 868,-309.61 868,-309.61 868,-309.61 868,-182.32 868,-160.64 858.75,-148.4 875,-134.05 905.2,-107.4 2123.15,-102.01 2476.09,-101"/>
<polygon fill="black" stroke="black" points="2476.28,-104.5 2486.27,-100.98 2476.26,-97.5 2476.28,-104.5"/>
<text text-anchor="middle" x="970.5" y="-388.43" font-family="Times,serif" font-size="14.00">get_tokens(p4, [4])</text>
</g>
<!-- s4&#45;&gt;s1 -->
<g id="edge22" class="edge">
<title>s4&#45;&gt;s1</title>
<path fill="none" stroke="black" d="M1032,-668.15C1032,-651.77 1032,-625.02 1032,-601.95 1032,-601.95 1032,-601.95 1032,-432.9 1032,-422.03 1031.82,-392.19 1024,-384.63 979.51,-341.66 929.57,-410.54 886,-366.63 868.01,-348.51 879,-335.14 879,-309.61 879,-309.61 879,-309.61 879,-182.32 879,-168.58 902.07,-137.3 908,-134.05 942.58,-115.1 2129.29,-104.27 2476.49,-101.5"/>
<polygon fill="black" stroke="black" points="2476.54,-105 2486.51,-101.42 2476.49,-98 2476.54,-105"/>
<text text-anchor="middle" x="1079" y="-388.43" font-family="Times,serif" font-size="14.00">get_tokens(p5, [])</text>
</g>
<!-- s6 -->
<g id="node7" class="node">
<title>s6</title>
<ellipse fill="none" stroke="black" cx="1269" cy="-600.95" rx="229.62" ry="16.03"/>
<text text-anchor="middle" x="1269" y="-597.25" font-family="Times,serif" font-size="14.00">(4,(lambda p: Place. [])[p4 &#45;&gt; [4]][p3 &#45;&gt; [3]][p0 &#45;&gt; [0]])</text>
</g>
<!-- s4&#45;&gt;s6 -->
<g id="edge23" class="edge">
<title>s4&#45;&gt;s6</title>
<path fill="none" stroke="black" d="M1075.75,-668.43C1115.2,-654.86 1173.35,-634.85 1215.55,-620.34"/>
<polygon fill="black" stroke="black" points="1216.79,-623.61 1225.11,-617.05 1214.51,-616.99 1216.79,-623.61"/>
<text text-anchor="middle" x="1208" y="-639.02" font-family="Times,serif" font-size="14.00">fire_trans(t1)</text>
</g>
<!-- s7 -->
<g id="node8" class="node">
<title>s7</title>
<ellipse fill="none" stroke="black" cx="4021" cy="-600.95" rx="239.92" ry="16.03"/>
<text text-anchor="middle" x="4021" y="-597.25" font-family="Times,serif" font-size="14.00">(4,(lambda p: Place. [])[p4 &#45;&gt; [4]][p2 &#45;&gt; [2]][p1 &#45;&gt; [1, 1]])</text>
</g>
<!-- s4&#45;&gt;s7 -->
<g id="edge24" class="edge">
<title>s4&#45;&gt;s7</title>
<path fill="none" stroke="black" d="M1241.59,-677.76C1784.23,-662.96 3231.83,-623.48 3793.66,-608.15"/>
<polygon fill="black" stroke="black" points="3794.01,-611.64 3803.91,-607.87 3793.82,-604.65 3794.01,-611.64"/>
<text text-anchor="middle" x="2830" y="-639.02" font-family="Times,serif" font-size="14.00">fire_trans(t0)</text>
</g>
<!-- s5&#45;&gt;s1 -->
<g id="edge25" class="edge">
<title>s5&#45;&gt;s1</title>
<path fill="none" stroke="black" d="M4693.05,-669.28C4754.56,-655.55 4831,-632.37 4831,-601.95 4831,-601.95 4831,-601.95 4831,-182.32 4831,-131.76 4777.26,-145.42 4728,-134.05 4626.41,-110.61 3069.15,-102.78 2665.81,-101.14"/>
<polygon fill="black" stroke="black" points="2665.65,-97.64 2655.64,-101.1 2665.63,-104.64 2665.65,-97.64"/>
<text text-anchor="middle" x="4880" y="-388.43" font-family="Times,serif" font-size="14.00">get_tokens(p0, [])</text>
</g>
<!-- s5&#45;&gt;s1 -->
<g id="edge26" class="edge">
<title>s5&#45;&gt;s1</title>
<path fill="none" stroke="black" d="M4760.13,-672.6C4845.73,-661.99 4938,-641.41 4938,-601.95 4938,-601.95 4938,-601.95 4938,-182.32 4938,-106.34 4849.12,-145.46 4774,-134.05 4564.08,-102.19 3061.14,-100.58 2665.98,-100.71"/>
<polygon fill="black" stroke="black" points="2665.73,-97.21 2655.73,-100.71 2665.73,-104.21 2665.73,-97.21"/>
<text text-anchor="middle" x="4997.5" y="-388.43" font-family="Times,serif" font-size="14.00">get_tokens(p1, [1, 1])</text>
</g>
<!-- s5&#45;&gt;s1 -->
<g id="edge27" class="edge">
<title>s5&#45;&gt;s1</title>
<path fill="none" stroke="black" d="M4529.16,-669.71C4462.41,-656.69 4382,-634.29 4382,-601.95 4382,-601.95 4382,-601.95 4382,-432.9 4382,-411.37 4371.64,-400.67 4386,-384.63 4413.79,-353.59 4449.34,-396.88 4478,-366.63 4495.6,-348.06 4486,-335.2 4486,-309.61 4486,-309.61 4486,-309.61 4486,-182.32 4486,-95.62 4382.91,-145.69 4297,-134.05 4135.6,-112.19 3003.86,-103.47 2666,-101.34"/>
<polygon fill="black" stroke="black" points="2665.78,-97.84 2655.76,-101.28 2665.74,-104.84 2665.78,-97.84"/>
<text text-anchor="middle" x="4445.5" y="-388.43" font-family="Times,serif" font-size="14.00">get_tokens(p2, [2, 2])</text>
</g>
<!-- s5&#45;&gt;s1 -->
<g id="edge28" class="edge">
<title>s5&#45;&gt;s1</title>
<path fill="none" stroke="black" d="M4571,-668.57C4542,-655.96 4510,-634.65 4510,-601.95 4510,-601.95 4510,-601.95 4510,-182.32 4510,-149.94 4513.39,-155.05 4390,-134.05 4219.93,-105.12 3015.37,-101.35 2665.85,-100.86"/>
<polygon fill="black" stroke="black" points="2665.77,-97.36 2655.76,-100.85 2665.76,-104.36 2665.77,-97.36"/>
<text text-anchor="middle" x="4559" y="-388.43" font-family="Times,serif" font-size="14.00">get_tokens(p3, [])</text>
</g>
<!-- s5&#45;&gt;s1 -->
<g id="edge29" class="edge">
<title>s5&#45;&gt;s1</title>
<path fill="none" stroke="black" d="M4617,-668.15C4617,-651.77 4617,-625.02 4617,-601.95 4617,-601.95 4617,-601.95 4617,-182.32 4617,-99.49 4519.02,-145.6 4437,-134.05 4261.41,-109.33 3021.72,-102.57 2666.13,-101.13"/>
<polygon fill="black" stroke="black" points="2665.88,-97.62 2655.87,-101.08 2665.86,-104.62 2665.88,-97.62"/>
<text text-anchor="middle" x="4666" y="-388.43" font-family="Times,serif" font-size="14.00">get_tokens(p4, [])</text>
</g>
<!-- s5&#45;&gt;s1 -->
<g id="edge30" class="edge">
<title>s5&#45;&gt;s1</title>
<path fill="none" stroke="black" d="M4663,-668.57C4692,-655.96 4724,-634.65 4724,-601.95 4724,-601.95 4724,-601.95 4724,-182.32 4724,-91.74 4615.84,-145.62 4526,-134.05 4340.93,-110.22 3031.55,-102.79 2665.73,-101.17"/>
<polygon fill="black" stroke="black" points="2665.72,-97.67 2655.7,-101.12 2665.69,-104.67 2665.72,-97.67"/>
<text text-anchor="middle" x="4773" y="-388.43" font-family="Times,serif" font-size="14.00">get_tokens(p5, [])</text>
</g>
<!-- s5&#45;&gt;s7 -->
<g id="edge31" class="edge">
<title>s5&#45;&gt;s7</title>
<path fill="none" stroke="black" d="M4489.3,-671.6C4433,-665.9 4366.11,-658.51 4306,-650.22 4239.52,-641.04 4164.73,-628.28 4108.45,-618.19"/>
<polygon fill="black" stroke="black" points="4108.98,-614.73 4098.52,-616.4 4107.74,-621.62 4108.98,-614.73"/>
<text text-anchor="middle" x="4342" y="-639.02" font-family="Times,serif" font-size="14.00">fire_trans(t2)</text>
</g>
<!-- s6&#45;&gt;s1 -->
<g id="edge32" class="edge">
<title>s6&#45;&gt;s1</title>
<path fill="none" stroke="black" d="M1490.89,-596.65C2014.63,-588.13 3284,-562.89 3284,-518.42 3284,-518.42 3284,-518.42 3284,-391.13 3284,-365.75 3270.36,-353.27 3287,-334.11 3314.32,-302.65 3349.31,-345.33 3379,-316.11 3393.43,-301.91 3400.87,-147.79 3386,-134.05 3359.93,-109.98 2874.93,-103.21 2665.73,-101.41"/>
<polygon fill="black" stroke="black" points="2665.71,-97.91 2655.68,-101.32 2665.65,-104.91 2665.71,-97.91"/>
<text text-anchor="middle" x="3339.5" y="-346.67" font-family="Times,serif" font-size="14.00">get_tokens(p0, [0])</text>
</g>
<!-- s6&#45;&gt;s1 -->
<g id="edge33" class="edge">
<title>s6&#45;&gt;s1</title>
<path fill="none" stroke="black" d="M1498.31,-599.65C1809.43,-598.22 2382.57,-591.98 2871,-566.69 2988.22,-560.62 3397,-635.8 3397,-518.42 3397,-518.42 3397,-518.42 3396,-349.37 3396,-297.46 3396.74,-284.49 3397,-232.58 3397.14,-203.46 3399.19,-196.09 3397,-167.05 3395.89,-152.26 3403.05,-143.95 3392,-134.05 3365.34,-110.17 2875.81,-103.29 2665.61,-101.43"/>
<polygon fill="black" stroke="black" points="2665.54,-97.93 2655.51,-101.35 2665.48,-104.93 2665.54,-97.93"/>
<text text-anchor="middle" x="3446" y="-346.67" font-family="Times,serif" font-size="14.00">get_tokens(p1, [])</text>
</g>
<!-- s6&#45;&gt;s1 -->
<g id="edge34" class="edge">
<title>s6&#45;&gt;s1</title>
<path fill="none" stroke="black" d="M1187.63,-585.7C1168.25,-580.67 1151.33,-574.32 1145,-566.69 1119.09,-535.47 1159.71,-413.31 1131,-384.63 1093.47,-347.15 930.07,-404.57 893,-366.63 875.26,-348.48 890,-334.99 890,-309.61 890,-309.61 890,-309.61 890,-182.32 890,-134.96 939.06,-145.56 985,-134.05 1129.03,-97.96 2155.92,-99.07 2475.99,-100.32"/>
<polygon fill="black" stroke="black" points="2476.15,-103.82 2486.16,-100.36 2476.18,-96.82 2476.15,-103.82"/>
<text text-anchor="middle" x="942" y="-346.67" font-family="Times,serif" font-size="14.00">get_tokens(p2, [])</text>
</g>
<!-- s6&#45;&gt;s1 -->
<g id="edge35" class="edge">
<title>s6&#45;&gt;s1</title>
<path fill="none" stroke="black" d="M1180.97,-585.89C1171.44,-581.14 1162.76,-574.9 1156,-566.69 1130.17,-535.32 1167.23,-413.86 1139,-384.63 1095.42,-339.51 1041.81,-412.49 999,-366.63 989.04,-355.96 968.08,-162.57 996,-134.05 1022,-107.5 2139.41,-102.06 2476.02,-101.02"/>
<polygon fill="black" stroke="black" points="2476.24,-104.52 2486.23,-100.99 2476.22,-97.52 2476.24,-104.52"/>
<text text-anchor="middle" x="1051.5" y="-346.67" font-family="Times,serif" font-size="14.00">get_tokens(p3, [3])</text>
</g>
<!-- s6&#45;&gt;s1 -->
<g id="edge36" class="edge">
<title>s6&#45;&gt;s1</title>
<path fill="none" stroke="black" d="M1238.98,-584.76C1231.37,-579.81 1223.73,-573.74 1218,-566.69 1163.23,-499.29 1205.16,-449.13 1147,-384.63 1135.29,-371.64 1123.41,-379.89 1112,-366.63 1102.04,-355.07 1112.5,-344.14 1101,-334.11 1068.93,-306.16 1034.1,-348.89 1007,-316.11 994.11,-300.52 992.85,-148.51 1007,-134.05 1032.8,-107.7 2141.16,-102.12 2476.11,-101.03"/>
<polygon fill="black" stroke="black" points="2476.29,-104.53 2486.27,-101 2476.26,-97.53 2476.29,-104.53"/>
<text text-anchor="middle" x="1164.5" y="-346.67" font-family="Times,serif" font-size="14.00">get_tokens(p4, [4])</text>
</g>
<!-- s6&#45;&gt;s1 -->
<g id="edge37" class="edge">
<title>s6&#45;&gt;s1</title>
<path fill="none" stroke="black" d="M1253.61,-584.61C1239.9,-569.24 1222,-544.24 1222,-518.42 1222,-518.42 1222,-518.42 1222,-391.13 1222,-384.74 1218.62,-338.53 1214,-334.11 1183.34,-304.8 1052.54,-347.48 1024,-316.11 999.83,-289.54 1061.79,-167.33 1062,-167.05 1077.48,-146.76 1084.75,-142.02 1109,-134.05 1173.86,-112.74 2162.06,-103.76 2476.02,-101.43"/>
<polygon fill="black" stroke="black" points="2476.48,-104.93 2486.46,-101.36 2476.43,-97.93 2476.48,-104.93"/>
<text text-anchor="middle" x="1270" y="-346.67" font-family="Times,serif" font-size="14.00">get_tokens(p5, [])</text>
</g>
<!-- s8 -->
<g id="node9" class="node">
<title>s8</title>
<ellipse fill="none" stroke="black" cx="1500" cy="-517.42" rx="270.64" ry="16.03"/>
<text text-anchor="middle" x="1500" y="-513.72" font-family="Times,serif" font-size="14.00">(4,(lambda p: Place. [])[p4 &#45;&gt; [4]][p3 &#45;&gt; [3]][p2 &#45;&gt; [2]][p1 &#45;&gt; [1]])</text>
</g>
<!-- s6&#45;&gt;s8 -->
<g id="edge38" class="edge">
<title>s6&#45;&gt;s8</title>
<path fill="none" stroke="black" d="M1311.64,-584.9C1350.02,-571.36 1406.54,-551.41 1447.65,-536.9"/>
<polygon fill="black" stroke="black" points="1448.95,-540.15 1457.22,-533.52 1446.62,-533.55 1448.95,-540.15"/>
<text text-anchor="middle" x="1442" y="-555.49" font-family="Times,serif" font-size="14.00">fire_trans(t0)</text>
</g>
<!-- s9 -->
<g id="node10" class="node">
<title>s9</title>
<ellipse fill="none" stroke="black" cx="2289" cy="-517.42" rx="188.18" ry="16.03"/>
<text text-anchor="middle" x="2289" y="-513.72" font-family="Times,serif" font-size="14.00">(4,(lambda p: Place. [])[p5 &#45;&gt; [5]][p0 &#45;&gt; [0]])</text>
</g>
<!-- s6&#45;&gt;s9 -->
<g id="edge39" class="edge">
<title>s6&#45;&gt;s9</title>
<path fill="none" stroke="black" d="M1414.33,-588.34C1609.2,-572.76 1952.99,-545.28 2146.44,-529.82"/>
<polygon fill="black" stroke="black" points="2146.99,-533.29 2156.67,-529 2146.43,-526.31 2146.99,-533.29"/>
<text text-anchor="middle" x="1907" y="-555.49" font-family="Times,serif" font-size="14.00">fire_trans(t3)</text>
</g>
<!-- s7&#45;&gt;s1 -->
<g id="edge40" class="edge">
<title>s7&#45;&gt;s1</title>
<path fill="none" stroke="black" d="M3941.11,-585.54C3929.15,-580.9 3917.63,-574.78 3908,-566.69 3864.99,-530.55 3770.64,-375.14 3809,-334.11 3849.61,-290.67 4035.39,-359.55 4076,-316.11 4097.44,-293.17 4150.38,-289.69 3863,-167.05 3807.38,-143.32 3790.91,-142.3 3731,-134.05 3526.24,-105.86 2904.56,-101.49 2665.79,-100.87"/>
<polygon fill="black" stroke="black" points="2665.75,-97.37 2655.74,-100.84 2665.73,-104.37 2665.75,-97.37"/>
<text text-anchor="middle" x="3858" y="-346.67" font-family="Times,serif" font-size="14.00">get_tokens(p0, [])</text>
</g>
<!-- s7&#45;&gt;s1 -->
<g id="edge41" class="edge">
<title>s7&#45;&gt;s1</title>
<path fill="none" stroke="black" d="M3973.19,-584.88C3943.9,-572.33 3912,-551.15 3912,-518.42 3912,-518.42 3912,-518.42 3912,-391.13 3912,-365.75 3897.52,-352.51 3915,-334.11 3941.46,-306.24 4061.28,-344.66 4087,-316.11 4100.71,-300.89 4093.93,-278.09 4070,-250.58 3977.77,-144.52 3915.16,-153.79 3776,-134.05 3562.53,-103.77 2912.11,-100.69 2666.38,-100.64"/>
<polygon fill="black" stroke="black" points="2666.04,-97.14 2656.04,-100.64 2666.04,-104.14 2666.04,-97.14"/>
<text text-anchor="middle" x="3974.5" y="-346.67" font-family="Times,serif" font-size="14.00">get_tokens(p1, [1, 1])</text>
</g>
<!-- s7&#45;&gt;s1 -->
<g id="edge42" class="edge">
<title>s7&#45;&gt;s1</title>
<path fill="none" stroke="black" d="M4026.5,-584.55C4031.79,-568.32 4039,-541.91 4039,-518.42 4039,-518.42 4039,-518.42 4039,-391.13 4039,-365.75 4026.74,-354.39 4042,-334.11 4056.7,-314.57 4079.81,-336.03 4094,-316.11 4097.87,-310.68 4094.65,-307.74 4094,-301.11 4091.77,-278.32 4095.08,-270.61 4084,-250.58 4077.05,-238.01 4001.89,-172.04 3992,-167.05 3928.72,-135.16 3906.38,-142.35 3836,-134.05 3609.77,-107.38 2919.97,-102.09 2666.09,-101.05"/>
<polygon fill="black" stroke="black" points="2665.8,-97.55 2655.79,-101.01 2665.77,-104.55 2665.8,-97.55"/>
<text text-anchor="middle" x="4094.5" y="-346.67" font-family="Times,serif" font-size="14.00">get_tokens(p2, [2])</text>
</g>
<!-- s7&#45;&gt;s1 -->
<g id="edge43" class="edge">
<title>s7&#45;&gt;s1</title>
<path fill="none" stroke="black" d="M4085.73,-585.18C4118.74,-573.41 4152,-552.98 4152,-518.42 4152,-518.42 4152,-518.42 4152,-182.32 4152,-107.49 3007.65,-100.97 2666.11,-100.7"/>
<polygon fill="black" stroke="black" points="2666,-97.2 2656,-100.69 2666,-104.2 2666,-97.2"/>
<text text-anchor="middle" x="4201" y="-346.67" font-family="Times,serif" font-size="14.00">get_tokens(p3, [])</text>
</g>
<!-- s7&#45;&gt;s1 -->
<g id="edge44" class="edge">
<title>s7&#45;&gt;s1</title>
<path fill="none" stroke="black" d="M4099.23,-585.56C4111.98,-580.92 4124.45,-574.79 4135,-566.69 4162.34,-545.69 4168.04,-607.32 4250,-366.63 4258.25,-342.41 4258,-335.2 4258,-309.61 4258,-309.61 4258,-309.61 4258,-182.32 4258,-101.99 3021.79,-99.45 2665.83,-100.38"/>
<polygon fill="black" stroke="black" points="2665.8,-96.88 2655.81,-100.41 2665.82,-103.88 2665.8,-96.88"/>
<text text-anchor="middle" x="4309.5" y="-346.67" font-family="Times,serif" font-size="14.00">get_tokens(p4, [4])</text>
</g>
<!-- s7&#45;&gt;s1 -->
<g id="edge45" class="edge">
<title>s7&#45;&gt;s1</title>
<path fill="none" stroke="black" d="M4104.91,-585.64C4122.34,-580.93 4140.2,-574.75 4156,-566.69 4176.22,-556.37 4181.29,-551.79 4195,-533.69 4205.99,-519.18 4248.62,-395.8 4263,-384.63 4298.66,-356.93 4331.69,-399.18 4363,-366.63 4380.74,-348.19 4371,-335.2 4371,-309.61 4371,-309.61 4371,-309.61 4371,-182.32 4371,-65.22 4228.47,-146.08 4112,-134.05 3829.54,-104.88 2956.29,-101.22 2665.95,-100.82"/>
<polygon fill="black" stroke="black" points="2665.88,-97.32 2655.87,-100.8 2665.87,-104.32 2665.88,-97.32"/>
<text text-anchor="middle" x="4422" y="-346.67" font-family="Times,serif" font-size="14.00">get_tokens(p5, [])</text>
</g>
<!-- s10 -->
<g id="node11" class="node">
<title>s10</title>
<ellipse fill="none" stroke="black" cx="3613" cy="-517.42" rx="208.69" ry="16.03"/>
<text text-anchor="middle" x="3613" y="-513.72" font-family="Times,serif" font-size="14.00">(4,(lambda p: Place. [])[p4 &#45;&gt; [4, 4]][p1 &#45;&gt; [1, 1]])</text>
</g>
<!-- s7&#45;&gt;s10 -->
<g id="edge46" class="edge">
<title>s7&#45;&gt;s10</title>
<path fill="none" stroke="black" d="M3878.51,-587.85C3837.67,-582.88 3793.31,-576.03 3753,-566.69 3721.1,-559.3 3686.29,-547.31 3659.36,-537.14"/>
<polygon fill="black" stroke="black" points="3660.41,-533.79 3649.82,-533.48 3657.9,-540.33 3660.41,-533.79"/>
<text text-anchor="middle" x="3789" y="-555.49" font-family="Times,serif" font-size="14.00">fire_trans(t2)</text>
</g>
<!-- s8&#45;&gt;s1 -->
<g id="edge47" class="edge">
<title>s8&#45;&gt;s1</title>
<path fill="none" stroke="black" d="M1499.58,-500.86C1498.07,-456.37 1491.38,-329.98 1464,-301.11 1438.62,-274.35 1406.08,-311.87 1383,-283.11 1372.64,-270.19 1371.45,-145.93 1383,-134.05 1401.99,-114.52 2198.71,-104.57 2476.58,-101.69"/>
<polygon fill="black" stroke="black" points="2476.68,-105.19 2486.65,-101.59 2476.61,-98.19 2476.68,-105.19"/>
<text text-anchor="middle" x="1523" y="-304.91" font-family="Times,serif" font-size="14.00">get_tokens(p0, [])</text>
</g>
<!-- s8&#45;&gt;s1 -->
<g id="edge48" class="edge">
<title>s8&#45;&gt;s1</title>
<path fill="none" stroke="black" d="M1508.73,-501.04C1533.16,-457.04 1598.65,-331.82 1571,-301.11 1545.43,-272.71 1425.57,-311.51 1400,-283.11 1382.82,-264.03 1395.15,-203.83 1416,-167.05 1426.87,-147.89 1432.53,-142.21 1453,-134.05 1500.12,-115.29 2215.19,-104.99 2476.39,-101.85"/>
<polygon fill="black" stroke="black" points="2476.66,-105.34 2486.62,-101.72 2476.58,-98.34 2476.66,-105.34"/>
<text text-anchor="middle" x="1630.5" y="-304.91" font-family="Times,serif" font-size="14.00">get_tokens(p1, [1])</text>
</g>
<!-- s8&#45;&gt;s1 -->
<g id="edge49" class="edge">
<title>s8&#45;&gt;s1</title>
<path fill="none" stroke="black" d="M1380.38,-502.81C1358.73,-498.03 1340.6,-491.64 1333,-483.16 1310.81,-458.4 1343.81,-357.31 1320,-334.11 1273.29,-288.58 1071.69,-363.63 1027,-316.11 1022.43,-311.25 1025.14,-307.51 1027,-301.11 1051.53,-216.67 1056.44,-177.31 1133,-134.05 1191.38,-101.07 2164.27,-100.02 2475.83,-100.54"/>
<polygon fill="black" stroke="black" points="2476.18,-104.04 2486.19,-100.55 2476.2,-97.04 2476.18,-104.04"/>
<text text-anchor="middle" x="1079.5" y="-304.91" font-family="Times,serif" font-size="14.00">get_tokens(p2, [2])</text>
</g>
<!-- s8&#45;&gt;s1 -->
<g id="edge50" class="edge">
<title>s8&#45;&gt;s1</title>
<path fill="none" stroke="black" d="M1390.26,-502.48C1369.17,-497.67 1351.34,-491.36 1344,-483.16 1321.79,-458.37 1352.6,-357.59 1329,-334.11 1299.25,-304.5 1169.23,-347.17 1141,-316.11 1126.47,-300.12 1091.63,-222.04 1247,-134.05 1300.27,-103.89 2181.26,-100.89 2475.89,-100.74"/>
<polygon fill="black" stroke="black" points="2476.12,-104.24 2486.12,-100.73 2476.12,-97.24 2476.12,-104.24"/>
<text text-anchor="middle" x="1193.5" y="-304.91" font-family="Times,serif" font-size="14.00">get_tokens(p3, [3])</text>
</g>
<!-- s8&#45;&gt;s1 -->
<g id="edge51" class="edge">
<title>s8&#45;&gt;s1</title>
<path fill="none" stroke="black" d="M1406.36,-502.11C1385.87,-497.19 1368.15,-490.92 1361,-483.16 1315.58,-433.87 1383.94,-382.92 1338,-334.11 1312.13,-306.62 1278.69,-345.49 1255,-316.11 1241.61,-299.5 1220.58,-213.79 1361,-134.05 1409.17,-106.7 2199.15,-101.84 2476.03,-100.98"/>
<polygon fill="black" stroke="black" points="2476.07,-104.48 2486.06,-100.95 2476.05,-97.48 2476.07,-104.48"/>
<text text-anchor="middle" x="1307.5" y="-304.91" font-family="Times,serif" font-size="14.00">get_tokens(p4, [4])</text>
</g>
<!-- s8&#45;&gt;s1 -->
<g id="edge52" class="edge">
<title>s8&#45;&gt;s1</title>
<path fill="none" stroke="black" d="M1431.71,-501.67C1398.22,-490.01 1365,-469.67 1365,-434.9 1365,-434.9 1365,-434.9 1365,-182.32 1365,-160.1 1360.56,-147.81 1378,-134.05 1420.82,-100.29 2200.15,-99.56 2475.56,-100.37"/>
<polygon fill="black" stroke="black" points="2475.92,-103.87 2485.93,-100.4 2475.94,-96.87 2475.92,-103.87"/>
<text text-anchor="middle" x="1414" y="-304.91" font-family="Times,serif" font-size="14.00">get_tokens(p5, [])</text>
</g>
<!-- s11 -->
<g id="node12" class="node">
<title>s11</title>
<ellipse fill="none" stroke="black" cx="2819" cy="-433.9" rx="239.92" ry="16.03"/>
<text text-anchor="middle" x="2819" y="-430.2" font-family="Times,serif" font-size="14.00">(4,(lambda p: Place. [])[p4 &#45;&gt; [4, 4]][p3 &#45;&gt; [3]][p1 &#45;&gt; [1]])</text>
</g>
<!-- s8&#45;&gt;s11 -->
<g id="edge53" class="edge">
<title>s8&#45;&gt;s11</title>
<path fill="none" stroke="black" d="M1705.34,-506.8C1831.38,-500.64 1996.07,-492.14 2142,-483.16 2318.41,-472.3 2520.51,-457.6 2657.64,-447.29"/>
<polygon fill="black" stroke="black" points="2658.1,-450.76 2667.81,-446.52 2657.57,-443.78 2658.1,-450.76"/>
<text text-anchor="middle" x="2402" y="-471.96" font-family="Times,serif" font-size="14.00">fire_trans(t2)</text>
</g>
<!-- s12 -->
<g id="node13" class="node">
<title>s12</title>
<ellipse fill="none" stroke="black" cx="1908" cy="-433.9" rx="229.62" ry="16.03"/>
<text text-anchor="middle" x="1908" y="-430.2" font-family="Times,serif" font-size="14.00">(4,(lambda p: Place. [])[p5 &#45;&gt; [5]][p2 &#45;&gt; [2]][p1 &#45;&gt; [1]])</text>
</g>
<!-- s8&#45;&gt;s12 -->
<g id="edge54" class="edge">
<title>s8&#45;&gt;s12</title>
<path fill="none" stroke="black" d="M1573.41,-501.76C1644.3,-487.59 1751.47,-466.18 1825.33,-451.42"/>
<polygon fill="black" stroke="black" points="1826.4,-454.77 1835.52,-449.38 1825.03,-447.91 1826.4,-454.77"/>
<text text-anchor="middle" x="1777" y="-471.96" font-family="Times,serif" font-size="14.00">fire_trans(t3)</text>
</g>
<!-- s9&#45;&gt;s1 -->
<g id="edge55" class="edge">
<title>s9&#45;&gt;s1</title>
<path fill="none" stroke="black" d="M2378.3,-503.05C2399.55,-498.04 2418.09,-491.48 2425,-483.16 2450.88,-451.99 2407,-330.39 2435,-301.11 2462.78,-272.05 2588.03,-312.91 2615,-283.11 2624.7,-272.39 2624.34,-261.62 2615,-250.58 2582.86,-212.58 2473.72,-253.66 2508,-217.58 2534.9,-189.27 2832.1,-227.89 2859,-199.58 2868.96,-189.1 2867.93,-178.43 2859,-167.05 2834.14,-135.38 2731.51,-117.64 2655.81,-108.65"/>
<polygon fill="black" stroke="black" points="2656.12,-105.16 2645.79,-107.49 2655.32,-112.12 2656.12,-105.16"/>
<text text-anchor="middle" x="2487.5" y="-304.91" font-family="Times,serif" font-size="14.00">get_tokens(p0, [0])</text>
</g>
<!-- s9&#45;&gt;s1 -->
<g id="edge56" class="edge">
<title>s9&#45;&gt;s1</title>
<path fill="none" stroke="black" d="M2473.11,-514.02C2724.43,-510.09 3147.34,-500.88 3177,-483.16 3197.14,-471.13 3264.8,-314.6 3284,-301.11 3319.52,-276.15 3352.28,-316.51 3380,-283.11 3385.38,-276.62 3397.92,-153.6 3379,-134.05 3354.56,-108.81 2874.1,-102.7 2665.88,-101.24"/>
<polygon fill="black" stroke="black" points="2665.9,-97.74 2655.87,-101.18 2665.85,-104.74 2665.9,-97.74"/>
<text text-anchor="middle" x="3333" y="-304.91" font-family="Times,serif" font-size="14.00">get_tokens(p1, [])</text>
</g>
<!-- s9&#45;&gt;s1 -->
<g id="edge57" class="edge">
<title>s9&#45;&gt;s1</title>
<path fill="none" stroke="black" d="M2470.21,-512.96C2684.8,-507.01 3018.45,-491.21 3059,-450.16 3105.68,-402.91 3022.77,-347.81 3070,-301.11 3115.6,-256.02 3314.09,-329.84 3358,-283.11 3367.9,-272.57 3364.97,-263.24 3358,-250.58 3310.77,-164.8 3264.61,-162.8 3171,-134.05 3079.51,-105.96 2810.98,-101.05 2666.16,-100.52"/>
<polygon fill="black" stroke="black" points="2665.96,-97.02 2655.95,-100.49 2665.94,-104.02 2665.96,-97.02"/>
<text text-anchor="middle" x="3119" y="-304.91" font-family="Times,serif" font-size="14.00">get_tokens(p2, [])</text>
</g>
<!-- s9&#45;&gt;s1 -->
<g id="edge58" class="edge">
<title>s9&#45;&gt;s1</title>
<path fill="none" stroke="black" d="M2473.31,-514.01C2645.14,-510.6 2888.51,-502.44 2982,-483.16 3022.91,-474.73 3036.91,-475.66 3070,-450.16 3127.84,-405.59 3126.63,-378.24 3165,-316.11 3168.97,-309.68 3166.71,-305.29 3173,-301.11 3208.68,-277.37 3336.15,-314.79 3365,-283.11 3431.54,-210.04 3297.15,-152.17 3200,-134.05 3100.23,-115.45 2814.48,-106.34 2664.88,-102.73"/>
<polygon fill="black" stroke="black" points="2664.87,-99.23 2654.79,-102.49 2664.71,-106.23 2664.87,-99.23"/>
<text text-anchor="middle" x="3222" y="-304.91" font-family="Times,serif" font-size="14.00">get_tokens(p3, [])</text>
</g>
<!-- s9&#45;&gt;s1 -->
<g id="edge59" class="edge">
<title>s9&#45;&gt;s1</title>
<path fill="none" stroke="black" d="M2123.42,-509.68C1952.72,-500.98 1707.4,-482.92 1678,-450.16 1655.85,-425.48 1707.68,-325.3 1685,-301.11 1642.35,-255.63 1447.65,-328.59 1405,-283.11 1395.11,-272.56 1402.6,-264.84 1405,-250.58 1415.57,-187.88 1427.06,-152.21 1488,-134.05 1581.13,-106.3 2229.52,-101.68 2476.11,-100.93"/>
<polygon fill="black" stroke="black" points="2476.14,-104.43 2486.13,-100.9 2476.12,-97.43 2476.14,-104.43"/>
<text text-anchor="middle" x="1740" y="-304.91" font-family="Times,serif" font-size="14.00">get_tokens(p4, [])</text>
</g>
<!-- s9&#45;&gt;s1 -->
<g id="edge60" class="edge">
<title>s9&#45;&gt;s1</title>
<path fill="none" stroke="black" d="M2202.39,-502.98C2179.97,-497.87 2159.89,-491.28 2152,-483.16 2131.24,-461.81 2150.65,-444.59 2138,-417.63 2130.07,-400.73 2128.27,-393.79 2112,-384.63 2083.32,-368.49 1986.81,-391.28 1965,-366.63 1945.69,-344.82 1947.85,-323.07 1967,-301.11 1993.8,-270.36 2031.14,-314.65 2057,-283.11 2066.17,-271.93 2066.97,-261.05 2057,-250.58 2028.93,-221.09 1719.07,-262.07 1691,-232.58 1678.69,-219.65 1680.17,-198.47 1704,-167.05 1721.69,-143.73 1732.89,-142.23 1761,-134.05 1828.04,-114.56 2277.78,-105.3 2476.69,-102.12"/>
<polygon fill="black" stroke="black" points="2476.89,-105.62 2486.83,-101.96 2476.78,-98.62 2476.89,-105.62"/>
<text text-anchor="middle" x="2019.5" y="-304.91" font-family="Times,serif" font-size="14.00">get_tokens(p5, [5])</text>
</g>
<!-- s9&#45;&gt;s12 -->
<g id="edge61" class="edge">
<title>s9&#45;&gt;s12</title>
<path fill="none" stroke="black" d="M2185.47,-503.84C2148.51,-498.54 2106.69,-491.62 2069,-483.16 2032.77,-475.04 1992.79,-463.07 1961.73,-453.08"/>
<polygon fill="black" stroke="black" points="1962.57,-449.67 1951.97,-449.91 1960.41,-456.33 1962.57,-449.67"/>
<text text-anchor="middle" x="2105" y="-471.96" font-family="Times,serif" font-size="14.00">fire_trans(t0)</text>
</g>
<!-- s10&#45;&gt;s1 -->
<g id="edge62" class="edge">
<title>s10&#45;&gt;s1</title>
<path fill="none" stroke="black" d="M3536.83,-502.17C3527.33,-497.5 3518.64,-491.32 3512,-483.16 3469.91,-431.45 3539.67,-383.61 3495,-334.11 3470,-306.41 3436.46,-345.12 3413,-316.11 3409.82,-312.18 3415.51,-137.69 3412,-134.05 3386.44,-107.61 2880.94,-102.19 2666.19,-101.08"/>
<polygon fill="black" stroke="black" points="2665.9,-97.57 2655.88,-101.02 2665.86,-104.57 2665.9,-97.57"/>
<text text-anchor="middle" x="3462" y="-304.91" font-family="Times,serif" font-size="14.00">get_tokens(p0, [])</text>
</g>
<!-- s10&#45;&gt;s1 -->
<g id="edge63" class="edge">
<title>s10&#45;&gt;s1</title>
<path fill="none" stroke="black" d="M3573.55,-501.45C3546.69,-488.41 3516,-466.58 3516,-434.9 3516,-434.9 3516,-434.9 3516,-182.32 3516,-132.97 3463.88,-146 3416,-134.05 3344.86,-116.31 2870.27,-106 2665.15,-102.33"/>
<polygon fill="black" stroke="black" points="2665.06,-98.83 2654.99,-102.15 2664.93,-105.83 2665.06,-98.83"/>
<text text-anchor="middle" x="3575.5" y="-304.91" font-family="Times,serif" font-size="14.00">get_tokens(p1, [1, 1])</text>
</g>
<!-- s10&#45;&gt;s1 -->
<g id="edge64" class="edge">
<title>s10&#45;&gt;s1</title>
<path fill="none" stroke="black" d="M3622.64,-501.15C3631.74,-485.24 3644,-459.28 3644,-434.9 3644,-434.9 3644,-434.9 3644,-182.32 3644,-97.77 3543.63,-146.43 3460,-134.05 3309.17,-111.73 2862.19,-104.05 2665.59,-101.71"/>
<polygon fill="black" stroke="black" points="2665.61,-98.21 2655.57,-101.59 2665.52,-105.21 2665.61,-98.21"/>
<text text-anchor="middle" x="3693" y="-304.91" font-family="Times,serif" font-size="14.00">get_tokens(p2, [])</text>
</g>
<!-- s10&#45;&gt;s1 -->
<g id="edge65" class="edge">
<title>s10&#45;&gt;s1</title>
<path fill="none" stroke="black" d="M3683.21,-501.97C3717.3,-490.42 3751,-470.1 3751,-434.9 3751,-434.9 3751,-434.9 3751,-182.32 3751,-90.88 3641.6,-146.39 3551,-134.05 3382.03,-111.04 2877.33,-103.68 2665.86,-101.56"/>
<polygon fill="black" stroke="black" points="2665.74,-98.06 2655.71,-101.46 2665.68,-105.06 2665.74,-98.06"/>
<text text-anchor="middle" x="3800" y="-304.91" font-family="Times,serif" font-size="14.00">get_tokens(p3, [])</text>
</g>
<!-- s10&#45;&gt;s1 -->
<g id="edge66" class="edge">
<title>s10&#45;&gt;s1</title>
<path fill="none" stroke="black" d="M3696.64,-502.43C3709.96,-497.75 3722.96,-491.5 3734,-483.16 3747.68,-472.82 3746.84,-465.75 3754,-450.16 3776.66,-400.84 3753.33,-372.19 3792,-334.11 3811.23,-315.17 3833.99,-337.84 3850,-316.11 3860.17,-302.31 3833.75,-224.56 3755,-167.05 3715.84,-138.45 3698.8,-142.21 3651,-134.05 3463.19,-102 2893.46,-99.87 2666.14,-100.36"/>
<polygon fill="black" stroke="black" points="2665.9,-96.86 2655.9,-100.38 2665.91,-103.86 2665.9,-96.86"/>
<text text-anchor="middle" x="3911.5" y="-304.91" font-family="Times,serif" font-size="14.00">get_tokens(p4, [4, 4])</text>
</g>
<!-- s10&#45;&gt;s1 -->
<g id="edge67" class="edge">
<title>s10&#45;&gt;s1</title>
<path fill="none" stroke="black" d="M3706.57,-502.85C3719.99,-498.1 3732.97,-491.72 3744,-483.16 3757.2,-472.92 3755.25,-465.45 3762,-450.16 3767.51,-437.68 3791.33,-342.6 3802,-334.11 3862.22,-286.18 4007.83,-369.22 3972,-301.11 3904.36,-172.52 3833.45,-162.64 3691,-134.05 3592.06,-114.2 2917.69,-104.68 2665.72,-101.78"/>
<polygon fill="black" stroke="black" points="2665.52,-98.28 2655.49,-101.67 2665.45,-105.28 2665.52,-98.28"/>
<text text-anchor="middle" x="4026" y="-304.91" font-family="Times,serif" font-size="14.00">get_tokens(p5, [])</text>
</g>
<!-- s10&#45;&gt;s11 -->
<g id="edge68" class="edge">
<title>s10&#45;&gt;s11</title>
<path fill="none" stroke="black" d="M3492.84,-504.09C3348.22,-489.24 3106.01,-464.37 2954.76,-448.84"/>
<polygon fill="black" stroke="black" points="2954.79,-445.32 2944.48,-447.78 2954.07,-452.29 2954.79,-445.32"/>
<text text-anchor="middle" x="3323" y="-471.96" font-family="Times,serif" font-size="14.00">fire_trans(t1)</text>
</g>
<!-- s11&#45;&gt;s1 -->
<g id="edge69" class="edge">
<title>s11&#45;&gt;s1</title>
<path fill="none" stroke="black" d="M2833.38,-417.65C2850.92,-397.15 2876.01,-360.27 2857,-334.11 2835.44,-304.43 2721.56,-312.78 2700,-283.11 2691.5,-271.41 2689.97,-260.99 2700,-250.58 2736.71,-212.46 3139.29,-270.71 3176,-232.58 3180.62,-227.78 3179.75,-223.09 3176,-217.58 3119.4,-134.39 2819.29,-110.4 2664.11,-103.52"/>
<polygon fill="black" stroke="black" points="2664.25,-100.03 2654.11,-103.09 2663.95,-107.02 2664.25,-100.03"/>
<text text-anchor="middle" x="2749" y="-263.14" font-family="Times,serif" font-size="14.00">get_tokens(p0, [])</text>
</g>
<!-- s11&#45;&gt;s1 -->
<g id="edge70" class="edge">
<title>s11&#45;&gt;s1</title>
<path fill="none" stroke="black" d="M2839.39,-417.67C2845.15,-412.51 2850.94,-406.33 2855,-399.63 2870.25,-374.51 2876.11,-360.89 2864,-334.11 2849.85,-302.83 2820.15,-314.38 2806,-283.11 2800.04,-269.94 2796.03,-261.05 2806,-250.58 2834.78,-220.39 3152.22,-262.78 3181,-232.58 3185.6,-227.76 3183.5,-223.76 3181,-217.58 3169.25,-188.59 3158.97,-182.91 3132,-167.05 3055.03,-121.81 2803.78,-107.4 2665.08,-102.86"/>
<polygon fill="black" stroke="black" points="2664.99,-99.35 2654.89,-102.53 2664.77,-106.35 2664.99,-99.35"/>
<text text-anchor="middle" x="2858.5" y="-263.14" font-family="Times,serif" font-size="14.00">get_tokens(p1, [1])</text>
</g>
<!-- s11&#45;&gt;s1 -->
<g id="edge71" class="edge">
<title>s11&#45;&gt;s1</title>
<path fill="none" stroke="black" d="M2844.42,-417.42C2851.14,-412.4 2857.93,-406.36 2863,-399.63 2896.42,-355.3 2889.1,-335.31 2908,-283.11 2913.19,-268.76 2906.91,-259.89 2919,-250.58 2966.12,-214.31 3145.39,-276.02 3186,-232.58 3190.55,-227.71 3187.76,-224.01 3186,-217.58 3168.12,-152.43 3125.24,-147.34 3059,-134.05 2924.51,-107.07 2765.45,-100.9 2666.37,-100.01"/>
<polygon fill="black" stroke="black" points="2666.1,-96.51 2656.08,-99.94 2666.05,-103.51 2666.1,-96.51"/>
<text text-anchor="middle" x="2968" y="-263.14" font-family="Times,serif" font-size="14.00">get_tokens(p2, [])</text>
</g>
<!-- s11&#45;&gt;s1 -->
<g id="edge72" class="edge">
<title>s11&#45;&gt;s1</title>
<path fill="none" stroke="black" d="M2844.77,-417.63C2853.57,-412.19 2863.36,-405.85 2872,-399.63 2938.26,-351.94 2967.58,-350.26 3014,-283.11 3022.68,-270.55 3013.1,-260.13 3025,-250.58 3053.94,-227.35 3166.22,-260.2 3191,-232.58 3205.63,-216.27 3196.99,-193.07 3172,-167.05 3145.93,-139.9 3130.63,-142.7 3094,-134.05 3015.12,-115.43 2792.69,-106.62 2664.75,-102.98"/>
<polygon fill="black" stroke="black" points="2664.66,-99.48 2654.56,-102.7 2664.46,-106.47 2664.66,-99.48"/>
<text text-anchor="middle" x="3077.5" y="-263.14" font-family="Times,serif" font-size="14.00">get_tokens(p3, [3])</text>
</g>
<!-- s11&#45;&gt;s1 -->
<g id="edge73" class="edge">
<title>s11&#45;&gt;s1</title>
<path fill="none" stroke="black" d="M2851.34,-417.7C2877.98,-404.88 2916.52,-385.62 2949,-366.63 2995.19,-339.63 3000.77,-322.07 3050,-301.11 3082.34,-287.34 3100.98,-306.73 3127,-283.11 3138.3,-272.85 3127.02,-261.18 3138,-250.58 3158.02,-231.24 3181.38,-254.92 3198,-232.58 3208.4,-218.6 3206.77,-193.16 3187,-167.05 3168.16,-142.17 3155.05,-142.52 3125,-134.05 3041.39,-110.5 2800.74,-103.63 2665.74,-101.62"/>
<polygon fill="black" stroke="black" points="2665.46,-98.11 2655.41,-101.47 2665.36,-105.11 2665.46,-98.11"/>
<text text-anchor="middle" x="3197.5" y="-263.14" font-family="Times,serif" font-size="14.00">get_tokens(p4, [4, 4])</text>
</g>
<!-- s11&#45;&gt;s1 -->
<g id="edge74" class="edge">
<title>s11&#45;&gt;s1</title>
<path fill="none" stroke="black" d="M2860.41,-417.79C2874.93,-412.31 2891.27,-405.91 2906,-399.63 2937.64,-386.15 2946.65,-384.57 2976,-366.63 2986.17,-360.42 3049.9,-305.47 3061,-301.11 3101.08,-285.34 3224.99,-314.95 3254,-283.11 3263.74,-272.42 3258.21,-264.41 3254,-250.58 3233.8,-184.17 3215.67,-156.54 3150,-134.05 3063.28,-104.37 2807.05,-100.08 2666.28,-100.08"/>
<polygon fill="black" stroke="black" points="2665.93,-96.58 2655.93,-100.09 2665.94,-103.58 2665.93,-96.58"/>
<text text-anchor="middle" x="3308" y="-263.14" font-family="Times,serif" font-size="14.00">get_tokens(p5, [])</text>
</g>
<!-- s13 -->
<g id="node14" class="node">
<title>s13</title>
<ellipse fill="none" stroke="black" cx="2648" cy="-350.37" rx="208.69" ry="16.03"/>
<text text-anchor="middle" x="2648" y="-346.67" font-family="Times,serif" font-size="14.00">(4,(lambda p: Place. [])[p4 &#45;&gt; [4, 4]][p3 &#45;&gt; [3, 3]])</text>
</g>
<!-- s11&#45;&gt;s13 -->
<g id="edge75" class="edge">
<title>s11&#45;&gt;s13</title>
<path fill="none" stroke="black" d="M2787.24,-417.75C2759.61,-404.58 2719.39,-385.41 2689.28,-371.05"/>
<polygon fill="black" stroke="black" points="2690.42,-367.72 2679.88,-366.57 2687.4,-374.03 2690.42,-367.72"/>
<text text-anchor="middle" x="2784" y="-388.43" font-family="Times,serif" font-size="14.00">fire_trans(t1)</text>
</g>
<!-- s14 -->
<g id="node15" class="node">
<title>s14</title>
<ellipse fill="none" stroke="black" cx="2195" cy="-350.37" rx="229.62" ry="16.03"/>
<text text-anchor="middle" x="2195" y="-346.67" font-family="Times,serif" font-size="14.00">(4,(lambda p: Place. [])[p5 &#45;&gt; [5]][p4 &#45;&gt; [4]][p1 &#45;&gt; [1]])</text>
</g>
<!-- s11&#45;&gt;s14 -->
<g id="edge76" class="edge">
<title>s11&#45;&gt;s14</title>
<path fill="none" stroke="black" d="M2714.56,-419.25C2602.29,-404.58 2424.42,-381.35 2308.7,-366.23"/>
<polygon fill="black" stroke="black" points="2309.11,-362.75 2298.74,-364.93 2308.21,-369.69 2309.11,-362.75"/>
<text text-anchor="middle" x="2599" y="-388.43" font-family="Times,serif" font-size="14.00">fire_trans(t3)</text>
</g>
<!-- s12&#45;&gt;s1 -->
<g id="edge77" class="edge">
<title>s12&#45;&gt;s1</title>
<path fill="none" stroke="black" d="M1914.9,-417.55C1932.1,-378.18 1973.9,-275.02 1951,-250.58 1908.82,-205.57 1716.18,-277.59 1674,-232.58 1659.03,-216.6 1658.81,-149.82 1674,-134.05 1701.47,-105.54 2250.75,-101.34 2475.94,-100.81"/>
<polygon fill="black" stroke="black" points="2476.1,-104.31 2486.09,-100.79 2476.09,-97.31 2476.1,-104.31"/>
<text text-anchor="middle" x="2007" y="-263.14" font-family="Times,serif" font-size="14.00">get_tokens(p0, [])</text>
</g>
<!-- s12&#45;&gt;s1 -->
<g id="edge78" class="edge">
<title>s12&#45;&gt;s1</title>
<path fill="none" stroke="black" d="M1831.04,-418.47C1821.51,-413.82 1812.77,-407.69 1806,-399.63 1777.56,-365.76 1824.71,-330.88 1792,-301.11 1760.66,-272.58 1440.25,-313.77 1411,-283.11 1401.02,-272.65 1405.78,-264.06 1411,-250.58 1436.26,-185.28 1453.42,-163.37 1517,-134.05 1560.12,-114.17 2225.79,-104.67 2476.48,-101.78"/>
<polygon fill="black" stroke="black" points="2476.7,-105.28 2486.66,-101.66 2476.62,-98.28 2476.7,-105.28"/>
<text text-anchor="middle" x="1463.5" y="-263.14" font-family="Times,serif" font-size="14.00">get_tokens(p1, [1])</text>
</g>
<!-- s12&#45;&gt;s1 -->
<g id="edge79" class="edge">
<title>s12&#45;&gt;s1</title>
<path fill="none" stroke="black" d="M1841.35,-418.22C1832.07,-413.62 1823.5,-407.58 1817,-399.63 1788.95,-365.35 1834.64,-331.05 1802,-301.11 1756.37,-259.26 1566.34,-328.27 1524,-283.11 1493.44,-250.5 1557.51,-167.65 1630,-134.05 1667.91,-116.49 2245.51,-105.76 2476.54,-102.16"/>
<polygon fill="black" stroke="black" points="2476.67,-105.65 2486.62,-102 2476.56,-98.66 2476.67,-105.65"/>
<text text-anchor="middle" x="1576.5" y="-263.14" font-family="Times,serif" font-size="14.00">get_tokens(p2, [2])</text>
</g>
<!-- s12&#45;&gt;s1 -->
<g id="edge80" class="edge">
<title>s12&#45;&gt;s1</title>
<path fill="none" stroke="black" d="M1851.38,-418C1842.46,-413.41 1834.16,-407.42 1828,-399.63 1800.49,-364.83 1844.27,-331.55 1812,-301.11 1783.56,-274.28 1663.19,-312.13 1637,-283.11 1631.14,-276.61 1621.45,-153.63 1641,-134.05 1670.14,-104.87 2244.59,-101.08 2475.81,-100.74"/>
<polygon fill="black" stroke="black" points="2475.89,-104.24 2485.89,-100.73 2475.88,-97.24 2475.89,-104.24"/>
<text text-anchor="middle" x="1686" y="-263.14" font-family="Times,serif" font-size="14.00">get_tokens(p3, [])</text>
</g>
<!-- s12&#45;&gt;s1 -->
<g id="edge81" class="edge">
<title>s12&#45;&gt;s1</title>
<path fill="none" stroke="black" d="M1864.09,-417.81C1855.71,-413.14 1847.76,-407.18 1842,-399.63 1814.88,-364.12 1853.22,-333.08 1822,-301.11 1796.84,-275.34 1769.73,-307.24 1743,-283.11 1731.67,-272.88 1743.34,-260.79 1732,-250.58 1704.92,-226.2 1674.77,-261.04 1652,-232.58 1638.32,-215.48 1636.8,-149.81 1652,-134.05 1680.24,-104.77 2246.31,-101.03 2475.7,-100.72"/>
<polygon fill="black" stroke="black" points="2476.04,-104.22 2486.03,-100.71 2476.03,-97.22 2476.04,-104.22"/>
<text text-anchor="middle" x="1792" y="-263.14" font-family="Times,serif" font-size="14.00">get_tokens(p4, [])</text>
</g>
<!-- s12&#45;&gt;s1 -->
<g id="edge82" class="edge">
<title>s12&#45;&gt;s1</title>
<path fill="none" stroke="black" d="M1900.4,-417.51C1887.44,-390.77 1860.93,-333.7 1845,-283.11 1840.56,-269 1849,-260.46 1838,-250.58 1809.4,-224.91 1692.99,-259.94 1666,-232.58 1650.62,-216.99 1650.11,-149.11 1666,-134.05 1695.03,-106.55 2249.76,-101.75 2476.08,-100.94"/>
<polygon fill="black" stroke="black" points="2476.29,-104.44 2486.28,-100.91 2476.27,-97.44 2476.29,-104.44"/>
<text text-anchor="middle" x="1897.5" y="-263.14" font-family="Times,serif" font-size="14.00">get_tokens(p5, [5])</text>
</g>
<!-- s12&#45;&gt;s14 -->
<g id="edge83" class="edge">
<title>s12&#45;&gt;s14</title>
<path fill="none" stroke="black" d="M1960.31,-418.04C2008.91,-404.23 2081.35,-383.65 2132.88,-369.02"/>
<polygon fill="black" stroke="black" points="2133.91,-372.36 2142.57,-366.27 2131.99,-365.63 2133.91,-372.36"/>
<text text-anchor="middle" x="2114" y="-388.43" font-family="Times,serif" font-size="14.00">fire_trans(t2)</text>
</g>
<!-- s13&#45;&gt;s1 -->
<g id="edge84" class="edge">
<title>s13&#45;&gt;s1</title>
<path fill="none" stroke="black" d="M2659.24,-334.08C2662.81,-328.63 2666.48,-322.31 2669,-316.11 2680.23,-288.53 2660.44,-270.02 2683,-250.58 2731.92,-208.44 2928.78,-279.63 2973,-232.58 2977.57,-227.72 2975.09,-223.91 2973,-217.58 2958.49,-173.68 2951.24,-156.82 2911,-134.05 2870.41,-111.09 2751.37,-103.78 2665.59,-101.57"/>
<polygon fill="black" stroke="black" points="2665.64,-98.07 2655.56,-101.33 2665.48,-105.07 2665.64,-98.07"/>
<text text-anchor="middle" x="3024" y="-221.38" font-family="Times,serif" font-size="14.00">get_tokens(p0, [])</text>
</g>
<!-- s13&#45;&gt;s1 -->
<g id="edge85" class="edge">
<title>s13&#45;&gt;s1</title>
<path fill="none" stroke="black" d="M2662.02,-333.97C2666.34,-328.62 2670.8,-322.37 2674,-316.11 2687.81,-289.11 2669.19,-269.36 2693,-250.58 2759.72,-197.95 3116.85,-290.97 3074,-217.58 3035.92,-152.36 2998.08,-156.64 2926,-134.05 2878.58,-119.2 2750.99,-109.89 2662.46,-105.02"/>
<polygon fill="black" stroke="black" points="2662.58,-101.52 2652.4,-104.47 2662.2,-108.51 2662.58,-101.52"/>
<text text-anchor="middle" x="3126" y="-221.38" font-family="Times,serif" font-size="14.00">get_tokens(p1, [])</text>
</g>
<!-- s13&#45;&gt;s1 -->
<g id="edge86" class="edge">
<title>s13&#45;&gt;s1</title>
<path fill="none" stroke="black" d="M2643.61,-333.85C2642.09,-328.27 2640.41,-321.92 2639,-316.11 2632,-287.16 2646.56,-271.12 2625,-250.58 2588.05,-215.37 2479.84,-254.58 2515,-217.58 2542.13,-189.03 2841.87,-228.13 2869,-199.58 2879.04,-189.02 2877.03,-144.62 2867,-134.05 2852.98,-119.29 2744.15,-110.1 2662.49,-105.22"/>
<polygon fill="black" stroke="black" points="2662.36,-101.7 2652.17,-104.61 2661.95,-108.69 2662.36,-101.7"/>
<text text-anchor="middle" x="2564" y="-221.38" font-family="Times,serif" font-size="14.00">get_tokens(p2, [])</text>
</g>
<!-- s13&#45;&gt;s1 -->
<g id="edge87" class="edge">
<title>s13&#45;&gt;s1</title>
<path fill="none" stroke="black" d="M2648.27,-334.07C2648.13,-314.14 2646.11,-278.55 2635,-250.58 2631.36,-241.41 2625.04,-241.97 2622,-232.58 2619.95,-226.24 2617.46,-222.46 2622,-217.58 2660.57,-176.18 2837.43,-240.98 2876,-199.58 2895.86,-178.26 2894.09,-155.15 2874,-134.05 2859.51,-118.84 2746.41,-109.7 2662.62,-104.96"/>
<polygon fill="black" stroke="black" points="2662.73,-101.46 2652.55,-104.4 2662.34,-108.45 2662.73,-101.46"/>
<text text-anchor="middle" x="2681.5" y="-221.38" font-family="Times,serif" font-size="14.00">get_tokens(p3, [3, 3])</text>
</g>
<!-- s13&#45;&gt;s1 -->
<g id="edge88" class="edge">
<title>s13&#45;&gt;s1</title>
<path fill="none" stroke="black" d="M2648.13,-333.92C2648.67,-309.24 2651.14,-262.48 2662,-250.58 2685.39,-224.94 2708.67,-251.15 2738,-232.58 2745.21,-228.01 2742.56,-221.77 2750,-217.58 2776.75,-202.5 2866.75,-222.66 2887,-199.58 2906.24,-177.65 2903.78,-154.54 2883,-134.05 2867.47,-118.74 2749.25,-109.57 2662.92,-104.85"/>
<polygon fill="black" stroke="black" points="2662.99,-101.35 2652.82,-104.31 2662.62,-108.34 2662.99,-101.35"/>
<text text-anchor="middle" x="2809.5" y="-221.38" font-family="Times,serif" font-size="14.00">get_tokens(p4, [4, 4])</text>
</g>
<!-- s13&#45;&gt;s1 -->
<g id="edge89" class="edge">
<title>s13&#45;&gt;s1</title>
<path fill="none" stroke="black" d="M2650.94,-333.73C2656.05,-307.27 2666.65,-256.02 2673,-250.58 2705.72,-222.57 2830.13,-256.44 2866,-232.58 2872.29,-228.4 2869.14,-223.37 2874,-217.58 2882.35,-207.64 2891.31,-211.25 2897,-199.58 2909.79,-173.32 2913.13,-154.21 2892,-134.05 2875.63,-118.44 2752.13,-109.28 2663.2,-104.66"/>
<polygon fill="black" stroke="black" points="2663.24,-101.15 2653.08,-104.14 2662.89,-108.15 2663.24,-101.15"/>
<text text-anchor="middle" x="2923" y="-221.38" font-family="Times,serif" font-size="14.00">get_tokens(p5, [])</text>
</g>
<!-- s15 -->
<g id="node16" class="node">
<title>s15</title>
<ellipse fill="none" stroke="black" cx="2385" cy="-266.84" rx="229.62" ry="16.03"/>
<text text-anchor="middle" x="2385" y="-263.14" font-family="Times,serif" font-size="14.00">(4,(lambda p: Place. [])[p5 &#45;&gt; [5]][p4 &#45;&gt; [4]][p3 &#45;&gt; [3]])</text>
</g>
<!-- s13&#45;&gt;s15 -->
<g id="edge90" class="edge">
<title>s13&#45;&gt;s15</title>
<path fill="none" stroke="black" d="M2594.56,-334.51C2581.42,-329.68 2567.75,-323.58 2556,-316.11 2548.04,-311.05 2549.28,-305.61 2541,-301.11 2528.15,-294.13 2513.96,-288.61 2499.54,-284.25"/>
<polygon fill="black" stroke="black" points="2500.1,-280.77 2489.52,-281.41 2498.19,-287.51 2500.1,-280.77"/>
<text text-anchor="middle" x="2592" y="-304.91" font-family="Times,serif" font-size="14.00">fire_trans(t3)</text>
</g>
<!-- s14&#45;&gt;s1 -->
<g id="edge91" class="edge">
<title>s14&#45;&gt;s1</title>
<path fill="none" stroke="black" d="M2127.78,-334.8C2118.07,-330.18 2109,-324.11 2102,-316.11 2082.39,-293.7 2110.11,-270.53 2088,-250.58 2060.45,-225.72 1954.53,-250.44 1922,-232.58 1914.52,-228.47 1917.02,-222.44 1910,-217.58 1888.86,-202.93 1870.1,-220.4 1855,-199.58 1837.91,-176 1834.89,-155.12 1855,-134.05 1876.11,-111.94 2286.7,-104.18 2476.39,-101.76"/>
<polygon fill="black" stroke="black" points="2476.68,-105.26 2486.63,-101.63 2476.59,-98.26 2476.68,-105.26"/>
<text text-anchor="middle" x="1971" y="-221.38" font-family="Times,serif" font-size="14.00">get_tokens(p0, [])</text>
</g>
<!-- s14&#45;&gt;s1 -->
<g id="edge92" class="edge">
<title>s14&#45;&gt;s1</title>
<path fill="none" stroke="black" d="M2159.17,-334.13C2150.27,-329.25 2141.22,-323.22 2134,-316.11 2110.18,-292.63 2123.47,-271.03 2097,-250.58 2072.26,-231.47 2055.19,-249.65 2029,-232.58 2021.85,-227.92 2024.46,-221.73 2017,-217.58 1987.46,-201.16 1888.44,-224.85 1866,-199.58 1856.33,-188.69 1855.95,-144.59 1866,-134.05 1886.72,-112.33 2289.05,-104.37 2476.44,-101.84"/>
<polygon fill="black" stroke="black" points="2476.61,-105.33 2486.56,-101.7 2476.52,-98.33 2476.61,-105.33"/>
<text text-anchor="middle" x="2081.5" y="-221.38" font-family="Times,serif" font-size="14.00">get_tokens(p1, [1])</text>
</g>
<!-- s14&#45;&gt;s1 -->
<g id="edge93" class="edge">
<title>s14&#45;&gt;s1</title>
<path fill="none" stroke="black" d="M2163.42,-334.18C2156.33,-329.35 2149.56,-323.34 2145,-316.11 2121.41,-278.69 2163.36,-247.74 2131,-217.58 2089.6,-179 1915.57,-240.98 1877,-199.58 1867.07,-188.93 1866.95,-144.59 1877,-134.05 1897.33,-112.72 2291.07,-104.58 2476.25,-101.91"/>
<polygon fill="black" stroke="black" points="2476.57,-105.41 2486.52,-101.77 2476.48,-98.41 2476.57,-105.41"/>
<text text-anchor="middle" x="2191" y="-221.38" font-family="Times,serif" font-size="14.00">get_tokens(p2, [])</text>
</g>
<!-- s14&#45;&gt;s1 -->
<g id="edge94" class="edge">
<title>s14&#45;&gt;s1</title>
<path fill="none" stroke="black" d="M2179.73,-333.89C2161.13,-313.12 2134.56,-275.93 2155,-250.58 2178.69,-221.2 2214.31,-261.96 2238,-232.58 2242.18,-227.39 2242.59,-222.41 2238,-217.58 2211.18,-189.35 1914.82,-227.81 1888,-199.58 1877.97,-189.02 1878.8,-144.45 1889,-134.05 1909.24,-113.44 2294.12,-104.93 2476.56,-102.05"/>
<polygon fill="black" stroke="black" points="2476.75,-105.54 2486.69,-101.89 2476.64,-98.55 2476.75,-105.54"/>
<text text-anchor="middle" x="2291" y="-221.38" font-family="Times,serif" font-size="14.00">get_tokens(p3, [])</text>
</g>
<!-- s14&#45;&gt;s1 -->
<g id="edge95" class="edge">
<title>s14&#45;&gt;s1</title>
<path fill="none" stroke="black" d="M2107.08,-335.24C2096.92,-330.52 2087.52,-324.3 2080,-316.11 2059.92,-294.23 2089.49,-269.97 2067,-250.58 2003.98,-196.24 1657.68,-292.45 1694,-217.58 1720.18,-163.62 1743.77,-154.92 1800,-134.05 1861.82,-111.12 2284.45,-103.79 2476.45,-101.62"/>
<polygon fill="black" stroke="black" points="2476.57,-105.12 2486.53,-101.51 2476.49,-98.12 2476.57,-105.12"/>
<text text-anchor="middle" x="1746.5" y="-221.38" font-family="Times,serif" font-size="14.00">get_tokens(p4, [4])</text>
</g>
<!-- s14&#45;&gt;s1 -->
<g id="edge96" class="edge">
<title>s14&#45;&gt;s1</title>
<path fill="none" stroke="black" d="M2121.47,-334.85C2111.24,-330.22 2101.63,-324.13 2094,-316.11 2073.19,-294.22 2099.4,-269.67 2076,-250.58 2029.07,-212.28 1845.4,-276.81 1804,-232.58 1790.08,-217.71 1786.17,-172.35 1844,-134.05 1869.94,-116.88 2286.37,-106.44 2477.02,-102.54"/>
<polygon fill="black" stroke="black" points="2477.1,-106.04 2487.03,-102.34 2476.96,-99.04 2477.1,-106.04"/>
<text text-anchor="middle" x="1856.5" y="-221.38" font-family="Times,serif" font-size="14.00">get_tokens(p5, [5])</text>
</g>
<!-- s14&#45;&gt;s15 -->
<g id="edge97" class="edge">
<title>s14&#45;&gt;s15</title>
<path fill="none" stroke="black" d="M2230.29,-334.23C2261.26,-320.94 2306.45,-301.55 2340,-287.15"/>
<polygon fill="black" stroke="black" points="2341.77,-290.2 2349.57,-283.04 2339,-283.77 2341.77,-290.2"/>
<text text-anchor="middle" x="2344" y="-304.91" font-family="Times,serif" font-size="14.00">fire_trans(t1)</text>
</g>
<!-- s15&#45;&gt;s1 -->
<g id="edge98" class="edge">
<title>s15&#45;&gt;s1</title>
<path fill="none" stroke="black" d="M2411.15,-250.58C2424.44,-240.95 2435.89,-228.35 2426,-217.58 2393.86,-182.61 2245.14,-234.56 2213,-199.58 2203.22,-188.94 2203.06,-177.55 2213,-167.05 2238.64,-140 2517.02,-169.79 2548,-149.05 2556.07,-143.65 2561.39,-134.6 2564.85,-125.79"/>
<polygon fill="black" stroke="black" points="2568.22,-126.74 2568.02,-116.15 2561.57,-124.56 2568.22,-126.74"/>
<text text-anchor="middle" x="2262" y="-179.62" font-family="Times,serif" font-size="14.00">get_tokens(p0, [])</text>
</g>
<!-- s15&#45;&gt;s1 -->
<g id="edge99" class="edge">
<title>s15&#45;&gt;s1</title>
<path fill="none" stroke="black" d="M2415.12,-250.68C2429.6,-241.41 2441.87,-229.15 2432,-217.58 2398.99,-178.9 2352.01,-238.27 2319,-199.58 2309.62,-188.58 2309.17,-177.65 2319,-167.05 2355.38,-127.85 2518.13,-183.55 2559,-149.05 2565.66,-143.43 2568.93,-134.74 2570.46,-126.27"/>
<polygon fill="black" stroke="black" points="2573.94,-126.6 2571.55,-116.27 2566.98,-125.83 2573.94,-126.6"/>
<text text-anchor="middle" x="2368" y="-179.62" font-family="Times,serif" font-size="14.00">get_tokens(p1, [])</text>
</g>
<!-- s15&#45;&gt;s1 -->
<g id="edge100" class="edge">
<title>s15&#45;&gt;s1</title>
<path fill="none" stroke="black" d="M2420.29,-250.72C2427.38,-245.98 2433.9,-240 2438,-232.58 2441.23,-226.75 2440.05,-223.92 2438,-217.58 2434.96,-208.19 2428.04,-208.97 2425,-199.58 2420.55,-185.83 2415.44,-177.9 2425,-167.05 2467.37,-119.01 2524.16,-195.76 2568,-149.05 2573.66,-143.03 2575.41,-134.5 2575.42,-126.29"/>
<polygon fill="black" stroke="black" points="2578.9,-125.97 2574.67,-116.26 2571.92,-126.49 2578.9,-125.97"/>
<text text-anchor="middle" x="2474" y="-179.62" font-family="Times,serif" font-size="14.00">get_tokens(p2, [])</text>
</g>
<!-- s15&#45;&gt;s1 -->
<g id="edge101" class="edge">
<title>s15&#45;&gt;s1</title>
<path fill="none" stroke="black" d="M2412.1,-250.46C2433.34,-238.49 2461.22,-223.04 2473,-217.58 2493.3,-208.18 2504.5,-215.71 2520,-199.58 2530.57,-188.58 2520.51,-178.13 2531,-167.05 2545.81,-151.41 2563.92,-166.89 2576,-149.05 2580.47,-142.46 2580.95,-134.15 2579.79,-126.29"/>
<polygon fill="black" stroke="black" points="2583.16,-125.36 2577.5,-116.41 2576.34,-126.94 2583.16,-125.36"/>
<text text-anchor="middle" x="2583.5" y="-179.62" font-family="Times,serif" font-size="14.00">get_tokens(p3, [3])</text>
</g>
<!-- s15&#45;&gt;s1 -->
<g id="edge102" class="edge">
<title>s15&#45;&gt;s1</title>
<path fill="none" stroke="black" d="M2426.1,-250.77C2438.58,-245.61 2452.13,-239.4 2464,-232.58 2473.64,-227.05 2473.69,-221.72 2484,-217.58 2514.95,-205.15 2610.88,-224.54 2633,-199.58 2654.33,-175.52 2625.34,-143.29 2600.25,-122.29"/>
<polygon fill="black" stroke="black" points="2602.29,-119.44 2592.31,-115.89 2597.9,-124.89 2602.29,-119.44"/>
<text text-anchor="middle" x="2693.5" y="-179.62" font-family="Times,serif" font-size="14.00">get_tokens(p4, [4])</text>
</g>
<!-- s15&#45;&gt;s1 -->
<g id="edge103" class="edge">
<title>s15&#45;&gt;s1</title>
<path fill="none" stroke="black" d="M2437.73,-250.89C2451.32,-246 2465.6,-239.9 2478,-232.58 2486.68,-227.46 2485.71,-221.48 2495,-217.58 2520.78,-206.76 2726.95,-220.05 2746,-199.58 2784.72,-157.98 2703.32,-129.33 2638.98,-113.98"/>
<polygon fill="black" stroke="black" points="2639.76,-110.57 2629.22,-111.72 2638.18,-117.39 2639.76,-110.57"/>
<text text-anchor="middle" x="2808.5" y="-179.62" font-family="Times,serif" font-size="14.00">get_tokens(p5, [5])</text>
</g>
<!-- s16 -->
<g id="node17" class="node">
<title>s16</title>
<ellipse fill="none" stroke="black" cx="2045" cy="-183.32" rx="156.96" ry="16.03"/>
<text text-anchor="middle" x="2045" y="-179.62" font-family="Times,serif" font-size="14.00">(4,(lambda p: Place. [])[p5 &#45;&gt; [5, 5]])</text>
</g>
<!-- s15&#45;&gt;s16 -->
<g id="edge104" class="edge">
<title>s15&#45;&gt;s16</title>
<path fill="none" stroke="black" d="M2371.81,-250.34C2367.11,-244.77 2361.79,-238.42 2357,-232.58 2351.58,-225.98 2352.48,-221.7 2345,-217.58 2336.91,-213.13 2246.76,-203.49 2167.38,-195.73"/>
<polygon fill="black" stroke="black" points="2167.55,-192.23 2157.26,-194.75 2166.87,-199.2 2167.55,-192.23"/>
<text text-anchor="middle" x="2393" y="-221.38" font-family="Times,serif" font-size="14.00">fire_trans(t3)</text>
</g>
<!-- s16&#45;&gt;s1 -->
<g id="edge105" class="edge">
<title>s16&#45;&gt;s1</title>
<path fill="none" stroke="black" d="M2165.44,-172.86C2186.93,-167.74 2208.39,-160.17 2227,-149.05 2234.33,-144.68 2231.5,-138.13 2239,-134.05 2278.67,-112.48 2393.17,-104.85 2476.63,-102.18"/>
<polygon fill="black" stroke="black" points="2476.76,-105.68 2486.65,-101.88 2476.55,-98.68 2476.76,-105.68"/>
<text text-anchor="middle" x="2288" y="-137.85" font-family="Times,serif" font-size="14.00">get_tokens(p0, [])</text>
</g>
<!-- s16&#45;&gt;s1 -->
<g id="edge106" class="edge">
<title>s16&#45;&gt;s1</title>
<path fill="none" stroke="black" d="M2154.75,-171.64C2233.07,-163.71 2325.93,-153.52 2334,-149.05 2341.47,-144.92 2338.6,-138.31 2346,-134.05 2369.08,-120.8 2430.25,-112.28 2482.99,-107.18"/>
<polygon fill="black" stroke="black" points="2483.44,-110.66 2493.07,-106.24 2482.79,-103.69 2483.44,-110.66"/>
<text text-anchor="middle" x="2395" y="-137.85" font-family="Times,serif" font-size="14.00">get_tokens(p1, [])</text>
</g>
<!-- s16&#45;&gt;s1 -->
<g id="edge107" class="edge">
<title>s16&#45;&gt;s1</title>
<path fill="none" stroke="black" d="M2154.53,-171.67C2171.75,-170.07 2189.36,-168.48 2206,-167.05 2258.18,-162.58 2394.7,-173.53 2441,-149.05 2448.55,-145.06 2445.88,-138.77 2453,-134.05 2466.59,-125.05 2482.61,-118.45 2498.39,-113.63"/>
<polygon fill="black" stroke="black" points="2499.5,-116.95 2508.17,-110.85 2497.59,-110.22 2499.5,-116.95"/>
<text text-anchor="middle" x="2502" y="-137.85" font-family="Times,serif" font-size="14.00">get_tokens(p2, [])</text>
</g>
<!-- s16&#45;&gt;s1 -->
<g id="edge108" class="edge">
<title>s16&#45;&gt;s1</title>
<path fill="none" stroke="black" d="M1927.68,-172.51C1897.44,-165.62 1878.09,-153.92 1897,-134.05 1916.65,-113.41 2295.78,-104.93 2476.59,-102.05"/>
<polygon fill="black" stroke="black" points="2476.69,-105.55 2486.63,-101.89 2476.58,-98.55 2476.69,-105.55"/>
<text text-anchor="middle" x="1946" y="-137.85" font-family="Times,serif" font-size="14.00">get_tokens(p3, [])</text>
</g>
<!-- s16&#45;&gt;s1 -->
<g id="edge109" class="edge">
<title>s16&#45;&gt;s1</title>
<path fill="none" stroke="black" d="M2019.05,-167.18C2005.6,-157.49 1993.89,-144.77 2004,-134.05 2019.95,-117.14 2320.17,-107.09 2477.13,-102.98"/>
<polygon fill="black" stroke="black" points="2477.35,-106.47 2487.25,-102.71 2477.17,-99.47 2477.35,-106.47"/>
<text text-anchor="middle" x="2053" y="-137.85" font-family="Times,serif" font-size="14.00">get_tokens(p4, [])</text>
</g>
<!-- s16&#45;&gt;s1 -->
<g id="edge110" class="edge">
<title>s16&#45;&gt;s1</title>
<path fill="none" stroke="black" d="M2075.67,-167.27C2083.91,-162.25 2092.36,-156.11 2099,-149.05 2104.17,-143.55 2100.66,-138.17 2107,-134.05 2137.19,-114.44 2350.4,-106.01 2477.05,-102.7"/>
<polygon fill="black" stroke="black" points="2477.24,-106.2 2487.14,-102.44 2477.06,-99.2 2477.24,-106.2"/>
<text text-anchor="middle" x="2166.5" y="-137.85" font-family="Times,serif" font-size="14.00">get_tokens(p5, [5, 5])</text>
</g>
</g>
</svg>
