<?xml version="1.0" encoding="UTF-8" standalone="no"?>
<!DOCTYPE svg PUBLIC "-//W3C//DTD SVG 1.1//EN"
 "http://www.w3.org/Graphics/SVG/1.1/DTD/svg11.dtd">
<!-- Generated by graphviz version 5.0.1 (0)
 -->
<!-- Title: G Pages: 1 -->
<svg width="5972pt" height="884pt"
 viewBox="0.00 0.00 5972.00 883.80" xmlns="http://www.w3.org/2000/svg" xmlns:xlink="http://www.w3.org/1999/xlink">
<g id="graph0" class="graph" transform="scale(1 1) rotate(0) translate(4 879.8)">
<title>G</title>
<polygon fill="white" stroke="none" points="-4,4 -4,-879.8 5968,-879.8 5968,4 -4,4"/>
<!-- s12 -->
<g id="node1" class="node">
<title>s12</title>
<ellipse fill="none" stroke="black" cx="5545" cy="-855.53" rx="156.96" ry="16.08"/>
<ellipse fill="none" stroke="black" cx="5545" cy="-855.53" rx="160.96" ry="20.03"/>
<text text-anchor="middle" x="5545" y="-851.83" font-family="Times,serif" font-size="14.00">(3,(lambda p: Place. [])[p0 &#45;&gt; [0, 0]])</text>
</g>
<!-- s0 -->
<g id="node2" class="node">
<title>s0</title>
<ellipse fill="none" stroke="black" cx="4750" cy="-768.01" rx="229.62" ry="16.03"/>
<text text-anchor="middle" x="4750" y="-764.31" font-family="Times,serif" font-size="14.00">(4,(lambda p: Place. [])[p2 &#45;&gt; [2]][p1 &#45;&gt; [1]][p0 &#45;&gt; [0]])</text>
</g>
<!-- s12&#45;&gt;s0 -->
<g id="edge32" class="edge">
<title>s12&#45;&gt;s0</title>
<path fill="none" stroke="black" d="M5426.41,-841.77C5280.01,-826.02 5031.85,-799.33 4880.27,-783.02"/>
<polygon fill="black" stroke="black" points="4880.29,-779.5 4869.97,-781.91 4879.54,-786.46 4880.29,-779.5"/>
<text text-anchor="middle" x="5231" y="-806.07" font-family="Times,serif" font-size="14.00">fire_trans(t0)</text>
</g>
<!-- s13 -->
<g id="node14" class="node">
<title>s13</title>
<ellipse fill="none" stroke="black" cx="3044" cy="-99.79" rx="156.96" ry="16.03"/>
<text text-anchor="middle" x="3044" y="-96.09" font-family="Times,serif" font-size="14.00">(1,(lambda p: Place. [])[p0 &#45;&gt; [0, 0]])</text>
</g>
<!-- s12&#45;&gt;s13 -->
<g id="edge33" class="edge">
<title>s12&#45;&gt;s13</title>
<path fill="none" stroke="black" d="M5454.14,-838.72C5388.01,-824.54 5310,-801.03 5310,-769.01 5310,-769.01 5310,-769.01 5310,-516.42 5310,-494.9 5299.7,-484.24 5314,-468.16 5340.82,-438.01 5375.59,-479.78 5403,-450.16 5420.34,-431.42 5410,-418.67 5410,-393.13 5410,-393.13 5410,-393.13 5410,-182.32 5410,-99.06 5311.46,-145.5 5229,-134.05 5031.65,-106.67 3686.96,-101.83 3210.74,-100.97"/>
<polygon fill="black" stroke="black" points="3210.69,-97.47 3200.69,-100.96 3210.68,-104.47 3210.69,-97.47"/>
<text text-anchor="middle" x="5373.5" y="-471.96" font-family="Times,serif" font-size="14.00">get_tokens(p0, [0, 0])</text>
</g>
<!-- s12&#45;&gt;s13 -->
<g id="edge34" class="edge">
<title>s12&#45;&gt;s13</title>
<path fill="none" stroke="black" d="M5494.63,-836.18C5466.88,-822.48 5438,-800.64 5438,-769.01 5438,-769.01 5438,-769.01 5438,-182.32 5438,-156.98 5426.9,-153.07 5319,-134.05 5215.71,-115.85 3717.57,-104.95 3210.41,-101.77"/>
<polygon fill="black" stroke="black" points="3210.1,-98.27 3200.08,-101.71 3210.06,-105.27 3210.1,-98.27"/>
<text text-anchor="middle" x="5487" y="-471.96" font-family="Times,serif" font-size="14.00">get_tokens(p1, [])</text>
</g>
<!-- s12&#45;&gt;s13 -->
<g id="edge35" class="edge">
<title>s12&#45;&gt;s13</title>
<path fill="none" stroke="black" d="M5545,-835.17C5545,-817.84 5545,-791.72 5545,-769.01 5545,-769.01 5545,-769.01 5545,-182.32 5545,-97.77 5444.77,-145.47 5361,-134.05 5150.31,-105.34 3707.33,-101.37 3211.15,-100.85"/>
<polygon fill="black" stroke="black" points="3211.04,-97.35 3201.04,-100.84 3211.04,-104.35 3211.04,-97.35"/>
<text text-anchor="middle" x="5594" y="-471.96" font-family="Times,serif" font-size="14.00">get_tokens(p5, [])</text>
</g>
<!-- s12&#45;&gt;s13 -->
<g id="edge36" class="edge">
<title>s12&#45;&gt;s13</title>
<path fill="none" stroke="black" d="M5595.37,-836.18C5623.12,-822.48 5652,-800.64 5652,-769.01 5652,-769.01 5652,-769.01 5652,-182.32 5652,-90.88 5542.72,-145.48 5452,-134.05 5231.79,-106.32 3720.19,-101.71 3211.01,-100.94"/>
<polygon fill="black" stroke="black" points="3211.01,-97.44 3201,-100.93 3211,-104.44 3211.01,-97.44"/>
<text text-anchor="middle" x="5701" y="-471.96" font-family="Times,serif" font-size="14.00">get_tokens(p4, [])</text>
</g>
<!-- s12&#45;&gt;s13 -->
<g id="edge37" class="edge">
<title>s12&#45;&gt;s13</title>
<path fill="none" stroke="black" d="M5625.6,-837.9C5686.26,-822.98 5759,-798.86 5759,-769.01 5759,-769.01 5759,-769.01 5759,-182.32 5759,-87.85 5645.77,-145.47 5552,-134.05 5321.53,-105.99 3734.39,-101.6 3211.02,-100.92"/>
<polygon fill="black" stroke="black" points="3210.74,-97.42 3200.74,-100.9 3210.73,-104.42 3210.74,-97.42"/>
<text text-anchor="middle" x="5808" y="-471.96" font-family="Times,serif" font-size="14.00">get_tokens(p3, [])</text>
</g>
<!-- s12&#45;&gt;s13 -->
<g id="edge38" class="edge">
<title>s12&#45;&gt;s13</title>
<path fill="none" stroke="black" d="M5675.56,-843.59C5764.43,-832.4 5866,-810.53 5866,-769.01 5866,-769.01 5866,-769.01 5866,-182.32 5866,-86.12 5750.52,-145.46 5655,-134.05 5413.96,-105.28 3748.42,-101.37 3210.87,-100.86"/>
<polygon fill="black" stroke="black" points="3210.71,-97.36 3200.7,-100.85 3210.7,-104.36 3210.71,-97.36"/>
<text text-anchor="middle" x="5915" y="-471.96" font-family="Times,serif" font-size="14.00">get_tokens(p2, [])</text>
</g>
<!-- s11 -->
<g id="node13" class="node">
<title>s11</title>
<ellipse fill="none" stroke="black" cx="4750" cy="-684.48" rx="245.23" ry="16.03"/>
<text text-anchor="middle" x="4750" y="-680.78" font-family="Times,serif" font-size="14.00">(4,(lambda p: Place. [])[p2 &#45;&gt; [2, 2]][p1 &#45;&gt; [1, 1]][p0 &#45;&gt; []])</text>
</g>
<!-- s0&#45;&gt;s11 -->
<g id="edge24" class="edge">
<title>s0&#45;&gt;s11</title>
<path fill="none" stroke="black" d="M4750,-751.67C4750,-740.17 4750,-724.17 4750,-710.79"/>
<polygon fill="black" stroke="black" points="4753.5,-710.74 4750,-700.74 4746.5,-710.74 4753.5,-710.74"/>
<text text-anchor="middle" x="4786" y="-722.54" font-family="Times,serif" font-size="14.00">fire_trans(t0)</text>
</g>
<!-- s0&#45;&gt;s13 -->
<g id="edge25" class="edge">
<title>s0&#45;&gt;s13</title>
<path fill="none" stroke="black" d="M4898.75,-755.55C4983.12,-744.79 5072,-724.26 5072,-685.48 5072,-685.48 5072,-685.48 5072,-474.66 5072,-449.28 5057.78,-436.28 5075,-417.63 5116.38,-372.85 5167.19,-442.04 5211,-399.63 5226.62,-384.51 5219,-373.11 5219,-351.37 5219,-351.37 5219,-351.37 5219,-182.32 5219,-84.38 5101.24,-145.67 5004,-134.05 4828.81,-113.13 3651.39,-104.28 3210.36,-101.67"/>
<polygon fill="black" stroke="black" points="3210.1,-98.17 3200.08,-101.61 3210.06,-105.17 3210.1,-98.17"/>
<text text-anchor="middle" x="5127.5" y="-430.2" font-family="Times,serif" font-size="14.00">get_tokens(p0, [0])</text>
</g>
<!-- s0&#45;&gt;s13 -->
<g id="edge26" class="edge">
<title>s0&#45;&gt;s13</title>
<path fill="none" stroke="black" d="M4882.58,-754.72C5010.53,-741.02 5185,-716.62 5185,-685.48 5185,-685.48 5185,-685.48 5185,-474.66 5185,-449.28 5174.76,-439.29 5188,-417.63 5196.31,-404.04 5209.56,-412.47 5219,-399.63 5232.04,-381.91 5230,-373.37 5230,-351.37 5230,-351.37 5230,-351.37 5230,-182.32 5230,-122.72 5169.82,-143.02 5111,-134.05 4925.93,-105.83 3669.48,-101.52 3211,-100.89"/>
<polygon fill="black" stroke="black" points="3210.99,-97.39 3200.98,-100.87 3210.98,-104.39 3210.99,-97.39"/>
<text text-anchor="middle" x="5240.5" y="-430.2" font-family="Times,serif" font-size="14.00">get_tokens(p1, [1])</text>
</g>
<!-- s0&#45;&gt;s13 -->
<g id="edge27" class="edge">
<title>s0&#45;&gt;s13</title>
<path fill="none" stroke="black" d="M4924.14,-757.39C5084.61,-746.11 5298,-723.89 5298,-685.48 5298,-685.48 5298,-685.48 5298,-182.32 5298,-120.69 5228.57,-145.43 5168,-134.05 5072.49,-116.12 3693.97,-105.17 3210.26,-101.86"/>
<polygon fill="black" stroke="black" points="3210.08,-98.36 3200.05,-101.79 3210.03,-105.36 3210.08,-98.36"/>
<text text-anchor="middle" x="5350.5" y="-430.2" font-family="Times,serif" font-size="14.00">get_tokens(p2, [2])</text>
</g>
<!-- s0&#45;&gt;s13 -->
<g id="edge29" class="edge">
<title>s0&#45;&gt;s13</title>
<path fill="none" stroke="black" d="M4520.77,-766.7C3599.49,-765.33 210.73,-758.58 102,-733.74 53.11,-722.57 0,-735.63 0,-685.48 0,-685.48 0,-685.48 0,-182.32 0,-132.17 53.13,-145.32 102,-134.05 237.59,-102.79 2274.29,-100.65 2877.12,-100.7"/>
<polygon fill="black" stroke="black" points="2877.2,-104.2 2887.2,-100.71 2877.2,-97.2 2877.2,-104.2"/>
<text text-anchor="middle" x="49" y="-430.2" font-family="Times,serif" font-size="14.00">get_tokens(p5, [])</text>
</g>
<!-- s0&#45;&gt;s13 -->
<g id="edge30" class="edge">
<title>s0&#45;&gt;s13</title>
<path fill="none" stroke="black" d="M4520.63,-766.66C3612.63,-765.15 314.03,-757.97 208,-733.74 159.11,-722.57 106,-735.63 106,-685.48 106,-685.48 106,-685.48 106,-182.32 106,-132.17 159.13,-145.33 208,-134.05 338.23,-103.99 2288.21,-101 2876.94,-100.78"/>
<polygon fill="black" stroke="black" points="2877.21,-104.28 2887.21,-100.78 2877.21,-97.28 2877.21,-104.28"/>
<text text-anchor="middle" x="155" y="-430.2" font-family="Times,serif" font-size="14.00">get_tokens(p4, [])</text>
</g>
<!-- s0&#45;&gt;s13 -->
<g id="edge31" class="edge">
<title>s0&#45;&gt;s13</title>
<path fill="none" stroke="black" d="M4521.85,-765.92C3601.62,-761.17 212,-739.96 212,-685.48 212,-685.48 212,-685.48 212,-182.32 212,-171.36 230.58,-139.85 241,-134.05 298.79,-101.88 2281.11,-100.36 2876.54,-100.64"/>
<polygon fill="black" stroke="black" points="2876.92,-104.14 2886.92,-100.64 2876.93,-97.14 2876.92,-104.14"/>
<text text-anchor="middle" x="261" y="-430.2" font-family="Times,serif" font-size="14.00">get_tokens(p3, [])</text>
</g>
<!-- s15 -->
<g id="node16" class="node">
<title>s15</title>
<ellipse fill="none" stroke="black" cx="666" cy="-684.48" rx="266.66" ry="16.03"/>
<text text-anchor="middle" x="666" y="-680.78" font-family="Times,serif" font-size="14.00">(4,(lambda p: Place. [])[p4 &#45;&gt; [4]][p2 &#45;&gt; []][p1 &#45;&gt; [1]][p0 &#45;&gt; [0]])</text>
</g>
<!-- s0&#45;&gt;s15 -->
<g id="edge28" class="edge">
<title>s0&#45;&gt;s15</title>
<path fill="none" stroke="black" d="M4532.59,-762.67C3837.89,-748.8 1673.51,-705.59 924.32,-690.64"/>
<polygon fill="black" stroke="black" points="924.28,-687.13 914.21,-690.43 924.14,-694.13 924.28,-687.13"/>
<text text-anchor="middle" x="3110" y="-722.54" font-family="Times,serif" font-size="14.00">fire_trans(t2)</text>
</g>
<!-- s1 -->
<g id="node3" class="node">
<title>s1</title>
<ellipse fill="none" stroke="black" cx="3044" cy="-16.26" rx="156.96" ry="16.03"/>
<text text-anchor="middle" x="3044" y="-12.56" font-family="Times,serif" font-size="14.00">(2,(lambda p: Place. [])[p0 &#45;&gt; [0, 0]])</text>
</g>
<!-- s2 -->
<g id="node4" class="node">
<title>s2</title>
<ellipse fill="none" stroke="black" cx="2527" cy="-183.32" rx="340.24" ry="16.03"/>
<text text-anchor="middle" x="2527" y="-179.62" font-family="Times,serif" font-size="14.00">(4,(lambda p: Place. [])[p5 &#45;&gt; [5, 5]][p4 &#45;&gt; []][p3 &#45;&gt; []][p2 &#45;&gt; []][p1 &#45;&gt; []][p0 &#45;&gt; []])</text>
</g>
<!-- s2&#45;&gt;s13 -->
<g id="edge105" class="edge">
<title>s2&#45;&gt;s13</title>
<path fill="none" stroke="black" d="M2748.41,-170.94C2788.69,-166.04 2823.73,-159.05 2842,-149.05 2849.49,-144.96 2846.65,-138.4 2854,-134.05 2868,-125.76 2898.76,-118.97 2931.53,-113.74"/>
<polygon fill="black" stroke="black" points="2932.4,-117.14 2941.75,-112.16 2931.34,-110.23 2932.4,-117.14"/>
<text text-anchor="middle" x="2913.5" y="-137.85" font-family="Times,serif" font-size="14.00">get_tokens(p5, [5, 5])</text>
</g>
<!-- s2&#45;&gt;s13 -->
<g id="edge106" class="edge">
<title>s2&#45;&gt;s13</title>
<path fill="none" stroke="black" d="M2363.34,-169.05C2342.87,-164.28 2326.47,-157.82 2319,-149.05 2314.67,-143.98 2314.4,-138.87 2319,-134.05 2338.07,-114.09 2670.81,-105.87 2878.81,-102.67"/>
<polygon fill="black" stroke="black" points="2878.98,-106.17 2888.93,-102.52 2878.88,-99.17 2878.98,-106.17"/>
<text text-anchor="middle" x="2368" y="-137.85" font-family="Times,serif" font-size="14.00">get_tokens(p1, [])</text>
</g>
<!-- s2&#45;&gt;s13 -->
<g id="edge107" class="edge">
<title>s2&#45;&gt;s13</title>
<path fill="none" stroke="black" d="M2449.01,-167.43C2426.71,-159.85 2411.83,-149.01 2426,-134.05 2441.54,-117.65 2703.55,-108.44 2881.37,-104.06"/>
<polygon fill="black" stroke="black" points="2881.72,-107.55 2891.63,-103.81 2881.55,-100.55 2881.72,-107.55"/>
<text text-anchor="middle" x="2475" y="-137.85" font-family="Times,serif" font-size="14.00">get_tokens(p0, [])</text>
</g>
<!-- s2&#45;&gt;s13 -->
<g id="edge108" class="edge">
<title>s2&#45;&gt;s13</title>
<path fill="none" stroke="black" d="M2524.32,-167.02C2523.38,-156.23 2524.28,-142.28 2533,-134.05 2557.89,-110.59 2737.53,-103.31 2876.86,-101.24"/>
<polygon fill="black" stroke="black" points="2877.29,-104.74 2887.24,-101.1 2877.2,-97.74 2877.29,-104.74"/>
<text text-anchor="middle" x="2582" y="-137.85" font-family="Times,serif" font-size="14.00">get_tokens(p4, [])</text>
</g>
<!-- s2&#45;&gt;s13 -->
<g id="edge109" class="edge">
<title>s2&#45;&gt;s13</title>
<path fill="none" stroke="black" d="M2591.34,-167.32C2604.14,-162.67 2617.01,-156.69 2628,-149.05 2635.01,-144.18 2632.46,-138.07 2640,-134.05 2680.57,-112.46 2784.91,-104.24 2877.39,-101.37"/>
<polygon fill="black" stroke="black" points="2877.55,-104.87 2887.45,-101.08 2877.35,-97.87 2877.55,-104.87"/>
<text text-anchor="middle" x="2689" y="-137.85" font-family="Times,serif" font-size="14.00">get_tokens(p3, [])</text>
</g>
<!-- s2&#45;&gt;s13 -->
<g id="edge110" class="edge">
<title>s2&#45;&gt;s13</title>
<path fill="none" stroke="black" d="M2671.47,-168.54C2699.24,-163.74 2723.32,-157.39 2735,-149.05 2741.15,-144.67 2736.74,-138.29 2743,-134.05 2766.66,-118.03 2824.5,-109.61 2883.23,-105.24"/>
<polygon fill="black" stroke="black" points="2883.7,-108.71 2893.43,-104.52 2883.21,-101.73 2883.7,-108.71"/>
<text text-anchor="middle" x="2792" y="-137.85" font-family="Times,serif" font-size="14.00">get_tokens(p2, [])</text>
</g>
<!-- s3 -->
<g id="node5" class="node">
<title>s3</title>
<ellipse fill="none" stroke="black" cx="3184" cy="-350.37" rx="318.4" ry="16.03"/>
<text text-anchor="middle" x="3184" y="-346.67" font-family="Times,serif" font-size="14.00">(4,(lambda p: Place. [])[p4 &#45;&gt; [4, 4]][p3 &#45;&gt; [3, 3]][p2 &#45;&gt; []][p1 &#45;&gt; []][p0 &#45;&gt; []])</text>
</g>
<!-- s9 -->
<g id="node11" class="node">
<title>s9</title>
<ellipse fill="none" stroke="black" cx="2744" cy="-266.84" rx="339.32" ry="16.03"/>
<text text-anchor="middle" x="2744" y="-263.14" font-family="Times,serif" font-size="14.00">(4,(lambda p: Place. [])[p5 &#45;&gt; [5]][p4 &#45;&gt; [4]][p3 &#45;&gt; [3]][p2 &#45;&gt; []][p1 &#45;&gt; []][p0 &#45;&gt; []])</text>
</g>
<!-- s3&#45;&gt;s9 -->
<g id="edge100" class="edge">
<title>s3&#45;&gt;s9</title>
<path fill="none" stroke="black" d="M3104.32,-334.61C3028.2,-320.5 2913.63,-299.27 2834.2,-284.56"/>
<polygon fill="black" stroke="black" points="2834.67,-281.09 2824.2,-282.7 2833.4,-287.97 2834.67,-281.09"/>
<text text-anchor="middle" x="3040" y="-304.91" font-family="Times,serif" font-size="14.00">fire_trans(t3)</text>
</g>
<!-- s3&#45;&gt;s13 -->
<g id="edge98" class="edge">
<title>s3&#45;&gt;s13</title>
<path fill="none" stroke="black" d="M3266.01,-334.62C3283.98,-329.68 3299.35,-323.51 3305,-316.11 3322.65,-292.95 3323.19,-273.32 3305,-250.58 3282.23,-222.12 3247.77,-261.04 3225,-232.58 3220.84,-227.37 3220.48,-222.48 3225,-217.58 3258.71,-181.04 3414.29,-236.12 3448,-199.58 3457.87,-188.88 3457.87,-144.76 3448,-134.05 3431.29,-115.91 3311.67,-107.66 3206.89,-103.91"/>
<polygon fill="black" stroke="black" points="3206.92,-100.41 3196.8,-103.56 3206.67,-107.41 3206.92,-100.41"/>
<text text-anchor="middle" x="3284.5" y="-221.38" font-family="Times,serif" font-size="14.00">get_tokens(p3, [3, 3])</text>
</g>
<!-- s3&#45;&gt;s13 -->
<g id="edge99" class="edge">
<title>s3&#45;&gt;s13</title>
<path fill="none" stroke="black" d="M3283.1,-334.79C3294.36,-330.12 3305,-324.04 3314,-316.11 3331.67,-300.54 3334.74,-232.45 3353,-217.58 3389.03,-188.24 3426.1,-235.16 3456,-199.58 3474.74,-177.28 3475.07,-155.16 3455,-134.05 3437.59,-115.74 3314.36,-107.51 3207.33,-103.81"/>
<polygon fill="black" stroke="black" points="3207.14,-100.3 3197.03,-103.47 3206.91,-107.3 3207.14,-100.3"/>
<text text-anchor="middle" x="3412.5" y="-221.38" font-family="Times,serif" font-size="14.00">get_tokens(p4, [4, 4])</text>
</g>
<!-- s3&#45;&gt;s13 -->
<g id="edge101" class="edge">
<title>s3&#45;&gt;s13</title>
<path fill="none" stroke="black" d="M3284.26,-334.84C3297.99,-330.21 3311.34,-324.12 3323,-316.11 3352.12,-296.1 3338.31,-269.73 3368,-250.58 3406.32,-225.87 3439.72,-267.54 3469,-232.58 3497.14,-198.98 3496.17,-164.86 3465,-134.05 3446.4,-115.67 3317.77,-107.45 3207.53,-103.77"/>
<polygon fill="black" stroke="black" points="3207.37,-100.26 3197.27,-103.44 3207.15,-107.26 3207.37,-100.26"/>
<text text-anchor="middle" x="3529" y="-221.38" font-family="Times,serif" font-size="14.00">get_tokens(p1, [])</text>
</g>
<!-- s3&#45;&gt;s13 -->
<g id="edge102" class="edge">
<title>s3&#45;&gt;s13</title>
<path fill="none" stroke="black" d="M3292.38,-335.06C3307.36,-330.4 3322.04,-324.24 3335,-316.11 3350.82,-306.19 3350.85,-298.78 3361,-283.11 3369.86,-269.41 3364.45,-259.66 3378,-250.58 3414.71,-226 3546.21,-265.21 3576,-232.58 3580.5,-227.66 3578.82,-223.62 3576,-217.58 3551.47,-165.13 3529.64,-155.88 3476,-134.05 3428.59,-114.77 3309.5,-106.58 3208.34,-103.15"/>
<polygon fill="black" stroke="black" points="3208.4,-99.65 3198.29,-102.82 3208.17,-106.65 3208.4,-99.65"/>
<text text-anchor="middle" x="3628" y="-221.38" font-family="Times,serif" font-size="14.00">get_tokens(p0, [])</text>
</g>
<!-- s3&#45;&gt;s13 -->
<g id="edge103" class="edge">
<title>s3&#45;&gt;s13</title>
<path fill="none" stroke="black" d="M3302.51,-335.24C3318.12,-330.54 3333.4,-324.32 3347,-316.11 3363.22,-306.31 3364.16,-299.3 3374,-283.11 3382.17,-269.66 3375.13,-259.64 3388,-250.58 3441.04,-213.26 3712.9,-272.25 3678,-217.58 3630.54,-143.24 3583.37,-156.2 3498,-134.05 3443.43,-119.9 3308.67,-111.19 3200.06,-106.25"/>
<polygon fill="black" stroke="black" points="3200.11,-102.75 3189.97,-105.8 3199.8,-109.74 3200.11,-102.75"/>
<text text-anchor="middle" x="3731" y="-221.38" font-family="Times,serif" font-size="14.00">get_tokens(p5, [])</text>
</g>
<!-- s3&#45;&gt;s13 -->
<g id="edge104" class="edge">
<title>s3&#45;&gt;s13</title>
<path fill="none" stroke="black" d="M3223.86,-334.12C3266.46,-315.65 3324.18,-282.97 3295,-250.58 3269.28,-222.03 3148.72,-261.13 3123,-232.58 3118.54,-227.63 3118.42,-222.43 3123,-217.58 3171.14,-166.61 3389.86,-250.55 3438,-199.58 3448,-188.99 3447.02,-144.63 3437,-134.05 3420.67,-116.81 3306.58,-108.49 3205.51,-104.48"/>
<polygon fill="black" stroke="black" points="3205.59,-100.98 3195.47,-104.09 3205.32,-107.98 3205.59,-100.98"/>
<text text-anchor="middle" x="3172" y="-221.38" font-family="Times,serif" font-size="14.00">get_tokens(p2, [])</text>
</g>
<!-- s4 -->
<g id="node6" class="node">
<title>s4</title>
<ellipse fill="none" stroke="black" cx="3207" cy="-433.9" rx="313.5" ry="16.03"/>
<text text-anchor="middle" x="3207" y="-430.2" font-family="Times,serif" font-size="14.00">(4,(lambda p: Place. [])[p4 &#45;&gt; [4, 4]][p3 &#45;&gt; [3]][p2 &#45;&gt; []][p1 &#45;&gt; [1]][p0 &#45;&gt; []])</text>
</g>
<!-- s4&#45;&gt;s3 -->
<g id="edge94" class="edge">
<title>s4&#45;&gt;s3</title>
<path fill="none" stroke="black" d="M3202.67,-417.56C3199.4,-405.95 3194.83,-389.75 3191.03,-376.28"/>
<polygon fill="black" stroke="black" points="3194.39,-375.31 3188.31,-366.64 3187.65,-377.21 3194.39,-375.31"/>
<text text-anchor="middle" x="3234" y="-388.43" font-family="Times,serif" font-size="14.00">fire_trans(t1)</text>
</g>
<!-- s5 -->
<g id="node7" class="node">
<title>s5</title>
<ellipse fill="none" stroke="black" cx="2223" cy="-350.37" rx="339.32" ry="16.03"/>
<text text-anchor="middle" x="2223" y="-346.67" font-family="Times,serif" font-size="14.00">(4,(lambda p: Place. [])[p5 &#45;&gt; [5]][p4 &#45;&gt; [4]][p3 &#45;&gt; []][p2 &#45;&gt; []][p1 &#45;&gt; [1]][p0 &#45;&gt; []])</text>
</g>
<!-- s4&#45;&gt;s5 -->
<g id="edge93" class="edge">
<title>s4&#45;&gt;s5</title>
<path fill="none" stroke="black" d="M3036.14,-420.24C2956.2,-414.21 2859.71,-406.76 2773,-399.63 2641.68,-388.84 2492.82,-375.72 2383.1,-365.89"/>
<polygon fill="black" stroke="black" points="2383.22,-362.39 2372.95,-364.98 2382.59,-369.36 2383.22,-362.39"/>
<text text-anchor="middle" x="2809" y="-388.43" font-family="Times,serif" font-size="14.00">fire_trans(t3)</text>
</g>
<!-- s4&#45;&gt;s13 -->
<g id="edge90" class="edge">
<title>s4&#45;&gt;s13</title>
<path fill="none" stroke="black" d="M3340.77,-419.14C3408.69,-409.11 3481.21,-392.61 3502,-366.63 3552.6,-303.41 3423.66,-328.52 3395,-283.11 3387.28,-270.88 3385.02,-261.04 3395,-250.58 3424.64,-219.52 3751.36,-263.64 3781,-232.58 3785.6,-227.76 3784.76,-223.08 3781,-217.58 3746,-166.42 3709.67,-187.06 3651,-167.05 3601.88,-150.31 3590.08,-143.18 3539,-134.05 3430.09,-114.59 3305.84,-106.29 3209.08,-102.84"/>
<polygon fill="black" stroke="black" points="3209.02,-99.34 3198.91,-102.49 3208.78,-106.33 3209.02,-99.34"/>
<text text-anchor="middle" x="3454.5" y="-263.14" font-family="Times,serif" font-size="14.00">get_tokens(p4, [4, 4])</text>
</g>
<!-- s4&#45;&gt;s13 -->
<g id="edge91" class="edge">
<title>s4&#45;&gt;s13</title>
<path fill="none" stroke="black" d="M3381.98,-420.39C3408.92,-415.5 3436.06,-408.8 3461,-399.63 3486.34,-390.32 3498.09,-389.77 3512,-366.63 3525.34,-344.45 3503.53,-268.72 3522,-250.58 3564.11,-209.22 3746.7,-275.71 3787,-232.58 3791.55,-227.71 3790.11,-223.48 3787,-217.58 3768.4,-182.37 3749.43,-183.15 3713,-167.05 3654.92,-141.39 3636.8,-143.41 3574,-134.05 3451.76,-115.84 3312.22,-107.58 3207.01,-103.85"/>
<polygon fill="black" stroke="black" points="3207.05,-100.35 3196.93,-103.5 3206.81,-107.34 3207.05,-100.35"/>
<text text-anchor="middle" x="3574.5" y="-263.14" font-family="Times,serif" font-size="14.00">get_tokens(p3, [3])</text>
</g>
<!-- s4&#45;&gt;s13 -->
<g id="edge92" class="edge">
<title>s4&#45;&gt;s13</title>
<path fill="none" stroke="black" d="M3381.21,-420.35C3424.18,-415.36 3463.49,-408.61 3483,-399.63 3502.72,-390.57 3506.01,-384.02 3519,-366.63 3538.4,-340.67 3525.78,-321.47 3551,-301.11 3577,-280.12 3599.4,-305.72 3624,-283.11 3635.24,-272.78 3623.12,-260.17 3635,-250.58 3690.82,-205.53 3818.53,-284.62 3793,-217.58 3763.19,-139.28 3706.73,-147.29 3624,-134.05 3485.86,-111.95 3327.14,-104.03 3210.7,-101.42"/>
<polygon fill="black" stroke="black" points="3210.7,-97.92 3200.63,-101.2 3210.55,-104.91 3210.7,-97.92"/>
<text text-anchor="middle" x="3684" y="-263.14" font-family="Times,serif" font-size="14.00">get_tokens(p0, [])</text>
</g>
<!-- s4&#45;&gt;s13 -->
<g id="edge95" class="edge">
<title>s4&#45;&gt;s13</title>
<path fill="none" stroke="black" d="M3399.38,-421.04C3441.82,-416.13 3479.85,-409.24 3499,-399.63 3516.99,-390.61 3518.54,-383.18 3530,-366.63 3548.68,-339.66 3536.73,-319.35 3564,-301.11 3625.68,-259.84 3672.13,-329.56 3730,-283.11 3741.9,-273.56 3730.07,-261.23 3741,-250.58 3760.32,-231.74 3782.99,-254.31 3799,-232.58 3802.95,-227.21 3800.41,-224.1 3799,-217.58 3793.77,-193.47 3794.34,-183.56 3776,-167.05 3741.52,-136.03 3722.57,-142.68 3677,-134.05 3590.18,-117.61 3363.17,-108.71 3206.03,-104.36"/>
<polygon fill="black" stroke="black" points="3205.88,-100.85 3195.78,-104.08 3205.69,-107.85 3205.88,-100.85"/>
<text text-anchor="middle" x="3793.5" y="-263.14" font-family="Times,serif" font-size="14.00">get_tokens(p1, [1])</text>
</g>
<!-- s4&#45;&gt;s13 -->
<g id="edge96" class="edge">
<title>s4&#45;&gt;s13</title>
<path fill="none" stroke="black" d="M2977.69,-422.82C2917.18,-417.82 2865.83,-410.44 2856,-399.63 2836.4,-378.09 2837.8,-356.85 2856,-334.11 2920.61,-253.37 3009.74,-356.08 3083,-283.11 3104.17,-262.02 3075.17,-236.85 3098,-217.58 3125.21,-194.61 3393.54,-225.46 3418,-199.58 3427.93,-189.08 3427.07,-178.31 3418,-167.05 3389.88,-132.17 3286.21,-115.65 3195.13,-107.83"/>
<polygon fill="black" stroke="black" points="3195.2,-104.32 3184.95,-106.98 3194.62,-111.3 3195.2,-104.32"/>
<text text-anchor="middle" x="3141" y="-263.14" font-family="Times,serif" font-size="14.00">get_tokens(p5, [])</text>
</g>
<!-- s4&#45;&gt;s13 -->
<g id="edge97" class="edge">
<title>s4&#45;&gt;s13</title>
<path fill="none" stroke="black" d="M3038.63,-420.13C2964.43,-410.66 2888.87,-394.38 2866,-366.63 2856.8,-355.48 2856.61,-345.1 2866,-334.11 2871.9,-327.2 3183.1,-290.01 3189,-283.11 3198.39,-272.12 3197.86,-262.01 3189,-250.58 3169.32,-225.19 3138.68,-257.97 3119,-232.58 3114.91,-227.31 3114.43,-222.43 3119,-217.58 3165.89,-167.86 3379.11,-249.3 3426,-199.58 3435.92,-189.06 3432.67,-179.88 3426,-167.05 3405.17,-126.97 3301.15,-110.7 3206.92,-104.3"/>
<polygon fill="black" stroke="black" points="3206.86,-100.79 3196.66,-103.64 3206.41,-107.77 3206.86,-100.79"/>
<text text-anchor="middle" x="3245" y="-263.14" font-family="Times,serif" font-size="14.00">get_tokens(p2, [])</text>
</g>
<!-- s5&#45;&gt;s9 -->
<g id="edge65" class="edge">
<title>s5&#45;&gt;s9</title>
<path fill="none" stroke="black" d="M2398.33,-336.41C2436.58,-331.52 2470.76,-324.92 2488,-316.11 2496.12,-311.96 2493.9,-305.3 2502,-301.11 2516.67,-293.5 2544.84,-287.44 2576.93,-282.7"/>
<polygon fill="black" stroke="black" points="2577.59,-286.14 2587,-281.27 2576.61,-279.21 2577.59,-286.14"/>
<text text-anchor="middle" x="2538" y="-304.91" font-family="Times,serif" font-size="14.00">fire_trans(t1)</text>
</g>
<!-- s5&#45;&gt;s13 -->
<g id="edge62" class="edge">
<title>s5&#45;&gt;s13</title>
<path fill="none" stroke="black" d="M2152.77,-334.46C2138.67,-329.8 2124.39,-323.8 2112,-316.11 2104.25,-311.3 2104.35,-307.65 2098,-301.11 2075.78,-278.21 2075.64,-264.65 2047,-250.58 1991.56,-223.35 1885.04,-273.15 1912,-217.58 1938.18,-163.62 1961.65,-154.61 2018,-134.05 2096.18,-105.53 2606.48,-100.92 2876.7,-100.51"/>
<polygon fill="black" stroke="black" points="2877.01,-104.01 2887,-100.5 2877,-97.01 2877.01,-104.01"/>
<text text-anchor="middle" x="1964.5" y="-221.38" font-family="Times,serif" font-size="14.00">get_tokens(p5, [5])</text>
</g>
<!-- s5&#45;&gt;s13 -->
<g id="edge63" class="edge">
<title>s5&#45;&gt;s13</title>
<path fill="none" stroke="black" d="M2162.04,-334.33C2149.19,-329.65 2136.16,-323.67 2125,-316.11 2109.14,-305.36 2084.48,-261.87 2069,-250.58 2052.26,-238.37 2037.48,-249.83 2026,-232.58 2018.65,-221.54 1990.19,-172.74 2029,-134.05 2058.46,-104.69 2596.14,-100.54 2876.68,-100.39"/>
<polygon fill="black" stroke="black" points="2876.96,-103.89 2886.96,-100.39 2876.96,-96.89 2876.96,-103.89"/>
<text text-anchor="middle" x="2075" y="-221.38" font-family="Times,serif" font-size="14.00">get_tokens(p0, [])</text>
</g>
<!-- s5&#45;&gt;s13 -->
<g id="edge64" class="edge">
<title>s5&#45;&gt;s13</title>
<path fill="none" stroke="black" d="M2211.11,-333.87C2184.54,-299.24 2122.53,-218.56 2121,-217.58 2090.25,-198.01 2064.05,-227.81 2041,-199.58 2022.58,-177.02 2019.75,-154.99 2040,-134.05 2068.55,-104.54 2598.63,-100.45 2876.74,-100.35"/>
<polygon fill="black" stroke="black" points="2876.94,-103.85 2886.94,-100.35 2876.94,-96.85 2876.94,-103.85"/>
<text text-anchor="middle" x="2185.5" y="-221.38" font-family="Times,serif" font-size="14.00">get_tokens(p4, [4])</text>
</g>
<!-- s5&#45;&gt;s13 -->
<g id="edge66" class="edge">
<title>s5&#45;&gt;s13</title>
<path fill="none" stroke="black" d="M2230.83,-334.06C2243.51,-306.85 2264.33,-249.92 2235,-217.58 2207.4,-187.15 2078.6,-230.01 2051,-199.58 2041.22,-188.79 2040.88,-144.52 2051,-134.05 2079.18,-104.92 2601.44,-100.64 2876.95,-100.42"/>
<polygon fill="black" stroke="black" points="2877.05,-103.92 2887.05,-100.41 2877.05,-96.92 2877.05,-103.92"/>
<text text-anchor="middle" x="2297.5" y="-221.38" font-family="Times,serif" font-size="14.00">get_tokens(p1, [1])</text>
</g>
<!-- s5&#45;&gt;s13 -->
<g id="edge67" class="edge">
<title>s5&#45;&gt;s13</title>
<path fill="none" stroke="black" d="M2256.76,-334.03C2306.34,-309.54 2388.88,-260.03 2349,-217.58 2305.09,-170.84 2104.91,-246.32 2061,-199.58 2051.03,-188.97 2051.72,-144.37 2062,-134.05 2090.23,-105.72 2604.2,-101.05 2877.01,-100.58"/>
<polygon fill="black" stroke="black" points="2877.02,-104.08 2887.01,-100.56 2877.01,-97.08 2877.02,-104.08"/>
<text text-anchor="middle" x="2407" y="-221.38" font-family="Times,serif" font-size="14.00">get_tokens(p3, [])</text>
</g>
<!-- s5&#45;&gt;s13 -->
<g id="edge68" class="edge">
<title>s5&#45;&gt;s13</title>
<path fill="none" stroke="black" d="M2143.25,-334.48C2128.59,-329.87 2113.88,-323.88 2101,-316.11 2093.19,-311.4 2094.38,-306.47 2087,-301.11 2084.32,-299.16 1982.19,-251.47 1979,-250.58 1942.4,-240.39 1834.41,-260.82 1809,-232.58 1804.54,-227.62 1805.48,-223.24 1809,-217.58 1853.51,-146.12 1897.31,-154.39 1979,-134.05 2063.56,-113.01 2600.58,-104.92 2878.22,-102.12"/>
<polygon fill="black" stroke="black" points="2878.42,-105.62 2888.39,-102.02 2878.35,-98.62 2878.42,-105.62"/>
<text text-anchor="middle" x="1858" y="-221.38" font-family="Times,serif" font-size="14.00">get_tokens(p2, [])</text>
</g>
<!-- s6 -->
<g id="node8" class="node">
<title>s6</title>
<ellipse fill="none" stroke="black" cx="1254" cy="-517.42" rx="334.42" ry="16.03"/>
<text text-anchor="middle" x="1254" y="-513.72" font-family="Times,serif" font-size="14.00">(4,(lambda p: Place. [])[p5 &#45;&gt; [5]][p4 &#45;&gt; []][p3 &#45;&gt; []][p2 &#45;&gt; []][p1 &#45;&gt; []][p0 &#45;&gt; [0]])</text>
</g>
<!-- s6&#45;&gt;s13 -->
<g id="edge77" class="edge">
<title>s6&#45;&gt;s13</title>
<path fill="none" stroke="black" d="M1253.7,-501.1C1253.41,-484.71 1253,-457.97 1253,-434.9 1253,-434.9 1253,-434.9 1253,-182.32 1253,-160.1 1248.49,-147.73 1266,-134.05 1297.48,-109.46 2441.18,-102.89 2877.34,-101.28"/>
<polygon fill="black" stroke="black" points="2877.52,-104.78 2887.51,-101.24 2877.5,-97.78 2877.52,-104.78"/>
<text text-anchor="middle" x="1305.5" y="-304.91" font-family="Times,serif" font-size="14.00">get_tokens(p5, [5])</text>
</g>
<!-- s6&#45;&gt;s13 -->
<g id="edge78" class="edge">
<title>s6&#45;&gt;s13</title>
<path fill="none" stroke="black" d="M1255.16,-501.13C1257.09,-481.21 1262.02,-445.63 1274,-417.63 1281.03,-401.2 1285.87,-398.62 1297,-384.63 1322.57,-352.49 1344.24,-354.43 1359,-316.11 1361.4,-309.89 1363.14,-306.33 1359,-301.11 1337.16,-273.57 1303.84,-310.64 1282,-283.11 1238.31,-228.02 1269.38,-159.3 1335,-134.05 1406.04,-106.72 2461.32,-101.83 2877.26,-100.97"/>
<polygon fill="black" stroke="black" points="2877.28,-104.47 2887.27,-100.95 2877.26,-97.47 2877.28,-104.47"/>
<text text-anchor="middle" x="1411" y="-304.91" font-family="Times,serif" font-size="14.00">get_tokens(p1, [])</text>
</g>
<!-- s6&#45;&gt;s13 -->
<g id="edge79" class="edge">
<title>s6&#45;&gt;s13</title>
<path fill="none" stroke="black" d="M1072.74,-503.73C1050.51,-498.89 1032.59,-492.25 1024,-483.16 1001.16,-458.99 1034.42,-357.71 1011,-334.11 981.29,-304.16 850.38,-347.32 822,-316.11 817.51,-311.18 820.14,-307.51 822,-301.11 846.53,-216.67 851.28,-177.02 928,-134.05 970.34,-110.34 2385.12,-103.11 2877.26,-101.31"/>
<polygon fill="black" stroke="black" points="2877.31,-104.81 2887.29,-101.27 2877.28,-97.81 2877.31,-104.81"/>
<text text-anchor="middle" x="874.5" y="-304.91" font-family="Times,serif" font-size="14.00">get_tokens(p0, [0])</text>
</g>
<!-- s6&#45;&gt;s13 -->
<g id="edge80" class="edge">
<title>s6&#45;&gt;s13</title>
<path fill="none" stroke="black" d="M1083.53,-503.41C1061.41,-498.62 1043.48,-492.08 1035,-483.16 1012.06,-459.04 1042.2,-358.91 1020,-334.11 994.54,-305.66 960,-345.8 936,-316.11 931.81,-310.92 934.24,-307.54 936,-301.11 958.81,-217.87 960.37,-177.4 1035,-134.05 1074.61,-111.05 2402.71,-103.4 2877.41,-101.4"/>
<polygon fill="black" stroke="black" points="2877.45,-104.9 2887.43,-101.35 2877.42,-97.9 2877.45,-104.9"/>
<text text-anchor="middle" x="985" y="-304.91" font-family="Times,serif" font-size="14.00">get_tokens(p4, [])</text>
</g>
<!-- s6&#45;&gt;s13 -->
<g id="edge81" class="edge">
<title>s6&#45;&gt;s13</title>
<path fill="none" stroke="black" d="M1174.55,-501.6C1113.31,-487.83 1039,-464.94 1039,-434.9 1039,-434.9 1039,-434.9 1039,-182.32 1039,-131.76 1092.75,-145.47 1142,-134.05 1225.69,-114.65 2430.15,-104.81 2877.95,-101.81"/>
<polygon fill="black" stroke="black" points="2878.08,-105.31 2888.06,-101.74 2878.03,-98.31 2878.08,-105.31"/>
<text text-anchor="middle" x="1088" y="-304.91" font-family="Times,serif" font-size="14.00">get_tokens(p3, [])</text>
</g>
<!-- s6&#45;&gt;s13 -->
<g id="edge82" class="edge">
<title>s6&#45;&gt;s13</title>
<path fill="none" stroke="black" d="M1206.63,-501.23C1177.61,-488.63 1146,-467.44 1146,-434.9 1146,-434.9 1146,-434.9 1146,-182.32 1146,-129.74 1202.69,-145.5 1254,-134.05 1332.31,-116.59 2449.09,-105.66 2877.95,-102.08"/>
<polygon fill="black" stroke="black" points="2878.3,-105.58 2888.27,-102 2878.24,-98.58 2878.3,-105.58"/>
<text text-anchor="middle" x="1195" y="-304.91" font-family="Times,serif" font-size="14.00">get_tokens(p2, [])</text>
</g>
<!-- s16 -->
<g id="node17" class="node">
<title>s16</title>
<ellipse fill="none" stroke="black" cx="1620" cy="-433.9" rx="339.32" ry="16.03"/>
<text text-anchor="middle" x="1620" y="-430.2" font-family="Times,serif" font-size="14.00">(4,(lambda p: Place. [])[p5 &#45;&gt; [5]][p4 &#45;&gt; []][p3 &#45;&gt; []][p2 &#45;&gt; [2]][p1 &#45;&gt; [1]][p0 &#45;&gt; []])</text>
</g>
<!-- s6&#45;&gt;s16 -->
<g id="edge76" class="edge">
<title>s6&#45;&gt;s16</title>
<path fill="none" stroke="black" d="M1321.13,-501.47C1383.75,-487.52 1477.11,-466.73 1542.79,-452.1"/>
<polygon fill="black" stroke="black" points="1543.68,-455.48 1552.68,-449.89 1542.16,-448.65 1543.68,-455.48"/>
<text text-anchor="middle" x="1506" y="-471.96" font-family="Times,serif" font-size="14.00">fire_trans(t0)</text>
</g>
<!-- s7 -->
<g id="node9" class="node">
<title>s7</title>
<ellipse fill="none" stroke="black" cx="976" cy="-600.95" rx="302.78" ry="16.03"/>
<text text-anchor="middle" x="976" y="-597.25" font-family="Times,serif" font-size="14.00">(4,(lambda p: Place. [])[p4 &#45;&gt; [4]][p3 &#45;&gt; [3]][p2 &#45;&gt; []][p1 &#45;&gt; []][p0 &#45;&gt; [0]])</text>
</g>
<!-- s7&#45;&gt;s6 -->
<g id="edge49" class="edge">
<title>s7&#45;&gt;s6</title>
<path fill="none" stroke="black" d="M1027.31,-584.9C1074.09,-571.19 1143.25,-550.9 1192.86,-536.35"/>
<polygon fill="black" stroke="black" points="1193.9,-539.7 1202.52,-533.52 1191.93,-532.98 1193.9,-539.7"/>
<text text-anchor="middle" x="1176" y="-555.49" font-family="Times,serif" font-size="14.00">fire_trans(t3)</text>
</g>
<!-- s10 -->
<g id="node12" class="node">
<title>s10</title>
<ellipse fill="none" stroke="black" cx="1976" cy="-517.42" rx="307.68" ry="16.03"/>
<text text-anchor="middle" x="1976" y="-513.72" font-family="Times,serif" font-size="14.00">(4,(lambda p: Place. [])[p4 &#45;&gt; [4]][p3 &#45;&gt; [3]][p2 &#45;&gt; [2]][p1 &#45;&gt; [1]][p0 &#45;&gt; []])</text>
</g>
<!-- s7&#45;&gt;s10 -->
<g id="edge48" class="edge">
<title>s7&#45;&gt;s10</title>
<path fill="none" stroke="black" d="M1134.18,-587.06C1317.67,-572.1 1618.98,-547.53 1806.98,-532.2"/>
<polygon fill="black" stroke="black" points="1807.27,-535.69 1816.96,-531.39 1806.7,-528.72 1807.27,-535.69"/>
<text text-anchor="middle" x="1602" y="-555.49" font-family="Times,serif" font-size="14.00">fire_trans(t0)</text>
</g>
<!-- s7&#45;&gt;s13 -->
<g id="edge47" class="edge">
<title>s7&#45;&gt;s13</title>
<path fill="none" stroke="black" d="M1188.37,-589.34C1318.46,-582.83 1488.36,-574.31 1639,-566.69 1926.56,-552.14 1998.58,-550.73 2286,-533.69 2560.81,-517.4 3309.44,-625.1 3522,-450.16 3563.22,-416.23 3530.51,-382.53 3553,-334.11 3556.77,-326 3568.22,-305.51 3576,-301.11 3627.76,-271.83 3802.39,-326.55 3843,-283.11 3878.63,-245 3819.94,-193.18 3790,-167.05 3763.48,-143.91 3752.2,-142.41 3718,-134.05 3625.36,-111.43 3377.97,-104.13 3210.12,-101.81"/>
<polygon fill="black" stroke="black" points="3209.98,-98.31 3199.93,-101.67 3209.89,-105.31 3209.98,-98.31"/>
<text text-anchor="middle" x="3605.5" y="-346.67" font-family="Times,serif" font-size="14.00">get_tokens(p3, [3])</text>
</g>
<!-- s7&#45;&gt;s13 -->
<g id="edge50" class="edge">
<title>s7&#45;&gt;s13</title>
<path fill="none" stroke="black" d="M1263.83,-595.9C1536.63,-591.33 1957.83,-582.41 2323,-566.69 2561.9,-556.4 2621.48,-550.63 2860,-533.69 3138.87,-513.89 3222.69,-574.25 3487,-483.16 3526.18,-469.66 3638.31,-398.89 3655,-366.63 3661.64,-353.79 3663.71,-345.65 3655,-334.11 3637.46,-310.86 3609.54,-339.36 3592,-316.11 3587.99,-310.79 3587.45,-305.98 3592,-301.11 3631.67,-258.61 3813.33,-325.61 3853,-283.11 3862.86,-272.54 3854.09,-265 3853,-250.58 3849.88,-209.15 3842.67,-193.96 3811,-167.05 3786.31,-146.08 3777.32,-142.34 3746,-134.05 3648.88,-108.37 3386.22,-101.96 3211.18,-100.66"/>
<polygon fill="black" stroke="black" points="3211.12,-97.16 3201.09,-100.59 3211.07,-104.16 3211.12,-97.16"/>
<text text-anchor="middle" x="3710" y="-346.67" font-family="Times,serif" font-size="14.00">get_tokens(p1, [])</text>
</g>
<!-- s7&#45;&gt;s13 -->
<g id="edge51" class="edge">
<title>s7&#45;&gt;s13</title>
<path fill="none" stroke="black" d="M827.14,-586.78C805.1,-582.01 787.07,-575.52 779,-566.69 751.64,-536.73 793.37,-413.65 765,-384.63 736.74,-355.73 611.91,-395.87 584,-366.63 566.48,-348.28 581,-334.99 581,-309.61 581,-309.61 581,-309.61 581,-182.32 581,-129.34 638.24,-145.38 690,-134.05 796.38,-110.77 2357.5,-103.2 2877.15,-101.32"/>
<polygon fill="black" stroke="black" points="2877.37,-104.82 2887.36,-101.28 2877.34,-97.82 2877.37,-104.82"/>
<text text-anchor="middle" x="636.5" y="-346.67" font-family="Times,serif" font-size="14.00">get_tokens(p4, [4])</text>
</g>
<!-- s7&#45;&gt;s13 -->
<g id="edge52" class="edge">
<title>s7&#45;&gt;s13</title>
<path fill="none" stroke="black" d="M851.71,-586.09C829.65,-581.33 811.11,-575.02 803,-566.69 745.79,-507.94 828.94,-444.59 773,-384.63 749.32,-359.25 719.24,-393.29 697,-366.63 680.74,-347.15 694,-334.99 694,-309.61 694,-309.61 694,-309.61 694,-182.32 694,-134.16 744.21,-145.42 791,-134.05 891.82,-109.57 2373.01,-102.82 2877.31,-101.23"/>
<polygon fill="black" stroke="black" points="2877.6,-104.73 2887.59,-101.2 2877.58,-97.73 2877.6,-104.73"/>
<text text-anchor="middle" x="749.5" y="-346.67" font-family="Times,serif" font-size="14.00">get_tokens(p0, [0])</text>
</g>
<!-- s7&#45;&gt;s13 -->
<g id="edge53" class="edge">
<title>s7&#45;&gt;s13</title>
<path fill="none" stroke="black" d="M873.79,-585.61C838.2,-574.35 807,-554.26 807,-518.42 807,-518.42 807,-518.42 807,-391.13 807,-276.85 721.79,-215.46 802,-134.05 820.19,-115.59 2361.44,-104.82 2877.65,-101.72"/>
<polygon fill="black" stroke="black" points="2877.81,-105.22 2887.79,-101.66 2877.77,-98.22 2877.81,-105.22"/>
<text text-anchor="middle" x="855" y="-346.67" font-family="Times,serif" font-size="14.00">get_tokens(p5, [])</text>
</g>
<!-- s7&#45;&gt;s13 -->
<g id="edge54" class="edge">
<title>s7&#45;&gt;s13</title>
<path fill="none" stroke="black" d="M953.97,-584.56C935.8,-569.88 913,-545.97 913,-518.42 913,-518.42 913,-518.42 913,-391.13 913,-384.74 909.37,-338.78 905,-334.11 878.33,-305.59 843.62,-346.42 819,-316.11 762.7,-246.8 819.06,-161.62 904,-134.05 997.16,-103.82 2388.85,-100.82 2876.62,-100.71"/>
<polygon fill="black" stroke="black" points="2876.92,-104.21 2886.92,-100.71 2876.92,-97.21 2876.92,-104.21"/>
<text text-anchor="middle" x="961" y="-346.67" font-family="Times,serif" font-size="14.00">get_tokens(p2, [])</text>
</g>
<!-- s8 -->
<g id="node10" class="node">
<title>s8</title>
<ellipse fill="none" stroke="black" cx="3827" cy="-517.42" rx="281.36" ry="16.03"/>
<text text-anchor="middle" x="3827" y="-513.72" font-family="Times,serif" font-size="14.00">(4,(lambda p: Place. [])[p4 &#45;&gt; [4, 4]][p2 &#45;&gt; []][p1 &#45;&gt; [1, 1]][p0 &#45;&gt; []])</text>
</g>
<!-- s8&#45;&gt;s4 -->
<g id="edge86" class="edge">
<title>s8&#45;&gt;s4</title>
<path fill="none" stroke="black" d="M3720.07,-502.36C3610.19,-487.92 3439.55,-465.48 3325.6,-450.49"/>
<polygon fill="black" stroke="black" points="3325.81,-446.99 3315.44,-449.16 3324.9,-453.93 3325.81,-446.99"/>
<text text-anchor="middle" x="3609" y="-471.96" font-family="Times,serif" font-size="14.00">fire_trans(t1)</text>
</g>
<!-- s8&#45;&gt;s13 -->
<g id="edge83" class="edge">
<title>s8&#45;&gt;s13</title>
<path fill="none" stroke="black" d="M3924.6,-502.06C3933.87,-497.31 3942.29,-491.14 3949,-483.16 3970.41,-457.7 3939.57,-357.72 3963,-334.11 3990.85,-306.04 4113.5,-345.44 4140,-316.11 4153.69,-300.95 4187.92,-220.4 4045,-134.05 4009.97,-112.89 3484.91,-104.86 3209.65,-102.1"/>
<polygon fill="black" stroke="black" points="3209.59,-98.6 3199.56,-102 3209.52,-105.6 3209.59,-98.6"/>
<text text-anchor="middle" x="4208.5" y="-304.91" font-family="Times,serif" font-size="14.00">get_tokens(p4, [4, 4])</text>
</g>
<!-- s8&#45;&gt;s13 -->
<g id="edge84" class="edge">
<title>s8&#45;&gt;s13</title>
<path fill="none" stroke="black" d="M3793.39,-501.26C3786.22,-496.47 3779.46,-490.48 3775,-483.16 3757.68,-454.76 3784.35,-357.81 3761,-334.11 3735.12,-307.83 3620.63,-343.57 3596,-316.11 3591.55,-311.14 3591.45,-305.98 3596,-301.11 3636.61,-257.67 3822.39,-326.55 3863,-283.11 3868.73,-276.98 3882.16,-154.87 3862,-134.05 3839.71,-111.04 3442.98,-103.94 3210.36,-101.76"/>
<polygon fill="black" stroke="black" points="3210.12,-98.26 3200.09,-101.66 3210.06,-105.26 3210.12,-98.26"/>
<text text-anchor="middle" x="3645" y="-304.91" font-family="Times,serif" font-size="14.00">get_tokens(p0, [])</text>
</g>
<!-- s8&#45;&gt;s13 -->
<g id="edge85" class="edge">
<title>s8&#45;&gt;s13</title>
<path fill="none" stroke="black" d="M3824.15,-500.98C3816.53,-461.4 3794.64,-357.77 3770,-334.11 3747.76,-312.75 3721.76,-340.58 3703,-316.11 3698.94,-310.82 3698.54,-306.07 3703,-301.11 3728.1,-273.18 3845.36,-310.53 3871,-283.11 3882.31,-271.01 3882,-145.47 3870,-134.05 3846.51,-111.72 3444.69,-104.34 3210.3,-101.93"/>
<polygon fill="black" stroke="black" points="3209.99,-98.43 3199.96,-101.83 3209.92,-105.43 3209.99,-98.43"/>
<text text-anchor="middle" x="3762.5" y="-304.91" font-family="Times,serif" font-size="14.00">get_tokens(p1, [1, 1])</text>
</g>
<!-- s8&#45;&gt;s13 -->
<g id="edge87" class="edge">
<title>s8&#45;&gt;s13</title>
<path fill="none" stroke="black" d="M3825.11,-500.86C3820.11,-456.93 3808.39,-333.09 3831,-301.11 3844.15,-282.5 3865.11,-301.17 3879,-283.11 3919.38,-230.58 3927.01,-177.51 3877,-134.05 3852.26,-112.56 3445.44,-104.83 3209.66,-102.15"/>
<polygon fill="black" stroke="black" points="3209.64,-98.64 3199.6,-102.03 3209.56,-105.64 3209.64,-98.64"/>
<text text-anchor="middle" x="3880" y="-304.91" font-family="Times,serif" font-size="14.00">get_tokens(p5, [])</text>
</g>
<!-- s8&#45;&gt;s13 -->
<g id="edge88" class="edge">
<title>s8&#45;&gt;s13</title>
<path fill="none" stroke="black" d="M3873.31,-501.38C3902.23,-488.76 3934,-467.48 3934,-434.9 3934,-434.9 3934,-434.9 3934,-182.32 3934,-152.99 3915.66,-146.28 3889,-134.05 3829.29,-106.68 3440.1,-101.32 3211.28,-100.58"/>
<polygon fill="black" stroke="black" points="3211.19,-97.08 3201.18,-100.55 3211.17,-104.08 3211.19,-97.08"/>
<text text-anchor="middle" x="3983" y="-304.91" font-family="Times,serif" font-size="14.00">get_tokens(p3, [])</text>
</g>
<!-- s8&#45;&gt;s13 -->
<g id="edge89" class="edge">
<title>s8&#45;&gt;s13</title>
<path fill="none" stroke="black" d="M3887.7,-501.36C3898.88,-496.75 3909.89,-490.8 3919,-483.16 3931.97,-472.29 3932.59,-466.2 3938,-450.16 3946.31,-425.52 3935.48,-353.33 3953,-334.11 3977.55,-307.17 4010.23,-344.57 4033,-316.11 4063.66,-277.79 3952.49,-154.77 3908,-134.05 3846.78,-105.55 3444.72,-100.68 3211.24,-100.31"/>
<polygon fill="black" stroke="black" points="3210.94,-96.81 3200.94,-100.29 3210.93,-103.81 3210.94,-96.81"/>
<text text-anchor="middle" x="4088" y="-304.91" font-family="Times,serif" font-size="14.00">get_tokens(p2, [])</text>
</g>
<!-- s9&#45;&gt;s2 -->
<g id="edge71" class="edge">
<title>s9&#45;&gt;s2</title>
<path fill="none" stroke="black" d="M2703.44,-250.61C2667.59,-237.14 2615.18,-217.45 2576.8,-203.03"/>
<polygon fill="black" stroke="black" points="2577.95,-199.72 2567.36,-199.48 2575.49,-206.27 2577.95,-199.72"/>
<text text-anchor="middle" x="2691" y="-221.38" font-family="Times,serif" font-size="14.00">fire_trans(t3)</text>
</g>
<!-- s9&#45;&gt;s13 -->
<g id="edge69" class="edge">
<title>s9&#45;&gt;s13</title>
<path fill="none" stroke="black" d="M2790.17,-250.63C2815.98,-239.99 2846.89,-223.39 2867,-199.58 2876.85,-187.92 2866.52,-177.1 2878,-167.05 2909.35,-139.61 2933.57,-169.27 2970,-149.05 2977.97,-144.63 2976.81,-139.67 2984,-134.05 2990,-129.37 2996.75,-124.95 3003.49,-120.95"/>
<polygon fill="black" stroke="black" points="3005.64,-123.76 3012.62,-115.78 3002.19,-117.66 3005.64,-123.76"/>
<text text-anchor="middle" x="2930.5" y="-179.62" font-family="Times,serif" font-size="14.00">get_tokens(p3, [3])</text>
</g>
<!-- s9&#45;&gt;s13 -->
<g id="edge70" class="edge">
<title>s9&#45;&gt;s13</title>
<path fill="none" stroke="black" d="M2877.34,-251.81C2914.38,-242.14 2952.06,-226.09 2980,-199.58 2991.07,-189.08 2983.68,-180.44 2991,-167.05 2999.58,-151.36 3011.94,-135.65 3022.57,-123.47"/>
<polygon fill="black" stroke="black" points="3025.19,-125.79 3029.25,-116.01 3019.97,-121.12 3025.19,-125.79"/>
<text text-anchor="middle" x="3043.5" y="-179.62" font-family="Times,serif" font-size="14.00">get_tokens(p5, [5])</text>
</g>
<!-- s9&#45;&gt;s13 -->
<g id="edge72" class="edge">
<title>s9&#45;&gt;s13</title>
<path fill="none" stroke="black" d="M2859.02,-251.51C2954.91,-238.36 3078.2,-218.15 3093,-199.58 3111.7,-176.11 3089.13,-144.34 3068.82,-123.24"/>
<polygon fill="black" stroke="black" points="3071.08,-120.55 3061.52,-115.98 3066.14,-125.51 3071.08,-120.55"/>
<text text-anchor="middle" x="3149" y="-179.62" font-family="Times,serif" font-size="14.00">get_tokens(p1, [])</text>
</g>
<!-- s9&#45;&gt;s13 -->
<g id="edge73" class="edge">
<title>s9&#45;&gt;s13</title>
<path fill="none" stroke="black" d="M2888.73,-252.1C2930.91,-247.08 2976.96,-240.62 3019,-232.58 3044.73,-227.66 3050.33,-222.82 3076,-217.58 3103.07,-212.06 3180.94,-220.48 3199,-199.58 3231.09,-162.46 3168.71,-134.29 3113.77,-117.71"/>
<polygon fill="black" stroke="black" points="3114.55,-114.29 3103.97,-114.85 3112.59,-121.01 3114.55,-114.29"/>
<text text-anchor="middle" x="3257" y="-179.62" font-family="Times,serif" font-size="14.00">get_tokens(p0, [])</text>
</g>
<!-- s9&#45;&gt;s13 -->
<g id="edge74" class="edge">
<title>s9&#45;&gt;s13</title>
<path fill="none" stroke="black" d="M2939.88,-253.53C2977.46,-248.69 3016.23,-241.95 3052,-232.58 3068.37,-228.29 3070.58,-221.66 3087,-217.58 3110.59,-211.72 3288.54,-217.46 3305,-199.58 3314.79,-188.95 3313.85,-178.48 3305,-167.05 3285.6,-142.02 3213.61,-124.92 3150.15,-114.37"/>
<polygon fill="black" stroke="black" points="3150.47,-110.88 3140.04,-112.74 3149.35,-117.79 3150.47,-110.88"/>
<text text-anchor="middle" x="3364.5" y="-179.62" font-family="Times,serif" font-size="14.00">get_tokens(p4, [4])</text>
</g>
<!-- s9&#45;&gt;s13 -->
<g id="edge75" class="edge">
<title>s9&#45;&gt;s13</title>
<path fill="none" stroke="black" d="M2675.76,-250.87C2622.24,-239.75 2545.74,-225.25 2478,-217.58 2456.39,-215.13 2102.02,-215.31 2087,-199.58 2077.02,-189.13 2077.54,-177.98 2087,-167.05 2137.47,-108.75 2615.84,-100.13 2876.53,-99.81"/>
<polygon fill="black" stroke="black" points="2876.86,-103.31 2886.86,-99.81 2876.86,-96.31 2876.86,-103.31"/>
<text text-anchor="middle" x="2136" y="-179.62" font-family="Times,serif" font-size="14.00">get_tokens(p2, [])</text>
</g>
<!-- s10&#45;&gt;s4 -->
<g id="edge45" class="edge">
<title>s10&#45;&gt;s4</title>
<path fill="none" stroke="black" d="M2191.33,-505.8C2307.4,-499.78 2453.07,-491.74 2583,-483.16 2738.04,-472.92 2914.58,-459.06 3040.22,-448.82"/>
<polygon fill="black" stroke="black" points="3040.64,-452.3 3050.32,-448 3040.07,-445.32 3040.64,-452.3"/>
<text text-anchor="middle" x="2826" y="-471.96" font-family="Times,serif" font-size="14.00">fire_trans(t2)</text>
</g>
<!-- s10&#45;&gt;s13 -->
<g id="edge39" class="edge">
<title>s10&#45;&gt;s13</title>
<path fill="none" stroke="black" d="M2245.36,-509.54C2397.64,-504.28 2560.08,-495.76 2572,-483.16 2599.8,-453.77 2598.47,-330.8 2571,-301.11 2545.8,-273.87 2429.78,-310.72 2405,-283.11 2395.34,-272.35 2396.32,-262.14 2405,-250.58 2422.23,-227.64 2449.77,-255.52 2467,-232.58 2471,-227.25 2471.6,-222.4 2467,-217.58 2437.36,-186.52 2110.64,-230.64 2081,-199.58 2071.02,-189.12 2074.68,-180.06 2081,-167.05 2091.38,-145.7 2100.71,-142.22 2123,-134.05 2191.58,-108.94 2630.88,-102.73 2877.17,-101.23"/>
<polygon fill="black" stroke="black" points="2877.32,-104.73 2887.3,-101.17 2877.28,-97.73 2877.32,-104.73"/>
<text text-anchor="middle" x="2632.5" y="-304.91" font-family="Times,serif" font-size="14.00">get_tokens(p3, [3])</text>
</g>
<!-- s10&#45;&gt;s13 -->
<g id="edge41" class="edge">
<title>s10&#45;&gt;s13</title>
<path fill="none" stroke="black" d="M1786.33,-504.6C1586.42,-491.21 1297.96,-468.81 1281,-450.16 1271.27,-439.47 1273.64,-430.08 1281,-417.63 1328.77,-336.92 1418.23,-396.82 1466,-316.11 1469.4,-310.37 1470.47,-306.05 1466,-301.11 1439.34,-271.61 1314.66,-312.6 1288,-283.11 1270.21,-263.43 1298.27,-186.79 1316,-167.05 1335.82,-144.99 1345.41,-141.92 1374,-134.05 1445.53,-114.37 2470.05,-104.9 2878.08,-101.89"/>
<polygon fill="black" stroke="black" points="2878.23,-105.39 2888.2,-101.82 2878.17,-98.39 2878.23,-105.39"/>
<text text-anchor="middle" x="1518" y="-304.91" font-family="Times,serif" font-size="14.00">get_tokens(p0, [])</text>
</g>
<!-- s10&#45;&gt;s13 -->
<g id="edge42" class="edge">
<title>s10&#45;&gt;s13</title>
<path fill="none" stroke="black" d="M1973.83,-501.13C1969.93,-474.14 1961.89,-420.62 1959,-417.63 1930.88,-388.69 1906.88,-416.02 1870,-399.63 1812.93,-374.28 1785.12,-371.87 1757,-316.11 1754,-310.16 1752.52,-306.05 1757,-301.11 1784.6,-270.68 1913.4,-313.54 1941,-283.11 1950.71,-272.4 1950.66,-261.34 1941,-250.58 1916.06,-222.81 1798.94,-260.35 1774,-232.58 1744.74,-200 1743.44,-165.42 1774,-134.05 1793,-114.55 2538.59,-105.34 2878.35,-102.15"/>
<polygon fill="black" stroke="black" points="2878.56,-105.65 2888.53,-102.06 2878.49,-98.65 2878.56,-105.65"/>
<text text-anchor="middle" x="1809.5" y="-304.91" font-family="Times,serif" font-size="14.00">get_tokens(p4, [4])</text>
</g>
<!-- s10&#45;&gt;s13 -->
<g id="edge43" class="edge">
<title>s10&#45;&gt;s13</title>
<path fill="none" stroke="black" d="M1979.68,-500.88C1983.78,-479.35 1987.39,-440.53 1967,-417.63 1941.03,-388.47 1908.65,-427.21 1881,-399.63 1870.38,-389.05 1876.01,-381.49 1874,-366.63 1870.1,-337.74 1852.85,-323.92 1871,-301.11 1893.15,-273.27 1926.85,-310.95 1949,-283.11 1958,-271.79 1958.65,-261.35 1949,-250.58 1924.53,-223.28 1809.47,-259.88 1785,-232.58 1755.77,-199.97 1754.45,-165.42 1785,-134.05 1803.8,-114.75 2540.66,-105.45 2878.19,-102.19"/>
<polygon fill="black" stroke="black" points="2878.34,-105.69 2888.31,-102.1 2878.28,-98.69 2878.34,-105.69"/>
<text text-anchor="middle" x="1923.5" y="-304.91" font-family="Times,serif" font-size="14.00">get_tokens(p1, [1])</text>
</g>
<!-- s10&#45;&gt;s13 -->
<g id="edge44" class="edge">
<title>s10&#45;&gt;s13</title>
<path fill="none" stroke="black" d="M1980.63,-501.12C1988.13,-472.87 1998.88,-412.83 1965,-384.63 1936.65,-361.04 1907.08,-395.4 1884,-366.63 1830.43,-299.85 1956.29,-336.54 1973,-316.11 1986.74,-299.31 1982.19,-271.41 1957,-250.58 1930.79,-228.9 1827.59,-258.01 1805,-232.58 1791.06,-216.89 1797.23,-192.88 1822,-167.05 1850.34,-137.51 1867.86,-142.1 1908,-134.05 2000.31,-115.55 2586.42,-106.15 2878.71,-102.56"/>
<polygon fill="black" stroke="black" points="2879.03,-106.06 2888.99,-102.44 2878.94,-99.06 2879.03,-106.06"/>
<text text-anchor="middle" x="2032.5" y="-304.91" font-family="Times,serif" font-size="14.00">get_tokens(p2, [2])</text>
</g>
<!-- s10&#45;&gt;s13 -->
<g id="edge46" class="edge">
<title>s10&#45;&gt;s13</title>
<path fill="none" stroke="black" d="M2099.61,-502.51C2254.31,-482.25 2505.85,-438.95 2562,-366.63 2570.87,-355.22 2571.68,-344.85 2562,-334.11 2536.12,-305.4 2414.88,-344.82 2389,-316.11 2377.6,-303.46 2372.17,-279.85 2398,-250.58 2415.86,-230.34 2439.99,-254.31 2456,-232.58 2459.95,-227.21 2460.6,-222.4 2456,-217.58 2426.67,-186.84 2103.33,-230.33 2074,-199.58 2053.07,-177.64 2067.02,-149.69 2093,-134.05 2125.99,-114.21 2615.2,-105.63 2878.72,-102.43"/>
<polygon fill="black" stroke="black" points="2878.81,-105.93 2888.77,-102.31 2878.73,-98.93 2878.81,-105.93"/>
<text text-anchor="middle" x="2438" y="-304.91" font-family="Times,serif" font-size="14.00">get_tokens(p5, [])</text>
</g>
<!-- s10&#45;&gt;s16 -->
<g id="edge40" class="edge">
<title>s10&#45;&gt;s16</title>
<path fill="none" stroke="black" d="M1910.7,-501.47C1849.92,-487.55 1759.36,-466.81 1695.5,-452.19"/>
<polygon fill="black" stroke="black" points="1696.01,-448.72 1685.48,-449.89 1694.45,-455.54 1696.01,-448.72"/>
<text text-anchor="middle" x="1866" y="-471.96" font-family="Times,serif" font-size="14.00">fire_trans(t3)</text>
</g>
<!-- s11&#45;&gt;s13 -->
<g id="edge9" class="edge">
<title>s11&#45;&gt;s13</title>
<path fill="none" stroke="black" d="M4703.69,-668.44C4674.77,-655.81 4643,-634.53 4643,-601.95 4643,-601.95 4643,-601.95 4643,-432.9 4643,-411.37 4644.34,-405.99 4647,-384.63 4648,-376.59 4649.25,-374.71 4650,-366.63 4656.58,-295.71 4664.12,-147.45 4651,-134.05 4626.06,-108.59 3616.95,-102.58 3210.79,-101.2"/>
<polygon fill="black" stroke="black" points="3210.73,-97.7 3200.72,-101.16 3210.71,-104.7 3210.73,-97.7"/>
<text text-anchor="middle" x="4696" y="-388.43" font-family="Times,serif" font-size="14.00">get_tokens(p0, [])</text>
</g>
<!-- s11&#45;&gt;s13 -->
<g id="edge10" class="edge">
<title>s11&#45;&gt;s13</title>
<path fill="none" stroke="black" d="M4750,-668.15C4750,-651.77 4750,-625.02 4750,-601.95 4750,-601.95 4750,-601.95 4750,-182.32 4750,-136.14 4702.72,-145.56 4658,-134.05 4588.87,-116.27 3607.44,-105.72 3209.66,-102.16"/>
<polygon fill="black" stroke="black" points="3209.53,-98.66 3199.5,-102.07 3209.47,-105.66 3209.53,-98.66"/>
<text text-anchor="middle" x="4809.5" y="-388.43" font-family="Times,serif" font-size="14.00">get_tokens(p1, [1, 1])</text>
</g>
<!-- s11&#45;&gt;s13 -->
<g id="edge11" class="edge">
<title>s11&#45;&gt;s13</title>
<path fill="none" stroke="black" d="M4812.13,-668.7C4844.74,-656.85 4878,-636.33 4878,-601.95 4878,-601.95 4878,-601.95 4878,-182.32 4878,-99.49 4780,-145.7 4698,-134.05 4553.86,-113.59 3600.43,-104.67 3210.13,-101.85"/>
<polygon fill="black" stroke="black" points="3209.9,-98.35 3199.88,-101.78 3209.85,-105.35 3209.9,-98.35"/>
<text text-anchor="middle" x="4937.5" y="-388.43" font-family="Times,serif" font-size="14.00">get_tokens(p2, [2, 2])</text>
</g>
<!-- s11&#45;&gt;s13 -->
<g id="edge13" class="edge">
<title>s11&#45;&gt;s13</title>
<path fill="none" stroke="black" d="M4853.76,-669.67C4924.72,-657.21 5006,-635.59 5006,-601.95 5006,-601.95 5006,-601.95 5006,-182.32 5006,-82.65 4885.98,-145.79 4787,-134.05 4633.5,-115.86 3615.02,-105.52 3209.83,-102.09"/>
<polygon fill="black" stroke="black" points="3209.81,-98.59 3199.78,-102 3209.75,-105.59 3209.81,-98.59"/>
<text text-anchor="middle" x="5055" y="-388.43" font-family="Times,serif" font-size="14.00">get_tokens(p5, [])</text>
</g>
<!-- s11&#45;&gt;s13 -->
<g id="edge14" class="edge">
<title>s11&#45;&gt;s13</title>
<path fill="none" stroke="black" d="M4893.21,-671.25C4974.83,-660.16 5061,-639.56 5061,-601.95 5061,-601.95 5061,-601.95 5061,-474.66 5061,-449.13 5053.16,-438.42 5068,-417.63 5078.63,-402.75 5094.06,-414.29 5105,-399.63 5118,-382.21 5113,-373.11 5113,-351.37 5113,-351.37 5113,-351.37 5113,-182.32 5113,-83.52 4994.11,-145.72 4896,-134.05 4731.63,-114.5 3633.72,-104.88 3210.2,-101.87"/>
<polygon fill="black" stroke="black" points="3210.04,-98.37 3200.02,-101.8 3209.99,-105.37 3210.04,-98.37"/>
<text text-anchor="middle" x="5161" y="-388.43" font-family="Times,serif" font-size="14.00">get_tokens(p4, [])</text>
</g>
<!-- s11&#45;&gt;s13 -->
<g id="edge15" class="edge">
<title>s11&#45;&gt;s13</title>
<path fill="none" stroke="black" d="M4672.74,-669.01C4611.44,-655.24 4536,-632.17 4536,-601.95 4536,-601.95 4536,-601.95 4536,-432.9 4536,-410.9 4531.19,-399.93 4547,-384.63 4577.26,-355.36 4611.28,-397.41 4640,-366.63 4657.42,-347.97 4647,-335.14 4647,-309.61 4647,-309.61 4647,-309.61 4647,-182.32 4647,-160.64 4656.24,-148.41 4640,-134.05 4613.5,-110.63 3614.14,-103.41 3210.54,-101.45"/>
<polygon fill="black" stroke="black" points="3210.54,-97.95 3200.53,-101.4 3210.51,-104.95 3210.54,-97.95"/>
<text text-anchor="middle" x="4596" y="-388.43" font-family="Times,serif" font-size="14.00">get_tokens(p3, [])</text>
</g>
<!-- s14 -->
<g id="node15" class="node">
<title>s14</title>
<ellipse fill="none" stroke="black" cx="4139" cy="-600.95" rx="276.46" ry="16.03"/>
<text text-anchor="middle" x="4139" y="-597.25" font-family="Times,serif" font-size="14.00">(4,(lambda p: Place. [])[p4 &#45;&gt; [4]][p2 &#45;&gt; [2]][p1 &#45;&gt; [1, 1]][p0 &#45;&gt; []])</text>
</g>
<!-- s11&#45;&gt;s14 -->
<g id="edge12" class="edge">
<title>s11&#45;&gt;s14</title>
<path fill="none" stroke="black" d="M4627.47,-670.39C4575.74,-664.61 4514.89,-657.49 4460,-650.22 4385.89,-640.4 4302.39,-627.79 4239.14,-617.93"/>
<polygon fill="black" stroke="black" points="4239.58,-614.46 4229.16,-616.37 4238.5,-621.37 4239.58,-614.46"/>
<text text-anchor="middle" x="4496" y="-639.02" font-family="Times,serif" font-size="14.00">fire_trans(t2)</text>
</g>
<!-- s13&#45;&gt;s1 -->
<g id="edge1" class="edge">
<title>s13&#45;&gt;s1</title>
<path fill="none" stroke="black" d="M3044,-83.46C3044,-71.95 3044,-55.96 3044,-42.57"/>
<polygon fill="black" stroke="black" points="3047.5,-42.53 3044,-32.53 3040.5,-42.53 3047.5,-42.53"/>
<text text-anchor="middle" x="3072.5" y="-54.33" font-family="Times,serif" font-size="14.00">Terminate</text>
</g>
<!-- s14&#45;&gt;s8 -->
<g id="edge6" class="edge">
<title>s14&#45;&gt;s8</title>
<path fill="none" stroke="black" d="M4081.77,-585C4028.75,-571.14 3949.87,-550.53 3893.94,-535.92"/>
<polygon fill="black" stroke="black" points="3894.69,-532.49 3884.13,-533.35 3892.92,-539.27 3894.69,-532.49"/>
<text text-anchor="middle" x="4047" y="-555.49" font-family="Times,serif" font-size="14.00">fire_trans(t2)</text>
</g>
<!-- s14&#45;&gt;s13 -->
<g id="edge2" class="edge">
<title>s14&#45;&gt;s13</title>
<path fill="none" stroke="black" d="M4130,-584.42C4127.12,-578.96 4124.13,-572.68 4122,-566.69 4112.03,-538.63 4122.39,-527.23 4108,-501.16 4066.61,-426.17 4003.28,-445.56 3970,-366.63 3964.38,-353.31 3960.09,-344.63 3970,-334.11 4015.48,-285.8 4222.52,-364.41 4268,-316.11 4309.99,-271.5 4119.54,-152.1 4061,-134.05 3982.27,-109.78 3478.3,-103.22 3210.6,-101.45"/>
<polygon fill="black" stroke="black" points="3210.41,-97.95 3200.39,-101.38 3210.37,-104.95 3210.41,-97.95"/>
<text text-anchor="middle" x="4029.5" y="-346.67" font-family="Times,serif" font-size="14.00">get_tokens(p1, [1, 1])</text>
</g>
<!-- s14&#45;&gt;s13 -->
<g id="edge3" class="edge">
<title>s14&#45;&gt;s13</title>
<path fill="none" stroke="black" d="M4135.23,-584.52C4126.38,-547.32 4104.41,-449.65 4097,-366.63 4095.71,-352.24 4087.31,-344.83 4097,-334.11 4123.66,-304.61 4248.34,-345.6 4275,-316.11 4335.62,-249.05 4185.36,-182.53 4160,-167.05 4128.22,-147.66 4119.35,-142.12 4083,-134.05 4000.37,-115.71 3480.95,-106.39 3209.24,-102.72"/>
<polygon fill="black" stroke="black" points="3208.93,-99.21 3198.88,-102.58 3208.83,-106.21 3208.93,-99.21"/>
<text text-anchor="middle" x="4146" y="-346.67" font-family="Times,serif" font-size="14.00">get_tokens(p0, [])</text>
</g>
<!-- s14&#45;&gt;s13 -->
<g id="edge4" class="edge">
<title>s14&#45;&gt;s13</title>
<path fill="none" stroke="black" d="M4159.99,-584.69C4177.64,-569.93 4200,-545.82 4200,-518.42 4200,-518.42 4200,-518.42 4200,-391.13 4200,-365.75 4186.6,-353.48 4203,-334.11 4226.82,-305.96 4259.23,-343.43 4284,-316.11 4303.6,-294.49 4298.74,-277.71 4288,-250.58 4253.18,-162.67 4202.58,-153.28 4110,-134.05 4024.49,-116.29 3486.02,-106.64 3208.69,-102.8"/>
<polygon fill="black" stroke="black" points="3208.58,-99.3 3198.53,-102.66 3208.48,-106.29 3208.58,-99.3"/>
<text text-anchor="middle" x="4255.5" y="-346.67" font-family="Times,serif" font-size="14.00">get_tokens(p4, [4])</text>
</g>
<!-- s14&#45;&gt;s13 -->
<g id="edge5" class="edge">
<title>s14&#45;&gt;s13</title>
<path fill="none" stroke="black" d="M4246.22,-585.84C4282.03,-574.59 4313,-554.45 4313,-518.42 4313,-518.42 4313,-518.42 4313,-182.32 4313,-105.48 4222.89,-146.03 4147,-134.05 3971.9,-106.42 3473.57,-101.35 3210.83,-100.67"/>
<polygon fill="black" stroke="black" points="3210.82,-97.17 3200.81,-100.65 3210.8,-104.17 3210.82,-97.17"/>
<text text-anchor="middle" x="4365.5" y="-346.67" font-family="Times,serif" font-size="14.00">get_tokens(p2, [2])</text>
</g>
<!-- s14&#45;&gt;s13 -->
<g id="edge7" class="edge">
<title>s14&#45;&gt;s13</title>
<path fill="none" stroke="black" d="M4260.27,-586.2C4274.08,-581.39 4287.36,-575.04 4299,-566.69 4375.26,-511.99 4356.17,-464.17 4406,-384.63 4411.1,-376.49 4414.58,-375.62 4418,-366.63 4427.1,-342.72 4426,-335.2 4426,-309.61 4426,-309.61 4426,-309.61 4426,-182.32 4426,-92.6 4318.9,-146.11 4230,-134.05 4038.33,-108.07 3489.6,-102.31 3210.84,-101.08"/>
<polygon fill="black" stroke="black" points="3210.65,-97.58 3200.63,-101.04 3210.62,-104.58 3210.65,-97.58"/>
<text text-anchor="middle" x="4475" y="-346.67" font-family="Times,serif" font-size="14.00">get_tokens(p5, [])</text>
</g>
<!-- s14&#45;&gt;s13 -->
<g id="edge8" class="edge">
<title>s14&#45;&gt;s13</title>
<path fill="none" stroke="black" d="M4256.18,-586.11C4275.39,-581.41 4294.67,-575.11 4312,-566.69 4332.12,-556.91 4336.66,-551.64 4350,-533.69 4355.42,-526.4 4409.81,-390.18 4417,-384.63 4455.17,-355.16 4490.37,-401.2 4524,-366.63 4541.85,-348.29 4532,-335.2 4532,-309.61 4532,-309.61 4532,-309.61 4532,-182.32 4532,-89.15 4420.39,-146.05 4328,-134.05 4117.14,-106.68 3507.87,-101.63 3210.81,-100.84"/>
<polygon fill="black" stroke="black" points="3210.82,-97.34 3200.81,-100.81 3210.8,-104.34 3210.82,-97.34"/>
<text text-anchor="middle" x="4584" y="-346.67" font-family="Times,serif" font-size="14.00">get_tokens(p3, [])</text>
</g>
<!-- s15&#45;&gt;s7 -->
<g id="edge18" class="edge">
<title>s15&#45;&gt;s7</title>
<path fill="none" stroke="black" d="M722.86,-668.53C775.46,-654.69 853.68,-634.12 909.23,-619.51"/>
<polygon fill="black" stroke="black" points="910.2,-622.88 918.98,-616.95 908.42,-616.11 910.2,-622.88"/>
<text text-anchor="middle" x="885" y="-639.02" font-family="Times,serif" font-size="14.00">fire_trans(t1)</text>
</g>
<!-- s15&#45;&gt;s13 -->
<g id="edge17" class="edge">
<title>s15&#45;&gt;s13</title>
<path fill="none" stroke="black" d="M921.89,-679.84C1320.5,-674.1 2113.86,-662.32 2787,-650.22 2967.9,-646.96 4263.72,-716.45 4415,-617.22 4421.24,-613.12 4422,-609.41 4422,-601.95 4422,-601.95 4422,-601.95 4422,-432.9 4422,-411.08 4414.86,-399.32 4431,-384.63 4463.84,-354.75 4600.05,-399.42 4630,-366.63 4658.06,-335.92 4635.13,-247.23 4536,-167.05 4497.63,-136.03 4478.69,-142.06 4430,-134.05 4312.73,-114.78 3551.45,-105.45 3209.66,-102.19"/>
<polygon fill="black" stroke="black" points="3209.46,-98.69 3199.43,-102.09 3209.39,-105.69 3209.46,-98.69"/>
<text text-anchor="middle" x="4483.5" y="-388.43" font-family="Times,serif" font-size="14.00">get_tokens(p4, [4])</text>
</g>
<!-- s15&#45;&gt;s13 -->
<g id="edge19" class="edge">
<title>s15&#45;&gt;s13</title>
<path fill="none" stroke="black" d="M477.44,-672.97C409.58,-667.58 346.53,-660.06 334,-650.22 316.12,-636.16 317,-624.69 317,-601.95 317,-601.95 317,-601.95 317,-474.66 317,-449.13 327.19,-436.52 310,-417.63 284.88,-390.04 252.57,-427.72 228,-399.63 213.83,-383.43 224,-372.9 224,-351.37 224,-351.37 224,-351.37 224,-182.32 224,-128.93 281.82,-145.33 334,-134.05 458.27,-107.19 2305.04,-101.98 2876.65,-101"/>
<polygon fill="black" stroke="black" points="2877.05,-104.5 2887.04,-100.99 2877.03,-97.5 2877.05,-104.5"/>
<text text-anchor="middle" x="280.5" y="-388.43" font-family="Times,serif" font-size="14.00">get_tokens(p0, [0])</text>
</g>
<!-- s15&#45;&gt;s13 -->
<g id="edge20" class="edge">
<title>s15&#45;&gt;s13</title>
<path fill="none" stroke="black" d="M506.32,-671.45C422.91,-660.6 338,-640.17 338,-601.95 338,-601.95 338,-601.95 338,-182.32 338,-128.93 395.82,-145.35 448,-134.05 566.56,-108.39 2321.91,-102.37 2877.03,-101.1"/>
<polygon fill="black" stroke="black" points="2877.12,-104.6 2887.12,-101.08 2877.11,-97.6 2877.12,-104.6"/>
<text text-anchor="middle" x="390.5" y="-388.43" font-family="Times,serif" font-size="14.00">get_tokens(p1, [1])</text>
</g>
<!-- s15&#45;&gt;s13 -->
<g id="edge21" class="edge">
<title>s15&#45;&gt;s13</title>
<path fill="none" stroke="black" d="M588.14,-668.87C526.95,-655.09 452,-632.07 452,-601.95 452,-601.95 452,-601.95 452,-182.32 452,-131.76 505.73,-145.37 555,-134.05 667.87,-108.13 2337.18,-102.3 2876.98,-101.09"/>
<polygon fill="black" stroke="black" points="2877.19,-104.59 2887.19,-101.06 2877.18,-97.59 2877.19,-104.59"/>
<text text-anchor="middle" x="501" y="-388.43" font-family="Times,serif" font-size="14.00">get_tokens(p5, [])</text>
</g>
<!-- s15&#45;&gt;s13 -->
<g id="edge22" class="edge">
<title>s15&#45;&gt;s13</title>
<path fill="none" stroke="black" d="M619.69,-668.44C590.77,-655.81 559,-634.53 559,-601.95 559,-601.95 559,-601.95 559,-182.32 559,-160.64 549.71,-148.35 566,-134.05 587.76,-114.96 2325.67,-104.46 2877.69,-101.6"/>
<polygon fill="black" stroke="black" points="2877.74,-105.1 2887.72,-101.55 2877.7,-98.1 2877.74,-105.1"/>
<text text-anchor="middle" x="608" y="-388.43" font-family="Times,serif" font-size="14.00">get_tokens(p3, [])</text>
</g>
<!-- s15&#45;&gt;s13 -->
<g id="edge23" class="edge">
<title>s15&#45;&gt;s13</title>
<path fill="none" stroke="black" d="M666,-668.15C666,-651.77 666,-625.02 666,-601.95 666,-601.95 666,-601.95 666,-432.9 666,-422.03 665.48,-392.53 658,-384.63 632.64,-357.86 601.79,-393.94 577,-366.63 559.84,-347.73 570,-335.14 570,-309.61 570,-309.61 570,-309.61 570,-182.32 570,-169.34 591.38,-137.74 598,-134.05 647.75,-106.3 2333.39,-101.7 2876.9,-100.94"/>
<polygon fill="black" stroke="black" points="2877.18,-104.44 2887.18,-100.93 2877.17,-97.44 2877.18,-104.44"/>
<text text-anchor="middle" x="713" y="-388.43" font-family="Times,serif" font-size="14.00">get_tokens(p2, [])</text>
</g>
<!-- s15&#45;&gt;s14 -->
<g id="edge16" class="edge">
<title>s15&#45;&gt;s14</title>
<path fill="none" stroke="black" d="M909.18,-677.77C1540.44,-662.95 3227.35,-623.35 3878,-608.08"/>
<polygon fill="black" stroke="black" points="3878.53,-611.57 3888.45,-607.83 3878.37,-604.57 3878.53,-611.57"/>
<text text-anchor="middle" x="2750" y="-639.02" font-family="Times,serif" font-size="14.00">fire_trans(t0)</text>
</g>
<!-- s16&#45;&gt;s5 -->
<g id="edge59" class="edge">
<title>s16&#45;&gt;s5</title>
<path fill="none" stroke="black" d="M1727.11,-418.42C1833.52,-404.03 1996.26,-382.03 2106.01,-367.19"/>
<polygon fill="black" stroke="black" points="2106.69,-370.63 2116.13,-365.82 2105.75,-363.69 2106.69,-370.63"/>
<text text-anchor="middle" x="2012" y="-388.43" font-family="Times,serif" font-size="14.00">fire_trans(t2)</text>
</g>
<!-- s16&#45;&gt;s13 -->
<g id="edge55" class="edge">
<title>s16&#45;&gt;s13</title>
<path fill="none" stroke="black" d="M1668.89,-417.67C1698.27,-405.15 1730,-384.06 1730,-351.37 1730,-351.37 1730,-351.37 1730,-182.32 1730,-158.74 1732.34,-147.06 1752,-134.05 1798.07,-103.58 2537.93,-100.31 2876.82,-100.42"/>
<polygon fill="black" stroke="black" points="2876.97,-103.92 2886.98,-100.42 2876.98,-96.92 2876.97,-103.92"/>
<text text-anchor="middle" x="1779" y="-263.14" font-family="Times,serif" font-size="14.00">get_tokens(p0, [])</text>
</g>
<!-- s16&#45;&gt;s13 -->
<g id="edge56" class="edge">
<title>s16&#45;&gt;s13</title>
<path fill="none" stroke="black" d="M1681.87,-417.85C1693.31,-413.24 1704.6,-407.28 1714,-399.63 1727.3,-388.81 1727.68,-382.58 1734,-366.63 1744.98,-338.95 1727.06,-322.28 1748,-301.11 1773.63,-275.2 1805.23,-311.57 1828,-283.11 1837.03,-271.82 1836.75,-262.09 1828,-250.58 1809.85,-226.72 1781.15,-256.44 1763,-232.58 1736.49,-197.73 1732.44,-165.42 1763,-134.05 1782.19,-114.36 2536.1,-105.24 2878.2,-102.11"/>
<polygon fill="black" stroke="black" points="2878.48,-105.61 2888.45,-102.02 2878.42,-98.61 2878.48,-105.61"/>
<text text-anchor="middle" x="1887.5" y="-263.14" font-family="Times,serif" font-size="14.00">get_tokens(p5, [5])</text>
</g>
<!-- s16&#45;&gt;s13 -->
<g id="edge57" class="edge">
<title>s16&#45;&gt;s13</title>
<path fill="none" stroke="black" d="M1600.48,-417.35C1595.3,-412.25 1590.26,-406.19 1587,-399.63 1567.31,-360.03 1605.45,-331.16 1573,-301.11 1527.58,-259.04 1337.34,-328.27 1295,-283.11 1264.35,-250.4 1328.07,-167.19 1401,-134.05 1467.27,-103.94 2472.25,-100.7 2876.99,-100.63"/>
<polygon fill="black" stroke="black" points="2877.03,-104.13 2887.02,-100.62 2877.02,-97.13 2877.03,-104.13"/>
<text text-anchor="middle" x="1347.5" y="-263.14" font-family="Times,serif" font-size="14.00">get_tokens(p1, [1])</text>
</g>
<!-- s16&#45;&gt;s13 -->
<g id="edge58" class="edge">
<title>s16&#45;&gt;s13</title>
<path fill="none" stroke="black" d="M1607.76,-417.43C1604.08,-412.07 1600.39,-405.84 1598,-399.63 1582.08,-358.3 1615.07,-331.66 1583,-301.11 1554.69,-274.14 1434.19,-312.13 1408,-283.11 1378.16,-250.04 1445.03,-165.45 1514,-134.05 1575.08,-106.25 2493.12,-101.61 2877.11,-100.89"/>
<polygon fill="black" stroke="black" points="2877.21,-104.39 2887.2,-100.88 2877.2,-97.39 2877.21,-104.39"/>
<text text-anchor="middle" x="1460.5" y="-263.14" font-family="Times,serif" font-size="14.00">get_tokens(p2, [2])</text>
</g>
<!-- s16&#45;&gt;s13 -->
<g id="edge60" class="edge">
<title>s16&#45;&gt;s13</title>
<path fill="none" stroke="black" d="M1618.86,-417.3C1616.25,-386.11 1608.83,-317.64 1593,-301.11 1570.18,-277.29 1541.3,-309.11 1521,-283.11 1495.32,-250.22 1569.96,-157.91 1620,-134.05 1675.79,-107.45 2513.05,-102.11 2877.07,-101.05"/>
<polygon fill="black" stroke="black" points="2877.18,-104.55 2887.17,-101.02 2877.16,-97.55 2877.18,-104.55"/>
<text text-anchor="middle" x="1570" y="-263.14" font-family="Times,serif" font-size="14.00">get_tokens(p4, [])</text>
</g>
<!-- s16&#45;&gt;s13 -->
<g id="edge61" class="edge">
<title>s16&#45;&gt;s13</title>
<path fill="none" stroke="black" d="M1621.2,-417.58C1622.38,-401.21 1624,-374.47 1624,-351.37 1624,-351.37 1624,-351.37 1624,-182.32 1624,-128.11 1683.06,-145.68 1736,-134.05 1844.46,-110.24 2550.34,-103.4 2877.72,-101.49"/>
<polygon fill="black" stroke="black" points="2877.8,-104.99 2887.78,-101.44 2877.76,-97.99 2877.8,-104.99"/>
<text text-anchor="middle" x="1673" y="-263.14" font-family="Times,serif" font-size="14.00">get_tokens(p3, [])</text>
</g>
</g>
</svg>
