<?xml version="1.0" encoding="UTF-8" standalone="no"?>
<!DOCTYPE svg PUBLIC "-//W3C//DTD SVG 1.1//EN"
 "http://www.w3.org/Graphics/SVG/1.1/DTD/svg11.dtd">
<!-- Generated by graphviz version 5.0.1 (0)
 -->
<!-- Title: G Pages: 1 -->
<svg width="1272pt" height="717pt"
 viewBox="0.00 0.00 1272.20 716.74" xmlns="http://www.w3.org/2000/svg" xmlns:xlink="http://www.w3.org/1999/xlink">
<g id="graph0" class="graph" transform="scale(1 1) rotate(0) translate(4 712.74)">
<title>G</title>
<polygon fill="white" stroke="none" points="-4,4 -4,-712.74 1268.2,-712.74 1268.2,4 -4,4"/>
<!-- s14 -->
<g id="node1" class="node">
<title>s14</title>
<ellipse fill="none" stroke="black" cx="457.63" cy="-688.48" rx="22.74" ry="16.08"/>
<ellipse fill="none" stroke="black" cx="457.63" cy="-688.48" rx="26.76" ry="20.03"/>
<text text-anchor="middle" x="457.63" y="-684.78" font-family="Times,serif" font-size="14.00">(3)</text>
</g>
<!-- s0 -->
<g id="node2" class="node">
<title>s0</title>
<ellipse fill="none" stroke="black" cx="457.63" cy="-600.95" rx="22.76" ry="16.03"/>
<text text-anchor="middle" x="457.63" y="-597.25" font-family="Times,serif" font-size="14.00">(9)</text>
</g>
<!-- s14&#45;&gt;s0 -->
<g id="edge1" class="edge">
<title>s14&#45;&gt;s0</title>
<path fill="none" stroke="black" d="M457.63,-668.07C457.63,-656.06 457.63,-640.5 457.63,-627.49"/>
<polygon fill="black" stroke="black" points="461.13,-627.3 457.63,-617.3 454.13,-627.3 461.13,-627.3"/>
<text text-anchor="middle" x="493.63" y="-639.02" font-family="Times,serif" font-size="14.00">fire_trans(t0)</text>
</g>
<!-- s0&#45;&gt;s0 -->
<g id="edge2" class="edge">
<title>s0&#45;&gt;s0</title>
<path fill="none" stroke="black" d="M480.26,-602.2C480.41,-602.19 480.56,-602.17 480.7,-602.16"/>
<polygon fill="black" stroke="black" points="485.48,-608.92 480.26,-599.7 478.6,-610.16 485.48,-608.92"/>
<text text-anchor="middle" x="533.25" y="-597.25" font-family="Times,serif" font-size="14.00">get_tokens(p3, [])</text>
</g>
<!-- s0&#45;&gt;s0 -->
<g id="edge3" class="edge">
<title>s0&#45;&gt;s0</title>
<path fill="none" stroke="black" d="M480.28,-603.15C516.55,-604.72 582.25,-603.98 582.25,-600.95 582.25,-598.19 527.82,-597.34 490.7,-598.38"/>
<polygon fill="black" stroke="black" points="490.15,-594.9 480.28,-598.75 490.39,-601.9 490.15,-594.9"/>
<text text-anchor="middle" x="631.25" y="-597.25" font-family="Times,serif" font-size="14.00">get_tokens(p4, [])</text>
</g>
<!-- s0&#45;&gt;s0 -->
<g id="edge4" class="edge">
<title>s0&#45;&gt;s0</title>
<path fill="none" stroke="black" d="M479.98,-603.56C536.86,-606.77 680.25,-605.9 680.25,-600.95 680.25,-596.28 552.11,-595.24 490.05,-597.85"/>
<polygon fill="black" stroke="black" points="489.8,-594.36 479.98,-598.34 490.14,-601.35 489.8,-594.36"/>
<text text-anchor="middle" x="729.25" y="-597.25" font-family="Times,serif" font-size="14.00">get_tokens(p5, [])</text>
</g>
<!-- s0&#45;&gt;s0 -->
<g id="edge5" class="edge">
<title>s0&#45;&gt;s0</title>
<path fill="none" stroke="black" d="M480.12,-603.94C553.55,-608.78 778.25,-607.79 778.25,-600.95 778.25,-594.4 572.02,-593.22 490.14,-597.39"/>
<polygon fill="black" stroke="black" points="489.9,-593.9 480.12,-597.97 490.31,-600.88 489.9,-593.9"/>
<text text-anchor="middle" x="830.75" y="-597.25" font-family="Times,serif" font-size="14.00">get_tokens(p0, [0])</text>
</g>
<!-- s0&#45;&gt;s0 -->
<g id="edge6" class="edge">
<title>s0&#45;&gt;s0</title>
<path fill="none" stroke="black" d="M480,-604.23C568.26,-610.8 883.25,-609.7 883.25,-600.95 883.25,-592.51 590.02,-591.19 490.12,-597.01"/>
<polygon fill="black" stroke="black" points="489.75,-593.52 480,-597.67 490.2,-600.51 489.75,-593.52"/>
<text text-anchor="middle" x="935.75" y="-597.25" font-family="Times,serif" font-size="14.00">get_tokens(p1, [1])</text>
</g>
<!-- s0&#45;&gt;s0 -->
<g id="edge8" class="edge">
<title>s0&#45;&gt;s0</title>
<path fill="none" stroke="black" d="M479.99,-604.51C581.47,-612.8 988.25,-611.62 988.25,-600.95 988.25,-590.61 605.73,-589.18 490.03,-596.66"/>
<polygon fill="black" stroke="black" points="489.71,-593.18 479.99,-597.39 490.22,-600.16 489.71,-593.18"/>
<text text-anchor="middle" x="1040.75" y="-597.25" font-family="Times,serif" font-size="14.00">get_tokens(p2, [2])</text>
</g>
<!-- s12 -->
<g id="node14" class="node">
<title>s12</title>
<ellipse fill="none" stroke="black" cx="417.63" cy="-517.42" rx="22.76" ry="16.03"/>
<text text-anchor="middle" x="417.63" y="-513.72" font-family="Times,serif" font-size="14.00">(4)</text>
</g>
<!-- s0&#45;&gt;s12 -->
<g id="edge7" class="edge">
<title>s0&#45;&gt;s12</title>
<path fill="none" stroke="black" d="M441.36,-589.24C434.02,-583.49 426.03,-575.71 421.63,-566.69 418.27,-559.81 416.8,-551.71 416.29,-544.14"/>
<polygon fill="black" stroke="black" points="419.79,-543.9 416.12,-533.96 412.79,-544.02 419.79,-543.9"/>
<text text-anchor="middle" x="457.63" y="-555.49" font-family="Times,serif" font-size="14.00">fire_trans(t2)</text>
</g>
<!-- s13 -->
<g id="node15" class="node">
<title>s13</title>
<ellipse fill="none" stroke="black" cx="498.63" cy="-517.42" rx="27.65" ry="16.03"/>
<text text-anchor="middle" x="498.63" y="-513.72" font-family="Times,serif" font-size="14.00">(14)</text>
</g>
<!-- s0&#45;&gt;s13 -->
<g id="edge9" class="edge">
<title>s0&#45;&gt;s13</title>
<path fill="none" stroke="black" d="M472.59,-588.53C479.15,-582.71 486.33,-575.09 490.63,-566.69 494.15,-559.8 496.18,-551.71 497.33,-544.13"/>
<polygon fill="black" stroke="black" points="500.84,-544.28 498.44,-533.96 493.88,-543.52 500.84,-544.28"/>
<text text-anchor="middle" x="530.63" y="-555.49" font-family="Times,serif" font-size="14.00">fire_trans(t0)</text>
</g>
<!-- s1 -->
<g id="node3" class="node">
<title>s1</title>
<ellipse fill="none" stroke="black" cx="792.63" cy="-16.26" rx="22.76" ry="16.03"/>
<text text-anchor="middle" x="792.63" y="-12.56" font-family="Times,serif" font-size="14.00">(5)</text>
</g>
<!-- s2 -->
<g id="node4" class="node">
<title>s2</title>
<ellipse fill="none" stroke="black" cx="62.63" cy="-266.84" rx="27.65" ry="16.03"/>
<text text-anchor="middle" x="62.63" y="-263.14" font-family="Times,serif" font-size="14.00">(15)</text>
</g>
<!-- s2&#45;&gt;s2 -->
<g id="edge43" class="edge">
<title>s2&#45;&gt;s2</title>
<path fill="none" stroke="black" d="M90.34,-268.01C90.49,-268 90.63,-267.98 90.77,-267.97"/>
<polygon fill="black" stroke="black" points="95.64,-274.85 90.34,-265.67 88.76,-276.15 95.64,-274.85"/>
<text text-anchor="middle" x="146.7" y="-263.14" font-family="Times,serif" font-size="14.00">get_tokens(p5, [5])</text>
</g>
<!-- s2&#45;&gt;s2 -->
<g id="edge44" class="edge">
<title>s2&#45;&gt;s2</title>
<path fill="none" stroke="black" d="M90.23,-269.14C130.5,-270.58 199.2,-269.81 199.2,-266.84 199.2,-264.11 141.07,-263.25 100.4,-264.24"/>
<polygon fill="black" stroke="black" points="100.12,-260.75 90.23,-264.55 100.33,-267.75 100.12,-260.75"/>
<text text-anchor="middle" x="248.2" y="-263.14" font-family="Times,serif" font-size="14.00">get_tokens(p0, [])</text>
</g>
<!-- s2&#45;&gt;s2 -->
<g id="edge45" class="edge">
<title>s2&#45;&gt;s2</title>
<path fill="none" stroke="black" d="M90.07,-269.63C152.46,-272.62 297.2,-271.7 297.2,-266.84 297.2,-262.24 166.79,-261.17 100.18,-263.63"/>
<polygon fill="black" stroke="black" points="99.92,-260.14 90.07,-264.06 100.21,-267.13 99.92,-260.14"/>
<text text-anchor="middle" x="346.2" y="-263.14" font-family="Times,serif" font-size="14.00">get_tokens(p3, [])</text>
</g>
<!-- s2&#45;&gt;s2 -->
<g id="edge46" class="edge">
<title>s2&#45;&gt;s2</title>
<path fill="none" stroke="black" d="M89.85,-270.04C169.83,-274.64 395.2,-273.58 395.2,-266.84 395.2,-260.37 187.09,-259.14 99.87,-263.13"/>
<polygon fill="black" stroke="black" points="99.66,-259.64 89.85,-263.65 100.02,-266.63 99.66,-259.64"/>
<text text-anchor="middle" x="444.2" y="-263.14" font-family="Times,serif" font-size="14.00">get_tokens(p4, [])</text>
</g>
<!-- s2&#45;&gt;s2 -->
<g id="edge47" class="edge">
<title>s2&#45;&gt;s2</title>
<path fill="none" stroke="black" d="M89.74,-270.41C184.83,-276.65 493.2,-275.47 493.2,-266.84 493.2,-258.51 204.97,-257.12 99.9,-262.68"/>
<polygon fill="black" stroke="black" points="99.52,-259.2 89.74,-263.28 99.93,-266.19 99.52,-259.2"/>
<text text-anchor="middle" x="545.7" y="-263.14" font-family="Times,serif" font-size="14.00">get_tokens(p1, [1])</text>
</g>
<!-- s2&#45;&gt;s2 -->
<g id="edge49" class="edge">
<title>s2&#45;&gt;s2</title>
<path fill="none" stroke="black" d="M89.47,-270.7C198.65,-278.67 598.2,-277.38 598.2,-266.84 598.2,-256.62 221.72,-255.11 99.8,-262.31"/>
<polygon fill="black" stroke="black" points="99.22,-258.84 89.47,-262.99 99.68,-265.83 99.22,-258.84"/>
<text text-anchor="middle" x="650.7" y="-263.14" font-family="Times,serif" font-size="14.00">get_tokens(p2, [2])</text>
</g>
<!-- s10 -->
<g id="node12" class="node">
<title>s10</title>
<ellipse fill="none" stroke="black" cx="752.63" cy="-183.32" rx="22.76" ry="16.03"/>
<text text-anchor="middle" x="752.63" y="-179.62" font-family="Times,serif" font-size="14.00">(1)</text>
</g>
<!-- s2&#45;&gt;s10 -->
<g id="edge48" class="edge">
<title>s2&#45;&gt;s10</title>
<path fill="none" stroke="black" d="M89.68,-262.65C198.28,-249.82 602.47,-202.06 720.24,-188.14"/>
<polygon fill="black" stroke="black" points="720.89,-191.59 730.41,-186.94 720.07,-184.64 720.89,-191.59"/>
<text text-anchor="middle" x="504.63" y="-221.38" font-family="Times,serif" font-size="14.00">fire_trans(t2)</text>
</g>
<!-- s3 -->
<g id="node5" class="node">
<title>s3</title>
<ellipse fill="none" stroke="black" cx="103.63" cy="-350.37" rx="27.65" ry="16.03"/>
<text text-anchor="middle" x="103.63" y="-346.67" font-family="Times,serif" font-size="14.00">(12)</text>
</g>
<!-- s3&#45;&gt;s2 -->
<g id="edge36" class="edge">
<title>s3&#45;&gt;s2</title>
<path fill="none" stroke="black" d="M103.44,-333.84C102.76,-323.99 100.81,-311.24 95.63,-301.11 93.14,-296.25 89.7,-291.66 85.97,-287.52"/>
<polygon fill="black" stroke="black" points="88.16,-284.77 78.61,-280.19 83.22,-289.73 88.16,-284.77"/>
<text text-anchor="middle" x="135.63" y="-304.91" font-family="Times,serif" font-size="14.00">fire_trans(t3)</text>
</g>
<!-- s3&#45;&gt;s3 -->
<g id="edge35" class="edge">
<title>s3&#45;&gt;s3</title>
<path fill="none" stroke="black" d="M131.34,-351.54C131.49,-351.53 131.63,-351.51 131.77,-351.49"/>
<polygon fill="black" stroke="black" points="136.64,-358.37 131.34,-349.2 129.76,-359.68 136.64,-358.37"/>
<text text-anchor="middle" x="187.7" y="-346.67" font-family="Times,serif" font-size="14.00">get_tokens(p3, [3])</text>
</g>
<!-- s3&#45;&gt;s3 -->
<g id="edge37" class="edge">
<title>s3&#45;&gt;s3</title>
<path fill="none" stroke="black" d="M131.23,-352.67C171.5,-354.11 240.2,-353.34 240.2,-350.37 240.2,-347.64 182.07,-346.77 141.4,-347.77"/>
<polygon fill="black" stroke="black" points="141.12,-344.28 131.23,-348.07 141.33,-351.28 141.12,-344.28"/>
<text text-anchor="middle" x="292.7" y="-346.67" font-family="Times,serif" font-size="14.00">get_tokens(p4, [4])</text>
</g>
<!-- s3&#45;&gt;s3 -->
<g id="edge38" class="edge">
<title>s3&#45;&gt;s3</title>
<path fill="none" stroke="black" d="M130.82,-353.11C194.43,-356.16 345.2,-355.25 345.2,-350.37 345.2,-345.74 209.36,-344.69 141.15,-347.2"/>
<polygon fill="black" stroke="black" points="140.66,-343.71 130.82,-347.63 140.96,-350.71 140.66,-343.71"/>
<text text-anchor="middle" x="394.2" y="-346.67" font-family="Times,serif" font-size="14.00">get_tokens(p0, [])</text>
</g>
<!-- s3&#45;&gt;s3 -->
<g id="edge39" class="edge">
<title>s3&#45;&gt;s3</title>
<path fill="none" stroke="black" d="M130.76,-353.54C211.8,-358.18 443.2,-357.12 443.2,-350.37 443.2,-343.88 229.52,-342.66 140.92,-346.69"/>
<polygon fill="black" stroke="black" points="140.56,-343.2 130.76,-347.21 140.92,-350.19 140.56,-343.2"/>
<text text-anchor="middle" x="492.2" y="-346.67" font-family="Times,serif" font-size="14.00">get_tokens(p5, [])</text>
</g>
<!-- s3&#45;&gt;s3 -->
<g id="edge40" class="edge">
<title>s3&#45;&gt;s3</title>
<path fill="none" stroke="black" d="M130.78,-353.91C226.92,-360.18 541.2,-359 541.2,-350.37 541.2,-342.02 247.44,-340.64 141.05,-346.23"/>
<polygon fill="black" stroke="black" points="140.56,-342.75 130.78,-346.83 140.96,-349.74 140.56,-342.75"/>
<text text-anchor="middle" x="593.7" y="-346.67" font-family="Times,serif" font-size="14.00">get_tokens(p1, [1])</text>
</g>
<!-- s3&#45;&gt;s3 -->
<g id="edge42" class="edge">
<title>s3&#45;&gt;s3</title>
<path fill="none" stroke="black" d="M130.76,-354.23C241.26,-362.19 646.2,-360.91 646.2,-350.37 646.2,-340.13 263.87,-338.63 140.84,-345.86"/>
<polygon fill="black" stroke="black" points="140.51,-342.37 130.76,-346.51 140.97,-349.36 140.51,-342.37"/>
<text text-anchor="middle" x="698.7" y="-346.67" font-family="Times,serif" font-size="14.00">get_tokens(p2, [2])</text>
</g>
<!-- s6 -->
<g id="node8" class="node">
<title>s6</title>
<ellipse fill="none" stroke="black" cx="833.63" cy="-266.84" rx="22.76" ry="16.03"/>
<text text-anchor="middle" x="833.63" y="-263.14" font-family="Times,serif" font-size="14.00">(7)</text>
</g>
<!-- s3&#45;&gt;s6 -->
<g id="edge41" class="edge">
<title>s3&#45;&gt;s6</title>
<path fill="none" stroke="black" d="M131.05,-348.32C244.45,-343.72 676.95,-323.83 806.63,-283.11 807.21,-282.93 807.78,-282.73 808.36,-282.52"/>
<polygon fill="black" stroke="black" points="809.9,-285.67 817.57,-278.36 807.01,-279.29 809.9,-285.67"/>
<text text-anchor="middle" x="758.63" y="-304.91" font-family="Times,serif" font-size="14.00">fire_trans(t2)</text>
</g>
<!-- s4 -->
<g id="node6" class="node">
<title>s4</title>
<ellipse fill="none" stroke="black" cx="22.63" cy="-350.37" rx="22.76" ry="16.03"/>
<text text-anchor="middle" x="22.63" y="-346.67" font-family="Times,serif" font-size="14.00">(2)</text>
</g>
<!-- s4&#45;&gt;s2 -->
<g id="edge34" class="edge">
<title>s4&#45;&gt;s2</title>
<path fill="none" stroke="black" d="M21.12,-333.83C20.82,-323.98 21.69,-311.23 26.63,-301.11 29.19,-295.85 32.98,-291.02 37.14,-286.76"/>
<polygon fill="black" stroke="black" points="39.81,-289.06 44.86,-279.75 35.1,-283.88 39.81,-289.06"/>
<text text-anchor="middle" x="62.63" y="-304.91" font-family="Times,serif" font-size="14.00">fire_trans(t0)</text>
</g>
<!-- s5 -->
<g id="node7" class="node">
<title>s5</title>
<ellipse fill="none" stroke="black" cx="103.63" cy="-433.9" rx="27.65" ry="16.03"/>
<text text-anchor="middle" x="103.63" y="-430.2" font-family="Times,serif" font-size="14.00">(11)</text>
</g>
<!-- s5&#45;&gt;s3 -->
<g id="edge32" class="edge">
<title>s5&#45;&gt;s3</title>
<path fill="none" stroke="black" d="M103.63,-417.56C103.63,-406.06 103.63,-390.06 103.63,-376.68"/>
<polygon fill="black" stroke="black" points="107.13,-376.64 103.63,-366.64 100.13,-376.64 107.13,-376.64"/>
<text text-anchor="middle" x="139.63" y="-388.43" font-family="Times,serif" font-size="14.00">fire_trans(t0)</text>
</g>
<!-- s5&#45;&gt;s4 -->
<g id="edge33" class="edge">
<title>s5&#45;&gt;s4</title>
<path fill="none" stroke="black" d="M77.78,-427.63C61.74,-422.99 42.06,-414.56 30.63,-399.63 25.67,-393.17 23.31,-384.77 22.29,-376.79"/>
<polygon fill="black" stroke="black" points="25.77,-376.49 21.62,-366.75 18.79,-376.96 25.77,-376.49"/>
<text text-anchor="middle" x="66.63" y="-388.43" font-family="Times,serif" font-size="14.00">fire_trans(t3)</text>
</g>
<!-- s7 -->
<g id="node9" class="node">
<title>s7</title>
<ellipse fill="none" stroke="black" cx="833.63" cy="-183.32" rx="22.76" ry="16.03"/>
<text text-anchor="middle" x="833.63" y="-179.62" font-family="Times,serif" font-size="14.00">(6)</text>
</g>
<!-- s6&#45;&gt;s7 -->
<g id="edge31" class="edge">
<title>s6&#45;&gt;s7</title>
<path fill="none" stroke="black" d="M833.63,-250.51C833.63,-239.01 833.63,-223.01 833.63,-209.62"/>
<polygon fill="black" stroke="black" points="837.13,-209.58 833.63,-199.58 830.13,-209.58 837.13,-209.58"/>
<text text-anchor="middle" x="869.63" y="-221.38" font-family="Times,serif" font-size="14.00">fire_trans(t1)</text>
</g>
<!-- s6&#45;&gt;s10 -->
<g id="edge30" class="edge">
<title>s6&#45;&gt;s10</title>
<path fill="none" stroke="black" d="M816.68,-255.78C813.39,-253.97 809.93,-252.15 806.63,-250.58 786.8,-241.16 774.45,-249.64 760.63,-232.58 755.5,-226.25 753.09,-217.88 752.08,-209.9"/>
<polygon fill="black" stroke="black" points="755.57,-209.59 751.46,-199.82 748.58,-210.02 755.57,-209.59"/>
<text text-anchor="middle" x="796.63" y="-221.38" font-family="Times,serif" font-size="14.00">fire_trans(t3)</text>
</g>
<!-- s8 -->
<g id="node10" class="node">
<title>s8</title>
<ellipse fill="none" stroke="black" cx="792.63" cy="-99.79" rx="22.76" ry="16.03"/>
<text text-anchor="middle" x="792.63" y="-96.09" font-family="Times,serif" font-size="14.00">(8)</text>
</g>
<!-- s7&#45;&gt;s8 -->
<g id="edge29" class="edge">
<title>s7&#45;&gt;s8</title>
<path fill="none" stroke="black" d="M833.44,-166.78C832.76,-156.93 830.81,-144.19 825.63,-134.05 822.94,-128.8 819.13,-123.86 815.05,-119.47"/>
<polygon fill="black" stroke="black" points="817.2,-116.68 807.59,-112.22 812.32,-121.7 817.2,-116.68"/>
<text text-anchor="middle" x="865.63" y="-137.85" font-family="Times,serif" font-size="14.00">fire_trans(t3)</text>
</g>
<!-- s8&#45;&gt;s1 -->
<g id="edge28" class="edge">
<title>s8&#45;&gt;s1</title>
<path fill="none" stroke="black" d="M792.63,-83.46C792.63,-71.95 792.63,-55.96 792.63,-42.57"/>
<polygon fill="black" stroke="black" points="796.13,-42.53 792.63,-32.53 789.13,-42.53 796.13,-42.53"/>
<text text-anchor="middle" x="828.63" y="-54.33" font-family="Times,serif" font-size="14.00">fire_trans(t3)</text>
</g>
<!-- s9 -->
<g id="node11" class="node">
<title>s9</title>
<ellipse fill="none" stroke="black" cx="498.63" cy="-433.9" rx="27.65" ry="16.03"/>
<text text-anchor="middle" x="498.63" y="-430.2" font-family="Times,serif" font-size="14.00">(10)</text>
</g>
<!-- s9&#45;&gt;s9 -->
<g id="edge21" class="edge">
<title>s9&#45;&gt;s9</title>
<path fill="none" stroke="black" d="M526.34,-435.07C526.49,-435.05 526.63,-435.04 526.77,-435.02"/>
<polygon fill="black" stroke="black" points="531.64,-441.9 526.34,-432.73 524.76,-443.2 531.64,-441.9"/>
<text text-anchor="middle" x="582.7" y="-430.2" font-family="Times,serif" font-size="14.00">get_tokens(p4, [4])</text>
</g>
<!-- s9&#45;&gt;s9 -->
<g id="edge22" class="edge">
<title>s9&#45;&gt;s9</title>
<path fill="none" stroke="black" d="M526.23,-436.19C566.5,-437.63 635.2,-436.87 635.2,-433.9 635.2,-431.17 577.07,-430.3 536.4,-431.3"/>
<polygon fill="black" stroke="black" points="536.12,-427.81 526.23,-431.6 536.33,-434.8 536.12,-427.81"/>
<text text-anchor="middle" x="684.2" y="-430.2" font-family="Times,serif" font-size="14.00">get_tokens(p0, [])</text>
</g>
<!-- s9&#45;&gt;s9 -->
<g id="edge23" class="edge">
<title>s9&#45;&gt;s9</title>
<path fill="none" stroke="black" d="M526.07,-436.68C588.46,-439.68 733.2,-438.75 733.2,-433.9 733.2,-429.29 602.79,-428.22 536.18,-430.69"/>
<polygon fill="black" stroke="black" points="535.92,-427.19 526.07,-431.11 536.21,-434.19 535.92,-427.19"/>
<text text-anchor="middle" x="792.7" y="-430.2" font-family="Times,serif" font-size="14.00">get_tokens(p1, [1, 1])</text>
</g>
<!-- s9&#45;&gt;s9 -->
<g id="edge24" class="edge">
<title>s9&#45;&gt;s9</title>
<path fill="none" stroke="black" d="M525.8,-437.01C609.15,-441.71 852.2,-440.67 852.2,-433.9 852.2,-427.38 627.31,-426.17 536,-430.27"/>
<polygon fill="black" stroke="black" points="535.62,-426.79 525.8,-430.78 535.97,-433.78 535.62,-426.79"/>
<text text-anchor="middle" x="901.2" y="-430.2" font-family="Times,serif" font-size="14.00">get_tokens(p3, [])</text>
</g>
<!-- s9&#45;&gt;s9 -->
<g id="edge25" class="edge">
<title>s9&#45;&gt;s9</title>
<path fill="none" stroke="black" d="M525.82,-437.4C624.01,-443.72 950.2,-442.55 950.2,-433.9 950.2,-425.52 644.7,-424.16 536.01,-429.81"/>
<polygon fill="black" stroke="black" points="535.6,-426.33 525.82,-430.4 536.01,-433.32 535.6,-426.33"/>
<text text-anchor="middle" x="999.2" y="-430.2" font-family="Times,serif" font-size="14.00">get_tokens(p5, [])</text>
</g>
<!-- s9&#45;&gt;s9 -->
<g id="edge27" class="edge">
<title>s9&#45;&gt;s9</title>
<path fill="none" stroke="black" d="M525.68,-437.73C636.95,-445.72 1048.2,-444.44 1048.2,-433.9 1048.2,-423.65 659.91,-422.15 535.84,-429.41"/>
<polygon fill="black" stroke="black" points="535.43,-425.93 525.68,-430.07 535.88,-432.91 535.43,-425.93"/>
<text text-anchor="middle" x="1100.7" y="-430.2" font-family="Times,serif" font-size="14.00">get_tokens(p2, [2])</text>
</g>
<!-- s11 -->
<g id="node13" class="node">
<title>s11</title>
<ellipse fill="none" stroke="black" cx="886.63" cy="-350.37" rx="27.65" ry="16.03"/>
<text text-anchor="middle" x="886.63" y="-346.67" font-family="Times,serif" font-size="14.00">(13)</text>
</g>
<!-- s9&#45;&gt;s11 -->
<g id="edge26" class="edge">
<title>s9&#45;&gt;s11</title>
<path fill="none" stroke="black" d="M525.57,-430.31C585.78,-424 735.36,-405.44 854.63,-366.63 855.5,-366.35 856.38,-366.05 857.26,-365.73"/>
<polygon fill="black" stroke="black" points="858.72,-368.92 866.64,-361.88 856.06,-362.44 858.72,-368.92"/>
<text text-anchor="middle" x="823.63" y="-388.43" font-family="Times,serif" font-size="14.00">fire_trans(t2)</text>
</g>
<!-- s10&#45;&gt;s8 -->
<g id="edge20" class="edge">
<title>s10&#45;&gt;s8</title>
<path fill="none" stroke="black" d="M751.12,-166.78C750.82,-156.93 751.69,-144.18 756.63,-134.05 759.52,-128.13 763.95,-122.75 768.73,-118.12"/>
<polygon fill="black" stroke="black" points="771.1,-120.7 776.36,-111.5 766.51,-115.41 771.1,-120.7"/>
<text text-anchor="middle" x="792.63" y="-137.85" font-family="Times,serif" font-size="14.00">fire_trans(t1)</text>
</g>
<!-- s11&#45;&gt;s6 -->
<g id="edge19" class="edge">
<title>s11&#45;&gt;s6</title>
<path fill="none" stroke="black" d="M877.15,-334.8C869.19,-322.55 857.67,-304.83 848.48,-290.7"/>
<polygon fill="black" stroke="black" points="851.23,-288.5 842.84,-282.02 845.36,-292.31 851.23,-288.5"/>
<text text-anchor="middle" x="900.63" y="-304.91" font-family="Times,serif" font-size="14.00">fire_trans(t1)</text>
</g>
<!-- s12&#45;&gt;s5 -->
<g id="edge17" class="edge">
<title>s12&#45;&gt;s5</title>
<path fill="none" stroke="black" d="M396.54,-510.95C343.41,-497.16 203.69,-460.88 138.3,-443.9"/>
<polygon fill="black" stroke="black" points="139.03,-440.47 128.47,-441.35 137.27,-447.25 139.03,-440.47"/>
<text text-anchor="middle" x="324.63" y="-471.96" font-family="Times,serif" font-size="14.00">fire_trans(t1)</text>
</g>
<!-- s12&#45;&gt;s9 -->
<g id="edge18" class="edge">
<title>s12&#45;&gt;s9</title>
<path fill="none" stroke="black" d="M416.62,-501.05C416.73,-490.76 418.5,-477.47 425.63,-468.16 434.83,-456.15 449.37,-448.34 463.05,-443.34"/>
<polygon fill="black" stroke="black" points="464.36,-446.59 472.78,-440.16 462.19,-439.94 464.36,-446.59"/>
<text text-anchor="middle" x="461.63" y="-471.96" font-family="Times,serif" font-size="14.00">fire_trans(t0)</text>
</g>
<!-- s13&#45;&gt;s9 -->
<g id="edge16" class="edge">
<title>s13&#45;&gt;s9</title>
<path fill="none" stroke="black" d="M498.63,-501.09C498.63,-489.59 498.63,-473.59 498.63,-460.2"/>
<polygon fill="black" stroke="black" points="502.13,-460.16 498.63,-450.16 495.13,-460.16 502.13,-460.16"/>
<text text-anchor="middle" x="534.63" y="-471.96" font-family="Times,serif" font-size="14.00">fire_trans(t2)</text>
</g>
<!-- s13&#45;&gt;s13 -->
<g id="edge10" class="edge">
<title>s13&#45;&gt;s13</title>
<path fill="none" stroke="black" d="M526.34,-518.6C526.49,-518.58 526.63,-518.56 526.77,-518.55"/>
<polygon fill="black" stroke="black" points="531.64,-525.43 526.34,-516.25 524.76,-526.73 531.64,-525.43"/>
<text text-anchor="middle" x="579.2" y="-513.72" font-family="Times,serif" font-size="14.00">get_tokens(p0, [])</text>
</g>
<!-- s13&#45;&gt;s13 -->
<g id="edge11" class="edge">
<title>s13&#45;&gt;s13</title>
<path fill="none" stroke="black" d="M525.99,-519.75C564.38,-521.15 628.2,-520.37 628.2,-517.42 628.2,-514.73 574.88,-513.85 536.39,-514.78"/>
<polygon fill="black" stroke="black" points="535.88,-511.3 525.99,-515.1 536.09,-518.29 535.88,-511.3"/>
<text text-anchor="middle" x="687.7" y="-513.72" font-family="Times,serif" font-size="14.00">get_tokens(p1, [1, 1])</text>
</g>
<!-- s13&#45;&gt;s13 -->
<g id="edge12" class="edge">
<title>s13&#45;&gt;s13</title>
<path fill="none" stroke="black" d="M526,-520.15C591.07,-523.22 747.2,-522.31 747.2,-517.42 747.2,-512.78 605.94,-511.73 536.15,-514.28"/>
<polygon fill="black" stroke="black" points="535.84,-510.79 526,-514.7 536.13,-517.79 535.84,-510.79"/>
<text text-anchor="middle" x="806.7" y="-513.72" font-family="Times,serif" font-size="14.00">get_tokens(p2, [2, 2])</text>
</g>
<!-- s13&#45;&gt;s13 -->
<g id="edge13" class="edge">
<title>s13&#45;&gt;s13</title>
<path fill="none" stroke="black" d="M525.8,-520.49C611.36,-525.24 866.2,-524.22 866.2,-517.42 866.2,-510.88 629.92,-509.69 536,-513.85"/>
<polygon fill="black" stroke="black" points="535.61,-510.37 525.8,-514.36 535.96,-517.36 535.61,-510.37"/>
<text text-anchor="middle" x="915.2" y="-513.72" font-family="Times,serif" font-size="14.00">get_tokens(p3, [])</text>
</g>
<!-- s13&#45;&gt;s13 -->
<g id="edge14" class="edge">
<title>s13&#45;&gt;s13</title>
<path fill="none" stroke="black" d="M525.84,-520.88C626.01,-527.25 964.2,-526.1 964.2,-517.42 964.2,-509.02 646.82,-507.68 535.91,-513.39"/>
<polygon fill="black" stroke="black" points="535.62,-509.91 525.84,-513.97 536.02,-516.89 535.62,-509.91"/>
<text text-anchor="middle" x="1013.2" y="-513.72" font-family="Times,serif" font-size="14.00">get_tokens(p4, [])</text>
</g>
<!-- s13&#45;&gt;s13 -->
<g id="edge15" class="edge">
<title>s13&#45;&gt;s13</title>
<path fill="none" stroke="black" d="M525.49,-521.2C638.26,-529.25 1062.2,-528 1062.2,-517.42 1062.2,-507.15 661.93,-505.67 535.8,-512.99"/>
<polygon fill="black" stroke="black" points="535.24,-509.51 525.49,-513.65 535.69,-516.5 535.24,-509.51"/>
<text text-anchor="middle" x="1111.2" y="-513.72" font-family="Times,serif" font-size="14.00">get_tokens(p5, [])</text>
</g>
</g>
</svg>
