<?xml version="1.0" encoding="UTF-8" standalone="no"?>
<!DOCTYPE svg PUBLIC "-//W3C//DTD SVG 1.1//EN"
 "http://www.w3.org/Graphics/SVG/1.1/DTD/svg11.dtd">
<!-- Generated by graphviz version 5.0.1 (0)
 -->
<!-- Title: G Pages: 1 -->
<svg width="3543pt" height="1483pt"
 viewBox="0.00 0.00 3543.00 1483.00" xmlns="http://www.w3.org/2000/svg" xmlns:xlink="http://www.w3.org/1999/xlink">
<g id="graph0" class="graph" transform="scale(1 1) rotate(0) translate(4 1479)">
<title>G</title>
<polygon fill="white" stroke="none" points="-4,4 -4,-1479 3539,-1479 3539,4 -4,4"/>
<!-- S4 -->
<g id="node1" class="node">
<title>S4</title>
<ellipse fill="none" stroke="black" cx="2141" cy="-1462" rx="9" ry="9"/>
<ellipse fill="none" stroke="black" cx="2141" cy="-1462" rx="13" ry="13"/>
</g>
<!-- S0 -->
<g id="node2" class="node">
<title>S0</title>
<ellipse fill="none" stroke="black" cx="2687" cy="-9" rx="9" ry="9"/>
</g>
<!-- S4&#45;&gt;S0 -->
<g id="edge128" class="edge">
<title>S4&#45;&gt;S0</title>
<path fill="none" stroke="black" d="M2153.97,-1460.98C2287.69,-1460.7 3410,-1456.4 3410,-1390 3410,-1390 3410,-1390 3410,-77 3410,-34.66 3365.1,-46.18 3324,-36 3202.68,-5.95 2799.66,-8.68 2706.39,-9.75"/>
<polygon fill="black" stroke="black" points="2706.12,-6.25 2696.17,-9.87 2706.21,-13.25 2706.12,-6.25"/>
<text text-anchor="middle" x="3472.5" y="-729.8" font-family="Times,serif" font-size="14.00">dont_request_principal</text>
</g>
<!-- S5 -->
<g id="node6" class="node">
<title>S5</title>
<ellipse fill="none" stroke="black" cx="882" cy="-1389" rx="9" ry="9"/>
</g>
<!-- S4&#45;&gt;S5 -->
<g id="edge127" class="edge">
<title>S4&#45;&gt;S5</title>
<path fill="none" stroke="black" d="M2127.71,-1460.25C2003.61,-1453.25 1048.8,-1399.41 901.15,-1391.08"/>
<polygon fill="black" stroke="black" points="901.15,-1387.57 890.96,-1390.51 900.75,-1394.56 901.15,-1387.57"/>
<text text-anchor="middle" x="1634" y="-1419.8" font-family="Times,serif" font-size="14.00">request_principal</text>
</g>
<!-- S0&#45;&gt;S0 -->
<g id="edge1" class="edge">
<title>S0&#45;&gt;S0</title>
<path fill="none" stroke="black" d="M2693.82,-15.22C2695.77,-15.68 2697.58,-15.13 2697.44,-12.28"/>
<polygon fill="black" stroke="black" points="2700.65,-10.88 2693.82,-2.78 2694.11,-13.37 2700.65,-10.88"/>
<text text-anchor="middle" x="2722" y="-5.3" font-family="Times,serif" font-size="14.00">fulfilled</text>
</g>
<!-- S1 -->
<g id="node3" class="node">
<title>S1</title>
<ellipse fill="none" stroke="black" cx="1710" cy="-423" rx="9" ry="9"/>
</g>
<!-- S2 -->
<g id="node4" class="node">
<title>S2</title>
<ellipse fill="none" stroke="black" cx="1579" cy="-78" rx="9" ry="9"/>
</g>
<!-- S2&#45;&gt;S0 -->
<g id="edge131" class="edge">
<title>S2&#45;&gt;S0</title>
<path fill="none" stroke="black" d="M1587.93,-75.81C1630.06,-70.27 1813.14,-46.73 1964,-36 2243.4,-16.12 2584.68,-11.15 2668,-10.19"/>
<polygon fill="black" stroke="black" points="2668.04,-13.69 2678.01,-10.08 2667.97,-6.69 2668.04,-13.69"/>
<text text-anchor="middle" x="2071" y="-39.8" font-family="Times,serif" font-size="14.00">pay(accelerated, borrower, lender, 525)</text>
</g>
<!-- S23 -->
<g id="node24" class="node">
<title>S23</title>
<ellipse fill="none" stroke="black" cx="74" cy="-9" rx="9" ry="9"/>
</g>
<!-- S2&#45;&gt;S23 -->
<g id="edge132" class="edge">
<title>S2&#45;&gt;S23</title>
<path fill="none" stroke="black" d="M1569.78,-76.59C1452.84,-71.38 260.14,-18.29 93.33,-10.86"/>
<polygon fill="black" stroke="black" points="93.27,-7.35 83.12,-10.41 92.96,-14.35 93.27,-7.35"/>
<text text-anchor="middle" x="1105" y="-39.8" font-family="Times,serif" font-size="14.00">payment_default(accelerated, borrower, lender, 525)</text>
</g>
<!-- S3 -->
<g id="node5" class="node">
<title>S3</title>
<ellipse fill="none" stroke="black" cx="2194" cy="-768" rx="9" ry="9"/>
</g>
<!-- S3&#45;&gt;S0 -->
<g id="edge129" class="edge">
<title>S3&#45;&gt;S0</title>
<path fill="none" stroke="black" d="M2202.94,-765.91C2262.22,-758.65 2604.57,-716.29 2882,-672 2963.18,-659.04 3002.94,-694.04 3064,-639 3152.69,-559.04 3046.29,-456.26 3139,-381 3180.01,-347.71 3338.62,-400.31 3376,-363 3400.3,-338.75 3382,-320.33 3382,-286 3382,-286 3382,-286 3382,-77 3382,-7.12 2818.12,-8.77 2706.18,-9.78"/>
<polygon fill="black" stroke="black" points="2706.01,-6.29 2696.04,-9.89 2706.08,-13.28 2706.01,-6.29"/>
<text text-anchor="middle" x="3249.5" y="-384.8" font-family="Times,serif" font-size="14.00">pay(accelerated, borrower, lender, 1075)</text>
</g>
<!-- S3&#45;&gt;S23 -->
<g id="edge130" class="edge">
<title>S3&#45;&gt;S23</title>
<path fill="none" stroke="black" d="M2184.71,-766.84C2048.67,-764.48 462.44,-734.15 310,-603 291.66,-587.22 305.66,-571.24 291,-552 219.24,-457.8 130.19,-500.77 75,-396 66.5,-379.87 74,-373.23 74,-355 74,-355 74,-355 74,-77 74,-60.63 74,-42 74,-28.55"/>
<polygon fill="black" stroke="black" points="77.5,-28.25 74,-18.25 70.5,-28.25 77.5,-28.25"/>
<text text-anchor="middle" x="221.5" y="-384.8" font-family="Times,serif" font-size="14.00">payment_default(accelerated, borrower, lender, 1075)</text>
</g>
<!-- S5&#45;&gt;S23 -->
<g id="edge126" class="edge">
<title>S5&#45;&gt;S23</title>
<path fill="none" stroke="black" d="M872.98,-1387.81C780.05,-1385.76 0,-1367.21 0,-1321 0,-1321 0,-1321 0,-77 0,-46.63 34.68,-26.44 56.56,-16.73"/>
<polygon fill="black" stroke="black" points="57.9,-19.96 65.8,-12.9 55.22,-13.49 57.9,-19.96"/>
<text text-anchor="middle" x="140" y="-695.3" font-family="Times,serif" font-size="14.00">payment_default(principal, lender, borrower, 1000)</text>
</g>
<!-- S24 -->
<g id="node25" class="node">
<title>S24</title>
<ellipse fill="none" stroke="black" cx="882" cy="-1320" rx="9" ry="9"/>
</g>
<!-- S5&#45;&gt;S24 -->
<g id="edge125" class="edge">
<title>S5&#45;&gt;S24</title>
<path fill="none" stroke="black" d="M882,-1379.78C882,-1369.84 882,-1352.78 882,-1339.6"/>
<polygon fill="black" stroke="black" points="885.5,-1339.28 882,-1329.28 878.5,-1339.28 885.5,-1339.28"/>
<text text-anchor="middle" x="986" y="-1350.8" font-family="Times,serif" font-size="14.00">pay(principal, lender, borrower, 1000)</text>
</g>
<!-- S6 -->
<g id="node7" class="node">
<title>S6</title>
<ellipse fill="none" stroke="black" cx="1996" cy="-1182" rx="9" ry="9"/>
</g>
<!-- S6&#45;&gt;S1 -->
<g id="edge120" class="edge">
<title>S6&#45;&gt;S1</title>
<path fill="none" stroke="black" d="M2004.94,-1180.95C2110.09,-1180.3 3107,-1172.57 3107,-1114 3107,-1114 3107,-1114 3107,-698 3107,-658.8 3097.33,-641.63 3064,-621 2825.78,-473.59 1877.16,-430.58 1729.39,-424.73"/>
<polygon fill="black" stroke="black" points="1729.31,-421.22 1719.18,-424.33 1729.04,-428.22 1729.31,-421.22"/>
<text text-anchor="middle" x="3207" y="-798.8" font-family="Times,serif" font-size="14.00">dont_cure_default|dont_cure_default</text>
</g>
<!-- S6&#45;&gt;S3 -->
<g id="edge119" class="edge">
<title>S6&#45;&gt;S3</title>
<path fill="none" stroke="black" d="M2005.02,-1180.76C2094.75,-1178.34 2824,-1157.31 2824,-1114 2824,-1114 2824,-1114 2824,-1008.5 2824,-989.56 2819.14,-983.23 2827,-966 2851.73,-911.79 2953.03,-909.02 2914,-864 2866.49,-809.19 2322.63,-776.16 2213.14,-770.04"/>
<polygon fill="black" stroke="black" points="2213.12,-766.53 2202.94,-769.47 2212.74,-773.52 2213.12,-766.53"/>
<text text-anchor="middle" x="2911.5" y="-971.3" font-family="Times,serif" font-size="14.00">cure_default|dont_cure_default</text>
</g>
<!-- S6&#45;&gt;S3 -->
<g id="edge123" class="edge">
<title>S6&#45;&gt;S3</title>
<path fill="none" stroke="black" d="M2005,-1180.89C2104.77,-1179.63 3001,-1166.84 3001,-1114 3001,-1114 3001,-1114 3001,-1008.5 3001,-903.05 2947.84,-858.85 2847,-828 2723.7,-790.28 2307.23,-773.11 2213.04,-769.67"/>
<polygon fill="black" stroke="black" points="2213.1,-766.17 2202.98,-769.3 2212.85,-773.16 2213.1,-766.17"/>
<text text-anchor="middle" x="3048.5" y="-971.3" font-family="Times,serif" font-size="14.00">dont_cure_default</text>
</g>
<!-- S9 -->
<g id="node10" class="node">
<title>S9</title>
<ellipse fill="none" stroke="black" cx="1996" cy="-1113" rx="9" ry="9"/>
</g>
<!-- S6&#45;&gt;S9 -->
<g id="edge122" class="edge">
<title>S6&#45;&gt;S9</title>
<path fill="none" stroke="black" d="M1996,-1172.78C1996,-1162.84 1996,-1145.78 1996,-1132.6"/>
<polygon fill="black" stroke="black" points="1999.5,-1132.28 1996,-1122.28 1992.5,-1132.28 1999.5,-1132.28"/>
<text text-anchor="middle" x="2030" y="-1143.8" font-family="Times,serif" font-size="14.00">cure_default</text>
</g>
<!-- S14 -->
<g id="node15" class="node">
<title>S14</title>
<ellipse fill="none" stroke="black" cx="1561" cy="-837" rx="9" ry="9"/>
</g>
<!-- S6&#45;&gt;S14 -->
<g id="edge121" class="edge">
<title>S6&#45;&gt;S14</title>
<path fill="none" stroke="black" d="M1987.44,-1179.21C1972.02,-1175.8 1938.8,-1167.55 1913,-1155 1889.72,-1143.67 1884.33,-1139.22 1865,-1122 1826.66,-1087.86 1834.01,-1059.71 1789,-1035 1742.5,-1009.47 1705.57,-1057.24 1671,-1017 1633.12,-972.91 1761.56,-940.5 1723,-897 1678.75,-847.09 1625.36,-921.56 1574,-879 1567.28,-873.43 1563.99,-864.4 1562.39,-856.23"/>
<polygon fill="black" stroke="black" points="1565.83,-855.51 1561.11,-846.03 1558.88,-856.39 1565.83,-855.51"/>
<text text-anchor="middle" x="1705" y="-1005.8" font-family="Times,serif" font-size="14.00">cure_default</text>
</g>
<!-- S6&#45;&gt;S24 -->
<g id="edge124" class="edge">
<title>S6&#45;&gt;S24</title>
<path fill="none" stroke="black" d="M1989.3,-1188.05C1964.4,-1206.5 1874.12,-1270.32 1788,-1293 1699.55,-1316.3 1024.46,-1318.72 901.27,-1318.97"/>
<polygon fill="black" stroke="black" points="901.1,-1315.47 891.1,-1318.99 901.11,-1322.47 901.1,-1315.47"/>
<text text-anchor="middle" x="1973.5" y="-1247.3" font-family="Times,serif" font-size="14.00">cure_default|cure_default</text>
</g>
<!-- S7 -->
<g id="node8" class="node">
<title>S7</title>
<ellipse fill="none" stroke="black" cx="1580" cy="-492" rx="9" ry="9"/>
</g>
<!-- S7&#45;&gt;S1 -->
<g id="edge115" class="edge">
<title>S7&#45;&gt;S1</title>
<path fill="none" stroke="black" d="M1586.18,-485.19C1591.58,-480.04 1599.53,-472.23 1606,-465 1611.69,-458.64 1610.89,-454.72 1618,-450 1640.43,-435.12 1671.36,-428.66 1691.02,-425.92"/>
<polygon fill="black" stroke="black" points="1691.64,-429.37 1701.15,-424.7 1690.8,-422.42 1691.64,-429.37"/>
<text text-anchor="middle" x="1718" y="-453.8" font-family="Times,serif" font-size="14.00">dont_cure_default|dont_cure_default</text>
</g>
<!-- S7&#45;&gt;S2 -->
<g id="edge114" class="edge">
<title>S7&#45;&gt;S2</title>
<path fill="none" stroke="black" d="M1585.29,-484.16C1588.8,-479.16 1593.11,-472.05 1595,-465 1608.8,-413.48 1623.96,-389.79 1595,-345 1584.41,-328.63 1565.59,-343.37 1555,-327 1551.38,-321.4 1552.63,-318.23 1555,-312 1558.8,-302 1566.28,-303.61 1571,-294 1579.47,-276.75 1579,-270.72 1579,-251.5 1579,-251.5 1579,-251.5 1579,-146 1579,-129.63 1579,-111 1579,-97.55"/>
<polygon fill="black" stroke="black" points="1582.5,-97.25 1579,-87.25 1575.5,-97.25 1582.5,-97.25"/>
<text text-anchor="middle" x="1662.5" y="-281.3" font-family="Times,serif" font-size="14.00">cure_default|dont_cure_default</text>
</g>
<!-- S7&#45;&gt;S2 -->
<g id="edge118" class="edge">
<title>S7&#45;&gt;S2</title>
<path fill="none" stroke="black" d="M1582.78,-483.31C1590.57,-460.35 1610.33,-390.99 1583,-345 1574.86,-331.3 1565.48,-335.49 1552,-327 1541.99,-320.69 1540.67,-317.12 1530,-312 1505.28,-300.14 1487.31,-316.03 1471,-294 1466.24,-287.57 1469.02,-283.75 1471,-276 1490.03,-201.7 1543.56,-125.3 1567.35,-93.87"/>
<polygon fill="black" stroke="black" points="1570.38,-95.67 1573.71,-85.61 1564.83,-91.4 1570.38,-95.67"/>
<text text-anchor="middle" x="1520.5" y="-281.3" font-family="Times,serif" font-size="14.00">dont_cure_default</text>
</g>
<!-- S8 -->
<g id="node9" class="node">
<title>S8</title>
<ellipse fill="none" stroke="black" cx="1904" cy="-630" rx="9" ry="9"/>
</g>
<!-- S7&#45;&gt;S8 -->
<g id="edge117" class="edge">
<title>S7&#45;&gt;S8</title>
<path fill="none" stroke="black" d="M1588.89,-494.17C1611.09,-497.19 1670.64,-505.96 1719,-519 1807.36,-542.82 1860.23,-513.23 1913,-588 1918.08,-595.2 1916.35,-604.75 1913.12,-612.82"/>
<polygon fill="black" stroke="black" points="1909.89,-611.45 1908.61,-621.96 1916.17,-614.54 1909.89,-611.45"/>
<text text-anchor="middle" x="1931" y="-557.3" font-family="Times,serif" font-size="14.00">cure_default</text>
</g>
<!-- S15 -->
<g id="node16" class="node">
<title>S15</title>
<ellipse fill="none" stroke="black" cx="1277" cy="-147" rx="9" ry="9"/>
</g>
<!-- S7&#45;&gt;S15 -->
<g id="edge116" class="edge">
<title>S7&#45;&gt;S15</title>
<path fill="none" stroke="black" d="M1581,-482.93C1584.21,-455.37 1593.09,-365.57 1575,-345 1542.28,-307.8 1506.99,-353.28 1465,-327 1394.44,-282.85 1424,-223.39 1357,-174 1338.77,-160.57 1313.28,-153.87 1296.01,-150.67"/>
<polygon fill="black" stroke="black" points="1296.44,-147.2 1286.01,-149.05 1295.31,-154.11 1296.44,-147.2"/>
<text text-anchor="middle" x="1499" y="-315.8" font-family="Times,serif" font-size="14.00">cure_default</text>
</g>
<!-- S17 -->
<g id="node18" class="node">
<title>S17</title>
<ellipse fill="none" stroke="black" cx="725" cy="-423" rx="9" ry="9"/>
</g>
<!-- S7&#45;&gt;S17 -->
<g id="edge113" class="edge">
<title>S7&#45;&gt;S17</title>
<path fill="none" stroke="black" d="M1571.07,-490.06C1554.91,-488.39 1519.74,-484.91 1490,-483 1287.15,-470 1234.78,-489.54 1033,-465 1000.12,-461 992.72,-455.16 960,-450 880.29,-437.43 784.42,-428.83 744.21,-425.52"/>
<polygon fill="black" stroke="black" points="744.25,-422.01 734,-424.69 743.69,-428.99 744.25,-422.01"/>
<text text-anchor="middle" x="1102.5" y="-453.8" font-family="Times,serif" font-size="14.00">cure_default|cure_default</text>
</g>
<!-- S8&#45;&gt;S0 -->
<g id="edge105" class="edge">
<title>S8&#45;&gt;S0</title>
<path fill="none" stroke="black" d="M1912.99,-628.76C1985.8,-626.76 2476.73,-612.95 2488,-603 2501.86,-590.77 2495,-580.49 2495,-562 2495,-562 2495,-562 2495,-387.5 2495,-368.36 2488.05,-358.11 2502,-345 2530.81,-317.92 2649.8,-353.65 2679,-327 2692.71,-314.49 2687,-304.57 2687,-286 2687,-286 2687,-286 2687,-77 2687,-60.63 2687,-42 2687,-28.55"/>
<polygon fill="black" stroke="black" points="2690.5,-28.25 2687,-18.25 2683.5,-28.25 2690.5,-28.25"/>
<text text-anchor="middle" x="2818.5" y="-315.8" font-family="Times,serif" font-size="14.00">cure_default|pay(normal, borrower, lender, 525)</text>
</g>
<!-- S8&#45;&gt;S0 -->
<g id="edge106" class="edge">
<title>S8&#45;&gt;S0</title>
<path fill="none" stroke="black" d="M1912.94,-628.92C1985.33,-628.17 2473,-620.93 2473,-562 2473,-562 2473,-562 2473,-422 2473,-387.71 2492.26,-369.24 2468,-345 2423.57,-300.62 2231.14,-370.65 2186,-327 2172.84,-314.27 2182,-304.31 2182,-286 2182,-286 2182,-286 2182,-77 2182,-27.07 2575.02,-13.09 2667.62,-10.49"/>
<polygon fill="black" stroke="black" points="2667.9,-13.99 2677.8,-10.22 2667.71,-6.99 2667.9,-13.99"/>
<text text-anchor="middle" x="2333" y="-315.8" font-family="Times,serif" font-size="14.00">dont_cure_default|pay(normal, borrower, lender, 525)</text>
</g>
<!-- S8&#45;&gt;S0 -->
<g id="edge111" class="edge">
<title>S8&#45;&gt;S0</title>
<path fill="none" stroke="black" d="M1912.92,-628.74C1976,-626.85 2353.61,-615.13 2403,-603 2442.18,-593.37 2484,-602.35 2484,-562 2484,-562 2484,-562 2484,-422 2484,-376.89 2485,-365.61 2485,-320.5 2485,-320.5 2485,-320.5 2485,-77 2485,-38.69 2617.52,-18.49 2667.89,-12.19"/>
<polygon fill="black" stroke="black" points="2668.55,-15.64 2678.06,-10.97 2667.71,-8.68 2668.55,-15.64"/>
<text text-anchor="middle" x="2581.5" y="-315.8" font-family="Times,serif" font-size="14.00">pay(normal, borrower, lender, 525)</text>
</g>
<!-- S8&#45;&gt;S2 -->
<g id="edge108" class="edge">
<title>S8&#45;&gt;S2</title>
<path fill="none" stroke="black" d="M1913.02,-627.96C1951.76,-623.27 2102,-602.46 2102,-562 2102,-562 2102,-562 2102,-387.5 2102,-368.56 2093.24,-359.84 2105,-345 2121.76,-323.85 2145.21,-347.3 2163,-327 2175.18,-313.1 2170,-304.49 2170,-286 2170,-286 2170,-286 2170,-146 2170,-127.51 2176.86,-117.23 2163,-105 2141.36,-85.9 1697,-80.21 1598.31,-79.18"/>
<polygon fill="black" stroke="black" points="1598.29,-75.68 1588.26,-79.08 1598.22,-82.68 1598.29,-75.68"/>
<text text-anchor="middle" x="2288" y="-350.3" font-family="Times,serif" font-size="14.00">dont_cure_default|payment_default(normal, borrower, lender, 525)</text>
</g>
<!-- S8&#45;&gt;S2 -->
<g id="edge109" class="edge">
<title>S8&#45;&gt;S2</title>
<path fill="none" stroke="black" d="M1912.73,-627.04C1935.5,-621.35 1995,-602.61 1995,-562 1995,-562 1995,-562 1995,-387.5 1995,-368.56 1984.93,-358.7 1998,-345 2045.27,-295.47 2100.79,-373.55 2151,-327 2164.61,-314.38 2159,-304.57 2159,-286 2159,-286 2159,-286 2159,-146 2159,-88.23 1699.04,-80.22 1598.33,-79.16"/>
<polygon fill="black" stroke="black" points="1598.14,-75.65 1588.11,-79.06 1598.08,-82.65 1598.14,-75.65"/>
<text text-anchor="middle" x="2047.5" y="-350.3" font-family="Times,serif" font-size="14.00">dont_cure_default</text>
</g>
<!-- S13 -->
<g id="node14" class="node">
<title>S13</title>
<ellipse fill="none" stroke="black" cx="1547" cy="-561" rx="9" ry="9"/>
</g>
<!-- S8&#45;&gt;S13 -->
<g id="edge112" class="edge">
<title>S8&#45;&gt;S13</title>
<path fill="none" stroke="black" d="M1897.16,-623.91C1895.26,-622.75 1893.13,-621.66 1891,-621 1851.36,-608.74 1546.62,-633.04 1518,-603 1509.08,-593.64 1520.23,-581.36 1531.19,-572.69"/>
<polygon fill="black" stroke="black" points="1533.51,-575.33 1539.56,-566.63 1529.4,-569.66 1533.51,-575.33"/>
<text text-anchor="middle" x="1650.5" y="-591.8" font-family="Times,serif" font-size="14.00">payment_default(normal, borrower, lender, 525)</text>
</g>
<!-- S8&#45;&gt;S17 -->
<g id="edge110" class="edge">
<title>S8&#45;&gt;S17</title>
<path fill="none" stroke="black" d="M1897.16,-623.9C1895.26,-622.74 1893.13,-621.65 1891,-621 1803.6,-594.18 1571.19,-609.48 1480,-603 1470.24,-602.31 786.07,-540.76 779,-534 751.76,-507.92 787.64,-481.56 767,-450 761.26,-441.23 751.44,-434.91 742.73,-430.7"/>
<polygon fill="black" stroke="black" points="743.91,-427.39 733.33,-426.7 741.17,-433.84 743.91,-427.39"/>
<text text-anchor="middle" x="813" y="-522.8" font-family="Times,serif" font-size="14.00">cure_default</text>
</g>
<!-- S22 -->
<g id="node23" class="node">
<title>S22</title>
<ellipse fill="none" stroke="black" cx="1127" cy="-354" rx="9" ry="9"/>
</g>
<!-- S8&#45;&gt;S22 -->
<g id="edge107" class="edge">
<title>S8&#45;&gt;S22</title>
<path fill="none" stroke="black" d="M1897.16,-623.91C1895.26,-622.74 1893.13,-621.66 1891,-621 1849.65,-608.26 1537.56,-627.65 1502,-603 1468.62,-579.86 1499.22,-542.37 1466,-519 1411.56,-480.7 1218.69,-542.95 1167,-501 1156.92,-492.82 1138.58,-410.31 1130.73,-373.07"/>
<polygon fill="black" stroke="black" points="1134.11,-372.17 1128.65,-363.1 1127.26,-373.6 1134.11,-372.17"/>
<text text-anchor="middle" x="1334.5" y="-488.3" font-family="Times,serif" font-size="14.00">cure_default|payment_default(normal, borrower, lender, 525)</text>
</g>
<!-- S9&#45;&gt;S2 -->
<g id="edge98" class="edge">
<title>S9&#45;&gt;S2</title>
<path fill="none" stroke="black" d="M2004.95,-1112.01C2052.42,-1111.96 2279.47,-1110.38 2463,-1086 2533.25,-1076.67 2550.56,-1071.38 2619,-1053 2668.68,-1039.66 2681.74,-1037.32 2729,-1017 2757.32,-1004.82 2763.78,-1000.2 2790,-984 2859.23,-941.24 2884.71,-938.71 2940,-879 2991.04,-823.88 3062.47,-644.48 3112,-588 3165.55,-526.94 3435.61,-408.52 3385,-345 3331.58,-277.95 2449.13,-135.92 2171,-105 1946.8,-80.07 1672.36,-78.77 1598.22,-78.91"/>
<polygon fill="black" stroke="black" points="1598.07,-75.41 1588.08,-78.94 1598.09,-82.41 1598.07,-75.41"/>
<text text-anchor="middle" x="3259" y="-591.8" font-family="Times,serif" font-size="14.00">dont_cure_default|pay(normal, borrower, lender, 550)</text>
</g>
<!-- S9&#45;&gt;S3 -->
<g id="edge100" class="edge">
<title>S9&#45;&gt;S3</title>
<path fill="none" stroke="black" d="M2005.11,-1112.1C2063.34,-1112.68 2381.92,-1114.49 2413,-1086 2463.69,-1039.54 2385.48,-979.64 2436,-933 2478.39,-893.86 2655.64,-957.19 2695,-915 2765.45,-839.49 2313.12,-782.68 2213.23,-771.15"/>
<polygon fill="black" stroke="black" points="2213.41,-767.65 2203.08,-770 2212.62,-774.6 2213.41,-767.65"/>
<text text-anchor="middle" x="2619" y="-936.8" font-family="Times,serif" font-size="14.00">dont_cure_default|payment_default(normal, borrower, lender, 550)</text>
</g>
<!-- S9&#45;&gt;S3 -->
<g id="edge102" class="edge">
<title>S9&#45;&gt;S3</title>
<path fill="none" stroke="black" d="M1998.2,-1104.16C2000.92,-1095.45 2006.16,-1081.25 2014,-1071 2037.24,-1040.62 2061.71,-1050.02 2081,-1017 2108.4,-970.11 2072.82,-941.46 2104,-897 2119.07,-875.5 2131.07,-878.43 2153,-864 2165.36,-855.87 2172.85,-858.35 2181,-846 2192.53,-828.53 2194.88,-804.13 2194.93,-787.51"/>
<polygon fill="black" stroke="black" points="2198.43,-787.34 2194.68,-777.43 2191.43,-787.51 2198.43,-787.34"/>
<text text-anchor="middle" x="2139.5" y="-936.8" font-family="Times,serif" font-size="14.00">dont_cure_default</text>
</g>
<!-- S9&#45;&gt;S8 -->
<g id="edge103" class="edge">
<title>S9&#45;&gt;S8</title>
<path fill="none" stroke="black" d="M2005,-1111.81C2058.78,-1110.59 2338.23,-1103.5 2422,-1086 2510.5,-1067.51 2843.84,-1011.51 2799,-933 2704.45,-767.46 2043.41,-653.51 1922.85,-633.98"/>
<polygon fill="black" stroke="black" points="1923.34,-630.52 1912.91,-632.39 1922.23,-637.43 1923.34,-630.52"/>
<text text-anchor="middle" x="2842.5" y="-867.8" font-family="Times,serif" font-size="14.00">pay(normal, borrower, lender, 550)</text>
</g>
<!-- S10 -->
<g id="node11" class="node">
<title>S10</title>
<ellipse fill="none" stroke="black" cx="2148" cy="-1044" rx="9" ry="9"/>
</g>
<!-- S9&#45;&gt;S10 -->
<g id="edge104" class="edge">
<title>S9&#45;&gt;S10</title>
<path fill="none" stroke="black" d="M2005.19,-1111.65C2033.84,-1110.38 2120.73,-1105 2140,-1086 2145.96,-1080.12 2148.18,-1071.2 2148.81,-1063.18"/>
<polygon fill="black" stroke="black" points="2152.31,-1063.2 2148.89,-1053.17 2145.31,-1063.14 2152.31,-1063.2"/>
<text text-anchor="middle" x="2279.5" y="-1074.8" font-family="Times,serif" font-size="14.00">payment_default(normal, borrower, lender, 550)</text>
</g>
<!-- S9&#45;&gt;S17 -->
<g id="edge97" class="edge">
<title>S9&#45;&gt;S17</title>
<path fill="none" stroke="black" d="M1986.86,-1111.44C1965.63,-1110.12 1911.37,-1106.78 1866,-1104 1734.45,-1095.95 1700.26,-1106.07 1570,-1086 1542.83,-1081.81 1537.19,-1075.03 1510,-1071 1349.78,-1047.24 1304.41,-1086.82 1146,-1053 1084.9,-1039.96 1074.77,-1020.19 1015,-1002 909.57,-969.92 879.05,-977.96 773,-948 729.58,-935.73 713.24,-941.88 677,-915 615.67,-869.51 600.6,-835.23 605,-759 606.78,-728.18 604.54,-719.69 613,-690 636.54,-607.41 649.02,-585.8 703,-519 710.31,-509.95 717.11,-511.55 722,-501 730.6,-482.44 730,-458.59 728.12,-442.38"/>
<polygon fill="black" stroke="black" points="731.53,-441.51 726.64,-432.12 724.6,-442.51 731.53,-441.51"/>
<text text-anchor="middle" x="736.5" y="-764.3" font-family="Times,serif" font-size="14.00">cure_default|pay(normal, borrower, lender, 550)</text>
</g>
<!-- S21 -->
<g id="node22" class="node">
<title>S21</title>
<ellipse fill="none" stroke="black" cx="1038" cy="-975" rx="9" ry="9"/>
</g>
<!-- S9&#45;&gt;S21 -->
<g id="edge99" class="edge">
<title>S9&#45;&gt;S21</title>
<path fill="none" stroke="black" d="M1986.98,-1111.76C1936.07,-1110.21 1679.67,-1100.32 1477,-1053 1454,-1047.63 1449.9,-1040.8 1427,-1035 1287.31,-999.62 1113.68,-982.49 1056.91,-977.55"/>
<polygon fill="black" stroke="black" points="1057.15,-974.06 1046.89,-976.7 1056.56,-981.03 1057.15,-974.06"/>
<text text-anchor="middle" x="1644.5" y="-1040.3" font-family="Times,serif" font-size="14.00">cure_default|payment_default(normal, borrower, lender, 550)</text>
</g>
<!-- S9&#45;&gt;S24 -->
<g id="edge101" class="edge">
<title>S9&#45;&gt;S24</title>
<path fill="none" stroke="black" d="M1989.1,-1119.09C1949.84,-1148.01 1756.21,-1290.54 1749,-1293 1666.32,-1321.18 1021.31,-1319.64 901.22,-1319.1"/>
<polygon fill="black" stroke="black" points="901.02,-1315.6 891,-1319.05 900.99,-1322.6 901.02,-1315.6"/>
<text text-anchor="middle" x="1899" y="-1212.8" font-family="Times,serif" font-size="14.00">cure_default</text>
</g>
<!-- S10&#45;&gt;S3 -->
<g id="edge89" class="edge">
<title>S10&#45;&gt;S3</title>
<path fill="none" stroke="black" d="M2157.08,-1041.64C2170.1,-1039.18 2193.83,-1032.7 2206,-1017 2217.32,-1002.39 2213,-994.49 2213,-976 2213,-976 2213,-976 2213,-836 2213,-818.45 2206.89,-799.25 2201.6,-785.93"/>
<polygon fill="black" stroke="black" points="2204.79,-784.48 2197.66,-776.64 2198.34,-787.21 2204.79,-784.48"/>
<text text-anchor="middle" x="2323.5" y="-902.3" font-family="Times,serif" font-size="14.00">dont_cure_default|dont_notify_borrower</text>
</g>
<!-- S10&#45;&gt;S3 -->
<g id="edge90" class="edge">
<title>S10&#45;&gt;S3</title>
<path fill="none" stroke="black" d="M2156.94,-1042.34C2197.85,-1038.75 2368.18,-1017.87 2434,-915 2491.03,-825.86 2278.99,-782.94 2213.01,-771.93"/>
<polygon fill="black" stroke="black" points="2213.22,-768.42 2202.79,-770.29 2212.11,-775.33 2213.22,-768.42"/>
<text text-anchor="middle" x="2568.5" y="-902.3" font-family="Times,serif" font-size="14.00">dont_cure_default|notify_borrower_of_default</text>
</g>
<!-- S10&#45;&gt;S3 -->
<g id="edge92" class="edge">
<title>S10&#45;&gt;S3</title>
<path fill="none" stroke="black" d="M2154.15,-1037.4C2172.31,-1020.18 2222.76,-967.17 2195,-933 2170.38,-902.69 2133.62,-945.31 2109,-915 2103.96,-908.79 2104.63,-903.7 2109,-897 2119.88,-880.34 2132.93,-889.23 2150,-879 2170.36,-866.8 2181.35,-867.21 2192,-846 2201.26,-827.55 2200.08,-803.35 2197.68,-787.05"/>
<polygon fill="black" stroke="black" points="2201.13,-786.43 2195.94,-777.19 2194.24,-787.64 2201.13,-786.43"/>
<text text-anchor="middle" x="2158.5" y="-902.3" font-family="Times,serif" font-size="14.00">dont_cure_default</text>
</g>
<!-- S10&#45;&gt;S6 -->
<g id="edge96" class="edge">
<title>S10&#45;&gt;S6</title>
<path fill="none" stroke="black" d="M2157.05,-1045.18C2201.5,-1046.18 2395.42,-1051.61 2413,-1071 2417.48,-1075.94 2417.16,-1080.79 2413,-1086 2362.01,-1149.91 2090.17,-1174.16 2015.17,-1179.7"/>
<polygon fill="black" stroke="black" points="2014.62,-1176.23 2004.89,-1180.43 2015.11,-1183.21 2014.62,-1176.23"/>
<text text-anchor="middle" x="2465.5" y="-1109.3" font-family="Times,serif" font-size="14.00">notify_borrower_of_default</text>
</g>
<!-- S10&#45;&gt;S9 -->
<g id="edge95" class="edge">
<title>S10&#45;&gt;S9</title>
<path fill="none" stroke="black" d="M2138.93,-1044.63C2117.01,-1044.18 2060.22,-1045.71 2023,-1071 2020.46,-1072.72 2012.25,-1085.46 2005.54,-1096.28"/>
<polygon fill="black" stroke="black" points="2002.46,-1094.62 2000.22,-1104.98 2008.42,-1098.28 2002.46,-1094.62"/>
<text text-anchor="middle" x="2083" y="-1074.8" font-family="Times,serif" font-size="14.00">dont_notify_borrower</text>
</g>
<!-- S10&#45;&gt;S14 -->
<g id="edge91" class="edge">
<title>S10&#45;&gt;S14</title>
<path fill="none" stroke="black" d="M2140.88,-1038C2128.45,-1029.49 2101.77,-1012.13 2077,-1002 1988.2,-965.68 1947.3,-1002 1868,-948 1829.86,-922.03 1847.21,-886.63 1807,-864 1764.83,-840.26 1637.64,-854.47 1590,-846 1586.5,-845.38 1582.82,-844.52 1579.29,-843.6"/>
<polygon fill="black" stroke="black" points="1580.11,-840.19 1569.53,-840.81 1578.18,-846.92 1580.11,-840.19"/>
<text text-anchor="middle" x="1979" y="-936.8" font-family="Times,serif" font-size="14.00">cure_default|notify_borrower_of_default</text>
</g>
<!-- S10&#45;&gt;S21 -->
<g id="edge94" class="edge">
<title>S10&#45;&gt;S21</title>
<path fill="none" stroke="black" d="M2139.07,-1042.69C2089.12,-1040.93 1844.05,-1031.64 1770,-1017 1749.32,-1012.91 1745.74,-1005.77 1725,-1002 1591.84,-977.8 1155.48,-976.07 1057.6,-975.99"/>
<polygon fill="black" stroke="black" points="1057.39,-972.49 1047.39,-975.99 1057.39,-979.49 1057.39,-972.49"/>
<text text-anchor="middle" x="1804" y="-1005.8" font-family="Times,serif" font-size="14.00">cure_default</text>
</g>
<!-- S10&#45;&gt;S24 -->
<g id="edge93" class="edge">
<title>S10&#45;&gt;S24</title>
<path fill="none" stroke="black" d="M2157,-1045.42C2218.9,-1048.41 2579,-1067.7 2579,-1112 2579,-1252 2579,-1252 2579,-1252 2579,-1296.2 1089.29,-1316.39 901.4,-1318.76"/>
<polygon fill="black" stroke="black" points="901.09,-1315.27 891.13,-1318.89 901.17,-1322.26 901.09,-1315.27"/>
<text text-anchor="middle" x="2674" y="-1178.3" font-family="Times,serif" font-size="14.00">cure_default|dont_notify_borrower</text>
</g>
<!-- S11 -->
<g id="node12" class="node">
<title>S11</title>
<ellipse fill="none" stroke="black" cx="1746" cy="-906" rx="9" ry="9"/>
</g>
<!-- S11&#45;&gt;S3 -->
<g id="edge74" class="edge">
<title>S11&#45;&gt;S3</title>
<path fill="none" stroke="black" d="M1754.47,-902.8C1774.08,-897.33 1819.73,-882.24 1803,-864 1771.64,-829.81 1626.36,-880.19 1595,-846 1589.59,-840.1 1589.6,-833.9 1595,-828 1625.58,-794.59 1755.92,-826.73 1798,-810 1808,-806.03 1806.96,-798.88 1817,-795 1883.25,-769.41 2107.08,-768.51 2174.58,-768.84"/>
<polygon fill="black" stroke="black" points="2174.95,-772.34 2184.97,-768.91 2175,-765.34 2174.95,-772.34"/>
<text text-anchor="middle" x="1705.5" y="-833.3" font-family="Times,serif" font-size="14.00">dont_cure_default|dont_notify_borrower</text>
</g>
<!-- S11&#45;&gt;S3 -->
<g id="edge75" class="edge">
<title>S11&#45;&gt;S3</title>
<path fill="none" stroke="black" d="M1755.14,-903.75C1768.83,-901.4 1794.6,-895.01 1809,-879 1824.8,-861.44 1806.26,-843.6 1824,-828 1877.1,-781.3 2106.89,-771.37 2174.94,-769.43"/>
<polygon fill="black" stroke="black" points="2175.16,-772.93 2185.06,-769.17 2174.98,-765.93 2175.16,-772.93"/>
<text text-anchor="middle" x="1950.5" y="-833.3" font-family="Times,serif" font-size="14.00">dont_cure_default|notify_borrower_of_default</text>
</g>
<!-- S11&#45;&gt;S3 -->
<g id="edge76" class="edge">
<title>S11&#45;&gt;S3</title>
<path fill="none" stroke="black" d="M1754.96,-904.37C1801.92,-900.95 2019.57,-883.25 2074,-846 2081.74,-840.71 2078.2,-834.45 2085,-828 2112.22,-802.17 2152.93,-784.15 2176.13,-775.29"/>
<polygon fill="black" stroke="black" points="2177.52,-778.51 2185.71,-771.77 2175.11,-771.94 2177.52,-778.51"/>
<text text-anchor="middle" x="2134.5" y="-833.3" font-family="Times,serif" font-size="14.00">dont_cure_default</text>
</g>
<!-- S11&#45;&gt;S6 -->
<g id="edge80" class="edge">
<title>S11&#45;&gt;S6</title>
<path fill="none" stroke="black" d="M1752.9,-912.52C1768.97,-925.85 1808.68,-961.71 1824,-1002 1832.06,-1023.2 1815.48,-1032.9 1826,-1053 1859.7,-1117.37 1941.94,-1158.38 1978.26,-1173.93"/>
<polygon fill="black" stroke="black" points="1977.38,-1177.35 1987.95,-1177.94 1980.05,-1170.88 1977.38,-1177.35"/>
<text text-anchor="middle" x="1901.5" y="-1040.3" font-family="Times,serif" font-size="14.00">notify_borrower_of_default</text>
</g>
<!-- S11&#45;&gt;S9 -->
<g id="edge73" class="edge">
<title>S11&#45;&gt;S9</title>
<path fill="none" stroke="black" d="M1755,-906.91C1772.87,-907.25 1812.99,-910.62 1835,-933 1862.14,-960.6 1829.06,-991.3 1858,-1017 1898.32,-1052.81 1938.36,-998.44 1978,-1035 1994.06,-1049.81 1997.11,-1075.96 1997.12,-1093.63"/>
<polygon fill="black" stroke="black" points="1993.61,-1093.71 1996.79,-1103.82 2000.61,-1093.93 1993.61,-1093.71"/>
<text text-anchor="middle" x="1969" y="-1005.8" font-family="Times,serif" font-size="14.00">cure_default|notify_borrower_of_default</text>
</g>
<!-- S11&#45;&gt;S14 -->
<g id="edge79" class="edge">
<title>S11&#45;&gt;S14</title>
<path fill="none" stroke="black" d="M1738.98,-900.35C1737.08,-899.19 1735,-897.99 1733,-897 1712.94,-887.1 1704.06,-892.19 1686,-879 1679.11,-873.96 1681.28,-868.46 1674,-864 1640.34,-843.36 1625.25,-855.82 1587,-846 1584.53,-845.37 1581.94,-844.64 1579.4,-843.9"/>
<polygon fill="black" stroke="black" points="1580.2,-840.48 1569.61,-840.87 1578.13,-847.17 1580.2,-840.48"/>
<text text-anchor="middle" x="1746" y="-867.8" font-family="Times,serif" font-size="14.00">dont_notify_borrower</text>
</g>
<!-- S20 -->
<g id="node21" class="node">
<title>S20</title>
<ellipse fill="none" stroke="black" cx="879" cy="-768" rx="9" ry="9"/>
</g>
<!-- S11&#45;&gt;S20 -->
<g id="edge78" class="edge">
<title>S11&#45;&gt;S20</title>
<path fill="none" stroke="black" d="M1737.64,-902.62C1731.22,-900.86 1722.1,-898.52 1714,-897 1651.48,-885.26 1634.57,-890.5 1572,-879 1493.97,-864.66 1303.37,-807.35 1225,-795 1101.63,-775.57 951.16,-770.56 898.39,-769.35"/>
<polygon fill="black" stroke="black" points="898.22,-765.85 888.15,-769.14 898.08,-772.85 898.22,-765.85"/>
<text text-anchor="middle" x="1469" y="-833.3" font-family="Times,serif" font-size="14.00">cure_default</text>
</g>
<!-- S11&#45;&gt;S24 -->
<g id="edge77" class="edge">
<title>S11&#45;&gt;S24</title>
<path fill="none" stroke="black" d="M1743.59,-914.87C1738.16,-934.33 1727.11,-985.44 1750,-1017 1750.49,-1017.67 1824.29,-1015.26 1799,-1053 1746.18,-1131.83 1644.72,-1058.53 1675,-1122 1690.51,-1154.51 1722.49,-1140.49 1738,-1173 1760.96,-1221.14 1775.14,-1254.72 1738,-1293 1707.88,-1324.05 1025,-1320.13 901.17,-1319.16"/>
<polygon fill="black" stroke="black" points="901,-1315.66 890.97,-1319.08 900.94,-1322.66 901,-1315.66"/>
<text text-anchor="middle" x="1770" y="-1109.3" font-family="Times,serif" font-size="14.00">cure_default|dont_notify_borrower</text>
</g>
<!-- S12 -->
<g id="node13" class="node">
<title>S12</title>
<ellipse fill="none" stroke="black" cx="869" cy="-216" rx="9" ry="9"/>
</g>
<!-- S12&#45;&gt;S2 -->
<g id="edge67" class="edge">
<title>S12&#45;&gt;S2</title>
<path fill="none" stroke="black" d="M862.06,-210.17C860.16,-209.01 858.06,-207.85 856,-207 766.09,-169.69 703.29,-232.43 643,-156 638.05,-149.72 637.78,-144.06 643,-138 708.14,-62.46 765.67,-114.16 865,-105 1139.86,-79.65 1476.39,-78.72 1559.68,-78.92"/>
<polygon fill="black" stroke="black" points="1559.7,-82.42 1569.71,-78.95 1559.73,-75.42 1559.7,-82.42"/>
<text text-anchor="middle" x="753.5" y="-143.3" font-family="Times,serif" font-size="14.00">dont_cure_default|dont_notify_borrower</text>
</g>
<!-- S12&#45;&gt;S2 -->
<g id="edge68" class="edge">
<title>S12&#45;&gt;S2</title>
<path fill="none" stroke="black" d="M876.09,-210.05C896.36,-196.15 956.74,-156.59 1013,-138 1081.11,-115.49 1099.91,-114.64 1171,-105 1319.71,-84.84 1501.09,-80.24 1559.73,-79.26"/>
<polygon fill="black" stroke="black" points="1560.11,-82.75 1570.05,-79.1 1560,-75.75 1560.11,-82.75"/>
<text text-anchor="middle" x="1139.5" y="-143.3" font-family="Times,serif" font-size="14.00">dont_cure_default|notify_borrower_of_default</text>
</g>
<!-- S12&#45;&gt;S2 -->
<g id="edge69" class="edge">
<title>S12&#45;&gt;S2</title>
<path fill="none" stroke="black" d="M866.16,-207.09C861.21,-191.73 853.05,-157.63 870,-138 916.35,-84.34 1450.02,-79.47 1559.46,-79.04"/>
<polygon fill="black" stroke="black" points="1559.7,-82.54 1569.69,-79.01 1559.68,-75.54 1559.7,-82.54"/>
<text text-anchor="middle" x="919.5" y="-143.3" font-family="Times,serif" font-size="14.00">dont_cure_default</text>
</g>
<!-- S12&#45;&gt;S7 -->
<g id="edge72" class="edge">
<title>S12&#45;&gt;S7</title>
<path fill="none" stroke="black" d="M878.05,-218.16C899.54,-221.05 955.2,-229.34 1000,-243 1076.03,-266.19 1104.37,-260.6 1165,-312 1185.41,-329.31 1173.94,-349.42 1197,-363 1260.66,-400.5 1467.83,-339.56 1529,-381 1560.13,-402.09 1572.65,-447.31 1577.37,-472.71"/>
<polygon fill="black" stroke="black" points="1573.96,-473.53 1579.03,-482.83 1580.87,-472.4 1573.96,-473.53"/>
<text text-anchor="middle" x="1272.5" y="-350.3" font-family="Times,serif" font-size="14.00">notify_borrower_of_default</text>
</g>
<!-- S12&#45;&gt;S8 -->
<g id="edge66" class="edge">
<title>S12&#45;&gt;S8</title>
<path fill="none" stroke="black" d="M862.14,-222.03C860.24,-223.19 858.11,-224.3 856,-225 773.01,-252.65 745.74,-225.67 660,-243 612.47,-252.61 598.89,-253.36 556,-276 489.72,-310.98 429.55,-390.57 492,-432 583.59,-492.77 645.36,-418 734,-483 751.89,-496.12 764.2,-558.22 783,-570 883.94,-633.25 1199.01,-597.46 1318,-603 1379.08,-605.84 1794.7,-602.94 1887.31,-621.46"/>
<polygon fill="black" stroke="black" points="1886.62,-624.89 1897.17,-623.89 1888.3,-618.09 1886.62,-624.89"/>
<text text-anchor="middle" x="603" y="-419.3" font-family="Times,serif" font-size="14.00">cure_default|notify_borrower_of_default</text>
</g>
<!-- S12&#45;&gt;S15 -->
<g id="edge71" class="edge">
<title>S12&#45;&gt;S15</title>
<path fill="none" stroke="black" d="M877.9,-214.45C908.31,-212.45 1007.75,-204.81 1035,-189 1042.38,-184.72 1039.5,-178.07 1047,-174 1082.92,-154.52 1189.5,-161.43 1230,-156 1239.35,-154.75 1249.7,-153.02 1258.3,-151.49"/>
<polygon fill="black" stroke="black" points="1259.16,-154.9 1268.37,-149.66 1257.9,-148.01 1259.16,-154.9"/>
<text text-anchor="middle" x="1107" y="-177.8" font-family="Times,serif" font-size="14.00">dont_notify_borrower</text>
</g>
<!-- S16 -->
<g id="node17" class="node">
<title>S16</title>
<ellipse fill="none" stroke="black" cx="914" cy="-699" rx="9" ry="9"/>
</g>
<!-- S12&#45;&gt;S16 -->
<g id="edge70" class="edge">
<title>S12&#45;&gt;S16</title>
<path fill="none" stroke="black" d="M861.87,-221.89C859.75,-223.12 857.36,-224.29 855,-225 744.14,-258.58 706.84,-212.84 595,-243 562.95,-251.64 556.7,-259.33 528,-276 480.67,-303.49 469.06,-311.22 426,-345 422.58,-347.68 311.76,-446.03 310,-450 307.3,-456.09 309.1,-458.39 310,-465 312.24,-481.45 308.29,-489.22 320,-501 369.84,-551.14 575.98,-538.04 626,-588 653.47,-615.44 620.19,-647.13 650,-672 668.73,-687.63 837.33,-695.2 894.87,-697.34"/>
<polygon fill="black" stroke="black" points="894.97,-700.85 905.09,-697.71 895.22,-693.85 894.97,-700.85"/>
<text text-anchor="middle" x="344" y="-453.8" font-family="Times,serif" font-size="14.00">cure_default</text>
</g>
<!-- S12&#45;&gt;S17 -->
<g id="edge65" class="edge">
<title>S12&#45;&gt;S17</title>
<path fill="none" stroke="black" d="M862.12,-221.97C860.22,-223.14 858.1,-224.25 856,-225 798.98,-245.31 779.66,-228.07 721,-243 647.68,-261.67 528.88,-282.38 498,-345 484.5,-372.38 515.6,-384.8 544,-396 601.95,-418.85 621.49,-404.17 683,-414 690.69,-415.23 699.13,-416.79 706.42,-418.21"/>
<polygon fill="black" stroke="black" points="705.85,-421.67 716.34,-420.19 707.22,-414.8 705.85,-421.67"/>
<text text-anchor="middle" x="622" y="-315.8" font-family="Times,serif" font-size="14.00">cure_default|dont_notify_borrower</text>
</g>
<!-- S13&#45;&gt;S2 -->
<g id="edge83" class="edge">
<title>S13&#45;&gt;S2</title>
<path fill="none" stroke="black" d="M1555.95,-560.04C1582.07,-559.89 1660.03,-557.35 1719,-534 1769.21,-514.12 1793.9,-512.81 1819,-465 1845.53,-414.45 1880.94,-474.9 1604,-345 1586.35,-336.72 1574.59,-343.37 1564,-327 1560.38,-321.4 1559.52,-316.94 1564,-312 1591.6,-281.57 1718.01,-322.08 1748,-294 1761.97,-280.92 1755,-270.64 1755,-251.5 1755,-251.5 1755,-251.5 1755,-146 1755,-112.69 1643.53,-89.97 1598.01,-82.07"/>
<polygon fill="black" stroke="black" points="1598.41,-78.59 1587.97,-80.39 1597.25,-85.49 1598.41,-78.59"/>
<text text-anchor="middle" x="1674.5" y="-315.8" font-family="Times,serif" font-size="14.00">dont_cure_default|dont_notify_borrower</text>
</g>
<!-- S13&#45;&gt;S2 -->
<g id="edge84" class="edge">
<title>S13&#45;&gt;S2</title>
<path fill="none" stroke="black" d="M1556.25,-559.95C1584.79,-559.55 1673.78,-556.47 1743,-534 1772.32,-524.48 1781.03,-521.55 1804,-501 1822.81,-484.17 1832.49,-475 1829,-450 1818.65,-375.8 1790,-360.92 1790,-286 1790,-286 1790,-286 1790,-146 1790,-105.98 1650.37,-86.73 1598.28,-80.95"/>
<polygon fill="black" stroke="black" points="1598.38,-77.44 1588.07,-79.86 1597.64,-84.4 1598.38,-77.44"/>
<text text-anchor="middle" x="1920.5" y="-315.8" font-family="Times,serif" font-size="14.00">dont_cure_default|notify_borrower_of_default</text>
</g>
<!-- S13&#45;&gt;S2 -->
<g id="edge85" class="edge">
<title>S13&#45;&gt;S2</title>
<path fill="none" stroke="black" d="M1556.13,-559.6C1618.88,-556.7 1984,-537.9 1984,-493 1984,-493 1984,-493 1984,-387.5 1984,-368.36 1978.62,-359.6 1991,-345 2007.09,-326.03 2027.63,-345.73 2044,-327 2056.21,-313.02 2052,-304.57 2052,-286 2052,-286 2052,-286 2052,-146 2052,-99.37 1686.94,-82.96 1598.24,-79.66"/>
<polygon fill="black" stroke="black" points="1598.15,-76.16 1588.03,-79.29 1597.89,-83.15 1598.15,-76.16"/>
<text text-anchor="middle" x="2100.5" y="-315.8" font-family="Times,serif" font-size="14.00">dont_cure_default</text>
</g>
<!-- S13&#45;&gt;S7 -->
<g id="edge88" class="edge">
<title>S13&#45;&gt;S7</title>
<path fill="none" stroke="black" d="M1550.66,-552.57C1555.69,-542.37 1564.88,-523.7 1571.64,-509.98"/>
<polygon fill="black" stroke="black" points="1574.95,-511.18 1576.22,-500.67 1568.67,-508.09 1574.95,-511.18"/>
<text text-anchor="middle" x="1642.5" y="-522.8" font-family="Times,serif" font-size="14.00">notify_borrower_of_default</text>
</g>
<!-- S13&#45;&gt;S8 -->
<g id="edge87" class="edge">
<title>S13&#45;&gt;S8</title>
<path fill="none" stroke="black" d="M1556.04,-562.08C1594.41,-562.55 1743.65,-565.82 1784,-588 1791.48,-592.11 1788.68,-598.6 1796,-603 1830.09,-623.51 1848.14,-608.17 1887.26,-620.56"/>
<polygon fill="black" stroke="black" points="1886.5,-624.01 1897.09,-624.11 1888.87,-617.42 1886.5,-624.01"/>
<text text-anchor="middle" x="1856" y="-591.8" font-family="Times,serif" font-size="14.00">dont_notify_borrower</text>
</g>
<!-- S13&#45;&gt;S15 -->
<g id="edge81" class="edge">
<title>S13&#45;&gt;S15</title>
<path fill="none" stroke="black" d="M1549.42,-552.17C1557.48,-524.34 1580.32,-429.33 1533,-381 1504.72,-352.12 1379.13,-392.96 1352,-363 1350.78,-361.65 1353,-325.55 1353,-320.5 1353,-320.5 1353,-320.5 1353,-215 1353,-196.51 1357.76,-188.26 1346,-174 1333.81,-159.22 1312.29,-152.84 1296.51,-150.08"/>
<polygon fill="black" stroke="black" points="1296.64,-146.57 1286.26,-148.65 1295.68,-153.5 1296.64,-146.57"/>
<text text-anchor="middle" x="1463" y="-350.3" font-family="Times,serif" font-size="14.00">cure_default|notify_borrower_of_default</text>
</g>
<!-- S13&#45;&gt;S17 -->
<g id="edge82" class="edge">
<title>S13&#45;&gt;S17</title>
<path fill="none" stroke="black" d="M1539.84,-555.01C1526.22,-545.84 1495.31,-526.55 1466,-519 1356.82,-490.89 1069.98,-520.82 959,-501 875.46,-486.08 780.85,-448.03 742.51,-431.67"/>
<polygon fill="black" stroke="black" points="743.44,-428.26 732.87,-427.5 740.66,-434.68 743.44,-428.26"/>
<text text-anchor="middle" x="1054" y="-488.3" font-family="Times,serif" font-size="14.00">cure_default|dont_notify_borrower</text>
</g>
<!-- S13&#45;&gt;S22 -->
<g id="edge86" class="edge">
<title>S13&#45;&gt;S22</title>
<path fill="none" stroke="black" d="M1542.82,-552.92C1531.87,-534.39 1502.98,-485.74 1500,-483 1486.83,-470.9 1477.91,-476.25 1464,-465 1457.36,-459.63 1459.31,-454.42 1452,-450 1415.97,-428.22 1398.2,-447.36 1359,-432 1344.88,-426.47 1344.25,-419.21 1330,-414 1278.11,-395.03 1259.62,-412.83 1207,-396 1183.59,-388.51 1158.7,-374.72 1143.02,-365.21"/>
<polygon fill="black" stroke="black" points="1144.49,-362.01 1134.15,-359.7 1140.79,-367.95 1144.49,-362.01"/>
<text text-anchor="middle" x="1498" y="-453.8" font-family="Times,serif" font-size="14.00">cure_default</text>
</g>
<!-- S14&#45;&gt;S3 -->
<g id="edge60" class="edge">
<title>S14&#45;&gt;S3</title>
<path fill="none" stroke="black" d="M1567.98,-831.02C1574.71,-826.05 1585.03,-818.03 1593,-810 1599.01,-803.94 1597.39,-798.87 1605,-795 1656.74,-768.71 2079.03,-768.6 2174.75,-768.91"/>
<polygon fill="black" stroke="black" points="2174.75,-772.41 2184.76,-768.95 2174.78,-765.41 2174.75,-772.41"/>
<text text-anchor="middle" x="1703" y="-798.8" font-family="Times,serif" font-size="14.00">borrower_default|dont_cure_default</text>
</g>
<!-- S14&#45;&gt;S3 -->
<g id="edge62" class="edge">
<title>S14&#45;&gt;S3</title>
<path fill="none" stroke="black" d="M1552.3,-834.33C1529.88,-829.67 1473.2,-815.55 1493,-795 1517.31,-769.77 2064.32,-768.89 2174.69,-768.97"/>
<polygon fill="black" stroke="black" points="2174.97,-772.47 2184.97,-768.98 2174.98,-765.47 2174.97,-772.47"/>
<text text-anchor="middle" x="1542.5" y="-798.8" font-family="Times,serif" font-size="14.00">dont_cure_default</text>
</g>
<!-- S14&#45;&gt;S11 -->
<g id="edge64" class="edge">
<title>S14&#45;&gt;S11</title>
<path fill="none" stroke="black" d="M1564.08,-845.61C1568.56,-856.3 1576.99,-874.9 1583,-879 1635.86,-915.08 1666.63,-878.65 1729.6,-896.91"/>
<polygon fill="black" stroke="black" points="1728.53,-900.24 1739.13,-900.01 1730.7,-893.59 1728.53,-900.24"/>
<text text-anchor="middle" x="1630" y="-867.8" font-family="Times,serif" font-size="14.00">borrower_default</text>
</g>
<!-- S14&#45;&gt;S20 -->
<g id="edge63" class="edge">
<title>S14&#45;&gt;S20</title>
<path fill="none" stroke="black" d="M1551.92,-835.92C1513.39,-835.47 1363.53,-832.27 1323,-810 1315.52,-805.89 1318.58,-798.93 1311,-795 1274.04,-775.85 977.36,-770.37 898.3,-769.24"/>
<polygon fill="black" stroke="black" points="898.32,-765.74 888.27,-769.11 898.22,-772.74 898.32,-765.74"/>
<text text-anchor="middle" x="1405.5" y="-798.8" font-family="Times,serif" font-size="14.00">borrower_default|cure_default</text>
</g>
<!-- S14&#45;&gt;S24 -->
<g id="edge61" class="edge">
<title>S14&#45;&gt;S24</title>
<path fill="none" stroke="black" d="M1558.95,-845.8C1557.05,-855.02 1555.63,-870.22 1564,-879 1610.04,-927.27 1668.75,-847.09 1713,-897 1718.31,-902.99 1717.33,-908.27 1713,-915 1704.31,-928.51 1458.69,-1021.49 1450,-1035 1430.35,-1065.56 1441.24,-1177.1 1457,-1191 1502.1,-1230.77 1685.92,-1165.09 1727,-1209 1731.55,-1213.87 1730.99,-1218.66 1727,-1224 1662.68,-1310.23 1601.1,-1275.25 1495,-1293 1376.74,-1312.78 992.4,-1317.88 901.43,-1318.82"/>
<polygon fill="black" stroke="black" points="901.17,-1315.32 891.21,-1318.92 901.24,-1322.32 901.17,-1315.32"/>
<text text-anchor="middle" x="1475" y="-1074.8" font-family="Times,serif" font-size="14.00">cure_default</text>
</g>
<!-- S15&#45;&gt;S2 -->
<g id="edge56" class="edge">
<title>S15&#45;&gt;S2</title>
<path fill="none" stroke="black" d="M1275.13,-138.12C1273.43,-128.83 1272.36,-113.55 1281,-105 1300.81,-85.4 1496.89,-80.39 1559.73,-79.28"/>
<polygon fill="black" stroke="black" points="1559.9,-82.78 1569.84,-79.12 1559.78,-75.78 1559.9,-82.78"/>
<text text-anchor="middle" x="1379" y="-108.8" font-family="Times,serif" font-size="14.00">borrower_default|dont_cure_default</text>
</g>
<!-- S15&#45;&gt;S2 -->
<g id="edge57" class="edge">
<title>S15&#45;&gt;S2</title>
<path fill="none" stroke="black" d="M1268.2,-144.39C1244.52,-139.98 1180.83,-127.5 1175,-120 1170.91,-114.74 1170.44,-109.86 1175,-105 1201.52,-76.72 1482.51,-77.87 1559.56,-78.73"/>
<polygon fill="black" stroke="black" points="1559.71,-82.23 1569.75,-78.86 1559.79,-75.24 1559.71,-82.23"/>
<text text-anchor="middle" x="1224.5" y="-108.8" font-family="Times,serif" font-size="14.00">dont_cure_default</text>
</g>
<!-- S15&#45;&gt;S12 -->
<g id="edge59" class="edge">
<title>S15&#45;&gt;S12</title>
<path fill="none" stroke="black" d="M1268.38,-149.75C1258.98,-151.59 1243.48,-154.43 1230,-156 1166.74,-163.35 1000.5,-144.62 944,-174 936.43,-177.94 938.83,-183.88 932,-189 918.69,-198.99 900.99,-205.85 887.74,-210"/>
<polygon fill="black" stroke="black" points="886.49,-206.72 877.86,-212.87 888.44,-213.45 886.49,-206.72"/>
<text text-anchor="middle" x="991" y="-177.8" font-family="Times,serif" font-size="14.00">borrower_default</text>
</g>
<!-- S15&#45;&gt;S16 -->
<g id="edge55" class="edge">
<title>S15&#45;&gt;S16</title>
<path fill="none" stroke="black" d="M1284.97,-151.56C1302.33,-159.93 1342,-182.59 1342,-215 1342,-320.5 1342,-320.5 1342,-320.5 1342,-339.64 1348.64,-349.57 1335,-363 1296.26,-401.14 1261.75,-354.99 1214,-381 1177.34,-400.97 1143.33,-434.66 1172,-465 1220.46,-516.29 1440.54,-431.71 1489,-483 1494.49,-488.81 1491.69,-493.47 1489,-501 1448.73,-613.81 1027.66,-681.47 932.88,-695.34"/>
<polygon fill="black" stroke="black" points="932.17,-691.9 922.77,-696.79 933.17,-698.83 932.17,-691.9"/>
<text text-anchor="middle" x="1255.5" y="-419.3" font-family="Times,serif" font-size="14.00">borrower_default|cure_default</text>
</g>
<!-- S15&#45;&gt;S17 -->
<g id="edge58" class="edge">
<title>S15&#45;&gt;S17</title>
<path fill="none" stroke="black" d="M1279.58,-155.68C1285.35,-174.31 1297.58,-222.93 1281,-258 1278.42,-263.46 1118.61,-393.78 1113,-396 1044.77,-423.04 812.56,-422.9 744.13,-422.25"/>
<polygon fill="black" stroke="black" points="744,-418.75 733.96,-422.14 743.92,-425.75 744,-418.75"/>
<text text-anchor="middle" x="1295" y="-281.3" font-family="Times,serif" font-size="14.00">cure_default</text>
</g>
<!-- S16&#45;&gt;S0 -->
<g id="edge47" class="edge">
<title>S16&#45;&gt;S0</title>
<path fill="none" stroke="black" d="M922.99,-697.88C1057.74,-696.13 2663.28,-675.13 2711,-672 2789.14,-666.87 3061,-709.31 3061,-631 3061,-631 3061,-631 3061,-77 3061,-33.85 3014.66,-47.23 2973,-36 2875.37,-9.68 2752.93,-8.74 2706.26,-9.49"/>
<polygon fill="black" stroke="black" points="2706.02,-6 2696.09,-9.7 2706.16,-12.99 2706.02,-6"/>
<text text-anchor="middle" x="3218.5" y="-350.3" font-family="Times,serif" font-size="14.00">dont_notify_borrower|pay(normal, borrower, lender, 525)</text>
</g>
<!-- S16&#45;&gt;S0 -->
<g id="edge48" class="edge">
<title>S16&#45;&gt;S0</title>
<path fill="none" stroke="black" d="M923.22,-697.91C1061.42,-696.5 2707,-678.75 2707,-631 2707,-631 2707,-631 2707,-387.5 2707,-368.56 2696.62,-358.4 2710,-345 2749.68,-305.28 2920.41,-364.71 2962,-327 2975.69,-314.58 2969,-304.49 2969,-286 2969,-286 2969,-286 2969,-77 2969,-57.1 2967.11,-47.69 2951,-36 2912.02,-7.72 2760.51,-8.29 2706.37,-9.45"/>
<polygon fill="black" stroke="black" points="2706.02,-5.96 2696.11,-9.71 2706.19,-12.96 2706.02,-5.96"/>
<text text-anchor="middle" x="2883" y="-350.3" font-family="Times,serif" font-size="14.00">notify_borrower_of_default|pay(normal, borrower, lender, 525)</text>
</g>
<!-- S16&#45;&gt;S0 -->
<g id="edge51" class="edge">
<title>S16&#45;&gt;S0</title>
<path fill="none" stroke="black" d="M923.21,-697.94C990.74,-697.44 1416.53,-693.51 1762,-672 1843.76,-666.91 2434.02,-656.56 2496,-603 2510.19,-590.74 2506,-580.76 2506,-562 2506,-562 2506,-562 2506,-387.5 2506,-368.56 2495.41,-358.19 2509,-345 2544.27,-310.77 2916.96,-362.46 2951,-327 3006.31,-269.39 2764.87,-71.55 2701.76,-21.55"/>
<polygon fill="black" stroke="black" points="2703.82,-18.72 2693.8,-15.28 2699.49,-24.22 2703.82,-18.72"/>
<text text-anchor="middle" x="2605.5" y="-350.3" font-family="Times,serif" font-size="14.00">pay(normal, borrower, lender, 525)</text>
</g>
<!-- S16&#45;&gt;S8 -->
<g id="edge54" class="edge">
<title>S16&#45;&gt;S8</title>
<path fill="none" stroke="black" d="M922.95,-697.8C975.78,-696.56 1252.14,-689.48 1477,-672 1538.07,-667.25 1552.98,-662.32 1614,-657 1672.57,-651.89 1817.73,-657.17 1887.44,-638.93"/>
<polygon fill="black" stroke="black" points="1888.55,-642.25 1897.15,-636.07 1886.57,-635.54 1888.55,-642.25"/>
<text text-anchor="middle" x="1689.5" y="-660.8" font-family="Times,serif" font-size="14.00">notify_borrower_of_default</text>
</g>
<!-- S16&#45;&gt;S13 -->
<g id="edge50" class="edge">
<title>S16&#45;&gt;S13</title>
<path fill="none" stroke="black" d="M923.19,-697.89C993.56,-697.02 1444.75,-690.7 1466,-672 1483.28,-656.8 1463.53,-640.96 1475,-621 1488.06,-598.28 1513.47,-580.67 1530.34,-570.81"/>
<polygon fill="black" stroke="black" points="1532.09,-573.84 1539.13,-565.92 1528.68,-567.72 1532.09,-573.84"/>
<text text-anchor="middle" x="1684" y="-626.3" font-family="Times,serif" font-size="14.00">notify_borrower_of_default|payment_default(normal, borrower, lender, 525)</text>
</g>
<!-- S16&#45;&gt;S17 -->
<g id="edge53" class="edge">
<title>S16&#45;&gt;S17</title>
<path fill="none" stroke="black" d="M906.99,-692.71C882.94,-674.11 803.35,-608.74 770,-534 753.9,-497.93 757.9,-485.7 741,-450 739.36,-446.54 737.38,-442.97 735.37,-439.62"/>
<polygon fill="black" stroke="black" points="738.24,-437.61 729.92,-431.05 732.33,-441.36 738.24,-437.61"/>
<text text-anchor="middle" x="850" y="-557.3" font-family="Times,serif" font-size="14.00">dont_notify_borrower</text>
</g>
<!-- S19 -->
<g id="node20" class="node">
<title>S19</title>
<ellipse fill="none" stroke="black" cx="964" cy="-285" rx="9" ry="9"/>
</g>
<!-- S16&#45;&gt;S19 -->
<g id="edge52" class="edge">
<title>S16&#45;&gt;S19</title>
<path fill="none" stroke="black" d="M904.7,-698.04C879.68,-697.83 809.33,-695.06 757,-672 735.28,-662.43 733.18,-654.27 715,-639 670.65,-601.76 665.35,-585.34 618,-552 592.8,-534.25 585.93,-529.64 557,-519 520.76,-505.68 502.01,-525.3 472,-501 441.45,-476.26 445.19,-451.8 456,-414 460.97,-396.63 483.64,-354.52 499,-345 569.59,-301.24 610.51,-363.73 685,-327 693.18,-322.97 690.77,-315.93 699,-312 747.09,-289.03 882.79,-308.95 947.41,-293.8"/>
<polygon fill="black" stroke="black" points="948.47,-297.14 957.15,-291.06 946.58,-290.4 948.47,-297.14"/>
<text text-anchor="middle" x="604.5" y="-488.3" font-family="Times,serif" font-size="14.00">payment_default(normal, borrower, lender, 525)</text>
</g>
<!-- S16&#45;&gt;S22 -->
<g id="edge49" class="edge">
<title>S16&#45;&gt;S22</title>
<path fill="none" stroke="black" d="M916.44,-690C923.17,-666.15 939.46,-594.59 907,-552 891.41,-531.54 867.1,-554.82 852,-534 848.09,-528.6 848.64,-524.76 852,-519 915.8,-409.62 1017.99,-484.04 1109,-396 1115.45,-389.76 1119.75,-380.8 1122.52,-372.85"/>
<polygon fill="black" stroke="black" points="1125.96,-373.57 1125.41,-362.98 1119.24,-371.6 1125.96,-373.57"/>
<text text-anchor="middle" x="1045.5" y="-522.8" font-family="Times,serif" font-size="14.00">dont_notify_borrower|payment_default(normal, borrower, lender, 525)</text>
</g>
<!-- S17&#45;&gt;S0 -->
<g id="edge42" class="edge">
<title>S17&#45;&gt;S0</title>
<path fill="none" stroke="black" d="M718.14,-416.97C716.24,-415.8 714.11,-414.7 712,-414 669.44,-399.87 548.21,-421.03 511,-396 491.18,-382.66 488.65,-368.29 494,-345 511.72,-267.83 567,-261.68 567,-182.5 567,-182.5 567,-182.5 567,-77 567,-21.38 2456.47,-11.06 2667.84,-10.08"/>
<polygon fill="black" stroke="black" points="2668.02,-13.58 2678.01,-10.04 2667.99,-6.58 2668.02,-13.58"/>
<text text-anchor="middle" x="709.5" y="-212.3" font-family="Times,serif" font-size="14.00">borrower_default|pay(normal, borrower, lender, 525)</text>
</g>
<!-- S17&#45;&gt;S0 -->
<g id="edge43" class="edge">
<title>S17&#45;&gt;S0</title>
<path fill="none" stroke="black" d="M718.14,-416.96C716.24,-415.79 714.11,-414.69 712,-414 666.24,-398.97 538.18,-419.25 496,-396 412.63,-350.04 397.23,-315.27 367,-225 330.34,-115.52 342.64,-160.87 563,-69 640.09,-36.86 664.86,-43.92 748,-36 949.07,-16.85 2477.02,-10.76 2667.52,-10.07"/>
<polygon fill="black" stroke="black" points="2667.72,-13.57 2677.7,-10.03 2667.69,-6.57 2667.72,-13.57"/>
<text text-anchor="middle" x="463.5" y="-212.3" font-family="Times,serif" font-size="14.00">pay(normal, borrower, lender, 525)</text>
</g>
<!-- S17&#45;&gt;S16 -->
<g id="edge46" class="edge">
<title>S17&#45;&gt;S16</title>
<path fill="none" stroke="black" d="M728.74,-431.52C731.05,-436.6 733.8,-443.53 735,-450 739.14,-472.29 743.25,-479.89 735,-501 721.5,-535.56 674.41,-535.47 688,-570 710.69,-627.65 728.89,-641.84 783,-672 818.82,-691.96 867.66,-696.75 894.44,-697.8"/>
<polygon fill="black" stroke="black" points="894.68,-701.31 904.77,-698.06 894.86,-694.31 894.68,-701.31"/>
<text text-anchor="middle" x="735" y="-557.3" font-family="Times,serif" font-size="14.00">borrower_default</text>
</g>
<!-- S17&#45;&gt;S19 -->
<g id="edge44" class="edge">
<title>S17&#45;&gt;S19</title>
<path fill="none" stroke="black" d="M716.32,-420.35C676.87,-412.76 515.71,-380.81 502,-363 497.12,-356.66 496.61,-350.91 502,-345 516.58,-329 674.48,-329.39 696,-327 749.91,-321.01 882.7,-313.84 947.35,-294.23"/>
<polygon fill="black" stroke="black" points="948.74,-297.46 957.12,-290.98 946.53,-290.82 948.74,-297.46"/>
<text text-anchor="middle" x="682.5" y="-350.3" font-family="Times,serif" font-size="14.00">borrower_default|payment_default(normal, borrower, lender, 525)</text>
</g>
<!-- S17&#45;&gt;S22 -->
<g id="edge45" class="edge">
<title>S17&#45;&gt;S22</title>
<path fill="none" stroke="black" d="M734.02,-421.81C753.84,-421.01 802,-416.88 835,-396 842.21,-391.44 839.43,-384.96 847,-381 897.13,-354.8 1042.21,-378.54 1110.3,-362.81"/>
<polygon fill="black" stroke="black" points="1111.46,-366.12 1120.15,-360.06 1109.58,-359.38 1111.46,-366.12"/>
<text text-anchor="middle" x="979.5" y="-384.8" font-family="Times,serif" font-size="14.00">payment_default(normal, borrower, lender, 525)</text>
</g>
<!-- S18 -->
<g id="node19" class="node">
<title>S18</title>
<ellipse fill="none" stroke="black" cx="1252" cy="-1251" rx="9" ry="9"/>
</g>
<!-- S18&#45;&gt;S6 -->
<g id="edge37" class="edge">
<title>S18&#45;&gt;S6</title>
<path fill="none" stroke="black" d="M1260.77,-1248.84C1285.07,-1245.56 1355.29,-1235.74 1413,-1224 1440.36,-1218.44 1446.38,-1213.05 1474,-1209 1573.9,-1194.37 1894.62,-1185.53 1976.71,-1183.47"/>
<polygon fill="black" stroke="black" points="1977.13,-1186.96 1987.04,-1183.21 1976.96,-1179.96 1977.13,-1186.96"/>
<text text-anchor="middle" x="1626.5" y="-1212.8" font-family="Times,serif" font-size="14.00">notify_borrower_of_default|notify_borrower_of_default</text>
</g>
<!-- S18&#45;&gt;S9 -->
<g id="edge36" class="edge">
<title>S18&#45;&gt;S9</title>
<path fill="none" stroke="black" d="M1261.09,-1250.37C1285.5,-1250.96 1353.88,-1250.02 1402,-1224 1410.02,-1219.66 1408.47,-1214.15 1416,-1209 1424.89,-1202.92 1495.56,-1175.67 1506,-1173 1565.42,-1157.82 1719.11,-1147.33 1780,-1140 1852.73,-1131.24 1939.23,-1120.83 1976.89,-1116.3"/>
<polygon fill="black" stroke="black" points="1977.44,-1119.76 1986.95,-1115.09 1976.6,-1112.81 1977.44,-1119.76"/>
<text text-anchor="middle" x="1643" y="-1178.3" font-family="Times,serif" font-size="14.00">dont_notify_borrower|notify_borrower_of_default</text>
</g>
<!-- S18&#45;&gt;S10 -->
<g id="edge40" class="edge">
<title>S18&#45;&gt;S10</title>
<path fill="none" stroke="black" d="M1259.07,-1245.28C1286.2,-1227.45 1386.8,-1164.05 1480,-1140 1619.65,-1103.97 1661.37,-1143.34 1804,-1122 1897.71,-1107.98 1918.42,-1091.17 2011,-1071 2053.03,-1061.84 2102.73,-1052.87 2129.19,-1048.24"/>
<polygon fill="black" stroke="black" points="2130.06,-1051.64 2139.31,-1046.48 2128.86,-1044.74 2130.06,-1051.64"/>
<text text-anchor="middle" x="1555.5" y="-1143.8" font-family="Times,serif" font-size="14.00">notify_borrower_of_default</text>
</g>
<!-- S18&#45;&gt;S11 -->
<g id="edge41" class="edge">
<title>S18&#45;&gt;S11</title>
<path fill="none" stroke="black" d="M1258.83,-1244.86C1264.52,-1240.13 1272.29,-1232.57 1276,-1224 1289.54,-1192.72 1263.59,-1095.78 1287,-1071 1308.39,-1048.36 1398.96,-1068.46 1426,-1053 1434.8,-1047.97 1431.93,-1041.13 1440,-1035 1549.46,-951.92 1604.92,-977.46 1729.6,-916.34"/>
<polygon fill="black" stroke="black" points="1731.32,-919.39 1738.7,-911.78 1728.19,-913.13 1731.32,-919.39"/>
<text text-anchor="middle" x="1362.5" y="-1074.8" font-family="Times,serif" font-size="14.00">notify_borrower_of_default</text>
</g>
<!-- S18&#45;&gt;S14 -->
<g id="edge35" class="edge">
<title>S18&#45;&gt;S14</title>
<path fill="none" stroke="black" d="M1255.62,-1242.56C1266.17,-1219.69 1294.34,-1149.27 1265,-1104 1232.79,-1054.3 1123.48,-1087.44 1151,-1035 1182.62,-974.74 1231.4,-998.52 1277,-948 1294.33,-928.81 1284.38,-912.6 1305,-897 1324.23,-882.46 1486.32,-851.69 1542.17,-841.42"/>
<polygon fill="black" stroke="black" points="1542.92,-844.84 1552.12,-839.6 1541.66,-837.96 1542.92,-844.84"/>
<text text-anchor="middle" x="1288" y="-1040.3" font-family="Times,serif" font-size="14.00">dont_notify_borrower|notify_borrower_of_default</text>
</g>
<!-- S18&#45;&gt;S20 -->
<g id="edge39" class="edge">
<title>S18&#45;&gt;S20</title>
<path fill="none" stroke="black" d="M1243.21,-1248.39C1222.3,-1244.52 1167.99,-1234.28 1123,-1224 1002.25,-1196.42 941.71,-1241.44 853,-1155 833.15,-1135.66 840.33,-1052.69 819,-1035 784.82,-1006.65 649.95,-1049.78 620,-1017 616.14,-1012.77 616.4,-894.63 656,-828 667.6,-808.48 674.17,-804.04 695,-795 757.8,-767.73 780.7,-789.58 848,-777 852.12,-776.23 856.51,-775.22 860.64,-774.18"/>
<polygon fill="black" stroke="black" points="861.9,-777.46 870.65,-771.48 860.08,-770.7 861.9,-777.46"/>
<text text-anchor="middle" x="680" y="-1005.8" font-family="Times,serif" font-size="14.00">dont_notify_borrower</text>
</g>
<!-- S18&#45;&gt;S21 -->
<g id="edge38" class="edge">
<title>S18&#45;&gt;S21</title>
<path fill="none" stroke="black" d="M1246.5,-1243.84C1230.46,-1225.78 1182.71,-1171.1 1148,-1122 1142.59,-1114.34 1142.32,-1111.72 1137,-1104 1107.59,-1061.32 1069.14,-1013.67 1049.97,-990.39"/>
<polygon fill="black" stroke="black" points="1052.49,-987.94 1043.42,-982.47 1047.1,-992.41 1052.49,-987.94"/>
<text text-anchor="middle" x="1208" y="-1109.3" font-family="Times,serif" font-size="14.00">dont_notify_borrower</text>
</g>
<!-- S18&#45;&gt;S24 -->
<g id="edge34" class="edge">
<title>S18&#45;&gt;S24</title>
<path fill="none" stroke="black" d="M1253.02,-1260C1253.73,-1269.43 1253.23,-1284.83 1244,-1293 1218.25,-1315.81 973.09,-1318.62 901.52,-1318.96"/>
<polygon fill="black" stroke="black" points="901.24,-1315.46 891.25,-1318.99 901.26,-1322.46 901.24,-1315.46"/>
<text text-anchor="middle" x="1373" y="-1281.8" font-family="Times,serif" font-size="14.00">dont_notify_borrower|dont_notify_borrower</text>
</g>
<!-- S19&#45;&gt;S7 -->
<g id="edge29" class="edge">
<title>S19&#45;&gt;S7</title>
<path fill="none" stroke="black" d="M972.89,-286.72C1008.56,-289.66 1140.01,-301.18 1155,-312 1175.47,-326.77 1162.32,-344.98 1180,-363 1192.25,-375.49 1201.46,-369.93 1215,-381 1221.61,-386.4 1219.42,-392.06 1227,-396 1284.1,-425.66 1458.62,-384.87 1516,-414 1529.78,-420.99 1555.28,-455.41 1569.58,-475.78"/>
<polygon fill="black" stroke="black" points="1566.71,-477.78 1575.28,-484.01 1572.46,-473.8 1566.71,-477.78"/>
<text text-anchor="middle" x="1379.5" y="-384.8" font-family="Times,serif" font-size="14.00">notify_borrower_of_default|notify_borrower_of_default</text>
</g>
<!-- S19&#45;&gt;S8 -->
<g id="edge28" class="edge">
<title>S19&#45;&gt;S8</title>
<path fill="none" stroke="black" d="M973.15,-286.51C1003.48,-288.36 1100.24,-295.45 1126,-312 1148.92,-326.72 1140.97,-343.51 1160,-363 1177.83,-381.26 1183.28,-386.58 1207,-396 1232.88,-406.28 1312.78,-392.94 1331,-414 1378.18,-468.52 1127.46,-412.61 1177,-465 1226.24,-517.07 1446.62,-434.09 1499,-483 1538.29,-519.68 1474.57,-566.48 1514,-603 1543.09,-629.94 1818.27,-610.97 1887.33,-621.73"/>
<polygon fill="black" stroke="black" points="1886.64,-625.16 1897.16,-623.91 1888.16,-618.33 1886.64,-625.16"/>
<text text-anchor="middle" x="1314" y="-453.8" font-family="Times,serif" font-size="14.00">dont_notify_borrower|notify_borrower_of_default</text>
</g>
<!-- S19&#45;&gt;S12 -->
<g id="edge33" class="edge">
<title>S19&#45;&gt;S12</title>
<path fill="none" stroke="black" d="M957.1,-279.1C955.19,-277.93 953.08,-276.8 951,-276 909.24,-260.01 880.66,-292.33 852,-258 845.4,-250.1 850.32,-239.28 856.53,-230.74"/>
<polygon fill="black" stroke="black" points="859.36,-232.81 863.04,-222.88 853.97,-228.35 859.36,-232.81"/>
<text text-anchor="middle" x="927.5" y="-246.8" font-family="Times,serif" font-size="14.00">notify_borrower_of_default</text>
</g>
<!-- S19&#45;&gt;S13 -->
<g id="edge32" class="edge">
<title>S19&#45;&gt;S13</title>
<path fill="none" stroke="black" d="M972.84,-286.8C1007.09,-289.95 1129.88,-301.89 1144,-312 1164.69,-326.81 1152.15,-344.87 1170,-363 1182,-375.18 1190.42,-370.61 1204,-381 1211.24,-386.54 1209.9,-391.81 1218,-396 1270.99,-423.4 1299.84,-383.34 1351,-414 1359.46,-419.07 1355.47,-427.04 1364,-432 1395.88,-450.55 1502.23,-424.63 1529,-450 1529.83,-450.79 1539.32,-510.81 1544.17,-541.85"/>
<polygon fill="black" stroke="black" points="1540.73,-542.47 1545.73,-551.81 1547.64,-541.39 1540.73,-542.47"/>
<text text-anchor="middle" x="1439.5" y="-419.3" font-family="Times,serif" font-size="14.00">notify_borrower_of_default</text>
</g>
<!-- S19&#45;&gt;S15 -->
<g id="edge27" class="edge">
<title>S19&#45;&gt;S15</title>
<path fill="none" stroke="black" d="M972.24,-281.36C981.85,-277.78 997.28,-270.38 1004,-258 1014.84,-238.02 984.83,-223.93 1000,-207 1024.47,-179.7 1128.29,-197.31 1164,-189 1198.94,-180.87 1237.9,-165.17 1259.73,-155.74"/>
<polygon fill="black" stroke="black" points="1261.24,-158.9 1268.98,-151.67 1258.42,-152.49 1261.24,-158.9"/>
<text text-anchor="middle" x="1137" y="-212.3" font-family="Times,serif" font-size="14.00">dont_notify_borrower|notify_borrower_of_default</text>
</g>
<!-- S19&#45;&gt;S16 -->
<g id="edge31" class="edge">
<title>S19&#45;&gt;S16</title>
<path fill="none" stroke="black" d="M957.15,-291.06C955.25,-292.23 953.12,-293.32 951,-294 895.21,-311.87 740.9,-286.83 688,-312 679.77,-315.92 682.18,-322.97 674,-327 599.51,-363.73 564.6,-312.91 488,-345 421.55,-372.84 438.03,-423.69 379,-465 357.93,-479.75 339.1,-462.18 324,-483 319.3,-489.48 318.59,-495.1 324,-501 355.36,-535.19 488.17,-503.8 532,-519 584.76,-537.3 603.68,-543.19 637,-588 660.24,-619.26 632.01,-647.14 662,-672 679.82,-686.77 838.75,-694.83 894.66,-697.23"/>
<polygon fill="black" stroke="black" points="894.8,-700.74 904.93,-697.65 895.09,-693.74 894.8,-700.74"/>
<text text-anchor="middle" x="384" y="-488.3" font-family="Times,serif" font-size="14.00">dont_notify_borrower</text>
</g>
<!-- S19&#45;&gt;S17 -->
<g id="edge26" class="edge">
<title>S19&#45;&gt;S17</title>
<path fill="none" stroke="black" d="M957.02,-290.73C955.12,-291.9 953.02,-293.07 951,-294 926.84,-305.05 914.89,-295.59 894,-312 880.51,-322.59 882.61,-330.17 874,-345 869.41,-352.91 871.6,-357.9 864,-363 835.94,-381.83 735.44,-355.73 713,-381 706.7,-388.09 709.69,-398.33 714.26,-406.8"/>
<polygon fill="black" stroke="black" points="711.37,-408.78 719.68,-415.35 717.28,-405.03 711.37,-408.78"/>
<text text-anchor="middle" x="995" y="-350.3" font-family="Times,serif" font-size="14.00">dont_notify_borrower|dont_notify_borrower</text>
</g>
<!-- S19&#45;&gt;S22 -->
<g id="edge30" class="edge">
<title>S19&#45;&gt;S22</title>
<path fill="none" stroke="black" d="M957.01,-290.7C955.11,-291.87 953.01,-293.05 951,-294 928.49,-304.59 912.49,-291.78 898,-312 894.12,-317.42 893.49,-322.09 898,-327 928.7,-360.37 1052.47,-333.54 1110.18,-345.29"/>
<polygon fill="black" stroke="black" points="1109.58,-348.76 1120.14,-347.96 1111.39,-341.99 1109.58,-348.76"/>
<text text-anchor="middle" x="958" y="-315.8" font-family="Times,serif" font-size="14.00">dont_notify_borrower</text>
</g>
<!-- S20&#45;&gt;S8 -->
<g id="edge19" class="edge">
<title>S20&#45;&gt;S8</title>
<path fill="none" stroke="black" d="M888.25,-766.54C957.93,-762.99 1407.32,-738.16 1766,-672 1819.42,-662.15 1836.35,-661.66 1887.77,-639.81"/>
<polygon fill="black" stroke="black" points="1889.26,-642.97 1897.05,-635.79 1886.48,-636.55 1889.26,-642.97"/>
<text text-anchor="middle" x="1833" y="-695.3" font-family="Times,serif" font-size="14.00">notify_borrower_of_default|pay(normal, borrower, lender, 550)</text>
</g>
<!-- S20&#45;&gt;S9 -->
<g id="edge23" class="edge">
<title>S20&#45;&gt;S9</title>
<path fill="none" stroke="black" d="M888,-770.07C940.51,-776.44 1207.09,-811.09 1267,-864 1274.49,-870.61 1291.15,-941.83 1299,-948 1449.01,-1065.98 1555.1,-915.06 1725,-1002 1733.12,-1006.15 1730.79,-1013.04 1739,-1017 1784.98,-1039.16 1927.37,-1004.1 1968,-1035 1977.6,-1042.3 1986.77,-1073.72 1991.86,-1094.1"/>
<polygon fill="black" stroke="black" points="1988.52,-1095.15 1994.25,-1104.06 1995.33,-1093.52 1988.52,-1095.15"/>
<text text-anchor="middle" x="1374.5" y="-936.8" font-family="Times,serif" font-size="14.00">notify_borrower_of_default</text>
</g>
<!-- S20&#45;&gt;S10 -->
<g id="edge21" class="edge">
<title>S20&#45;&gt;S10</title>
<path fill="none" stroke="black" d="M888.28,-768.79C940.15,-767.72 1194.37,-764.16 1265,-795 1284.59,-803.55 1289.68,-809.28 1300,-828 1319.02,-862.5 1288.33,-887.98 1317,-915 1338.87,-935.6 1421.24,-928.9 1451,-933 1555.05,-947.32 1581.82,-946.39 1685,-966 1752.35,-978.8 1775.77,-967.48 1835,-1002 1842.88,-1006.59 1840.8,-1013.01 1849,-1017 1874.08,-1029.22 2066.51,-1039.19 2128.69,-1042.12"/>
<polygon fill="black" stroke="black" points="2128.86,-1045.64 2139.01,-1042.6 2129.18,-1038.64 2128.86,-1045.64"/>
<text text-anchor="middle" x="1526" y="-902.3" font-family="Times,serif" font-size="14.00">notify_borrower_of_default|payment_default(normal, borrower, lender, 550)</text>
</g>
<!-- S20&#45;&gt;S16 -->
<g id="edge24" class="edge">
<title>S20&#45;&gt;S16</title>
<path fill="none" stroke="black" d="M882.88,-759.57C888.32,-749.16 898.36,-729.93 905.57,-716.14"/>
<polygon fill="black" stroke="black" points="908.68,-717.74 910.21,-707.26 902.48,-714.5 908.68,-717.74"/>
<text text-anchor="middle" x="996.5" y="-729.8" font-family="Times,serif" font-size="14.00">pay(normal, borrower, lender, 550)</text>
</g>
<!-- S20&#45;&gt;S17 -->
<g id="edge18" class="edge">
<title>S20&#45;&gt;S17</title>
<path fill="none" stroke="black" d="M870.61,-764.6C800.62,-744.59 316.28,-606.03 314,-603 310,-597.67 309.82,-593.19 314,-588 321.14,-579.15 706.26,-509.33 714,-501 721.72,-492.7 724.05,-462.14 724.73,-442.11"/>
<polygon fill="black" stroke="black" points="728.23,-442.1 724.97,-432.02 721.24,-441.94 728.23,-442.1"/>
<text text-anchor="middle" x="471.5" y="-591.8" font-family="Times,serif" font-size="14.00">dont_notify_borrower|pay(normal, borrower, lender, 550)</text>
</g>
<!-- S20&#45;&gt;S18 -->
<g id="edge25" class="edge">
<title>S20&#45;&gt;S18</title>
<path fill="none" stroke="black" d="M870.62,-771.33C864.4,-773.02 855.71,-775.3 848,-777 768.89,-794.45 732.55,-773.07 673,-828 655.22,-844.4 647.22,-855.78 654,-879 659.32,-897.22 666.26,-899.34 677,-915 704.16,-954.58 715.42,-961.38 741,-1002 745.03,-1008.39 742.98,-1012.43 749,-1017 778.36,-1039.31 794.8,-1023.99 830,-1035 927.59,-1065.53 945.77,-1090.34 1043,-1122 1074.77,-1132.35 1093.01,-1115.75 1116,-1140 1142.14,-1167.58 1105.47,-1196.79 1132,-1224 1145.79,-1238.14 1202.5,-1245.43 1232.76,-1248.38"/>
<polygon fill="black" stroke="black" points="1232.65,-1251.89 1242.92,-1249.31 1233.28,-1244.92 1232.65,-1251.89"/>
<text text-anchor="middle" x="881.5" y="-1005.8" font-family="Times,serif" font-size="14.00">payment_default(normal, borrower, lender, 550)</text>
</g>
<!-- S20&#45;&gt;S21 -->
<g id="edge20" class="edge">
<title>S20&#45;&gt;S21</title>
<path fill="none" stroke="black" d="M876.93,-776.88C872.38,-795.96 863.43,-845.5 883,-879 913.46,-931.15 985,-958.42 1019.17,-968.86"/>
<polygon fill="black" stroke="black" points="1018.64,-972.35 1029.22,-971.77 1020.59,-965.63 1018.64,-972.35"/>
<text text-anchor="middle" x="1076.5" y="-867.8" font-family="Times,serif" font-size="14.00">dont_notify_borrower|payment_default(normal, borrower, lender, 550)</text>
</g>
<!-- S20&#45;&gt;S24 -->
<g id="edge22" class="edge">
<title>S20&#45;&gt;S24</title>
<path fill="none" stroke="black" d="M870.66,-771.52C864.46,-773.31 855.77,-775.62 848,-777 808.64,-784.02 703.47,-774.75 669,-795 653.59,-804.06 654.02,-812.02 646,-828 626.95,-865.95 591.87,-983.53 618,-1017 638.3,-1043 667.37,-1011 690,-1035 696.59,-1041.99 698,-1067.89 698,-1077.5 698,-1252 698,-1252 698,-1252 698,-1286.86 816.09,-1308.87 863.06,-1316.24"/>
<polygon fill="black" stroke="black" points="862.71,-1319.73 873.13,-1317.77 863.76,-1312.81 862.71,-1319.73"/>
<text text-anchor="middle" x="757" y="-1040.3" font-family="Times,serif" font-size="14.00">dont_notify_borrower</text>
</g>
<!-- S21&#45;&gt;S11 -->
<g id="edge14" class="edge">
<title>S21&#45;&gt;S11</title>
<path fill="none" stroke="black" d="M1036.92,-965.92C1036.15,-956.43 1036.59,-940.97 1046,-933 1074.33,-909.01 1677.22,-920.03 1714,-915 1718.47,-914.39 1723.22,-913.4 1727.65,-912.32"/>
<polygon fill="black" stroke="black" points="1728.93,-915.59 1737.68,-909.61 1727.11,-908.84 1728.93,-915.59"/>
<text text-anchor="middle" x="1170" y="-936.8" font-family="Times,serif" font-size="14.00">borrower_default|notify_borrower_of_default</text>
</g>
<!-- S21&#45;&gt;S14 -->
<g id="edge16" class="edge">
<title>S21&#45;&gt;S14</title>
<path fill="none" stroke="black" d="M1035.62,-966.3C1033.38,-957.46 1031.28,-942.89 1038,-933 1062.45,-897.03 1086.89,-907.9 1129,-897 1188.88,-881.51 1206.63,-892.46 1267,-879 1288.4,-874.23 1292.54,-868.5 1314,-864 1397.7,-846.43 1499.98,-840.48 1541.8,-838.69"/>
<polygon fill="black" stroke="black" points="1542.07,-842.18 1551.92,-838.29 1541.79,-835.19 1542.07,-842.18"/>
<text text-anchor="middle" x="1204.5" y="-902.3" font-family="Times,serif" font-size="14.00">notify_borrower_of_default</text>
</g>
<!-- S21&#45;&gt;S18 -->
<g id="edge17" class="edge">
<title>S21&#45;&gt;S18</title>
<path fill="none" stroke="black" d="M1041.74,-983.52C1044.05,-988.6 1046.8,-995.53 1048,-1002 1056.28,-1046.58 1046.89,-1058.67 1046,-1104 1045.84,-1112 1040.99,-1115.76 1046,-1122 1069.08,-1150.77 1101.63,-1113.23 1127,-1140 1153.04,-1167.47 1115.12,-1196.38 1141,-1224 1153.31,-1237.14 1204.19,-1244.73 1232.59,-1248.03"/>
<polygon fill="black" stroke="black" points="1232.58,-1251.55 1242.9,-1249.15 1233.33,-1244.59 1232.58,-1251.55"/>
<text text-anchor="middle" x="1093" y="-1109.3" font-family="Times,serif" font-size="14.00">borrower_default</text>
</g>
<!-- S21&#45;&gt;S20 -->
<g id="edge13" class="edge">
<title>S21&#45;&gt;S20</title>
<path fill="none" stroke="black" d="M1029.14,-973.28C976.31,-968.76 703.52,-942.52 657,-879 629.84,-841.91 802.8,-790.07 860.64,-773.97"/>
<polygon fill="black" stroke="black" points="861.86,-777.26 870.57,-771.24 860,-770.51 861.86,-777.26"/>
<text text-anchor="middle" x="765.5" y="-867.8" font-family="Times,serif" font-size="14.00">borrower_default|dont_notify_borrower</text>
</g>
<!-- S21&#45;&gt;S24 -->
<g id="edge15" class="edge">
<title>S21&#45;&gt;S24</title>
<path fill="none" stroke="black" d="M1035.32,-983.94C1031.9,-993.02 1025.17,-1007.8 1015,-1017 913.6,-1108.74 807.91,-1025.61 733,-1140 686.36,-1211.22 817.23,-1286.37 865.17,-1310.81"/>
<polygon fill="black" stroke="black" points="863.77,-1314.02 874.28,-1315.35 866.89,-1307.76 863.77,-1314.02"/>
<text text-anchor="middle" x="793" y="-1143.8" font-family="Times,serif" font-size="14.00">dont_notify_borrower</text>
</g>
<!-- S22&#45;&gt;S12 -->
<g id="edge9" class="edge">
<title>S22&#45;&gt;S12</title>
<path fill="none" stroke="black" d="M1120.15,-347.96C1118.24,-346.79 1116.12,-345.69 1114,-345 1026.96,-316.48 763.93,-364.11 705,-294 699.85,-287.88 700.34,-282.5 705,-276 744.45,-221.04 787.79,-251.99 852.7,-225.79"/>
<polygon fill="black" stroke="black" points="854.26,-228.93 862.01,-221.7 851.45,-222.52 854.26,-228.93"/>
<text text-anchor="middle" x="829" y="-281.3" font-family="Times,serif" font-size="14.00">borrower_default|notify_borrower_of_default</text>
</g>
<!-- S22&#45;&gt;S15 -->
<g id="edge11" class="edge">
<title>S22&#45;&gt;S15</title>
<path fill="none" stroke="black" d="M1126.16,-344.72C1124.01,-321.7 1119.41,-257.65 1133,-243 1175.06,-197.65 1228.41,-269.86 1271,-225 1285.69,-209.52 1284.44,-183.53 1281.38,-166.08"/>
<polygon fill="black" stroke="black" points="1284.75,-165.1 1279.27,-156.04 1277.9,-166.55 1284.75,-165.1"/>
<text text-anchor="middle" x="1208.5" y="-246.8" font-family="Times,serif" font-size="14.00">notify_borrower_of_default</text>
</g>
<!-- S22&#45;&gt;S16 -->
<g id="edge8" class="edge">
<title>S22&#45;&gt;S16</title>
<path fill="none" stroke="black" d="M1127.67,-362.98C1129.4,-385.78 1132.97,-450.54 1119,-465 1093.07,-491.85 976.94,-455.23 952,-483 946.65,-488.95 946.52,-495.17 952,-501 995.91,-547.74 1196.09,-472.26 1240,-519 1244.56,-523.86 1243.5,-528.32 1240,-534 1169.41,-648.53 991.63,-685.9 933.05,-695.31"/>
<polygon fill="black" stroke="black" points="932.35,-691.88 922.99,-696.84 933.4,-698.8 932.35,-691.88"/>
<text text-anchor="middle" x="1352.5" y="-522.8" font-family="Times,serif" font-size="14.00">borrower_default|dont_notify_borrower</text>
</g>
<!-- S22&#45;&gt;S17 -->
<g id="edge10" class="edge">
<title>S22&#45;&gt;S17</title>
<path fill="none" stroke="black" d="M1120.16,-360.09C1118.26,-361.26 1116.13,-362.35 1114,-363 1071.9,-375.95 748.43,-349.16 718,-381 711.83,-387.46 713.26,-397.25 716.38,-405.64"/>
<polygon fill="black" stroke="black" points="713.27,-407.25 720.63,-414.87 719.63,-404.32 713.27,-407.25"/>
<text text-anchor="middle" x="778" y="-384.8" font-family="Times,serif" font-size="14.00">dont_notify_borrower</text>
</g>
<!-- S22&#45;&gt;S19 -->
<g id="edge12" class="edge">
<title>S22&#45;&gt;S19</title>
<path fill="none" stroke="black" d="M1120.08,-348.14C1118.17,-346.98 1116.07,-345.83 1114,-345 1078.98,-330.91 1063.08,-346.88 1031,-327 1023.74,-322.5 1025.7,-317.29 1019,-312 1007.95,-303.27 993.48,-296.57 982.16,-292.17"/>
<polygon fill="black" stroke="black" points="983.08,-288.78 972.48,-288.65 980.69,-295.36 983.08,-288.78"/>
<text text-anchor="middle" x="1078" y="-315.8" font-family="Times,serif" font-size="14.00">borrower_default</text>
</g>
<!-- S23&#45;&gt;S23 -->
<g id="edge7" class="edge">
<title>S23&#45;&gt;S23</title>
<path fill="none" stroke="black" d="M80.82,-15.22C82.77,-15.68 84.58,-15.13 84.44,-12.28"/>
<polygon fill="black" stroke="black" points="87.65,-10.88 80.82,-2.78 81.11,-13.37 87.65,-10.88"/>
<text text-anchor="middle" x="111.5" y="-5.3" font-family="Times,serif" font-size="14.00">breached</text>
</g>
<!-- S24&#45;&gt;S16 -->
<g id="edge2" class="edge">
<title>S24&#45;&gt;S16</title>
<path fill="none" stroke="black" d="M872.84,-1318.95C798.67,-1318.38 299,-1312.36 299,-1252 299,-1252 299,-1252 299,-1043 299,-1024.69 293.72,-1017.78 303,-1002 351.75,-919.11 402.16,-934.06 481,-879 534.07,-841.93 539.08,-816.91 600,-795 699.4,-759.25 741.01,-821.09 837,-777 852.49,-769.89 884.36,-734.59 901.85,-714.35"/>
<polygon fill="black" stroke="black" points="904.73,-716.36 908.57,-706.49 899.41,-711.81 904.73,-716.36"/>
<text text-anchor="middle" x="447.5" y="-1005.8" font-family="Times,serif" font-size="14.00">borrower_default|pay(normal, borrower, lender, 550)</text>
</g>
<!-- S24&#45;&gt;S17 -->
<g id="edge3" class="edge">
<title>S24&#45;&gt;S17</title>
<path fill="none" stroke="black" d="M872.67,-1318.9C804.93,-1318.14 389.94,-1312.7 338,-1293 310.81,-1282.69 287,-1281.08 287,-1252 287,-1252 287,-1252 287,-525.5 287,-501.59 299.25,-494.88 320,-483 356.11,-462.33 638.41,-448.22 708.47,-431.75"/>
<polygon fill="black" stroke="black" points="709.48,-435.1 718.12,-428.97 707.54,-428.37 709.48,-435.1"/>
<text text-anchor="middle" x="383.5" y="-867.8" font-family="Times,serif" font-size="14.00">pay(normal, borrower, lender, 550)</text>
</g>
<!-- S24&#45;&gt;S18 -->
<g id="edge4" class="edge">
<title>S24&#45;&gt;S18</title>
<path fill="none" stroke="black" d="M880.1,-1311.1C878.38,-1301.78 877.29,-1286.48 886,-1278 910.96,-1253.69 1160.66,-1251.94 1232.66,-1251.95"/>
<polygon fill="black" stroke="black" points="1232.96,-1255.45 1242.96,-1251.96 1232.97,-1248.45 1232.96,-1255.45"/>
<text text-anchor="middle" x="1066.5" y="-1281.8" font-family="Times,serif" font-size="14.00">borrower_default|payment_default(normal, borrower, lender, 550)</text>
</g>
<!-- S24&#45;&gt;S20 -->
<g id="edge5" class="edge">
<title>S24&#45;&gt;S20</title>
<path fill="none" stroke="black" d="M872.81,-1318.86C823.85,-1317.9 596,-1310.26 596,-1252 596,-1252 596,-1252 596,-836 596,-816.1 597.77,-806.51 614,-795 656.54,-764.83 796.55,-785.55 848,-777 852.14,-776.31 856.53,-775.34 860.66,-774.3"/>
<polygon fill="black" stroke="black" points="861.94,-777.58 870.66,-771.58 860.1,-770.83 861.94,-777.58"/>
<text text-anchor="middle" x="643" y="-1040.3" font-family="Times,serif" font-size="14.00">borrower_default</text>
</g>
<!-- S24&#45;&gt;S21 -->
<g id="edge6" class="edge">
<title>S24&#45;&gt;S21</title>
<path fill="none" stroke="black" d="M878.19,-1311.82C865.17,-1286.19 825.17,-1197.68 861,-1140 907.04,-1065.88 990.48,-1126.82 1037,-1053 1048.12,-1035.36 1046.06,-1010.62 1042.75,-993.99"/>
<polygon fill="black" stroke="black" points="1046.09,-992.9 1040.41,-983.96 1039.27,-994.49 1046.09,-992.9"/>
<text text-anchor="middle" x="993.5" y="-1143.8" font-family="Times,serif" font-size="14.00">payment_default(normal, borrower, lender, 550)</text>
</g>
</g>
</svg>
