<?xml version="1.0" encoding="UTF-8" standalone="no"?>
<!DOCTYPE svg PUBLIC "-//W3C//DTD SVG 1.1//EN"
 "http://www.w3.org/Graphics/SVG/1.1/DTD/svg11.dtd">
<!-- Generated by graphviz version 5.0.1 (0)
 -->
<!-- Title: G Pages: 1 -->
<svg width="5210pt" height="1069pt"
 viewBox="0.00 0.00 5210.00 1069.00" xmlns="http://www.w3.org/2000/svg" xmlns:xlink="http://www.w3.org/1999/xlink">
<g id="graph0" class="graph" transform="scale(1 1) rotate(0) translate(4 1065)">
<title>G</title>
<polygon fill="white" stroke="none" points="-4,4 -4,-1065 5206,-1065 5206,4 -4,4"/>
<!-- S4 -->
<g id="node1" class="node">
<title>S4</title>
<ellipse fill="none" stroke="black" cx="3764" cy="-1048" rx="9" ry="9"/>
<ellipse fill="none" stroke="black" cx="3764" cy="-1048" rx="13" ry="13"/>
</g>
<!-- S5 -->
<g id="node6" class="node">
<title>S5</title>
<ellipse fill="none" stroke="black" cx="2441" cy="-975" rx="9" ry="9"/>
</g>
<!-- S4&#45;&gt;S5 -->
<g id="edge127" class="edge">
<title>S4&#45;&gt;S5</title>
<path fill="none" stroke="black" d="M3750.91,-1046.3C3623.92,-1039.48 2612.88,-985.22 2460.27,-977.03"/>
<polygon fill="black" stroke="black" points="2460.29,-973.53 2450.12,-976.49 2459.91,-980.52 2460.29,-973.53"/>
<text text-anchor="middle" x="3228" y="-1005.8" font-family="Times,serif" font-size="14.00">request_principal</text>
</g>
<!-- S10 -->
<g id="node11" class="node">
<title>S10</title>
<ellipse fill="none" stroke="black" cx="4446" cy="-9" rx="9" ry="9"/>
</g>
<!-- S4&#45;&gt;S10 -->
<g id="edge128" class="edge">
<title>S4&#45;&gt;S10</title>
<path fill="none" stroke="black" d="M3777,-1047.01C3913.36,-1046.98 5077,-1044.77 5077,-976 5077,-976 5077,-976 5077,-77 5077,-13.89 4571.38,-10.08 4465.35,-9.97"/>
<polygon fill="black" stroke="black" points="4465.16,-6.47 4455.16,-9.97 4465.16,-13.47 4465.16,-6.47"/>
<text text-anchor="middle" x="5139.5" y="-522.8" font-family="Times,serif" font-size="14.00">dont_request_principal</text>
</g>
<!-- S0 -->
<g id="node2" class="node">
<title>S0</title>
<ellipse fill="none" stroke="black" cx="3127" cy="-423" rx="9" ry="9"/>
</g>
<!-- S7 -->
<g id="node8" class="node">
<title>S7</title>
<ellipse fill="none" stroke="black" cx="2740" cy="-561" rx="9" ry="9"/>
</g>
<!-- S0&#45;&gt;S7 -->
<g id="edge13" class="edge">
<title>S0&#45;&gt;S7</title>
<path fill="none" stroke="black" d="M3122.17,-430.98C3118.86,-436.05 3114.62,-443.19 3112,-450 3103.66,-471.64 3117.8,-485.02 3101,-501 3051.08,-548.47 2826.5,-557.85 2759.15,-559.61"/>
<polygon fill="black" stroke="black" points="2759.02,-556.12 2749.11,-559.85 2759.19,-563.11 2759.02,-556.12"/>
<text text-anchor="middle" x="3261.5" y="-488.3" font-family="Times,serif" font-size="14.00">notify_borrower_of_default|notify_borrower_of_default</text>
</g>
<!-- S8 -->
<g id="node9" class="node">
<title>S8</title>
<ellipse fill="none" stroke="black" cx="3419" cy="-699" rx="9" ry="9"/>
</g>
<!-- S0&#45;&gt;S8 -->
<g id="edge14" class="edge">
<title>S0&#45;&gt;S8</title>
<path fill="none" stroke="black" d="M3125.7,-432.05C3124.68,-441.52 3124.72,-456.97 3134,-465 3164.09,-491.04 3822.22,-454.51 3850,-483 3928.98,-563.99 3691.34,-478.9 3605,-552 3598.45,-557.55 3603.27,-563.22 3598,-570 3552.12,-629.06 3471.75,-672.64 3436.45,-689.88"/>
<polygon fill="black" stroke="black" points="3434.55,-686.91 3427.04,-694.37 3437.57,-693.23 3434.55,-686.91"/>
<text text-anchor="middle" x="3742" y="-557.3" font-family="Times,serif" font-size="14.00">dont_notify_borrower|notify_borrower_of_default</text>
</g>
<!-- S13 -->
<g id="node14" class="node">
<title>S13</title>
<ellipse fill="none" stroke="black" cx="2740" cy="-630" rx="9" ry="9"/>
</g>
<!-- S0&#45;&gt;S13 -->
<g id="edge10" class="edge">
<title>S0&#45;&gt;S13</title>
<path fill="none" stroke="black" d="M3123.27,-431.45C3119.28,-440.61 3114.57,-456.04 3123,-465 3167.38,-512.21 3369.62,-435.79 3414,-483 3419.48,-488.83 3419.3,-495.01 3414,-501 3392.03,-525.8 3297.96,-510.27 3266,-519 3176.15,-543.55 3164.36,-580.4 3074,-603 3013.7,-618.08 2821.29,-626.1 2759.38,-628.34"/>
<polygon fill="black" stroke="black" points="2758.98,-624.85 2749.11,-628.7 2759.23,-631.85 2758.98,-624.85"/>
<text text-anchor="middle" x="3341.5" y="-522.8" font-family="Times,serif" font-size="14.00">notify_borrower_of_default</text>
</g>
<!-- S14 -->
<g id="node15" class="node">
<title>S14</title>
<ellipse fill="none" stroke="black" cx="2795" cy="-147" rx="9" ry="9"/>
</g>
<!-- S0&#45;&gt;S14 -->
<g id="edge15" class="edge">
<title>S0&#45;&gt;S14</title>
<path fill="none" stroke="black" d="M3118.03,-422.11C3093.26,-422.08 3022.32,-419.77 2970,-396 2916.53,-371.7 2919.46,-340.29 2868,-312 2845.46,-299.61 2829.34,-313.86 2813,-294 2797.25,-274.87 2795.04,-200.84 2794.89,-166.14"/>
<polygon fill="black" stroke="black" points="2798.39,-166.02 2794.9,-156.02 2791.39,-166.02 2798.39,-166.02"/>
<text text-anchor="middle" x="2950" y="-281.3" font-family="Times,serif" font-size="14.00">dont_notify_borrower|notify_borrower_of_default</text>
</g>
<!-- S17 -->
<g id="node18" class="node">
<title>S17</title>
<ellipse fill="none" stroke="black" cx="3144" cy="-216" rx="9" ry="9"/>
</g>
<!-- S0&#45;&gt;S17 -->
<g id="edge9" class="edge">
<title>S0&#45;&gt;S17</title>
<path fill="none" stroke="black" d="M3135.98,-421.93C3152.17,-421.25 3185.96,-417.22 3201,-396 3204.85,-390.56 3203.22,-387.29 3201,-381 3194.17,-361.62 3188.97,-356.59 3172,-345 3150.06,-330.02 3130.7,-348.43 3115,-327 3111.06,-321.62 3110.76,-317.15 3115,-312 3195.06,-214.69 3474.29,-336.67 3390,-243 3374.88,-226.2 3218.26,-219.45 3163.1,-217.58"/>
<polygon fill="black" stroke="black" points="3163.06,-214.08 3152.95,-217.25 3162.84,-221.07 3163.06,-214.08"/>
<text text-anchor="middle" x="3190.5" y="-315.8" font-family="Times,serif" font-size="14.00">notify_borrower_of_default</text>
</g>
<!-- S19 -->
<g id="node20" class="node">
<title>S19</title>
<ellipse fill="none" stroke="black" cx="3098" cy="-285" rx="9" ry="9"/>
</g>
<!-- S0&#45;&gt;S19 -->
<g id="edge11" class="edge">
<title>S0&#45;&gt;S19</title>
<path fill="none" stroke="black" d="M3117.7,-422.24C3087.64,-422.43 2992.77,-418.48 2953,-363 2948.34,-356.5 2948.48,-351.6 2953,-345 2986.76,-295.76 3024.59,-319.21 3081.66,-294.96"/>
<polygon fill="black" stroke="black" points="3083.38,-298.02 3090.98,-290.64 3080.44,-291.67 3083.38,-298.02"/>
<text text-anchor="middle" x="3013" y="-350.3" font-family="Times,serif" font-size="14.00">dont_notify_borrower</text>
</g>
<!-- S21 -->
<g id="node22" class="node">
<title>S21</title>
<ellipse fill="none" stroke="black" cx="3907" cy="-354" rx="9" ry="9"/>
</g>
<!-- S0&#45;&gt;S21 -->
<g id="edge12" class="edge">
<title>S0&#45;&gt;S21</title>
<path fill="none" stroke="black" d="M3136.03,-421.78C3188.61,-420.42 3454.13,-412.76 3486,-396 3493.56,-392.03 3490.43,-384.94 3498,-381 3532.82,-362.88 3811.52,-356.68 3887.77,-355.31"/>
<polygon fill="black" stroke="black" points="3887.92,-358.81 3897.86,-355.14 3887.8,-351.81 3887.92,-358.81"/>
<text text-anchor="middle" x="3558" y="-384.8" font-family="Times,serif" font-size="14.00">dont_notify_borrower</text>
</g>
<!-- S22 -->
<g id="node23" class="node">
<title>S22</title>
<ellipse fill="none" stroke="black" cx="3878" cy="-492" rx="9" ry="9"/>
</g>
<!-- S0&#45;&gt;S22 -->
<g id="edge16" class="edge">
<title>S0&#45;&gt;S22</title>
<path fill="none" stroke="black" d="M3136.25,-424.02C3186.83,-424.2 3430.34,-426.3 3501,-450 3512.57,-453.88 3512.4,-461.21 3524,-465 3666.58,-511.56 3715.55,-446.39 3861,-483 3861.1,-483.03 3861.21,-483.05 3861.31,-483.08"/>
<polygon fill="black" stroke="black" points="3860.03,-486.34 3870.62,-486.76 3862.61,-479.83 3860.03,-486.34"/>
<text text-anchor="middle" x="3645" y="-453.8" font-family="Times,serif" font-size="14.00">dont_notify_borrower|dont_notify_borrower</text>
</g>
<!-- S1 -->
<g id="node3" class="node">
<title>S1</title>
<ellipse fill="none" stroke="black" cx="2330" cy="-423" rx="9" ry="9"/>
</g>
<!-- S2 -->
<g id="node4" class="node">
<title>S2</title>
<ellipse fill="none" stroke="black" cx="2483" cy="-78" rx="9" ry="9"/>
</g>
<!-- S2&#45;&gt;S10 -->
<g id="edge131" class="edge">
<title>S2&#45;&gt;S10</title>
<path fill="none" stroke="black" d="M2491.95,-76.5C2559.32,-72.71 2994.17,-48.57 3348,-36 3784.68,-20.48 4319.4,-11.91 4426.72,-10.29"/>
<polygon fill="black" stroke="black" points="4427.02,-13.78 4436.96,-10.13 4426.91,-6.78 4427.02,-13.78"/>
<text text-anchor="middle" x="3455" y="-39.8" font-family="Times,serif" font-size="14.00">pay(accelerated, borrower, lender, 525)</text>
</g>
<!-- S20 -->
<g id="node21" class="node">
<title>S20</title>
<ellipse fill="none" stroke="black" cx="1717" cy="-9" rx="9" ry="9"/>
</g>
<!-- S2&#45;&gt;S20 -->
<g id="edge132" class="edge">
<title>S2&#45;&gt;S20</title>
<path fill="none" stroke="black" d="M2474.13,-76.22C2397.46,-69.52 1846.87,-21.36 1736.31,-11.69"/>
<polygon fill="black" stroke="black" points="1736.28,-8.17 1726.02,-10.79 1735.67,-15.15 1736.28,-8.17"/>
<text text-anchor="middle" x="2311" y="-39.8" font-family="Times,serif" font-size="14.00">payment_default(accelerated, borrower, lender, 525)</text>
</g>
<!-- S3 -->
<g id="node5" class="node">
<title>S3</title>
<ellipse fill="none" stroke="black" cx="1351" cy="-285" rx="9" ry="9"/>
</g>
<!-- S3&#45;&gt;S10 -->
<g id="edge129" class="edge">
<title>S3&#45;&gt;S10</title>
<path fill="none" stroke="black" d="M1359.95,-283.39C1417.04,-279.36 1728,-255.64 1728,-217 1728,-217 1728,-217 1728,-77 1728,-9.27 1962.45,-40.93 2030,-36 2282.9,-17.54 4213.48,-10.76 4426.86,-10.06"/>
<polygon fill="black" stroke="black" points="4426.89,-13.56 4436.87,-10.03 4426.86,-6.56 4426.89,-13.56"/>
<text text-anchor="middle" x="1838.5" y="-143.3" font-family="Times,serif" font-size="14.00">pay(accelerated, borrower, lender, 1075)</text>
</g>
<!-- S3&#45;&gt;S20 -->
<g id="edge130" class="edge">
<title>S3&#45;&gt;S20</title>
<path fill="none" stroke="black" d="M1354.08,-276.3C1358.73,-263.99 1367,-239 1367,-217 1367,-217 1367,-217 1367,-77 1367,-9.03 1624.88,-8.38 1697.93,-9.56"/>
<polygon fill="black" stroke="black" points="1697.93,-13.06 1708,-9.76 1698.07,-6.06 1697.93,-13.06"/>
<text text-anchor="middle" x="1513.5" y="-143.3" font-family="Times,serif" font-size="14.00">payment_default(accelerated, borrower, lender, 1075)</text>
</g>
<!-- S11 -->
<g id="node12" class="node">
<title>S11</title>
<ellipse fill="none" stroke="black" cx="1393" cy="-906" rx="9" ry="9"/>
</g>
<!-- S5&#45;&gt;S11 -->
<g id="edge125" class="edge">
<title>S5&#45;&gt;S11</title>
<path fill="none" stroke="black" d="M2431.94,-973.42C2338.24,-967.43 1546.57,-916.82 1412.31,-908.23"/>
<polygon fill="black" stroke="black" points="1412.19,-904.72 1401.99,-907.57 1411.74,-911.71 1412.19,-904.72"/>
<text text-anchor="middle" x="2114" y="-936.8" font-family="Times,serif" font-size="14.00">pay(principal, lender, borrower, 1000)</text>
</g>
<!-- S5&#45;&gt;S20 -->
<g id="edge126" class="edge">
<title>S5&#45;&gt;S20</title>
<path fill="none" stroke="black" d="M2441,-965.75C2441,-953.1 2441,-928.17 2441,-907 2441,-907 2441,-907 2441,-767 2441,-748.51 2442.51,-742.41 2434,-726 2373.95,-610.22 2340.79,-580.92 2226,-519 2191.63,-500.46 2164.62,-531.31 2140,-501 2118.87,-474.99 2171.01,-452.27 2175,-450 2200.31,-435.6 2220.46,-455.25 2238,-432 2242.82,-425.61 2243.47,-419.84 2238,-414 2195.98,-369.15 2010.67,-433.54 1962,-396 1943.08,-381.41 1960.22,-363.42 1945,-345 1870.98,-255.41 1717,-333.21 1717,-217 1717,-217 1717,-217 1717,-77 1717,-60.63 1717,-42 1717,-28.55"/>
<polygon fill="black" stroke="black" points="1720.5,-28.25 1717,-18.25 1713.5,-28.25 1720.5,-28.25"/>
<text text-anchor="middle" x="2280" y="-488.3" font-family="Times,serif" font-size="14.00">payment_default(principal, lender, borrower, 1000)</text>
</g>
<!-- S6 -->
<g id="node7" class="node">
<title>S6</title>
<ellipse fill="none" stroke="black" cx="1316" cy="-492" rx="9" ry="9"/>
</g>
<!-- S6&#45;&gt;S1 -->
<g id="edge121" class="edge">
<title>S6&#45;&gt;S1</title>
<path fill="none" stroke="black" d="M1325.1,-490.5C1395.54,-486.62 1861.14,-460.68 2239,-432 2263.88,-430.11 2292.55,-427.52 2310.96,-425.81"/>
<polygon fill="black" stroke="black" points="2311.34,-429.29 2320.96,-424.87 2310.68,-422.32 2311.34,-429.29"/>
<text text-anchor="middle" x="2085" y="-453.8" font-family="Times,serif" font-size="14.00">dont_cure_default|dont_cure_default</text>
</g>
<!-- S6&#45;&gt;S3 -->
<g id="edge120" class="edge">
<title>S6&#45;&gt;S3</title>
<path fill="none" stroke="black" d="M1314.97,-482.64C1312.49,-466.49 1304.63,-431.07 1282,-414 1234.41,-378.1 1116.53,-428.91 1152,-381 1168.31,-358.97 1185.74,-373.66 1211,-363 1257.93,-343.19 1309.56,-312.18 1335.01,-296.23"/>
<polygon fill="black" stroke="black" points="1337.11,-299.05 1343.69,-290.74 1333.37,-293.13 1337.11,-299.05"/>
<text text-anchor="middle" x="1236.5" y="-384.8" font-family="Times,serif" font-size="14.00">cure_default|dont_cure_default</text>
</g>
<!-- S6&#45;&gt;S3 -->
<g id="edge124" class="edge">
<title>S6&#45;&gt;S3</title>
<path fill="none" stroke="black" d="M1316.42,-482.87C1317.22,-468.78 1319.23,-438.95 1323,-414 1329.01,-374.21 1340.08,-328.29 1346.35,-303.71"/>
<polygon fill="black" stroke="black" points="1349.74,-304.58 1348.86,-294.02 1342.97,-302.82 1349.74,-304.58"/>
<text text-anchor="middle" x="1378.5" y="-384.8" font-family="Times,serif" font-size="14.00">dont_cure_default</text>
</g>
<!-- S9 -->
<g id="node10" class="node">
<title>S9</title>
<ellipse fill="none" stroke="black" cx="1985" cy="-768" rx="9" ry="9"/>
</g>
<!-- S6&#45;&gt;S9 -->
<g id="edge123" class="edge">
<title>S6&#45;&gt;S9</title>
<path fill="none" stroke="black" d="M1324.09,-496.09C1334.59,-500.32 1353.19,-508.59 1367,-519 1374.28,-524.49 1374.33,-527.79 1381,-534 1435.36,-584.61 1446.01,-603.05 1511,-639 1550.48,-660.84 1562.7,-663.46 1607,-672 1646.43,-679.6 1937.33,-664.08 1968,-690 1984.72,-704.13 1987.18,-730.65 1986.68,-748.57"/>
<polygon fill="black" stroke="black" points="1983.18,-748.46 1986.06,-758.65 1990.17,-748.89 1983.18,-748.46"/>
<text text-anchor="middle" x="1545" y="-626.3" font-family="Times,serif" font-size="14.00">cure_default</text>
</g>
<!-- S6&#45;&gt;S11 -->
<g id="edge119" class="edge">
<title>S6&#45;&gt;S11</title>
<path fill="none" stroke="black" d="M1322.85,-497.93C1334.94,-507.05 1359.83,-527.85 1371,-552 1393.54,-600.73 1374,-619.44 1385,-672 1388.43,-688.38 1383.06,-697.39 1396,-708 1427.08,-733.49 1549.03,-696.19 1576,-726 1621.85,-776.66 1608.21,-829.61 1561,-879 1540.86,-900.07 1451.8,-904.1 1412.15,-904.85"/>
<polygon fill="black" stroke="black" points="1411.92,-901.35 1401.97,-904.99 1412.01,-908.35 1411.92,-901.35"/>
<text text-anchor="middle" x="1465.5" y="-695.3" font-family="Times,serif" font-size="14.00">cure_default|cure_default</text>
</g>
<!-- S18 -->
<g id="node19" class="node">
<title>S18</title>
<ellipse fill="none" stroke="black" cx="566" cy="-423" rx="9" ry="9"/>
</g>
<!-- S6&#45;&gt;S18 -->
<g id="edge122" class="edge">
<title>S6&#45;&gt;S18</title>
<path fill="none" stroke="black" d="M1307.05,-490.2C1231.15,-483.42 695.16,-435.54 585.55,-425.75"/>
<polygon fill="black" stroke="black" points="585.58,-422.24 575.31,-424.83 584.96,-429.21 585.58,-422.24"/>
<text text-anchor="middle" x="1043" y="-453.8" font-family="Times,serif" font-size="14.00">cure_default</text>
</g>
<!-- S7&#45;&gt;S1 -->
<g id="edge114" class="edge">
<title>S7&#45;&gt;S1</title>
<path fill="none" stroke="black" d="M2731.04,-558.24C2699.9,-552.01 2593.64,-529.82 2509,-501 2447.72,-480.14 2378.03,-447.44 2346.75,-432.26"/>
<polygon fill="black" stroke="black" points="2348.2,-429.07 2337.68,-427.82 2345.13,-435.36 2348.2,-429.07"/>
<text text-anchor="middle" x="2609" y="-488.3" font-family="Times,serif" font-size="14.00">dont_cure_default|dont_cure_default</text>
</g>
<!-- S7&#45;&gt;S2 -->
<g id="edge113" class="edge">
<title>S7&#45;&gt;S2</title>
<path fill="none" stroke="black" d="M2739.21,-551.81C2738.75,-546.7 2738.23,-539.97 2738,-534 2737.74,-527.34 2737.91,-525.67 2738,-519 2738.22,-503 2738.44,-499 2739,-483 2739.53,-467.67 2754.14,-356.51 2744,-345 2701.94,-297.27 2649.94,-368.82 2602,-327 2587.78,-314.6 2591,-304.87 2591,-286 2591,-286 2591,-286 2591,-146 2591,-104.54 2532.8,-87.84 2501.85,-81.9"/>
<polygon fill="black" stroke="black" points="2502.29,-78.42 2491.84,-80.17 2501.1,-85.32 2502.29,-78.42"/>
<text text-anchor="middle" x="2686.5" y="-315.8" font-family="Times,serif" font-size="14.00">cure_default|dont_cure_default</text>
</g>
<!-- S7&#45;&gt;S2 -->
<g id="edge118" class="edge">
<title>S7&#45;&gt;S2</title>
<path fill="none" stroke="black" d="M2738.54,-551.83C2737.68,-546.72 2736.63,-539.99 2736,-534 2733.79,-513.08 2739.74,-360.01 2725,-345 2688.47,-307.78 2529.95,-361.68 2491,-327 2477.13,-314.65 2483,-304.57 2483,-286 2483,-286 2483,-286 2483,-146 2483,-129.63 2483,-111 2483,-97.55"/>
<polygon fill="black" stroke="black" points="2486.5,-97.25 2483,-87.25 2479.5,-97.25 2486.5,-97.25"/>
<text text-anchor="middle" x="2540.5" y="-315.8" font-family="Times,serif" font-size="14.00">dont_cure_default</text>
</g>
<!-- S7&#45;&gt;S8 -->
<g id="edge117" class="edge">
<title>S7&#45;&gt;S8</title>
<path fill="none" stroke="black" d="M2748.93,-563.41C2772.41,-567.15 2837.82,-577.71 2892,-588 3091.65,-625.9 3332.31,-678.77 3400.31,-693.84"/>
<polygon fill="black" stroke="black" points="3399.81,-697.32 3410.33,-696.07 3401.33,-690.48 3399.81,-697.32"/>
<text text-anchor="middle" x="3174" y="-626.3" font-family="Times,serif" font-size="14.00">cure_default</text>
</g>
<!-- S7&#45;&gt;S14 -->
<g id="edge116" class="edge">
<title>S7&#45;&gt;S14</title>
<path fill="none" stroke="black" d="M2739.77,-551.88C2739.48,-537.8 2739.29,-507.99 2742,-483 2749.61,-412.81 2761.2,-396.77 2772,-327 2782.47,-259.34 2779.53,-241.66 2790,-174 2790.39,-171.47 2790.85,-168.81 2791.33,-166.2"/>
<polygon fill="black" stroke="black" points="2794.8,-166.65 2793.27,-156.17 2787.93,-165.32 2794.8,-166.65"/>
<text text-anchor="middle" x="2802" y="-350.3" font-family="Times,serif" font-size="14.00">cure_default</text>
</g>
<!-- S7&#45;&gt;S22 -->
<g id="edge115" class="edge">
<title>S7&#45;&gt;S22</title>
<path fill="none" stroke="black" d="M2749.01,-559.94C2824.32,-559.43 3347.75,-555.09 3414,-534 3425.63,-530.3 3425.38,-522.73 3437,-519 3524.68,-490.85 3760.18,-516.19 3851,-501 3853.88,-500.52 3856.89,-499.82 3859.81,-499.04"/>
<polygon fill="black" stroke="black" points="3861.06,-502.32 3869.61,-496.06 3859.03,-495.63 3861.06,-502.32"/>
<text text-anchor="middle" x="3506.5" y="-522.8" font-family="Times,serif" font-size="14.00">cure_default|cure_default</text>
</g>
<!-- S8&#45;&gt;S2 -->
<g id="edge108" class="edge">
<title>S8&#45;&gt;S2</title>
<path fill="none" stroke="black" d="M3410.06,-697.93C3312.69,-697.16 2452.64,-689.87 2434,-672 2373.22,-613.73 2458.67,-558.3 2421,-483 2399.99,-441.01 2384.6,-431.42 2341,-414 2302.78,-398.73 2000.8,-424.39 1971,-396 1957.74,-383.37 1967,-373.31 1967,-355 1967,-355 1967,-355 1967,-146 1967,-94.89 2370.29,-81.78 2463.8,-79.43"/>
<polygon fill="black" stroke="black" points="2464.13,-82.93 2474.04,-79.19 2463.96,-75.93 2464.13,-82.93"/>
<text text-anchor="middle" x="2154" y="-384.8" font-family="Times,serif" font-size="14.00">dont_cure_default|payment_default(normal, borrower, lender, 525)</text>
</g>
<!-- S8&#45;&gt;S2 -->
<g id="edge112" class="edge">
<title>S8&#45;&gt;S2</title>
<path fill="none" stroke="black" d="M3410.06,-697.88C3335.21,-696.89 2811.64,-689.36 2655,-672 2557.45,-661.19 2438,-729.15 2438,-631 2438,-631 2438,-631 2438,-525.5 2438,-506.1 2435.14,-501.04 2428,-483 2421.77,-467.26 2420,-462.86 2409,-450 2405.89,-446.37 2345.05,-399.68 2342,-396 2337.18,-390.18 2340.3,-385.17 2334,-381 2296.23,-356.01 2164.2,-393.8 2131,-363 2116.97,-349.98 2124,-339.64 2124,-320.5 2124,-320.5 2124,-320.5 2124,-146 2124,-123.93 2132.91,-116.06 2152,-105 2179,-89.36 2397.07,-81.58 2463.72,-79.55"/>
<polygon fill="black" stroke="black" points="2464.12,-83.04 2474.01,-79.25 2463.91,-76.04 2464.12,-83.04"/>
<text text-anchor="middle" x="2391.5" y="-384.8" font-family="Times,serif" font-size="14.00">dont_cure_default</text>
</g>
<!-- S8&#45;&gt;S10 -->
<g id="edge105" class="edge">
<title>S8&#45;&gt;S10</title>
<path fill="none" stroke="black" d="M3428.3,-698.1C3494,-698.75 3886.99,-701.36 3930,-672 3950.54,-657.98 3934.69,-637.83 3953,-621 3970.7,-604.74 3981.7,-611.98 4004,-603 4141.65,-547.59 4175.08,-530.94 4308,-465 4393.51,-422.58 4427.72,-428.66 4497,-363 4503.8,-356.55 4501.69,-351.94 4508,-345 4554.2,-294.19 4631,-320.17 4631,-251.5 4631,-251.5 4631,-251.5 4631,-77 4631,-58.51 4637.23,-48.91 4624,-36 4601.73,-14.26 4506.28,-10.61 4465.07,-10.06"/>
<polygon fill="black" stroke="black" points="4465.02,-6.56 4454.99,-9.98 4464.96,-13.56 4465.02,-6.56"/>
<text text-anchor="middle" x="4639.5" y="-350.3" font-family="Times,serif" font-size="14.00">cure_default|pay(normal, borrower, lender, 525)</text>
</g>
<!-- S8&#45;&gt;S10 -->
<g id="edge106" class="edge">
<title>S8&#45;&gt;S10</title>
<path fill="none" stroke="black" d="M3427.94,-697.92C3492.79,-697.31 3890.12,-692.76 3939,-672 3947.97,-668.19 3946.06,-660.88 3955,-657 4065.72,-608.91 4112.96,-681.35 4226,-639 4261.04,-625.87 4261.03,-607.45 4293,-588 4502.65,-460.47 4776,-565.89 4776,-320.5 4776,-320.5 4776,-320.5 4776,-77 4776,-13.18 4535.94,-9.49 4465.32,-9.78"/>
<polygon fill="black" stroke="black" points="4465.14,-6.28 4455.17,-9.86 4465.2,-13.28 4465.14,-6.28"/>
<text text-anchor="middle" x="4921" y="-350.3" font-family="Times,serif" font-size="14.00">dont_cure_default|pay(normal, borrower, lender, 525)</text>
</g>
<!-- S8&#45;&gt;S10 -->
<g id="edge111" class="edge">
<title>S8&#45;&gt;S10</title>
<path fill="none" stroke="black" d="M3428.23,-698.1C3469.38,-698.4 3640.15,-697.91 3777,-672 3825.48,-662.82 3836.81,-656.36 3883,-639 4043.18,-578.8 4074.25,-541.65 4235,-483 4261.96,-473.16 4279.2,-487.51 4297,-465 4330.12,-423.11 4269.69,-386.74 4303,-345 4325.32,-317.04 4589.06,-284.58 4613,-258 4625.37,-244.26 4620,-235.49 4620,-217 4620,-217 4620,-217 4620,-77 4620,-44.03 4509.8,-21.1 4464.8,-13.11"/>
<polygon fill="black" stroke="black" points="4465.32,-9.65 4454.87,-11.41 4464.13,-16.55 4465.32,-9.65"/>
<text text-anchor="middle" x="4399.5" y="-350.3" font-family="Times,serif" font-size="14.00">pay(normal, borrower, lender, 525)</text>
</g>
<!-- S8&#45;&gt;S13 -->
<g id="edge110" class="edge">
<title>S8&#45;&gt;S13</title>
<path fill="none" stroke="black" d="M3409.61,-698.08C3335.61,-698.64 2847.65,-701.19 2790,-672 2782.38,-668.14 2784.26,-662.81 2778,-657 2771.39,-650.87 2763.24,-645.1 2756.17,-640.55"/>
<polygon fill="black" stroke="black" points="2757.82,-637.46 2747.47,-635.21 2754.16,-643.42 2757.82,-637.46"/>
<text text-anchor="middle" x="2922.5" y="-660.8" font-family="Times,serif" font-size="14.00">payment_default(normal, borrower, lender, 525)</text>
</g>
<!-- S8&#45;&gt;S19 -->
<g id="edge107" class="edge">
<title>S8&#45;&gt;S19</title>
<path fill="none" stroke="black" d="M3410.69,-694.65C3382.61,-683.41 3288.57,-646.29 3209,-621 3160.3,-605.52 2796.07,-541.58 2765,-501 2760.14,-494.65 2759.9,-489.17 2765,-483 2792.1,-450.22 2823.2,-487.97 2859,-465 2929.27,-419.91 2897.07,-356.04 2968,-312 3010.83,-285.41 3031.67,-308.36 3080,-294 3080.21,-293.94 3080.43,-293.87 3080.64,-293.8"/>
<polygon fill="black" stroke="black" points="3082.11,-296.99 3090.1,-290.04 3079.52,-290.48 3082.11,-296.99"/>
<text text-anchor="middle" x="2932.5" y="-488.3" font-family="Times,serif" font-size="14.00">cure_default|payment_default(normal, borrower, lender, 525)</text>
</g>
<!-- S8&#45;&gt;S22 -->
<g id="edge109" class="edge">
<title>S8&#45;&gt;S22</title>
<path fill="none" stroke="black" d="M3427.89,-697.51C3455.38,-695.83 3541.23,-689.45 3610,-672 3712.25,-646.05 3733.28,-625.19 3832,-588 3853.32,-579.97 3867.02,-588.73 3880,-570 3892.12,-552.51 3888.4,-527.01 3883.85,-510.22"/>
<polygon fill="black" stroke="black" points="3887.18,-509.14 3880.9,-500.61 3880.49,-511.2 3887.18,-509.14"/>
<text text-anchor="middle" x="3866" y="-591.8" font-family="Times,serif" font-size="14.00">cure_default</text>
</g>
<!-- S9&#45;&gt;S2 -->
<g id="edge98" class="edge">
<title>S9&#45;&gt;S2</title>
<path fill="none" stroke="black" d="M1994.08,-766.64C2035.36,-764.9 2204.16,-756.87 2221,-741 2234.45,-728.32 2228,-718.49 2228,-700 2228,-700 2228,-700 2228,-560 2228,-541.24 2231.42,-532.11 2218,-519 2191.31,-492.92 2171.83,-511.42 2136,-501 2093.07,-488.51 1972.63,-468.64 1947,-432 1944.58,-428.54 1927.17,-202.32 1963,-138 1975.42,-115.7 1985.88,-113.36 2010,-105 2095.74,-75.29 2385.12,-77.48 2463.36,-78.65"/>
<polygon fill="black" stroke="black" points="2463.63,-82.16 2473.68,-78.82 2463.74,-75.16 2463.63,-82.16"/>
<text text-anchor="middle" x="2094" y="-419.3" font-family="Times,serif" font-size="14.00">dont_cure_default|pay(normal, borrower, lender, 550)</text>
</g>
<!-- S9&#45;&gt;S3 -->
<g id="edge100" class="edge">
<title>S9&#45;&gt;S3</title>
<path fill="none" stroke="black" d="M1989.3,-759.9C1992.29,-754.77 1996.21,-747.61 1999,-741 2008.23,-719.11 2004.75,-711.43 2015,-690 2019.15,-681.33 2024.21,-681.2 2027,-672 2028.93,-665.62 2029.7,-663.1 2027,-657 2008.53,-615.28 1991.04,-609.86 1951,-588 1869.81,-543.67 1806.29,-607.4 1750,-534 1695.48,-462.9 1964.5,-486.61 1912,-414 1845.98,-322.67 1460.61,-292.9 1370.05,-287.12"/>
<polygon fill="black" stroke="black" points="1370.09,-283.62 1359.89,-286.5 1369.66,-290.6 1370.09,-283.62"/>
<text text-anchor="middle" x="1933" y="-522.8" font-family="Times,serif" font-size="14.00">dont_cure_default|payment_default(normal, borrower, lender, 550)</text>
</g>
<!-- S9&#45;&gt;S3 -->
<g id="edge104" class="edge">
<title>S9&#45;&gt;S3</title>
<path fill="none" stroke="black" d="M1990.42,-760.36C2018.52,-725.53 2145.24,-563.85 2113,-519 2088.37,-484.74 1933,-500.7 1933,-458.5 1933,-458.5 1933,-458.5 1933,-353 1933,-295.03 1471.46,-287.17 1370.4,-286.15"/>
<polygon fill="black" stroke="black" points="1370.17,-282.65 1360.14,-286.06 1370.11,-289.65 1370.17,-282.65"/>
<text text-anchor="middle" x="2167.5" y="-522.8" font-family="Times,serif" font-size="14.00">dont_cure_default</text>
</g>
<!-- S9&#45;&gt;S8 -->
<g id="edge102" class="edge">
<title>S9&#45;&gt;S8</title>
<path fill="none" stroke="black" d="M1993.91,-766.18C2011.12,-764.62 2050.13,-761.19 2083,-759 2619.94,-723.25 3279.77,-703.87 3399.81,-700.52"/>
<polygon fill="black" stroke="black" points="3400.08,-704.02 3409.98,-700.24 3399.89,-697.02 3400.08,-704.02"/>
<text text-anchor="middle" x="2765.5" y="-729.8" font-family="Times,serif" font-size="14.00">pay(normal, borrower, lender, 550)</text>
</g>
<!-- S9&#45;&gt;S11 -->
<g id="edge103" class="edge">
<title>S9&#45;&gt;S11</title>
<path fill="none" stroke="black" d="M1977.46,-773.2C1962.53,-781.36 1927.96,-799.48 1897,-810 1714.09,-872.14 1479.23,-897.19 1411.84,-903.38"/>
<polygon fill="black" stroke="black" points="1411.51,-899.9 1401.86,-904.27 1412.14,-906.87 1411.51,-899.9"/>
<text text-anchor="middle" x="1871" y="-833.3" font-family="Times,serif" font-size="14.00">cure_default</text>
</g>
<!-- S15 -->
<g id="node16" class="node">
<title>S15</title>
<ellipse fill="none" stroke="black" cx="1551" cy="-561" rx="9" ry="9"/>
</g>
<!-- S9&#45;&gt;S15 -->
<g id="edge101" class="edge">
<title>S9&#45;&gt;S15</title>
<path fill="none" stroke="black" d="M1987.27,-758.81C1991.11,-742.96 1996.77,-708.05 1978,-690 1949.93,-663.01 1662.07,-690.86 1628,-672 1590.88,-651.45 1567.62,-604.52 1557.28,-579.11"/>
<polygon fill="black" stroke="black" points="1560.5,-577.74 1553.63,-569.67 1553.97,-580.26 1560.5,-577.74"/>
<text text-anchor="middle" x="1760.5" y="-660.8" font-family="Times,serif" font-size="14.00">payment_default(normal, borrower, lender, 550)</text>
</g>
<!-- S9&#45;&gt;S22 -->
<g id="edge97" class="edge">
<title>S9&#45;&gt;S22</title>
<path fill="none" stroke="black" d="M1994.09,-766.83C2062.53,-765.53 2504.21,-756.75 2863,-741 3102.81,-730.47 3746.37,-812.5 3941,-672 3960.88,-657.65 3944.79,-638.46 3962,-621 3976.26,-606.54 3988.02,-615.53 4004,-603 4038.55,-575.91 4084.72,-552.22 4056,-519 4035.65,-495.46 3939.13,-492.81 3897.35,-492.8"/>
<polygon fill="black" stroke="black" points="3897.11,-489.3 3887.13,-492.85 3897.15,-496.3 3897.11,-489.3"/>
<text text-anchor="middle" x="4093.5" y="-626.3" font-family="Times,serif" font-size="14.00">cure_default|pay(normal, borrower, lender, 550)</text>
</g>
<!-- S24 -->
<g id="node25" class="node">
<title>S24</title>
<ellipse fill="none" stroke="black" cx="782" cy="-699" rx="9" ry="9"/>
</g>
<!-- S9&#45;&gt;S24 -->
<g id="edge99" class="edge">
<title>S9&#45;&gt;S24</title>
<path fill="none" stroke="black" d="M1975.77,-766.88C1896.29,-765.85 1328.54,-757.87 1255,-741 1238.9,-737.31 1237.05,-729.88 1221,-726 1139.64,-706.32 875.59,-701.28 801.49,-700.24"/>
<polygon fill="black" stroke="black" points="801.34,-696.73 791.29,-700.1 801.24,-703.73 801.34,-696.73"/>
<text text-anchor="middle" x="1422.5" y="-729.8" font-family="Times,serif" font-size="14.00">cure_default|payment_default(normal, borrower, lender, 550)</text>
</g>
<!-- S10&#45;&gt;S10 -->
<g id="edge96" class="edge">
<title>S10&#45;&gt;S10</title>
<path fill="none" stroke="black" d="M4452.82,-15.22C4454.77,-15.68 4456.58,-15.13 4456.44,-12.28"/>
<polygon fill="black" stroke="black" points="4459.65,-10.88 4452.82,-2.78 4453.11,-13.37 4459.65,-10.88"/>
<text text-anchor="middle" x="4481" y="-5.3" font-family="Times,serif" font-size="14.00">fulfilled</text>
</g>
<!-- S12 -->
<g id="node13" class="node">
<title>S12</title>
<ellipse fill="none" stroke="black" cx="1433" cy="-837" rx="9" ry="9"/>
</g>
<!-- S11&#45;&gt;S12 -->
<g id="edge92" class="edge">
<title>S11&#45;&gt;S12</title>
<path fill="none" stroke="black" d="M1384.63,-902.6C1366.67,-897.05 1327.13,-882.34 1341,-864 1357.8,-841.79 1392.09,-837.53 1413.73,-837.22"/>
<polygon fill="black" stroke="black" points="1413.69,-840.72 1423.74,-837.35 1413.78,-833.72 1413.69,-840.72"/>
<text text-anchor="middle" x="1388" y="-867.8" font-family="Times,serif" font-size="14.00">borrower_default</text>
</g>
<!-- S11&#45;&gt;S21 -->
<g id="edge95" class="edge">
<title>S11&#45;&gt;S21</title>
<path fill="none" stroke="black" d="M1402.22,-905.01C1551.65,-905.21 3475.43,-907.22 4040,-879 4141.17,-873.94 4494,-939.3 4494,-838 4494,-838 4494,-838 4494,-629 4494,-396.34 4261.56,-424.47 4033,-381 3986.16,-372.09 3969.74,-379.59 3923.55,-363.48"/>
<polygon fill="black" stroke="black" points="3924.49,-360.1 3913.89,-359.93 3922.07,-366.67 3924.49,-360.1"/>
<text text-anchor="middle" x="4638.5" y="-626.3" font-family="Times,serif" font-size="14.00">borrower_default|pay(normal, borrower, lender, 550)</text>
</g>
<!-- S11&#45;&gt;S22 -->
<g id="edge94" class="edge">
<title>S11&#45;&gt;S22</title>
<path fill="none" stroke="black" d="M1402.11,-905.04C1579.71,-905.79 4294,-915.97 4294,-838 4294,-838 4294,-838 4294,-698 4294,-623.79 4273.6,-594.82 4213,-552 4176.84,-526.45 4162.19,-528.77 4119,-519 4037.96,-500.66 3938.57,-495.14 3897.34,-493.58"/>
<polygon fill="black" stroke="black" points="3897.43,-490.08 3887.32,-493.24 3897.19,-497.08 3897.43,-490.08"/>
<text text-anchor="middle" x="4390.5" y="-695.3" font-family="Times,serif" font-size="14.00">pay(normal, borrower, lender, 550)</text>
</g>
<!-- S23 -->
<g id="node24" class="node">
<title>S23</title>
<ellipse fill="none" stroke="black" cx="825" cy="-630" rx="9" ry="9"/>
</g>
<!-- S11&#45;&gt;S23 -->
<g id="edge93" class="edge">
<title>S11&#45;&gt;S23</title>
<path fill="none" stroke="black" d="M1383.97,-904.97C1314.62,-904.68 865.56,-901.92 732,-879 581.12,-853.1 493.82,-900.24 403,-777 385.26,-752.93 448.84,-703.17 600,-657 673.59,-634.53 766.14,-631.22 805.67,-630.91"/>
<polygon fill="black" stroke="black" points="805.76,-634.41 815.76,-630.89 805.75,-627.41 805.76,-634.41"/>
<text text-anchor="middle" x="583.5" y="-764.3" font-family="Times,serif" font-size="14.00">borrower_default|payment_default(normal, borrower, lender, 550)</text>
</g>
<!-- S11&#45;&gt;S24 -->
<g id="edge91" class="edge">
<title>S11&#45;&gt;S24</title>
<path fill="none" stroke="black" d="M1383.94,-904.91C1316.33,-904.03 890.63,-895.12 803,-810 796.48,-803.66 788.27,-747.8 784.32,-718.21"/>
<polygon fill="black" stroke="black" points="787.76,-717.46 782.99,-708 780.81,-718.36 787.76,-717.46"/>
<text text-anchor="middle" x="935.5" y="-798.8" font-family="Times,serif" font-size="14.00">payment_default(normal, borrower, lender, 550)</text>
</g>
<!-- S12&#45;&gt;S8 -->
<g id="edge89" class="edge">
<title>S12&#45;&gt;S8</title>
<path fill="none" stroke="black" d="M1441.93,-835.56C1489.27,-833.2 1715.84,-821.78 1901,-810 2516,-770.86 3270.31,-711.74 3399.69,-701.53"/>
<polygon fill="black" stroke="black" points="3400.26,-704.99 3409.95,-700.72 3399.71,-698.02 3400.26,-704.99"/>
<text text-anchor="middle" x="2812" y="-764.3" font-family="Times,serif" font-size="14.00">notify_borrower_of_default|pay(normal, borrower, lender, 550)</text>
</g>
<!-- S12&#45;&gt;S9 -->
<g id="edge85" class="edge">
<title>S12&#45;&gt;S9</title>
<path fill="none" stroke="black" d="M1441.79,-834.8C1478.97,-829.72 1627.06,-809.63 1749,-795 1829.63,-785.33 1925.93,-775.14 1966.03,-770.96"/>
<polygon fill="black" stroke="black" points="1966.41,-774.44 1975.99,-769.93 1965.68,-767.48 1966.41,-774.44"/>
<text text-anchor="middle" x="1824.5" y="-798.8" font-family="Times,serif" font-size="14.00">notify_borrower_of_default</text>
</g>
<!-- S12&#45;&gt;S11 -->
<g id="edge86" class="edge">
<title>S12&#45;&gt;S11</title>
<path fill="none" stroke="black" d="M1436.01,-845.81C1438.83,-854.5 1441.82,-868.68 1436,-879 1430.64,-888.5 1420.27,-894.92 1411.05,-899"/>
<polygon fill="black" stroke="black" points="1409.56,-895.82 1401.47,-902.66 1412.06,-902.36 1409.56,-895.82"/>
<text text-anchor="middle" x="1500" y="-867.8" font-family="Times,serif" font-size="14.00">dont_notify_borrower</text>
</g>
<!-- S12&#45;&gt;S15 -->
<g id="edge87" class="edge">
<title>S12&#45;&gt;S15</title>
<path fill="none" stroke="black" d="M1441.28,-833.14C1465.78,-824.18 1537.83,-794.02 1565,-741 1571.8,-727.73 1561.79,-722.64 1559,-708 1550.35,-662.62 1549.96,-607.97 1550.45,-580.17"/>
<polygon fill="black" stroke="black" points="1553.95,-580.08 1550.7,-570 1546.96,-579.92 1553.95,-580.08"/>
<text text-anchor="middle" x="1768" y="-695.3" font-family="Times,serif" font-size="14.00">notify_borrower_of_default|payment_default(normal, borrower, lender, 550)</text>
</g>
<!-- S12&#45;&gt;S21 -->
<g id="edge84" class="edge">
<title>S12&#45;&gt;S21</title>
<path fill="none" stroke="black" d="M1442.01,-835.79C1530.43,-833.68 2244.49,-816.67 2458,-810 2662.14,-803.63 4157.32,-826.41 4291,-672 4292.21,-670.61 4302.42,-470.28 4286,-450 4282.99,-446.28 3982.44,-378.05 3923.61,-362.64"/>
<polygon fill="black" stroke="black" points="3924.51,-359.26 3913.93,-359.83 3922.56,-365.98 3924.51,-359.26"/>
<text text-anchor="middle" x="4390.5" y="-591.8" font-family="Times,serif" font-size="14.00">pay(normal, borrower, lender, 550)</text>
</g>
<!-- S12&#45;&gt;S22 -->
<g id="edge90" class="edge">
<title>S12&#45;&gt;S22</title>
<path fill="none" stroke="black" d="M1441.97,-835.79C1535.25,-833.58 2337.48,-813.95 2986,-777 3390.06,-753.98 3509.68,-834.88 3894,-708 3904.1,-704.67 3964.9,-660.32 3975,-657 4001.14,-648.41 4203.26,-659.15 4222,-639 4321.04,-532.48 3982.78,-500.56 3897.2,-494.27"/>
<polygon fill="black" stroke="black" points="3897.28,-490.77 3887.06,-493.56 3896.79,-497.75 3897.28,-490.77"/>
<text text-anchor="middle" x="4132.5" y="-660.8" font-family="Times,serif" font-size="14.00">dont_notify_borrower|pay(normal, borrower, lender, 550)</text>
</g>
<!-- S12&#45;&gt;S23 -->
<g id="edge83" class="edge">
<title>S12&#45;&gt;S23</title>
<path fill="none" stroke="black" d="M1433.97,-827.61C1435.32,-811.39 1435.61,-775.87 1415,-759 1364.33,-717.53 871.8,-787.79 826,-741 813.67,-728.4 818.6,-676.79 822.31,-648.97"/>
<polygon fill="black" stroke="black" points="825.79,-649.38 823.73,-638.99 818.86,-648.4 825.79,-649.38"/>
<text text-anchor="middle" x="958.5" y="-729.8" font-family="Times,serif" font-size="14.00">payment_default(normal, borrower, lender, 550)</text>
</g>
<!-- S12&#45;&gt;S24 -->
<g id="edge88" class="edge">
<title>S12&#45;&gt;S24</title>
<path fill="none" stroke="black" d="M1424.01,-834.84C1383.16,-829.58 1210.88,-807.77 1069,-795 1039.39,-792.34 823.54,-797.5 802,-777 793.73,-769.13 799.43,-736.88 796,-726 794.92,-722.58 793.38,-719.08 791.72,-715.81"/>
<polygon fill="black" stroke="black" points="794.68,-713.92 786.69,-706.96 788.59,-717.38 794.68,-713.92"/>
<text text-anchor="middle" x="995.5" y="-764.3" font-family="Times,serif" font-size="14.00">dont_notify_borrower|payment_default(normal, borrower, lender, 550)</text>
</g>
<!-- S13&#45;&gt;S2 -->
<g id="edge77" class="edge">
<title>S13&#45;&gt;S2</title>
<path fill="none" stroke="black" d="M2731.05,-628.78C2686.14,-627.61 2486.8,-621.38 2467,-603 2453.45,-590.42 2460,-580.49 2460,-562 2460,-562 2460,-562 2460,-422 2460,-403.51 2466.6,-393.52 2453,-381 2418.86,-349.58 2277.55,-396.07 2245,-363 2231.72,-349.5 2242,-339.44 2242,-320.5 2242,-320.5 2242,-320.5 2242,-146 2242,-100.09 2406.39,-84.31 2463.63,-80.21"/>
<polygon fill="black" stroke="black" points="2464.1,-83.69 2473.85,-79.52 2463.63,-76.7 2464.1,-83.69"/>
<text text-anchor="middle" x="2355.5" y="-350.3" font-family="Times,serif" font-size="14.00">dont_cure_default|dont_notify_borrower</text>
</g>
<!-- S13&#45;&gt;S2 -->
<g id="edge78" class="edge">
<title>S13&#45;&gt;S2</title>
<path fill="none" stroke="black" d="M2730.95,-628.93C2692.56,-628.51 2543.22,-625.43 2503,-603 2482.81,-591.74 2471,-585.12 2471,-562 2471,-562 2471,-562 2471,-146 2471,-129.01 2474.78,-109.98 2478.1,-96.55"/>
<polygon fill="black" stroke="black" points="2481.52,-97.32 2480.69,-86.76 2474.75,-95.53 2481.52,-97.32"/>
<text text-anchor="middle" x="2597.5" y="-350.3" font-family="Times,serif" font-size="14.00">dont_cure_default|notify_borrower_of_default</text>
</g>
<!-- S13&#45;&gt;S2 -->
<g id="edge82" class="edge">
<title>S13&#45;&gt;S2</title>
<path fill="none" stroke="black" d="M2731.03,-628.8C2685.13,-627.72 2477.82,-621.81 2457,-603 2443.23,-590.55 2449,-580.57 2449,-562 2449,-562 2449,-562 2449,-422 2449,-403.51 2455.77,-393.33 2442,-381 2391.59,-335.85 2186.12,-410.58 2138,-363 2124.53,-349.69 2135,-339.44 2135,-320.5 2135,-320.5 2135,-320.5 2135,-146 2135,-78.55 2390.3,-77.49 2463.56,-78.58"/>
<polygon fill="black" stroke="black" points="2463.63,-82.08 2473.69,-78.76 2463.76,-75.08 2463.63,-82.08"/>
<text text-anchor="middle" x="2187.5" y="-350.3" font-family="Times,serif" font-size="14.00">dont_cure_default</text>
</g>
<!-- S13&#45;&gt;S7 -->
<g id="edge79" class="edge">
<title>S13&#45;&gt;S7</title>
<path fill="none" stroke="black" d="M2740,-620.78C2740,-610.84 2740,-593.78 2740,-580.6"/>
<polygon fill="black" stroke="black" points="2743.5,-580.28 2740,-570.28 2736.5,-580.28 2743.5,-580.28"/>
<text text-anchor="middle" x="2815.5" y="-591.8" font-family="Times,serif" font-size="14.00">notify_borrower_of_default</text>
</g>
<!-- S13&#45;&gt;S8 -->
<g id="edge81" class="edge">
<title>S13&#45;&gt;S8</title>
<path fill="none" stroke="black" d="M2731.08,-632.24C2706.06,-636.02 2638.45,-648.66 2661,-672 2687.46,-699.38 3284.92,-698.51 3399.94,-698.09"/>
<polygon fill="black" stroke="black" points="3400.06,-701.58 3410.04,-698.04 3400.03,-694.58 3400.06,-701.58"/>
<text text-anchor="middle" x="2721" y="-660.8" font-family="Times,serif" font-size="14.00">dont_notify_borrower</text>
</g>
<!-- S13&#45;&gt;S14 -->
<g id="edge76" class="edge">
<title>S13&#45;&gt;S14</title>
<path fill="none" stroke="black" d="M2730.85,-628.63C2685.07,-626.54 2483,-614.33 2483,-562 2483,-562 2483,-562 2483,-422 2483,-392.57 2507.68,-391.95 2535,-381 2613.32,-349.6 2647.42,-398.43 2724,-363 2744.82,-353.37 2750.39,-347.35 2761,-327 2776.92,-296.45 2777.56,-207.4 2786,-174 2786.72,-171.15 2787.62,-168.16 2788.56,-165.27"/>
<polygon fill="black" stroke="black" points="2791.94,-166.23 2791.97,-155.63 2785.34,-163.89 2791.94,-166.23"/>
<text text-anchor="middle" x="2646" y="-384.8" font-family="Times,serif" font-size="14.00">cure_default|notify_borrower_of_default</text>
</g>
<!-- S13&#45;&gt;S19 -->
<g id="edge80" class="edge">
<title>S13&#45;&gt;S19</title>
<path fill="none" stroke="black" d="M2749.02,-628.91C2778.85,-628.39 2873.44,-625 2892,-603 2942.7,-542.9 2726.09,-552.95 2762,-483 2794.94,-418.83 2851.44,-450.22 2899,-396 2925.78,-365.47 2902.49,-336.34 2935,-312 2986.23,-273.64 3018.47,-312.14 3081.59,-294.08"/>
<polygon fill="black" stroke="black" points="3082.69,-297.4 3091.13,-290.99 3080.54,-290.74 3082.69,-297.4"/>
<text text-anchor="middle" x="2824" y="-453.8" font-family="Times,serif" font-size="14.00">cure_default</text>
</g>
<!-- S13&#45;&gt;S22 -->
<g id="edge75" class="edge">
<title>S13&#45;&gt;S22</title>
<path fill="none" stroke="black" d="M2749.15,-628.8C2827.86,-627.04 3388.03,-614.11 3401,-603 3418.54,-587.97 3394,-567.64 3411,-552 3437.65,-527.47 3537.02,-538.13 3573,-534 3696.61,-519.8 3729.13,-526.1 3851,-501 3853.86,-500.41 3856.86,-499.66 3859.78,-498.85"/>
<polygon fill="black" stroke="black" points="3861.02,-502.14 3869.58,-495.9 3859,-495.43 3861.02,-502.14"/>
<text text-anchor="middle" x="3506" y="-557.3" font-family="Times,serif" font-size="14.00">cure_default|dont_notify_borrower</text>
</g>
<!-- S14&#45;&gt;S2 -->
<g id="edge64" class="edge">
<title>S14&#45;&gt;S2</title>
<path fill="none" stroke="black" d="M2788.08,-141.21C2774.92,-132.36 2745.08,-113.6 2717,-105 2640,-81.41 2542.93,-78.73 2502.28,-78.75"/>
<polygon fill="black" stroke="black" points="2502.15,-75.25 2492.17,-78.81 2502.19,-82.25 2502.15,-75.25"/>
<text text-anchor="middle" x="2848" y="-108.8" font-family="Times,serif" font-size="14.00">borrower_default|dont_cure_default</text>
</g>
<!-- S14&#45;&gt;S2 -->
<g id="edge66" class="edge">
<title>S14&#45;&gt;S2</title>
<path fill="none" stroke="black" d="M2785.74,-146.09C2758.74,-146.06 2678.11,-143.82 2617,-120 2605.97,-115.7 2605.84,-109.75 2595,-105 2564.04,-91.42 2525.01,-84.43 2502.15,-81.25"/>
<polygon fill="black" stroke="black" points="2502.43,-77.76 2492.07,-79.95 2501.54,-84.7 2502.43,-77.76"/>
<text text-anchor="middle" x="2666.5" y="-108.8" font-family="Times,serif" font-size="14.00">dont_cure_default</text>
</g>
<!-- S14&#45;&gt;S17 -->
<g id="edge62" class="edge">
<title>S14&#45;&gt;S17</title>
<path fill="none" stroke="black" d="M2801.98,-152.98C2808.71,-157.95 2819.03,-165.97 2827,-174 2833.01,-180.06 2831.47,-184.98 2839,-189 2864.15,-202.43 3061.54,-211.62 3124.66,-214.24"/>
<polygon fill="black" stroke="black" points="3124.68,-217.74 3134.81,-214.65 3124.96,-210.74 3124.68,-217.74"/>
<text text-anchor="middle" x="2886" y="-177.8" font-family="Times,serif" font-size="14.00">borrower_default</text>
</g>
<!-- S14&#45;&gt;S21 -->
<g id="edge63" class="edge">
<title>S14&#45;&gt;S21</title>
<path fill="none" stroke="black" d="M2798.88,-155.2C2804.42,-164.69 2815.54,-181.11 2830,-189 2882.37,-217.56 2920.78,-164.86 2963,-207 2979.19,-223.16 2953.21,-242.46 2970,-258 2988.77,-275.37 3868.01,-297.39 3889,-312 3896.63,-317.31 3901.06,-326.6 3903.61,-334.99"/>
<polygon fill="black" stroke="black" points="3900.22,-335.87 3905.94,-344.78 3907.03,-334.24 3900.22,-335.87"/>
<text text-anchor="middle" x="3052.5" y="-246.8" font-family="Times,serif" font-size="14.00">borrower_default|cure_default</text>
</g>
<!-- S14&#45;&gt;S22 -->
<g id="edge65" class="edge">
<title>S14&#45;&gt;S22</title>
<path fill="none" stroke="black" d="M2794.04,-156.36C2790.61,-187.82 2780.11,-298.69 2799,-327 2809.82,-343.22 2821.36,-336.71 2839,-345 2965.98,-404.69 2993.17,-438.76 3131,-465 3208.48,-479.75 3749.1,-461.14 3861.18,-483.43"/>
<polygon fill="black" stroke="black" points="3860.63,-486.9 3871.17,-485.88 3862.29,-480.1 3860.63,-486.9"/>
<text text-anchor="middle" x="2833" y="-315.8" font-family="Times,serif" font-size="14.00">cure_default</text>
</g>
<!-- S15&#45;&gt;S3 -->
<g id="edge56" class="edge">
<title>S15&#45;&gt;S3</title>
<path fill="none" stroke="black" d="M1550.41,-551.75C1549.35,-542.67 1546.37,-528.15 1538,-519 1470.37,-445.06 1385.53,-515.41 1330,-432 1325.57,-425.34 1324.89,-420.16 1330,-414 1357.72,-380.6 1398.28,-429.4 1426,-396 1454.77,-361.33 1396.26,-315.69 1366.69,-295.88"/>
<polygon fill="black" stroke="black" points="1368.55,-292.91 1358.26,-290.4 1364.74,-298.79 1368.55,-292.91"/>
<text text-anchor="middle" x="1440.5" y="-419.3" font-family="Times,serif" font-size="14.00">dont_cure_default|dont_notify_borrower</text>
</g>
<!-- S15&#45;&gt;S3 -->
<g id="edge57" class="edge">
<title>S15&#45;&gt;S3</title>
<path fill="none" stroke="black" d="M1552.01,-551.76C1553.47,-539.14 1556,-514.23 1556,-493 1556,-493 1556,-493 1556,-353 1556,-314.09 1420.91,-294.2 1370.06,-288.09"/>
<polygon fill="black" stroke="black" points="1370.14,-284.58 1359.81,-286.91 1369.34,-291.53 1370.14,-284.58"/>
<text text-anchor="middle" x="1682.5" y="-419.3" font-family="Times,serif" font-size="14.00">dont_cure_default|notify_borrower_of_default</text>
</g>
<!-- S15&#45;&gt;S3 -->
<g id="edge61" class="edge">
<title>S15&#45;&gt;S3</title>
<path fill="none" stroke="black" d="M1559.5,-557.28C1607.7,-541.66 1843.24,-462.28 1809,-414 1755.97,-339.22 1450.28,-297.86 1370.2,-288.21"/>
<polygon fill="black" stroke="black" points="1370.42,-284.71 1360.08,-287.01 1369.6,-291.66 1370.42,-284.71"/>
<text text-anchor="middle" x="1861.5" y="-419.3" font-family="Times,serif" font-size="14.00">dont_cure_default</text>
</g>
<!-- S15&#45;&gt;S6 -->
<g id="edge58" class="edge">
<title>S15&#45;&gt;S6</title>
<path fill="none" stroke="black" d="M1541.96,-559.39C1511.98,-557.25 1416.29,-549.34 1390,-534 1382.63,-529.7 1384.81,-524.14 1378,-519 1364.9,-509.11 1347.48,-502.24 1334.45,-498.06"/>
<polygon fill="black" stroke="black" points="1335.3,-494.66 1324.71,-495.17 1333.3,-501.37 1335.3,-494.66"/>
<text text-anchor="middle" x="1465.5" y="-522.8" font-family="Times,serif" font-size="14.00">notify_borrower_of_default</text>
</g>
<!-- S15&#45;&gt;S9 -->
<g id="edge60" class="edge">
<title>S15&#45;&gt;S9</title>
<path fill="none" stroke="black" d="M1560.04,-562.49C1601.72,-565.14 1778.2,-580.62 1894,-657 1901.13,-661.7 1898.74,-667.5 1906,-672 1938.08,-691.88 1965.31,-660.62 1989,-690 2002.37,-706.58 1997.57,-732.3 1992.03,-749.39"/>
<polygon fill="black" stroke="black" points="1988.59,-748.6 1988.46,-759.2 1995.17,-751 1988.59,-748.6"/>
<text text-anchor="middle" x="1966" y="-660.8" font-family="Times,serif" font-size="14.00">dont_notify_borrower</text>
</g>
<!-- S15&#45;&gt;S11 -->
<g id="edge54" class="edge">
<title>S15&#45;&gt;S11</title>
<path fill="none" stroke="black" d="M1560.14,-562.28C1626.36,-564.45 2030,-579.67 2030,-629 2030,-838 2030,-838 2030,-838 2030,-901.77 1518.5,-905.05 1412.2,-905.05"/>
<polygon fill="black" stroke="black" points="1412.01,-901.55 1402,-905.03 1412,-908.55 1412.01,-901.55"/>
<text text-anchor="middle" x="2125" y="-729.8" font-family="Times,serif" font-size="14.00">cure_default|dont_notify_borrower</text>
</g>
<!-- S15&#45;&gt;S18 -->
<g id="edge55" class="edge">
<title>S15&#45;&gt;S18</title>
<path fill="none" stroke="black" d="M1542.07,-558.95C1494.69,-553.36 1267.98,-526.43 1083,-501 887.96,-474.18 652.19,-437.52 584.8,-426.96"/>
<polygon fill="black" stroke="black" points="585.26,-423.49 574.84,-425.39 584.18,-430.4 585.26,-423.49"/>
<text text-anchor="middle" x="1194" y="-488.3" font-family="Times,serif" font-size="14.00">cure_default|notify_borrower_of_default</text>
</g>
<!-- S15&#45;&gt;S24 -->
<g id="edge59" class="edge">
<title>S15&#45;&gt;S24</title>
<path fill="none" stroke="black" d="M1542.51,-564.52C1518.95,-571.45 1450.72,-591.05 1393,-603 1162,-650.81 877.38,-686.54 801.39,-695.7"/>
<polygon fill="black" stroke="black" points="800.54,-692.28 791.03,-696.94 801.38,-699.23 800.54,-692.28"/>
<text text-anchor="middle" x="1326" y="-626.3" font-family="Times,serif" font-size="14.00">cure_default</text>
</g>
<!-- S16 -->
<g id="node17" class="node">
<title>S16</title>
<ellipse fill="none" stroke="black" cx="557" cy="-354" rx="9" ry="9"/>
</g>
<!-- S16&#45;&gt;S3 -->
<g id="edge48" class="edge">
<title>S16&#45;&gt;S3</title>
<path fill="none" stroke="black" d="M547.98,-352.66C507.71,-351.03 345.72,-343.51 331,-327 326.56,-322.02 326.35,-316.77 331,-312 349.15,-293.38 1192.81,-287.04 1331.73,-286.12"/>
<polygon fill="black" stroke="black" points="1332.07,-289.62 1342.04,-286.05 1332.02,-282.62 1332.07,-289.62"/>
<text text-anchor="middle" x="441.5" y="-315.8" font-family="Times,serif" font-size="14.00">dont_cure_default|dont_notify_borrower</text>
</g>
<!-- S16&#45;&gt;S3 -->
<g id="edge49" class="edge">
<title>S16&#45;&gt;S3</title>
<path fill="none" stroke="black" d="M555.05,-345.04C553.28,-335.67 552.13,-320.32 561,-312 590,-284.81 1214.09,-285.54 1331.91,-285.92"/>
<polygon fill="black" stroke="black" points="1331.94,-289.42 1341.95,-285.96 1331.96,-282.42 1331.94,-289.42"/>
<text text-anchor="middle" x="687.5" y="-315.8" font-family="Times,serif" font-size="14.00">dont_cure_default|notify_borrower_of_default</text>
</g>
<!-- S16&#45;&gt;S3 -->
<g id="edge53" class="edge">
<title>S16&#45;&gt;S3</title>
<path fill="none" stroke="black" d="M566.14,-353C606.35,-352.84 767.5,-350.71 811,-327 818.5,-322.91 815.4,-315.89 823,-312 868.99,-288.49 1242.44,-286.22 1331.83,-286.02"/>
<polygon fill="black" stroke="black" points="1331.9,-289.52 1341.89,-286 1331.89,-282.52 1331.9,-289.52"/>
<text text-anchor="middle" x="872.5" y="-315.8" font-family="Times,serif" font-size="14.00">dont_cure_default</text>
</g>
<!-- S16&#45;&gt;S6 -->
<g id="edge50" class="edge">
<title>S16&#45;&gt;S6</title>
<path fill="none" stroke="black" d="M566.18,-355.26C638.41,-357.36 1112.97,-371.49 1124,-381 1141.49,-396.08 1118.67,-414.72 1134,-432 1176.74,-480.2 1259.17,-489.23 1296.63,-490.78"/>
<polygon fill="black" stroke="black" points="1296.63,-494.28 1306.72,-491.05 1296.82,-487.28 1296.63,-494.28"/>
<text text-anchor="middle" x="1209.5" y="-419.3" font-family="Times,serif" font-size="14.00">notify_borrower_of_default</text>
</g>
<!-- S16&#45;&gt;S9 -->
<g id="edge47" class="edge">
<title>S16&#45;&gt;S9</title>
<path fill="none" stroke="black" d="M566.12,-356.11C592.79,-359.4 672.95,-369.57 739,-381 890.5,-407.22 936.19,-390.59 1078,-450 1102.22,-460.15 1109.02,-463.86 1127,-483 1157.69,-515.67 1140.13,-546.03 1178,-570 1216.45,-594.34 1347.06,-558.84 1382,-588 1400.05,-603.06 1380.15,-621.64 1396,-639 1439.53,-686.67 1475.38,-658.99 1532,-690 1543.69,-696.41 1543.67,-702.93 1556,-708 1632.23,-739.34 1892.6,-760.28 1965.75,-765.64"/>
<polygon fill="black" stroke="black" points="1965.6,-769.14 1975.82,-766.37 1966.1,-762.16 1965.6,-769.14"/>
<text text-anchor="middle" x="1289" y="-557.3" font-family="Times,serif" font-size="14.00">cure_default|notify_borrower_of_default</text>
</g>
<!-- S16&#45;&gt;S11 -->
<g id="edge46" class="edge">
<title>S16&#45;&gt;S11</title>
<path fill="none" stroke="black" d="M547.8,-355.1C475.38,-356.05 0,-364.41 0,-422 0,-838 0,-838 0,-838 0,-901.98 74.78,-869.14 138,-879 265.1,-898.83 1225.28,-904.2 1373.74,-904.91"/>
<polygon fill="black" stroke="black" points="1373.97,-908.41 1383.99,-904.96 1374,-901.41 1373.97,-908.41"/>
<text text-anchor="middle" x="95" y="-626.3" font-family="Times,serif" font-size="14.00">cure_default|dont_notify_borrower</text>
</g>
<!-- S16&#45;&gt;S12 -->
<g id="edge51" class="edge">
<title>S16&#45;&gt;S12</title>
<path fill="none" stroke="black" d="M547.69,-354.76C492.35,-353.57 209,-350.94 209,-422 209,-631 209,-631 209,-631 209,-649.49 208.26,-654.61 202,-672 186.9,-713.96 163.5,-715.91 152,-759 149.94,-766.73 146.53,-771.16 152,-777 197.11,-825.14 1257.2,-834.72 1413.76,-835.87"/>
<polygon fill="black" stroke="black" points="1413.76,-839.37 1423.78,-835.94 1413.81,-832.37 1413.76,-839.37"/>
<text text-anchor="middle" x="243" y="-591.8" font-family="Times,serif" font-size="14.00">cure_default</text>
</g>
<!-- S16&#45;&gt;S18 -->
<g id="edge52" class="edge">
<title>S16&#45;&gt;S18</title>
<path fill="none" stroke="black" d="M565.66,-357.28C576.17,-360.56 593.44,-367.74 601,-381 604.3,-386.79 604,-390.04 601,-396 597.17,-403.62 589.92,-409.58 583.01,-413.85"/>
<polygon fill="black" stroke="black" points="581.29,-410.8 574.15,-418.64 584.61,-416.96 581.29,-410.8"/>
<text text-anchor="middle" x="664" y="-384.8" font-family="Times,serif" font-size="14.00">dont_notify_borrower</text>
</g>
<!-- S17&#45;&gt;S2 -->
<g id="edge69" class="edge">
<title>S17&#45;&gt;S2</title>
<path fill="none" stroke="black" d="M3137.06,-209.68C3124.65,-199.94 3098.22,-178.19 3080,-156 3074.05,-148.75 3076.3,-143.88 3069,-138 3034.2,-109.95 3017.86,-113.6 2974,-105 2881.38,-86.84 2582.37,-80.65 2502.67,-79.3"/>
<polygon fill="black" stroke="black" points="2502.25,-75.8 2492.19,-79.13 2502.13,-82.8 2502.25,-75.8"/>
<text text-anchor="middle" x="3190.5" y="-143.3" font-family="Times,serif" font-size="14.00">dont_cure_default|dont_notify_borrower</text>
</g>
<!-- S17&#45;&gt;S2 -->
<g id="edge70" class="edge">
<title>S17&#45;&gt;S2</title>
<path fill="none" stroke="black" d="M3152.97,-214C3191.91,-209.35 3342.46,-187.87 3298,-138 3243.29,-76.64 2619.56,-78.03 2502.03,-78.84"/>
<polygon fill="black" stroke="black" points="2501.99,-75.34 2492.02,-78.91 2502.04,-82.34 2501.99,-75.34"/>
<text text-anchor="middle" x="3432.5" y="-143.3" font-family="Times,serif" font-size="14.00">dont_cure_default|notify_borrower_of_default</text>
</g>
<!-- S17&#45;&gt;S2 -->
<g id="edge74" class="edge">
<title>S17&#45;&gt;S2</title>
<path fill="none" stroke="black" d="M3136.31,-210.47C3121.73,-202.06 3088.83,-184 3059,-174 3020.32,-161.04 3000.71,-181.66 2969,-156 2949.81,-140.47 2967.24,-119.14 2947,-105 2910.12,-79.24 2585.38,-78.63 2502.29,-78.9"/>
<polygon fill="black" stroke="black" points="2502.21,-75.4 2492.23,-78.94 2502.24,-82.4 2502.21,-75.4"/>
<text text-anchor="middle" x="3018.5" y="-143.3" font-family="Times,serif" font-size="14.00">dont_cure_default</text>
</g>
<!-- S17&#45;&gt;S7 -->
<g id="edge72" class="edge">
<title>S17&#45;&gt;S7</title>
<path fill="none" stroke="black" d="M3134.82,-216.84C3101.45,-216.46 2987.4,-217.12 2965,-243 2931.6,-281.6 3041.95,-237.1 3075,-276 3080.18,-282.1 3080.32,-288.03 3075,-294 3051.94,-319.9 2952.71,-300.48 2920,-312 2879.88,-326.14 2877.05,-343.97 2839,-363 2818.99,-373.01 2807.61,-364.98 2792,-381 2748.18,-425.99 2740.92,-505.63 2739.96,-541.54"/>
<polygon fill="black" stroke="black" points="2736.46,-541.88 2739.84,-551.92 2743.46,-541.97 2736.46,-541.88"/>
<text text-anchor="middle" x="2867.5" y="-384.8" font-family="Times,serif" font-size="14.00">notify_borrower_of_default</text>
</g>
<!-- S17&#45;&gt;S8 -->
<g id="edge68" class="edge">
<title>S17&#45;&gt;S8</title>
<path fill="none" stroke="black" d="M3153.35,-217.13C3221.36,-218.11 3641.11,-224.83 3767,-243 3826.85,-251.64 3840.8,-259.57 3899,-276 3997.21,-303.72 4057.65,-262.71 4118,-345 4140.87,-376.18 4138.08,-399.58 4117,-432 4106.59,-448.01 4090.26,-435.37 4078,-450 4053.22,-479.58 4080.63,-504.29 4056,-534 4044.07,-548.39 4034.65,-543.51 4018,-552 3946.24,-588.59 3933.7,-608.86 3859,-639 3807.31,-659.85 3792.9,-662.36 3738,-672 3625.52,-691.75 3488.04,-696.54 3438.2,-697.67"/>
<polygon fill="black" stroke="black" points="3437.88,-694.17 3427.96,-697.87 3438.02,-701.17 3437.88,-694.17"/>
<text text-anchor="middle" x="4189" y="-453.8" font-family="Times,serif" font-size="14.00">cure_default|notify_borrower_of_default</text>
</g>
<!-- S17&#45;&gt;S14 -->
<g id="edge73" class="edge">
<title>S17&#45;&gt;S14</title>
<path fill="none" stroke="black" d="M3134.68,-214.72C3099.59,-213.51 2975.75,-207.97 2942,-189 2934.56,-184.82 2937.31,-178.41 2930,-174 2893.53,-151.98 2842.28,-148.03 2814.6,-147.65"/>
<polygon fill="black" stroke="black" points="2814.28,-144.15 2804.29,-147.67 2814.29,-151.15 2814.28,-144.15"/>
<text text-anchor="middle" x="3002" y="-177.8" font-family="Times,serif" font-size="14.00">dont_notify_borrower</text>
</g>
<!-- S17&#45;&gt;S21 -->
<g id="edge71" class="edge">
<title>S17&#45;&gt;S21</title>
<path fill="none" stroke="black" d="M3152.99,-217.77C3186.31,-220.66 3305.81,-231.26 3404,-243 3431.62,-246.3 3880.03,-292.63 3900,-312 3905.99,-317.81 3908,-326.72 3908.4,-334.75"/>
<polygon fill="black" stroke="black" points="3904.9,-334.71 3908.17,-344.79 3911.9,-334.87 3904.9,-334.71"/>
<text text-anchor="middle" x="3854" y="-281.3" font-family="Times,serif" font-size="14.00">cure_default</text>
</g>
<!-- S17&#45;&gt;S22 -->
<g id="edge67" class="edge">
<title>S17&#45;&gt;S22</title>
<path fill="none" stroke="black" d="M3153.07,-217.18C3233.6,-218.88 3824.85,-232.76 3889,-276 3903.83,-286 3899.73,-295.66 3907,-312 3911.95,-323.12 3917.63,-355.23 3927,-363 3960.08,-390.43 3994.59,-347.91 4022,-381 4026.25,-386.13 4023.31,-389.46 4022,-396 4018.6,-413 4019.05,-419.54 4007,-432 3976.01,-464.06 3924.33,-480.28 3896.73,-487.03"/>
<polygon fill="black" stroke="black" points="3895.78,-483.66 3886.81,-489.3 3897.33,-490.49 3895.78,-483.66"/>
<text text-anchor="middle" x="4022" y="-350.3" font-family="Times,serif" font-size="14.00">cure_default|dont_notify_borrower</text>
</g>
<!-- S18&#45;&gt;S3 -->
<g id="edge43" class="edge">
<title>S18&#45;&gt;S3</title>
<path fill="none" stroke="black" d="M575.21,-422.18C615.54,-422.77 780.47,-423.3 912,-396 955.76,-386.92 972.2,-391.05 1007,-363 1014.3,-357.12 1010.26,-350.28 1018,-345 1070.05,-309.48 1268.91,-292.05 1331.81,-287.34"/>
<polygon fill="black" stroke="black" points="1332.18,-290.82 1341.9,-286.61 1331.68,-283.84 1332.18,-290.82"/>
<text text-anchor="middle" x="1116" y="-350.3" font-family="Times,serif" font-size="14.00">borrower_default|dont_cure_default</text>
</g>
<!-- S18&#45;&gt;S3 -->
<g id="edge45" class="edge">
<title>S18&#45;&gt;S3</title>
<path fill="none" stroke="black" d="M575.03,-420.88C599.4,-417.79 668.47,-408.5 725,-396 807.02,-377.86 825.41,-364.98 907,-345 976.26,-328.04 993.48,-322.57 1064,-312 1164.35,-296.96 1285.83,-289.43 1331.98,-286.95"/>
<polygon fill="black" stroke="black" points="1332.22,-290.45 1342.03,-286.43 1331.86,-283.45 1332.22,-290.45"/>
<text text-anchor="middle" x="956.5" y="-350.3" font-family="Times,serif" font-size="14.00">dont_cure_default</text>
</g>
<!-- S18&#45;&gt;S11 -->
<g id="edge44" class="edge">
<title>S18&#45;&gt;S11</title>
<path fill="none" stroke="black" d="M556.96,-424.08C515.35,-424.9 340.02,-433.52 238,-519 211.8,-540.96 216.14,-556.04 204,-588 195.66,-609.97 206.12,-621.89 190,-639 172.94,-657.11 152.45,-637.51 137,-657 125.63,-671.35 133,-679.69 133,-698 133,-838 133,-838 133,-838 133,-917.02 227.63,-868.89 306,-879 524.31,-907.17 1247,-905.59 1373.9,-905.09"/>
<polygon fill="black" stroke="black" points="1374.02,-908.59 1384,-905.05 1373.99,-901.59 1374.02,-908.59"/>
<text text-anchor="middle" x="171" y="-660.8" font-family="Times,serif" font-size="14.00">cure_default</text>
</g>
<!-- S18&#45;&gt;S12 -->
<g id="edge42" class="edge">
<title>S18&#45;&gt;S12</title>
<path fill="none" stroke="black" d="M557.33,-425.72C544.82,-428.62 521.72,-435.63 508,-450 480.92,-478.36 505.56,-503.43 481,-534 429.08,-598.63 358.82,-550.01 316,-621 311.87,-627.85 311.13,-632.65 316,-639 441.8,-802.83 573.7,-681.09 765,-759 780.11,-765.16 781.37,-772.32 797,-777 852.7,-793.66 1005.51,-770.01 1058,-795 1066.23,-798.92 1063.77,-806.07 1072,-810 1133.24,-839.27 1348.19,-837.65 1413.82,-836.44"/>
<polygon fill="black" stroke="black" points="1414.04,-839.93 1423.97,-836.23 1413.9,-832.93 1414.04,-839.93"/>
<text text-anchor="middle" x="398.5" y="-626.3" font-family="Times,serif" font-size="14.00">borrower_default|cure_default</text>
</g>
<!-- S18&#45;&gt;S16 -->
<g id="edge41" class="edge">
<title>S18&#45;&gt;S16</title>
<path fill="none" stroke="black" d="M556.87,-420.79C543.85,-418.51 520.38,-412.26 510,-396 506.41,-390.38 506.61,-386.74 510,-381 516.12,-370.63 528.02,-364.1 538.32,-360.18"/>
<polygon fill="black" stroke="black" points="539.73,-363.41 548.16,-356.99 537.57,-356.75 539.73,-363.41"/>
<text text-anchor="middle" x="557" y="-384.8" font-family="Times,serif" font-size="14.00">borrower_default</text>
</g>
<!-- S19&#45;&gt;S0 -->
<g id="edge31" class="edge">
<title>S19&#45;&gt;S0</title>
<path fill="none" stroke="black" d="M3094.7,-293.63C3092.57,-298.75 3089.87,-305.69 3088,-312 3082.63,-330.11 3065.07,-379.93 3075,-396 3082.23,-407.7 3096.5,-414.31 3108.26,-417.94"/>
<polygon fill="black" stroke="black" points="3107.53,-421.36 3118.09,-420.49 3109.29,-414.59 3107.53,-421.36"/>
<text text-anchor="middle" x="3124" y="-350.3" font-family="Times,serif" font-size="14.00">borrower_default</text>
</g>
<!-- S19&#45;&gt;S14 -->
<g id="edge32" class="edge">
<title>S19&#45;&gt;S14</title>
<path fill="none" stroke="black" d="M3089.97,-280.67C3085.85,-279.06 3080.72,-277.23 3076,-276 2961.62,-246.21 2897.61,-309.53 2815,-225 2798.86,-208.48 2811.39,-196.2 2805,-174 2804.15,-171.04 2803.1,-167.94 2802,-164.95"/>
<polygon fill="black" stroke="black" points="2805.25,-163.64 2798.33,-155.62 2798.74,-166.2 2805.25,-163.64"/>
<text text-anchor="middle" x="2890.5" y="-212.3" font-family="Times,serif" font-size="14.00">notify_borrower_of_default</text>
</g>
<!-- S19&#45;&gt;S17 -->
<g id="edge34" class="edge">
<title>S19&#45;&gt;S17</title>
<path fill="none" stroke="black" d="M3106.08,-280.73C3114.9,-276.73 3128.71,-269.09 3136,-258 3140.39,-251.32 3142.48,-242.8 3143.44,-235.25"/>
<polygon fill="black" stroke="black" points="3146.94,-235.46 3144.18,-225.23 3139.96,-234.95 3146.94,-235.46"/>
<text text-anchor="middle" x="3265" y="-246.8" font-family="Times,serif" font-size="14.00">borrower_default|notify_borrower_of_default</text>
</g>
<!-- S19&#45;&gt;S21 -->
<g id="edge35" class="edge">
<title>S19&#45;&gt;S21</title>
<path fill="none" stroke="black" d="M3107.19,-286.93C3140.53,-290.37 3253.8,-302.64 3267,-312 3273.16,-316.37 3268.6,-322.98 3275,-327 3301.58,-343.7 3785.01,-351.31 3887.86,-352.75"/>
<polygon fill="black" stroke="black" points="3887.96,-356.25 3898.01,-352.88 3888.06,-349.25 3887.96,-356.25"/>
<text text-anchor="middle" x="3383.5" y="-315.8" font-family="Times,serif" font-size="14.00">borrower_default|dont_notify_borrower</text>
</g>
<!-- S19&#45;&gt;S22 -->
<g id="edge33" class="edge">
<title>S19&#45;&gt;S22</title>
<path fill="none" stroke="black" d="M3098.15,-294.08C3098.77,-303.29 3101.18,-318.2 3110,-327 3132.34,-349.29 3203.42,-323.83 3172,-363 3148.92,-391.77 3114.08,-352.23 3091,-381 3086.83,-386.2 3086.48,-391.1 3091,-396 3116.4,-423.52 3729.28,-433.71 3763,-450 3771.21,-453.97 3769.07,-460.5 3777,-465 3807.75,-482.42 3822.55,-472.55 3860.58,-483.75"/>
<polygon fill="black" stroke="black" points="3859.61,-487.11 3870.2,-486.87 3861.77,-480.45 3859.61,-487.11"/>
<text text-anchor="middle" x="3151" y="-384.8" font-family="Times,serif" font-size="14.00">dont_notify_borrower</text>
</g>
<!-- S20&#45;&gt;S20 -->
<g id="edge25" class="edge">
<title>S20&#45;&gt;S20</title>
<path fill="none" stroke="black" d="M1723.82,-15.22C1725.77,-15.68 1727.58,-15.13 1727.44,-12.28"/>
<polygon fill="black" stroke="black" points="1730.65,-10.88 1723.82,-2.78 1724.11,-13.37 1730.65,-10.88"/>
<text text-anchor="middle" x="1754.5" y="-5.3" font-family="Times,serif" font-size="14.00">breached</text>
</g>
<!-- S21&#45;&gt;S0 -->
<g id="edge19" class="edge">
<title>S21&#45;&gt;S0</title>
<path fill="none" stroke="black" d="M3897.73,-355.09C3818.02,-355.88 3250.1,-362.16 3220,-381 3213.6,-385.01 3217.83,-391.2 3212,-396 3192.97,-411.67 3164.59,-417.91 3145.94,-420.38"/>
<polygon fill="black" stroke="black" points="3145.55,-416.9 3135.99,-421.47 3146.31,-423.86 3145.55,-416.9"/>
<text text-anchor="middle" x="3352.5" y="-384.8" font-family="Times,serif" font-size="14.00">payment_default(normal, borrower, lender, 525)</text>
</g>
<!-- S21&#45;&gt;S8 -->
<g id="edge17" class="edge">
<title>S21&#45;&gt;S8</title>
<path fill="none" stroke="black" d="M3914.41,-359.6C3916.23,-360.72 3918.18,-361.91 3920,-363 3958.42,-386.08 3984.72,-375.11 4007,-414 4038.89,-469.65 3938.19,-462.41 3908,-519 3890.28,-552.22 3921.82,-574.69 3897,-603 3834.93,-673.79 3519.52,-693.3 3438.17,-697.18"/>
<polygon fill="black" stroke="black" points="3437.75,-693.7 3427.92,-697.65 3438.07,-700.69 3437.75,-693.7"/>
<text text-anchor="middle" x="3983.5" y="-522.8" font-family="Times,serif" font-size="14.00">notify_borrower_of_default</text>
</g>
<!-- S21&#45;&gt;S10 -->
<g id="edge20" class="edge">
<title>S21&#45;&gt;S10</title>
<path fill="none" stroke="black" d="M3914.37,-348.34C3916.19,-347.22 3918.16,-346.05 3920,-345 4005.43,-296.57 4028.78,-288.12 4116,-243 4147.07,-226.92 4153.88,-220.85 4186,-207 4208.07,-197.48 4217.4,-202.92 4237,-189 4243.96,-184.06 4243.02,-180.1 4249,-174 4311.37,-110.4 4396.66,-45.99 4430.88,-20.92"/>
<polygon fill="black" stroke="black" points="4433.09,-23.64 4439.12,-14.93 4428.97,-17.98 4433.09,-23.64"/>
<text text-anchor="middle" x="4345.5" y="-177.8" font-family="Times,serif" font-size="14.00">pay(normal, borrower, lender, 525)</text>
</g>
<!-- S21&#45;&gt;S10 -->
<g id="edge23" class="edge">
<title>S21&#45;&gt;S10</title>
<path fill="none" stroke="black" d="M3912.29,-346.16C3915.8,-341.16 3920.11,-334.05 3922,-327 3931.66,-290.94 3931.87,-279.01 3922,-243 3913.07,-210.4 3869.76,-201.07 3890,-174 3957.98,-83.08 4337.97,-25.04 4427.23,-12.54"/>
<polygon fill="black" stroke="black" points="4427.81,-15.99 4437.24,-11.16 4426.86,-9.06 4427.81,-15.99"/>
<text text-anchor="middle" x="4063" y="-177.8" font-family="Times,serif" font-size="14.00">notify_borrower_of_default|pay(normal, borrower, lender, 525)</text>
</g>
<!-- S21&#45;&gt;S10 -->
<g id="edge24" class="edge">
<title>S21&#45;&gt;S10</title>
<path fill="none" stroke="black" d="M3908.07,-345.02C3908.95,-336.66 3909.65,-323.22 3907,-312 3902.89,-294.59 3902.84,-287.33 3889,-276 3773.16,-181.19 3474,-290.5 3568,-174 3680.84,-34.14 4309.09,-13.1 4426.94,-10.37"/>
<polygon fill="black" stroke="black" points="4427.06,-13.87 4436.98,-10.15 4426.91,-6.87 4427.06,-13.87"/>
<text text-anchor="middle" x="3725.5" y="-177.8" font-family="Times,serif" font-size="14.00">dont_notify_borrower|pay(normal, borrower, lender, 525)</text>
</g>
<!-- S21&#45;&gt;S13 -->
<g id="edge21" class="edge">
<title>S21&#45;&gt;S13</title>
<path fill="none" stroke="black" d="M3905.79,-363.01C3903.92,-372.43 3899.39,-387.83 3889,-396 3853.17,-424.2 3826.48,-389.54 3788,-414 3764.59,-428.88 3776.24,-451.51 3752,-465 3693.06,-497.8 3507.72,-449.82 3449,-483 3425.07,-496.52 3436.8,-518.64 3414,-534 3295.5,-613.83 3241.4,-582.47 3100,-603 2970.59,-621.79 2812.94,-627.22 2759.08,-628.59"/>
<polygon fill="black" stroke="black" points="2758.87,-625.09 2748.96,-628.83 2759.04,-632.09 2758.87,-625.09"/>
<text text-anchor="middle" x="3658" y="-488.3" font-family="Times,serif" font-size="14.00">notify_borrower_of_default|payment_default(normal, borrower, lender, 525)</text>
</g>
<!-- S21&#45;&gt;S19 -->
<g id="edge22" class="edge">
<title>S21&#45;&gt;S19</title>
<path fill="none" stroke="black" d="M3898.01,-352.85C3841.9,-351.87 3540.97,-345.74 3505,-327 3497.43,-323.06 3500.59,-315.92 3493,-312 3461.95,-295.97 3213.84,-296.72 3179,-294 3157.71,-292.34 3133.33,-289.85 3116.92,-288.09"/>
<polygon fill="black" stroke="black" points="3117.3,-284.61 3106.98,-287.01 3116.54,-291.57 3117.3,-284.61"/>
<text text-anchor="middle" x="3698.5" y="-315.8" font-family="Times,serif" font-size="14.00">dont_notify_borrower|payment_default(normal, borrower, lender, 525)</text>
</g>
<!-- S21&#45;&gt;S22 -->
<g id="edge18" class="edge">
<title>S21&#45;&gt;S22</title>
<path fill="none" stroke="black" d="M3908.13,-363.17C3908.92,-372.45 3908.59,-387.43 3900,-396 3865.86,-430.06 3824.14,-377.18 3793,-414 3787.83,-420.11 3789.29,-424.91 3793,-432 3800.44,-446.21 3838.86,-469.3 3861.42,-481.97"/>
<polygon fill="black" stroke="black" points="3859.79,-485.08 3870.24,-486.85 3863.18,-478.95 3859.79,-485.08"/>
<text text-anchor="middle" x="3853" y="-419.3" font-family="Times,serif" font-size="14.00">dont_notify_borrower</text>
</g>
<!-- S22&#45;&gt;S0 -->
<g id="edge38" class="edge">
<title>S22&#45;&gt;S0</title>
<path fill="none" stroke="black" d="M3870.63,-486.71C3867.73,-485.25 3864.3,-483.78 3861,-483 3821.95,-473.76 3170.81,-489.46 3139,-465 3135.2,-462.08 3132.17,-451.64 3130.11,-442.03"/>
<polygon fill="black" stroke="black" points="3133.51,-441.15 3128.21,-431.98 3126.63,-442.46 3133.51,-441.15"/>
<text text-anchor="middle" x="3319.5" y="-453.8" font-family="Times,serif" font-size="14.00">borrower_default|payment_default(normal, borrower, lender, 525)</text>
</g>
<!-- S22&#45;&gt;S10 -->
<g id="edge39" class="edge">
<title>S22&#45;&gt;S10</title>
<path fill="none" stroke="black" d="M3886.99,-490.94C3912.51,-490.49 3987.23,-487.23 4044,-465 4053.47,-461.29 4111.29,-419.24 4120,-414 4245.75,-338.36 4306.08,-360.6 4411,-258 4423.59,-245.69 4445.52,-206.03 4450,-189 4465.07,-131.72 4455.49,-60.55 4449.61,-27.89"/>
<polygon fill="black" stroke="black" points="4453.04,-27.2 4447.73,-18.03 4446.16,-28.51 4453.04,-27.2"/>
<text text-anchor="middle" x="4518.5" y="-246.8" font-family="Times,serif" font-size="14.00">pay(normal, borrower, lender, 525)</text>
</g>
<!-- S22&#45;&gt;S10 -->
<g id="edge40" class="edge">
<title>S22&#45;&gt;S10</title>
<path fill="none" stroke="black" d="M3886.78,-489.64C3923.44,-483.43 4064.73,-453.99 4114,-363 4139.44,-316.02 4085.36,-282.79 4121,-243 4144.91,-216.3 4415.35,-215.92 4439,-189 4459.59,-165.56 4452.2,-68.89 4448.05,-28.19"/>
<polygon fill="black" stroke="black" points="4451.51,-27.67 4446.96,-18.1 4444.55,-28.42 4451.51,-27.67"/>
<text text-anchor="middle" x="4265.5" y="-246.8" font-family="Times,serif" font-size="14.00">borrower_default|pay(normal, borrower, lender, 525)</text>
</g>
<!-- S22&#45;&gt;S19 -->
<g id="edge37" class="edge">
<title>S22&#45;&gt;S19</title>
<path fill="none" stroke="black" d="M3870.12,-487.09C3867.27,-485.73 3864.02,-484.24 3861,-483 3838.76,-473.87 3832.44,-473.63 3810,-465 3793.82,-458.78 3790.09,-456.45 3774,-450 3712.1,-425.17 3691.93,-429.03 3634,-396 3624.65,-390.67 3624.86,-385.31 3615,-381 3472.77,-318.88 3407.12,-399.71 3270,-327 3261.94,-322.73 3264.04,-316.3 3256,-312 3232.34,-299.33 3154.47,-290.98 3117.64,-287.64"/>
<polygon fill="black" stroke="black" points="3117.51,-284.12 3107.25,-286.74 3116.9,-291.09 3117.51,-284.12"/>
<text text-anchor="middle" x="3766.5" y="-384.8" font-family="Times,serif" font-size="14.00">payment_default(normal, borrower, lender, 525)</text>
</g>
<!-- S22&#45;&gt;S21 -->
<g id="edge36" class="edge">
<title>S22&#45;&gt;S21</title>
<path fill="none" stroke="black" d="M3883.17,-484.21C3890.81,-473.7 3904.78,-452.56 3910,-432 3914.98,-412.38 3913.02,-389.06 3910.59,-373.26"/>
<polygon fill="black" stroke="black" points="3914.01,-372.49 3908.83,-363.25 3907.12,-373.71 3914.01,-372.49"/>
<text text-anchor="middle" x="3959" y="-419.3" font-family="Times,serif" font-size="14.00">borrower_default</text>
</g>
<!-- S23&#45;&gt;S6 -->
<g id="edge5" class="edge">
<title>S23&#45;&gt;S6</title>
<path fill="none" stroke="black" d="M826.34,-620.91C829.6,-601.38 837.74,-553.19 839,-552 872.92,-519.95 1211.84,-498.86 1296.77,-494.05"/>
<polygon fill="black" stroke="black" points="1297.03,-497.54 1306.82,-493.49 1296.64,-490.55 1297.03,-497.54"/>
<text text-anchor="middle" x="991.5" y="-557.3" font-family="Times,serif" font-size="14.00">notify_borrower_of_default|notify_borrower_of_default</text>
</g>
<!-- S23&#45;&gt;S9 -->
<g id="edge6" class="edge">
<title>S23&#45;&gt;S9</title>
<path fill="none" stroke="black" d="M834.14,-631.21C879.99,-632.36 1083.52,-638.49 1104,-657 1121.13,-672.49 1096.45,-692.99 1114,-708 1153.97,-742.19 1539.17,-704.13 1587,-726 1595.29,-729.79 1592.76,-737.08 1601,-741 1634.15,-756.76 1893.33,-764.62 1966.07,-766.53"/>
<polygon fill="black" stroke="black" points="1966,-770.03 1976.08,-766.79 1966.17,-763.03 1966,-770.03"/>
<text text-anchor="middle" x="1251" y="-695.3" font-family="Times,serif" font-size="14.00">dont_notify_borrower|notify_borrower_of_default</text>
</g>
<!-- S23&#45;&gt;S11 -->
<g id="edge8" class="edge">
<title>S23&#45;&gt;S11</title>
<path fill="none" stroke="black" d="M816.03,-631.07C778.11,-631.49 627.3,-634.57 506,-657 425.35,-671.91 111.6,-708.7 157,-777 221.84,-874.54 285.49,-854.38 400,-879 498.4,-900.16 1243.18,-904.35 1373.55,-904.92"/>
<polygon fill="black" stroke="black" points="1373.91,-908.42 1383.93,-904.97 1373.94,-901.42 1373.91,-908.42"/>
<text text-anchor="middle" x="278" y="-764.3" font-family="Times,serif" font-size="14.00">dont_notify_borrower|dont_notify_borrower</text>
</g>
<!-- S23&#45;&gt;S12 -->
<g id="edge3" class="edge">
<title>S23&#45;&gt;S12</title>
<path fill="none" stroke="black" d="M833.99,-631.86C870.5,-635.79 1009.64,-655.01 1092,-726 1097.72,-730.93 1093.63,-736.93 1100,-741 1130.49,-760.46 1398.82,-734.05 1425,-759 1440.56,-773.83 1439.8,-800.17 1437.04,-817.86"/>
<polygon fill="black" stroke="black" points="1433.58,-817.32 1435.14,-827.8 1440.46,-818.64 1433.58,-817.32"/>
<text text-anchor="middle" x="1160" y="-729.8" font-family="Times,serif" font-size="14.00">dont_notify_borrower</text>
</g>
<!-- S23&#45;&gt;S15 -->
<g id="edge2" class="edge">
<title>S23&#45;&gt;S15</title>
<path fill="none" stroke="black" d="M833.86,-628.09C878.13,-623.57 1079.75,-603.09 1245,-588 1353.4,-578.1 1483.53,-567.46 1531.78,-563.55"/>
<polygon fill="black" stroke="black" points="1532.3,-567.02 1541.98,-562.72 1531.74,-560.04 1532.3,-567.02"/>
<text text-anchor="middle" x="1320.5" y="-591.8" font-family="Times,serif" font-size="14.00">notify_borrower_of_default</text>
</g>
<!-- S23&#45;&gt;S16 -->
<g id="edge1" class="edge">
<title>S23&#45;&gt;S16</title>
<path fill="none" stroke="black" d="M825.97,-620.96C827.9,-602.37 830.99,-555.2 818,-519 814.67,-509.71 810.63,-509.11 805,-501 768.45,-448.34 779.03,-415.49 725,-381 700.65,-365.46 615.31,-358.48 576.49,-356.06"/>
<polygon fill="black" stroke="black" points="576.24,-352.54 566.06,-355.45 575.83,-359.53 576.24,-352.54"/>
<text text-anchor="middle" x="880.5" y="-488.3" font-family="Times,serif" font-size="14.00">notify_borrower_of_default</text>
</g>
<!-- S23&#45;&gt;S18 -->
<g id="edge7" class="edge">
<title>S23&#45;&gt;S18</title>
<path fill="none" stroke="black" d="M817.24,-624.76C793.17,-611.81 717.35,-572.38 650,-552 605.52,-538.54 576.9,-569.58 547,-534 524.41,-507.12 543.31,-463.19 556.29,-439.8"/>
<polygon fill="black" stroke="black" points="559.48,-441.29 561.51,-430.9 553.44,-437.76 559.48,-441.29"/>
<text text-anchor="middle" x="684" y="-522.8" font-family="Times,serif" font-size="14.00">dont_notify_borrower|notify_borrower_of_default</text>
</g>
<!-- S23&#45;&gt;S24 -->
<g id="edge4" class="edge">
<title>S23&#45;&gt;S24</title>
<path fill="none" stroke="black" d="M815.91,-631.49C789.95,-633.11 716.43,-639.2 702,-657 683.78,-679.48 733.9,-690.9 762.94,-695.49"/>
<polygon fill="black" stroke="black" points="762.78,-699.01 773.18,-696.97 763.78,-692.08 762.78,-699.01"/>
<text text-anchor="middle" x="762" y="-660.8" font-family="Times,serif" font-size="14.00">dont_notify_borrower</text>
</g>
<!-- S24&#45;&gt;S11 -->
<g id="edge28" class="edge">
<title>S24&#45;&gt;S11</title>
<path fill="none" stroke="black" d="M782.85,-708.12C784.02,-723.85 784.11,-758.56 765,-777 733.13,-807.75 695.34,-760.98 667,-795 625.1,-845.3 725.09,-860.87 788,-879 845.39,-895.54 1277.68,-903.2 1374.01,-904.72"/>
<polygon fill="black" stroke="black" points="1373.99,-908.22 1384.04,-904.87 1374.1,-901.22 1373.99,-908.22"/>
<text text-anchor="middle" x="727" y="-798.8" font-family="Times,serif" font-size="14.00">dont_notify_borrower</text>
</g>
<!-- S24&#45;&gt;S12 -->
<g id="edge30" class="edge">
<title>S24&#45;&gt;S12</title>
<path fill="none" stroke="black" d="M787.78,-705.97C792.87,-711.22 800.45,-719.09 807,-726 813.27,-732.62 812.73,-737.16 821,-741 895.48,-775.54 1119.39,-717.11 1190,-759 1198.06,-763.78 1193.46,-771.43 1201,-777 1267.78,-826.27 1371.54,-834.57 1413.96,-835.84"/>
<polygon fill="black" stroke="black" points="1413.93,-839.34 1424,-836.04 1414.07,-832.35 1413.93,-839.34"/>
<text text-anchor="middle" x="1309.5" y="-764.3" font-family="Times,serif" font-size="14.00">borrower_default|dont_notify_borrower</text>
</g>
<!-- S24&#45;&gt;S16 -->
<g id="edge29" class="edge">
<title>S24&#45;&gt;S16</title>
<path fill="none" stroke="black" d="M773.02,-698.1C732.02,-698.4 562.68,-698.01 518,-672 494.02,-658.04 504,-637.91 482,-621 393.7,-553.13 310.63,-625.41 247,-534 168.15,-420.73 459.39,-369.28 537.96,-357.63"/>
<polygon fill="black" stroke="black" points="538.54,-361.08 547.94,-356.2 537.54,-354.15 538.54,-361.08"/>
<text text-anchor="middle" x="371" y="-522.8" font-family="Times,serif" font-size="14.00">borrower_default|notify_borrower_of_default</text>
</g>
<!-- S24&#45;&gt;S18 -->
<g id="edge27" class="edge">
<title>S24&#45;&gt;S18</title>
<path fill="none" stroke="black" d="M772.9,-697.84C724.46,-696.77 499,-688.68 499,-631 499,-631 499,-631 499,-491 499,-462.84 528.95,-442.39 548.8,-431.92"/>
<polygon fill="black" stroke="black" points="550.62,-434.93 558.05,-427.37 547.53,-428.64 550.62,-434.93"/>
<text text-anchor="middle" x="574.5" y="-557.3" font-family="Times,serif" font-size="14.00">notify_borrower_of_default</text>
</g>
<!-- S24&#45;&gt;S23 -->
<g id="edge26" class="edge">
<title>S24&#45;&gt;S23</title>
<path fill="none" stroke="black" d="M772.87,-698.15C739.69,-698.5 626.26,-697.75 604,-672 599.64,-666.96 599.57,-661.98 604,-657 617.34,-642 754.62,-634.22 805.85,-631.82"/>
<polygon fill="black" stroke="black" points="806.08,-635.32 815.91,-631.37 805.77,-628.32 806.08,-635.32"/>
<text text-anchor="middle" x="651" y="-660.8" font-family="Times,serif" font-size="14.00">borrower_default</text>
</g>
</g>
</svg>
