<?xml version="1.0" encoding="UTF-8" standalone="no"?>
<!DOCTYPE svg PUBLIC "-//W3C//DTD SVG 1.1//EN"
 "http://www.w3.org/Graphics/SVG/1.1/DTD/svg11.dtd">
<!-- Generated by graphviz version 5.0.1 (0)
 -->
<!-- Title: G Pages: 1 -->
<svg width="2874pt" height="931pt"
 viewBox="0.00 0.00 2874.00 931.00" xmlns="http://www.w3.org/2000/svg" xmlns:xlink="http://www.w3.org/1999/xlink">
<g id="graph0" class="graph" transform="scale(1 1) rotate(0) translate(4 927)">
<title>G</title>
<polygon fill="white" stroke="none" points="-4,4 -4,-927 2870,-927 2870,4 -4,4"/>
<!-- S3 -->
<g id="node1" class="node">
<title>S3</title>
<ellipse fill="none" stroke="black" cx="1837" cy="-910" rx="9" ry="9"/>
<ellipse fill="none" stroke="black" cx="1837" cy="-910" rx="13" ry="13"/>
</g>
<!-- S4 -->
<g id="node5" class="node">
<title>S4</title>
<ellipse fill="none" stroke="black" cx="906" cy="-837" rx="9" ry="9"/>
</g>
<!-- S3&#45;&gt;S4 -->
<g id="edge69" class="edge">
<title>S3&#45;&gt;S4</title>
<path fill="none" stroke="black" d="M1823.84,-908C1721.07,-900.16 1047.91,-848.82 925.18,-839.46"/>
<polygon fill="black" stroke="black" points="925.3,-835.96 915.06,-838.69 924.77,-842.94 925.3,-835.96"/>
<text text-anchor="middle" x="1474" y="-867.8" font-family="Times,serif" font-size="14.00">request_principal</text>
</g>
<!-- S5 -->
<g id="node6" class="node">
<title>S5</title>
<ellipse fill="none" stroke="black" cx="2331" cy="-9" rx="9" ry="9"/>
</g>
<!-- S3&#45;&gt;S5 -->
<g id="edge70" class="edge">
<title>S3&#45;&gt;S5</title>
<path fill="none" stroke="black" d="M1850.13,-908.68C1961.3,-905.91 2741,-884.79 2741,-838 2741,-838 2741,-838 2741,-77 2741,-36.87 2431.13,-15.88 2350.17,-11.08"/>
<polygon fill="black" stroke="black" points="2350.13,-7.57 2339.94,-10.49 2349.73,-14.56 2350.13,-7.57"/>
<text text-anchor="middle" x="2803.5" y="-453.8" font-family="Times,serif" font-size="14.00">dont_request_principal</text>
</g>
<!-- S0 -->
<g id="node2" class="node">
<title>S0</title>
<ellipse fill="none" stroke="black" cx="1660" cy="-630" rx="9" ry="9"/>
</g>
<!-- S0&#45;&gt;S5 -->
<g id="edge8" class="edge">
<title>S0&#45;&gt;S5</title>
<path fill="none" stroke="black" d="M1669,-628.81C1761.72,-626.75 2540,-608.11 2540,-562 2540,-562 2540,-562 2540,-77 2540,-37.32 2401.7,-17.86 2350.1,-11.98"/>
<polygon fill="black" stroke="black" points="2350.3,-8.48 2339.98,-10.88 2349.54,-15.44 2350.3,-8.48"/>
<text text-anchor="middle" x="2636.5" y="-315.8" font-family="Times,serif" font-size="14.00">pay(normal, borrower, lender, 525)</text>
</g>
<!-- S20 -->
<g id="node21" class="node">
<title>S20</title>
<ellipse fill="none" stroke="black" cx="1912" cy="-561" rx="9" ry="9"/>
</g>
<!-- S0&#45;&gt;S20 -->
<g id="edge6" class="edge">
<title>S0&#45;&gt;S20</title>
<path fill="none" stroke="black" d="M1660.51,-620.92C1661.57,-611.42 1664.86,-595.95 1675,-588 1708.7,-561.59 1842.72,-560.89 1892.9,-561.59"/>
<polygon fill="black" stroke="black" points="1892.95,-565.09 1903.01,-561.77 1893.07,-558.09 1892.95,-565.09"/>
<text text-anchor="middle" x="1735" y="-591.8" font-family="Times,serif" font-size="14.00">dont_notify_borrower</text>
</g>
<!-- S21 -->
<g id="node22" class="node">
<title>S21</title>
<ellipse fill="none" stroke="black" cx="1597" cy="-216" rx="9" ry="9"/>
</g>
<!-- S0&#45;&gt;S21 -->
<g id="edge5" class="edge">
<title>S0&#45;&gt;S21</title>
<path fill="none" stroke="black" d="M1650.97,-629.5C1616.07,-630.91 1492,-631.08 1492,-562 1492,-562 1492,-562 1492,-456.5 1492,-437.48 1486.93,-430.14 1497,-414 1534.78,-353.44 1597.83,-389.67 1632,-327 1649.46,-294.98 1624.4,-252.89 1608.46,-231.23"/>
<polygon fill="black" stroke="black" points="1611.21,-229.07 1602.33,-223.29 1605.67,-233.35 1611.21,-229.07"/>
<text text-anchor="middle" x="1572.5" y="-419.3" font-family="Times,serif" font-size="14.00">notify_borrower_of_default</text>
</g>
<!-- S22 -->
<g id="node23" class="node">
<title>S22</title>
<ellipse fill="none" stroke="black" cx="1787" cy="-423" rx="9" ry="9"/>
</g>
<!-- S0&#45;&gt;S22 -->
<g id="edge7" class="edge">
<title>S0&#45;&gt;S22</title>
<path fill="none" stroke="black" d="M1656.93,-621.25C1650.02,-602.46 1635.16,-553.51 1653,-519 1677.61,-471.39 1738.29,-442.49 1768.83,-430.48"/>
<polygon fill="black" stroke="black" points="1770.46,-433.61 1778.6,-426.82 1768,-427.05 1770.46,-433.61"/>
<text text-anchor="middle" x="1785.5" y="-522.8" font-family="Times,serif" font-size="14.00">payment_default(normal, borrower, lender, 525)</text>
</g>
<!-- S1 -->
<g id="node3" class="node">
<title>S1</title>
<ellipse fill="none" stroke="black" cx="2122" cy="-78" rx="9" ry="9"/>
</g>
<!-- S1&#45;&gt;S5 -->
<g id="edge73" class="edge">
<title>S1&#45;&gt;S5</title>
<path fill="none" stroke="black" d="M2129.78,-73.11C2145.89,-65.19 2184.23,-47 2218,-36 2250.42,-25.44 2289.41,-17.47 2312.08,-13.29"/>
<polygon fill="black" stroke="black" points="2312.84,-16.71 2322.06,-11.5 2311.6,-9.82 2312.84,-16.71"/>
<text text-anchor="middle" x="2325" y="-39.8" font-family="Times,serif" font-size="14.00">pay(accelerated, borrower, lender, 525)</text>
</g>
<!-- S11 -->
<g id="node12" class="node">
<title>S11</title>
<ellipse fill="none" stroke="black" cx="965" cy="-9" rx="9" ry="9"/>
</g>
<!-- S1&#45;&gt;S11 -->
<g id="edge74" class="edge">
<title>S1&#45;&gt;S11</title>
<path fill="none" stroke="black" d="M2113.02,-76.48C2014,-70.75 1126.52,-19.35 984.21,-11.11"/>
<polygon fill="black" stroke="black" points="984.2,-7.61 974.01,-10.52 983.79,-14.59 984.2,-7.61"/>
<text text-anchor="middle" x="1790" y="-39.8" font-family="Times,serif" font-size="14.00">payment_default(accelerated, borrower, lender, 525)</text>
</g>
<!-- S2 -->
<g id="node4" class="node">
<title>S2</title>
<ellipse fill="none" stroke="black" cx="1003" cy="-147" rx="9" ry="9"/>
</g>
<!-- S2&#45;&gt;S5 -->
<g id="edge71" class="edge">
<title>S2&#45;&gt;S5</title>
<path fill="none" stroke="black" d="M1012.07,-146.35C1047.72,-147.28 1180.28,-146.39 1263,-87 1270.62,-81.53 1266.18,-74.18 1274,-69 1356.78,-14.14 1396.09,-44.89 1495,-36 1820.6,-6.73 2220.07,-8.83 2311.67,-9.77"/>
<polygon fill="black" stroke="black" points="2311.87,-13.27 2321.91,-9.88 2311.95,-6.27 2311.87,-13.27"/>
<text text-anchor="middle" x="1384.5" y="-74.3" font-family="Times,serif" font-size="14.00">pay(accelerated, borrower, lender, 1075)</text>
</g>
<!-- S2&#45;&gt;S11 -->
<g id="edge72" class="edge">
<title>S2&#45;&gt;S11</title>
<path fill="none" stroke="black" d="M998.41,-139.09C991.59,-128.42 978.92,-107.06 973,-87 967.25,-67.5 965.5,-44.16 965.03,-28.32"/>
<polygon fill="black" stroke="black" points="968.53,-28.23 964.88,-18.28 961.53,-28.33 968.53,-28.23"/>
<text text-anchor="middle" x="1119.5" y="-74.3" font-family="Times,serif" font-size="14.00">payment_default(accelerated, borrower, lender, 1075)</text>
</g>
<!-- S7 -->
<g id="node8" class="node">
<title>S7</title>
<ellipse fill="none" stroke="black" cx="906" cy="-768" rx="9" ry="9"/>
</g>
<!-- S4&#45;&gt;S7 -->
<g id="edge67" class="edge">
<title>S4&#45;&gt;S7</title>
<path fill="none" stroke="black" d="M906,-827.78C906,-817.84 906,-800.78 906,-787.6"/>
<polygon fill="black" stroke="black" points="909.5,-787.28 906,-777.28 902.5,-787.28 909.5,-787.28"/>
<text text-anchor="middle" x="1010" y="-798.8" font-family="Times,serif" font-size="14.00">pay(principal, lender, borrower, 1000)</text>
</g>
<!-- S4&#45;&gt;S11 -->
<g id="edge68" class="edge">
<title>S4&#45;&gt;S11</title>
<path fill="none" stroke="black" d="M897.03,-835.83C802.94,-833.95 0,-816.51 0,-769 0,-769 0,-769 0,-77 0,-27.74 810.83,-12.49 946,-10.29"/>
<polygon fill="black" stroke="black" points="946.12,-13.79 956.06,-10.13 946.01,-6.79 946.12,-13.79"/>
<text text-anchor="middle" x="140" y="-419.3" font-family="Times,serif" font-size="14.00">payment_default(principal, lender, borrower, 1000)</text>
</g>
<!-- S5&#45;&gt;S5 -->
<g id="edge66" class="edge">
<title>S5&#45;&gt;S5</title>
<path fill="none" stroke="black" d="M2337.82,-15.22C2339.77,-15.68 2341.58,-15.13 2341.44,-12.28"/>
<polygon fill="black" stroke="black" points="2344.65,-10.88 2337.82,-2.78 2338.11,-13.37 2344.65,-10.88"/>
<text text-anchor="middle" x="2366" y="-5.3" font-family="Times,serif" font-size="14.00">fulfilled</text>
</g>
<!-- S6 -->
<g id="node7" class="node">
<title>S6</title>
<ellipse fill="none" stroke="black" cx="777" cy="-699" rx="9" ry="9"/>
</g>
<!-- S6&#45;&gt;S0 -->
<g id="edge60" class="edge">
<title>S6&#45;&gt;S0</title>
<path fill="none" stroke="black" d="M786.03,-697.32C870.35,-690.92 1519.75,-641.64 1640.66,-632.47"/>
<polygon fill="black" stroke="black" points="1641.23,-635.93 1650.94,-631.69 1640.7,-628.95 1641.23,-635.93"/>
<text text-anchor="middle" x="1393.5" y="-660.8" font-family="Times,serif" font-size="14.00">pay(normal, borrower, lender, 550)</text>
</g>
<!-- S6&#45;&gt;S7 -->
<g id="edge62" class="edge">
<title>S6&#45;&gt;S7</title>
<path fill="none" stroke="black" d="M775.25,-708.03C773.76,-717.2 772.97,-732.06 781,-741 794.85,-756.43 855.18,-763.19 886.69,-765.71"/>
<polygon fill="black" stroke="black" points="886.62,-769.22 896.85,-766.46 887.13,-762.24 886.62,-769.22"/>
<text text-anchor="middle" x="841" y="-729.8" font-family="Times,serif" font-size="14.00">dont_notify_borrower</text>
</g>
<!-- S12 -->
<g id="node13" class="node">
<title>S12</title>
<ellipse fill="none" stroke="black" cx="1154" cy="-423" rx="9" ry="9"/>
</g>
<!-- S6&#45;&gt;S12 -->
<g id="edge59" class="edge">
<title>S6&#45;&gt;S12</title>
<path fill="none" stroke="black" d="M785.94,-697.69C827.41,-696.16 999.61,-688.81 1016,-672 1053.36,-633.68 994.98,-595.61 1026,-552 1058.41,-506.44 1106.71,-545.16 1141,-501 1153.97,-484.3 1155.96,-459.36 1155.54,-442.42"/>
<polygon fill="black" stroke="black" points="1159.02,-441.96 1154.96,-432.18 1152.03,-442.36 1159.02,-441.96"/>
<text text-anchor="middle" x="1101.5" y="-557.3" font-family="Times,serif" font-size="14.00">notify_borrower_of_default</text>
</g>
<!-- S23 -->
<g id="node24" class="node">
<title>S23</title>
<ellipse fill="none" stroke="black" cx="752" cy="-630" rx="9" ry="9"/>
</g>
<!-- S6&#45;&gt;S23 -->
<g id="edge61" class="edge">
<title>S6&#45;&gt;S23</title>
<path fill="none" stroke="black" d="M770.41,-692.81C764.91,-688.06 757.45,-680.48 754,-672 751.11,-664.9 750.3,-656.53 750.32,-649.2"/>
<polygon fill="black" stroke="black" points="753.82,-649.37 750.85,-639.2 746.83,-649 753.82,-649.37"/>
<text text-anchor="middle" x="886.5" y="-660.8" font-family="Times,serif" font-size="14.00">payment_default(normal, borrower, lender, 550)</text>
</g>
<!-- S7&#45;&gt;S6 -->
<g id="edge63" class="edge">
<title>S7&#45;&gt;S6</title>
<path fill="none" stroke="black" d="M906.84,-758.88C907.31,-749.64 906.53,-734.7 898,-726 884.06,-711.79 826.89,-704.53 796.39,-701.6"/>
<polygon fill="black" stroke="black" points="796.42,-698.09 786.15,-700.69 795.8,-705.06 796.42,-698.09"/>
<text text-anchor="middle" x="952" y="-729.8" font-family="Times,serif" font-size="14.00">borrower_default</text>
</g>
<!-- S14 -->
<g id="node15" class="node">
<title>S14</title>
<ellipse fill="none" stroke="black" cx="717" cy="-285" rx="9" ry="9"/>
</g>
<!-- S7&#45;&gt;S14 -->
<g id="edge64" class="edge">
<title>S7&#45;&gt;S14</title>
<path fill="none" stroke="black" d="M896.95,-766.99C821.44,-766.76 299,-762.95 299,-700 299,-700 299,-700 299,-560 299,-539.73 304.66,-533.33 319,-519 331.94,-506.08 339.61,-509.12 356,-501 448.79,-455.01 481.17,-458.15 564,-396 571.29,-390.53 571.08,-386.94 578,-381 619.29,-345.53 674.05,-311.4 700.85,-295.42"/>
<polygon fill="black" stroke="black" points="702.82,-298.32 709.66,-290.23 699.27,-292.29 702.82,-298.32"/>
<text text-anchor="middle" x="451.5" y="-522.8" font-family="Times,serif" font-size="14.00">payment_default(normal, borrower, lender, 550)</text>
</g>
<!-- S7&#45;&gt;S20 -->
<g id="edge65" class="edge">
<title>S7&#45;&gt;S20</title>
<path fill="none" stroke="black" d="M915.19,-766.47C950.34,-764.39 1079.54,-756.1 1185,-741 1504.08,-695.32 1651.67,-812.07 1897,-603 1903.66,-597.32 1907.37,-588.42 1909.43,-580.36"/>
<polygon fill="black" stroke="black" points="1912.91,-580.75 1911.34,-570.28 1906.04,-579.45 1912.91,-580.75"/>
<text text-anchor="middle" x="1916.5" y="-660.8" font-family="Times,serif" font-size="14.00">pay(normal, borrower, lender, 550)</text>
</g>
<!-- S8 -->
<g id="node9" class="node">
<title>S8</title>
<ellipse fill="none" stroke="black" cx="622" cy="-216" rx="9" ry="9"/>
</g>
<!-- S8&#45;&gt;S2 -->
<g id="edge45" class="edge">
<title>S8&#45;&gt;S2</title>
<path fill="none" stroke="black" d="M630.47,-212.61C655.26,-205.7 729.92,-185.43 793,-174 862.8,-161.35 946.78,-152.99 983.84,-149.65"/>
<polygon fill="black" stroke="black" points="984.49,-153.1 994.14,-148.74 983.87,-146.13 984.49,-153.1"/>
<text text-anchor="middle" x="842.5" y="-177.8" font-family="Times,serif" font-size="14.00">dont_cure_default</text>
</g>
<!-- S8&#45;&gt;S7 -->
<g id="edge44" class="edge">
<title>S8&#45;&gt;S7</title>
<path fill="none" stroke="black" d="M612.69,-216.83C558.59,-216.06 287,-215.64 287,-284 287,-700 287,-700 287,-700 287,-729.78 312.05,-730.73 340,-741 392.13,-760.16 792.78,-765.75 886.45,-766.8"/>
<polygon fill="black" stroke="black" points="886.7,-770.3 896.74,-766.91 886.78,-763.3 886.7,-770.3"/>
<text text-anchor="middle" x="321" y="-488.3" font-family="Times,serif" font-size="14.00">cure_default</text>
</g>
<!-- S19 -->
<g id="node20" class="node">
<title>S19</title>
<ellipse fill="none" stroke="black" cx="589" cy="-561" rx="9" ry="9"/>
</g>
<!-- S8&#45;&gt;S19 -->
<g id="edge43" class="edge">
<title>S8&#45;&gt;S19</title>
<path fill="none" stroke="black" d="M614.68,-221.8C588.82,-239.28 501.75,-302.63 473,-381 447.61,-450.2 524.24,-457.58 565,-519 570.26,-526.93 575.66,-536.05 580,-543.66"/>
<polygon fill="black" stroke="black" points="577.06,-545.57 584.99,-552.59 583.17,-542.15 577.06,-545.57"/>
<text text-anchor="middle" x="520" y="-384.8" font-family="Times,serif" font-size="14.00">borrower_default</text>
</g>
<!-- S9 -->
<g id="node10" class="node">
<title>S9</title>
<ellipse fill="none" stroke="black" cx="2164" cy="-354" rx="9" ry="9"/>
</g>
<!-- S9&#45;&gt;S0 -->
<g id="edge36" class="edge">
<title>S9&#45;&gt;S0</title>
<path fill="none" stroke="black" d="M2172.89,-355.7C2199.07,-357.94 2275.19,-365.64 2294,-381 2325.1,-406.38 2373.56,-499.47 2344,-534 2299.28,-586.23 1785.46,-621.14 1679.17,-627.83"/>
<polygon fill="black" stroke="black" points="1678.74,-624.35 1668.98,-628.46 1679.18,-631.33 1678.74,-624.35"/>
<text text-anchor="middle" x="2387" y="-488.3" font-family="Times,serif" font-size="14.00">cure_default</text>
</g>
<!-- S9&#45;&gt;S1 -->
<g id="edge39" class="edge">
<title>S9&#45;&gt;S1</title>
<path fill="none" stroke="black" d="M2173.08,-351.64C2186.1,-349.18 2209.83,-342.7 2222,-327 2233.32,-312.39 2229,-304.49 2229,-286 2229,-286 2229,-286 2229,-146 2229,-104.81 2171.34,-87.99 2140.68,-81.96"/>
<polygon fill="black" stroke="black" points="2141.21,-78.5 2130.76,-80.2 2139.99,-85.39 2141.21,-78.5"/>
<text text-anchor="middle" x="2278.5" y="-212.3" font-family="Times,serif" font-size="14.00">dont_cure_default</text>
</g>
<!-- S10 -->
<g id="node11" class="node">
<title>S10</title>
<ellipse fill="none" stroke="black" cx="2156" cy="-423" rx="9" ry="9"/>
</g>
<!-- S9&#45;&gt;S10 -->
<g id="edge38" class="edge">
<title>S9&#45;&gt;S10</title>
<path fill="none" stroke="black" d="M2155.28,-357.08C2134.72,-362.07 2084.6,-374.76 2080,-381 2063.74,-403.06 2109.46,-414.52 2136.93,-419.27"/>
<polygon fill="black" stroke="black" points="2136.61,-422.77 2147.03,-420.86 2137.7,-415.85 2136.61,-422.77"/>
<text text-anchor="middle" x="2140" y="-384.8" font-family="Times,serif" font-size="14.00">dont_notify_borrower</text>
</g>
<!-- S16 -->
<g id="node17" class="node">
<title>S16</title>
<ellipse fill="none" stroke="black" cx="2058" cy="-285" rx="9" ry="9"/>
</g>
<!-- S9&#45;&gt;S16 -->
<g id="edge37" class="edge">
<title>S9&#45;&gt;S16</title>
<path fill="none" stroke="black" d="M2155.44,-350.98C2134.17,-345.91 2080.16,-332.62 2074,-327 2067.48,-321.05 2063.59,-312.12 2061.28,-304.12"/>
<polygon fill="black" stroke="black" points="2064.64,-303.11 2059.01,-294.14 2057.81,-304.66 2064.64,-303.11"/>
<text text-anchor="middle" x="2149.5" y="-315.8" font-family="Times,serif" font-size="14.00">notify_borrower_of_default</text>
</g>
<!-- S10&#45;&gt;S1 -->
<g id="edge54" class="edge">
<title>S10&#45;&gt;S1</title>
<path fill="none" stroke="black" d="M2165.2,-421.57C2193.05,-420.08 2275.63,-414.18 2294,-396 2309.16,-380.99 2336.62,-226.52 2328,-207 2300.79,-145.42 2274.95,-137.53 2216,-105 2191.96,-91.73 2160.65,-84.84 2140.94,-81.57"/>
<polygon fill="black" stroke="black" points="2141.22,-78.07 2130.81,-80.04 2140.18,-85 2141.22,-78.07"/>
<text text-anchor="middle" x="2377.5" y="-246.8" font-family="Times,serif" font-size="14.00">dont_cure_default</text>
</g>
<!-- S10&#45;&gt;S9 -->
<g id="edge52" class="edge">
<title>S10&#45;&gt;S9</title>
<path fill="none" stroke="black" d="M2164.43,-419.42C2174.28,-415.9 2190.09,-408.56 2197,-396 2200.21,-390.16 2199.91,-387 2197,-381 2193.53,-373.86 2187.05,-368.09 2180.74,-363.82"/>
<polygon fill="black" stroke="black" points="2182.38,-360.72 2171.99,-358.64 2178.82,-366.75 2182.38,-360.72"/>
<text text-anchor="middle" x="2246" y="-384.8" font-family="Times,serif" font-size="14.00">borrower_default</text>
</g>
<!-- S10&#45;&gt;S20 -->
<g id="edge53" class="edge">
<title>S10&#45;&gt;S20</title>
<path fill="none" stroke="black" d="M2164.89,-425.73C2178.91,-428.79 2206.57,-436.16 2226,-450 2249.92,-467.03 2243.99,-484.09 2268,-501 2296.53,-521.1 2346.64,-503.47 2318,-534 2291.34,-562.42 2008.97,-561.16 1931.54,-560.27"/>
<polygon fill="black" stroke="black" points="1931.34,-556.77 1921.3,-560.15 1931.25,-563.77 1931.34,-556.77"/>
<text text-anchor="middle" x="2302" y="-488.3" font-family="Times,serif" font-size="14.00">cure_default</text>
</g>
<!-- S11&#45;&gt;S11 -->
<g id="edge32" class="edge">
<title>S11&#45;&gt;S11</title>
<path fill="none" stroke="black" d="M971.82,-15.22C973.77,-15.68 975.58,-15.13 975.44,-12.28"/>
<polygon fill="black" stroke="black" points="978.65,-10.88 971.82,-2.78 972.11,-13.37 978.65,-10.88"/>
<text text-anchor="middle" x="1002.5" y="-5.3" font-family="Times,serif" font-size="14.00">breached</text>
</g>
<!-- S12&#45;&gt;S2 -->
<g id="edge58" class="edge">
<title>S12&#45;&gt;S2</title>
<path fill="none" stroke="black" d="M1162.98,-421.81C1207.1,-420.79 1399.56,-415.25 1417,-396 1421.48,-391.06 1420.36,-386.76 1417,-381 1326.29,-225.86 1090.07,-166.02 1021.76,-151.64"/>
<polygon fill="black" stroke="black" points="1022.14,-148.15 1011.65,-149.59 1020.75,-155.01 1022.14,-148.15"/>
<text text-anchor="middle" x="1390.5" y="-281.3" font-family="Times,serif" font-size="14.00">dont_cure_default</text>
</g>
<!-- S12&#45;&gt;S7 -->
<g id="edge57" class="edge">
<title>S12&#45;&gt;S7</title>
<path fill="none" stroke="black" d="M1158.7,-430.68C1166.44,-442.34 1181,-467.42 1181,-491 1181,-700 1181,-700 1181,-700 1181,-752.74 987.68,-764.14 925.21,-766.45"/>
<polygon fill="black" stroke="black" points="925.03,-762.95 915.15,-766.78 925.26,-769.95 925.03,-762.95"/>
<text text-anchor="middle" x="1215" y="-591.8" font-family="Times,serif" font-size="14.00">cure_default</text>
</g>
<!-- S17 -->
<g id="node18" class="node">
<title>S17</title>
<ellipse fill="none" stroke="black" cx="1114" cy="-354" rx="9" ry="9"/>
</g>
<!-- S12&#45;&gt;S17 -->
<g id="edge56" class="edge">
<title>S12&#45;&gt;S17</title>
<path fill="none" stroke="black" d="M1154.01,-413.87C1153.68,-405.16 1152.12,-391.2 1146,-381 1142.13,-374.56 1136.05,-369.02 1130.23,-364.74"/>
<polygon fill="black" stroke="black" points="1131.92,-361.66 1121.64,-359.08 1128.07,-367.51 1131.92,-361.66"/>
<text text-anchor="middle" x="1283.5" y="-384.8" font-family="Times,serif" font-size="14.00">payment_default(normal, borrower, lender, 550)</text>
</g>
<!-- S12&#45;&gt;S21 -->
<g id="edge55" class="edge">
<title>S12&#45;&gt;S21</title>
<path fill="none" stroke="black" d="M1163.1,-421.81C1208.73,-420.75 1411.27,-415.02 1431,-396 1458.11,-369.87 1420.16,-342.67 1442,-312 1452.37,-297.43 1462.47,-302.87 1478,-294 1516.33,-272.11 1559.37,-243.09 1581.7,-227.68"/>
<polygon fill="black" stroke="black" points="1583.71,-230.55 1589.93,-221.97 1579.72,-224.8 1583.71,-230.55"/>
<text text-anchor="middle" x="1538.5" y="-315.8" font-family="Times,serif" font-size="14.00">pay(normal, borrower, lender, 550)</text>
</g>
<!-- S13 -->
<g id="node14" class="node">
<title>S13</title>
<ellipse fill="none" stroke="black" cx="1957" cy="-492" rx="9" ry="9"/>
</g>
<!-- S13&#45;&gt;S10 -->
<g id="edge49" class="edge">
<title>S13&#45;&gt;S10</title>
<path fill="none" stroke="black" d="M1965.55,-488.12C1995.6,-478 2096.76,-443.94 2138.14,-430.01"/>
<polygon fill="black" stroke="black" points="2139.34,-433.3 2147.7,-426.79 2137.11,-426.67 2139.34,-433.3"/>
<text text-anchor="middle" x="2149.5" y="-453.8" font-family="Times,serif" font-size="14.00">notify_borrower_of_default</text>
</g>
<!-- S13&#45;&gt;S20 -->
<g id="edge51" class="edge">
<title>S13&#45;&gt;S20</title>
<path fill="none" stroke="black" d="M1949.89,-497.57C1943.16,-502.23 1933.18,-510.04 1927,-519 1922.2,-525.96 1918.74,-534.63 1916.36,-542.2"/>
<polygon fill="black" stroke="black" points="1912.97,-541.31 1913.69,-551.89 1919.72,-543.18 1912.97,-541.31"/>
<text text-anchor="middle" x="1987" y="-522.8" font-family="Times,serif" font-size="14.00">dont_notify_borrower</text>
</g>
<!-- S13&#45;&gt;S22 -->
<g id="edge50" class="edge">
<title>S13&#45;&gt;S22</title>
<path fill="none" stroke="black" d="M1948.03,-489.11C1934.45,-485.91 1908.31,-478.44 1890,-465 1883.12,-459.95 1885.11,-454.73 1878,-450 1855.93,-435.31 1825.54,-428.81 1806.07,-426.01"/>
<polygon fill="black" stroke="black" points="1806.38,-422.52 1796.02,-424.76 1805.51,-429.47 1806.38,-422.52"/>
<text text-anchor="middle" x="1937" y="-453.8" font-family="Times,serif" font-size="14.00">borrower_default</text>
</g>
<!-- S14&#45;&gt;S7 -->
<g id="edge48" class="edge">
<title>S14&#45;&gt;S7</title>
<path fill="none" stroke="black" d="M721.27,-293.14C734.6,-315.12 777.23,-383.25 822,-432 830.31,-441.05 836.05,-439.86 843,-450 856.59,-469.83 847.93,-480.83 861,-501 915.7,-585.43 985.34,-564.55 1025,-657 1040.35,-692.8 1028.59,-714.55 1000,-741 979.45,-760.02 946.22,-765.31 925.27,-766.68"/>
<polygon fill="black" stroke="black" points="924.9,-763.19 915.06,-767.1 925.19,-770.19 924.9,-763.19"/>
<text text-anchor="middle" x="947" y="-522.8" font-family="Times,serif" font-size="14.00">dont_notify_borrower</text>
</g>
<!-- S14&#45;&gt;S8 -->
<g id="edge46" class="edge">
<title>S14&#45;&gt;S8</title>
<path fill="none" stroke="black" d="M709.01,-280.76C698.64,-276.36 680.17,-267.92 666,-258 654.46,-249.92 642.87,-238.97 634.48,-230.42"/>
<polygon fill="black" stroke="black" points="636.96,-227.95 627.52,-223.13 631.89,-232.78 636.96,-227.95"/>
<text text-anchor="middle" x="741.5" y="-246.8" font-family="Times,serif" font-size="14.00">notify_borrower_of_default</text>
</g>
<!-- S14&#45;&gt;S23 -->
<g id="edge47" class="edge">
<title>S14&#45;&gt;S23</title>
<path fill="none" stroke="black" d="M716.88,-294.01C716.43,-316.34 714.25,-378.72 704,-396 660.67,-469.05 603.85,-427.52 628,-465 659.46,-513.82 714.44,-470.91 747,-519 765.79,-546.75 761.19,-588.08 756.42,-611.38"/>
<polygon fill="black" stroke="black" points="752.99,-610.7 754.17,-621.23 759.81,-612.26 752.99,-610.7"/>
<text text-anchor="middle" x="675" y="-453.8" font-family="Times,serif" font-size="14.00">borrower_default</text>
</g>
<!-- S15 -->
<g id="node16" class="node">
<title>S15</title>
<ellipse fill="none" stroke="black" cx="872" cy="-492" rx="9" ry="9"/>
</g>
<!-- S15&#45;&gt;S2 -->
<g id="edge31" class="edge">
<title>S15&#45;&gt;S2</title>
<path fill="none" stroke="black" d="M870.6,-482.98C869.01,-474.6 866.09,-461.14 862,-450 858.92,-441.6 855.05,-440.71 853,-432 851.16,-424.21 850.68,-421.66 853,-414 858.11,-397.13 864.69,-395.3 875,-381 880.93,-372.78 884.94,-372.29 889,-363 896.67,-345.46 896,-339.64 896,-320.5 896,-320.5 896,-320.5 896,-215 896,-173.81 953.66,-156.99 984.32,-150.96"/>
<polygon fill="black" stroke="black" points="985.01,-154.39 994.24,-149.2 983.79,-147.5 985.01,-154.39"/>
<text text-anchor="middle" x="945.5" y="-315.8" font-family="Times,serif" font-size="14.00">dont_cure_default</text>
</g>
<!-- S15&#45;&gt;S8 -->
<g id="edge29" class="edge">
<title>S15&#45;&gt;S8</title>
<path fill="none" stroke="black" d="M869.86,-483.11C867.21,-474.35 862.02,-460.11 854,-450 845.72,-439.55 836.47,-443.66 830,-432 815.05,-405.09 826.61,-393.67 824,-363 819.46,-309.67 850.86,-281.8 814,-243 790.71,-218.48 685.6,-216.44 641.53,-216.69"/>
<polygon fill="black" stroke="black" points="641.25,-213.19 631.28,-216.8 641.32,-220.19 641.25,-213.19"/>
<text text-anchor="middle" x="858" y="-350.3" font-family="Times,serif" font-size="14.00">cure_default</text>
</g>
<!-- S15&#45;&gt;S12 -->
<g id="edge30" class="edge">
<title>S15&#45;&gt;S12</title>
<path fill="none" stroke="black" d="M880.75,-488.92C920.06,-479.58 1080.83,-441.38 1135.61,-428.37"/>
<polygon fill="black" stroke="black" points="1136.43,-431.77 1145.35,-426.05 1134.81,-424.96 1136.43,-431.77"/>
<text text-anchor="middle" x="1072" y="-453.8" font-family="Times,serif" font-size="14.00">cure_default</text>
</g>
<!-- S16&#45;&gt;S1 -->
<g id="edge35" class="edge">
<title>S16&#45;&gt;S1</title>
<path fill="none" stroke="black" d="M2066.39,-281.27C2084.56,-274.85 2127.21,-256.88 2144,-225 2147.73,-217.92 2147.06,-214.39 2144,-207 2139.67,-196.55 2130.52,-199.37 2126,-189 2112.87,-158.86 2115.58,-119.56 2118.77,-97.02"/>
<polygon fill="black" stroke="black" points="2122.27,-97.32 2120.4,-86.89 2115.35,-96.21 2122.27,-97.32"/>
<text text-anchor="middle" x="2175.5" y="-177.8" font-family="Times,serif" font-size="14.00">dont_cure_default</text>
</g>
<!-- S16&#45;&gt;S10 -->
<g id="edge34" class="edge">
<title>S16&#45;&gt;S10</title>
<path fill="none" stroke="black" d="M2056.65,-294.06C2053.81,-313.97 2049.4,-366.02 2075,-396 2090.32,-413.94 2118.06,-419.62 2136.76,-421.35"/>
<polygon fill="black" stroke="black" points="2136.6,-424.84 2146.8,-421.98 2137.04,-417.86 2136.6,-424.84"/>
<text text-anchor="middle" x="2092" y="-350.3" font-family="Times,serif" font-size="14.00">cure_default</text>
</g>
<!-- S16&#45;&gt;S21 -->
<g id="edge33" class="edge">
<title>S16&#45;&gt;S21</title>
<path fill="none" stroke="black" d="M2049.2,-282.72C1993.91,-274.69 1694.25,-231.13 1615.8,-219.73"/>
<polygon fill="black" stroke="black" points="1616.29,-216.27 1605.89,-218.29 1615.28,-223.19 1616.29,-216.27"/>
<text text-anchor="middle" x="1902" y="-246.8" font-family="Times,serif" font-size="14.00">cure_default</text>
</g>
<!-- S17&#45;&gt;S2 -->
<g id="edge24" class="edge">
<title>S17&#45;&gt;S2</title>
<path fill="none" stroke="black" d="M1110.05,-345.7C1094.14,-316.32 1034.51,-206.19 1011.83,-164.31"/>
<polygon fill="black" stroke="black" points="1014.86,-162.55 1007.02,-155.42 1008.7,-165.88 1014.86,-162.55"/>
<text text-anchor="middle" x="1111.5" y="-246.8" font-family="Times,serif" font-size="14.00">dont_cure_default</text>
</g>
<!-- S17&#45;&gt;S12 -->
<g id="edge23" class="edge">
<title>S17&#45;&gt;S12</title>
<path fill="none" stroke="black" d="M1107.06,-359.81C1105.16,-360.98 1103.05,-362.14 1101,-363 1070.6,-375.79 1049.3,-355 1029,-381 1024.9,-386.25 1024.79,-390.83 1029,-396 1042.08,-412.08 1102.77,-418.54 1134.52,-420.86"/>
<polygon fill="black" stroke="black" points="1134.56,-424.37 1144.77,-421.53 1135.02,-417.38 1134.56,-424.37"/>
<text text-anchor="middle" x="1089" y="-384.8" font-family="Times,serif" font-size="14.00">dont_notify_borrower</text>
</g>
<!-- S17&#45;&gt;S14 -->
<g id="edge21" class="edge">
<title>S17&#45;&gt;S14</title>
<path fill="none" stroke="black" d="M1107.15,-347.93C1105.25,-346.77 1103.12,-345.68 1101,-345 983.02,-307.45 943.91,-353.64 823,-327 790.35,-319.81 754.48,-304.17 733.96,-294.42"/>
<polygon fill="black" stroke="black" points="735.25,-291.16 724.72,-289.94 732.19,-297.45 735.25,-291.16"/>
<text text-anchor="middle" x="857" y="-315.8" font-family="Times,serif" font-size="14.00">cure_default</text>
</g>
<!-- S17&#45;&gt;S15 -->
<g id="edge22" class="edge">
<title>S17&#45;&gt;S15</title>
<path fill="none" stroke="black" d="M1107.09,-359.88C1105.19,-361.05 1103.07,-362.19 1101,-363 1062.19,-378.16 1049.8,-372.55 1009,-381 941.73,-394.93 901.08,-360.49 858,-414 852.98,-420.23 854.94,-424.61 858,-432 862.33,-442.45 871.67,-439.55 876,-450 879.05,-457.37 878.69,-466.1 877.3,-473.61"/>
<polygon fill="black" stroke="black" points="873.88,-472.88 874.82,-483.43 880.66,-474.59 873.88,-472.88"/>
<text text-anchor="middle" x="933.5" y="-419.3" font-family="Times,serif" font-size="14.00">notify_borrower_of_default</text>
</g>
<!-- S18 -->
<g id="node19" class="node">
<title>S18</title>
<ellipse fill="none" stroke="black" cx="1976" cy="-147" rx="9" ry="9"/>
</g>
<!-- S18&#45;&gt;S1 -->
<g id="edge20" class="edge">
<title>S18&#45;&gt;S1</title>
<path fill="none" stroke="black" d="M1981.07,-139.37C1988.42,-130.23 2002.93,-113.87 2019,-105 2045.82,-90.19 2081.21,-83.65 2102.75,-80.89"/>
<polygon fill="black" stroke="black" points="2103.35,-84.34 2112.89,-79.74 2102.56,-77.39 2103.35,-84.34"/>
<text text-anchor="middle" x="2068.5" y="-108.8" font-family="Times,serif" font-size="14.00">dont_cure_default</text>
</g>
<!-- S18&#45;&gt;S13 -->
<g id="edge17" class="edge">
<title>S18&#45;&gt;S13</title>
<path fill="none" stroke="black" d="M1976.5,-156.23C1979.3,-203.13 1992.52,-435.52 1981,-465 1978.98,-470.16 1975.4,-474.92 1971.62,-478.91"/>
<polygon fill="black" stroke="black" points="1968.98,-476.58 1963.98,-485.92 1973.71,-481.73 1968.98,-476.58"/>
<text text-anchor="middle" x="2018" y="-315.8" font-family="Times,serif" font-size="14.00">cure_default</text>
</g>
<!-- S18&#45;&gt;S16 -->
<g id="edge18" class="edge">
<title>S18&#45;&gt;S16</title>
<path fill="none" stroke="black" d="M1979.33,-155.62C1981.47,-160.74 1984.18,-167.68 1986,-174 1992.39,-196.2 1984.89,-204.75 1996,-225 2007.26,-245.52 2028.13,-263.12 2042.53,-273.63"/>
<polygon fill="black" stroke="black" points="2040.68,-276.61 2050.89,-279.47 2044.69,-270.87 2040.68,-276.61"/>
<text text-anchor="middle" x="2071.5" y="-212.3" font-family="Times,serif" font-size="14.00">notify_borrower_of_default</text>
</g>
<!-- S18&#45;&gt;S21 -->
<g id="edge19" class="edge">
<title>S18&#45;&gt;S21</title>
<path fill="none" stroke="black" d="M1966.79,-148.24C1907.97,-149.83 1586.94,-159.14 1573,-174 1564.88,-182.66 1573.47,-194.53 1582.55,-203.27"/>
<polygon fill="black" stroke="black" points="1580.41,-206.05 1590.24,-209.99 1585.01,-200.78 1580.41,-206.05"/>
<text text-anchor="middle" x="1633" y="-177.8" font-family="Times,serif" font-size="14.00">dont_notify_borrower</text>
</g>
<!-- S19&#45;&gt;S2 -->
<g id="edge16" class="edge">
<title>S19&#45;&gt;S2</title>
<path fill="none" stroke="black" d="M597.86,-558.97C623.06,-555.98 697.26,-546.65 758,-534 814.25,-522.28 830.15,-523.54 883,-501 937.13,-477.91 966.58,-482.96 996,-432 1002.65,-420.49 1003.06,-226.92 1003.03,-166.12"/>
<polygon fill="black" stroke="black" points="1006.53,-166.1 1003.02,-156.11 999.53,-166.11 1006.53,-166.1"/>
<text text-anchor="middle" x="1050.5" y="-350.3" font-family="Times,serif" font-size="14.00">dont_cure_default</text>
</g>
<!-- S19&#45;&gt;S6 -->
<g id="edge13" class="edge">
<title>S19&#45;&gt;S6</title>
<path fill="none" stroke="black" d="M588.47,-570.09C587.61,-591 588.55,-646.98 621,-672 642.09,-688.26 720.81,-694.81 757.7,-697.03"/>
<polygon fill="black" stroke="black" points="757.9,-700.54 768.08,-697.6 758.28,-693.55 757.9,-700.54"/>
<text text-anchor="middle" x="632" y="-626.3" font-family="Times,serif" font-size="14.00">cure_default</text>
</g>
<!-- S19&#45;&gt;S8 -->
<g id="edge15" class="edge">
<title>S19&#45;&gt;S8</title>
<path fill="none" stroke="black" d="M587.79,-551.77C586.03,-539.15 583,-514.25 583,-493 583,-493 583,-493 583,-284 583,-263 597.48,-242.72 608.8,-230.07"/>
<polygon fill="black" stroke="black" points="611.53,-232.27 615.91,-222.62 606.47,-227.44 611.53,-232.27"/>
<text text-anchor="middle" x="643" y="-384.8" font-family="Times,serif" font-size="14.00">dont_notify_borrower</text>
</g>
<!-- S19&#45;&gt;S15 -->
<g id="edge14" class="edge">
<title>S19&#45;&gt;S15</title>
<path fill="none" stroke="black" d="M590.71,-551.82C593.19,-542.22 598.77,-526.66 610,-519 649.5,-492.08 799.34,-491.79 852.86,-492.59"/>
<polygon fill="black" stroke="black" points="852.94,-496.09 863,-492.77 853.07,-489.09 852.94,-496.09"/>
<text text-anchor="middle" x="685.5" y="-522.8" font-family="Times,serif" font-size="14.00">notify_borrower_of_default</text>
</g>
<!-- S20&#45;&gt;S0 -->
<g id="edge40" class="edge">
<title>S20&#45;&gt;S0</title>
<path fill="none" stroke="black" d="M1902.84,-562.5C1883.61,-563.9 1838.2,-569.12 1806,-588 1798.13,-592.61 1799.97,-598.57 1792,-603 1755.72,-623.16 1706.2,-627.86 1679.31,-628.85"/>
<polygon fill="black" stroke="black" points="1678.89,-625.36 1668.97,-629.08 1679.05,-632.36 1678.89,-625.36"/>
<text text-anchor="middle" x="1853" y="-591.8" font-family="Times,serif" font-size="14.00">borrower_default</text>
</g>
<!-- S20&#45;&gt;S5 -->
<g id="edge42" class="edge">
<title>S20&#45;&gt;S5</title>
<path fill="none" stroke="black" d="M1920.98,-560.03C1978.41,-560.11 2292.73,-559.41 2326,-534 2341.3,-522.31 2340,-512.26 2340,-493 2340,-493 2340,-493 2340,-318.5 2340,-299.56 2330.57,-290.28 2343,-276 2368.35,-246.87 2400.91,-285.52 2428,-258 2441.02,-244.77 2436,-235.57 2436,-217 2436,-217 2436,-217 2436,-77 2436,-58.51 2441.47,-49.65 2429,-36 2408.98,-14.09 2372.82,-9.76 2350.47,-9.36"/>
<polygon fill="black" stroke="black" points="2350.17,-5.86 2340.19,-9.44 2350.22,-12.86 2350.17,-5.86"/>
<text text-anchor="middle" x="2439.5" y="-281.3" font-family="Times,serif" font-size="14.00">pay(normal, borrower, lender, 525)</text>
</g>
<!-- S20&#45;&gt;S13 -->
<g id="edge41" class="edge">
<title>S20&#45;&gt;S13</title>
<path fill="none" stroke="black" d="M1921.23,-559.7C1949.15,-558.58 2031.76,-553.64 2048,-534 2068.94,-508.68 2008.92,-498.37 1976.4,-494.73"/>
<polygon fill="black" stroke="black" points="1976.52,-491.23 1966.22,-493.71 1975.82,-498.19 1976.52,-491.23"/>
<text text-anchor="middle" x="2184.5" y="-522.8" font-family="Times,serif" font-size="14.00">payment_default(normal, borrower, lender, 525)</text>
</g>
<!-- S21&#45;&gt;S1 -->
<g id="edge28" class="edge">
<title>S21&#45;&gt;S1</title>
<path fill="none" stroke="black" d="M1589.71,-210.51C1578.03,-202.77 1557.43,-186.53 1568,-174 1603.63,-131.74 2010.07,-89.88 2103.11,-80.8"/>
<polygon fill="black" stroke="black" points="2103.45,-84.29 2113.06,-79.84 2102.77,-77.32 2103.45,-84.29"/>
<text text-anchor="middle" x="1724.5" y="-143.3" font-family="Times,serif" font-size="14.00">dont_cure_default</text>
</g>
<!-- S21&#45;&gt;S5 -->
<g id="edge27" class="edge">
<title>S21&#45;&gt;S5</title>
<path fill="none" stroke="black" d="M1589.01,-211.36C1581,-207.22 1569.16,-199.63 1564,-189 1551.14,-162.49 1555.25,-130.61 1586,-105 1700.67,-9.49 2205.98,-8.83 2311.6,-9.76"/>
<polygon fill="black" stroke="black" points="2311.72,-13.26 2321.75,-9.86 2311.79,-6.26 2311.72,-13.26"/>
<text text-anchor="middle" x="1682.5" y="-108.8" font-family="Times,serif" font-size="14.00">pay(normal, borrower, lender, 525)</text>
</g>
<!-- S21&#45;&gt;S18 -->
<g id="edge26" class="edge">
<title>S21&#45;&gt;S18</title>
<path fill="none" stroke="black" d="M1605.95,-214.32C1623.45,-212.62 1662.87,-206.94 1690,-189 1697.12,-184.29 1694.49,-178.06 1702,-174 1746.15,-150.15 1902.33,-147.93 1956.96,-147.91"/>
<polygon fill="black" stroke="black" points="1956.99,-151.41 1967,-147.93 1957.01,-144.41 1956.99,-151.41"/>
<text text-anchor="middle" x="1834.5" y="-177.8" font-family="Times,serif" font-size="14.00">payment_default(normal, borrower, lender, 525)</text>
</g>
<!-- S21&#45;&gt;S20 -->
<g id="edge25" class="edge">
<title>S21&#45;&gt;S20</title>
<path fill="none" stroke="black" d="M1605.68,-219.39C1616.28,-222.79 1633.93,-230.09 1643,-243 1653.63,-258.12 1650,-265.51 1650,-284 1650,-389.5 1650,-389.5 1650,-389.5 1650,-447.06 1648.44,-461.44 1648,-519 1647.95,-525.67 1643.52,-529.06 1648,-534 1664.38,-552.08 1834.53,-558.04 1892.66,-559.56"/>
<polygon fill="black" stroke="black" points="1892.91,-563.07 1902.99,-559.81 1893.08,-556.07 1892.91,-563.07"/>
<text text-anchor="middle" x="1684" y="-384.8" font-family="Times,serif" font-size="14.00">cure_default</text>
</g>
<!-- S22&#45;&gt;S0 -->
<g id="edge12" class="edge">
<title>S22&#45;&gt;S0</title>
<path fill="none" stroke="black" d="M1777.87,-423.9C1738.98,-424.04 1586.46,-430.36 1526,-519 1491.29,-569.89 1597.72,-609.71 1641.8,-623.64"/>
<polygon fill="black" stroke="black" points="1640.96,-627.04 1651.54,-626.62 1643,-620.35 1640.96,-627.04"/>
<text text-anchor="middle" x="1586" y="-522.8" font-family="Times,serif" font-size="14.00">dont_notify_borrower</text>
</g>
<!-- S22&#45;&gt;S9 -->
<g id="edge9" class="edge">
<title>S22&#45;&gt;S9</title>
<path fill="none" stroke="black" d="M1795.19,-418.91C1816.23,-411.11 1874.02,-390.59 1924,-381 2012.95,-363.93 2037.45,-376.6 2127,-363 2133.02,-362.09 2139.53,-360.79 2145.38,-359.5"/>
<polygon fill="black" stroke="black" points="2146.58,-362.81 2155.53,-357.15 2145,-355.99 2146.58,-362.81"/>
<text text-anchor="middle" x="1999.5" y="-384.8" font-family="Times,serif" font-size="14.00">notify_borrower_of_default</text>
</g>
<!-- S22&#45;&gt;S13 -->
<g id="edge11" class="edge">
<title>S22&#45;&gt;S13</title>
<path fill="none" stroke="black" d="M1779.91,-428.88C1769.08,-436.91 1750.67,-453.21 1761,-465 1783.89,-491.13 1893.08,-492.19 1937.82,-491.49"/>
<polygon fill="black" stroke="black" points="1938.01,-494.99 1947.94,-491.29 1937.87,-487.99 1938.01,-494.99"/>
<text text-anchor="middle" x="1821" y="-453.8" font-family="Times,serif" font-size="14.00">dont_notify_borrower</text>
</g>
<!-- S22&#45;&gt;S18 -->
<g id="edge10" class="edge">
<title>S22&#45;&gt;S18</title>
<path fill="none" stroke="black" d="M1786.67,-413.71C1786.15,-389.07 1788.09,-315.51 1827,-276 1847.14,-255.56 1864,-272.09 1889,-258 1928.46,-235.76 1940.1,-227.47 1964,-189 1968.31,-182.06 1971.14,-173.5 1972.95,-166"/>
<polygon fill="black" stroke="black" points="1976.41,-166.57 1974.95,-156.08 1969.55,-165.19 1976.41,-166.57"/>
<text text-anchor="middle" x="1902.5" y="-281.3" font-family="Times,serif" font-size="14.00">notify_borrower_of_default</text>
</g>
<!-- S23&#45;&gt;S6 -->
<g id="edge3" class="edge">
<title>S23&#45;&gt;S6</title>
<path fill="none" stroke="black" d="M743,-631.42C716.55,-632.87 640.01,-638.6 625,-657 620.79,-662.17 620.7,-666.9 625,-672 641.74,-691.85 720.4,-696.55 757.52,-697.66"/>
<polygon fill="black" stroke="black" points="757.9,-701.17 767.98,-697.91 758.07,-694.17 757.9,-701.17"/>
<text text-anchor="middle" x="685" y="-660.8" font-family="Times,serif" font-size="14.00">dont_notify_borrower</text>
</g>
<!-- S23&#45;&gt;S14 -->
<g id="edge4" class="edge">
<title>S23&#45;&gt;S14</title>
<path fill="none" stroke="black" d="M754.12,-621.08C758.67,-602.74 768.16,-556.08 758,-519 750.63,-492.09 734.05,-491.71 726,-465 717.07,-435.37 716.59,-343.73 716.81,-304.32"/>
<polygon fill="black" stroke="black" points="720.31,-304.12 716.89,-294.09 713.31,-304.06 720.31,-304.12"/>
<text text-anchor="middle" x="786" y="-453.8" font-family="Times,serif" font-size="14.00">dont_notify_borrower</text>
</g>
<!-- S23&#45;&gt;S17 -->
<g id="edge1" class="edge">
<title>S23&#45;&gt;S17</title>
<path fill="none" stroke="black" d="M760.84,-627.94C794.35,-623.44 914.75,-602.91 977,-534 979.98,-530.7 1020.75,-384.03 1024,-381 1047.48,-359.07 1065.22,-373.37 1097.55,-363.35"/>
<polygon fill="black" stroke="black" points="1098.9,-366.58 1107.07,-359.83 1096.47,-360.02 1098.9,-366.58"/>
<text text-anchor="middle" x="1067.5" y="-488.3" font-family="Times,serif" font-size="14.00">notify_borrower_of_default</text>
</g>
<!-- S23&#45;&gt;S19 -->
<g id="edge2" class="edge">
<title>S23&#45;&gt;S19</title>
<path fill="none" stroke="black" d="M742.7,-628.72C712.84,-627.62 620.1,-622.65 599,-603 592.81,-597.23 590.17,-588.32 589.13,-580.28"/>
<polygon fill="black" stroke="black" points="592.62,-580.01 588.54,-570.23 585.64,-580.42 592.62,-580.01"/>
<text text-anchor="middle" x="674.5" y="-591.8" font-family="Times,serif" font-size="14.00">notify_borrower_of_default</text>
</g>
</g>
</svg>
