<?xml version="1.0" encoding="UTF-8" standalone="no"?>
<!DOCTYPE svg PUBLIC "-//W3C//DTD SVG 1.1//EN"
 "http://www.w3.org/Graphics/SVG/1.1/DTD/svg11.dtd">
<!-- Generated by graphviz version 5.0.1 (0)
 -->
<!-- Title: G Pages: 1 -->
<svg width="2916pt" height="1138pt"
 viewBox="0.00 0.00 2916.33 1138.00" xmlns="http://www.w3.org/2000/svg" xmlns:xlink="http://www.w3.org/1999/xlink">
<g id="graph0" class="graph" transform="scale(1 1) rotate(0) translate(4 1134)">
<title>G</title>
<polygon fill="white" stroke="none" points="-4,4 -4,-1134 2912.33,-1134 2912.33,4 -4,4"/>
<!-- S2 -->
<g id="node1" class="node">
<title>S2</title>
<ellipse fill="none" stroke="black" cx="2683.33" cy="-1117" rx="9" ry="9"/>
<ellipse fill="none" stroke="black" cx="2683.33" cy="-1117" rx="13" ry="13"/>
</g>
<!-- S3 -->
<g id="node4" class="node">
<title>S3</title>
<ellipse fill="none" stroke="black" cx="2486.33" cy="-1044" rx="9" ry="9"/>
</g>
<!-- S2&#45;&gt;S3 -->
<g id="edge73" class="edge">
<title>S2&#45;&gt;S3</title>
<path fill="none" stroke="black" d="M2671.3,-1111.67C2637.86,-1099.61 2543.61,-1065.65 2504.11,-1051.41"/>
<polygon fill="black" stroke="black" points="2505.11,-1048.05 2494.51,-1047.95 2502.73,-1054.63 2505.11,-1048.05"/>
<text text-anchor="middle" x="2643.33" y="-1074.8" font-family="Times,serif" font-size="14.00">request_principal</text>
</g>
<!-- S6 -->
<g id="node7" class="node">
<title>S6</title>
<ellipse fill="none" stroke="black" cx="1662.33" cy="-78" rx="9" ry="9"/>
</g>
<!-- S2&#45;&gt;S6 -->
<g id="edge74" class="edge">
<title>S2&#45;&gt;S6</title>
<path fill="none" stroke="black" d="M2695.99,-1113.31C2722.9,-1106.77 2783.33,-1087.37 2783.33,-1045 2783.33,-1045 2783.33,-1045 2783.33,-146 2783.33,-138.81 1829.79,-87.89 1681.59,-80.02"/>
<polygon fill="black" stroke="black" points="1681.52,-76.51 1671.35,-79.48 1681.15,-83.5 1681.52,-76.51"/>
<text text-anchor="middle" x="2845.83" y="-591.8" font-family="Times,serif" font-size="14.00">dont_request_principal</text>
</g>
<!-- S0 -->
<g id="node2" class="node">
<title>S0</title>
<ellipse fill="none" stroke="black" cx="1918.33" cy="-147" rx="9" ry="9"/>
</g>
<!-- S1 -->
<g id="node3" class="node">
<title>S1</title>
<ellipse fill="none" stroke="black" cx="1763.33" cy="-9" rx="9" ry="9"/>
</g>
<!-- S0&#45;&gt;S1 -->
<g id="edge13" class="edge">
<title>S0&#45;&gt;S1</title>
<path fill="none" stroke="black" d="M1912.06,-140.5C1889.28,-120.51 1810.52,-51.4 1777.78,-22.68"/>
<polygon fill="black" stroke="black" points="1779.67,-19.68 1769.85,-15.72 1775.06,-24.95 1779.67,-19.68"/>
<text text-anchor="middle" x="1872.83" y="-74.3" font-family="Times,serif" font-size="14.00">breached</text>
</g>
<!-- S3&#45;&gt;S0 -->
<g id="edge72" class="edge">
<title>S3&#45;&gt;S0</title>
<path fill="none" stroke="black" d="M2486.33,-1034.75C2486.33,-1022.1 2486.33,-997.17 2486.33,-976 2486.33,-976 2486.33,-976 2486.33,-215 2486.33,-158.53 2037.79,-149.51 1937.89,-148.21"/>
<polygon fill="black" stroke="black" points="1937.75,-144.7 1927.71,-148.09 1937.67,-151.7 1937.75,-144.7"/>
<text text-anchor="middle" x="2630.33" y="-591.8" font-family="Times,serif" font-size="14.00">payment_default(Principal, Lender, Borrower, 1000)</text>
</g>
<!-- S8 -->
<g id="node9" class="node">
<title>S8</title>
<ellipse fill="none" stroke="black" cx="2012.33" cy="-975" rx="9" ry="9"/>
</g>
<!-- S3&#45;&gt;S8 -->
<g id="edge71" class="edge">
<title>S3&#45;&gt;S8</title>
<path fill="none" stroke="black" d="M2477.51,-1042.09C2447.73,-1039 2348.22,-1028.44 2266.33,-1017 2177.99,-1004.66 2072.92,-986.62 2030.97,-979.29"/>
<polygon fill="black" stroke="black" points="2031.54,-975.83 2021.08,-977.55 2030.33,-982.73 2031.54,-975.83"/>
<text text-anchor="middle" x="2374.33" y="-1005.8" font-family="Times,serif" font-size="14.00">pay(Principal, Lender, Borrower, 1000)</text>
</g>
<!-- S4 -->
<g id="node5" class="node">
<title>S4</title>
<ellipse fill="none" stroke="black" cx="1430.33" cy="-216" rx="9" ry="9"/>
</g>
<!-- S4&#45;&gt;S0 -->
<g id="edge70" class="edge">
<title>S4&#45;&gt;S0</title>
<path fill="none" stroke="black" d="M1439.22,-213.78C1496.71,-205.89 1816.34,-162 1898.88,-150.67"/>
<polygon fill="black" stroke="black" points="1899.84,-154.07 1909.27,-149.24 1898.89,-147.14 1899.84,-154.07"/>
<text text-anchor="middle" x="1865.83" y="-177.8" font-family="Times,serif" font-size="14.00">payment_default(Accelerated, Borrower, Lender, 525)</text>
</g>
<!-- S4&#45;&gt;S6 -->
<g id="edge69" class="edge">
<title>S4&#45;&gt;S6</title>
<path fill="none" stroke="black" d="M1427.9,-207.19C1423.71,-192 1417.03,-158.2 1433.33,-138 1459.99,-104.95 1593.12,-86.78 1643.22,-81.03"/>
<polygon fill="black" stroke="black" points="1643.77,-84.49 1653.33,-79.91 1643,-77.53 1643.77,-84.49"/>
<text text-anchor="middle" x="1545.83" y="-143.3" font-family="Times,serif" font-size="14.00">pay(Accelerated, Borrower, Lender, 525)</text>
</g>
<!-- S5 -->
<g id="node6" class="node">
<title>S5</title>
<ellipse fill="none" stroke="black" cx="1764.33" cy="-354" rx="9" ry="9"/>
</g>
<!-- S5&#45;&gt;S0 -->
<g id="edge68" class="edge">
<title>S5&#45;&gt;S0</title>
<path fill="none" stroke="black" d="M1773.19,-351.9C1811.58,-346.62 1964.31,-320.01 2023.33,-225 2046.68,-187.41 1972.93,-162.29 1936.92,-152.54"/>
<polygon fill="black" stroke="black" points="1937.66,-149.12 1927.11,-150.01 1935.92,-155.9 1937.66,-149.12"/>
<text text-anchor="middle" x="2161.33" y="-246.8" font-family="Times,serif" font-size="14.00">payment_default(Accelerated, Borrower, Lender, 1075)</text>
</g>
<!-- S5&#45;&gt;S6 -->
<g id="edge67" class="edge">
<title>S5&#45;&gt;S6</title>
<path fill="none" stroke="black" d="M1769.03,-346.32C1776.77,-334.66 1791.33,-309.58 1791.33,-286 1791.33,-286 1791.33,-286 1791.33,-146 1791.33,-97.27 1717.93,-83.93 1681.86,-80.32"/>
<polygon fill="black" stroke="black" points="1681.86,-76.81 1671.61,-79.46 1681.28,-83.78 1681.86,-76.81"/>
<text text-anchor="middle" x="1907.33" y="-212.3" font-family="Times,serif" font-size="14.00">pay(Accelerated, Borrower, Lender, 1075)</text>
</g>
<!-- S6&#45;&gt;S1 -->
<g id="edge66" class="edge">
<title>S6&#45;&gt;S1</title>
<path fill="none" stroke="black" d="M1669.59,-72.18C1685.83,-61.41 1725.36,-35.19 1747.55,-20.47"/>
<polygon fill="black" stroke="black" points="1749.73,-23.22 1756.13,-14.77 1745.86,-17.39 1749.73,-23.22"/>
<text text-anchor="middle" x="1743.33" y="-39.8" font-family="Times,serif" font-size="14.00">fulfilled</text>
</g>
<!-- S7 -->
<g id="node8" class="node">
<title>S7</title>
<ellipse fill="none" stroke="black" cx="1638.33" cy="-906" rx="9" ry="9"/>
</g>
<!-- S7&#45;&gt;S8 -->
<g id="edge62" class="edge">
<title>S7&#45;&gt;S8</title>
<path fill="none" stroke="black" d="M1646.68,-909.76C1669.25,-917.13 1733.46,-937.38 1788.33,-948 1863.22,-962.5 1953.87,-969.99 1992.91,-972.74"/>
<polygon fill="black" stroke="black" points="1993.08,-976.26 2003.29,-973.44 1993.55,-969.27 1993.08,-976.26"/>
<text text-anchor="middle" x="1848.33" y="-936.8" font-family="Times,serif" font-size="14.00">dont_notify_borrower</text>
</g>
<!-- S13 -->
<g id="node14" class="node">
<title>S13</title>
<ellipse fill="none" stroke="black" cx="1211.33" cy="-630" rx="9" ry="9"/>
</g>
<!-- S7&#45;&gt;S13 -->
<g id="edge61" class="edge">
<title>S7&#45;&gt;S13</title>
<path fill="none" stroke="black" d="M1629.07,-905.23C1574.05,-906.36 1292.33,-908.67 1292.33,-838 1292.33,-838 1292.33,-838 1292.33,-698 1292.33,-665.56 1253.27,-645.86 1229.4,-636.86"/>
<polygon fill="black" stroke="black" points="1230.29,-633.46 1219.69,-633.46 1227.98,-640.07 1230.29,-633.46"/>
<text text-anchor="middle" x="1367.83" y="-764.3" font-family="Times,serif" font-size="14.00">notify_borrower_of_default</text>
</g>
<!-- S18 -->
<g id="node19" class="node">
<title>S18</title>
<ellipse fill="none" stroke="black" cx="787.33" cy="-216" rx="9" ry="9"/>
</g>
<!-- S7&#45;&gt;S18 -->
<g id="edge60" class="edge">
<title>S7&#45;&gt;S18</title>
<path fill="none" stroke="black" d="M1629.28,-904.93C1582.8,-904.47 1370.61,-901.17 1309.33,-879 1085.65,-798.07 1041.37,-737.36 872.33,-570 865.32,-563.06 867.86,-556.96 859.33,-552 795.17,-514.7 751.27,-580.37 693.33,-534 678.29,-521.97 679.33,-512.26 679.33,-493 679.33,-493 679.33,-493 679.33,-284 679.33,-242.54 737.53,-225.84 768.48,-219.9"/>
<polygon fill="black" stroke="black" points="769.23,-223.32 778.49,-218.17 768.04,-216.42 769.23,-223.32"/>
<text text-anchor="middle" x="973.33" y="-557.3" font-family="Times,serif" font-size="14.00">pay(Normal, Borrower, Lender, 550)</text>
</g>
<!-- S24 -->
<g id="node25" class="node">
<title>S24</title>
<ellipse fill="none" stroke="black" cx="1767.33" cy="-837" rx="9" ry="9"/>
</g>
<!-- S7&#45;&gt;S24 -->
<g id="edge59" class="edge">
<title>S7&#45;&gt;S24</title>
<path fill="none" stroke="black" d="M1647.48,-904.31C1672.91,-902.21 1743.6,-895.03 1759.33,-879 1765.13,-873.09 1767.35,-864.29 1768.02,-856.36"/>
<polygon fill="black" stroke="black" points="1771.53,-856.17 1768.17,-846.12 1764.53,-856.07 1771.53,-856.17"/>
<text text-anchor="middle" x="1903.33" y="-867.8" font-family="Times,serif" font-size="14.00">payment_default(Normal, Borrower, Lender, 550)</text>
</g>
<!-- S8&#45;&gt;S7 -->
<g id="edge63" class="edge">
<title>S8&#45;&gt;S7</title>
<path fill="none" stroke="black" d="M2004.51,-970.16C1987.14,-961.82 1943.86,-942.08 1905.33,-933 1814.61,-911.62 1702.57,-907.78 1657.97,-907.12"/>
<polygon fill="black" stroke="black" points="1657.74,-903.62 1647.7,-907.01 1657.66,-910.62 1657.74,-903.62"/>
<text text-anchor="middle" x="1996.33" y="-936.8" font-family="Times,serif" font-size="14.00">borrower_default</text>
</g>
<!-- S9 -->
<g id="node10" class="node">
<title>S9</title>
<ellipse fill="none" stroke="black" cx="2047.33" cy="-492" rx="9" ry="9"/>
</g>
<!-- S8&#45;&gt;S9 -->
<g id="edge64" class="edge">
<title>S8&#45;&gt;S9</title>
<path fill="none" stroke="black" d="M2021.32,-972.36C2033.71,-969.61 2055.79,-962.84 2067.33,-948 2078.73,-933.34 2075.33,-925.57 2075.33,-907 2075.33,-907 2075.33,-907 2075.33,-767 2075.33,-748.58 2068.87,-739.56 2081.33,-726 2105.11,-700.12 2129.08,-727.48 2158.33,-708 2179.51,-693.9 2193,-680.92 2184.33,-657 2159.57,-588.73 2092.57,-528.98 2062.41,-504.63"/>
<polygon fill="black" stroke="black" points="2064.33,-501.69 2054.32,-498.24 2060,-507.19 2064.33,-501.69"/>
<text text-anchor="middle" x="2218.33" y="-729.8" font-family="Times,serif" font-size="14.00">payment_default(Normal, Borrower, Lender, 550)</text>
</g>
<!-- S21 -->
<g id="node22" class="node">
<title>S21</title>
<ellipse fill="none" stroke="black" cx="674.33" cy="-147" rx="9" ry="9"/>
</g>
<!-- S8&#45;&gt;S21 -->
<g id="edge65" class="edge">
<title>S8&#45;&gt;S21</title>
<path fill="none" stroke="black" d="M2003.32,-974.05C1885.75,-974.61 657.33,-978.76 657.33,-907 657.33,-907 657.33,-907 657.33,-215 657.33,-197.75 662.69,-178.75 667.39,-165.4"/>
<polygon fill="black" stroke="black" points="670.8,-166.27 671.05,-155.68 664.25,-163.8 670.8,-166.27"/>
<text text-anchor="middle" x="758.33" y="-557.3" font-family="Times,serif" font-size="14.00">pay(Normal, Borrower, Lender, 550)</text>
</g>
<!-- S9&#45;&gt;S8 -->
<g id="edge45" class="edge">
<title>S9&#45;&gt;S8</title>
<path fill="none" stroke="black" d="M2056.45,-493.72C2084.92,-496.11 2171.66,-504.45 2195.33,-519 2307.71,-588.05 2358.33,-635.1 2358.33,-767 2358.33,-907 2358.33,-907 2358.33,-907 2358.33,-974.08 2104.49,-975.4 2031.65,-974.4"/>
<polygon fill="black" stroke="black" points="2031.64,-970.9 2021.58,-974.23 2031.52,-977.9 2031.64,-970.9"/>
<text text-anchor="middle" x="2417.33" y="-729.8" font-family="Times,serif" font-size="14.00">dont_notify_borrower</text>
</g>
<!-- S16 -->
<g id="node17" class="node">
<title>S16</title>
<ellipse fill="none" stroke="black" cx="1764.33" cy="-423" rx="9" ry="9"/>
</g>
<!-- S9&#45;&gt;S16 -->
<g id="edge44" class="edge">
<title>S9&#45;&gt;S16</title>
<path fill="none" stroke="black" d="M2038.55,-488.92C1999.1,-479.58 1837.76,-441.38 1782.78,-428.37"/>
<polygon fill="black" stroke="black" points="1783.54,-424.95 1773.01,-426.05 1781.93,-431.76 1783.54,-424.95"/>
<text text-anchor="middle" x="2005.83" y="-453.8" font-family="Times,serif" font-size="14.00">notify_borrower_of_default</text>
</g>
<!-- S9&#45;&gt;S24 -->
<g id="edge43" class="edge">
<title>S9&#45;&gt;S24</title>
<path fill="none" stroke="black" d="M2047.46,-501.11C2047.37,-515.67 2045.73,-546.9 2034.33,-570 2010.95,-617.37 1976.11,-609.33 1953.33,-657 1923.29,-719.85 1971.89,-764.29 1919.33,-810 1899.82,-826.96 1823.26,-833.13 1786.81,-835.13"/>
<polygon fill="black" stroke="black" points="1786.33,-831.65 1776.51,-835.65 1786.68,-838.65 1786.33,-831.65"/>
<text text-anchor="middle" x="2000.33" y="-660.8" font-family="Times,serif" font-size="14.00">borrower_default</text>
</g>
<!-- S10 -->
<g id="node11" class="node">
<title>S10</title>
<ellipse fill="none" stroke="black" cx="1195.33" cy="-285" rx="9" ry="9"/>
</g>
<!-- S10&#45;&gt;S4 -->
<g id="edge39" class="edge">
<title>S10&#45;&gt;S4</title>
<path fill="none" stroke="black" d="M1197.56,-276.17C1200.72,-266.62 1207.48,-250.8 1219.33,-243 1250.6,-222.43 1364.75,-218.13 1410.84,-217.24"/>
<polygon fill="black" stroke="black" points="1411.05,-220.73 1421,-217.07 1410.94,-213.73 1411.05,-220.73"/>
<text text-anchor="middle" x="1268.83" y="-246.8" font-family="Times,serif" font-size="14.00">dont_cure_default</text>
</g>
<!-- S11 -->
<g id="node12" class="node">
<title>S11</title>
<ellipse fill="none" stroke="black" cx="1096.33" cy="-354" rx="9" ry="9"/>
</g>
<!-- S10&#45;&gt;S11 -->
<g id="edge38" class="edge">
<title>S10&#45;&gt;S11</title>
<path fill="none" stroke="black" d="M1195.84,-294.04C1195.96,-303.2 1194.7,-318.07 1186.33,-327 1168.03,-346.53 1136.08,-351.69 1115.58,-352.89"/>
<polygon fill="black" stroke="black" points="1115.41,-349.4 1105.53,-353.22 1115.64,-356.39 1115.41,-349.4"/>
<text text-anchor="middle" x="1253.33" y="-315.8" font-family="Times,serif" font-size="14.00">dont_notify_borrower</text>
</g>
<!-- S14 -->
<g id="node15" class="node">
<title>S14</title>
<ellipse fill="none" stroke="black" cx="1187.33" cy="-423" rx="9" ry="9"/>
</g>
<!-- S10&#45;&gt;S14 -->
<g id="edge37" class="edge">
<title>S10&#45;&gt;S14</title>
<path fill="none" stroke="black" d="M1204.49,-286.57C1229.92,-288.35 1300.47,-294.79 1314.33,-312 1350.09,-356.42 1228.48,-302.61 1190.33,-345 1182.81,-353.35 1183.87,-383.89 1185.48,-403.91"/>
<polygon fill="black" stroke="black" points="1182.01,-404.35 1186.41,-413.99 1188.98,-403.71 1182.01,-404.35"/>
<text text-anchor="middle" x="1265.83" y="-350.3" font-family="Times,serif" font-size="14.00">notify_borrower_of_default</text>
</g>
<!-- S10&#45;&gt;S18 -->
<g id="edge36" class="edge">
<title>S10&#45;&gt;S18</title>
<path fill="none" stroke="black" d="M1186.1,-283.71C1151.35,-282.46 1028.74,-276.81 995.33,-258 987.89,-253.81 990.76,-247.2 983.33,-243 953.28,-226.04 849.56,-219.68 806.4,-217.74"/>
<polygon fill="black" stroke="black" points="806.52,-214.24 796.38,-217.31 806.22,-221.23 806.52,-214.24"/>
<text text-anchor="middle" x="1029.33" y="-246.8" font-family="Times,serif" font-size="14.00">cure_default</text>
</g>
<!-- S11&#45;&gt;S4 -->
<g id="edge54" class="edge">
<title>S11&#45;&gt;S4</title>
<path fill="none" stroke="black" d="M1105.33,-352.22C1145.45,-348.7 1306.44,-334.18 1314.33,-327 1331.48,-311.39 1311.56,-294.66 1325.33,-276 1347.07,-246.53 1388.22,-229.76 1412.04,-222.12"/>
<polygon fill="black" stroke="black" points="1413.06,-225.46 1421.63,-219.23 1411.05,-218.76 1413.06,-225.46"/>
<text text-anchor="middle" x="1374.83" y="-281.3" font-family="Times,serif" font-size="14.00">dont_cure_default</text>
</g>
<!-- S11&#45;&gt;S10 -->
<g id="edge52" class="edge">
<title>S11&#45;&gt;S10</title>
<path fill="none" stroke="black" d="M1092.62,-345.79C1088.6,-336.89 1083.74,-321.72 1091.33,-312 1101.65,-298.78 1149,-291.29 1176.11,-288.01"/>
<polygon fill="black" stroke="black" points="1176.78,-291.46 1186.33,-286.86 1176,-284.5 1176.78,-291.46"/>
<text text-anchor="middle" x="1138.33" y="-315.8" font-family="Times,serif" font-size="14.00">borrower_default</text>
</g>
<!-- S11&#45;&gt;S21 -->
<g id="edge53" class="edge">
<title>S11&#45;&gt;S21</title>
<path fill="none" stroke="black" d="M1090.17,-347.19C1085.36,-342.28 1078.89,-334.81 1075.33,-327 1059.59,-292.5 1083.92,-272.69 1060.33,-243 1048.22,-227.76 918.14,-179 899.33,-174 824.97,-154.22 732.82,-149.49 693.53,-148.36"/>
<polygon fill="black" stroke="black" points="693.59,-144.86 683.51,-148.11 693.42,-151.85 693.59,-144.86"/>
<text text-anchor="middle" x="1102.33" y="-246.8" font-family="Times,serif" font-size="14.00">cure_default</text>
</g>
<!-- S12 -->
<g id="node13" class="node">
<title>S12</title>
<ellipse fill="none" stroke="black" cx="1622.33" cy="-561" rx="9" ry="9"/>
</g>
<!-- S12&#45;&gt;S5 -->
<g id="edge25" class="edge">
<title>S12&#45;&gt;S5</title>
<path fill="none" stroke="black" d="M1620.38,-552.19C1616.12,-533.27 1607.76,-484.06 1626.33,-450 1652.61,-401.8 1715.15,-373.03 1746.2,-361.25"/>
<polygon fill="black" stroke="black" points="1747.55,-364.48 1755.76,-357.78 1745.17,-357.9 1747.55,-364.48"/>
<text text-anchor="middle" x="1675.83" y="-453.8" font-family="Times,serif" font-size="14.00">dont_cure_default</text>
</g>
<!-- S12&#45;&gt;S9 -->
<g id="edge22" class="edge">
<title>S12&#45;&gt;S9</title>
<path fill="none" stroke="black" d="M1631.46,-559.15C1661.38,-556.33 1759.13,-546.69 1839.33,-534 1909.53,-522.89 1992.17,-505.21 2028.54,-497.2"/>
<polygon fill="black" stroke="black" points="2029.65,-500.54 2038.65,-494.95 2028.13,-493.7 2029.65,-500.54"/>
<text text-anchor="middle" x="1953.33" y="-522.8" font-family="Times,serif" font-size="14.00">cure_default</text>
</g>
<!-- S12&#45;&gt;S13 -->
<g id="edge24" class="edge">
<title>S12&#45;&gt;S13</title>
<path fill="none" stroke="black" d="M1613.16,-561.88C1591.5,-561.99 1536.18,-564.72 1498.33,-588 1491.06,-592.47 1493.84,-598.94 1486.33,-603 1442.01,-626.93 1285.27,-629.1 1230.44,-629.1"/>
<polygon fill="black" stroke="black" points="1230.37,-625.6 1220.36,-629.08 1230.35,-632.6 1230.37,-625.6"/>
<text text-anchor="middle" x="1558.33" y="-591.8" font-family="Times,serif" font-size="14.00">dont_notify_borrower</text>
</g>
<!-- S17 -->
<g id="node18" class="node">
<title>S17</title>
<ellipse fill="none" stroke="black" cx="1796.33" cy="-699" rx="9" ry="9"/>
</g>
<!-- S12&#45;&gt;S17 -->
<g id="edge23" class="edge">
<title>S12&#45;&gt;S17</title>
<path fill="none" stroke="black" d="M1624.01,-569.97C1627.86,-587.52 1637.71,-628.75 1647.33,-639 1652.07,-644.05 1739.76,-677.01 1778.35,-691.35"/>
<polygon fill="black" stroke="black" points="1777.62,-694.81 1788.22,-695.01 1780.06,-688.25 1777.62,-694.81"/>
<text text-anchor="middle" x="1722.83" y="-626.3" font-family="Times,serif" font-size="14.00">notify_borrower_of_default</text>
</g>
<!-- S13&#45;&gt;S5 -->
<g id="edge58" class="edge">
<title>S13&#45;&gt;S5</title>
<path fill="none" stroke="black" d="M1207.52,-621.72C1203.41,-612.73 1198.45,-597.49 1206.33,-588 1290.12,-487.17 1396.72,-619.24 1496.33,-534 1514.59,-518.37 1499.3,-501.76 1514.33,-483 1567.76,-416.31 1599.46,-416.22 1677.33,-381 1700.05,-370.72 1727.9,-363.22 1745.88,-358.99"/>
<polygon fill="black" stroke="black" points="1746.67,-362.4 1755.66,-356.78 1745.13,-355.57 1746.67,-362.4"/>
<text text-anchor="middle" x="1563.83" y="-488.3" font-family="Times,serif" font-size="14.00">dont_cure_default</text>
</g>
<!-- S13&#45;&gt;S8 -->
<g id="edge57" class="edge">
<title>S13&#45;&gt;S8</title>
<path fill="none" stroke="black" d="M1202.07,-630.84C1148.29,-630.14 878.33,-630.04 878.33,-698 878.33,-907 878.33,-907 878.33,-907 878.33,-965.21 1842.93,-973.04 1992.85,-973.9"/>
<polygon fill="black" stroke="black" points="1993.18,-977.41 2003.2,-973.96 1993.22,-970.41 1993.18,-977.41"/>
<text text-anchor="middle" x="912.33" y="-798.8" font-family="Times,serif" font-size="14.00">cure_default</text>
</g>
<!-- S13&#45;&gt;S12 -->
<g id="edge56" class="edge">
<title>S13&#45;&gt;S12</title>
<path fill="none" stroke="black" d="M1208.52,-621.21C1205.76,-612.01 1203.05,-596.82 1211.33,-588 1224.91,-573.53 1524.22,-564.6 1603.31,-562.49"/>
<polygon fill="black" stroke="black" points="1603.41,-565.98 1613.32,-562.22 1603.23,-558.99 1603.41,-565.98"/>
<text text-anchor="middle" x="1348.33" y="-591.8" font-family="Times,serif" font-size="14.00">payment_default(Normal, Borrower, Lender, 550)</text>
</g>
<!-- S22 -->
<g id="node23" class="node">
<title>S22</title>
<ellipse fill="none" stroke="black" cx="1085.33" cy="-561" rx="9" ry="9"/>
</g>
<!-- S13&#45;&gt;S22 -->
<g id="edge55" class="edge">
<title>S13&#45;&gt;S22</title>
<path fill="none" stroke="black" d="M1202.36,-628.62C1163.08,-626.86 1007.47,-618.93 993.33,-603 988.9,-598.01 989.19,-593.22 993.33,-588 1013.38,-562.72 1033.78,-579.11 1068.28,-569.67"/>
<polygon fill="black" stroke="black" points="1069.5,-572.95 1077.88,-566.47 1067.28,-566.31 1069.5,-572.95"/>
<text text-anchor="middle" x="1094.33" y="-591.8" font-family="Times,serif" font-size="14.00">pay(Normal, Borrower, Lender, 550)</text>
</g>
<!-- S14&#45;&gt;S4 -->
<g id="edge35" class="edge">
<title>S14&#45;&gt;S4</title>
<path fill="none" stroke="black" d="M1196.49,-421.33C1222.95,-418.87 1300.01,-408 1338.33,-363 1353.36,-345.35 1333.2,-328.66 1349.33,-312 1372.27,-288.3 1399.55,-318.77 1421.33,-294 1435.47,-277.91 1435.51,-252.07 1433.51,-234.82"/>
<polygon fill="black" stroke="black" points="1436.97,-234.29 1432.03,-224.91 1430.05,-235.32 1436.97,-234.29"/>
<text text-anchor="middle" x="1398.83" y="-315.8" font-family="Times,serif" font-size="14.00">dont_cure_default</text>
</g>
<!-- S14&#45;&gt;S11 -->
<g id="edge34" class="edge">
<title>S14&#45;&gt;S11</title>
<path fill="none" stroke="black" d="M1178.21,-420.98C1163.3,-418.86 1133.56,-412.7 1115.33,-396 1108.57,-389.81 1104.03,-380.73 1101.08,-372.69"/>
<polygon fill="black" stroke="black" points="1104.39,-371.55 1098.08,-363.05 1097.71,-373.64 1104.39,-371.55"/>
<text text-anchor="middle" x="1149.33" y="-384.8" font-family="Times,serif" font-size="14.00">cure_default</text>
</g>
<!-- S14&#45;&gt;S22 -->
<g id="edge33" class="edge">
<title>S14&#45;&gt;S22</title>
<path fill="none" stroke="black" d="M1196.08,-425.74C1237.91,-434.38 1413.23,-474.74 1359.33,-534 1342.22,-552.81 1164.21,-558.31 1104.63,-559.64"/>
<polygon fill="black" stroke="black" points="1104.3,-556.14 1094.38,-559.85 1104.45,-563.14 1104.3,-556.14"/>
<text text-anchor="middle" x="1400.33" y="-488.3" font-family="Times,serif" font-size="14.00">cure_default</text>
</g>
<!-- S15 -->
<g id="node16" class="node">
<title>S15</title>
<ellipse fill="none" stroke="black" cx="1767.33" cy="-768" rx="9" ry="9"/>
</g>
<!-- S15&#45;&gt;S5 -->
<g id="edge17" class="edge">
<title>S15&#45;&gt;S5</title>
<path fill="none" stroke="black" d="M1776.55,-766.87C1807.05,-766.25 1903.92,-762.58 1924.33,-741 1945.52,-718.59 1937.66,-633.8 1939.33,-603 1939.69,-596.34 1940.23,-594.61 1939.33,-588 1938.21,-579.77 1935.45,-578.23 1934.33,-570 1931.78,-551.28 1935.33,-546.39 1935.33,-527.5 1935.33,-527.5 1935.33,-527.5 1935.33,-422 1935.33,-389.59 1827.48,-366.4 1783.08,-358.23"/>
<polygon fill="black" stroke="black" points="1783.5,-354.75 1773.04,-356.44 1782.27,-361.64 1783.5,-354.75"/>
<text text-anchor="middle" x="1983.83" y="-557.3" font-family="Times,serif" font-size="14.00">dont_cure_default</text>
</g>
<!-- S15&#45;&gt;S7 -->
<g id="edge14" class="edge">
<title>S15&#45;&gt;S7</title>
<path fill="none" stroke="black" d="M1758.98,-771.84C1734.31,-780.75 1661.73,-810.76 1634.33,-864 1630.64,-871.17 1630.98,-879.99 1632.51,-887.6"/>
<polygon fill="black" stroke="black" points="1629.14,-888.57 1635.18,-897.27 1635.89,-886.7 1629.14,-888.57"/>
<text text-anchor="middle" x="1694.33" y="-833.3" font-family="Times,serif" font-size="14.00">cure_default</text>
</g>
<!-- S15&#45;&gt;S16 -->
<g id="edge16" class="edge">
<title>S15&#45;&gt;S16</title>
<path fill="none" stroke="black" d="M1766.16,-759.06C1765.17,-750.74 1764.2,-737.34 1766.33,-726 1767.91,-717.56 1771.08,-716.29 1773.33,-708 1781.45,-678.03 1781.88,-669.96 1784.33,-639 1784.96,-631.02 1789.51,-627.1 1784.33,-621 1752.25,-583.25 1706.41,-640.75 1674.33,-603 1670.01,-597.92 1672.72,-594.47 1674.33,-588 1689.24,-527.94 1731.81,-466.44 1752.61,-438.91"/>
<polygon fill="black" stroke="black" points="1755.64,-440.7 1758.97,-430.64 1750.1,-436.43 1755.64,-440.7"/>
<text text-anchor="middle" x="1734.33" y="-591.8" font-family="Times,serif" font-size="14.00">dont_notify_borrower</text>
</g>
<!-- S15&#45;&gt;S17 -->
<g id="edge15" class="edge">
<title>S15&#45;&gt;S17</title>
<path fill="none" stroke="black" d="M1766.59,-758.73C1766.17,-750.15 1766.48,-736.52 1771.33,-726 1773.75,-720.73 1777.7,-715.87 1781.74,-711.81"/>
<polygon fill="black" stroke="black" points="1784.14,-714.37 1789.27,-705.11 1779.48,-709.14 1784.14,-714.37"/>
<text text-anchor="middle" x="1846.83" y="-729.8" font-family="Times,serif" font-size="14.00">notify_borrower_of_default</text>
</g>
<!-- S16&#45;&gt;S5 -->
<g id="edge51" class="edge">
<title>S16&#45;&gt;S5</title>
<path fill="none" stroke="black" d="M1764.33,-413.78C1764.33,-403.84 1764.33,-386.78 1764.33,-373.6"/>
<polygon fill="black" stroke="black" points="1767.83,-373.28 1764.33,-363.28 1760.83,-373.28 1767.83,-373.28"/>
<text text-anchor="middle" x="1813.83" y="-384.8" font-family="Times,serif" font-size="14.00">dont_cure_default</text>
</g>
<!-- S16&#45;&gt;S8 -->
<g id="edge50" class="edge">
<title>S16&#45;&gt;S8</title>
<path fill="none" stroke="black" d="M1773.33,-424.19C1822.42,-425.31 2056.5,-431.6 2082.33,-450 2259.42,-576.18 2187.13,-654.92 2173.33,-672 2149.33,-701.69 2119.25,-666.28 2089.33,-690 2061.02,-712.44 2063.33,-730.88 2063.33,-767 2063.33,-907 2063.33,-907 2063.33,-907 2063.33,-927.08 2056.66,-932.15 2044.33,-948 2039.77,-953.86 2033.66,-959.24 2027.99,-963.56"/>
<polygon fill="black" stroke="black" points="2025.88,-960.77 2019.75,-969.41 2029.93,-966.48 2025.88,-960.77"/>
<text text-anchor="middle" x="2123.33" y="-695.3" font-family="Times,serif" font-size="14.00">cure_default</text>
</g>
<!-- S16&#45;&gt;S15 -->
<g id="edge49" class="edge">
<title>S16&#45;&gt;S15</title>
<path fill="none" stroke="black" d="M1770.79,-429.65C1785.87,-443.27 1823.29,-479.7 1839.33,-519 1853.52,-553.76 1836.69,-567.3 1848.33,-603 1867.89,-663.01 1902.99,-665.03 1919.33,-726 1921.05,-732.44 1923.63,-735.9 1919.33,-741 1902.58,-760.85 1823.92,-765.55 1786.81,-766.66"/>
<polygon fill="black" stroke="black" points="1786.26,-763.17 1776.35,-766.91 1786.43,-770.17 1786.26,-763.17"/>
<text text-anchor="middle" x="1895.33" y="-591.8" font-family="Times,serif" font-size="14.00">borrower_default</text>
</g>
<!-- S17&#45;&gt;S5 -->
<g id="edge32" class="edge">
<title>S17&#45;&gt;S5</title>
<path fill="none" stroke="black" d="M1799.58,-690.58C1809.28,-667.18 1835.31,-594 1801.33,-552 1783.28,-529.69 1756.56,-556.94 1739.33,-534 1735.33,-528.67 1738.89,-525.65 1739.33,-519 1742.88,-465.49 1754.49,-403.05 1760.56,-372.99"/>
<polygon fill="black" stroke="black" points="1764,-373.64 1762.59,-363.14 1757.14,-372.23 1764,-373.64"/>
<text text-anchor="middle" x="1788.83" y="-522.8" font-family="Times,serif" font-size="14.00">dont_cure_default</text>
</g>
<!-- S17&#45;&gt;S13 -->
<g id="edge31" class="edge">
<title>S17&#45;&gt;S13</title>
<path fill="none" stroke="black" d="M1788.32,-694.55C1784.21,-692.92 1779.08,-691.1 1774.33,-690 1565.23,-641.79 1303.26,-632.9 1230.72,-631.32"/>
<polygon fill="black" stroke="black" points="1230.47,-627.82 1220.4,-631.12 1230.33,-634.82 1230.47,-627.82"/>
<text text-anchor="middle" x="1717.33" y="-660.8" font-family="Times,serif" font-size="14.00">cure_default</text>
</g>
<!-- S17&#45;&gt;S16 -->
<g id="edge30" class="edge">
<title>S17&#45;&gt;S16</title>
<path fill="none" stroke="black" d="M1798.44,-690.03C1802.99,-671.16 1812.01,-622.79 1795.33,-588 1789.87,-576.61 1782.86,-578.29 1773.33,-570 1755.53,-554.52 1743.79,-555.61 1734.33,-534 1727,-517.27 1745.83,-467.48 1756.91,-441"/>
<polygon fill="black" stroke="black" points="1760.25,-442.11 1760.96,-431.53 1753.81,-439.35 1760.25,-442.11"/>
<text text-anchor="middle" x="1807.33" y="-557.3" font-family="Times,serif" font-size="14.00">cure_default</text>
</g>
<!-- S18&#45;&gt;S6 -->
<g id="edge8" class="edge">
<title>S18&#45;&gt;S6</title>
<path fill="none" stroke="black" d="M796.34,-214.86C851.38,-213.87 1142.28,-206.28 1212.33,-156 1219.6,-150.78 1214.06,-143.21 1221.33,-138 1308.47,-75.51 1354.04,-119.18 1460.33,-105 1527.69,-96.01 1607.77,-85.87 1643.49,-81.37"/>
<polygon fill="black" stroke="black" points="1643.98,-84.83 1653.46,-80.11 1643.11,-77.89 1643.98,-84.83"/>
<text text-anchor="middle" x="1322.33" y="-143.3" font-family="Times,serif" font-size="14.00">pay(Normal, Borrower, Lender, 525)</text>
</g>
<!-- S18&#45;&gt;S21 -->
<g id="edge6" class="edge">
<title>S18&#45;&gt;S21</title>
<path fill="none" stroke="black" d="M778.13,-215.58C758.08,-216.31 710.18,-215.06 684.33,-189 678.44,-183.06 675.81,-174.26 674.71,-166.34"/>
<polygon fill="black" stroke="black" points="678.18,-165.83 673.99,-156.11 671.2,-166.33 678.18,-165.83"/>
<text text-anchor="middle" x="744.33" y="-177.8" font-family="Times,serif" font-size="14.00">dont_notify_borrower</text>
</g>
<!-- S18&#45;&gt;S22 -->
<g id="edge5" class="edge">
<title>S18&#45;&gt;S22</title>
<path fill="none" stroke="black" d="M787.88,-225.15C789.07,-248.81 789.56,-318.62 758.33,-363 749.38,-375.72 735.99,-367.47 728.33,-381 725.04,-386.8 725.08,-390.18 728.33,-396 785.34,-498.09 842.56,-493.71 952.33,-534 999.21,-551.21 1017.78,-537.15 1068.13,-552.24"/>
<polygon fill="black" stroke="black" points="1067.33,-555.66 1077.92,-555.41 1069.49,-549 1067.33,-555.66"/>
<text text-anchor="middle" x="803.83" y="-384.8" font-family="Times,serif" font-size="14.00">notify_borrower_of_default</text>
</g>
<!-- S23 -->
<g id="node24" class="node">
<title>S23</title>
<ellipse fill="none" stroke="black" cx="860.33" cy="-9" rx="9" ry="9"/>
</g>
<!-- S18&#45;&gt;S23 -->
<g id="edge7" class="edge">
<title>S18&#45;&gt;S23</title>
<path fill="none" stroke="black" d="M778.4,-214.62C695.21,-211.01 57.72,-181.38 3.33,-120 -1.09,-115.01 -1.12,-109.97 3.33,-105 61.31,-40.24 719.54,-14.79 841.09,-10.63"/>
<polygon fill="black" stroke="black" points="841.53,-14.12 851.41,-10.28 841.29,-7.12 841.53,-14.12"/>
<text text-anchor="middle" x="140.33" y="-108.8" font-family="Times,serif" font-size="14.00">payment_default(Normal, Borrower, Lender, 525)</text>
</g>
<!-- S19 -->
<g id="node20" class="node">
<title>S19</title>
<ellipse fill="none" stroke="black" cx="744.33" cy="-78" rx="9" ry="9"/>
</g>
<!-- S19&#45;&gt;S11 -->
<g id="edge46" class="edge">
<title>S19&#45;&gt;S11</title>
<path fill="none" stroke="black" d="M753.51,-79.13C800.48,-79.88 1012.55,-84.41 1032.33,-105 1069.32,-143.51 1003.1,-184.87 1038.33,-225 1067.83,-258.61 1108.67,-208.67 1137.33,-243 1161.76,-272.28 1100.42,-276.56 1086.33,-312 1083.2,-319.86 1084.93,-328.98 1087.77,-336.61"/>
<polygon fill="black" stroke="black" points="1084.65,-338.2 1091.98,-345.85 1091.02,-335.3 1084.65,-338.2"/>
<text text-anchor="middle" x="1113.83" y="-212.3" font-family="Times,serif" font-size="14.00">notify_borrower_of_default</text>
</g>
<!-- S19&#45;&gt;S21 -->
<g id="edge48" class="edge">
<title>S19&#45;&gt;S21</title>
<path fill="none" stroke="black" d="M735.1,-78.83C701.55,-78.42 586.86,-78.98 564.33,-105 538.21,-135.16 616.35,-143.17 654.58,-145.27"/>
<polygon fill="black" stroke="black" points="654.85,-148.78 665,-145.75 655.17,-141.79 654.85,-148.78"/>
<text text-anchor="middle" x="624.33" y="-108.8" font-family="Times,serif" font-size="14.00">dont_notify_borrower</text>
</g>
<!-- S19&#45;&gt;S23 -->
<g id="edge47" class="edge">
<title>S19&#45;&gt;S23</title>
<path fill="none" stroke="black" d="M752.73,-74.54C764.47,-70.82 786.06,-62.9 801.33,-51 808.06,-45.75 806.8,-41.5 813.33,-36 822.23,-28.49 833.62,-22.13 842.97,-17.57"/>
<polygon fill="black" stroke="black" points="844.46,-20.73 852.08,-13.37 841.54,-14.38 844.46,-20.73"/>
<text text-anchor="middle" x="860.33" y="-39.8" font-family="Times,serif" font-size="14.00">borrower_default</text>
</g>
<!-- S20 -->
<g id="node21" class="node">
<title>S20</title>
<ellipse fill="none" stroke="black" cx="1014.33" cy="-492" rx="9" ry="9"/>
</g>
<!-- S20&#45;&gt;S4 -->
<g id="edge29" class="edge">
<title>S20&#45;&gt;S4</title>
<path fill="none" stroke="black" d="M1023.44,-491C1063.52,-490.87 1224.13,-488.84 1267.33,-465 1282.16,-456.82 1346.97,-353.98 1361.33,-345 1393.7,-324.76 1421.33,-356.69 1445.33,-327 1467.18,-299.97 1450.81,-256.45 1439.22,-233.07"/>
<polygon fill="black" stroke="black" points="1442.27,-231.36 1434.52,-224.14 1436.07,-234.62 1442.27,-231.36"/>
<text text-anchor="middle" x="1410.83" y="-350.3" font-family="Times,serif" font-size="14.00">dont_cure_default</text>
</g>
<!-- S20&#45;&gt;S14 -->
<g id="edge27" class="edge">
<title>S20&#45;&gt;S14</title>
<path fill="none" stroke="black" d="M1022.67,-487.77C1049.33,-477.44 1132.86,-445.09 1169.64,-430.85"/>
<polygon fill="black" stroke="black" points="1171.01,-434.07 1179.07,-427.2 1168.48,-427.55 1171.01,-434.07"/>
<text text-anchor="middle" x="1190.83" y="-453.8" font-family="Times,serif" font-size="14.00">notify_borrower_of_default</text>
</g>
<!-- S20&#45;&gt;S19 -->
<g id="edge26" class="edge">
<title>S20&#45;&gt;S19</title>
<path fill="none" stroke="black" d="M1005.31,-490.4C979.52,-488.49 906.32,-481.67 890.33,-465 864.13,-437.69 889.67,-416.42 876.33,-381 860.28,-338.41 834.81,-337.77 822.33,-294 816.09,-272.14 814.89,-262.65 826.33,-243 846.63,-208.12 881.16,-225.04 899.33,-189 909.73,-168.37 930.41,-145.96 892.33,-105 875.18,-86.55 799.69,-81.14 763.64,-79.6"/>
<polygon fill="black" stroke="black" points="763.56,-76.09 753.44,-79.22 763.3,-83.09 763.56,-76.09"/>
<text text-anchor="middle" x="856.33" y="-281.3" font-family="Times,serif" font-size="14.00">cure_default</text>
</g>
<!-- S20&#45;&gt;S22 -->
<g id="edge28" class="edge">
<title>S20&#45;&gt;S22</title>
<path fill="none" stroke="black" d="M1005.66,-495.2C986.08,-500.57 941.35,-515.27 957.33,-534 972.29,-551.53 1033.14,-545.42 1068.01,-552.69"/>
<polygon fill="black" stroke="black" points="1067.35,-556.14 1077.92,-555.42 1069.2,-549.39 1067.35,-556.14"/>
<text text-anchor="middle" x="1017.33" y="-522.8" font-family="Times,serif" font-size="14.00">dont_notify_borrower</text>
</g>
<!-- S21&#45;&gt;S6 -->
<g id="edge42" class="edge">
<title>S21&#45;&gt;S6</title>
<path fill="none" stroke="black" d="M677.41,-138.27C681.76,-128.51 690.74,-112.13 704.33,-105 747.41,-82.4 1511.76,-79.39 1643.17,-79.04"/>
<polygon fill="black" stroke="black" points="1643.31,-82.54 1653.3,-79.02 1643.3,-75.54 1643.31,-82.54"/>
<text text-anchor="middle" x="805.33" y="-108.8" font-family="Times,serif" font-size="14.00">pay(Normal, Borrower, Lender, 525)</text>
</g>
<!-- S21&#45;&gt;S18 -->
<g id="edge40" class="edge">
<title>S21&#45;&gt;S18</title>
<path fill="none" stroke="black" d="M683.33,-148.42C709.78,-149.87 786.32,-155.6 801.33,-174 807.54,-181.62 803.76,-192.15 798.57,-200.63"/>
<polygon fill="black" stroke="black" points="795.71,-198.61 792.79,-208.79 801.43,-202.65 795.71,-198.61"/>
<text text-anchor="middle" x="851.33" y="-177.8" font-family="Times,serif" font-size="14.00">borrower_default</text>
</g>
<!-- S21&#45;&gt;S19 -->
<g id="edge41" class="edge">
<title>S21&#45;&gt;S19</title>
<path fill="none" stroke="black" d="M665.33,-146.12C609.18,-146.78 308.43,-148.95 281.33,-120 276.77,-115.13 276.75,-109.84 281.33,-105 296.8,-88.64 638.82,-81.02 724.83,-79.36"/>
<polygon fill="black" stroke="black" points="725.08,-82.85 735.02,-79.16 724.95,-75.85 725.08,-82.85"/>
<text text-anchor="middle" x="418.33" y="-108.8" font-family="Times,serif" font-size="14.00">payment_default(Normal, Borrower, Lender, 525)</text>
</g>
<!-- S22&#45;&gt;S4 -->
<g id="edge21" class="edge">
<title>S22&#45;&gt;S4</title>
<path fill="none" stroke="black" d="M1094.32,-559.45C1151.68,-555.95 1464.32,-536.72 1468.33,-534 1530.65,-491.66 1486.99,-433.19 1541.33,-381 1585.27,-338.8 1633.79,-377.86 1667.33,-327 1694.13,-286.35 1509.34,-236.53 1448.97,-221.5"/>
<polygon fill="black" stroke="black" points="1449.48,-218.02 1438.93,-219.04 1447.81,-224.82 1449.48,-218.02"/>
<text text-anchor="middle" x="1590.83" y="-384.8" font-family="Times,serif" font-size="14.00">dont_cure_default</text>
</g>
<!-- S22&#45;&gt;S6 -->
<g id="edge20" class="edge">
<title>S22&#45;&gt;S6</title>
<path fill="none" stroke="black" d="M1094.37,-559.54C1136.5,-557.35 1313.68,-547.47 1367.33,-534 1412.72,-522.61 1464.33,-539.8 1464.33,-493 1464.33,-493 1464.33,-493 1464.33,-353 1464.33,-244.8 1547.69,-245 1629.33,-174 1639.93,-164.78 1648.25,-168.14 1655.33,-156 1665.77,-138.1 1666.16,-113.79 1664.83,-97.31"/>
<polygon fill="black" stroke="black" points="1668.3,-96.88 1663.73,-87.32 1661.35,-97.64 1668.3,-96.88"/>
<text text-anchor="middle" x="1569.33" y="-315.8" font-family="Times,serif" font-size="14.00">pay(Normal, Borrower, Lender, 525)</text>
</g>
<!-- S22&#45;&gt;S20 -->
<g id="edge19" class="edge">
<title>S22&#45;&gt;S20</title>
<path fill="none" stroke="black" d="M1086.13,-551.83C1086.55,-542.81 1085.84,-528.34 1078.33,-519 1067.31,-505.29 1047.92,-498.76 1033.36,-495.68"/>
<polygon fill="black" stroke="black" points="1033.84,-492.21 1023.39,-493.93 1032.63,-499.1 1033.84,-492.21"/>
<text text-anchor="middle" x="1221.33" y="-522.8" font-family="Times,serif" font-size="14.00">payment_default(Normal, Borrower, Lender, 525)</text>
</g>
<!-- S22&#45;&gt;S21 -->
<g id="edge18" class="edge">
<title>S22&#45;&gt;S21</title>
<path fill="none" stroke="black" d="M1077.94,-555.34C1075.59,-554.06 1072.92,-552.8 1070.33,-552 1000.7,-530.46 979.41,-544.77 907.33,-534 810.26,-519.49 690.33,-591.15 690.33,-493 690.33,-493 690.33,-493 689.33,-353 689.33,-279.85 679.33,-262.04 675.33,-189 674.92,-181.54 674.68,-173.3 674.53,-166.17"/>
<polygon fill="black" stroke="black" points="678.03,-166.12 674.38,-156.17 671.04,-166.23 678.03,-166.12"/>
<text text-anchor="middle" x="724.33" y="-350.3" font-family="Times,serif" font-size="14.00">cure_default</text>
</g>
<!-- S23&#45;&gt;S10 -->
<g id="edge9" class="edge">
<title>S23&#45;&gt;S10</title>
<path fill="none" stroke="black" d="M869.74,-9.76C905.07,-9.06 1029.14,-8.62 1054.33,-36 1072.41,-55.65 1044.74,-134.32 1060.33,-156 1096.56,-206.39 1153.72,-156.88 1190.33,-207 1202.66,-223.88 1201.82,-248.78 1199.28,-265.66"/>
<polygon fill="black" stroke="black" points="1195.77,-265.39 1197.39,-275.86 1202.65,-266.67 1195.77,-265.39"/>
<text text-anchor="middle" x="1135.83" y="-143.3" font-family="Times,serif" font-size="14.00">notify_borrower_of_default</text>
</g>
<!-- S23&#45;&gt;S18 -->
<g id="edge12" class="edge">
<title>S23&#45;&gt;S18</title>
<path fill="none" stroke="black" d="M868.99,-12.28C879.5,-15.56 896.76,-22.74 904.33,-36 921.19,-65.55 921.25,-162.99 899.33,-189 887.52,-203.01 835.03,-210.3 806.29,-213.3"/>
<polygon fill="black" stroke="black" points="805.87,-209.83 796.25,-214.27 806.54,-216.79 805.87,-209.83"/>
<text text-anchor="middle" x="976.33" y="-108.8" font-family="Times,serif" font-size="14.00">dont_notify_borrower</text>
</g>
<!-- S23&#45;&gt;S19 -->
<g id="edge11" class="edge">
<title>S23&#45;&gt;S19</title>
<path fill="none" stroke="black" d="M851.3,-9.86C818.49,-9.58 706.33,-10.51 684.33,-36 669.88,-52.74 703.36,-65.78 725.9,-72.34"/>
<polygon fill="black" stroke="black" points="725.26,-75.79 735.83,-75.02 727.09,-69.03 725.26,-75.79"/>
<text text-anchor="middle" x="744.33" y="-39.8" font-family="Times,serif" font-size="14.00">dont_notify_borrower</text>
</g>
<!-- S23&#45;&gt;S20 -->
<g id="edge10" class="edge">
<title>S23&#45;&gt;S20</title>
<path fill="none" stroke="black" d="M869.12,-11.49C899.29,-17.14 998.82,-40.25 1037.33,-105 1084.6,-184.49 948.11,-179.98 867.33,-225 851.7,-233.71 840.73,-227.78 831.33,-243 827.82,-248.67 827.4,-252.61 831.33,-258 846.73,-279.13 870.26,-256.2 887.33,-276 899.83,-290.5 894.33,-299.36 894.33,-318.5 894.33,-424 894.33,-424 894.33,-424 894.33,-469.66 961.38,-484.5 995.24,-489.08"/>
<polygon fill="black" stroke="black" points="994.97,-492.57 1005.31,-490.27 995.79,-485.62 994.97,-492.57"/>
<text text-anchor="middle" x="906.83" y="-246.8" font-family="Times,serif" font-size="14.00">notify_borrower_of_default</text>
</g>
<!-- S24&#45;&gt;S7 -->
<g id="edge3" class="edge">
<title>S24&#45;&gt;S7</title>
<path fill="none" stroke="black" d="M1758.18,-838.54C1732.03,-840.28 1657.88,-846.68 1642.33,-864 1636.87,-870.08 1635.49,-878.89 1635.63,-886.79"/>
<polygon fill="black" stroke="black" points="1632.16,-887.33 1636.58,-896.97 1639.13,-886.68 1632.16,-887.33"/>
<text text-anchor="middle" x="1702.33" y="-867.8" font-family="Times,serif" font-size="14.00">dont_notify_borrower</text>
</g>
<!-- S24&#45;&gt;S9 -->
<g id="edge4" class="edge">
<title>S24&#45;&gt;S9</title>
<path fill="none" stroke="black" d="M1776.49,-835.86C1825.27,-834.85 2052.33,-827.07 2052.33,-769 2052.33,-769 2052.33,-769 2052.33,-560 2052.33,-543.58 2050.82,-524.96 2049.46,-511.52"/>
<polygon fill="black" stroke="black" points="2052.9,-510.8 2048.34,-501.24 2045.94,-511.56 2052.9,-510.8"/>
<text text-anchor="middle" x="2112.33" y="-660.8" font-family="Times,serif" font-size="14.00">dont_notify_borrower</text>
</g>
<!-- S24&#45;&gt;S12 -->
<g id="edge1" class="edge">
<title>S24&#45;&gt;S12</title>
<path fill="none" stroke="black" d="M1758.69,-834.01C1727.48,-826.56 1622.33,-799.23 1622.33,-769 1622.33,-769 1622.33,-769 1622.33,-629 1622.33,-612.63 1622.33,-594 1622.33,-580.55"/>
<polygon fill="black" stroke="black" points="1625.83,-580.25 1622.33,-570.25 1618.83,-580.25 1625.83,-580.25"/>
<text text-anchor="middle" x="1697.83" y="-695.3" font-family="Times,serif" font-size="14.00">notify_borrower_of_default</text>
</g>
<!-- S24&#45;&gt;S15 -->
<g id="edge2" class="edge">
<title>S24&#45;&gt;S15</title>
<path fill="none" stroke="black" d="M1767.33,-827.78C1767.33,-817.84 1767.33,-800.78 1767.33,-787.6"/>
<polygon fill="black" stroke="black" points="1770.83,-787.28 1767.33,-777.28 1763.83,-787.28 1770.83,-787.28"/>
<text text-anchor="middle" x="1842.83" y="-798.8" font-family="Times,serif" font-size="14.00">notify_borrower_of_default</text>
</g>
</g>
</svg>
