<?xml version="1.0" encoding="UTF-8" standalone="no"?>
<!DOCTYPE svg PUBLIC "-//W3C//DTD SVG 1.1//EN"
 "http://www.w3.org/Graphics/SVG/1.1/DTD/svg11.dtd">
<!-- Generated by graphviz version 5.0.1 (0)
 -->
<!-- Title: G Pages: 1 -->
<svg width="4925pt" height="1069pt"
 viewBox="0.00 0.00 4925.00 1069.00" xmlns="http://www.w3.org/2000/svg" xmlns:xlink="http://www.w3.org/1999/xlink">
<g id="graph0" class="graph" transform="scale(1 1) rotate(0) translate(4 1065)">
<title>G</title>
<polygon fill="white" stroke="none" points="-4,4 -4,-1065 4921,-1065 4921,4 -4,4"/>
<!-- S4 -->
<g id="node1" class="node">
<title>S4</title>
<ellipse fill="none" stroke="black" cx="2845" cy="-1048" rx="9" ry="9"/>
<ellipse fill="none" stroke="black" cx="2845" cy="-1048" rx="13" ry="13"/>
</g>
<!-- S5 -->
<g id="node6" class="node">
<title>S5</title>
<ellipse fill="none" stroke="black" cx="804" cy="-975" rx="9" ry="9"/>
</g>
<!-- S4&#45;&gt;S5 -->
<g id="edge127" class="edge">
<title>S4&#45;&gt;S5</title>
<path fill="none" stroke="black" d="M2831.97,-1046.55C2668.61,-1040.86 1021.2,-983.56 823.4,-976.67"/>
<polygon fill="black" stroke="black" points="823.23,-973.17 813.11,-976.32 822.99,-980.16 823.23,-973.17"/>
<text text-anchor="middle" x="1993" y="-1005.8" font-family="Times,serif" font-size="14.00">request_principal</text>
</g>
<!-- S10 -->
<g id="node11" class="node">
<title>S10</title>
<ellipse fill="none" stroke="black" cx="4334" cy="-9" rx="9" ry="9"/>
</g>
<!-- S4&#45;&gt;S10 -->
<g id="edge128" class="edge">
<title>S4&#45;&gt;S10</title>
<path fill="none" stroke="black" d="M2858.21,-1046.88C3028.69,-1045.28 4792,-1027.5 4792,-976 4792,-976 4792,-976 4792,-77 4792,-31.91 4440.02,-14.39 4353.18,-10.75"/>
<polygon fill="black" stroke="black" points="4353.28,-7.25 4343.15,-10.34 4353,-14.24 4353.28,-7.25"/>
<text text-anchor="middle" x="4854.5" y="-522.8" font-family="Times,serif" font-size="14.00">dont_request_principal</text>
</g>
<!-- S0 -->
<g id="node2" class="node">
<title>S0</title>
<ellipse fill="none" stroke="black" cx="3211" cy="-423" rx="9" ry="9"/>
</g>
<!-- S7 -->
<g id="node8" class="node">
<title>S7</title>
<ellipse fill="none" stroke="black" cx="2588" cy="-561" rx="9" ry="9"/>
</g>
<!-- S0&#45;&gt;S7 -->
<g id="edge13" class="edge">
<title>S0&#45;&gt;S7</title>
<path fill="none" stroke="black" d="M3201.93,-424.34C3159.07,-426.05 2978.06,-434.14 2959,-450 2940.83,-465.11 2961.69,-485.34 2944,-501 2893.22,-545.95 2673.71,-557.07 2607.18,-559.43"/>
<polygon fill="black" stroke="black" points="2606.8,-555.94 2596.92,-559.77 2607.03,-562.94 2606.8,-555.94"/>
<text text-anchor="middle" x="3103.5" y="-488.3" font-family="Times,serif" font-size="14.00">notify_borrower_of_default|notify_borrower_of_default</text>
</g>
<!-- S8 -->
<g id="node9" class="node">
<title>S8</title>
<ellipse fill="none" stroke="black" cx="2610" cy="-699" rx="9" ry="9"/>
</g>
<!-- S0&#45;&gt;S8 -->
<g id="edge14" class="edge">
<title>S0&#45;&gt;S8</title>
<path fill="none" stroke="black" d="M3210.09,-431.96C3209.5,-441.06 3210.03,-455.86 3218,-465 3235.46,-485.03 3258.71,-462.02 3275,-483 3286.52,-497.83 3283.05,-526.88 3277,-534 3244.61,-572.06 3209.19,-526.85 3166,-552 3140.87,-566.63 3146.69,-583.63 3125,-603 3082.24,-641.19 3070.53,-654.28 3016,-672 2942.66,-695.83 2699.08,-697.92 2629.01,-698.02"/>
<polygon fill="black" stroke="black" points="2628.98,-694.52 2618.98,-698.03 2628.98,-701.52 2628.98,-694.52"/>
<text text-anchor="middle" x="3303" y="-557.3" font-family="Times,serif" font-size="14.00">dont_notify_borrower|notify_borrower_of_default</text>
</g>
<!-- S13 -->
<g id="node14" class="node">
<title>S13</title>
<ellipse fill="none" stroke="black" cx="2751" cy="-630" rx="9" ry="9"/>
</g>
<!-- S0&#45;&gt;S13 -->
<g id="edge10" class="edge">
<title>S0&#45;&gt;S13</title>
<path fill="none" stroke="black" d="M3207.49,-431.47C3203.89,-440.37 3199.74,-455.25 3207,-465 3228.86,-494.38 3298.47,-465.16 3267,-501 3226.19,-547.48 3173,-475.53 3129,-519 3102.17,-545.5 3144.6,-577.3 3117,-603 3091.5,-626.75 2842.19,-628.9 2770.31,-629.02"/>
<polygon fill="black" stroke="black" points="2770.02,-625.52 2760.02,-629.02 2770.02,-632.52 2770.02,-625.52"/>
<text text-anchor="middle" x="3204.5" y="-522.8" font-family="Times,serif" font-size="14.00">notify_borrower_of_default</text>
</g>
<!-- S14 -->
<g id="node15" class="node">
<title>S14</title>
<ellipse fill="none" stroke="black" cx="3024" cy="-147" rx="9" ry="9"/>
</g>
<!-- S0&#45;&gt;S14 -->
<g id="edge15" class="edge">
<title>S0&#45;&gt;S14</title>
<path fill="none" stroke="black" d="M3214.06,-414.15C3219.44,-398.89 3228.54,-364.97 3212,-345 3184.59,-311.91 3144.41,-360.09 3117,-327 3079.21,-281.38 3208.41,-255.92 3175,-207 3145.04,-163.13 3077.18,-151.88 3043.59,-148.99"/>
<polygon fill="black" stroke="black" points="3043.47,-145.48 3033.25,-148.28 3042.99,-152.46 3043.47,-145.48"/>
<text text-anchor="middle" x="3270" y="-281.3" font-family="Times,serif" font-size="14.00">dont_notify_borrower|notify_borrower_of_default</text>
</g>
<!-- S17 -->
<g id="node18" class="node">
<title>S17</title>
<ellipse fill="none" stroke="black" cx="2770" cy="-216" rx="9" ry="9"/>
</g>
<!-- S0&#45;&gt;S17 -->
<g id="edge9" class="edge">
<title>S0&#45;&gt;S17</title>
<path fill="none" stroke="black" d="M3201.97,-421.53C3141.4,-418.29 2795.54,-398.3 2767,-363 2736.91,-325.77 2752.84,-264.04 2763.27,-234.2"/>
<polygon fill="black" stroke="black" points="2766.58,-235.35 2766.77,-224.75 2760.01,-232.91 2766.58,-235.35"/>
<text text-anchor="middle" x="2826.5" y="-315.8" font-family="Times,serif" font-size="14.00">notify_borrower_of_default</text>
</g>
<!-- S19 -->
<g id="node20" class="node">
<title>S19</title>
<ellipse fill="none" stroke="black" cx="3081" cy="-285" rx="9" ry="9"/>
</g>
<!-- S0&#45;&gt;S19 -->
<g id="edge11" class="edge">
<title>S0&#45;&gt;S19</title>
<path fill="none" stroke="black" d="M3211.46,-413.77C3211.5,-404.42 3210.01,-389.39 3201,-381 3166.03,-348.43 3128.99,-396.59 3095,-363 3092.9,-360.93 3087.2,-326.21 3083.76,-304.11"/>
<polygon fill="black" stroke="black" points="3087.17,-303.29 3082.19,-293.94 3080.26,-304.36 3087.17,-303.29"/>
<text text-anchor="middle" x="3155" y="-350.3" font-family="Times,serif" font-size="14.00">dont_notify_borrower</text>
</g>
<!-- S21 -->
<g id="node22" class="node">
<title>S21</title>
<ellipse fill="none" stroke="black" cx="3910" cy="-354" rx="9" ry="9"/>
</g>
<!-- S0&#45;&gt;S21 -->
<g id="edge12" class="edge">
<title>S0&#45;&gt;S21</title>
<path fill="none" stroke="black" d="M3220.17,-422.09C3294.52,-422.74 3797.65,-426.01 3857,-396 3864.62,-392.15 3862.64,-386.7 3869,-381 3876.33,-374.44 3885.5,-368.45 3893.3,-363.88"/>
<polygon fill="black" stroke="black" points="3895.19,-366.84 3902.22,-358.92 3891.78,-360.72 3895.19,-366.84"/>
<text text-anchor="middle" x="3929" y="-384.8" font-family="Times,serif" font-size="14.00">dont_notify_borrower</text>
</g>
<!-- S22 -->
<g id="node23" class="node">
<title>S22</title>
<ellipse fill="none" stroke="black" cx="3865" cy="-492" rx="9" ry="9"/>
</g>
<!-- S0&#45;&gt;S22 -->
<g id="edge16" class="edge">
<title>S0&#45;&gt;S22</title>
<path fill="none" stroke="black" d="M3217.18,-429.81C3222.58,-434.96 3230.53,-442.77 3237,-450 3242.69,-456.36 3241.36,-461.19 3249,-465 3306.69,-493.79 3751.92,-466.07 3848.39,-483.58"/>
<polygon fill="black" stroke="black" points="3847.63,-487 3858.17,-485.88 3849.24,-480.19 3847.63,-487"/>
<text text-anchor="middle" x="3370" y="-453.8" font-family="Times,serif" font-size="14.00">dont_notify_borrower|dont_notify_borrower</text>
</g>
<!-- S1 -->
<g id="node3" class="node">
<title>S1</title>
<ellipse fill="none" stroke="black" cx="2195" cy="-423" rx="9" ry="9"/>
</g>
<!-- S2 -->
<g id="node4" class="node">
<title>S2</title>
<ellipse fill="none" stroke="black" cx="2295" cy="-78" rx="9" ry="9"/>
</g>
<!-- S2&#45;&gt;S10 -->
<g id="edge131" class="edge">
<title>S2&#45;&gt;S10</title>
<path fill="none" stroke="black" d="M2304.18,-76.59C2379.37,-73.2 2901.68,-49.91 3326,-36 3724.87,-22.93 4212.71,-12.52 4314.74,-10.4"/>
<polygon fill="black" stroke="black" points="4315.09,-13.89 4325.02,-10.18 4314.95,-6.89 4315.09,-13.89"/>
<text text-anchor="middle" x="3433" y="-39.8" font-family="Times,serif" font-size="14.00">pay(accelerated, borrower, lender, 525)</text>
</g>
<!-- S20 -->
<g id="node21" class="node">
<title>S20</title>
<ellipse fill="none" stroke="black" cx="1234" cy="-9" rx="9" ry="9"/>
</g>
<!-- S2&#45;&gt;S20 -->
<g id="edge132" class="edge">
<title>S2&#45;&gt;S20</title>
<path fill="none" stroke="black" d="M2285.83,-76.42C2190.87,-70.42 1387.86,-19.72 1253.14,-11.21"/>
<polygon fill="black" stroke="black" points="1253.3,-7.71 1243.1,-10.57 1252.86,-14.7 1253.3,-7.71"/>
<text text-anchor="middle" x="2002" y="-39.8" font-family="Times,serif" font-size="14.00">payment_default(accelerated, borrower, lender, 525)</text>
</g>
<!-- S3 -->
<g id="node5" class="node">
<title>S3</title>
<ellipse fill="none" stroke="black" cx="1234" cy="-285" rx="9" ry="9"/>
</g>
<!-- S3&#45;&gt;S10 -->
<g id="edge129" class="edge">
<title>S3&#45;&gt;S10</title>
<path fill="none" stroke="black" d="M1242.98,-284.1C1295.14,-284.47 1557,-283 1557,-217 1557,-217 1557,-217 1557,-77 1557,-24.41 1616.28,-45.51 1668,-36 1806.22,-10.59 4082.27,-9.99 4314.86,-10"/>
<polygon fill="black" stroke="black" points="4314.87,-13.5 4324.87,-10 4314.87,-6.5 4314.87,-13.5"/>
<text text-anchor="middle" x="1667.5" y="-143.3" font-family="Times,serif" font-size="14.00">pay(accelerated, borrower, lender, 1075)</text>
</g>
<!-- S3&#45;&gt;S20 -->
<g id="edge130" class="edge">
<title>S3&#45;&gt;S20</title>
<path fill="none" stroke="black" d="M1234,-275.75C1234,-263.1 1234,-238.17 1234,-217 1234,-217 1234,-217 1234,-77 1234,-60.63 1234,-42 1234,-28.55"/>
<polygon fill="black" stroke="black" points="1237.5,-28.25 1234,-18.25 1230.5,-28.25 1237.5,-28.25"/>
<text text-anchor="middle" x="1380.5" y="-143.3" font-family="Times,serif" font-size="14.00">payment_default(accelerated, borrower, lender, 1075)</text>
</g>
<!-- S11 -->
<g id="node12" class="node">
<title>S11</title>
<ellipse fill="none" stroke="black" cx="804" cy="-906" rx="9" ry="9"/>
</g>
<!-- S5&#45;&gt;S11 -->
<g id="edge125" class="edge">
<title>S5&#45;&gt;S11</title>
<path fill="none" stroke="black" d="M804,-965.78C804,-955.84 804,-938.78 804,-925.6"/>
<polygon fill="black" stroke="black" points="807.5,-925.28 804,-915.28 800.5,-925.28 807.5,-925.28"/>
<text text-anchor="middle" x="908" y="-936.8" font-family="Times,serif" font-size="14.00">pay(principal, lender, borrower, 1000)</text>
</g>
<!-- S5&#45;&gt;S20 -->
<g id="edge126" class="edge">
<title>S5&#45;&gt;S20</title>
<path fill="none" stroke="black" d="M794.97,-973.74C706.64,-971.14 0,-949.02 0,-907 0,-907 0,-907 0,-77 0,-13.42 1058.23,-10.14 1214.75,-10"/>
<polygon fill="black" stroke="black" points="1214.78,-13.5 1224.78,-10 1214.77,-6.5 1214.78,-13.5"/>
<text text-anchor="middle" x="140" y="-488.3" font-family="Times,serif" font-size="14.00">payment_default(principal, lender, borrower, 1000)</text>
</g>
<!-- S6 -->
<g id="node7" class="node">
<title>S6</title>
<ellipse fill="none" stroke="black" cx="1626" cy="-492" rx="9" ry="9"/>
</g>
<!-- S6&#45;&gt;S1 -->
<g id="edge121" class="edge">
<title>S6&#45;&gt;S1</title>
<path fill="none" stroke="black" d="M1634.94,-489.95C1698.73,-482.44 2085.07,-436.94 2175.89,-426.25"/>
<polygon fill="black" stroke="black" points="2176.56,-429.7 2186.08,-425.05 2175.74,-422.74 2176.56,-429.7"/>
<text text-anchor="middle" x="2061" y="-453.8" font-family="Times,serif" font-size="14.00">dont_cure_default|dont_cure_default</text>
</g>
<!-- S6&#45;&gt;S3 -->
<g id="edge120" class="edge">
<title>S6&#45;&gt;S3</title>
<path fill="none" stroke="black" d="M1623.81,-483.09C1618.7,-465.26 1605.57,-422.82 1594,-414 1543.41,-375.42 1497.34,-440.63 1452,-396 1425.12,-369.54 1466.88,-338.45 1440,-312 1413.94,-286.36 1299.88,-285.03 1253.61,-285.58"/>
<polygon fill="black" stroke="black" points="1253.34,-282.08 1243.4,-285.75 1253.45,-289.08 1253.34,-282.08"/>
<text text-anchor="middle" x="1536.5" y="-384.8" font-family="Times,serif" font-size="14.00">cure_default|dont_cure_default</text>
</g>
<!-- S6&#45;&gt;S3 -->
<g id="edge124" class="edge">
<title>S6&#45;&gt;S3</title>
<path fill="none" stroke="black" d="M1627.98,-483.14C1632.4,-463.69 1640.95,-412.61 1618,-381 1570.34,-315.34 1527.53,-332.39 1449,-312 1378.42,-293.68 1291.39,-288.19 1253.34,-286.61"/>
<polygon fill="black" stroke="black" points="1253.3,-283.11 1243.17,-286.24 1253.04,-290.1 1253.3,-283.11"/>
<text text-anchor="middle" x="1675.5" y="-384.8" font-family="Times,serif" font-size="14.00">dont_cure_default</text>
</g>
<!-- S9 -->
<g id="node10" class="node">
<title>S9</title>
<ellipse fill="none" stroke="black" cx="2017" cy="-768" rx="9" ry="9"/>
</g>
<!-- S6&#45;&gt;S9 -->
<g id="edge123" class="edge">
<title>S6&#45;&gt;S9</title>
<path fill="none" stroke="black" d="M1629.48,-500.33C1634.49,-509.97 1644.74,-526.57 1659,-534 1711.14,-561.18 1875.77,-516.97 1923,-552 1956.22,-576.64 1926.17,-610.36 1956,-639 1974.25,-656.52 1994.56,-636.96 2010,-657 2020.68,-670.86 2019.67,-721.05 2018.23,-748.6"/>
<polygon fill="black" stroke="black" points="2014.72,-748.65 2017.61,-758.84 2021.7,-749.07 2014.72,-748.65"/>
<text text-anchor="middle" x="1990" y="-626.3" font-family="Times,serif" font-size="14.00">cure_default</text>
</g>
<!-- S6&#45;&gt;S11 -->
<g id="edge119" class="edge">
<title>S6&#45;&gt;S11</title>
<path fill="none" stroke="black" d="M1632.46,-498.98C1638.14,-504.25 1646.63,-512.12 1654,-519 1661.13,-525.65 1661.06,-530.11 1670,-534 1777.83,-580.94 1823.87,-510.74 1934,-552 2053.46,-596.75 2201.48,-624.29 2150,-741 2122.07,-804.32 2098.04,-817.43 2035,-846 1920.09,-898.08 971.97,-904.28 823.52,-904.93"/>
<polygon fill="black" stroke="black" points="823.24,-901.43 813.25,-904.97 823.27,-908.43 823.24,-901.43"/>
<text text-anchor="middle" x="2229.5" y="-695.3" font-family="Times,serif" font-size="14.00">cure_default|cure_default</text>
</g>
<!-- S18 -->
<g id="node19" class="node">
<title>S18</title>
<ellipse fill="none" stroke="black" cx="395" cy="-423" rx="9" ry="9"/>
</g>
<!-- S6&#45;&gt;S18 -->
<g id="edge122" class="edge">
<title>S6&#45;&gt;S18</title>
<path fill="none" stroke="black" d="M1616.76,-490.68C1560.97,-488.74 1263.5,-478.15 1021,-465 781.53,-452.01 490.87,-431.03 414.26,-425.42"/>
<polygon fill="black" stroke="black" points="414.42,-421.92 404.19,-424.68 413.9,-428.9 414.42,-421.92"/>
<text text-anchor="middle" x="1055" y="-453.8" font-family="Times,serif" font-size="14.00">cure_default</text>
</g>
<!-- S7&#45;&gt;S1 -->
<g id="edge114" class="edge">
<title>S7&#45;&gt;S1</title>
<path fill="none" stroke="black" d="M2579.21,-558.29C2548.66,-552.23 2444.47,-530.52 2362,-501 2305.26,-480.69 2241.41,-448.47 2211.77,-432.95"/>
<polygon fill="black" stroke="black" points="2213.26,-429.77 2202.79,-428.2 2209.99,-435.96 2213.26,-429.77"/>
<text text-anchor="middle" x="2462" y="-488.3" font-family="Times,serif" font-size="14.00">dont_cure_default|dont_cure_default</text>
</g>
<!-- S7&#45;&gt;S2 -->
<g id="edge113" class="edge">
<title>S7&#45;&gt;S2</title>
<path fill="none" stroke="black" d="M2587.65,-551.9C2585.93,-513.63 2578.32,-352.6 2571,-345 2547.26,-320.33 2446.85,-345.43 2418,-327 2334.57,-273.69 2305.76,-145.57 2297.69,-97.58"/>
<polygon fill="black" stroke="black" points="2301.11,-96.76 2296.1,-87.42 2294.19,-97.85 2301.11,-96.76"/>
<text text-anchor="middle" x="2502.5" y="-315.8" font-family="Times,serif" font-size="14.00">cure_default|dont_cure_default</text>
</g>
<!-- S7&#45;&gt;S2 -->
<g id="edge118" class="edge">
<title>S7&#45;&gt;S2</title>
<path fill="none" stroke="black" d="M2586.92,-551.88C2581.81,-513.53 2559.89,-352.18 2552,-345 2510.13,-306.94 2338.06,-366.97 2298,-327 2285.07,-314.1 2295,-304.27 2295,-286 2295,-286 2295,-286 2295,-146 2295,-129.63 2295,-111 2295,-97.55"/>
<polygon fill="black" stroke="black" points="2298.5,-97.25 2295,-87.25 2291.5,-97.25 2298.5,-97.25"/>
<text text-anchor="middle" x="2347.5" y="-315.8" font-family="Times,serif" font-size="14.00">dont_cure_default</text>
</g>
<!-- S7&#45;&gt;S8 -->
<g id="edge117" class="edge">
<title>S7&#45;&gt;S8</title>
<path fill="none" stroke="black" d="M2580.93,-566.6C2564.1,-578.17 2524.09,-609.61 2538,-639 2549.21,-662.69 2575.11,-680.04 2592.59,-689.58"/>
<polygon fill="black" stroke="black" points="2591.24,-692.82 2601.74,-694.28 2594.44,-686.6 2591.24,-692.82"/>
<text text-anchor="middle" x="2572" y="-626.3" font-family="Times,serif" font-size="14.00">cure_default</text>
</g>
<!-- S7&#45;&gt;S14 -->
<g id="edge116" class="edge">
<title>S7&#45;&gt;S14</title>
<path fill="none" stroke="black" d="M2589.42,-551.92C2592.74,-533.33 2601.02,-488.66 2605,-483 2646.7,-423.69 2707.98,-459.48 2743,-396 2763.95,-358.02 2690.19,-364.66 2689,-363 2684.32,-356.51 2684.14,-351.36 2689,-345 2707.46,-320.84 2730.88,-345.51 2755,-327 2772.14,-313.84 2786.82,-256.11 2804,-243 2877.87,-186.61 2935.47,-249.52 3006,-189 3012.89,-183.09 3017.24,-174.03 3019.93,-165.94"/>
<polygon fill="black" stroke="black" points="3023.34,-166.76 3022.59,-156.19 3016.59,-164.91 3023.34,-166.76"/>
<text text-anchor="middle" x="2723" y="-350.3" font-family="Times,serif" font-size="14.00">cure_default</text>
</g>
<!-- S7&#45;&gt;S22 -->
<g id="edge115" class="edge">
<title>S7&#45;&gt;S22</title>
<path fill="none" stroke="black" d="M2597.08,-559.93C2646.78,-559.46 2886.06,-556.06 2956,-534 2968.36,-530.1 2968.55,-522.59 2981,-519 3071.38,-492.96 3720.81,-526.33 3848.37,-500.54"/>
<polygon fill="black" stroke="black" points="3849.3,-503.92 3858.17,-498.13 3847.63,-497.12 3849.3,-503.92"/>
<text text-anchor="middle" x="3050.5" y="-522.8" font-family="Times,serif" font-size="14.00">cure_default|cure_default</text>
</g>
<!-- S8&#45;&gt;S1 -->
<g id="edge106" class="edge">
<title>S8&#45;&gt;S1</title>
<path fill="none" stroke="black" d="M2600.84,-697.54C2539.42,-694.32 2190,-674.1 2190,-631 2190,-631 2190,-631 2190,-491 2190,-474.58 2191.51,-455.96 2192.87,-442.52"/>
<polygon fill="black" stroke="black" points="2196.39,-442.56 2193.99,-432.24 2189.43,-441.8 2196.39,-442.56"/>
<text text-anchor="middle" x="2337" y="-557.3" font-family="Times,serif" font-size="14.00">dont_cure_default|pay(normal, borrower, lender, 525)</text>
</g>
<!-- S8&#45;&gt;S2 -->
<g id="edge108" class="edge">
<title>S8&#45;&gt;S2</title>
<path fill="none" stroke="black" d="M2600.88,-697.79C2539.67,-696.35 2190.78,-687.45 2175,-672 2139.63,-637.37 2181.33,-493.1 2157,-450 2143.54,-426.15 2132.79,-423.21 2107,-414 2076.49,-403.11 1839.31,-418.5 1816,-396 1802.83,-383.29 1812,-373.31 1812,-355 1812,-355 1812,-355 1812,-146 1812,-98.35 2185.54,-82.69 2275.63,-79.61"/>
<polygon fill="black" stroke="black" points="2275.9,-83.1 2285.78,-79.27 2275.67,-76.11 2275.9,-83.1"/>
<text text-anchor="middle" x="1999" y="-384.8" font-family="Times,serif" font-size="14.00">dont_cure_default|payment_default(normal, borrower, lender, 525)</text>
</g>
<!-- S8&#45;&gt;S2 -->
<g id="edge112" class="edge">
<title>S8&#45;&gt;S2</title>
<path fill="none" stroke="black" d="M2600.88,-697.96C2551,-697.65 2310.85,-694.99 2241,-672 2209.62,-661.67 2179,-664.04 2179,-631 2179,-631 2179,-631 2179,-456.5 2179,-439.72 2190.37,-393.34 2179,-381 2145.6,-344.77 1994.24,-396.38 1958,-363 1943.92,-350.03 1951,-339.64 1951,-320.5 1951,-320.5 1951,-320.5 1951,-146 1951,-124.18 1959.23,-116.13 1978,-105 2003.6,-89.82 2210.89,-81.77 2275.7,-79.6"/>
<polygon fill="black" stroke="black" points="2276.19,-83.09 2286.07,-79.27 2275.96,-76.09 2276.19,-83.09"/>
<text text-anchor="middle" x="2232.5" y="-384.8" font-family="Times,serif" font-size="14.00">dont_cure_default</text>
</g>
<!-- S8&#45;&gt;S10 -->
<g id="edge105" class="edge">
<title>S8&#45;&gt;S10</title>
<path fill="none" stroke="black" d="M2619.17,-697.94C2724.9,-697.23 3709.73,-690.17 3733,-672 3751.53,-657.53 3730.22,-637.46 3747,-621 3775.07,-593.47 4052.63,-546.21 4090,-534 4283.14,-470.88 4360.9,-496.6 4514,-363 4516.53,-360.79 4572.87,-261.16 4574,-258 4580.24,-240.6 4581,-235.49 4581,-217 4581,-217 4581,-217 4581,-77 4581,-58.51 4587.47,-48.67 4574,-36 4558,-20.95 4407.29,-13.12 4353.2,-10.77"/>
<polygon fill="black" stroke="black" points="4353.09,-7.26 4342.95,-10.34 4352.8,-14.26 4353.09,-7.26"/>
<text text-anchor="middle" x="4655.5" y="-350.3" font-family="Times,serif" font-size="14.00">cure_default|pay(normal, borrower, lender, 525)</text>
</g>
<!-- S8&#45;&gt;S10 -->
<g id="edge111" class="edge">
<title>S8&#45;&gt;S10</title>
<path fill="none" stroke="black" d="M2618.97,-698C2676.97,-697.94 3005.11,-696.49 3271,-672 3372.52,-662.65 3397.57,-656.56 3498,-639 3687.93,-605.8 3732.8,-583.57 3923,-552 3985.32,-541.65 4005.37,-557.52 4064,-534 4129.63,-507.67 4257.6,-378.27 4320,-345 4421.22,-291.02 4489.27,-345.88 4563,-258 4574.88,-243.84 4570,-235.49 4570,-217 4570,-217 4570,-217 4570,-77 4570,-31.97 4409.02,-15.62 4352.97,-11.29"/>
<polygon fill="black" stroke="black" points="4353.19,-7.8 4342.96,-10.56 4352.68,-14.78 4353.19,-7.8"/>
<text text-anchor="middle" x="4416.5" y="-350.3" font-family="Times,serif" font-size="14.00">pay(normal, borrower, lender, 525)</text>
</g>
<!-- S8&#45;&gt;S13 -->
<g id="edge110" class="edge">
<title>S8&#45;&gt;S13</title>
<path fill="none" stroke="black" d="M2619.26,-697.5C2646.48,-695.83 2725.45,-689.55 2743,-672 2748.85,-666.14 2751.08,-657.35 2751.74,-649.41"/>
<polygon fill="black" stroke="black" points="2755.25,-649.19 2751.87,-639.15 2748.25,-649.11 2755.25,-649.19"/>
<text text-anchor="middle" x="2882.5" y="-660.8" font-family="Times,serif" font-size="14.00">payment_default(normal, borrower, lender, 525)</text>
</g>
<!-- S8&#45;&gt;S19 -->
<g id="edge107" class="edge">
<title>S8&#45;&gt;S19</title>
<path fill="none" stroke="black" d="M2609.38,-689.58C2606.7,-652 2596.66,-500.56 2608,-483 2615.47,-471.43 2710.25,-440.61 2721,-432 2736.61,-419.49 2737.97,-413.3 2748,-396 2760.38,-374.64 2750.74,-360.44 2770,-345 2815.83,-308.28 3001.9,-291.75 3062.11,-287.29"/>
<polygon fill="black" stroke="black" points="3062.38,-290.78 3072.11,-286.58 3061.88,-283.8 3062.38,-290.78"/>
<text text-anchor="middle" x="2775.5" y="-488.3" font-family="Times,serif" font-size="14.00">cure_default|payment_default(normal, borrower, lender, 525)</text>
</g>
<!-- S8&#45;&gt;S22 -->
<g id="edge109" class="edge">
<title>S8&#45;&gt;S22</title>
<path fill="none" stroke="black" d="M2618.97,-698.1C2670.74,-698.59 2936.49,-699.58 3151,-672 3369.04,-643.97 3426.15,-638.63 3635,-570 3686.96,-552.92 3694.72,-535.09 3747,-519 3789.25,-506 3805.52,-516.15 3848.5,-501.45"/>
<polygon fill="black" stroke="black" points="3849.92,-504.66 3858.1,-497.92 3847.51,-498.09 3849.92,-504.66"/>
<text text-anchor="middle" x="3610" y="-591.8" font-family="Times,serif" font-size="14.00">cure_default</text>
</g>
<!-- S9&#45;&gt;S2 -->
<g id="edge98" class="edge">
<title>S9&#45;&gt;S2</title>
<path fill="none" stroke="black" d="M2022.65,-760.33C2051.97,-725.35 2184.12,-563.02 2150,-519 2126.24,-488.35 1838.06,-460.72 1812,-432 1800.36,-419.17 1800,-372.32 1800,-355 1800,-355 1800,-355 1800,-146 1800,-129.49 1768.79,-134.37 1861,-105 1939.85,-79.88 2202.02,-78.72 2275.63,-78.9"/>
<polygon fill="black" stroke="black" points="2275.76,-82.4 2285.77,-78.94 2275.78,-75.4 2275.76,-82.4"/>
<text text-anchor="middle" x="1959" y="-419.3" font-family="Times,serif" font-size="14.00">dont_cure_default|pay(normal, borrower, lender, 550)</text>
</g>
<!-- S9&#45;&gt;S3 -->
<g id="edge100" class="edge">
<title>S9&#45;&gt;S3</title>
<path fill="none" stroke="black" d="M2022.29,-760.16C2025.8,-755.16 2030.11,-748.05 2032,-741 2045.8,-689.48 2048.92,-671.58 2032,-621 2019.81,-584.58 2013.53,-570.71 1980,-552 1942.39,-531.01 1816.01,-565.84 1787,-534 1755.21,-499.11 1878.46,-489.09 1852,-450 1839.92,-432.16 1823.31,-446.07 1807,-432 1760.24,-391.68 1789.73,-344.12 1737,-312 1695.1,-286.47 1340.1,-285.72 1253.16,-285.92"/>
<polygon fill="black" stroke="black" points="1253.11,-282.42 1243.12,-285.95 1253.13,-289.42 1253.11,-282.42"/>
<text text-anchor="middle" x="1970" y="-522.8" font-family="Times,serif" font-size="14.00">dont_cure_default|payment_default(normal, borrower, lender, 550)</text>
</g>
<!-- S9&#45;&gt;S3 -->
<g id="edge104" class="edge">
<title>S9&#45;&gt;S3</title>
<path fill="none" stroke="black" d="M2019.59,-759.2C2026.63,-736.48 2044.17,-668.94 2021,-621 1999.53,-576.56 1980,-569.88 1934,-552 1907.73,-541.79 1700.21,-554.62 1681,-534 1632.69,-482.13 1768.38,-437.82 1726,-381 1667.88,-303.08 1336.27,-288.81 1252.98,-286.44"/>
<polygon fill="black" stroke="black" points="1253.02,-282.94 1242.93,-286.18 1252.83,-289.93 1253.02,-282.94"/>
<text text-anchor="middle" x="1730.5" y="-522.8" font-family="Times,serif" font-size="14.00">dont_cure_default</text>
</g>
<!-- S9&#45;&gt;S8 -->
<g id="edge102" class="edge">
<title>S9&#45;&gt;S8</title>
<path fill="none" stroke="black" d="M2026.05,-766.43C2048.05,-764.78 2105.74,-758.96 2150,-741 2161.31,-736.41 2161.41,-729.82 2173,-726 2212.99,-712.81 2511.26,-702.97 2590.64,-700.57"/>
<polygon fill="black" stroke="black" points="2591.18,-704.05 2601.07,-700.26 2590.97,-697.06 2591.18,-704.05"/>
<text text-anchor="middle" x="2269.5" y="-729.8" font-family="Times,serif" font-size="14.00">pay(normal, borrower, lender, 550)</text>
</g>
<!-- S9&#45;&gt;S11 -->
<g id="edge103" class="edge">
<title>S9&#45;&gt;S11</title>
<path fill="none" stroke="black" d="M2015.2,-777.06C2012.64,-786.54 2006.98,-801.99 1996,-810 1843.54,-921.24 1764.82,-860.46 1577,-879 1277.75,-908.55 910.52,-906.3 823.25,-905.27"/>
<polygon fill="black" stroke="black" points="823.26,-901.77 813.22,-905.14 823.17,-908.77 823.26,-901.77"/>
<text text-anchor="middle" x="2000" y="-833.3" font-family="Times,serif" font-size="14.00">cure_default</text>
</g>
<!-- S15 -->
<g id="node16" class="node">
<title>S15</title>
<ellipse fill="none" stroke="black" cx="1349" cy="-561" rx="9" ry="9"/>
</g>
<!-- S9&#45;&gt;S15 -->
<g id="edge101" class="edge">
<title>S9&#45;&gt;S15</title>
<path fill="none" stroke="black" d="M2015.48,-759.04C2011.81,-740.27 2002.39,-694.49 1997,-690 1954.37,-654.5 1797.1,-697.82 1748,-672 1740.44,-668.03 1743.13,-661.69 1736,-657 1639.36,-593.39 1597.68,-614.22 1485,-588 1443.6,-578.37 1394.5,-569.64 1368.1,-565.16"/>
<polygon fill="black" stroke="black" points="1368.4,-561.66 1357.96,-563.46 1367.25,-568.56 1368.4,-561.66"/>
<text text-anchor="middle" x="1880.5" y="-660.8" font-family="Times,serif" font-size="14.00">payment_default(normal, borrower, lender, 550)</text>
</g>
<!-- S9&#45;&gt;S22 -->
<g id="edge97" class="edge">
<title>S9&#45;&gt;S22</title>
<path fill="none" stroke="black" d="M2025.95,-766.65C2054.43,-765.52 2145.56,-761.93 2221,-759 2263.5,-757.35 3751,-742.53 3751,-700 3751,-700 3751,-700 3751,-560 3751,-511.06 3801,-525.67 3848.72,-502.41"/>
<polygon fill="black" stroke="black" points="3850.47,-505.44 3857.59,-497.6 3847.13,-499.29 3850.47,-505.44"/>
<text text-anchor="middle" x="3882.5" y="-626.3" font-family="Times,serif" font-size="14.00">cure_default|pay(normal, borrower, lender, 550)</text>
</g>
<!-- S24 -->
<g id="node25" class="node">
<title>S24</title>
<ellipse fill="none" stroke="black" cx="976" cy="-699" rx="9" ry="9"/>
</g>
<!-- S9&#45;&gt;S24 -->
<g id="edge99" class="edge">
<title>S9&#45;&gt;S24</title>
<path fill="none" stroke="black" d="M2007.87,-767C1956.83,-766.92 1706.53,-765.26 1634,-741 1622.43,-737.13 1622.62,-729.72 1611,-726 1580.96,-716.4 1097.86,-703.2 995.12,-700.5"/>
<polygon fill="black" stroke="black" points="995.07,-696.99 984.98,-700.23 994.89,-703.99 995.07,-696.99"/>
<text text-anchor="middle" x="1801.5" y="-729.8" font-family="Times,serif" font-size="14.00">cure_default|payment_default(normal, borrower, lender, 550)</text>
</g>
<!-- S10&#45;&gt;S10 -->
<g id="edge96" class="edge">
<title>S10&#45;&gt;S10</title>
<path fill="none" stroke="black" d="M4340.82,-15.22C4342.77,-15.68 4344.58,-15.13 4344.44,-12.28"/>
<polygon fill="black" stroke="black" points="4347.65,-10.88 4340.82,-2.78 4341.11,-13.37 4347.65,-10.88"/>
<text text-anchor="middle" x="4369" y="-5.3" font-family="Times,serif" font-size="14.00">fulfilled</text>
</g>
<!-- S12 -->
<g id="node13" class="node">
<title>S12</title>
<ellipse fill="none" stroke="black" cx="1596" cy="-837" rx="9" ry="9"/>
</g>
<!-- S11&#45;&gt;S12 -->
<g id="edge92" class="edge">
<title>S11&#45;&gt;S12</title>
<path fill="none" stroke="black" d="M813.02,-905.12C867.47,-905.75 1157.69,-907.55 1392,-879 1461.25,-870.56 1542.1,-851.53 1577.65,-842.68"/>
<polygon fill="black" stroke="black" points="1578.68,-846.03 1587.53,-840.19 1576.97,-839.24 1578.68,-846.03"/>
<text text-anchor="middle" x="1529" y="-867.8" font-family="Times,serif" font-size="14.00">borrower_default</text>
</g>
<!-- S11&#45;&gt;S21 -->
<g id="edge95" class="edge">
<title>S11&#45;&gt;S21</title>
<path fill="none" stroke="black" d="M812.98,-905.03C936.33,-905.48 2305.31,-909.66 3410,-879 3510.07,-876.22 4310,-938.1 4310,-838 4310,-838 4310,-838 4310,-422 4310,-382.91 4008.98,-361.22 3929.21,-356.16"/>
<polygon fill="black" stroke="black" points="3929.3,-352.66 3919.11,-355.53 3928.87,-359.64 3929.3,-352.66"/>
<text text-anchor="middle" x="4454.5" y="-626.3" font-family="Times,serif" font-size="14.00">borrower_default|pay(normal, borrower, lender, 550)</text>
</g>
<!-- S11&#45;&gt;S22 -->
<g id="edge94" class="edge">
<title>S11&#45;&gt;S22</title>
<path fill="none" stroke="black" d="M813.16,-904.94C1003.48,-903.67 4097,-882.34 4097,-838 4097,-838 4097,-838 4097,-560 4097,-536.61 4084.4,-530.45 4064,-519 4033.46,-501.86 3928.17,-495.6 3884.36,-493.71"/>
<polygon fill="black" stroke="black" points="3884.32,-490.21 3874.18,-493.3 3884.04,-497.2 3884.32,-490.21"/>
<text text-anchor="middle" x="4193.5" y="-695.3" font-family="Times,serif" font-size="14.00">pay(normal, borrower, lender, 550)</text>
</g>
<!-- S23 -->
<g id="node24" class="node">
<title>S23</title>
<ellipse fill="none" stroke="black" cx="1103" cy="-630" rx="9" ry="9"/>
</g>
<!-- S11&#45;&gt;S23 -->
<g id="edge93" class="edge">
<title>S11&#45;&gt;S23</title>
<path fill="none" stroke="black" d="M795.28,-903.32C747.02,-893.69 517.3,-842.8 582,-759 645.81,-676.36 997.44,-640.29 1083.83,-632.61"/>
<polygon fill="black" stroke="black" points="1084.34,-636.08 1094.01,-631.73 1083.74,-629.1 1084.34,-636.08"/>
<text text-anchor="middle" x="762.5" y="-764.3" font-family="Times,serif" font-size="14.00">borrower_default|payment_default(normal, borrower, lender, 550)</text>
</g>
<!-- S11&#45;&gt;S24 -->
<g id="edge91" class="edge">
<title>S11&#45;&gt;S24</title>
<path fill="none" stroke="black" d="M803.26,-896.9C801.88,-876.43 801.38,-822.34 831,-795 867.72,-761.1 901.73,-806.6 942,-777 960.92,-763.09 969.48,-736.32 973.24,-718.3"/>
<polygon fill="black" stroke="black" points="976.69,-718.87 975,-708.41 969.8,-717.64 976.69,-718.87"/>
<text text-anchor="middle" x="963.5" y="-798.8" font-family="Times,serif" font-size="14.00">payment_default(normal, borrower, lender, 550)</text>
</g>
<!-- S12&#45;&gt;S8 -->
<g id="edge89" class="edge">
<title>S12&#45;&gt;S8</title>
<path fill="none" stroke="black" d="M1605.05,-835.79C1648.52,-834.69 1840.22,-828.96 1996,-810 2232.74,-781.19 2516.53,-720.55 2591.24,-704.16"/>
<polygon fill="black" stroke="black" points="2592.39,-707.49 2601.4,-701.92 2590.88,-700.65 2592.39,-707.49"/>
<text text-anchor="middle" x="2486" y="-764.3" font-family="Times,serif" font-size="14.00">notify_borrower_of_default|pay(normal, borrower, lender, 550)</text>
</g>
<!-- S12&#45;&gt;S9 -->
<g id="edge85" class="edge">
<title>S12&#45;&gt;S9</title>
<path fill="none" stroke="black" d="M1604.79,-834.6C1656.8,-826.32 1924.36,-783.74 1998.14,-772"/>
<polygon fill="black" stroke="black" points="1998.93,-775.42 2008.26,-770.39 1997.83,-768.51 1998.93,-775.42"/>
<text text-anchor="middle" x="1919.5" y="-798.8" font-family="Times,serif" font-size="14.00">notify_borrower_of_default</text>
</g>
<!-- S12&#45;&gt;S11 -->
<g id="edge86" class="edge">
<title>S12&#45;&gt;S11</title>
<path fill="none" stroke="black" d="M1586.92,-838.77C1507.76,-845.46 935.19,-893.9 823.03,-903.39"/>
<polygon fill="black" stroke="black" points="822.56,-899.92 812.89,-904.25 823.15,-906.89 822.56,-899.92"/>
<text text-anchor="middle" x="1331" y="-867.8" font-family="Times,serif" font-size="14.00">dont_notify_borrower</text>
</g>
<!-- S12&#45;&gt;S15 -->
<g id="edge87" class="edge">
<title>S12&#45;&gt;S15</title>
<path fill="none" stroke="black" d="M1601.29,-829.16C1604.8,-824.16 1609.11,-817.05 1611,-810 1620.66,-773.94 1636.68,-753.1 1611,-726 1559.87,-672.05 1328.13,-761.95 1277,-708 1257.54,-687.46 1312.57,-609.73 1337.47,-576.84"/>
<polygon fill="black" stroke="black" points="1340.55,-578.58 1343.86,-568.51 1335,-574.31 1340.55,-578.58"/>
<text text-anchor="middle" x="1486" y="-695.3" font-family="Times,serif" font-size="14.00">notify_borrower_of_default|payment_default(normal, borrower, lender, 550)</text>
</g>
<!-- S12&#45;&gt;S21 -->
<g id="edge84" class="edge">
<title>S12&#45;&gt;S21</title>
<path fill="none" stroke="black" d="M1605.09,-835.7C1764.73,-830.44 3975.68,-756.14 4079,-672 4116.16,-641.74 4105.77,-617.22 4114,-570 4124.53,-509.57 4115.56,-493.34 4116,-432 4116.17,-408.71 4122.14,-395.6 4104,-381 4077.39,-359.59 3972.94,-355.77 3929.31,-355.12"/>
<polygon fill="black" stroke="black" points="3929.21,-351.62 3919.17,-355.01 3929.13,-358.62 3929.21,-351.62"/>
<text text-anchor="middle" x="4207.5" y="-591.8" font-family="Times,serif" font-size="14.00">pay(normal, borrower, lender, 550)</text>
</g>
<!-- S12&#45;&gt;S22 -->
<g id="edge90" class="edge">
<title>S12&#45;&gt;S22</title>
<path fill="none" stroke="black" d="M1605.17,-835.55C1725.17,-829.61 2987.91,-766.98 3361,-741 3446.88,-735.02 3678.01,-759.49 3747,-708 3766.51,-693.44 3747.4,-671.44 3767,-657 3811.31,-624.36 3976.53,-679.3 4014,-639 4019.45,-633.14 4017.34,-628.27 4014,-621 4006.72,-605.14 3915.85,-532.83 3879.7,-504.47"/>
<polygon fill="black" stroke="black" points="3881.8,-501.67 3871.77,-498.26 3877.49,-507.18 3881.8,-501.67"/>
<text text-anchor="middle" x="3924.5" y="-660.8" font-family="Times,serif" font-size="14.00">dont_notify_borrower|pay(normal, borrower, lender, 550)</text>
</g>
<!-- S12&#45;&gt;S23 -->
<g id="edge83" class="edge">
<title>S12&#45;&gt;S23</title>
<path fill="none" stroke="black" d="M1598.4,-827.83C1602.49,-812 1608.66,-777.12 1590,-759 1560.15,-730.02 1247.72,-767.93 1216,-741 1186.89,-716.29 1224.23,-684.74 1198,-657 1192.71,-651.4 1147.77,-640.8 1121.64,-635.01"/>
<polygon fill="black" stroke="black" points="1122.28,-631.57 1111.76,-632.86 1120.79,-638.41 1122.28,-631.57"/>
<text text-anchor="middle" x="1348.5" y="-729.8" font-family="Times,serif" font-size="14.00">payment_default(normal, borrower, lender, 550)</text>
</g>
<!-- S12&#45;&gt;S24 -->
<g id="edge88" class="edge">
<title>S12&#45;&gt;S24</title>
<path fill="none" stroke="black" d="M1586.78,-835.65C1534.13,-833.47 1271.6,-820.56 1206,-777 1198.19,-771.81 1202.5,-764.62 1195,-759 1132.61,-712.29 1035.78,-702.54 995.06,-700.52"/>
<polygon fill="black" stroke="black" points="995.07,-697.02 984.94,-700.12 994.79,-704.01 995.07,-697.02"/>
<text text-anchor="middle" x="1399.5" y="-764.3" font-family="Times,serif" font-size="14.00">dont_notify_borrower|payment_default(normal, borrower, lender, 550)</text>
</g>
<!-- S13&#45;&gt;S2 -->
<g id="edge77" class="edge">
<title>S13&#45;&gt;S2</title>
<path fill="none" stroke="black" d="M2742.07,-628.55C2700.65,-626.39 2528.47,-616.64 2509,-603 2488.32,-588.52 2504.7,-566.44 2484,-552 2452.12,-529.76 2338.11,-560.85 2310,-534 2285.13,-510.26 2312.42,-404.15 2287,-381 2234.01,-332.74 2016.05,-413.3 1965,-363 1951.51,-349.71 1962,-339.44 1962,-320.5 1962,-320.5 1962,-320.5 1962,-146 1962,-81.62 2204.24,-78.32 2275.51,-78.74"/>
<polygon fill="black" stroke="black" points="2275.71,-82.25 2285.75,-78.84 2275.78,-75.25 2275.71,-82.25"/>
<text text-anchor="middle" x="2075.5" y="-350.3" font-family="Times,serif" font-size="14.00">dont_cure_default|dont_notify_borrower</text>
</g>
<!-- S13&#45;&gt;S2 -->
<g id="edge78" class="edge">
<title>S13&#45;&gt;S2</title>
<path fill="none" stroke="black" d="M2741.95,-628.48C2701.53,-626.09 2538.68,-615.72 2520,-603 2498.8,-588.56 2514.24,-566.38 2493,-552 2461.72,-530.83 2351.85,-559.51 2324,-534 2272.9,-487.19 2343.38,-429.62 2294,-381 2261.82,-349.32 2224.17,-396.6 2194,-363 2181.35,-348.91 2191,-339.44 2191,-320.5 2191,-320.5 2191,-320.5 2191,-146 2191,-106.01 2246.03,-88.74 2276.03,-82.31"/>
<polygon fill="black" stroke="black" points="2276.98,-85.69 2286.13,-80.34 2275.65,-78.81 2276.98,-85.69"/>
<text text-anchor="middle" x="2320.5" y="-350.3" font-family="Times,serif" font-size="14.00">dont_cure_default|notify_borrower_of_default</text>
</g>
<!-- S13&#45;&gt;S2 -->
<g id="edge82" class="edge">
<title>S13&#45;&gt;S2</title>
<path fill="none" stroke="black" d="M2742.29,-626.9C2725.11,-622.72 2685.69,-612.88 2653,-603 2585.6,-582.63 2570.05,-573.51 2503,-552 2428.29,-528.04 2380.78,-563.98 2334,-501 2310.22,-468.98 2327.47,-441.87 2356,-414 2388.33,-382.41 2421.43,-402.17 2444,-363 2447.99,-356.07 2449.32,-350.98 2444,-345 2398.19,-293.52 2339.99,-374.43 2290,-327 2276.59,-314.28 2283,-304.49 2283,-286 2283,-286 2283,-286 2283,-146 2283,-129.01 2286.78,-109.98 2290.1,-96.55"/>
<polygon fill="black" stroke="black" points="2293.52,-97.32 2292.69,-86.76 2286.75,-95.53 2293.52,-97.32"/>
<text text-anchor="middle" x="2496.5" y="-350.3" font-family="Times,serif" font-size="14.00">dont_cure_default</text>
</g>
<!-- S13&#45;&gt;S7 -->
<g id="edge79" class="edge">
<title>S13&#45;&gt;S7</title>
<path fill="none" stroke="black" d="M2742.69,-625.59C2717.29,-615.15 2640.29,-583.49 2605.45,-569.17"/>
<polygon fill="black" stroke="black" points="2606.68,-565.89 2596.1,-565.33 2604.02,-572.37 2606.68,-565.89"/>
<text text-anchor="middle" x="2759.5" y="-591.8" font-family="Times,serif" font-size="14.00">notify_borrower_of_default</text>
</g>
<!-- S13&#45;&gt;S8 -->
<g id="edge81" class="edge">
<title>S13&#45;&gt;S8</title>
<path fill="none" stroke="black" d="M2742.06,-631.76C2716.5,-634.1 2643.77,-641.97 2626,-657 2619.18,-662.76 2615.26,-671.8 2613,-679.93"/>
<polygon fill="black" stroke="black" points="2609.57,-679.22 2610.9,-689.73 2616.42,-680.69 2609.57,-679.22"/>
<text text-anchor="middle" x="2686" y="-660.8" font-family="Times,serif" font-size="14.00">dont_notify_borrower</text>
</g>
<!-- S13&#45;&gt;S14 -->
<g id="edge76" class="edge">
<title>S13&#45;&gt;S14</title>
<path fill="none" stroke="black" d="M2759.97,-629.12C2810.07,-629.66 3055.7,-630.85 3125,-603 3134.66,-599.12 3133.33,-591.87 3143,-588 3171.02,-576.79 3393.38,-592.03 3414,-570 3443.1,-538.9 3431.28,-550.98 3282,-483 3262.02,-473.9 3249.02,-482.67 3236,-465 3224.91,-449.95 3219.08,-395.41 3231,-381 3312.62,-282.34 3432.38,-425.66 3514,-327 3528.45,-309.53 3527.69,-294.07 3514,-276 3454.66,-197.69 3125.48,-158.56 3042.83,-149.88"/>
<polygon fill="black" stroke="black" points="3043.16,-146.4 3032.86,-148.86 3042.45,-153.36 3043.16,-146.4"/>
<text text-anchor="middle" x="3342" y="-384.8" font-family="Times,serif" font-size="14.00">cure_default|notify_borrower_of_default</text>
</g>
<!-- S13&#45;&gt;S19 -->
<g id="edge80" class="edge">
<title>S13&#45;&gt;S19</title>
<path fill="none" stroke="black" d="M2759.94,-628.41C2801.96,-625.28 2982.92,-607.89 3106,-534 3113.82,-529.31 3111.89,-523.17 3120,-519 3147.3,-504.95 3236.75,-524.08 3257,-501 3287.7,-466.01 3260.06,-486.19 3133,-465 3035.26,-448.7 2959.55,-487.28 2921,-396 2918.41,-389.86 2917.35,-386.58 2921,-381 2931.88,-364.34 2946.3,-375.23 2962,-363 2970,-356.77 2968.81,-352.14 2976,-345 2993.09,-328.02 2998.16,-324.09 3019,-312 3033.2,-303.76 3050.5,-296.73 3063.22,-292.06"/>
<polygon fill="black" stroke="black" points="3064.4,-295.36 3072.66,-288.73 3062.06,-288.76 3064.4,-295.36"/>
<text text-anchor="middle" x="3167" y="-453.8" font-family="Times,serif" font-size="14.00">cure_default</text>
</g>
<!-- S13&#45;&gt;S22 -->
<g id="edge75" class="edge">
<title>S13&#45;&gt;S22</title>
<path fill="none" stroke="black" d="M2760.31,-628.97C2840.42,-628.72 3411.01,-626.08 3438,-603 3455.55,-587.99 3431.49,-568.16 3448,-552 3509.26,-492.05 3552.99,-529.94 3638,-519 3729.43,-507.24 3759.3,-529.23 3848.45,-501.21"/>
<polygon fill="black" stroke="black" points="3849.73,-504.47 3858.14,-498.04 3847.55,-497.82 3849.73,-504.47"/>
<text text-anchor="middle" x="3543" y="-557.3" font-family="Times,serif" font-size="14.00">cure_default|dont_notify_borrower</text>
</g>
<!-- S14&#45;&gt;S2 -->
<g id="edge64" class="edge">
<title>S14&#45;&gt;S2</title>
<path fill="none" stroke="black" d="M3014.71,-145.21C2977.43,-141.98 2839.94,-129.53 2823,-120 2815.56,-115.81 2818.6,-108.89 2811,-105 2766.2,-82.06 2403.39,-79.36 2314.57,-79.04"/>
<polygon fill="black" stroke="black" points="2314.33,-75.54 2304.32,-79.01 2314.31,-82.54 2314.33,-75.54"/>
<text text-anchor="middle" x="2921" y="-108.8" font-family="Times,serif" font-size="14.00">borrower_default|dont_cure_default</text>
</g>
<!-- S14&#45;&gt;S2 -->
<g id="edge66" class="edge">
<title>S14&#45;&gt;S2</title>
<path fill="none" stroke="black" d="M3025.07,-137.94C3025.83,-128.46 3025.37,-113.01 3016,-105 2988.55,-81.55 2425.58,-79.25 2314.09,-79.02"/>
<polygon fill="black" stroke="black" points="2314,-75.52 2303.99,-79.01 2313.99,-82.52 2314,-75.52"/>
<text text-anchor="middle" x="3072.5" y="-108.8" font-family="Times,serif" font-size="14.00">dont_cure_default</text>
</g>
<!-- S14&#45;&gt;S17 -->
<g id="edge62" class="edge">
<title>S14&#45;&gt;S17</title>
<path fill="none" stroke="black" d="M3015.06,-148.21C2995.42,-149.06 2947.7,-153.27 2915,-174 2907.79,-178.57 2910.3,-184.58 2903,-189 2867.08,-210.76 2816.59,-214.81 2789.31,-215.28"/>
<polygon fill="black" stroke="black" points="2789.15,-211.78 2779.15,-215.3 2789.16,-218.78 2789.15,-211.78"/>
<text text-anchor="middle" x="2962" y="-177.8" font-family="Times,serif" font-size="14.00">borrower_default</text>
</g>
<!-- S14&#45;&gt;S21 -->
<g id="edge63" class="edge">
<title>S14&#45;&gt;S21</title>
<path fill="none" stroke="black" d="M3033.04,-148.04C3096.92,-148.4 3479.18,-151.47 3525,-174 3530.52,-176.71 3591.89,-254.58 3597,-258 3661.15,-300.88 3696.96,-270.49 3762,-312 3769.69,-316.91 3768.02,-322.58 3776,-327 3813,-347.49 3863.55,-352.05 3890.77,-352.93"/>
<polygon fill="black" stroke="black" points="3890.83,-356.43 3900.89,-353.12 3890.96,-349.43 3890.83,-356.43"/>
<text text-anchor="middle" x="3679.5" y="-246.8" font-family="Times,serif" font-size="14.00">borrower_default|cure_default</text>
</g>
<!-- S14&#45;&gt;S22 -->
<g id="edge65" class="edge">
<title>S14&#45;&gt;S22</title>
<path fill="none" stroke="black" d="M3032.97,-148.07C3122.34,-148.8 3849.84,-155.26 3891,-174 3891.52,-174.24 4112.79,-413.47 4113,-414 4115.92,-421.45 4117.96,-425.72 4113,-432 4084.31,-468.32 3936.96,-484.67 3883.99,-489.44"/>
<polygon fill="black" stroke="black" points="3883.6,-485.96 3873.94,-490.31 3884.21,-492.94 3883.6,-485.96"/>
<text text-anchor="middle" x="4065" y="-315.8" font-family="Times,serif" font-size="14.00">cure_default</text>
</g>
<!-- S15&#45;&gt;S3 -->
<g id="edge56" class="edge">
<title>S15&#45;&gt;S3</title>
<path fill="none" stroke="black" d="M1342.1,-555.08C1340.2,-553.91 1338.08,-552.78 1336,-552 1291.28,-535.17 1275.68,-548.02 1230,-534 1177.71,-517.95 1170.29,-499.05 1118,-483 1072.32,-468.98 1044.98,-499.58 1012,-465 996.31,-448.55 996.55,-433.64 1008,-414 1054.26,-334.63 1170.03,-300.52 1215.37,-289.9"/>
<polygon fill="black" stroke="black" points="1216.29,-293.28 1225.3,-287.7 1214.77,-286.45 1216.29,-293.28"/>
<text text-anchor="middle" x="1118.5" y="-419.3" font-family="Times,serif" font-size="14.00">dont_cure_default|dont_notify_borrower</text>
</g>
<!-- S15&#45;&gt;S3 -->
<g id="edge57" class="edge">
<title>S15&#45;&gt;S3</title>
<path fill="none" stroke="black" d="M1341.6,-555.4C1339.77,-554.28 1337.82,-553.09 1336,-552 1291.03,-525.16 1234,-545.37 1234,-493 1234,-493 1234,-493 1234,-353 1234,-336.63 1234,-318 1234,-304.55"/>
<polygon fill="black" stroke="black" points="1237.5,-304.25 1234,-294.25 1230.5,-304.25 1237.5,-304.25"/>
<text text-anchor="middle" x="1360.5" y="-419.3" font-family="Times,serif" font-size="14.00">dont_cure_default|notify_borrower_of_default</text>
</g>
<!-- S15&#45;&gt;S3 -->
<g id="edge61" class="edge">
<title>S15&#45;&gt;S3</title>
<path fill="none" stroke="black" d="M1355.95,-555.25C1386.79,-533.89 1508.77,-446.43 1487,-414 1475.22,-396.46 1462.15,-404.93 1443,-396 1369.61,-361.77 1285.06,-314.88 1250.25,-295.24"/>
<polygon fill="black" stroke="black" points="1251.89,-292.15 1241.46,-290.26 1248.44,-298.24 1251.89,-292.15"/>
<text text-anchor="middle" x="1538.5" y="-419.3" font-family="Times,serif" font-size="14.00">dont_cure_default</text>
</g>
<!-- S15&#45;&gt;S6 -->
<g id="edge58" class="edge">
<title>S15&#45;&gt;S6</title>
<path fill="none" stroke="black" d="M1358.25,-560.14C1380.07,-560.07 1435.84,-557.42 1474,-534 1481.28,-529.53 1478.68,-523.39 1486,-519 1524.21,-496.11 1577.98,-492.56 1606.49,-492.47"/>
<polygon fill="black" stroke="black" points="1606.68,-495.97 1616.72,-492.58 1606.76,-488.97 1606.68,-495.97"/>
<text text-anchor="middle" x="1561.5" y="-522.8" font-family="Times,serif" font-size="14.00">notify_borrower_of_default</text>
</g>
<!-- S15&#45;&gt;S9 -->
<g id="edge60" class="edge">
<title>S15&#45;&gt;S9</title>
<path fill="none" stroke="black" d="M1357.82,-563.47C1392.5,-569.57 1521.81,-595.61 1607,-657 1613.93,-661.99 1611.4,-668.12 1619,-672 1655.55,-690.68 1955.97,-664.32 1988,-690 2006.34,-704.7 1992.94,-719.31 2002,-741 2003.41,-744.37 2005.16,-747.84 2006.98,-751.1"/>
<polygon fill="black" stroke="black" points="2004.15,-753.18 2012.28,-759.97 2010.15,-749.59 2004.15,-753.18"/>
<text text-anchor="middle" x="1679" y="-660.8" font-family="Times,serif" font-size="14.00">dont_notify_borrower</text>
</g>
<!-- S15&#45;&gt;S11 -->
<g id="edge54" class="edge">
<title>S15&#45;&gt;S11</title>
<path fill="none" stroke="black" d="M1342.17,-567.13C1340.27,-568.29 1338.13,-569.37 1336,-570 1252.01,-594.81 635.06,-578.53 548,-588 472.35,-596.23 435.76,-569.22 380,-621 362.78,-636.99 378.09,-651.84 366,-672 348.05,-701.93 322.79,-693.94 309,-726 293.51,-762.02 307.95,-782.59 336,-810 359.9,-833.35 371.18,-833.09 402,-846 539.85,-903.74 724.88,-906.32 784.57,-905.49"/>
<polygon fill="black" stroke="black" points="784.86,-908.99 794.79,-905.3 784.72,-901.99 784.86,-908.99"/>
<text text-anchor="middle" x="404" y="-729.8" font-family="Times,serif" font-size="14.00">cure_default|dont_notify_borrower</text>
</g>
<!-- S15&#45;&gt;S18 -->
<g id="edge55" class="edge">
<title>S15&#45;&gt;S18</title>
<path fill="none" stroke="black" d="M1342.14,-554.97C1340.24,-553.8 1338.11,-552.7 1336,-552 1249.6,-523.38 1220.38,-555.76 1132,-534 1115.17,-529.86 1112.82,-523.19 1096,-519 1012.83,-498.28 984.78,-529.64 904,-501 890.41,-496.18 890.5,-488.09 877,-483 773.36,-443.94 739.94,-463.42 630,-450 549.9,-440.22 454.24,-430.13 414.15,-425.97"/>
<polygon fill="black" stroke="black" points="414.28,-422.47 403.97,-424.92 413.56,-429.43 414.28,-422.47"/>
<text text-anchor="middle" x="1015" y="-488.3" font-family="Times,serif" font-size="14.00">cure_default|notify_borrower_of_default</text>
</g>
<!-- S15&#45;&gt;S24 -->
<g id="edge59" class="edge">
<title>S15&#45;&gt;S24</title>
<path fill="none" stroke="black" d="M1341.7,-566.78C1339.87,-567.9 1337.89,-569.04 1336,-570 1317.16,-579.57 1309.39,-576 1292,-588 1284.49,-593.18 1285.77,-598.22 1278,-603 1253.56,-618.03 1236.86,-601.29 1216,-621 1198.53,-637.51 1216.78,-657 1198,-672 1166.91,-696.83 1043.19,-698.57 995.18,-698.27"/>
<polygon fill="black" stroke="black" points="995.21,-694.77 985.18,-698.17 995.14,-701.77 995.21,-694.77"/>
<text text-anchor="middle" x="1250" y="-626.3" font-family="Times,serif" font-size="14.00">cure_default</text>
</g>
<!-- S16 -->
<g id="node17" class="node">
<title>S16</title>
<ellipse fill="none" stroke="black" cx="637" cy="-354" rx="9" ry="9"/>
</g>
<!-- S16&#45;&gt;S3 -->
<g id="edge48" class="edge">
<title>S16&#45;&gt;S3</title>
<path fill="none" stroke="black" d="M646.02,-353.26C668.39,-353.49 727.58,-351.56 768,-327 775.3,-322.57 772.41,-315.92 780,-312 819.03,-291.85 1133.32,-287.08 1214.78,-286.18"/>
<polygon fill="black" stroke="black" points="1215.08,-289.68 1225.04,-286.08 1215.01,-282.68 1215.08,-289.68"/>
<text text-anchor="middle" x="890.5" y="-315.8" font-family="Times,serif" font-size="14.00">dont_cure_default|dont_notify_borrower</text>
</g>
<!-- S16&#45;&gt;S3 -->
<g id="edge49" class="edge">
<title>S16&#45;&gt;S3</title>
<path fill="none" stroke="black" d="M628.13,-351.66C616.93,-349.99 597.06,-347.1 580,-345 542.3,-340.36 435.41,-355.24 410,-327 405.54,-322.04 405.36,-316.79 410,-312 438.92,-282.16 1093.61,-285.06 1214.8,-285.86"/>
<polygon fill="black" stroke="black" points="1214.8,-289.36 1224.82,-285.93 1214.85,-282.36 1214.8,-289.36"/>
<text text-anchor="middle" x="536.5" y="-315.8" font-family="Times,serif" font-size="14.00">dont_cure_default|notify_borrower_of_default</text>
</g>
<!-- S16&#45;&gt;S3 -->
<g id="edge53" class="edge">
<title>S16&#45;&gt;S3</title>
<path fill="none" stroke="black" d="M643.11,-346.93C648.02,-341.87 654.91,-334.33 660,-327 664.31,-320.79 661.61,-316.03 668,-312 715,-282.31 1120.38,-284.78 1214.53,-285.77"/>
<polygon fill="black" stroke="black" points="1214.6,-289.27 1224.63,-285.88 1214.67,-282.27 1214.6,-289.27"/>
<text text-anchor="middle" x="717.5" y="-315.8" font-family="Times,serif" font-size="14.00">dont_cure_default</text>
</g>
<!-- S16&#45;&gt;S6 -->
<g id="edge50" class="edge">
<title>S16&#45;&gt;S6</title>
<path fill="none" stroke="black" d="M646.18,-354.82C681.83,-354.32 810.61,-354.41 839,-381 855.86,-396.79 831.73,-416.66 849,-432 849,-432 1487.27,-480.47 1606.83,-489.54"/>
<polygon fill="black" stroke="black" points="1606.77,-493.05 1617.01,-490.32 1607.3,-486.07 1606.77,-493.05"/>
<text text-anchor="middle" x="924.5" y="-419.3" font-family="Times,serif" font-size="14.00">notify_borrower_of_default</text>
</g>
<!-- S16&#45;&gt;S9 -->
<g id="edge47" class="edge">
<title>S16&#45;&gt;S9</title>
<path fill="none" stroke="black" d="M645.05,-358.54C672.26,-370.4 763.49,-409.26 842,-432 911.32,-452.08 930.08,-451.62 1001,-465 1024.48,-469.43 1090.66,-465.56 1107,-483 1143.71,-522.18 1087.98,-560.66 1121,-603 1146.48,-635.67 1166.66,-629.51 1207,-639 1325.8,-666.94 1359.46,-645.95 1481,-657 1538.48,-662.23 1552.48,-667.25 1610,-672 1650.8,-675.37 1944.96,-665.83 1978,-690 1997.52,-704.28 1985.27,-719.84 1997,-741 1999.17,-744.92 2001.9,-748.89 2004.64,-752.51"/>
<polygon fill="black" stroke="black" points="2002.13,-754.98 2011.15,-760.54 2007.57,-750.57 2002.13,-754.98"/>
<text text-anchor="middle" x="1224" y="-557.3" font-family="Times,serif" font-size="14.00">cure_default|notify_borrower_of_default</text>
</g>
<!-- S16&#45;&gt;S11 -->
<g id="edge46" class="edge">
<title>S16&#45;&gt;S11</title>
<path fill="none" stroke="black" d="M628.19,-356.52C617.86,-358.26 600.23,-361.12 585,-363 542.25,-368.28 430.67,-362.01 392,-381 326.51,-413.15 330.13,-448 280,-501 229.24,-554.67 192.54,-552.46 165,-621 157.96,-638.53 166,-644.61 166,-663.5 166,-838 166,-838 166,-838 166,-901.87 678.31,-905.07 784.77,-905.05"/>
<polygon fill="black" stroke="black" points="784.99,-908.55 794.98,-905.04 784.98,-901.55 784.99,-908.55"/>
<text text-anchor="middle" x="260" y="-626.3" font-family="Times,serif" font-size="14.00">cure_default|dont_notify_borrower</text>
</g>
<!-- S16&#45;&gt;S12 -->
<g id="edge51" class="edge">
<title>S16&#45;&gt;S12</title>
<path fill="none" stroke="black" d="M633.81,-362.61C630.3,-370.89 624.44,-384.47 619,-396 578.78,-481.23 514.44,-529.16 573,-603 683.13,-741.86 779.53,-683.75 940,-759 955.84,-766.43 958.4,-771.47 975,-777 1020.34,-792.1 1038.54,-773.07 1081,-795 1089.38,-799.33 1087.39,-806.17 1096,-810 1140.51,-829.81 1490.54,-834.86 1576.83,-835.81"/>
<polygon fill="black" stroke="black" points="1576.96,-839.31 1587,-835.92 1577.03,-832.31 1576.96,-839.31"/>
<text text-anchor="middle" x="607" y="-591.8" font-family="Times,serif" font-size="14.00">cure_default</text>
</g>
<!-- S16&#45;&gt;S18 -->
<g id="edge52" class="edge">
<title>S16&#45;&gt;S18</title>
<path fill="none" stroke="black" d="M628.17,-356.34C599.92,-360.67 512.93,-374.4 502,-381 494.69,-385.41 497.13,-391.31 490,-396 466.6,-411.38 434.26,-417.73 414,-420.3"/>
<polygon fill="black" stroke="black" points="413.43,-416.84 403.87,-421.4 414.18,-423.8 413.43,-416.84"/>
<text text-anchor="middle" x="562" y="-384.8" font-family="Times,serif" font-size="14.00">dont_notify_borrower</text>
</g>
<!-- S17&#45;&gt;S2 -->
<g id="edge69" class="edge">
<title>S17&#45;&gt;S2</title>
<path fill="none" stroke="black" d="M2760.99,-215.2C2703.34,-216.28 2386.24,-219.26 2320,-156 2303.3,-140.05 2318.1,-126.63 2310,-105 2308.72,-101.58 2307.02,-98.09 2305.22,-94.82"/>
<polygon fill="black" stroke="black" points="2308.04,-92.72 2299.87,-85.97 2302.05,-96.34 2308.04,-92.72"/>
<text text-anchor="middle" x="2430.5" y="-143.3" font-family="Times,serif" font-size="14.00">dont_cure_default|dont_notify_borrower</text>
</g>
<!-- S17&#45;&gt;S2 -->
<g id="edge70" class="edge">
<title>S17&#45;&gt;S2</title>
<path fill="none" stroke="black" d="M2760.98,-214.9C2728.83,-214.11 2618.04,-207.57 2549,-156 2541.49,-150.39 2545.57,-143.53 2538,-138 2467.81,-86.8 2358.87,-79.59 2314.65,-78.89"/>
<polygon fill="black" stroke="black" points="2314.44,-75.39 2304.42,-78.83 2314.4,-82.39 2314.44,-75.39"/>
<text text-anchor="middle" x="2675.5" y="-143.3" font-family="Times,serif" font-size="14.00">dont_cure_default|notify_borrower_of_default</text>
</g>
<!-- S17&#45;&gt;S2 -->
<g id="edge74" class="edge">
<title>S17&#45;&gt;S2</title>
<path fill="none" stroke="black" d="M2769.75,-206.89C2769.85,-198.18 2771.04,-184.24 2777,-174 2783.35,-163.08 2793.59,-167.42 2799,-156 2802.43,-148.77 2804.32,-143.98 2799,-138 2766.07,-100.99 2402.01,-83.47 2314.05,-79.76"/>
<polygon fill="black" stroke="black" points="2314.06,-76.26 2303.92,-79.35 2313.77,-83.25 2314.06,-76.26"/>
<text text-anchor="middle" x="2851.5" y="-143.3" font-family="Times,serif" font-size="14.00">dont_cure_default</text>
</g>
<!-- S17&#45;&gt;S7 -->
<g id="edge72" class="edge">
<title>S17&#45;&gt;S7</title>
<path fill="none" stroke="black" d="M2760.88,-218.36C2724.4,-224.04 2591,-247.33 2591,-284 2591,-424 2591,-424 2591,-424 2591,-465.98 2589.55,-515.24 2588.67,-541.42"/>
<polygon fill="black" stroke="black" points="2585.16,-541.61 2588.31,-551.72 2592.16,-541.85 2585.16,-541.61"/>
<text text-anchor="middle" x="2666.5" y="-384.8" font-family="Times,serif" font-size="14.00">notify_borrower_of_default</text>
</g>
<!-- S17&#45;&gt;S8 -->
<g id="edge68" class="edge">
<title>S17&#45;&gt;S8</title>
<path fill="none" stroke="black" d="M2760.9,-216.44C2735.83,-215.32 2664.35,-214.96 2615,-243 2562.45,-272.86 2596.87,-323.64 2551,-363 2474.96,-428.26 2398.53,-366.59 2343,-450 2330.42,-468.9 2332.24,-482.94 2346,-501 2385.88,-553.34 2435.37,-508.8 2485,-552 2530.59,-591.69 2504.44,-631.16 2549,-672 2560.93,-682.94 2578.16,-689.7 2591.27,-693.58"/>
<polygon fill="black" stroke="black" points="2590.54,-697.01 2601.1,-696.19 2592.33,-690.24 2590.54,-697.01"/>
<text text-anchor="middle" x="2454" y="-453.8" font-family="Times,serif" font-size="14.00">cure_default|notify_borrower_of_default</text>
</g>
<!-- S17&#45;&gt;S14 -->
<g id="edge73" class="edge">
<title>S17&#45;&gt;S14</title>
<path fill="none" stroke="black" d="M2771.25,-207.08C2773.11,-196.4 2776.94,-178.23 2782,-174 2790.53,-166.87 2948.69,-153.88 3004.61,-149.49"/>
<polygon fill="black" stroke="black" points="3005.2,-152.96 3014.9,-148.69 3004.66,-145.98 3005.2,-152.96"/>
<text text-anchor="middle" x="2842" y="-177.8" font-family="Times,serif" font-size="14.00">dont_notify_borrower</text>
</g>
<!-- S17&#45;&gt;S21 -->
<g id="edge71" class="edge">
<title>S17&#45;&gt;S21</title>
<path fill="none" stroke="black" d="M2779.09,-217.78C2815,-220.86 2950.52,-232.56 3062,-243 3081.15,-244.79 3733.77,-303.45 3751,-312 3759.17,-316.05 3756.99,-322.64 3765,-327 3805.85,-349.24 3861.83,-353 3890.84,-353.32"/>
<polygon fill="black" stroke="black" points="3890.87,-356.82 3900.86,-353.3 3890.85,-349.82 3890.87,-356.82"/>
<text text-anchor="middle" x="3632" y="-281.3" font-family="Times,serif" font-size="14.00">cure_default</text>
</g>
<!-- S17&#45;&gt;S22 -->
<g id="edge67" class="edge">
<title>S17&#45;&gt;S22</title>
<path fill="none" stroke="black" d="M2771.16,-225C2773.65,-243.14 2779.12,-288.79 2777,-327 2776.11,-343 2765.88,-349.82 2775,-363 2824.45,-434.49 2874.91,-406.47 2958,-432 2990.77,-442.07 2999.69,-441.91 3033,-450 3060.13,-456.59 3066.33,-461.31 3094,-465 3174.82,-475.77 3733.48,-460.16 3848.22,-483.42"/>
<polygon fill="black" stroke="black" points="3847.62,-486.88 3858.17,-485.87 3849.3,-480.08 3847.62,-486.88"/>
<text text-anchor="middle" x="2870" y="-350.3" font-family="Times,serif" font-size="14.00">cure_default|dont_notify_borrower</text>
</g>
<!-- S18&#45;&gt;S3 -->
<g id="edge43" class="edge">
<title>S18&#45;&gt;S3</title>
<path fill="none" stroke="black" d="M392.72,-414.27C387.19,-393.73 375.64,-337.62 406,-312 437.91,-285.07 1093.46,-285.6 1214.78,-285.93"/>
<polygon fill="black" stroke="black" points="1214.8,-289.43 1224.81,-285.96 1214.82,-282.43 1214.8,-289.43"/>
<text text-anchor="middle" x="486" y="-350.3" font-family="Times,serif" font-size="14.00">borrower_default|dont_cure_default</text>
</g>
<!-- S18&#45;&gt;S3 -->
<g id="edge45" class="edge">
<title>S18&#45;&gt;S3</title>
<path fill="none" stroke="black" d="M386.1,-420C355.21,-412.64 256.09,-385.41 286,-345 315.86,-304.66 344.48,-320.18 394,-312 559.28,-284.69 1103.92,-285.45 1214.36,-285.9"/>
<polygon fill="black" stroke="black" points="1214.65,-289.4 1224.67,-285.95 1214.68,-282.4 1214.65,-289.4"/>
<text text-anchor="middle" x="335.5" y="-350.3" font-family="Times,serif" font-size="14.00">dont_cure_default</text>
</g>
<!-- S18&#45;&gt;S11 -->
<g id="edge44" class="edge">
<title>S18&#45;&gt;S11</title>
<path fill="none" stroke="black" d="M389.43,-430.54C380.26,-441.99 363,-466.77 363,-491 363,-596.5 363,-596.5 363,-596.5 363,-615.64 368.61,-624.59 356,-639 337.94,-659.63 313.31,-634.97 297,-657 286.16,-671.64 297,-679.78 297,-698 297,-838 297,-838 297,-838 297,-888.13 691.58,-901.95 784.55,-904.52"/>
<polygon fill="black" stroke="black" points="784.68,-908.02 794.77,-904.79 784.86,-901.02 784.68,-908.02"/>
<text text-anchor="middle" x="331" y="-660.8" font-family="Times,serif" font-size="14.00">cure_default</text>
</g>
<!-- S18&#45;&gt;S12 -->
<g id="edge42" class="edge">
<title>S18&#45;&gt;S12</title>
<path fill="none" stroke="black" d="M392.88,-431.77C389.68,-444.19 384,-469.31 384,-491 384,-596.5 384,-596.5 384,-596.5 384,-615.44 374.91,-624.42 387,-639 501.1,-776.57 600.36,-707.88 776,-741 843.72,-753.77 869.96,-725.18 930,-759 938.83,-763.97 935.23,-771.91 944,-777 992.93,-805.39 1019.85,-768.83 1070,-795 1078.08,-799.22 1075.73,-806.15 1084,-810 1129.28,-831.06 1488.65,-835.18 1576.62,-835.87"/>
<polygon fill="black" stroke="black" points="1576.75,-839.37 1586.77,-835.95 1576.8,-832.37 1576.75,-839.37"/>
<text text-anchor="middle" x="469.5" y="-626.3" font-family="Times,serif" font-size="14.00">borrower_default|cure_default</text>
</g>
<!-- S18&#45;&gt;S16 -->
<g id="edge41" class="edge">
<title>S18&#45;&gt;S16</title>
<path fill="none" stroke="black" d="M393.14,-414.14C391.47,-404.86 390.41,-389.61 399,-381 427.55,-352.39 539.87,-367.81 580,-363 592.67,-361.48 606.87,-359.49 617.94,-357.87"/>
<polygon fill="black" stroke="black" points="618.75,-361.29 628.13,-356.36 617.72,-354.36 618.75,-361.29"/>
<text text-anchor="middle" x="446" y="-384.8" font-family="Times,serif" font-size="14.00">borrower_default</text>
</g>
<!-- S19&#45;&gt;S0 -->
<g id="edge31" class="edge">
<title>S19&#45;&gt;S0</title>
<path fill="none" stroke="black" d="M3073.76,-290.75C3058.83,-300.58 3023.62,-324.02 2995,-345 2984.53,-352.68 2983.17,-356.39 2972,-363 2955.4,-372.82 2904.16,-367.66 2930,-396 2947.64,-415.34 3131.68,-420.51 3191.99,-421.69"/>
<polygon fill="black" stroke="black" points="3191.96,-425.19 3202.03,-421.87 3192.09,-418.19 3191.96,-425.19"/>
<text text-anchor="middle" x="3042" y="-350.3" font-family="Times,serif" font-size="14.00">borrower_default</text>
</g>
<!-- S19&#45;&gt;S14 -->
<g id="edge32" class="edge">
<title>S19&#45;&gt;S14</title>
<path fill="none" stroke="black" d="M3079.9,-275.79C3078.3,-266.75 3074.53,-252.25 3066,-243 3053.06,-228.96 3037.6,-240.88 3027,-225 3015.41,-207.64 3016.83,-182.85 3019.71,-166.12"/>
<polygon fill="black" stroke="black" points="3023.2,-166.53 3021.79,-156.03 3016.35,-165.11 3023.2,-166.53"/>
<text text-anchor="middle" x="3102.5" y="-212.3" font-family="Times,serif" font-size="14.00">notify_borrower_of_default</text>
</g>
<!-- S19&#45;&gt;S17 -->
<g id="edge34" class="edge">
<title>S19&#45;&gt;S17</title>
<path fill="none" stroke="black" d="M3071.88,-283.84C3030.96,-283.02 2864.35,-278.45 2817,-258 2803.3,-252.08 2790.73,-240.65 2782.04,-231.36"/>
<polygon fill="black" stroke="black" points="2784.48,-228.83 2775.24,-223.65 2779.23,-233.46 2784.48,-228.83"/>
<text text-anchor="middle" x="2941" y="-246.8" font-family="Times,serif" font-size="14.00">borrower_default|notify_borrower_of_default</text>
</g>
<!-- S19&#45;&gt;S21 -->
<g id="edge35" class="edge">
<title>S19&#45;&gt;S21</title>
<path fill="none" stroke="black" d="M3089.45,-288.25C3096.91,-290.14 3108.09,-292.72 3118,-294 3162.89,-299.8 3484.64,-291.49 3525,-312 3532.61,-315.87 3529.44,-323.04 3537,-327 3568.45,-343.49 3818.65,-350.79 3890.67,-352.56"/>
<polygon fill="black" stroke="black" points="3890.89,-356.06 3900.97,-352.8 3891.06,-349.07 3890.89,-356.06"/>
<text text-anchor="middle" x="3645.5" y="-315.8" font-family="Times,serif" font-size="14.00">borrower_default|dont_notify_borrower</text>
</g>
<!-- S19&#45;&gt;S22 -->
<g id="edge33" class="edge">
<title>S19&#45;&gt;S22</title>
<path fill="none" stroke="black" d="M3085.5,-292.83C3092.09,-302.2 3105.29,-318.84 3121,-327 3154.26,-344.28 3423.51,-359.2 3454,-381 3460.15,-385.39 3455.8,-391.68 3462,-396 3607.78,-497.49 3730.31,-326.52 3858,-450 3864,-455.8 3866.01,-464.71 3866.41,-472.75"/>
<polygon fill="black" stroke="black" points="3862.91,-472.71 3866.18,-482.79 3869.91,-472.87 3862.91,-472.71"/>
<text text-anchor="middle" x="3522" y="-384.8" font-family="Times,serif" font-size="14.00">dont_notify_borrower</text>
</g>
<!-- S20&#45;&gt;S20 -->
<g id="edge25" class="edge">
<title>S20&#45;&gt;S20</title>
<path fill="none" stroke="black" d="M1240.82,-15.22C1242.77,-15.68 1244.58,-15.13 1244.44,-12.28"/>
<polygon fill="black" stroke="black" points="1247.65,-10.88 1240.82,-2.78 1241.11,-13.37 1247.65,-10.88"/>
<text text-anchor="middle" x="1271.5" y="-5.3" font-family="Times,serif" font-size="14.00">breached</text>
</g>
<!-- S21&#45;&gt;S0 -->
<g id="edge19" class="edge">
<title>S21&#45;&gt;S0</title>
<path fill="none" stroke="black" d="M3900.99,-355.22C3851.87,-356.51 3617.59,-363.54 3591,-381 3584.68,-385.15 3589.34,-391.89 3583,-396 3553.28,-415.27 3302.58,-420.59 3230.38,-421.73"/>
<polygon fill="black" stroke="black" points="3230,-418.24 3220.05,-421.89 3230.1,-425.24 3230,-418.24"/>
<text text-anchor="middle" x="3723.5" y="-384.8" font-family="Times,serif" font-size="14.00">payment_default(normal, borrower, lender, 525)</text>
</g>
<!-- S21&#45;&gt;S8 -->
<g id="edge17" class="edge">
<title>S21&#45;&gt;S8</title>
<path fill="none" stroke="black" d="M3919.23,-355.09C3964.28,-355.86 4156.99,-363.17 4109,-432 4077.58,-477.07 3698.12,-588.96 3645,-603 3550.06,-628.09 3523.98,-623.55 3427,-639 3331.53,-654.21 3308.21,-662.57 3212,-672 2983.71,-694.38 2704.85,-697.5 2629.52,-697.93"/>
<polygon fill="black" stroke="black" points="2629.2,-694.43 2619.22,-697.98 2629.24,-701.43 2629.2,-694.43"/>
<text text-anchor="middle" x="3987.5" y="-522.8" font-family="Times,serif" font-size="14.00">notify_borrower_of_default</text>
</g>
<!-- S21&#45;&gt;S10 -->
<g id="edge20" class="edge">
<title>S21&#45;&gt;S10</title>
<path fill="none" stroke="black" d="M3916.4,-347.44C3936.86,-329.89 4003.06,-274.96 4066,-243 4132.92,-209.02 4167.49,-236 4226,-189 4233.34,-183.11 4299.66,-69.3 4324.58,-26.28"/>
<polygon fill="black" stroke="black" points="4327.75,-27.8 4329.73,-17.39 4321.69,-24.29 4327.75,-27.8"/>
<text text-anchor="middle" x="4332.5" y="-177.8" font-family="Times,serif" font-size="14.00">pay(normal, borrower, lender, 525)</text>
</g>
<!-- S21&#45;&gt;S10 -->
<g id="edge23" class="edge">
<title>S21&#45;&gt;S10</title>
<path fill="none" stroke="black" d="M3903.92,-347.26C3884.46,-329.17 3821.31,-272.84 3759,-243 3675.96,-203.23 3614.98,-262.1 3559,-189 3554.95,-183.71 3555.26,-179.52 3559,-174 3652.18,-36.66 3744.01,-72.15 3906,-36 3985.49,-18.26 4241.79,-11.85 4314.57,-10.36"/>
<polygon fill="black" stroke="black" points="4315.02,-13.86 4324.95,-10.16 4314.89,-6.86 4315.02,-13.86"/>
<text text-anchor="middle" x="3732" y="-177.8" font-family="Times,serif" font-size="14.00">notify_borrower_of_default|pay(normal, borrower, lender, 525)</text>
</g>
<!-- S21&#45;&gt;S10 -->
<g id="edge24" class="edge">
<title>S21&#45;&gt;S10</title>
<path fill="none" stroke="black" d="M3910,-344.75C3910,-332.1 3910,-307.17 3910,-286 3910,-286 3910,-286 3910,-77 3910,-35.45 4231.76,-15.45 4314.69,-10.98"/>
<polygon fill="black" stroke="black" points="4314.95,-14.47 4324.75,-10.45 4314.58,-7.48 4314.95,-14.47"/>
<text text-anchor="middle" x="4067.5" y="-177.8" font-family="Times,serif" font-size="14.00">dont_notify_borrower|pay(normal, borrower, lender, 525)</text>
</g>
<!-- S21&#45;&gt;S13 -->
<g id="edge21" class="edge">
<title>S21&#45;&gt;S13</title>
<path fill="none" stroke="black" d="M3918.78,-356.21C3942.75,-359.86 4006.16,-372.01 3986,-396 3956.1,-431.58 3919.23,-384.9 3883,-414 3863.89,-429.35 3882.08,-450.93 3862,-465 3823.2,-492.19 3470.87,-450.93 3436,-483 3407.31,-509.38 3452.7,-542.59 3425,-570 3334.36,-659.69 3266.99,-591.41 3140,-603 2998.11,-615.95 2826.56,-625.18 2770.05,-628.06"/>
<polygon fill="black" stroke="black" points="2769.87,-624.56 2760.06,-628.56 2770.22,-631.55 2769.87,-624.56"/>
<text text-anchor="middle" x="3645" y="-488.3" font-family="Times,serif" font-size="14.00">notify_borrower_of_default|payment_default(normal, borrower, lender, 525)</text>
</g>
<!-- S21&#45;&gt;S19 -->
<g id="edge22" class="edge">
<title>S21&#45;&gt;S19</title>
<path fill="none" stroke="black" d="M3901.04,-352.84C3817.63,-351.34 3178.96,-339.44 3141,-327 3138.47,-326.17 3113.21,-308.62 3096.28,-296.75"/>
<polygon fill="black" stroke="black" points="3098.12,-293.77 3087.93,-290.89 3094.1,-299.5 3098.12,-293.77"/>
<text text-anchor="middle" x="3334.5" y="-315.8" font-family="Times,serif" font-size="14.00">dont_notify_borrower|payment_default(normal, borrower, lender, 525)</text>
</g>
<!-- S21&#45;&gt;S22 -->
<g id="edge18" class="edge">
<title>S21&#45;&gt;S22</title>
<path fill="none" stroke="black" d="M3919.3,-354.98C3946.29,-355.36 4021.83,-359.63 4008,-396 4004.2,-406 3998.37,-405.4 3992,-414 3986.42,-421.53 3987.88,-425.63 3981,-432 3951.8,-459.01 3907.91,-476.77 3883.34,-485.23"/>
<polygon fill="black" stroke="black" points="3881.93,-482.01 3873.53,-488.47 3884.12,-488.66 3881.93,-482.01"/>
<text text-anchor="middle" x="4052" y="-419.3" font-family="Times,serif" font-size="14.00">dont_notify_borrower</text>
</g>
<!-- S22&#45;&gt;S0 -->
<g id="edge38" class="edge">
<title>S22&#45;&gt;S0</title>
<path fill="none" stroke="black" d="M3858.16,-485.91C3856.26,-484.75 3854.13,-483.66 3852,-483 3777.21,-459.75 3569.7,-500.72 3500,-465 3492.4,-461.11 3495.51,-454.05 3488,-450 3443.35,-425.91 3285.48,-423.85 3230.25,-423.88"/>
<polygon fill="black" stroke="black" points="3230.09,-420.38 3220.1,-423.92 3230.11,-427.38 3230.09,-420.38"/>
<text text-anchor="middle" x="3680.5" y="-453.8" font-family="Times,serif" font-size="14.00">borrower_default|payment_default(normal, borrower, lender, 525)</text>
</g>
<!-- S22&#45;&gt;S10 -->
<g id="edge39" class="edge">
<title>S22&#45;&gt;S10</title>
<path fill="none" stroke="black" d="M3874.25,-491.27C3903.63,-491.85 3997.05,-491.33 4068,-465 4092.96,-455.74 4105.38,-455.45 4118,-432 4129.71,-410.23 4142.01,-445.86 4100,-312 4090.23,-280.88 4053.75,-267.75 4075,-243 4087.92,-227.95 4415.08,-204.05 4428,-189 4475.01,-134.25 4385.9,-52 4348.97,-21.73"/>
<polygon fill="black" stroke="black" points="4350.82,-18.72 4340.83,-15.2 4346.44,-24.18 4350.82,-18.72"/>
<text text-anchor="middle" x="4171.5" y="-246.8" font-family="Times,serif" font-size="14.00">pay(normal, borrower, lender, 525)</text>
</g>
<!-- S22&#45;&gt;S10 -->
<g id="edge40" class="edge">
<title>S22&#45;&gt;S10</title>
<path fill="none" stroke="black" d="M3874.2,-490.65C3911.24,-489.15 4049.42,-482.46 4089,-465 4109.47,-455.97 4111.54,-448.16 4127,-432 4127.58,-431.39 4276.32,-243.48 4277,-243 4338.01,-200.02 4389.83,-247.63 4436,-189 4469.76,-146.13 4444.18,-111.54 4410,-69 4397.01,-52.83 4393.33,-48.79 4377,-36 4368.8,-29.57 4358.89,-23.48 4350.65,-18.82"/>
<polygon fill="black" stroke="black" points="4352.11,-15.63 4341.66,-13.9 4348.76,-21.77 4352.11,-15.63"/>
<text text-anchor="middle" x="4421.5" y="-246.8" font-family="Times,serif" font-size="14.00">borrower_default|pay(normal, borrower, lender, 525)</text>
</g>
<!-- S22&#45;&gt;S19 -->
<g id="edge37" class="edge">
<title>S22&#45;&gt;S19</title>
<path fill="none" stroke="black" d="M3858.17,-485.88C3856.27,-484.72 3854.13,-483.64 3852,-483 3786.82,-463.51 3307.49,-473.55 3240,-465 3171.06,-456.27 2978.38,-450.29 2935,-396 2930.84,-390.79 2930.6,-386.01 2935,-381 2976.12,-334.21 3030.8,-407.88 3074,-363 3088.81,-347.61 3087.92,-321.6 3085.11,-304.12"/>
<polygon fill="black" stroke="black" points="3088.5,-303.2 3083.14,-294.06 3081.63,-304.55 3088.5,-303.2"/>
<text text-anchor="middle" x="3067.5" y="-384.8" font-family="Times,serif" font-size="14.00">payment_default(normal, borrower, lender, 525)</text>
</g>
<!-- S22&#45;&gt;S21 -->
<g id="edge36" class="edge">
<title>S22&#45;&gt;S21</title>
<path fill="none" stroke="black" d="M3870.03,-484.09C3873.43,-479.05 3877.7,-471.92 3880,-465 3887.18,-443.34 3870.22,-430.49 3886,-414 3920.56,-377.9 3964.61,-434.06 3997,-396 4017.43,-371.99 3960.4,-361.09 3929.05,-357.03"/>
<polygon fill="black" stroke="black" points="3929.2,-353.52 3918.86,-355.83 3928.38,-360.47 3929.2,-353.52"/>
<text text-anchor="middle" x="3933" y="-419.3" font-family="Times,serif" font-size="14.00">borrower_default</text>
</g>
<!-- S23&#45;&gt;S6 -->
<g id="edge5" class="edge">
<title>S23&#45;&gt;S6</title>
<path fill="none" stroke="black" d="M1111.96,-627.86C1138.19,-624.48 1216.99,-614.09 1282,-603 1439.15,-576.2 1532.69,-657.09 1634,-534 1639.7,-527.07 1638.02,-517.27 1634.77,-508.98"/>
<polygon fill="black" stroke="black" points="1637.9,-507.41 1630.4,-499.93 1631.59,-510.45 1637.9,-507.41"/>
<text text-anchor="middle" x="1769.5" y="-557.3" font-family="Times,serif" font-size="14.00">notify_borrower_of_default|notify_borrower_of_default</text>
</g>
<!-- S23&#45;&gt;S9 -->
<g id="edge6" class="edge">
<title>S23&#45;&gt;S9</title>
<path fill="none" stroke="black" d="M1111.79,-632.74C1121.02,-634.52 1135.98,-637.26 1149,-639 1179.25,-643.03 1670.1,-673.85 1696,-690 1703.96,-694.96 1698.99,-703.13 1707,-708 1756.31,-737.95 1913.92,-701.18 1966,-726 1974.23,-729.92 1973.12,-735.01 1980,-741 1986.45,-746.61 1994.1,-752.15 2000.77,-756.66"/>
<polygon fill="black" stroke="black" points="1999.3,-759.88 2009.58,-762.44 2003.13,-754.03 1999.3,-759.88"/>
<text text-anchor="middle" x="1844" y="-695.3" font-family="Times,serif" font-size="14.00">dont_notify_borrower|notify_borrower_of_default</text>
</g>
<!-- S23&#45;&gt;S11 -->
<g id="edge8" class="edge">
<title>S23&#45;&gt;S11</title>
<path fill="none" stroke="black" d="M1093.83,-630.9C1036.39,-630.35 725.86,-628.76 636,-657 568.22,-678.3 567.28,-718.18 500,-741 462.35,-753.77 348.66,-729.51 322,-759 281.61,-803.68 506.69,-863.93 565,-879 644.61,-899.57 743.24,-903.88 784.46,-904.77"/>
<polygon fill="black" stroke="black" points="784.65,-908.28 794.71,-904.95 784.77,-901.28 784.65,-908.28"/>
<text text-anchor="middle" x="443" y="-764.3" font-family="Times,serif" font-size="14.00">dont_notify_borrower|dont_notify_borrower</text>
</g>
<!-- S23&#45;&gt;S12 -->
<g id="edge3" class="edge">
<title>S23&#45;&gt;S12</title>
<path fill="none" stroke="black" d="M1111.68,-632.65C1137.11,-637.53 1210.3,-651.86 1220,-657 1249.16,-672.47 1243.88,-694.49 1274,-708 1358.67,-745.97 1400.18,-682.23 1482,-726 1489.53,-730.03 1486.64,-736.67 1494,-741 1535.18,-765.24 1569.17,-722.49 1600,-759 1613.89,-775.44 1608.75,-801.6 1603.01,-818.79"/>
<polygon fill="black" stroke="black" points="1599.57,-818 1599.35,-828.6 1606.13,-820.46 1599.57,-818"/>
<text text-anchor="middle" x="1554" y="-729.8" font-family="Times,serif" font-size="14.00">dont_notify_borrower</text>
</g>
<!-- S23&#45;&gt;S15 -->
<g id="edge2" class="edge">
<title>S23&#45;&gt;S15</title>
<path fill="none" stroke="black" d="M1105.75,-621.08C1109.55,-611.44 1117.41,-595.51 1130,-588 1167.08,-565.89 1277.79,-582.17 1332.33,-569.8"/>
<polygon fill="black" stroke="black" points="1333.47,-573.12 1342.14,-567.03 1331.57,-566.38 1333.47,-573.12"/>
<text text-anchor="middle" x="1205.5" y="-591.8" font-family="Times,serif" font-size="14.00">notify_borrower_of_default</text>
</g>
<!-- S23&#45;&gt;S16 -->
<g id="edge1" class="edge">
<title>S23&#45;&gt;S16</title>
<path fill="none" stroke="black" d="M1103.79,-620.99C1105.85,-598.09 1110.31,-533.1 1096,-519 1066.6,-490.04 760.43,-522.16 725,-501 676.36,-471.95 651.26,-404.71 641.69,-372.63"/>
<polygon fill="black" stroke="black" points="645.02,-371.55 638.94,-362.88 638.28,-373.45 645.02,-371.55"/>
<text text-anchor="middle" x="800.5" y="-488.3" font-family="Times,serif" font-size="14.00">notify_borrower_of_default</text>
</g>
<!-- S23&#45;&gt;S18 -->
<g id="edge7" class="edge">
<title>S23&#45;&gt;S18</title>
<path fill="none" stroke="black" d="M1094,-627.79C1057.4,-622.52 917.22,-598.82 825,-534 818.02,-529.09 820.3,-523.42 813,-519 777.36,-497.41 761.73,-509.79 721,-501 603.4,-475.62 462.96,-440.97 413.41,-428.61"/>
<polygon fill="black" stroke="black" points="414.09,-425.17 403.54,-426.14 412.39,-431.97 414.09,-425.17"/>
<text text-anchor="middle" x="962" y="-522.8" font-family="Times,serif" font-size="14.00">dont_notify_borrower|notify_borrower_of_default</text>
</g>
<!-- S23&#45;&gt;S24 -->
<g id="edge4" class="edge">
<title>S23&#45;&gt;S24</title>
<path fill="none" stroke="black" d="M1093.81,-631.5C1067.55,-633.15 993.12,-639.31 978,-657 972.71,-663.19 971.74,-672.01 972.29,-679.89"/>
<polygon fill="black" stroke="black" points="968.87,-680.64 973.79,-690.02 975.79,-679.62 968.87,-680.64"/>
<text text-anchor="middle" x="1038" y="-660.8" font-family="Times,serif" font-size="14.00">dont_notify_borrower</text>
</g>
<!-- S24&#45;&gt;S11 -->
<g id="edge28" class="edge">
<title>S24&#45;&gt;S11</title>
<path fill="none" stroke="black" d="M972.16,-707.45C962.54,-725.95 937.74,-772.81 931,-777 883.33,-806.66 717.26,-753.91 679,-795 638.68,-838.3 742.72,-882.67 786.07,-898.73"/>
<polygon fill="black" stroke="black" points="785.06,-902.08 795.66,-902.18 787.43,-895.5 785.06,-902.08"/>
<text text-anchor="middle" x="739" y="-798.8" font-family="Times,serif" font-size="14.00">dont_notify_borrower</text>
</g>
<!-- S24&#45;&gt;S12 -->
<g id="edge30" class="edge">
<title>S24&#45;&gt;S12</title>
<path fill="none" stroke="black" d="M975.31,-708.03C973.98,-725.69 971.94,-767.13 981,-777 983.07,-779.26 1195.96,-809.67 1199,-810 1343.87,-825.68 1519.58,-833.17 1576.92,-835.33"/>
<polygon fill="black" stroke="black" points="1576.91,-838.83 1587.03,-835.69 1577.17,-831.83 1576.91,-838.83"/>
<text text-anchor="middle" x="1089.5" y="-764.3" font-family="Times,serif" font-size="14.00">borrower_default|dont_notify_borrower</text>
</g>
<!-- S24&#45;&gt;S16 -->
<g id="edge29" class="edge">
<title>S24&#45;&gt;S16</title>
<path fill="none" stroke="black" d="M967.49,-695.98C913.05,-682.87 614.24,-608.07 564,-534 560.26,-528.48 562.37,-525.47 564,-519 567.78,-503.96 624.96,-410.67 630,-396 632.49,-388.74 634.12,-380.44 635.18,-373.21"/>
<polygon fill="black" stroke="black" points="638.68,-373.4 636.4,-363.05 631.73,-372.56 638.68,-373.4"/>
<text text-anchor="middle" x="688" y="-522.8" font-family="Times,serif" font-size="14.00">borrower_default|notify_borrower_of_default</text>
</g>
<!-- S24&#45;&gt;S18 -->
<g id="edge27" class="edge">
<title>S24&#45;&gt;S18</title>
<path fill="none" stroke="black" d="M967,-697.96C918.8,-697.65 690.92,-694.99 625,-672 586.94,-658.73 585.03,-640.94 550,-621 503.52,-594.54 476.23,-610.24 441,-570 408.39,-532.76 398.88,-472.41 396.12,-442.3"/>
<polygon fill="black" stroke="black" points="399.59,-441.74 395.34,-432.04 392.61,-442.27 399.59,-441.74"/>
<text text-anchor="middle" x="516.5" y="-557.3" font-family="Times,serif" font-size="14.00">notify_borrower_of_default</text>
</g>
<!-- S24&#45;&gt;S23 -->
<g id="edge26" class="edge">
<title>S24&#45;&gt;S23</title>
<path fill="none" stroke="black" d="M985,-697.29C1010.01,-695.13 1079.55,-687.8 1095,-672 1100.79,-666.08 1103.01,-657.28 1103.69,-649.35"/>
<polygon fill="black" stroke="black" points="1107.19,-649.17 1103.83,-639.12 1100.19,-649.06 1107.19,-649.17"/>
<text text-anchor="middle" x="1150" y="-660.8" font-family="Times,serif" font-size="14.00">borrower_default</text>
</g>
</g>
</svg>
