<?xml version="1.0" encoding="UTF-8" standalone="no"?>
<!DOCTYPE svg PUBLIC "-//W3C//DTD SVG 1.1//EN"
 "http://www.w3.org/Graphics/SVG/1.1/DTD/svg11.dtd">
<!-- Generated by graphviz version 5.0.1 (0)
 -->
<!-- Title: G Pages: 1 -->
<svg width="2935pt" height="1000pt"
 viewBox="0.00 0.00 2935.00 1000.00" xmlns="http://www.w3.org/2000/svg" xmlns:xlink="http://www.w3.org/1999/xlink">
<g id="graph0" class="graph" transform="scale(1 1) rotate(0) translate(4 996)">
<title>G</title>
<polygon fill="white" stroke="none" points="-4,4 -4,-996 2931,-996 2931,4 -4,4"/>
<!-- S4 -->
<g id="node1" class="node">
<title>S4</title>
<ellipse fill="none" stroke="black" cx="1854" cy="-979" rx="9" ry="9"/>
<ellipse fill="none" stroke="black" cx="1854" cy="-979" rx="13" ry="13"/>
</g>
<!-- S5 -->
<g id="node6" class="node">
<title>S5</title>
<ellipse fill="none" stroke="black" cx="905" cy="-906" rx="9" ry="9"/>
</g>
<!-- S4&#45;&gt;S5 -->
<g id="edge69" class="edge">
<title>S4&#45;&gt;S5</title>
<path fill="none" stroke="black" d="M1840.95,-977.02C1737.32,-969.27 1048.51,-917.74 924.21,-908.44"/>
<polygon fill="black" stroke="black" points="924.21,-904.93 913.98,-907.67 923.69,-911.91 924.21,-904.93"/>
<text text-anchor="middle" x="1483" y="-936.8" font-family="Times,serif" font-size="14.00">request_principal</text>
</g>
<!-- S6 -->
<g id="node7" class="node">
<title>S6</title>
<ellipse fill="none" stroke="black" cx="2085" cy="-78" rx="9" ry="9"/>
</g>
<!-- S4&#45;&gt;S6 -->
<g id="edge70" class="edge">
<title>S4&#45;&gt;S6</title>
<path fill="none" stroke="black" d="M1867.04,-977.73C1980.9,-975.31 2802,-956.15 2802,-907 2802,-907 2802,-907 2802,-146 2802,-73.78 2217.88,-77.35 2104.08,-78.73"/>
<polygon fill="black" stroke="black" points="2104.02,-75.23 2094.07,-78.86 2104.11,-82.23 2104.02,-75.23"/>
<text text-anchor="middle" x="2864.5" y="-522.8" font-family="Times,serif" font-size="14.00">dont_request_principal</text>
</g>
<!-- S0 -->
<g id="node2" class="node">
<title>S0</title>
<ellipse fill="none" stroke="black" cx="1686" cy="-699" rx="9" ry="9"/>
</g>
<!-- S0&#45;&gt;S6 -->
<g id="edge8" class="edge">
<title>S0&#45;&gt;S6</title>
<path fill="none" stroke="black" d="M1694.97,-697.83C1789.06,-695.95 2592,-678.51 2592,-631 2592,-631 2592,-631 2592,-146 2592,-95.87 2197.42,-82.05 2104.45,-79.48"/>
<polygon fill="black" stroke="black" points="2104.32,-75.98 2094.23,-79.21 2104.14,-82.98 2104.32,-75.98"/>
<text text-anchor="middle" x="2693" y="-384.8" font-family="Times,serif" font-size="14.00">pay(Normal, Borrower, Lender, 525)</text>
</g>
<!-- S21 -->
<g id="node22" class="node">
<title>S21</title>
<ellipse fill="none" stroke="black" cx="1951" cy="-630" rx="9" ry="9"/>
</g>
<!-- S0&#45;&gt;S21 -->
<g id="edge6" class="edge">
<title>S0&#45;&gt;S21</title>
<path fill="none" stroke="black" d="M1686.71,-689.89C1688,-680.37 1691.67,-664.88 1702,-657 1737.91,-629.62 1879.57,-629.56 1931.65,-630.51"/>
<polygon fill="black" stroke="black" points="1931.77,-634.01 1941.85,-630.73 1931.93,-627.01 1931.77,-634.01"/>
<text text-anchor="middle" x="1762" y="-660.8" font-family="Times,serif" font-size="14.00">dont_notify_borrower</text>
</g>
<!-- S22 -->
<g id="node23" class="node">
<title>S22</title>
<ellipse fill="none" stroke="black" cx="1635" cy="-285" rx="9" ry="9"/>
</g>
<!-- S0&#45;&gt;S22 -->
<g id="edge5" class="edge">
<title>S0&#45;&gt;S22</title>
<path fill="none" stroke="black" d="M1676.88,-698.36C1642.82,-699.2 1525,-697.3 1525,-631 1525,-631 1525,-631 1525,-525.5 1525,-506.53 1519.12,-499.2 1529,-483 1566.37,-421.74 1630.55,-458.94 1665,-396 1682.14,-364.69 1660.25,-322.91 1645.81,-300.95"/>
<polygon fill="black" stroke="black" points="1648.6,-298.83 1640.04,-292.6 1642.84,-302.81 1648.6,-298.83"/>
<text text-anchor="middle" x="1604.5" y="-488.3" font-family="Times,serif" font-size="14.00">notify_borrower_of_default</text>
</g>
<!-- S23 -->
<g id="node24" class="node">
<title>S23</title>
<ellipse fill="none" stroke="black" cx="1825" cy="-492" rx="9" ry="9"/>
</g>
<!-- S0&#45;&gt;S23 -->
<g id="edge7" class="edge">
<title>S0&#45;&gt;S23</title>
<path fill="none" stroke="black" d="M1682.95,-690.48C1675.88,-671.79 1660.39,-622.31 1679,-588 1706.59,-537.13 1774.52,-509.23 1807.06,-498.38"/>
<polygon fill="black" stroke="black" points="1808.15,-501.71 1816.63,-495.35 1806.04,-495.03 1808.15,-501.71"/>
<text text-anchor="middle" x="1816" y="-591.8" font-family="Times,serif" font-size="14.00">payment_default(Normal, Borrower, Lender, 525)</text>
</g>
<!-- S1 -->
<g id="node3" class="node">
<title>S1</title>
<ellipse fill="none" stroke="black" cx="1247" cy="-9" rx="9" ry="9"/>
</g>
<!-- S2 -->
<g id="node4" class="node">
<title>S2</title>
<ellipse fill="none" stroke="black" cx="2085" cy="-147" rx="9" ry="9"/>
</g>
<!-- S2&#45;&gt;S6 -->
<g id="edge73" class="edge">
<title>S2&#45;&gt;S6</title>
<path fill="none" stroke="black" d="M2085,-137.78C2085,-127.84 2085,-110.78 2085,-97.6"/>
<polygon fill="black" stroke="black" points="2088.5,-97.28 2085,-87.28 2081.5,-97.28 2088.5,-97.28"/>
<text text-anchor="middle" x="2197.5" y="-108.8" font-family="Times,serif" font-size="14.00">pay(Accelerated, Borrower, Lender, 525)</text>
</g>
<!-- S12 -->
<g id="node13" class="node">
<title>S12</title>
<ellipse fill="none" stroke="black" cx="1025" cy="-78" rx="9" ry="9"/>
</g>
<!-- S2&#45;&gt;S12 -->
<g id="edge74" class="edge">
<title>S2&#45;&gt;S12</title>
<path fill="none" stroke="black" d="M2075.84,-145.42C1980.97,-139.42 1178.72,-88.72 1044.12,-80.21"/>
<polygon fill="black" stroke="black" points="1044.29,-76.71 1034.09,-79.57 1043.85,-83.7 1044.29,-76.71"/>
<text text-anchor="middle" x="1797.5" y="-108.8" font-family="Times,serif" font-size="14.00">payment_default(Accelerated, Borrower, Lender, 525)</text>
</g>
<!-- S3 -->
<g id="node5" class="node">
<title>S3</title>
<ellipse fill="none" stroke="black" cx="1020" cy="-216" rx="9" ry="9"/>
</g>
<!-- S3&#45;&gt;S6 -->
<g id="edge71" class="edge">
<title>S3&#45;&gt;S6</title>
<path fill="none" stroke="black" d="M1028.95,-214.21C1073.99,-210.11 1275.69,-190.08 1327,-156 1335.01,-150.68 1330.86,-143.12 1339,-138 1427.13,-82.5 1467.33,-114.97 1571,-105 1763.53,-86.48 1997.99,-80.69 2065.8,-79.34"/>
<polygon fill="black" stroke="black" points="2065.92,-82.84 2075.85,-79.15 2065.79,-75.84 2065.92,-82.84"/>
<text text-anchor="middle" x="1455" y="-143.3" font-family="Times,serif" font-size="14.00">pay(Accelerated, Borrower, Lender, 1075)</text>
</g>
<!-- S3&#45;&gt;S12 -->
<g id="edge72" class="edge">
<title>S3&#45;&gt;S12</title>
<path fill="none" stroke="black" d="M1020.3,-206.9C1021.08,-185.6 1023.21,-127.58 1024.32,-97.55"/>
<polygon fill="black" stroke="black" points="1027.83,-97.35 1024.7,-87.23 1020.83,-97.09 1027.83,-97.35"/>
<text text-anchor="middle" x="1174" y="-143.3" font-family="Times,serif" font-size="14.00">payment_default(Accelerated, Borrower, Lender, 1075)</text>
</g>
<!-- S8 -->
<g id="node9" class="node">
<title>S8</title>
<ellipse fill="none" stroke="black" cx="905" cy="-837" rx="9" ry="9"/>
</g>
<!-- S5&#45;&gt;S8 -->
<g id="edge67" class="edge">
<title>S5&#45;&gt;S8</title>
<path fill="none" stroke="black" d="M905,-896.78C905,-886.84 905,-869.78 905,-856.6"/>
<polygon fill="black" stroke="black" points="908.5,-856.28 905,-846.28 901.5,-856.28 908.5,-856.28"/>
<text text-anchor="middle" x="1013" y="-867.8" font-family="Times,serif" font-size="14.00">pay(Principal, Lender, Borrower, 1000)</text>
</g>
<!-- S5&#45;&gt;S12 -->
<g id="edge68" class="edge">
<title>S5&#45;&gt;S12</title>
<path fill="none" stroke="black" d="M896.04,-904.83C802.05,-902.94 0,-885.46 0,-838 0,-838 0,-838 0,-146 0,-93.58 864.76,-80.93 1005.69,-79.22"/>
<polygon fill="black" stroke="black" points="1005.87,-82.72 1015.83,-79.1 1005.79,-75.72 1005.87,-82.72"/>
<text text-anchor="middle" x="144" y="-488.3" font-family="Times,serif" font-size="14.00">payment_default(Principal, Lender, Borrower, 1000)</text>
</g>
<!-- S6&#45;&gt;S1 -->
<g id="edge66" class="edge">
<title>S6&#45;&gt;S1</title>
<path fill="none" stroke="black" d="M2076.16,-76.29C1995.15,-69.82 1382.36,-20.82 1266.03,-11.52"/>
<polygon fill="black" stroke="black" points="1266.09,-8.02 1255.85,-10.71 1265.53,-14.99 1266.09,-8.02"/>
<text text-anchor="middle" x="1763" y="-39.8" font-family="Times,serif" font-size="14.00">fulfilled</text>
</g>
<!-- S7 -->
<g id="node8" class="node">
<title>S7</title>
<ellipse fill="none" stroke="black" cx="776" cy="-768" rx="9" ry="9"/>
</g>
<!-- S7&#45;&gt;S0 -->
<g id="edge60" class="edge">
<title>S7&#45;&gt;S0</title>
<path fill="none" stroke="black" d="M785.01,-766.34C870.84,-760.02 1543.93,-710.46 1666.79,-701.41"/>
<polygon fill="black" stroke="black" points="1667.2,-704.89 1676.92,-700.67 1666.69,-697.91 1667.2,-704.89"/>
<text text-anchor="middle" x="1413" y="-729.8" font-family="Times,serif" font-size="14.00">pay(Normal, Borrower, Lender, 550)</text>
</g>
<!-- S7&#45;&gt;S8 -->
<g id="edge62" class="edge">
<title>S7&#45;&gt;S8</title>
<path fill="none" stroke="black" d="M774.25,-777.03C772.76,-786.2 771.97,-801.06 780,-810 793.85,-825.43 854.18,-832.19 885.69,-834.71"/>
<polygon fill="black" stroke="black" points="885.62,-838.22 895.85,-835.46 886.13,-831.24 885.62,-838.22"/>
<text text-anchor="middle" x="840" y="-798.8" font-family="Times,serif" font-size="14.00">dont_notify_borrower</text>
</g>
<!-- S13 -->
<g id="node14" class="node">
<title>S13</title>
<ellipse fill="none" stroke="black" cx="1169" cy="-492" rx="9" ry="9"/>
</g>
<!-- S7&#45;&gt;S13 -->
<g id="edge59" class="edge">
<title>S7&#45;&gt;S13</title>
<path fill="none" stroke="black" d="M785.13,-766.7C827.46,-765.24 1003.25,-758.14 1020,-741 1057.41,-702.72 998.39,-664.19 1030,-621 1065.2,-572.92 1116.23,-616.09 1154,-570 1167.47,-553.57 1170.09,-528.57 1170.09,-511.55"/>
<polygon fill="black" stroke="black" points="1173.57,-511.12 1169.76,-501.24 1166.58,-511.34 1173.57,-511.12"/>
<text text-anchor="middle" x="1105.5" y="-626.3" font-family="Times,serif" font-size="14.00">notify_borrower_of_default</text>
</g>
<!-- S24 -->
<g id="node25" class="node">
<title>S24</title>
<ellipse fill="none" stroke="black" cx="760" cy="-699" rx="9" ry="9"/>
</g>
<!-- S7&#45;&gt;S24 -->
<g id="edge61" class="edge">
<title>S7&#45;&gt;S24</title>
<path fill="none" stroke="black" d="M768.68,-762.47C762.13,-757.95 752.97,-750.34 749,-741 745.59,-732.98 747.67,-723.63 750.91,-715.88"/>
<polygon fill="black" stroke="black" points="754.07,-717.37 755.45,-706.87 747.82,-714.22 754.07,-717.37"/>
<text text-anchor="middle" x="886" y="-729.8" font-family="Times,serif" font-size="14.00">payment_default(Normal, Borrower, Lender, 550)</text>
</g>
<!-- S8&#45;&gt;S7 -->
<g id="edge63" class="edge">
<title>S8&#45;&gt;S7</title>
<path fill="none" stroke="black" d="M905.84,-827.88C906.31,-818.64 905.53,-803.7 897,-795 883.06,-780.79 825.89,-773.53 795.39,-770.6"/>
<polygon fill="black" stroke="black" points="795.42,-767.09 785.15,-769.69 794.8,-774.06 795.42,-767.09"/>
<text text-anchor="middle" x="951" y="-798.8" font-family="Times,serif" font-size="14.00">borrower_default</text>
</g>
<!-- S15 -->
<g id="node16" class="node">
<title>S15</title>
<ellipse fill="none" stroke="black" cx="734" cy="-354" rx="9" ry="9"/>
</g>
<!-- S8&#45;&gt;S15 -->
<g id="edge64" class="edge">
<title>S8&#45;&gt;S15</title>
<path fill="none" stroke="black" d="M895.61,-835.97C819.53,-835.61 307,-830.9 307,-769 307,-769 307,-769 307,-629 307,-608.73 312.64,-602.32 327,-588 327.35,-587.65 580.61,-465.29 581,-465 588.34,-459.59 588.08,-455.94 595,-450 636.29,-414.53 691.05,-380.4 717.85,-364.42"/>
<polygon fill="black" stroke="black" points="719.82,-367.32 726.66,-359.23 716.27,-361.29 719.82,-367.32"/>
<text text-anchor="middle" x="464" y="-591.8" font-family="Times,serif" font-size="14.00">payment_default(Normal, Borrower, Lender, 550)</text>
</g>
<!-- S8&#45;&gt;S21 -->
<g id="edge65" class="edge">
<title>S8&#45;&gt;S21</title>
<path fill="none" stroke="black" d="M914.35,-835.47C950.12,-833.35 1081.61,-824.96 1189,-810 1518.19,-764.13 1647.27,-856.1 1924,-672 1932.77,-666.16 1939.37,-656.4 1943.85,-647.87"/>
<polygon fill="black" stroke="black" points="1947.06,-649.26 1948.13,-638.72 1940.72,-646.29 1947.06,-649.26"/>
<text text-anchor="middle" x="1928" y="-729.8" font-family="Times,serif" font-size="14.00">pay(Normal, Borrower, Lender, 550)</text>
</g>
<!-- S9 -->
<g id="node10" class="node">
<title>S9</title>
<ellipse fill="none" stroke="black" cx="639" cy="-285" rx="9" ry="9"/>
</g>
<!-- S9&#45;&gt;S3 -->
<g id="edge45" class="edge">
<title>S9&#45;&gt;S3</title>
<path fill="none" stroke="black" d="M647.47,-281.61C672.26,-274.7 746.92,-254.43 810,-243 879.8,-230.35 963.78,-221.99 1000.84,-218.65"/>
<polygon fill="black" stroke="black" points="1001.49,-222.1 1011.14,-217.74 1000.87,-215.13 1001.49,-222.1"/>
<text text-anchor="middle" x="859.5" y="-246.8" font-family="Times,serif" font-size="14.00">dont_cure_default</text>
</g>
<!-- S9&#45;&gt;S8 -->
<g id="edge44" class="edge">
<title>S9&#45;&gt;S8</title>
<path fill="none" stroke="black" d="M629.8,-285.78C575.09,-284.72 295,-282.72 295,-353 295,-769 295,-769 295,-769 295,-798.78 320.05,-799.72 348,-810 399.3,-828.87 793.58,-834.68 885.77,-835.79"/>
<polygon fill="black" stroke="black" points="885.85,-839.29 895.89,-835.91 885.93,-832.29 885.85,-839.29"/>
<text text-anchor="middle" x="329" y="-557.3" font-family="Times,serif" font-size="14.00">cure_default</text>
</g>
<!-- S20 -->
<g id="node21" class="node">
<title>S20</title>
<ellipse fill="none" stroke="black" cx="606" cy="-630" rx="9" ry="9"/>
</g>
<!-- S9&#45;&gt;S20 -->
<g id="edge43" class="edge">
<title>S9&#45;&gt;S20</title>
<path fill="none" stroke="black" d="M631.68,-290.8C605.82,-308.28 518.75,-371.63 490,-450 464.61,-519.2 541.24,-526.58 582,-588 587.26,-595.93 592.66,-605.05 597,-612.66"/>
<polygon fill="black" stroke="black" points="594.06,-614.57 601.99,-621.59 600.17,-611.15 594.06,-614.57"/>
<text text-anchor="middle" x="537" y="-453.8" font-family="Times,serif" font-size="14.00">borrower_default</text>
</g>
<!-- S10 -->
<g id="node11" class="node">
<title>S10</title>
<ellipse fill="none" stroke="black" cx="2207" cy="-423" rx="9" ry="9"/>
</g>
<!-- S10&#45;&gt;S0 -->
<g id="edge36" class="edge">
<title>S10&#45;&gt;S0</title>
<path fill="none" stroke="black" d="M2215.89,-424.7C2242.07,-426.94 2318.19,-434.64 2337,-450 2368.3,-475.55 2416.65,-568.56 2387,-603 2341,-656.43 1813.49,-690.45 1705.31,-696.88"/>
<polygon fill="black" stroke="black" points="1704.98,-693.4 1695.2,-697.48 1705.39,-700.39 1704.98,-693.4"/>
<text text-anchor="middle" x="2430" y="-557.3" font-family="Times,serif" font-size="14.00">cure_default</text>
</g>
<!-- S10&#45;&gt;S2 -->
<g id="edge39" class="edge">
<title>S10&#45;&gt;S2</title>
<path fill="none" stroke="black" d="M2215.72,-420.3C2227.72,-417.47 2249.08,-410.61 2260,-396 2271.07,-381.19 2267,-373.49 2267,-355 2267,-355 2267,-355 2267,-215 2267,-180.47 2150.19,-158.27 2103.73,-150.8"/>
<polygon fill="black" stroke="black" points="2104.2,-147.33 2093.78,-149.25 2103.12,-154.25 2104.2,-147.33"/>
<text text-anchor="middle" x="2316.5" y="-281.3" font-family="Times,serif" font-size="14.00">dont_cure_default</text>
</g>
<!-- S11 -->
<g id="node12" class="node">
<title>S11</title>
<ellipse fill="none" stroke="black" cx="2184" cy="-492" rx="9" ry="9"/>
</g>
<!-- S10&#45;&gt;S11 -->
<g id="edge38" class="edge">
<title>S10&#45;&gt;S11</title>
<path fill="none" stroke="black" d="M2198.29,-425.37C2178.7,-428.67 2132.1,-437.65 2123,-450 2109.79,-467.92 2142.91,-480.45 2165.35,-486.62"/>
<polygon fill="black" stroke="black" points="2164.71,-490.07 2175.26,-489.14 2166.43,-483.29 2164.71,-490.07"/>
<text text-anchor="middle" x="2183" y="-453.8" font-family="Times,serif" font-size="14.00">dont_notify_borrower</text>
</g>
<!-- S17 -->
<g id="node18" class="node">
<title>S17</title>
<ellipse fill="none" stroke="black" cx="2096" cy="-354" rx="9" ry="9"/>
</g>
<!-- S10&#45;&gt;S17 -->
<g id="edge37" class="edge">
<title>S10&#45;&gt;S17</title>
<path fill="none" stroke="black" d="M2198.29,-420.09C2176.07,-415.14 2118.54,-401.89 2112,-396 2105.44,-390.1 2101.54,-381.17 2099.24,-373.16"/>
<polygon fill="black" stroke="black" points="2102.6,-372.15 2096.99,-363.16 2095.77,-373.68 2102.6,-372.15"/>
<text text-anchor="middle" x="2187.5" y="-384.8" font-family="Times,serif" font-size="14.00">notify_borrower_of_default</text>
</g>
<!-- S11&#45;&gt;S2 -->
<g id="edge54" class="edge">
<title>S11&#45;&gt;S2</title>
<path fill="none" stroke="black" d="M2192.94,-490.79C2222.52,-489.9 2316.52,-485.48 2337,-465 2367.04,-434.95 2385.14,-313.94 2366,-276 2315.29,-175.46 2158.6,-153.73 2104,-149.17"/>
<polygon fill="black" stroke="black" points="2104.2,-145.68 2093.97,-148.44 2103.69,-152.66 2104.2,-145.68"/>
<text text-anchor="middle" x="2422.5" y="-315.8" font-family="Times,serif" font-size="14.00">dont_cure_default</text>
</g>
<!-- S11&#45;&gt;S10 -->
<g id="edge52" class="edge">
<title>S11&#45;&gt;S10</title>
<path fill="none" stroke="black" d="M2193.13,-489.79C2206.15,-487.51 2229.62,-481.26 2240,-465 2247.29,-453.57 2235.05,-441.62 2223.47,-433.59"/>
<polygon fill="black" stroke="black" points="2225.03,-430.44 2214.7,-428.08 2221.3,-436.37 2225.03,-430.44"/>
<text text-anchor="middle" x="2289" y="-453.8" font-family="Times,serif" font-size="14.00">borrower_default</text>
</g>
<!-- S11&#45;&gt;S21 -->
<g id="edge53" class="edge">
<title>S11&#45;&gt;S21</title>
<path fill="none" stroke="black" d="M2192.74,-494.79C2207.14,-498.01 2236.43,-505.72 2258,-519 2285.83,-536.14 2283.23,-552.75 2311,-570 2340.98,-588.62 2390.05,-572.05 2361,-603 2334.01,-631.75 2047.69,-630.23 1970.23,-629.28"/>
<polygon fill="black" stroke="black" points="1970.06,-625.78 1960.01,-629.15 1969.97,-632.78 1970.06,-625.78"/>
<text text-anchor="middle" x="2345" y="-557.3" font-family="Times,serif" font-size="14.00">cure_default</text>
</g>
<!-- S12&#45;&gt;S1 -->
<g id="edge32" class="edge">
<title>S12&#45;&gt;S1</title>
<path fill="none" stroke="black" d="M1033.43,-74.46C1065.92,-64.65 1183.42,-29.19 1228.87,-15.47"/>
<polygon fill="black" stroke="black" points="1230,-18.79 1238.56,-12.55 1227.98,-12.09 1230,-18.79"/>
<text text-anchor="middle" x="1179.5" y="-39.8" font-family="Times,serif" font-size="14.00">breached</text>
</g>
<!-- S13&#45;&gt;S3 -->
<g id="edge58" class="edge">
<title>S13&#45;&gt;S3</title>
<path fill="none" stroke="black" d="M1177.98,-490.84C1223.03,-489.96 1422.89,-484.92 1441,-465 1445.48,-460.07 1444.39,-455.74 1441,-450 1348.37,-292.87 1107.49,-234.28 1038.63,-220.44"/>
<polygon fill="black" stroke="black" points="1039.27,-217 1028.79,-218.54 1037.94,-223.87 1039.27,-217"/>
<text text-anchor="middle" x="1413.5" y="-350.3" font-family="Times,serif" font-size="14.00">dont_cure_default</text>
</g>
<!-- S13&#45;&gt;S8 -->
<g id="edge57" class="edge">
<title>S13&#45;&gt;S8</title>
<path fill="none" stroke="black" d="M1172.08,-500.7C1176.73,-513.01 1185,-538 1185,-560 1185,-769 1185,-769 1185,-769 1185,-822.76 987.3,-833.48 924.15,-835.53"/>
<polygon fill="black" stroke="black" points="923.89,-832.04 914,-835.82 924.1,-839.04 923.89,-832.04"/>
<text text-anchor="middle" x="1219" y="-660.8" font-family="Times,serif" font-size="14.00">cure_default</text>
</g>
<!-- S18 -->
<g id="node19" class="node">
<title>S18</title>
<ellipse fill="none" stroke="black" cx="1129" cy="-423" rx="9" ry="9"/>
</g>
<!-- S13&#45;&gt;S18 -->
<g id="edge56" class="edge">
<title>S13&#45;&gt;S18</title>
<path fill="none" stroke="black" d="M1169.01,-482.87C1168.68,-474.16 1167.12,-460.2 1161,-450 1157.13,-443.56 1151.05,-438.02 1145.23,-433.74"/>
<polygon fill="black" stroke="black" points="1146.92,-430.66 1136.64,-428.08 1143.07,-436.51 1146.92,-430.66"/>
<text text-anchor="middle" x="1303" y="-453.8" font-family="Times,serif" font-size="14.00">payment_default(Normal, Borrower, Lender, 550)</text>
</g>
<!-- S13&#45;&gt;S22 -->
<g id="edge55" class="edge">
<title>S13&#45;&gt;S22</title>
<path fill="none" stroke="black" d="M1178.08,-490.84C1224.58,-489.91 1434.56,-484.65 1455,-465 1482.15,-438.91 1444.16,-411.67 1466,-381 1476.37,-366.43 1486.25,-371.49 1502,-363 1544.73,-339.97 1593.9,-310.79 1618.77,-295.82"/>
<polygon fill="black" stroke="black" points="1620.84,-298.67 1627.59,-290.5 1617.22,-292.67 1620.84,-298.67"/>
<text text-anchor="middle" x="1567" y="-384.8" font-family="Times,serif" font-size="14.00">pay(Normal, Borrower, Lender, 550)</text>
</g>
<!-- S14 -->
<g id="node15" class="node">
<title>S14</title>
<ellipse fill="none" stroke="black" cx="1994" cy="-561" rx="9" ry="9"/>
</g>
<!-- S14&#45;&gt;S11 -->
<g id="edge49" class="edge">
<title>S14&#45;&gt;S11</title>
<path fill="none" stroke="black" d="M2002.16,-557.12C2030.66,-547.07 2126.16,-513.4 2166.15,-499.3"/>
<polygon fill="black" stroke="black" points="2167.39,-502.57 2175.65,-495.94 2165.06,-495.97 2167.39,-502.57"/>
<text text-anchor="middle" x="2181.5" y="-522.8" font-family="Times,serif" font-size="14.00">notify_borrower_of_default</text>
</g>
<!-- S14&#45;&gt;S21 -->
<g id="edge51" class="edge">
<title>S14&#45;&gt;S21</title>
<path fill="none" stroke="black" d="M1986.22,-566.09C1978.62,-570.48 1967.31,-578.18 1961,-588 1956.63,-594.79 1954.17,-603.33 1952.79,-610.86"/>
<polygon fill="black" stroke="black" points="1949.31,-610.46 1951.43,-620.84 1956.25,-611.4 1949.31,-610.46"/>
<text text-anchor="middle" x="2021" y="-591.8" font-family="Times,serif" font-size="14.00">dont_notify_borrower</text>
</g>
<!-- S14&#45;&gt;S23 -->
<g id="edge50" class="edge">
<title>S14&#45;&gt;S23</title>
<path fill="none" stroke="black" d="M1985.17,-558.07C1971.79,-554.83 1946.04,-547.31 1928,-534 1921.13,-528.93 1923.11,-523.73 1916,-519 1893.93,-504.31 1863.54,-497.81 1844.07,-495.01"/>
<polygon fill="black" stroke="black" points="1844.38,-491.52 1834.02,-493.76 1843.51,-498.47 1844.38,-491.52"/>
<text text-anchor="middle" x="1975" y="-522.8" font-family="Times,serif" font-size="14.00">borrower_default</text>
</g>
<!-- S15&#45;&gt;S8 -->
<g id="edge48" class="edge">
<title>S15&#45;&gt;S8</title>
<path fill="none" stroke="black" d="M737.97,-362.28C750.39,-384.67 790.44,-453.87 836,-501 845.27,-510.59 852.11,-508.25 860,-519 874.23,-538.38 865.35,-549.56 878,-570 928.78,-652.05 992.8,-636.55 1029,-726 1043.87,-762.75 1028.93,-784 999,-810 977.86,-828.36 944.81,-833.85 924.05,-835.44"/>
<polygon fill="black" stroke="black" points="923.74,-831.95 913.94,-835.97 924.11,-838.94 923.74,-831.95"/>
<text text-anchor="middle" x="963" y="-591.8" font-family="Times,serif" font-size="14.00">dont_notify_borrower</text>
</g>
<!-- S15&#45;&gt;S9 -->
<g id="edge46" class="edge">
<title>S15&#45;&gt;S9</title>
<path fill="none" stroke="black" d="M726.01,-349.76C715.64,-345.36 697.17,-336.92 683,-327 671.46,-318.92 659.87,-307.97 651.48,-299.42"/>
<polygon fill="black" stroke="black" points="653.96,-296.95 644.52,-292.13 648.89,-301.78 653.96,-296.95"/>
<text text-anchor="middle" x="758.5" y="-315.8" font-family="Times,serif" font-size="14.00">notify_borrower_of_default</text>
</g>
<!-- S15&#45;&gt;S24 -->
<g id="edge47" class="edge">
<title>S15&#45;&gt;S24</title>
<path fill="none" stroke="black" d="M733.88,-363.01C733.43,-385.34 731.25,-447.72 721,-465 677.67,-538.05 620.85,-496.52 645,-534 676.46,-582.82 732.54,-539.18 764,-588 782.23,-616.29 773.48,-657.71 766.25,-680.81"/>
<polygon fill="black" stroke="black" points="762.94,-679.69 763.04,-690.28 769.57,-681.94 762.94,-679.69"/>
<text text-anchor="middle" x="692" y="-522.8" font-family="Times,serif" font-size="14.00">borrower_default</text>
</g>
<!-- S16 -->
<g id="node17" class="node">
<title>S16</title>
<ellipse fill="none" stroke="black" cx="889" cy="-561" rx="9" ry="9"/>
</g>
<!-- S16&#45;&gt;S3 -->
<g id="edge31" class="edge">
<title>S16&#45;&gt;S3</title>
<path fill="none" stroke="black" d="M887.79,-551.91C886.35,-543.47 883.56,-529.96 879,-519 875.4,-510.34 870.54,-510.03 868,-501 865.83,-493.3 865.68,-490.66 868,-483 873.11,-466.13 879.23,-463.95 890,-450 896.54,-441.53 901.39,-441.66 906,-432 914.24,-414.72 913,-408.64 913,-389.5 913,-389.5 913,-389.5 913,-284 913,-242.81 970.66,-225.99 1001.32,-219.96"/>
<polygon fill="black" stroke="black" points="1002.01,-223.39 1011.24,-218.2 1000.79,-216.5 1002.01,-223.39"/>
<text text-anchor="middle" x="962.5" y="-384.8" font-family="Times,serif" font-size="14.00">dont_cure_default</text>
</g>
<!-- S16&#45;&gt;S9 -->
<g id="edge29" class="edge">
<title>S16&#45;&gt;S9</title>
<path fill="none" stroke="black" d="M886.93,-552.05C884.34,-543.24 879.21,-528.96 871,-519 862.06,-508.16 852.52,-512.88 845,-501 834.76,-484.82 838,-477.64 838,-458.5 838,-458.5 838,-458.5 838,-353 838,-334.51 844.3,-324.84 831,-312 806.68,-288.51 702.15,-285.88 658.39,-285.83"/>
<polygon fill="black" stroke="black" points="658.2,-282.33 648.21,-285.87 658.23,-289.33 658.2,-282.33"/>
<text text-anchor="middle" x="872" y="-419.3" font-family="Times,serif" font-size="14.00">cure_default</text>
</g>
<!-- S16&#45;&gt;S13 -->
<g id="edge30" class="edge">
<title>S16&#45;&gt;S13</title>
<path fill="none" stroke="black" d="M897.69,-557.92C936.64,-548.6 1095.68,-510.54 1150.4,-497.45"/>
<polygon fill="black" stroke="black" points="1151.5,-500.79 1160.41,-495.05 1149.87,-493.98 1151.5,-500.79"/>
<text text-anchor="middle" x="1088" y="-522.8" font-family="Times,serif" font-size="14.00">cure_default</text>
</g>
<!-- S17&#45;&gt;S2 -->
<g id="edge35" class="edge">
<title>S17&#45;&gt;S2</title>
<path fill="none" stroke="black" d="M2104.54,-350.32C2129.27,-342.04 2198.18,-315.07 2182,-276 2177.67,-265.55 2169,-268.15 2164,-258 2147.36,-224.23 2176.32,-203.56 2153,-174 2141.28,-159.15 2120.02,-152.78 2104.38,-150.04"/>
<polygon fill="black" stroke="black" points="2104.59,-146.54 2094.21,-148.63 2103.63,-153.47 2104.59,-146.54"/>
<text text-anchor="middle" x="2213.5" y="-246.8" font-family="Times,serif" font-size="14.00">dont_cure_default</text>
</g>
<!-- S17&#45;&gt;S11 -->
<g id="edge34" class="edge">
<title>S17&#45;&gt;S11</title>
<path fill="none" stroke="black" d="M2095.17,-363.03C2093.57,-382.85 2092.26,-434.74 2118,-465 2129.7,-478.76 2149.65,-485.28 2164.56,-488.35"/>
<polygon fill="black" stroke="black" points="2164.31,-491.86 2174.76,-490.08 2165.49,-484.96 2164.31,-491.86"/>
<text text-anchor="middle" x="2134" y="-419.3" font-family="Times,serif" font-size="14.00">cure_default</text>
</g>
<!-- S17&#45;&gt;S22 -->
<g id="edge33" class="edge">
<title>S17&#45;&gt;S22</title>
<path fill="none" stroke="black" d="M2087.2,-351.72C2031.91,-343.69 1732.25,-300.13 1653.8,-288.73"/>
<polygon fill="black" stroke="black" points="1654.29,-285.27 1643.89,-287.29 1653.28,-292.19 1654.29,-285.27"/>
<text text-anchor="middle" x="1940" y="-315.8" font-family="Times,serif" font-size="14.00">cure_default</text>
</g>
<!-- S18&#45;&gt;S3 -->
<g id="edge24" class="edge">
<title>S18&#45;&gt;S3</title>
<path fill="none" stroke="black" d="M1125.12,-414.7C1109.49,-385.32 1050.94,-275.19 1028.67,-233.31"/>
<polygon fill="black" stroke="black" points="1031.73,-231.61 1023.95,-224.42 1025.55,-234.9 1031.73,-231.61"/>
<text text-anchor="middle" x="1127.5" y="-315.8" font-family="Times,serif" font-size="14.00">dont_cure_default</text>
</g>
<!-- S18&#45;&gt;S13 -->
<g id="edge23" class="edge">
<title>S18&#45;&gt;S13</title>
<path fill="none" stroke="black" d="M1122.06,-428.81C1120.16,-429.98 1118.05,-431.14 1116,-432 1085.6,-444.79 1064.3,-424 1044,-450 1039.9,-455.25 1039.79,-459.83 1044,-465 1057.08,-481.08 1117.77,-487.54 1149.52,-489.86"/>
<polygon fill="black" stroke="black" points="1149.56,-493.37 1159.77,-490.53 1150.02,-486.38 1149.56,-493.37"/>
<text text-anchor="middle" x="1104" y="-453.8" font-family="Times,serif" font-size="14.00">dont_notify_borrower</text>
</g>
<!-- S18&#45;&gt;S15 -->
<g id="edge21" class="edge">
<title>S18&#45;&gt;S15</title>
<path fill="none" stroke="black" d="M1122.15,-416.93C1120.25,-415.77 1118.12,-414.68 1116,-414 998.87,-376.69 960.04,-422.48 840,-396 807.35,-388.8 771.48,-373.17 750.96,-363.42"/>
<polygon fill="black" stroke="black" points="752.25,-360.15 741.72,-358.93 749.19,-366.45 752.25,-360.15"/>
<text text-anchor="middle" x="874" y="-384.8" font-family="Times,serif" font-size="14.00">cure_default</text>
</g>
<!-- S18&#45;&gt;S16 -->
<g id="edge22" class="edge">
<title>S18&#45;&gt;S16</title>
<path fill="none" stroke="black" d="M1122.09,-428.88C1120.19,-430.05 1118.07,-431.19 1116,-432 1077.19,-447.16 1064.8,-441.55 1024,-450 956.73,-463.93 916.08,-429.49 873,-483 867.98,-489.23 869.75,-493.69 873,-501 877.87,-511.92 888.13,-508.08 893,-519 896.25,-526.29 895.9,-535.01 894.48,-542.53"/>
<polygon fill="black" stroke="black" points="891.05,-541.82 891.93,-552.38 897.83,-543.58 891.05,-541.82"/>
<text text-anchor="middle" x="948.5" y="-488.3" font-family="Times,serif" font-size="14.00">notify_borrower_of_default</text>
</g>
<!-- S19 -->
<g id="node20" class="node">
<title>S19</title>
<ellipse fill="none" stroke="black" cx="2014" cy="-216" rx="9" ry="9"/>
</g>
<!-- S19&#45;&gt;S2 -->
<g id="edge20" class="edge">
<title>S19&#45;&gt;S2</title>
<path fill="none" stroke="black" d="M2020.1,-209.14C2028.41,-201.15 2043.78,-186.44 2057,-174 2061.59,-169.68 2066.63,-164.99 2071.15,-160.79"/>
<polygon fill="black" stroke="black" points="2073.57,-163.33 2078.53,-153.97 2068.81,-158.19 2073.57,-163.33"/>
<text text-anchor="middle" x="2106.5" y="-177.8" font-family="Times,serif" font-size="14.00">dont_cure_default</text>
</g>
<!-- S19&#45;&gt;S14 -->
<g id="edge17" class="edge">
<title>S19&#45;&gt;S14</title>
<path fill="none" stroke="black" d="M2015.21,-225.23C2016.97,-237.85 2020,-262.75 2020,-284 2020,-389.5 2020,-389.5 2020,-389.5 2020,-453.72 2043.2,-474.51 2019,-534 2016.81,-539.37 2012.94,-544.26 2008.88,-548.31"/>
<polygon fill="black" stroke="black" points="2006.48,-545.76 2001.25,-554.98 2011.08,-551.03 2006.48,-545.76"/>
<text text-anchor="middle" x="2054" y="-384.8" font-family="Times,serif" font-size="14.00">cure_default</text>
</g>
<!-- S19&#45;&gt;S17 -->
<g id="edge18" class="edge">
<title>S19&#45;&gt;S17</title>
<path fill="none" stroke="black" d="M2017.33,-224.62C2019.47,-229.74 2022.18,-236.68 2024,-243 2030.39,-265.2 2022.89,-273.75 2034,-294 2045.26,-314.52 2066.13,-332.12 2080.53,-342.63"/>
<polygon fill="black" stroke="black" points="2078.68,-345.61 2088.89,-348.47 2082.69,-339.87 2078.68,-345.61"/>
<text text-anchor="middle" x="2109.5" y="-281.3" font-family="Times,serif" font-size="14.00">notify_borrower_of_default</text>
</g>
<!-- S19&#45;&gt;S22 -->
<g id="edge19" class="edge">
<title>S19&#45;&gt;S22</title>
<path fill="none" stroke="black" d="M2004.97,-217.22C1945.86,-218.73 1616.29,-227.78 1602,-243 1592.44,-253.18 1606.07,-265.83 1618.6,-274.36"/>
<polygon fill="black" stroke="black" points="1616.85,-277.4 1627.18,-279.75 1620.58,-271.47 1616.85,-277.4"/>
<text text-anchor="middle" x="1662" y="-246.8" font-family="Times,serif" font-size="14.00">dont_notify_borrower</text>
</g>
<!-- S20&#45;&gt;S3 -->
<g id="edge16" class="edge">
<title>S20&#45;&gt;S3</title>
<path fill="none" stroke="black" d="M614.86,-627.97C640.06,-624.98 714.26,-615.65 775,-603 831.25,-591.28 847.24,-592.75 900,-570 953.34,-547 981.98,-551.32 1011,-501 1017.64,-489.48 1019.48,-295.92 1019.89,-235.12"/>
<polygon fill="black" stroke="black" points="1023.39,-235.13 1019.96,-225.11 1016.39,-235.08 1023.39,-235.13"/>
<text text-anchor="middle" x="1066.5" y="-419.3" font-family="Times,serif" font-size="14.00">dont_cure_default</text>
</g>
<!-- S20&#45;&gt;S7 -->
<g id="edge13" class="edge">
<title>S20&#45;&gt;S7</title>
<path fill="none" stroke="black" d="M603.78,-639C598.69,-659.21 588.64,-712.77 616,-741 635.17,-760.78 718.57,-765.51 756.77,-766.64"/>
<polygon fill="black" stroke="black" points="756.97,-770.15 767.05,-766.89 757.14,-763.15 756.97,-770.15"/>
<text text-anchor="middle" x="634" y="-695.3" font-family="Times,serif" font-size="14.00">cure_default</text>
</g>
<!-- S20&#45;&gt;S9 -->
<g id="edge15" class="edge">
<title>S20&#45;&gt;S9</title>
<path fill="none" stroke="black" d="M604.79,-620.77C603.03,-608.15 600,-583.25 600,-562 600,-562 600,-562 600,-353 600,-332 614.48,-311.72 625.8,-299.07"/>
<polygon fill="black" stroke="black" points="628.53,-301.27 632.91,-291.62 623.47,-296.44 628.53,-301.27"/>
<text text-anchor="middle" x="660" y="-453.8" font-family="Times,serif" font-size="14.00">dont_notify_borrower</text>
</g>
<!-- S20&#45;&gt;S16 -->
<g id="edge14" class="edge">
<title>S20&#45;&gt;S16</title>
<path fill="none" stroke="black" d="M607.71,-620.82C610.19,-611.22 615.77,-595.66 627,-588 666.5,-561.08 816.34,-560.79 869.86,-561.59"/>
<polygon fill="black" stroke="black" points="869.94,-565.09 880,-561.77 870.07,-558.09 869.94,-565.09"/>
<text text-anchor="middle" x="702.5" y="-591.8" font-family="Times,serif" font-size="14.00">notify_borrower_of_default</text>
</g>
<!-- S21&#45;&gt;S0 -->
<g id="edge40" class="edge">
<title>S21&#45;&gt;S0</title>
<path fill="none" stroke="black" d="M1942.07,-631.19C1921.48,-632 1869.63,-636.11 1833,-657 1825.08,-661.52 1826.97,-667.58 1819,-672 1782.28,-692.37 1732.1,-696.98 1705.09,-697.9"/>
<polygon fill="black" stroke="black" points="1704.97,-694.4 1695.04,-698.1 1705.11,-701.4 1704.97,-694.4"/>
<text text-anchor="middle" x="1880" y="-660.8" font-family="Times,serif" font-size="14.00">borrower_default</text>
</g>
<!-- S21&#45;&gt;S6 -->
<g id="edge42" class="edge">
<title>S21&#45;&gt;S6</title>
<path fill="none" stroke="black" d="M1960.07,-629.03C2018.05,-629.15 2335.41,-628.64 2369,-603 2384.31,-591.32 2383,-581.26 2383,-562 2383,-562 2383,-562 2383,-387.5 2383,-368.56 2373.55,-359.27 2386,-345 2411.67,-315.58 2444.91,-355.12 2472,-327 2484.83,-313.69 2479,-304.49 2479,-286 2479,-286 2479,-286 2479,-146 2479,-107.56 2183.71,-85.46 2104.41,-80.22"/>
<polygon fill="black" stroke="black" points="2104.17,-76.7 2093.97,-79.55 2103.72,-83.68 2104.17,-76.7"/>
<text text-anchor="middle" x="2487" y="-350.3" font-family="Times,serif" font-size="14.00">pay(Normal, Borrower, Lender, 525)</text>
</g>
<!-- S21&#45;&gt;S14 -->
<g id="edge41" class="edge">
<title>S21&#45;&gt;S14</title>
<path fill="none" stroke="black" d="M1959.9,-628.64C1986.8,-627.36 2066.4,-622 2082,-603 2102.19,-578.4 2044.73,-567.79 2013.18,-563.91"/>
<polygon fill="black" stroke="black" points="2013.24,-560.39 2002.91,-562.77 2012.47,-567.35 2013.24,-560.39"/>
<text text-anchor="middle" x="2223" y="-591.8" font-family="Times,serif" font-size="14.00">payment_default(Normal, Borrower, Lender, 525)</text>
</g>
<!-- S22&#45;&gt;S2 -->
<g id="edge28" class="edge">
<title>S22&#45;&gt;S2</title>
<path fill="none" stroke="black" d="M1626.84,-280.29C1612.45,-273.25 1585.15,-257.38 1597,-243 1627.8,-205.63 1979.64,-160.77 2065.96,-150.27"/>
<polygon fill="black" stroke="black" points="2066.42,-153.74 2075.93,-149.07 2065.59,-146.79 2066.42,-153.74"/>
<text text-anchor="middle" x="1746.5" y="-212.3" font-family="Times,serif" font-size="14.00">dont_cure_default</text>
</g>
<!-- S22&#45;&gt;S6 -->
<g id="edge27" class="edge">
<title>S22&#45;&gt;S6</title>
<path fill="none" stroke="black" d="M1626.37,-281.48C1616.29,-278.02 1600.09,-270.74 1593,-258 1582.73,-239.57 1553.01,-223.89 1596,-174 1658.88,-101.02 1982.65,-83.11 2065.61,-79.7"/>
<polygon fill="black" stroke="black" points="2066,-83.18 2075.86,-79.3 2065.73,-76.19 2066,-83.18"/>
<text text-anchor="middle" x="1697" y="-177.8" font-family="Times,serif" font-size="14.00">pay(Normal, Borrower, Lender, 525)</text>
</g>
<!-- S22&#45;&gt;S19 -->
<g id="edge26" class="edge">
<title>S22&#45;&gt;S19</title>
<path fill="none" stroke="black" d="M1643.84,-283C1660,-280.81 1694.9,-274.42 1719,-258 1726.06,-253.19 1723.48,-247.05 1731,-243 1776.73,-218.38 1938.63,-216.67 1994.71,-216.84"/>
<polygon fill="black" stroke="black" points="1994.97,-220.34 2004.99,-216.9 1995.01,-213.34 1994.97,-220.34"/>
<text text-anchor="middle" x="1868" y="-246.8" font-family="Times,serif" font-size="14.00">payment_default(Normal, Borrower, Lender, 525)</text>
</g>
<!-- S22&#45;&gt;S21 -->
<g id="edge25" class="edge">
<title>S22&#45;&gt;S21</title>
<path fill="none" stroke="black" d="M1643.42,-288.93C1652.95,-292.7 1668.15,-300.21 1676,-312 1686.24,-327.39 1683,-334.51 1683,-353 1683,-458.5 1683,-458.5 1683,-458.5 1683,-516.23 1675.22,-530.32 1673,-588 1672.74,-594.66 1668.51,-598.07 1673,-603 1690.4,-622.11 1871.73,-627.42 1931.79,-628.67"/>
<polygon fill="black" stroke="black" points="1931.75,-632.17 1941.82,-628.86 1931.89,-625.17 1931.75,-632.17"/>
<text text-anchor="middle" x="1717" y="-453.8" font-family="Times,serif" font-size="14.00">cure_default</text>
</g>
<!-- S23&#45;&gt;S0 -->
<g id="edge12" class="edge">
<title>S23&#45;&gt;S0</title>
<path fill="none" stroke="black" d="M1815.99,-492.73C1776.2,-492.11 1615.46,-495.52 1552,-588 1517.15,-638.79 1623.66,-678.67 1667.79,-692.63"/>
<polygon fill="black" stroke="black" points="1666.95,-696.03 1677.54,-695.61 1669,-689.34 1666.95,-696.03"/>
<text text-anchor="middle" x="1612" y="-591.8" font-family="Times,serif" font-size="14.00">dont_notify_borrower</text>
</g>
<!-- S23&#45;&gt;S10 -->
<g id="edge9" class="edge">
<title>S23&#45;&gt;S10</title>
<path fill="none" stroke="black" d="M1833.19,-488.04C1854.76,-480.36 1915.05,-459.77 1967,-450 2053.84,-433.67 2077.49,-444.28 2165,-432 2172.71,-430.92 2181.16,-429.38 2188.44,-427.94"/>
<polygon fill="black" stroke="black" points="2189.26,-431.34 2198.35,-425.9 2187.85,-424.49 2189.26,-431.34"/>
<text text-anchor="middle" x="2042.5" y="-453.8" font-family="Times,serif" font-size="14.00">notify_borrower_of_default</text>
</g>
<!-- S23&#45;&gt;S14 -->
<g id="edge11" class="edge">
<title>S23&#45;&gt;S14</title>
<path fill="none" stroke="black" d="M1817.91,-497.87C1807.08,-505.91 1788.67,-522.2 1799,-534 1821.77,-560 1930.41,-561.14 1974.92,-560.48"/>
<polygon fill="black" stroke="black" points="1975.06,-563.98 1984.98,-560.28 1974.92,-556.98 1975.06,-563.98"/>
<text text-anchor="middle" x="1859" y="-522.8" font-family="Times,serif" font-size="14.00">dont_notify_borrower</text>
</g>
<!-- S23&#45;&gt;S19 -->
<g id="edge10" class="edge">
<title>S23&#45;&gt;S19</title>
<path fill="none" stroke="black" d="M1824.66,-482.71C1824.12,-458.04 1826,-384.42 1865,-345 1885.48,-324.3 1902.65,-341.33 1928,-327 1967.15,-304.88 1978.4,-296.28 2002,-258 2006.29,-251.04 2009.11,-242.48 2010.93,-234.98"/>
<polygon fill="black" stroke="black" points="2014.38,-235.56 2012.94,-225.07 2007.52,-234.17 2014.38,-235.56"/>
<text text-anchor="middle" x="1940.5" y="-350.3" font-family="Times,serif" font-size="14.00">notify_borrower_of_default</text>
</g>
<!-- S24&#45;&gt;S7 -->
<g id="edge3" class="edge">
<title>S24&#45;&gt;S7</title>
<path fill="none" stroke="black" d="M751.03,-701C721.47,-704.39 628.49,-715.78 620,-726 615.74,-731.13 615.69,-735.91 620,-741 637.29,-761.41 718.63,-765.81 756.51,-766.75"/>
<polygon fill="black" stroke="black" points="756.68,-770.26 766.75,-766.95 756.81,-763.26 756.68,-770.26"/>
<text text-anchor="middle" x="680" y="-729.8" font-family="Times,serif" font-size="14.00">dont_notify_borrower</text>
</g>
<!-- S24&#45;&gt;S15 -->
<g id="edge4" class="edge">
<title>S24&#45;&gt;S15</title>
<path fill="none" stroke="black" d="M765.29,-691.16C768.8,-686.16 773.11,-679.05 775,-672 784.66,-635.94 784.87,-624.01 775,-588 767.63,-561.09 751.05,-560.71 743,-534 734.07,-504.37 733.59,-412.73 733.81,-373.32"/>
<polygon fill="black" stroke="black" points="737.31,-373.12 733.89,-363.09 730.31,-373.06 737.31,-373.12"/>
<text text-anchor="middle" x="803" y="-522.8" font-family="Times,serif" font-size="14.00">dont_notify_borrower</text>
</g>
<!-- S24&#45;&gt;S18 -->
<g id="edge1" class="edge">
<title>S24&#45;&gt;S18</title>
<path fill="none" stroke="black" d="M768.94,-697.29C803.92,-693.99 932.67,-677.08 995,-603 1009.93,-585.26 999.98,-574.39 1006,-552 1007.55,-546.25 1034.62,-454.03 1039,-450 1062.64,-428.25 1080.25,-442.4 1112.55,-432.36"/>
<polygon fill="black" stroke="black" points="1113.91,-435.59 1122.07,-428.83 1111.47,-429.02 1113.91,-435.59"/>
<text text-anchor="middle" x="1081.5" y="-557.3" font-family="Times,serif" font-size="14.00">notify_borrower_of_default</text>
</g>
<!-- S24&#45;&gt;S20 -->
<g id="edge2" class="edge">
<title>S24&#45;&gt;S20</title>
<path fill="none" stroke="black" d="M750.84,-697.62C722.31,-696.23 635.7,-690.54 616,-672 609.84,-666.2 607.2,-657.29 606.16,-649.25"/>
<polygon fill="black" stroke="black" points="609.65,-648.98 605.56,-639.21 602.66,-649.41 609.65,-648.98"/>
<text text-anchor="middle" x="691.5" y="-660.8" font-family="Times,serif" font-size="14.00">notify_borrower_of_default</text>
</g>
</g>
</svg>
