<?xml version="1.0" encoding="UTF-8" standalone="no"?>
<!DOCTYPE svg PUBLIC "-//W3C//DTD SVG 1.1//EN"
 "http://www.w3.org/Graphics/SVG/1.1/DTD/svg11.dtd">
<!-- Generated by graphviz version 7.0.1 (0)
 -->
<!-- Title: prob_graph Pages: 1 -->
<svg width="540pt" height="712pt"
 viewBox="0.00 0.00 540.00 711.61" xmlns="http://www.w3.org/2000/svg" xmlns:xlink="http://www.w3.org/1999/xlink">
<g id="graph0" class="graph" transform="scale(0.599002 0.599002) rotate(0) translate(4 1184)">
<title>prob_graph</title>
<polygon fill="white" stroke="none" points="-4,4 -4,-1184 897.5,-1184 897.5,4 -4,4"/>
<!-- 1 -->
<g id="node1" class="node">
<title>1</title>
<polygon fill="none" stroke="green" points="500.5,-1109 500.5,-1151 644.5,-1151 644.5,-1109 500.5,-1109"/>
<text text-anchor="middle" x="510.5" y="-1126.9" font-family="Times,serif" font-size="12.00"> </text>
<polyline fill="none" stroke="green" points="520.5,-1109 520.5,-1151"/>
<text text-anchor="middle" x="572.5" y="-1137.4" font-family="Times,serif" font-size="12.00">outstanding ↦ state</text>
<polyline fill="none" stroke="green" points="520.5,-1130 624.5,-1130"/>
<text text-anchor="middle" x="572.5" y="-1116.4" font-family="Times,serif" font-size="12.00"># states: 1</text>
<polyline fill="none" stroke="green" points="624.5,-1109 624.5,-1151"/>
<text text-anchor="middle" x="634.5" y="-1126.9" font-family="Times,serif" font-size="12.00"> </text>
</g>
<!-- 2 -->
<g id="node2" class="node">
<title>2</title>
<polygon fill="none" stroke="blue" points="504,-893 504,-935 641,-935 641,-893 504,-893"/>
<text text-anchor="middle" x="514" y="-910.9" font-family="Times,serif" font-size="12.00"> </text>
<polyline fill="none" stroke="blue" points="524,-893 524,-935"/>
<text text-anchor="middle" x="572.5" y="-921.4" font-family="Times,serif" font-size="12.00">&lt;&lt; undefined &gt;&gt;</text>
<polyline fill="none" stroke="blue" points="524,-914 621,-914"/>
<text text-anchor="middle" x="572.5" y="-900.4" font-family="Times,serif" font-size="12.00"># states: 2</text>
<polyline fill="none" stroke="blue" points="621,-893 621,-935"/>
<text text-anchor="middle" x="631" y="-910.9" font-family="Times,serif" font-size="12.00"> </text>
</g>
<!-- 1&#45;&gt;2 -->
<g id="edge1" class="edge">
<title>1&#45;&gt;2</title>
<path fill="none" stroke="black" d="M572.5,-1109.25C572.5,-1071.91 572.5,-990.69 572.5,-946.01"/>
<polygon fill="black" stroke="black" points="576,-946.21 572.5,-936.21 569,-946.21 576,-946.21"/>
<text text-anchor="middle" x="617" y="-1018.9" font-family="Times,serif" font-size="12.00">start_cspm_MAIN</text>
</g>
<!-- 2&#45;&gt;2 -->
<g id="edge2" class="edge">
<title>2&#45;&gt;2</title>
<path fill="none" stroke="#806040" stroke-dasharray="5,2" d="M640.67,-932.65C651.55,-929.92 659,-923.7 659,-914 659,-907.78 655.94,-903 650.89,-899.65"/>
<polygon fill="#806040" stroke="#806040" points="652.64,-896.59 642.07,-895.94 649.93,-903.04 652.64,-896.59"/>
<text text-anchor="middle" x="666.5" y="-910.9" font-family="Times,serif" font-size="12.00">tau</text>
</g>
<!-- 3 -->
<g id="node3" class="node">
<title>3</title>
<polygon fill="none" stroke="blue" stroke-width="2" points="509.5,-677 509.5,-719 635.5,-719 635.5,-677 509.5,-677"/>
<text text-anchor="middle" x="519.5" y="-694.9" font-family="Times,serif" font-size="12.00"> </text>
<polyline fill="none" stroke="blue" stroke-width="2" points="529.5,-677 529.5,-719"/>
<text text-anchor="middle" x="572.5" y="-705.4" font-family="Times,serif" font-size="12.00">(0↦InProgress)</text>
<polyline fill="none" stroke="blue" stroke-width="2" points="529.5,-698 615.5,-698"/>
<text text-anchor="middle" x="572.5" y="-684.4" font-family="Times,serif" font-size="12.00"># states: 5629</text>
<polyline fill="none" stroke="blue" stroke-width="2" points="615.5,-677 615.5,-719"/>
<text text-anchor="middle" x="625.5" y="-694.9" font-family="Times,serif" font-size="12.00"> </text>
</g>
<!-- 2&#45;&gt;3 -->
<g id="edge3" class="edge">
<title>2&#45;&gt;3</title>
<path fill="none" stroke="#806040" stroke-dasharray="5,2" d="M572.5,-893.25C572.5,-855.91 572.5,-774.69 572.5,-730.01"/>
<polygon fill="#806040" stroke="#806040" points="576,-730.21 572.5,-720.21 569,-730.21 576,-730.21"/>
<text text-anchor="middle" x="580" y="-802.9" font-family="Times,serif" font-size="12.00">tau</text>
</g>
<!-- 3&#45;&gt;3 -->
<g id="edge4" class="edge">
<title>3&#45;&gt;3</title>
<path fill="none" stroke="#806040" stroke-dasharray="5,2" d="M635.33,-707.45C646.06,-706.16 653.5,-703.01 653.5,-698 653.5,-695.03 650.88,-692.71 646.5,-691.04"/>
<polygon fill="#806040" stroke="#806040" points="647.33,-687.64 636.81,-688.88 645.8,-694.47 647.33,-687.64"/>
<text text-anchor="middle" x="694.5" y="-694.9" font-family="Times,serif" font-size="12.00">request_principal</text>
</g>
<!-- 3&#45;&gt;3 -->
<g id="edge15" class="edge">
<title>3&#45;&gt;3</title>
<path fill="none" stroke="#806040" stroke-dasharray="5,2" d="M635.13,-716.65C682.15,-721.51 735.5,-715.3 735.5,-698 735.5,-682.09 690.35,-675.55 646.51,-678.4"/>
<polygon fill="#806040" stroke="#806040" points="646.31,-674.9 636.63,-679.23 646.89,-681.88 646.31,-674.9"/>
<text text-anchor="middle" x="801.5" y="-694.9" font-family="Times,serif" font-size="12.00">notify_borrower_of_default</text>
</g>
<!-- 4 -->
<g id="node4" class="node">
<title>4</title>
<polygon fill="none" stroke="blue" points="0,-29 0,-71 121,-71 121,-29 0,-29"/>
<text text-anchor="middle" x="10" y="-46.9" font-family="Times,serif" font-size="12.00"> </text>
<polyline fill="none" stroke="blue" points="20,-29 20,-71"/>
<text text-anchor="middle" x="60.5" y="-57.4" font-family="Times,serif" font-size="12.00">(0↦Fulfilled)</text>
<polyline fill="none" stroke="blue" points="20,-50 101,-50"/>
<text text-anchor="middle" x="60.5" y="-36.4" font-family="Times,serif" font-size="12.00"># states: 2053</text>
<polyline fill="none" stroke="blue" points="101,-29 101,-71"/>
<text text-anchor="middle" x="111" y="-46.9" font-family="Times,serif" font-size="12.00"> </text>
</g>
<!-- 3&#45;&gt;4 -->
<g id="edge5" class="edge">
<title>3&#45;&gt;4</title>
<path fill="none" stroke="#806040" stroke-dasharray="5,2" d="M509.91,-678.99C398.55,-643.17 168.86,-551.33 74.5,-380.5 20.65,-283 40.55,-143.42 53.22,-82"/>
<polygon fill="#806040" stroke="#806040" points="56.63,-82.79 55.31,-72.28 49.79,-81.32 56.63,-82.79"/>
<text text-anchor="middle" x="115.5" y="-370.9" font-family="Times,serif" font-size="12.00">request_principal</text>
</g>
<!-- 9 -->
<g id="node5" class="node">
<title>9</title>
<polygon fill="none" stroke="blue" points="441,-29 441,-71 562,-71 562,-29 441,-29"/>
<text text-anchor="middle" x="451" y="-46.9" font-family="Times,serif" font-size="12.00"> </text>
<polyline fill="none" stroke="blue" points="461,-29 461,-71"/>
<text text-anchor="middle" x="501.5" y="-57.4" font-family="Times,serif" font-size="12.00">(0↦Breached)</text>
<polyline fill="none" stroke="blue" points="461,-50 542,-50"/>
<text text-anchor="middle" x="501.5" y="-36.4" font-family="Times,serif" font-size="12.00"># states: 4868</text>
<polyline fill="none" stroke="blue" points="542,-29 542,-71"/>
<text text-anchor="middle" x="552" y="-46.9" font-family="Times,serif" font-size="12.00"> </text>
</g>
<!-- 3&#45;&gt;9 -->
<g id="edge16" class="edge">
<title>3&#45;&gt;9</title>
<path fill="none" stroke="#806040" stroke-dasharray="5,2" d="M591.59,-677.09C650.74,-612.89 822.41,-406.13 744.5,-244.5 705.62,-163.84 614.96,-106.42 556.04,-76.01"/>
<polygon fill="#806040" stroke="#806040" points="557.64,-72.9 547.14,-71.51 554.48,-79.15 557.64,-72.9"/>
<text text-anchor="middle" x="827.5" y="-370.9" font-family="Times,serif" font-size="12.00">notify_borrower_of_default</text>
</g>
<!-- 6 -->
<g id="node6" class="node">
<title>6</title>
<polygon fill="none" stroke="blue" points="596,-245 596,-287 735,-287 735,-245 596,-245"/>
<text text-anchor="middle" x="606" y="-262.9" font-family="Times,serif" font-size="12.00"> </text>
<polyline fill="none" stroke="blue" points="616,-245 616,-287"/>
<text text-anchor="middle" x="665.5" y="-273.4" font-family="Times,serif" font-size="12.00">(1075↦Breached)</text>
<polyline fill="none" stroke="blue" points="616,-266 715,-266"/>
<text text-anchor="middle" x="665.5" y="-252.4" font-family="Times,serif" font-size="12.00"># states: 1281</text>
<polyline fill="none" stroke="blue" points="715,-245 715,-287"/>
<text text-anchor="middle" x="725" y="-262.9" font-family="Times,serif" font-size="12.00"> </text>
</g>
<!-- 3&#45;&gt;6 -->
<g id="edge7" class="edge">
<title>3&#45;&gt;6</title>
<path fill="none" stroke="#806040" stroke-dasharray="5,2" d="M579.97,-677.25C592.79,-642.58 619.01,-568.3 633.5,-503.5 649.73,-430.9 658.93,-343.81 662.98,-298.26"/>
<polygon fill="#806040" stroke="#806040" points="666.47,-298.6 663.84,-288.33 659.49,-297.99 666.47,-298.6"/>
<text text-anchor="middle" x="676.5" y="-478.9" font-family="Times,serif" font-size="12.00">send_principal</text>
</g>
<!-- 5 -->
<g id="node7" class="node">
<title>5</title>
<polygon fill="none" stroke="blue" points="242.5,-461 242.5,-503 386.5,-503 386.5,-461 242.5,-461"/>
<text text-anchor="middle" x="252.5" y="-478.9" font-family="Times,serif" font-size="12.00"> </text>
<polyline fill="none" stroke="blue" points="262.5,-461 262.5,-503"/>
<text text-anchor="middle" x="314.5" y="-489.4" font-family="Times,serif" font-size="12.00">(1075↦InProgress)</text>
<polyline fill="none" stroke="blue" points="262.5,-482 366.5,-482"/>
<text text-anchor="middle" x="314.5" y="-468.4" font-family="Times,serif" font-size="12.00"># states: 1775</text>
<polyline fill="none" stroke="blue" points="366.5,-461 366.5,-503"/>
<text text-anchor="middle" x="376.5" y="-478.9" font-family="Times,serif" font-size="12.00"> </text>
</g>
<!-- 3&#45;&gt;5 -->
<g id="edge6" class="edge">
<title>3&#45;&gt;5</title>
<path fill="none" stroke="#806040" stroke-dasharray="5,2" d="M548.69,-677.25C502.23,-638.71 399.43,-553.45 346.85,-509.84"/>
<polygon fill="#806040" stroke="#806040" points="349.35,-507.36 339.42,-503.67 344.88,-512.75 349.35,-507.36"/>
<text text-anchor="middle" x="485.5" y="-586.9" font-family="Times,serif" font-size="12.00">send_principal</text>
</g>
<!-- 5&#45;&gt;4 -->
<g id="edge19" class="edge">
<title>5&#45;&gt;4</title>
<path fill="none" stroke="#806040" stroke-dasharray="5,2" d="M280.08,-461.25C230.25,-430.74 138.93,-367.25 92.5,-287.5 54.43,-222.11 54.39,-129.68 57.5,-82.05"/>
<polygon fill="#806040" stroke="#806040" points="60.98,-82.42 58.24,-72.19 54,-81.89 60.98,-82.42"/>
<text text-anchor="middle" x="130.5" y="-262.9" font-family="Times,serif" font-size="12.00">pay_accelerated</text>
</g>
<!-- 5&#45;&gt;9 -->
<g id="edge20" class="edge">
<title>5&#45;&gt;9</title>
<path fill="none" stroke="#806040" stroke-dasharray="5,2" d="M337.9,-461.21C374.18,-428.98 443.1,-361.3 474.5,-287.5 503.76,-218.73 505.15,-129.11 503.45,-82.4"/>
<polygon fill="#806040" stroke="#806040" points="506.95,-82.3 503.01,-72.47 499.96,-82.62 506.95,-82.3"/>
<text text-anchor="middle" x="525.5" y="-262.9" font-family="Times,serif" font-size="12.00">pay_accelerated</text>
</g>
<!-- 5&#45;&gt;6 -->
<g id="edge14" class="edge">
<title>5&#45;&gt;6</title>
<path fill="none" stroke="#806040" stroke-dasharray="5,2" d="M347.21,-461.06C411.09,-422.11 552.37,-335.98 623.23,-292.77"/>
<polygon fill="#806040" stroke="#806040" points="624.74,-295.95 631.46,-287.76 621.1,-289.97 624.74,-295.95"/>
<text text-anchor="middle" x="566.5" y="-370.9" font-family="Times,serif" font-size="12.00">notify_borrower_of_default</text>
</g>
<!-- 5&#45;&gt;5 -->
<g id="edge13" class="edge">
<title>5&#45;&gt;5</title>
<path fill="none" stroke="#806040" stroke-dasharray="5,2" d="M386.16,-500.47C397.08,-497.65 404.5,-491.49 404.5,-482 404.5,-475.92 401.46,-471.21 396.4,-467.87"/>
<polygon fill="#806040" stroke="#806040" points="398.13,-464.8 387.56,-464.12 395.4,-471.25 398.13,-464.8"/>
<text text-anchor="middle" x="470.5" y="-478.9" font-family="Times,serif" font-size="12.00">notify_borrower_of_default</text>
</g>
<!-- 7 -->
<g id="node8" class="node">
<title>7</title>
<polygon fill="none" stroke="blue" points="177.5,-245 177.5,-287 315.5,-287 315.5,-245 177.5,-245"/>
<text text-anchor="middle" x="187.5" y="-262.9" font-family="Times,serif" font-size="12.00"> </text>
<polyline fill="none" stroke="blue" points="197.5,-245 197.5,-287"/>
<text text-anchor="middle" x="246.5" y="-273.4" font-family="Times,serif" font-size="12.00">(525↦InProgress)</text>
<polyline fill="none" stroke="blue" points="197.5,-266 295.5,-266"/>
<text text-anchor="middle" x="246.5" y="-252.4" font-family="Times,serif" font-size="12.00"># states: 9205</text>
<polyline fill="none" stroke="blue" points="295.5,-245 295.5,-287"/>
<text text-anchor="middle" x="305.5" y="-262.9" font-family="Times,serif" font-size="12.00"> </text>
</g>
<!-- 5&#45;&gt;7 -->
<g id="edge8" class="edge">
<title>5&#45;&gt;7</title>
<path fill="none" stroke="black" stroke-dasharray="5,2" d="M308.22,-461.25C296.31,-423.75 270.33,-342 256.17,-297.44"/>
<polygon fill="black" stroke="black" points="259.58,-296.61 253.22,-288.14 252.91,-298.73 259.58,-296.61"/>
<text text-anchor="middle" x="312" y="-370.9" font-family="Times,serif" font-size="12.00">pay_normal</text>
</g>
<!-- 7&#45;&gt;3 -->
<g id="edge10" class="edge">
<title>7&#45;&gt;3</title>
<path fill="none" stroke="#806040" stroke-dasharray="5,2" d="M315.18,-267.75C388.45,-272.64 501.61,-292.8 558.5,-367.5 567.45,-379.25 571.07,-586.25 572.13,-666.01"/>
<polygon fill="#806040" stroke="#806040" points="568.63,-665.78 572.26,-675.74 575.63,-665.69 568.63,-665.78"/>
<text text-anchor="middle" x="597" y="-478.9" font-family="Times,serif" font-size="12.00">pay_normal</text>
</g>
<!-- 7&#45;&gt;4 -->
<g id="edge9" class="edge">
<title>7&#45;&gt;4</title>
<path fill="none" stroke="#806040" stroke-dasharray="5,2" d="M187.39,-245.03C149.8,-229.18 103.48,-203.18 77.5,-164.5 61.25,-140.3 58.02,-106.7 58.24,-82.34"/>
<polygon fill="#806040" stroke="#806040" points="61.73,-82.49 58.55,-72.39 54.74,-82.27 61.73,-82.49"/>
<text text-anchor="middle" x="106" y="-154.9" font-family="Times,serif" font-size="12.00">pay_normal</text>
</g>
<!-- 7&#45;&gt;4 -->
<g id="edge17" class="edge">
<title>7&#45;&gt;4</title>
<path fill="none" stroke="#806040" stroke-dasharray="5,2" d="M229.33,-245.25C196.19,-207.11 123.26,-123.21 85.01,-79.2"/>
<polygon fill="#806040" stroke="#806040" points="87.82,-77.1 78.62,-71.84 82.53,-81.69 87.82,-77.1"/>
<text text-anchor="middle" x="197.5" y="-154.9" font-family="Times,serif" font-size="12.00">pay_accelerated</text>
</g>
<!-- 7&#45;&gt;9 -->
<g id="edge18" class="edge">
<title>7&#45;&gt;9</title>
<path fill="none" stroke="#806040" stroke-dasharray="5,2" d="M277.55,-245.01C306.86,-225.65 351.55,-194.85 387.5,-164.5 419.62,-137.38 453.38,-102.92 475.74,-79.12"/>
<polygon fill="#806040" stroke="#806040" points="478.15,-81.67 482.41,-71.97 473.03,-76.89 478.15,-81.67"/>
<text text-anchor="middle" x="439.5" y="-154.9" font-family="Times,serif" font-size="12.00">pay_accelerated</text>
</g>
<!-- 7&#45;&gt;7 -->
<g id="edge11" class="edge">
<title>7&#45;&gt;7</title>
<path fill="none" stroke="#806040" stroke-dasharray="5,2" d="M315.42,-284.56C326.17,-281.78 333.5,-275.6 333.5,-266 333.5,-260 330.64,-255.34 325.87,-252"/>
<polygon fill="#806040" stroke="#806040" points="327.37,-248.84 316.81,-248.05 324.57,-255.26 327.37,-248.84"/>
<text text-anchor="middle" x="399.5" y="-262.9" font-family="Times,serif" font-size="12.00">notify_borrower_of_default</text>
</g>
<!-- 8 -->
<g id="node9" class="node">
<title>8</title>
<polygon fill="none" stroke="blue" points="189,-29 189,-71 322,-71 322,-29 189,-29"/>
<text text-anchor="middle" x="199" y="-46.9" font-family="Times,serif" font-size="12.00"> </text>
<polyline fill="none" stroke="blue" points="209,-29 209,-71"/>
<text text-anchor="middle" x="255.5" y="-57.4" font-family="Times,serif" font-size="12.00">(525↦Breached)</text>
<polyline fill="none" stroke="blue" points="209,-50 302,-50"/>
<text text-anchor="middle" x="255.5" y="-36.4" font-family="Times,serif" font-size="12.00"># states: 7424</text>
<polyline fill="none" stroke="blue" points="302,-29 302,-71"/>
<text text-anchor="middle" x="312" y="-46.9" font-family="Times,serif" font-size="12.00"> </text>
</g>
<!-- 7&#45;&gt;8 -->
<g id="edge12" class="edge">
<title>7&#45;&gt;8</title>
<path fill="none" stroke="#806040" stroke-dasharray="5,2" d="M247.33,-245.25C248.9,-207.91 252.32,-126.69 254.2,-82.01"/>
<polygon fill="#806040" stroke="#806040" points="257.68,-82.35 254.61,-72.21 250.69,-82.06 257.68,-82.35"/>
<text text-anchor="middle" x="317.5" y="-154.9" font-family="Times,serif" font-size="12.00">notify_borrower_of_default</text>
</g>
</g>
</svg>
