<?xml version="1.0" encoding="UTF-8" standalone="no"?>
<!DOCTYPE svg PUBLIC "-//W3C//DTD SVG 1.1//EN"
 "http://www.w3.org/Graphics/SVG/1.1/DTD/svg11.dtd">
<!-- Generated by graphviz version 5.0.1 (0)
 -->
<!-- Title: G Pages: 1 -->
<svg width="3470pt" height="1803pt"
 viewBox="0.00 0.00 3469.58 1802.59" xmlns="http://www.w3.org/2000/svg" xmlns:xlink="http://www.w3.org/1999/xlink">
<g id="graph0" class="graph" transform="scale(1 1) rotate(0) translate(4 1798.59)">
<title>G</title>
<polygon fill="white" stroke="none" points="-4,4 -4,-1798.59 3465.58,-1798.59 3465.58,4 -4,4"/>
<!-- s4 -->
<g id="node1" class="node">
<title>s4</title>
<ellipse fill="none" stroke="black" cx="3103.58" cy="-1774.33" rx="22.74" ry="16.08"/>
<ellipse fill="none" stroke="black" cx="3103.58" cy="-1774.33" rx="26.76" ry="20.03"/>
<text text-anchor="middle" x="3103.58" y="-1770.63" font-family="Times,serif" font-size="14.00">(5)</text>
</g>
<!-- s5 -->
<g id="node6" class="node">
<title>s5</title>
<ellipse fill="none" stroke="black" cx="2191.58" cy="-1686.8" rx="22.76" ry="16.03"/>
<text text-anchor="middle" x="2191.58" y="-1683.1" font-family="Times,serif" font-size="14.00">(6)</text>
</g>
<!-- s4&#45;&gt;s5 -->
<g id="edge127" class="edge">
<title>s4&#45;&gt;s5</title>
<path fill="none" stroke="black" d="M3077.27,-1770.86C2946.63,-1758.61 2368.25,-1704.37 2224.17,-1690.86"/>
<polygon fill="black" stroke="black" points="2224.46,-1687.37 2214.18,-1689.92 2223.81,-1694.34 2224.46,-1687.37"/>
<text text-anchor="middle" x="2748.58" y="-1724.87" font-family="Times,serif" font-size="14.00">request_principal</text>
</g>
<!-- s6 -->
<g id="node7" class="node">
<title>s6</title>
<ellipse fill="none" stroke="black" cx="3015.58" cy="-16.26" rx="22.76" ry="16.03"/>
<text text-anchor="middle" x="3015.58" y="-12.56" font-family="Times,serif" font-size="14.00">(1)</text>
</g>
<!-- s4&#45;&gt;s6 -->
<g id="edge128" class="edge">
<title>s4&#45;&gt;s6</title>
<path fill="none" stroke="black" d="M3129.85,-1769.4C3190.79,-1759.55 3336.58,-1731.43 3336.58,-1687.8 3336.58,-1687.8 3336.58,-1687.8 3336.58,-98.79 3336.58,-39.77 3130.17,-22.98 3048.38,-18.65"/>
<polygon fill="black" stroke="black" points="3048.31,-15.14 3038.15,-18.13 3047.96,-22.13 3048.31,-15.14"/>
<text text-anchor="middle" x="3399.08" y="-889.6" font-family="Times,serif" font-size="14.00">dont_request_principal</text>
</g>
<!-- s0 -->
<g id="node2" class="node">
<title>s0</title>
<ellipse fill="none" stroke="black" cx="1821.58" cy="-1519.75" rx="27.65" ry="16.03"/>
<text text-anchor="middle" x="1821.58" y="-1516.05" font-family="Times,serif" font-size="14.00">(19)</text>
</g>
<!-- s8 -->
<g id="node9" class="node">
<title>s8</title>
<ellipse fill="none" stroke="black" cx="2576.58" cy="-1436.22" rx="22.76" ry="16.03"/>
<text text-anchor="middle" x="2576.58" y="-1432.52" font-family="Times,serif" font-size="14.00">(7)</text>
</g>
<!-- s0&#45;&gt;s8 -->
<g id="edge16" class="edge">
<title>s0&#45;&gt;s8</title>
<path fill="none" stroke="black" d="M1849.14,-1517.02C1906.69,-1513.19 2043.72,-1502.93 2157.58,-1485.48 2189.89,-1480.53 2197.21,-1475.06 2229.58,-1470.48 2334.61,-1455.64 2362.11,-1463.85 2467.58,-1452.48 2493.54,-1449.69 2522.84,-1445.53 2544.52,-1442.26"/>
<polygon fill="black" stroke="black" points="2545.14,-1445.7 2554.5,-1440.73 2544.09,-1438.78 2545.14,-1445.7"/>
<text text-anchor="middle" x="2382.08" y="-1474.28" font-family="Times,serif" font-size="14.00">notify_borrower_of_default|notify_borrower_of_default</text>
</g>
<!-- s9 -->
<g id="node10" class="node">
<title>s9</title>
<ellipse fill="none" stroke="black" cx="1714.58" cy="-1352.69" rx="27.65" ry="16.03"/>
<text text-anchor="middle" x="1714.58" y="-1348.99" font-family="Times,serif" font-size="14.00">(10)</text>
</g>
<!-- s0&#45;&gt;s9 -->
<g id="edge14" class="edge">
<title>s0&#45;&gt;s9</title>
<path fill="none" stroke="black" d="M1812.27,-1504.39C1793.69,-1475.73 1751.88,-1411.24 1729.46,-1376.65"/>
<polygon fill="black" stroke="black" points="1732.32,-1374.62 1723.94,-1368.14 1726.44,-1378.43 1732.32,-1374.62"/>
<text text-anchor="middle" x="1914.58" y="-1432.52" font-family="Times,serif" font-size="14.00">dont_notify_borrower|notify_borrower_of_default</text>
</g>
<!-- s11 -->
<g id="node12" class="node">
<title>s11</title>
<ellipse fill="none" stroke="black" cx="2232.58" cy="-1018.59" rx="27.65" ry="16.03"/>
<text text-anchor="middle" x="2232.58" y="-1014.89" font-family="Times,serif" font-size="14.00">(15)</text>
</g>
<!-- s0&#45;&gt;s11 -->
<g id="edge15" class="edge">
<title>s0&#45;&gt;s11</title>
<path fill="none" stroke="black" d="M1848.54,-1516.24C1887.36,-1512.2 1961.01,-1502.86 2021.58,-1485.48 2114.57,-1458.81 2138.01,-1448.93 2222.58,-1401.96 2232.6,-1396.39 2233.19,-1391.82 2243.58,-1386.96 2272.28,-1373.52 2293.2,-1394.04 2312.58,-1368.96 2364.27,-1302.05 2230.97,-1336.76 2197.58,-1285.43 2189.69,-1273.31 2187.74,-1263.5 2197.58,-1252.9 2234.27,-1213.38 2402.89,-1274.42 2439.58,-1234.9 2450.85,-1222.76 2448.05,-1097.8 2436.58,-1085.85 2408.73,-1056.86 2289.65,-1090.7 2256.58,-1067.85 2248.52,-1062.29 2243.04,-1053.21 2239.38,-1044.42"/>
<polygon fill="black" stroke="black" points="2242.61,-1043.07 2235.97,-1034.82 2236.02,-1045.41 2242.61,-1043.07"/>
<text text-anchor="middle" x="2334.58" y="-1265.47" font-family="Times,serif" font-size="14.00">dont_notify_borrower|notify_borrower_of_default</text>
</g>
<!-- s13 -->
<g id="node14" class="node">
<title>s13</title>
<ellipse fill="none" stroke="black" cx="2191.58" cy="-1603.27" rx="27.65" ry="16.03"/>
<text text-anchor="middle" x="2191.58" y="-1599.57" font-family="Times,serif" font-size="14.00">(25)</text>
</g>
<!-- s0&#45;&gt;s13 -->
<g id="edge13" class="edge">
<title>s0&#45;&gt;s13</title>
<path fill="none" stroke="black" d="M1849.23,-1521.38C1929.63,-1523.46 2159.23,-1531.37 2183.58,-1554.01 2189.79,-1559.79 2192.37,-1568.4 2193.21,-1576.76"/>
<polygon fill="black" stroke="black" points="2189.72,-1577.07 2193.49,-1586.97 2196.72,-1576.88 2189.72,-1577.07"/>
<text text-anchor="middle" x="2312.58" y="-1557.81" font-family="Times,serif" font-size="14.00">dont_notify_borrower|dont_notify_borrower</text>
</g>
<!-- s14 -->
<g id="node15" class="node">
<title>s14</title>
<ellipse fill="none" stroke="black" cx="1153.58" cy="-935.06" rx="27.65" ry="16.03"/>
<text text-anchor="middle" x="1153.58" y="-931.36" font-family="Times,serif" font-size="14.00">(21)</text>
</g>
<!-- s0&#45;&gt;s14 -->
<g id="edge9" class="edge">
<title>s0&#45;&gt;s14</title>
<path fill="none" stroke="black" d="M1793.78,-1518.69C1714.65,-1518.17 1489.61,-1514.14 1422.58,-1485.48 1382.18,-1468.22 1386.86,-1441.51 1348.58,-1419.96 1325.06,-1406.71 1312.78,-1417.3 1290.58,-1401.96 1280.02,-1394.67 1158.63,-1227.87 1148.58,-1219.9 1064.19,-1153 987.51,-1208.51 928.58,-1118.38 900.11,-1074.85 907.63,-1039.91 943.58,-1002.32 989.26,-954.54 1069.05,-941.08 1116.02,-937.37"/>
<polygon fill="black" stroke="black" points="1116.34,-940.86 1126.08,-936.69 1115.87,-933.87 1116.34,-940.86"/>
<text text-anchor="middle" x="1221.58" y="-1223.7" font-family="Times,serif" font-size="14.00">dont_notify_borrower</text>
</g>
<!-- s15 -->
<g id="node16" class="node">
<title>s15</title>
<ellipse fill="none" stroke="black" cx="1936.58" cy="-1269.17" rx="27.65" ry="16.03"/>
<text text-anchor="middle" x="1936.58" y="-1265.47" font-family="Times,serif" font-size="14.00">(11)</text>
</g>
<!-- s0&#45;&gt;s15 -->
<g id="edge11" class="edge">
<title>s0&#45;&gt;s15</title>
<path fill="none" stroke="black" d="M1849.37,-1519.03C1897.65,-1517.95 1997.13,-1508.56 2052.58,-1452.48 2073.81,-1431.01 2057.33,-1414.1 2070.58,-1386.96 2087.23,-1352.84 2109.64,-1354.47 2121.58,-1318.43 2123.67,-1312.1 2125.85,-1308.54 2121.58,-1303.43 2103.2,-1281.45 2022.97,-1273.97 1974.41,-1271.44"/>
<polygon fill="black" stroke="black" points="1974.42,-1267.94 1964.26,-1270.96 1974.09,-1274.93 1974.42,-1267.94"/>
<text text-anchor="middle" x="2146.08" y="-1390.76" font-family="Times,serif" font-size="14.00">notify_borrower_of_default</text>
</g>
<!-- s16 -->
<g id="node17" class="node">
<title>s16</title>
<ellipse fill="none" stroke="black" cx="2491.58" cy="-1102.11" rx="27.65" ry="16.03"/>
<text text-anchor="middle" x="2491.58" y="-1098.41" font-family="Times,serif" font-size="14.00">(12)</text>
</g>
<!-- s0&#45;&gt;s16 -->
<g id="edge12" class="edge">
<title>s0&#45;&gt;s16</title>
<path fill="none" stroke="black" d="M1849.19,-1518.39C1917.86,-1517.1 2094.57,-1511.31 2146.58,-1485.48 2154.74,-1481.43 2152.96,-1475.5 2160.58,-1470.48 2180.3,-1457.49 2191.96,-1467.01 2210.58,-1452.48 2224.41,-1441.7 2240.29,-1397.14 2254.58,-1386.96 2280.04,-1368.81 2301.52,-1392.06 2322.58,-1368.96 2342.47,-1347.13 2312.31,-1323.92 2333.58,-1303.43 2378.44,-1260.22 2429.08,-1330.02 2472.58,-1285.43 2513.49,-1243.49 2505.38,-1167.57 2497.6,-1128.24"/>
<polygon fill="black" stroke="black" points="2501.01,-1127.46 2495.51,-1118.4 2494.17,-1128.91 2501.01,-1127.46"/>
<text text-anchor="middle" x="2409.08" y="-1307.23" font-family="Times,serif" font-size="14.00">notify_borrower_of_default</text>
</g>
<!-- s17 -->
<g id="node18" class="node">
<title>s17</title>
<ellipse fill="none" stroke="black" cx="1333.58" cy="-1185.64" rx="27.65" ry="16.03"/>
<text text-anchor="middle" x="1333.58" y="-1181.94" font-family="Times,serif" font-size="14.00">(22)</text>
</g>
<!-- s0&#45;&gt;s17 -->
<g id="edge10" class="edge">
<title>s0&#45;&gt;s17</title>
<path fill="none" stroke="black" d="M1794.07,-1518.3C1709.91,-1516.66 1460.03,-1509.78 1433.58,-1485.48 1400.84,-1455.43 1447.99,-1418.39 1416.58,-1386.96 1383.42,-1353.78 1342.79,-1404.84 1312.58,-1368.96 1293.01,-1345.71 1314.25,-1255.92 1326.36,-1211.63"/>
<polygon fill="black" stroke="black" points="1329.75,-1212.49 1329.07,-1201.91 1323.01,-1210.61 1329.75,-1212.49"/>
<text text-anchor="middle" x="1372.58" y="-1348.99" font-family="Times,serif" font-size="14.00">dont_notify_borrower</text>
</g>
<!-- s1 -->
<g id="node3" class="node">
<title>s1</title>
<ellipse fill="none" stroke="black" cx="2305.58" cy="-99.79" rx="22.76" ry="16.03"/>
<text text-anchor="middle" x="2305.58" y="-96.09" font-family="Times,serif" font-size="14.00">(2)</text>
</g>
<!-- s2 -->
<g id="node4" class="node">
<title>s2</title>
<ellipse fill="none" stroke="black" cx="2146.58" cy="-935.06" rx="22.76" ry="16.03"/>
<text text-anchor="middle" x="2146.58" y="-931.36" font-family="Times,serif" font-size="14.00">(4)</text>
</g>
<!-- s2&#45;&gt;s6 -->
<g id="edge132" class="edge">
<title>s2&#45;&gt;s6</title>
<path fill="none" stroke="black" d="M2169.03,-932.66C2253.93,-926.58 2561.75,-897.46 2782.58,-784.27 2832.91,-758.47 2840.03,-742.13 2878.58,-700.74 2922.66,-653.41 2997,-499.51 3053.58,-468.16 3094.16,-445.67 3229.19,-483.39 3261.58,-450.16 3276.93,-434.41 3267.58,-373.36 3267.58,-351.37 3267.58,-351.37 3267.58,-351.37 3267.58,-98.79 3267.58,-53.18 3116.24,-29.3 3048.12,-20.86"/>
<polygon fill="black" stroke="black" points="3048.29,-17.36 3037.94,-19.64 3047.45,-24.31 3048.29,-17.36"/>
<text text-anchor="middle" x="3164.08" y="-471.96" font-family="Times,serif" font-size="14.00">pay(accelerated, borrower, lender, 1075)</text>
</g>
<!-- s19 -->
<g id="node20" class="node">
<title>s19</title>
<ellipse fill="none" stroke="black" cx="27.58" cy="-16.26" rx="27.65" ry="16.03"/>
<text text-anchor="middle" x="27.58" y="-12.56" font-family="Times,serif" font-size="14.00">(24)</text>
</g>
<!-- s2&#45;&gt;s19 -->
<g id="edge131" class="edge">
<title>s2&#45;&gt;s19</title>
<path fill="none" stroke="black" d="M2123.78,-933.66C1913.4,-929.93 317.58,-900.04 317.58,-852.53 317.58,-852.53 317.58,-852.53 317.58,-683.48 317.58,-528.29 108.85,-617.74 31.58,-483.16 20.86,-464.5 27.58,-456.42 27.58,-434.9 27.58,-434.9 27.58,-434.9 27.58,-98.79 27.58,-80.05 27.58,-58.88 27.58,-42.81"/>
<polygon fill="black" stroke="black" points="31.08,-42.59 27.58,-32.59 24.08,-42.59 31.08,-42.59"/>
<text text-anchor="middle" x="178.08" y="-471.96" font-family="Times,serif" font-size="14.00">payment_default(accelerated, borrower, lender, 1075)</text>
</g>
<!-- s3 -->
<g id="node5" class="node">
<title>s3</title>
<ellipse fill="none" stroke="black" cx="979.58" cy="-99.79" rx="22.76" ry="16.03"/>
<text text-anchor="middle" x="979.58" y="-96.09" font-family="Times,serif" font-size="14.00">(3)</text>
</g>
<!-- s3&#45;&gt;s6 -->
<g id="edge130" class="edge">
<title>s3&#45;&gt;s6</title>
<path fill="none" stroke="black" d="M1002.25,-97.43C1106.24,-91.25 1547.93,-65.38 1910.58,-50.53 2333.98,-33.18 2849,-21.01 2982.65,-17.99"/>
<polygon fill="black" stroke="black" points="2983.09,-21.48 2993.01,-17.76 2982.93,-14.49 2983.09,-21.48"/>
<text text-anchor="middle" x="2017.58" y="-54.33" font-family="Times,serif" font-size="14.00">pay(accelerated, borrower, lender, 525)</text>
</g>
<!-- s3&#45;&gt;s19 -->
<g id="edge129" class="edge">
<title>s3&#45;&gt;s19</title>
<path fill="none" stroke="black" d="M956.98,-96.86C831.75,-86.13 222.71,-33.97 64.95,-20.46"/>
<polygon fill="black" stroke="black" points="65.07,-16.96 54.81,-19.6 64.47,-23.94 65.07,-16.96"/>
<text text-anchor="middle" x="732.58" y="-54.33" font-family="Times,serif" font-size="14.00">payment_default(accelerated, borrower, lender, 525)</text>
</g>
<!-- s5&#45;&gt;s13 -->
<g id="edge125" class="edge">
<title>s5&#45;&gt;s13</title>
<path fill="none" stroke="black" d="M2191.58,-1670.47C2191.58,-1658.97 2191.58,-1642.97 2191.58,-1629.58"/>
<polygon fill="black" stroke="black" points="2195.08,-1629.54 2191.58,-1619.54 2188.08,-1629.54 2195.08,-1629.54"/>
<text text-anchor="middle" x="2295.58" y="-1641.34" font-family="Times,serif" font-size="14.00">pay(principal, lender, borrower, 1000)</text>
</g>
<!-- s5&#45;&gt;s19 -->
<g id="edge126" class="edge">
<title>s5&#45;&gt;s19</title>
<path fill="none" stroke="black" d="M2168.85,-1685.57C1936.65,-1683.17 3.58,-1661.44 3.58,-1604.27 3.58,-1604.27 3.58,-1604.27 3.58,-98.79 3.58,-79.06 10.12,-57.7 16.38,-41.8"/>
<polygon fill="black" stroke="black" points="19.76,-42.78 20.38,-32.2 13.3,-40.09 19.76,-42.78"/>
<text text-anchor="middle" x="143.58" y="-847.83" font-family="Times,serif" font-size="14.00">payment_default(principal, lender, borrower, 1000)</text>
</g>
<!-- s6&#45;&gt;s6 -->
<g id="edge124" class="edge">
<title>s6&#45;&gt;s6</title>
<path fill="none" stroke="black" d="M3036.12,-23.29C3038.25,-22.74 3040,-21.69 3039.79,-18.67"/>
<polygon fill="black" stroke="black" points="3043.01,-17.28 3036.12,-9.23 3036.48,-19.82 3043.01,-17.28"/>
<text text-anchor="middle" x="3064.2" y="-12.56" font-family="Times,serif" font-size="14.00">fulfilled</text>
</g>
<!-- s7 -->
<g id="node8" class="node">
<title>s7</title>
<ellipse fill="none" stroke="black" cx="1092.58" cy="-183.32" rx="22.76" ry="16.03"/>
<text text-anchor="middle" x="1092.58" y="-179.62" font-family="Times,serif" font-size="14.00">(8)</text>
</g>
<!-- s7&#45;&gt;s1 -->
<g id="edge118" class="edge">
<title>s7&#45;&gt;s1</title>
<path fill="none" stroke="black" d="M1115.19,-180.8C1263.55,-170.83 2096.95,-114.81 2272.94,-102.98"/>
<polygon fill="black" stroke="black" points="2273.37,-106.46 2283.12,-102.3 2272.9,-99.48 2273.37,-106.46"/>
<text text-anchor="middle" x="1908.58" y="-137.85" font-family="Times,serif" font-size="14.00">dont_cure_default|dont_cure_default</text>
</g>
<!-- s7&#45;&gt;s3 -->
<g id="edge119" class="edge">
<title>s7&#45;&gt;s3</title>
<path fill="none" stroke="black" d="M1069.74,-182.38C1044.38,-181.09 1004.32,-174.77 983.58,-149.05 978.51,-142.77 976.68,-134.42 976.37,-126.43"/>
<polygon fill="black" stroke="black" points="979.88,-126.45 976.7,-116.34 972.88,-126.22 979.88,-126.45"/>
<text text-anchor="middle" x="1068.08" y="-137.85" font-family="Times,serif" font-size="14.00">cure_default|dont_cure_default</text>
</g>
<!-- s7&#45;&gt;s3 -->
<g id="edge123" class="edge">
<title>s7&#45;&gt;s3</title>
<path fill="none" stroke="black" d="M1069.74,-182.36C1019.56,-181.9 902.16,-177.73 877.58,-149.05 855.55,-123.36 909.7,-110.36 947.25,-104.63"/>
<polygon fill="black" stroke="black" points="947.91,-108.07 957.32,-103.2 946.93,-101.14 947.91,-108.07"/>
<text text-anchor="middle" x="927.08" y="-137.85" font-family="Times,serif" font-size="14.00">dont_cure_default</text>
</g>
<!-- s10 -->
<g id="node11" class="node">
<title>s10</title>
<ellipse fill="none" stroke="black" cx="1969.58" cy="-350.37" rx="27.65" ry="16.03"/>
<text text-anchor="middle" x="1969.58" y="-346.67" font-family="Times,serif" font-size="14.00">(16)</text>
</g>
<!-- s7&#45;&gt;s10 -->
<g id="edge122" class="edge">
<title>s7&#45;&gt;s10</title>
<path fill="none" stroke="black" d="M1112.48,-191.06C1143.97,-201.47 1207.39,-221.44 1262.58,-232.58 1294.84,-239.09 1384.05,-229.8 1409.58,-250.58 1421.41,-260.22 1410.49,-271.66 1420.58,-283.11 1442.79,-308.31 1456.12,-307.46 1488.58,-316.11 1572.08,-338.36 1833.79,-346.36 1931.91,-348.62"/>
<polygon fill="black" stroke="black" points="1931.9,-352.12 1941.97,-348.84 1932.05,-345.12 1931.9,-352.12"/>
<text text-anchor="middle" x="1454.58" y="-263.14" font-family="Times,serif" font-size="14.00">cure_default</text>
</g>
<!-- s12 -->
<g id="node13" class="node">
<title>s12</title>
<ellipse fill="none" stroke="black" cx="878.58" cy="-851.53" rx="22.76" ry="16.03"/>
<text text-anchor="middle" x="878.58" y="-847.83" font-family="Times,serif" font-size="14.00">(9)</text>
</g>
<!-- s7&#45;&gt;s12 -->
<g id="edge121" class="edge">
<title>s7&#45;&gt;s12</title>
<path fill="none" stroke="black" d="M1089.21,-199.5C1083.25,-225.78 1070.88,-277.46 1064.58,-283.11 1028.66,-315.29 1003.47,-286.3 957.58,-301.11 925.99,-311.3 914.89,-311.51 890.58,-334.11 859.06,-363.41 860.46,-378.96 841.58,-417.63 827.83,-445.79 837.43,-460.71 815.58,-483.16 801.41,-497.72 786.98,-485.91 773.58,-501.16 713.85,-569.11 719.09,-611.44 733.58,-700.74 739.95,-739.98 740.54,-753.39 765.58,-784.27 787.45,-811.25 823.44,-829.62 848.92,-840.05"/>
<polygon fill="black" stroke="black" points="847.87,-843.4 858.46,-843.79 850.42,-836.88 847.87,-843.4"/>
<text text-anchor="middle" x="807.58" y="-513.72" font-family="Times,serif" font-size="14.00">cure_default</text>
</g>
<!-- s20 -->
<g id="node21" class="node">
<title>s20</title>
<ellipse fill="none" stroke="black" cx="2382.58" cy="-768.01" rx="27.65" ry="16.03"/>
<text text-anchor="middle" x="2382.58" y="-764.31" font-family="Times,serif" font-size="14.00">(18)</text>
</g>
<!-- s7&#45;&gt;s20 -->
<g id="edge120" class="edge">
<title>s7&#45;&gt;s20</title>
<path fill="none" stroke="black" d="M1091.83,-199.85C1090.31,-224.65 1085.97,-271.57 1074.58,-283.11 1045.31,-312.76 1018.74,-280.42 982.58,-301.11 896.47,-350.35 869.75,-375.41 834.58,-468.16 832.21,-474.39 832.16,-476.95 834.58,-483.16 863.91,-558.51 885.27,-581.03 957.58,-617.22 1041.92,-659.43 1132.69,-579.1 1163.58,-668.22 1168.31,-681.87 1172.71,-689.53 1163.58,-700.74 1138.64,-731.36 1101.51,-688.12 1076.58,-718.74 1072.37,-723.91 1071.92,-728.97 1076.58,-733.74 1099.31,-757.06 2133.11,-765.32 2344.91,-766.76"/>
<polygon fill="black" stroke="black" points="2344.9,-770.26 2354.92,-766.83 2344.94,-763.26 2344.9,-770.26"/>
<text text-anchor="middle" x="904.08" y="-471.96" font-family="Times,serif" font-size="14.00">cure_default|cure_default</text>
</g>
<!-- s8&#45;&gt;s1 -->
<g id="edge112" class="edge">
<title>s8&#45;&gt;s1</title>
<path fill="none" stroke="black" d="M2598.07,-1430.44C2623.19,-1424.64 2665.86,-1414.11 2701.58,-1401.96 2849.82,-1351.53 2914.91,-1338.43 2991.58,-1201.9 3004.08,-1179.64 2998.58,-1170.41 2998.58,-1144.88 2998.58,-1144.88 2998.58,-1144.88 2998.58,-1017.59 2998.58,-711.22 3416.49,-654.56 3271.58,-384.63 3208.02,-266.24 3144.67,-266.64 3019.58,-217.58 2770.83,-120.02 2442.48,-103.96 2338.57,-101.31"/>
<polygon fill="black" stroke="black" points="2338.47,-97.81 2328.39,-101.08 2338.31,-104.81 2338.47,-97.81"/>
<text text-anchor="middle" x="3224.58" y="-764.31" font-family="Times,serif" font-size="14.00">dont_cure_default|dont_cure_default</text>
</g>
<!-- s8&#45;&gt;s2 -->
<g id="edge114" class="edge">
<title>s8&#45;&gt;s2</title>
<path fill="none" stroke="black" d="M2592.75,-1424.57C2631.33,-1398.07 2728.16,-1324.75 2763.58,-1234.9 2766.02,-1228.7 2767.31,-1225.42 2763.58,-1219.9 2751.5,-1202.07 2730.65,-1219.74 2718.58,-1201.9 2710.47,-1189.93 2711.05,-1181.72 2718.58,-1169.38 2731.46,-1148.25 2797.55,-1132.92 2817.58,-1118.38 2843.39,-1099.62 2854.55,-1096.51 2868.58,-1067.85 2881.41,-1041.65 2892.09,-1024.01 2872.58,-1002.32 2825.65,-950.17 2315.31,-938.65 2179.57,-936.5"/>
<polygon fill="black" stroke="black" points="2179.44,-933 2169.39,-936.35 2179.33,-940 2179.44,-933"/>
<text text-anchor="middle" x="2803.08" y="-1181.94" font-family="Times,serif" font-size="14.00">cure_default|dont_cure_default</text>
</g>
<!-- s8&#45;&gt;s2 -->
<g id="edge117" class="edge">
<title>s8&#45;&gt;s2</title>
<path fill="none" stroke="black" d="M2597.8,-1429.82C2668.65,-1410.38 2892.58,-1337.06 2892.58,-1186.64 2892.58,-1186.64 2892.58,-1186.64 2892.58,-1017.59 2892.58,-977.77 2859.96,-982.71 2798.58,-969.32 2678.69,-943.18 2295.21,-937.46 2179.77,-936.32"/>
<polygon fill="black" stroke="black" points="2179.48,-932.82 2169.45,-936.23 2179.42,-939.82 2179.48,-932.82"/>
<text text-anchor="middle" x="2942.08" y="-1181.94" font-family="Times,serif" font-size="14.00">dont_cure_default</text>
</g>
<!-- s8&#45;&gt;s9 -->
<g id="edge116" class="edge">
<title>s8&#45;&gt;s9</title>
<path fill="none" stroke="black" d="M2554.49,-1431.79C2532.5,-1428.45 2497.76,-1423.4 2467.58,-1419.96 2377.14,-1409.64 2352.69,-1420.48 2263.58,-1401.96 2242.94,-1397.67 2239.26,-1391.02 2218.58,-1386.96 2046.94,-1353.27 1836.79,-1351.88 1752.34,-1352.92"/>
<polygon fill="black" stroke="black" points="1752.16,-1349.42 1742.21,-1353.06 1752.26,-1356.42 1752.16,-1349.42"/>
<text text-anchor="middle" x="2297.58" y="-1390.76" font-family="Times,serif" font-size="14.00">cure_default</text>
</g>
<!-- s8&#45;&gt;s11 -->
<g id="edge115" class="edge">
<title>s8&#45;&gt;s11</title>
<path fill="none" stroke="black" d="M2575.99,-1419.94C2576.25,-1409.96 2577.87,-1396.96 2583.58,-1386.96 2619.2,-1324.49 2678.54,-1350.3 2709.58,-1285.43 2715.82,-1272.39 2713.49,-1266.82 2709.58,-1252.9 2707.04,-1243.88 2701.12,-1243.93 2698.58,-1234.9 2694.24,-1219.47 2691.32,-1186.68 2701.58,-1169.38 2724.19,-1131.23 2894.45,-1084.69 2863.58,-1052.85 2840.98,-1029.55 2311.56,-1040.42 2279.58,-1034.85 2274.76,-1034.01 2269.76,-1032.79 2264.89,-1031.4"/>
<polygon fill="black" stroke="black" points="2265.79,-1028.01 2255.2,-1028.36 2263.7,-1034.69 2265.79,-1028.01"/>
<text text-anchor="middle" x="2732.58" y="-1223.7" font-family="Times,serif" font-size="14.00">cure_default</text>
</g>
<!-- s8&#45;&gt;s13 -->
<g id="edge113" class="edge">
<title>s8&#45;&gt;s13</title>
<path fill="none" stroke="black" d="M2572.01,-1452.21C2562.53,-1480.48 2537.81,-1541.32 2493.58,-1569.01 2450.41,-1596.03 2300.56,-1601.21 2229.51,-1602.13"/>
<polygon fill="black" stroke="black" points="2229.18,-1598.63 2219.21,-1602.24 2229.25,-1605.63 2229.18,-1598.63"/>
<text text-anchor="middle" x="2618.08" y="-1516.05" font-family="Times,serif" font-size="14.00">cure_default|cure_default</text>
</g>
<!-- s9&#45;&gt;s2 -->
<g id="edge104" class="edge">
<title>s9&#45;&gt;s2</title>
<path fill="none" stroke="black" d="M1712.84,-1336.3C1708.95,-1304.82 1698.45,-1234.81 1680.58,-1219.9 1616.1,-1166.14 1580.86,-1186 1498.58,-1169.38 1435.92,-1156.72 1314.77,-1182.94 1358.58,-1136.38 1403.58,-1088.54 1605.34,-1162.95 1653.58,-1118.38 1678.15,-1095.68 1650.12,-992.14 1674.58,-969.32 1706.56,-939.49 2011.97,-936.27 2113.76,-936.03"/>
<polygon fill="black" stroke="black" points="2113.78,-939.53 2123.78,-936.02 2113.77,-932.53 2113.78,-939.53"/>
<text text-anchor="middle" x="1541.58" y="-1140.18" font-family="Times,serif" font-size="14.00">dont_cure_default|payment_default(normal, borrower, lender, 550)</text>
</g>
<!-- s9&#45;&gt;s2 -->
<g id="edge111" class="edge">
<title>s9&#45;&gt;s2</title>
<path fill="none" stroke="black" d="M1716.82,-1336.24C1722.84,-1292.6 1737.52,-1169.47 1716.58,-1136.38 1706.58,-1120.59 1688.57,-1134.17 1678.58,-1118.38 1670.85,-1106.16 1671.12,-1098.24 1678.58,-1085.85 1707.11,-1038.45 1845.89,-986.21 1898.58,-969.32 1973,-945.47 2065.29,-938.71 2113.59,-936.81"/>
<polygon fill="black" stroke="black" points="2113.89,-940.3 2123.76,-936.45 2113.65,-933.3 2113.89,-940.3"/>
<text text-anchor="middle" x="1772.08" y="-1140.18" font-family="Times,serif" font-size="14.00">dont_cure_default</text>
</g>
<!-- s9&#45;&gt;s3 -->
<g id="edge106" class="edge">
<title>s9&#45;&gt;s3</title>
<path fill="none" stroke="black" d="M1687.91,-1347.84C1664.02,-1344.49 1628.02,-1339.67 1596.58,-1336.43 1544.7,-1331.08 1410.42,-1339.19 1362.58,-1318.43 1342.67,-1309.79 1340.73,-1301.89 1326.58,-1285.43 1303.71,-1258.83 1311.8,-1239.31 1282.58,-1219.9 1247.87,-1196.85 1230.91,-1212.34 1190.58,-1201.9 1073.89,-1171.72 1043.01,-1166.65 932.58,-1118.38 905.5,-1106.54 901.29,-1098.49 874.58,-1085.85 633.88,-972 538.85,-1014.39 316.58,-867.8 299.65,-856.63 301.54,-846.38 284.58,-835.27 179.06,-766.18 95.28,-834.62 19.58,-733.74 6.66,-716.53 15.58,-707 15.58,-685.48 15.58,-685.48 15.58,-685.48 15.58,-265.84 15.58,-169.17 778.56,-113.87 946.95,-102.84"/>
<polygon fill="black" stroke="black" points="947.41,-106.32 957.17,-102.18 946.96,-99.34 947.41,-106.32"/>
<text text-anchor="middle" x="166.58" y="-722.54" font-family="Times,serif" font-size="14.00">dont_cure_default|pay(normal, borrower, lender, 550)</text>
</g>
<!-- s9&#45;&gt;s12 -->
<g id="edge108" class="edge">
<title>s9&#45;&gt;s12</title>
<path fill="none" stroke="black" d="M1687.9,-1347.96C1664,-1344.68 1627.99,-1339.91 1596.58,-1336.43 1510.07,-1326.85 1484.7,-1344.24 1401.58,-1318.43 1372.88,-1309.52 1363.22,-1307.26 1342.58,-1285.43 1320.31,-1261.88 1334.77,-1241.47 1310.58,-1219.9 1264.96,-1179.24 1108.29,-1149.37 1048.58,-1136.38 1023.73,-1130.97 954.03,-1135.87 935.58,-1118.38 935.58,-1118.38 898.32,-944.6 884.05,-878.04"/>
<polygon fill="black" stroke="black" points="887.41,-877.02 881.89,-867.97 880.56,-878.49 887.41,-877.02"/>
<text text-anchor="middle" x="1032.08" y="-1098.41" font-family="Times,serif" font-size="14.00">pay(normal, borrower, lender, 550)</text>
</g>
<!-- s9&#45;&gt;s13 -->
<g id="edge109" class="edge">
<title>s9&#45;&gt;s13</title>
<path fill="none" stroke="black" d="M1711.91,-1369.24C1708.27,-1394.89 1704.14,-1447.04 1722.58,-1485.48 1746.46,-1535.28 1763.98,-1546.87 1814.58,-1569.01 1874.75,-1595.35 2070.91,-1600.84 2153.93,-1601.98"/>
<polygon fill="black" stroke="black" points="2153.89,-1605.48 2163.94,-1602.1 2153.98,-1598.48 2153.89,-1605.48"/>
<text text-anchor="middle" x="1756.58" y="-1474.28" font-family="Times,serif" font-size="14.00">cure_default</text>
</g>
<!-- s9&#45;&gt;s15 -->
<g id="edge110" class="edge">
<title>s9&#45;&gt;s15</title>
<path fill="none" stroke="black" d="M1741.82,-1349.98C1770.21,-1347.09 1815.03,-1339.32 1847.58,-1318.43 1854.76,-1313.82 1852.79,-1308.61 1859.58,-1303.43 1872.46,-1293.6 1888.7,-1286.03 1902.94,-1280.61"/>
<polygon fill="black" stroke="black" points="1904.19,-1283.88 1912.41,-1277.2 1901.82,-1277.29 1904.19,-1283.88"/>
<text text-anchor="middle" x="1992.08" y="-1307.23" font-family="Times,serif" font-size="14.00">payment_default(normal, borrower, lender, 550)</text>
</g>
<!-- s9&#45;&gt;s17 -->
<g id="edge105" class="edge">
<title>s9&#45;&gt;s17</title>
<path fill="none" stroke="black" d="M1687.77,-1348.58C1608.14,-1339.07 1377.04,-1309.61 1353.58,-1285.43 1333.06,-1264.29 1350.06,-1248.64 1343.58,-1219.9 1342.96,-1217.18 1342.25,-1214.36 1341.48,-1211.57"/>
<polygon fill="black" stroke="black" points="1344.78,-1210.37 1338.61,-1201.76 1338.06,-1212.34 1344.78,-1210.37"/>
<text text-anchor="middle" x="1521.08" y="-1265.47" font-family="Times,serif" font-size="14.00">cure_default|payment_default(normal, borrower, lender, 550)</text>
</g>
<!-- s9&#45;&gt;s20 -->
<g id="edge107" class="edge">
<title>s9&#45;&gt;s20</title>
<path fill="none" stroke="black" d="M1742.08,-1351.07C1885.61,-1347.76 2542.59,-1331.89 2558.58,-1318.43 2581.36,-1299.25 2559.87,-1279.83 2572.58,-1252.9 2621.06,-1150.2 2632.63,-1108.6 2731.58,-1052.85 2759.1,-1037.34 2851.7,-1058.56 2872.58,-1034.85 2914.26,-987.51 2908.72,-1019.75 2414.58,-784.27 2413.89,-783.94 2413.19,-783.61 2412.49,-783.28"/>
<polygon fill="black" stroke="black" points="2413.77,-780.01 2403.23,-778.86 2410.75,-786.32 2413.77,-780.01"/>
<text text-anchor="middle" x="2863.08" y="-1056.65" font-family="Times,serif" font-size="14.00">cure_default|pay(normal, borrower, lender, 550)</text>
</g>
<!-- s10&#45;&gt;s3 -->
<g id="edge99" class="edge">
<title>s10&#45;&gt;s3</title>
<path fill="none" stroke="black" d="M1943.31,-345.13C1907.21,-339.19 1840.28,-327.82 1783.58,-316.11 1763.68,-312 1443.68,-244.97 1427.58,-232.58 1421.59,-227.97 1425.37,-222.43 1419.58,-217.58 1326.79,-140 1277.86,-163.61 1160.58,-134.05 1108.98,-121.05 1047.9,-110.89 1011.52,-105.37"/>
<polygon fill="black" stroke="black" points="1011.91,-101.89 1001.51,-103.88 1010.88,-108.82 1011.91,-101.89"/>
<text text-anchor="middle" x="1525.58" y="-221.38" font-family="Times,serif" font-size="14.00">borrower_default|dont_cure_default</text>
</g>
<!-- s10&#45;&gt;s3 -->
<g id="edge103" class="edge">
<title>s10&#45;&gt;s3</title>
<path fill="none" stroke="black" d="M1990.68,-339.44C1999.79,-333.94 2009.5,-326.17 2014.58,-316.11 2022.04,-301.32 2025.09,-179.85 2014.58,-167.05 1966.54,-108.6 1922.72,-142.86 1847.58,-134.05 1681.33,-114.56 1150.72,-103.86 1012.67,-101.36"/>
<polygon fill="black" stroke="black" points="1012.39,-97.86 1002.33,-101.18 1012.26,-104.86 1012.39,-97.86"/>
<text text-anchor="middle" x="2070.08" y="-221.38" font-family="Times,serif" font-size="14.00">dont_cure_default</text>
</g>
<!-- s18 -->
<g id="node19" class="node">
<title>s18</title>
<ellipse fill="none" stroke="black" cx="1775.58" cy="-266.84" rx="27.65" ry="16.03"/>
<text text-anchor="middle" x="1775.58" y="-263.14" font-family="Times,serif" font-size="14.00">(13)</text>
</g>
<!-- s10&#45;&gt;s18 -->
<g id="edge102" class="edge">
<title>s10&#45;&gt;s18</title>
<path fill="none" stroke="black" d="M1951.23,-337.79C1942.43,-331.82 1932,-324.13 1923.58,-316.11 1917.4,-310.22 1918.77,-305.7 1911.58,-301.11 1881.74,-282.07 1841.84,-273.93 1812.98,-270.44"/>
<polygon fill="black" stroke="black" points="1813.21,-266.95 1802.89,-269.36 1812.46,-273.91 1813.21,-266.95"/>
<text text-anchor="middle" x="1970.58" y="-304.91" font-family="Times,serif" font-size="14.00">borrower_default</text>
</g>
<!-- s10&#45;&gt;s20 -->
<g id="edge101" class="edge">
<title>s10&#45;&gt;s20</title>
<path fill="none" stroke="black" d="M1996.22,-354.86C2034.26,-360.07 2106.23,-370.78 2166.58,-384.63 2217.57,-396.34 2230.29,-400.09 2279.58,-417.63 2350.04,-442.72 2364.68,-456.56 2434.58,-483.16 2457.83,-492.01 2469.5,-484.07 2487.58,-501.16 2564.74,-574.16 2612.26,-653.57 2542.58,-733.74 2523.73,-755.42 2442.08,-743.46 2414.58,-751.74 2413.55,-752.05 2412.51,-752.39 2411.46,-752.75"/>
<polygon fill="black" stroke="black" points="2410.13,-749.52 2402.17,-756.51 2412.76,-756.01 2410.13,-749.52"/>
<text text-anchor="middle" x="2578.58" y="-555.49" font-family="Times,serif" font-size="14.00">cure_default</text>
</g>
<!-- s21 -->
<g id="node22" class="node">
<title>s21</title>
<ellipse fill="none" stroke="black" cx="2482.58" cy="-684.48" rx="27.65" ry="16.03"/>
<text text-anchor="middle" x="2482.58" y="-680.78" font-family="Times,serif" font-size="14.00">(17)</text>
</g>
<!-- s10&#45;&gt;s21 -->
<g id="edge100" class="edge">
<title>s10&#45;&gt;s21</title>
<path fill="none" stroke="black" d="M1996.25,-354.7C2029.47,-359.29 2087.7,-368.86 2135.58,-384.63 2218.58,-411.98 2260.23,-398.94 2313.58,-468.16 2331.65,-491.61 2306,-511.48 2325.58,-533.69 2375.22,-589.99 2442.23,-524.13 2486.58,-584.69 2502.09,-605.87 2497.64,-637.01 2491.54,-658.65"/>
<polygon fill="black" stroke="black" points="2488.13,-657.83 2488.49,-668.42 2494.81,-659.91 2488.13,-657.83"/>
<text text-anchor="middle" x="2408.08" y="-513.72" font-family="Times,serif" font-size="14.00">borrower_default|cure_default</text>
</g>
<!-- s11&#45;&gt;s2 -->
<g id="edge95" class="edge">
<title>s11&#45;&gt;s2</title>
<path fill="none" stroke="black" d="M2220.78,-1003.73C2215.76,-997.79 2209.84,-990.74 2204.58,-984.32 2199.16,-977.72 2198.76,-975.21 2192.58,-969.32 2186.25,-963.3 2178.8,-957.46 2171.75,-952.4"/>
<polygon fill="black" stroke="black" points="2173.37,-949.27 2163.16,-946.46 2169.39,-955.03 2173.37,-949.27"/>
<text text-anchor="middle" x="2302.58" y="-973.12" font-family="Times,serif" font-size="14.00">borrower_default|dont_cure_default</text>
</g>
<!-- s11&#45;&gt;s2 -->
<g id="edge98" class="edge">
<title>s11&#45;&gt;s2</title>
<path fill="none" stroke="black" d="M2205.35,-1015.06C2168.66,-1011.03 2106.36,-1001.77 2092.58,-984.32 2081.49,-970.29 2099.39,-956.96 2117.48,-947.87"/>
<polygon fill="black" stroke="black" points="2119.23,-950.92 2126.81,-943.53 2116.27,-944.58 2119.23,-950.92"/>
<text text-anchor="middle" x="2142.08" y="-973.12" font-family="Times,serif" font-size="14.00">dont_cure_default</text>
</g>
<!-- s11&#45;&gt;s13 -->
<g id="edge96" class="edge">
<title>s11&#45;&gt;s13</title>
<path fill="none" stroke="black" d="M2241.22,-1034.08C2249.12,-1046.78 2260.58,-1063.82 2267.58,-1067.85 2301.64,-1087.47 2414.42,-1059.48 2443.58,-1085.85 2481.28,-1119.94 2489.58,-1259.1 2489.58,-1309.93 2489.58,-1520.75 2489.58,-1520.75 2489.58,-1520.75 2489.58,-1549.48 2472.44,-1556.51 2446.58,-1569.01 2409.05,-1587.14 2290.63,-1596.52 2229.27,-1600.27"/>
<polygon fill="black" stroke="black" points="2229,-1596.78 2219.22,-1600.86 2229.41,-1603.77 2229,-1596.78"/>
<text text-anchor="middle" x="2523.58" y="-1307.23" font-family="Times,serif" font-size="14.00">cure_default</text>
</g>
<!-- s11&#45;&gt;s14 -->
<g id="edge94" class="edge">
<title>s11&#45;&gt;s14</title>
<path fill="none" stroke="black" d="M2205.64,-1015.03C2125.18,-1007.45 1879.56,-984.66 1675.58,-969.32 1494.12,-955.68 1276.89,-943.01 1191.08,-938.16"/>
<polygon fill="black" stroke="black" points="1191.22,-934.66 1181.04,-937.59 1190.83,-941.65 1191.22,-934.66"/>
<text text-anchor="middle" x="1942.08" y="-973.12" font-family="Times,serif" font-size="14.00">borrower_default|cure_default</text>
</g>
<!-- s11&#45;&gt;s16 -->
<g id="edge97" class="edge">
<title>s11&#45;&gt;s16</title>
<path fill="none" stroke="black" d="M2255.82,-1027.75C2263.62,-1030.28 2272.41,-1032.91 2280.58,-1034.85 2330.06,-1046.59 2349.62,-1027.27 2393.58,-1052.85 2400.96,-1057.14 2398.57,-1062.97 2405.58,-1067.85 2426.33,-1082.32 2436.12,-1076.39 2459.58,-1085.85 2460.28,-1086.13 2461,-1086.43 2461.71,-1086.73"/>
<polygon fill="black" stroke="black" points="2460.53,-1090.03 2471.09,-1090.88 2463.36,-1083.63 2460.53,-1090.03"/>
<text text-anchor="middle" x="2452.58" y="-1056.65" font-family="Times,serif" font-size="14.00">borrower_default</text>
</g>
<!-- s12&#45;&gt;s3 -->
<g id="edge86" class="edge">
<title>s12&#45;&gt;s3</title>
<path fill="none" stroke="black" d="M855.8,-849.53C753.4,-844.7 340.58,-821.97 340.58,-769.01 340.58,-769.01 340.58,-769.01 340.58,-516.42 340.58,-494.9 329.28,-483.31 344.58,-468.16 383.69,-429.44 551.71,-488.1 591.58,-450.16 610.07,-432.56 598.58,-418.67 598.58,-393.13 598.58,-393.13 598.58,-393.13 598.58,-182.32 598.58,-111.39 854.22,-101.96 946.69,-100.87"/>
<polygon fill="black" stroke="black" points="946.92,-104.36 956.88,-100.77 946.85,-97.36 946.92,-104.36"/>
<text text-anchor="middle" x="527.58" y="-471.96" font-family="Times,serif" font-size="14.00">dont_cure_default|payment_default(normal, borrower, lender, 525)</text>
</g>
<!-- s12&#45;&gt;s3 -->
<g id="edge93" class="edge">
<title>s12&#45;&gt;s3</title>
<path fill="none" stroke="black" d="M855.91,-849.42C811.12,-845.87 715.58,-831.02 715.58,-769.01 715.58,-769.01 715.58,-769.01 715.58,-182.32 715.58,-134.41 876.3,-111.63 946.94,-103.93"/>
<polygon fill="black" stroke="black" points="947.49,-107.39 957.07,-102.86 946.76,-100.43 947.49,-107.39"/>
<text text-anchor="middle" x="765.08" y="-471.96" font-family="Times,serif" font-size="14.00">dont_cure_default</text>
</g>
<!-- s12&#45;&gt;s6 -->
<g id="edge88" class="edge">
<title>s12&#45;&gt;s6</title>
<path fill="none" stroke="black" d="M901.44,-850.13C1022.74,-847.92 1603.19,-836.78 2077.58,-817.27 2231.86,-810.92 2766.58,-881.65 2766.58,-727.24 2766.58,-727.24 2766.58,-727.24 2766.58,-474.66 2766.58,-449.28 2751.73,-435.68 2769.58,-417.63 2813.89,-372.83 3009.46,-445.59 3052.58,-399.63 3076.66,-373.97 3037.61,-118.36 3032.58,-83.53 3030.44,-68.77 3030.26,-64.97 3026.58,-50.53 3025.86,-47.71 3025.02,-44.78 3024.14,-41.89"/>
<polygon fill="black" stroke="black" points="3027.47,-40.8 3021.07,-32.37 3020.81,-42.96 3027.47,-40.8"/>
<text text-anchor="middle" x="2916.58" y="-430.2" font-family="Times,serif" font-size="14.00">dont_cure_default|pay(normal, borrower, lender, 525)</text>
</g>
<!-- s12&#45;&gt;s6 -->
<g id="edge89" class="edge">
<title>s12&#45;&gt;s6</title>
<path fill="none" stroke="black" d="M855.9,-850.09C773.87,-848.31 492.92,-840.61 406.58,-817.27 367.22,-806.63 328.58,-809.77 328.58,-769.01 328.58,-769.01 328.58,-769.01 328.58,-98.79 328.58,-53.79 374.03,-61.87 417.58,-50.53 547.68,-16.63 2689.13,-17.02 2982.4,-17.23"/>
<polygon fill="black" stroke="black" points="2982.78,-20.73 2992.79,-17.24 2982.79,-13.73 2982.78,-20.73"/>
<text text-anchor="middle" x="460.08" y="-430.2" font-family="Times,serif" font-size="14.00">cure_default|pay(normal, borrower, lender, 525)</text>
</g>
<!-- s12&#45;&gt;s6 -->
<g id="edge91" class="edge">
<title>s12&#45;&gt;s6</title>
<path fill="none" stroke="black" d="M901.33,-850.12C1078.19,-846.93 2230.36,-825.9 2384.58,-817.27 2548.09,-808.12 2605.14,-857.6 2751.58,-784.27 2920.45,-699.7 2895.02,-594.31 3035.58,-468.16 3045.77,-459.02 3053.73,-462.02 3060.58,-450.16 3071.61,-431.05 3070.58,-373.44 3070.58,-351.37 3070.58,-351.37 3070.58,-351.37 3070.58,-98.79 3070.58,-74.07 3052.99,-51.24 3037.71,-36.06"/>
<polygon fill="black" stroke="black" points="3039.71,-33.15 3030.03,-28.86 3034.92,-38.25 3039.71,-33.15"/>
<text text-anchor="middle" x="3164.08" y="-430.2" font-family="Times,serif" font-size="14.00">pay(normal, borrower, lender, 525)</text>
</g>
<!-- s12&#45;&gt;s20 -->
<g id="edge90" class="edge">
<title>s12&#45;&gt;s20</title>
<path fill="none" stroke="black" d="M900.7,-847.72C968.17,-839.27 1177.39,-813.95 1351.58,-802.27 1739.1,-776.28 2209.98,-770.45 2344.85,-769.28"/>
<polygon fill="black" stroke="black" points="2345.09,-772.78 2355.06,-769.19 2345.03,-765.78 2345.09,-772.78"/>
<text text-anchor="middle" x="1385.58" y="-806.07" font-family="Times,serif" font-size="14.00">cure_default</text>
</g>
<!-- s22 -->
<g id="node23" class="node">
<title>s22</title>
<ellipse fill="none" stroke="black" cx="1003.58" cy="-433.9" rx="27.65" ry="16.03"/>
<text text-anchor="middle" x="1003.58" y="-430.2" font-family="Times,serif" font-size="14.00">(14)</text>
</g>
<!-- s12&#45;&gt;s22 -->
<g id="edge92" class="edge">
<title>s12&#45;&gt;s22</title>
<path fill="none" stroke="black" d="M874.61,-835.41C865.92,-799.54 847.84,-706.94 871.58,-635.22 898.03,-555.28 943.69,-556.76 984.58,-483.16 988.65,-475.83 992.28,-467.44 995.24,-459.73"/>
<polygon fill="black" stroke="black" points="998.6,-460.74 998.74,-450.15 992.02,-458.34 998.6,-460.74"/>
<text text-anchor="middle" x="1004.08" y="-639.02" font-family="Times,serif" font-size="14.00">payment_default(normal, borrower, lender, 525)</text>
</g>
<!-- s24 -->
<g id="node25" class="node">
<title>s24</title>
<ellipse fill="none" stroke="black" cx="1682.58" cy="-600.95" rx="27.65" ry="16.03"/>
<text text-anchor="middle" x="1682.58" y="-597.25" font-family="Times,serif" font-size="14.00">(23)</text>
</g>
<!-- s12&#45;&gt;s24 -->
<g id="edge87" class="edge">
<title>s12&#45;&gt;s24</title>
<path fill="none" stroke="black" d="M893.16,-838.7C925.66,-812.92 1007.34,-751.4 1085.58,-718.74 1118.81,-704.87 1134.68,-720.82 1164.58,-700.74 1194.12,-680.9 1179.6,-652.73 1210.58,-635.22 1248,-614.06 1539.76,-605.26 1644.94,-602.76"/>
<polygon fill="black" stroke="black" points="1645.18,-606.25 1655.1,-602.52 1645.02,-599.25 1645.18,-606.25"/>
<text text-anchor="middle" x="1253.08" y="-722.54" font-family="Times,serif" font-size="14.00">cure_default|payment_default(normal, borrower, lender, 525)</text>
</g>
<!-- s13&#45;&gt;s0 -->
<g id="edge83" class="edge">
<title>s13&#45;&gt;s0</title>
<path fill="none" stroke="black" d="M2164.01,-1601.89C2082.12,-1600.47 1844.59,-1594.18 1821.58,-1569.01 1816.01,-1562.92 1814.73,-1554.38 1815.25,-1546.17"/>
<polygon fill="black" stroke="black" points="1818.73,-1546.56 1816.7,-1536.16 1811.81,-1545.56 1818.73,-1546.56"/>
<text text-anchor="middle" x="2002.08" y="-1557.81" font-family="Times,serif" font-size="14.00">borrower_default|payment_default(normal, borrower, lender, 550)</text>
</g>
<!-- s13&#45;&gt;s14 -->
<g id="edge84" class="edge">
<title>s13&#45;&gt;s14</title>
<path fill="none" stroke="black" d="M2163.86,-1602.24C2006.29,-1601.96 1222.04,-1599.02 982.58,-1569.01 885.83,-1556.89 768.58,-1618.25 768.58,-1520.75 768.58,-1520.75 768.58,-1520.75 768.58,-1017.59 768.58,-947.12 1018.52,-937.28 1115.63,-936.12"/>
<polygon fill="black" stroke="black" points="1115.92,-939.61 1125.89,-936.02 1115.86,-932.61 1115.92,-939.61"/>
<text text-anchor="middle" x="815.58" y="-1265.47" font-family="Times,serif" font-size="14.00">borrower_default</text>
</g>
<!-- s13&#45;&gt;s17 -->
<g id="edge85" class="edge">
<title>s13&#45;&gt;s17</title>
<path fill="none" stroke="black" d="M2164,-1602.73C2065.8,-1604.01 1724.21,-1605.4 1445.58,-1569.01 1377.46,-1560.12 1359.55,-1558.33 1294.58,-1536.01 1164.09,-1491.19 1088.12,-1518.7 1014.58,-1401.96 1011.02,-1396.32 1012.21,-1393.19 1014.58,-1386.96 1015.68,-1384.06 1159.89,-1221.44 1162.58,-1219.9 1204.05,-1196.22 1259.42,-1189.1 1295.77,-1187.12"/>
<polygon fill="black" stroke="black" points="1296.11,-1190.6 1305.94,-1186.67 1295.8,-1183.61 1296.11,-1190.6"/>
<text text-anchor="middle" x="1147.08" y="-1390.76" font-family="Times,serif" font-size="14.00">payment_default(normal, borrower, lender, 550)</text>
</g>
<!-- s13&#45;&gt;s20 -->
<g id="edge81" class="edge">
<title>s13&#45;&gt;s20</title>
<path fill="none" stroke="black" d="M2219.15,-1601.89C2305.05,-1600.46 2575.35,-1594.11 2797.58,-1569.01 2923.49,-1554.79 3078.58,-1647.47 3078.58,-1520.75 3078.58,-1520.75 3078.58,-1520.75 3078.58,-1393.46 3078.58,-1367.92 3078.33,-1361.06 3071.58,-1336.43 3054.31,-1273.47 3027.65,-1265.43 3012.58,-1201.9 3006.72,-1177.21 3009.58,-1170.26 3009.58,-1144.88 3009.58,-1144.88 3009.58,-1144.88 3009.58,-850.53 3009.58,-784.01 2478.54,-802.52 2414.58,-784.27 2413.54,-783.97 2412.5,-783.65 2411.45,-783.3"/>
<polygon fill="black" stroke="black" points="2412.73,-780.04 2402.15,-779.6 2410.15,-786.54 2412.73,-780.04"/>
<text text-anchor="middle" x="3109.08" y="-1181.94" font-family="Times,serif" font-size="14.00">pay(normal, borrower, lender, 550)</text>
</g>
<!-- s13&#45;&gt;s21 -->
<g id="edge82" class="edge">
<title>s13&#45;&gt;s21</title>
<path fill="none" stroke="black" d="M2219.15,-1602.35C2317.32,-1602.36 2658.91,-1600 2938.58,-1569.01 3060.17,-1555.54 3209.58,-1643.09 3209.58,-1520.75 3209.58,-1520.75 3209.58,-1520.75 3209.58,-1226.4 3209.58,-1200.87 3220.72,-1187.35 3202.58,-1169.38 3152.05,-1119.33 3093.1,-1202.41 3043.58,-1151.38 3028.59,-1135.93 3039.58,-1124.64 3039.58,-1103.11 3039.58,-1103.11 3039.58,-1103.11 3039.58,-892.3 3039.58,-864.44 3034.72,-853.4 3013.58,-835.27 2864.99,-707.82 2615.22,-688.4 2520.52,-685.75"/>
<polygon fill="black" stroke="black" points="2520.36,-682.24 2510.28,-685.51 2520.2,-689.24 2520.36,-682.24"/>
<text text-anchor="middle" x="3188.08" y="-1140.18" font-family="Times,serif" font-size="14.00">borrower_default|pay(normal, borrower, lender, 550)</text>
</g>
<!-- s14&#45;&gt;s0 -->
<g id="edge74" class="edge">
<title>s14&#45;&gt;s0</title>
<path fill="none" stroke="black" d="M1126.18,-936.99C1088.4,-939.13 1018.81,-946.17 964.58,-969.32 941.77,-979.06 932.69,-981.27 919.58,-1002.32 905.75,-1024.52 866.67,-1214.95 883.58,-1234.9 915.03,-1272.03 957.72,-1217.95 991.58,-1252.9 1038.08,-1300.91 965.56,-1353.48 1011.58,-1401.96 1125.2,-1521.68 1224.04,-1407.43 1376.58,-1470.48 1387.51,-1475.01 1387.41,-1481.56 1398.58,-1485.48 1469.18,-1510.33 1694.21,-1516.69 1784.03,-1518.26"/>
<polygon fill="black" stroke="black" points="1783.99,-1521.76 1794.05,-1518.42 1784.11,-1514.76 1783.99,-1521.76"/>
<text text-anchor="middle" x="1016.08" y="-1223.7" font-family="Times,serif" font-size="14.00">payment_default(normal, borrower, lender, 550)</text>
</g>
<!-- s14&#45;&gt;s9 -->
<g id="edge76" class="edge">
<title>s14&#45;&gt;s9</title>
<path fill="none" stroke="black" d="M1180.09,-940.01C1259.67,-952.45 1493.65,-993.58 1537.58,-1052.85 1577.12,-1106.2 1299.99,-1056.18 1240.58,-1085.85 1192.4,-1109.91 1172.75,-1123.71 1197.58,-1151.38 1222.36,-1178.99 1327.45,-1160.9 1363.58,-1169.38 1445.65,-1188.63 1459.66,-1214.98 1541.58,-1234.9 1572.91,-1242.52 1661.01,-1232.01 1685.58,-1252.9 1691.31,-1257.78 1702.06,-1299.03 1708.74,-1326.66"/>
<polygon fill="black" stroke="black" points="1705.35,-1327.56 1711.08,-1336.48 1712.16,-1325.94 1705.35,-1327.56"/>
<text text-anchor="middle" x="1273.08" y="-1140.18" font-family="Times,serif" font-size="14.00">notify_borrower_of_default</text>
</g>
<!-- s14&#45;&gt;s12 -->
<g id="edge78" class="edge">
<title>s14&#45;&gt;s12</title>
<path fill="none" stroke="black" d="M1129.65,-926.97C1079.69,-912.15 964.33,-877.95 909.11,-861.58"/>
<polygon fill="black" stroke="black" points="909.8,-858.14 899.21,-858.65 907.81,-864.85 909.8,-858.14"/>
<text text-anchor="middle" x="1214.58" y="-889.6" font-family="Times,serif" font-size="14.00">notify_borrower_of_default|pay(normal, borrower, lender, 550)</text>
</g>
<!-- s14&#45;&gt;s13 -->
<g id="edge75" class="edge">
<title>s14&#45;&gt;s13</title>
<path fill="none" stroke="black" d="M1126.17,-937.77C1074.92,-941.37 966.82,-950.95 934.58,-969.32 891.92,-993.63 870.58,-1010.26 870.58,-1059.35 870.58,-1520.75 870.58,-1520.75 870.58,-1520.75 870.58,-1586.84 1937.94,-1599.99 2153.79,-1601.97"/>
<polygon fill="black" stroke="black" points="2153.96,-1605.47 2163.99,-1602.06 2154.02,-1598.47 2153.96,-1605.47"/>
<text text-anchor="middle" x="930.58" y="-1265.47" font-family="Times,serif" font-size="14.00">dont_notify_borrower</text>
</g>
<!-- s14&#45;&gt;s15 -->
<g id="edge80" class="edge">
<title>s14&#45;&gt;s15</title>
<path fill="none" stroke="black" d="M1181.14,-936.25C1267.33,-937.13 1527.49,-942.05 1552.58,-969.32 1582.23,-1001.55 1582.61,-1035.98 1552.58,-1067.85 1506.16,-1117.1 1294.99,-1036.6 1248.58,-1085.85 1238.66,-1096.37 1238.56,-1107.95 1248.58,-1118.38 1283.32,-1154.54 1651.52,-1122.03 1699.58,-1136.38 1711.99,-1140.08 1713.34,-1144.92 1724.58,-1151.38 1789.63,-1188.79 1867.09,-1230.84 1907.99,-1252.85"/>
<polygon fill="black" stroke="black" points="1906.39,-1255.97 1916.86,-1257.62 1909.71,-1249.8 1906.39,-1255.97"/>
<text text-anchor="middle" x="1457.58" y="-1098.41" font-family="Times,serif" font-size="14.00">notify_borrower_of_default|payment_default(normal, borrower, lender, 550)</text>
</g>
<!-- s14&#45;&gt;s17 -->
<g id="edge79" class="edge">
<title>s14&#45;&gt;s17</title>
<path fill="none" stroke="black" d="M1152.21,-951.3C1148.6,-995.5 1140.82,-1122.42 1167.58,-1151.38 1184.58,-1169.77 1252.53,-1178.42 1296.05,-1182.14"/>
<polygon fill="black" stroke="black" points="1296.02,-1185.65 1306.27,-1182.96 1296.58,-1178.67 1296.02,-1185.65"/>
<text text-anchor="middle" x="1343.08" y="-1056.65" font-family="Times,serif" font-size="14.00">dont_notify_borrower|payment_default(normal, borrower, lender, 550)</text>
</g>
<!-- s14&#45;&gt;s20 -->
<g id="edge77" class="edge">
<title>s14&#45;&gt;s20</title>
<path fill="none" stroke="black" d="M1180.53,-930.95C1229.81,-925.24 1337.72,-912.57 1428.58,-900.8 1786.62,-854.41 2219.38,-792.51 2346.09,-774.27"/>
<polygon fill="black" stroke="black" points="2346.64,-777.73 2356.04,-772.84 2345.65,-770.8 2346.64,-777.73"/>
<text text-anchor="middle" x="2064.08" y="-847.83" font-family="Times,serif" font-size="14.00">dont_notify_borrower|pay(normal, borrower, lender, 550)</text>
</g>
<!-- s14&#45;&gt;s21 -->
<g id="edge73" class="edge">
<title>s14&#45;&gt;s21</title>
<path fill="none" stroke="black" d="M1180.68,-931.95C1224.76,-928.14 1314.5,-918.78 1388.58,-900.8 1408.25,-896.02 1412.04,-891.09 1431.58,-885.8 1822.15,-779.96 2309.08,-709.19 2445.53,-690.45"/>
<polygon fill="black" stroke="black" points="2446.41,-693.86 2455.84,-689.04 2445.46,-686.93 2446.41,-693.86"/>
<text text-anchor="middle" x="1881.08" y="-806.07" font-family="Times,serif" font-size="14.00">pay(normal, borrower, lender, 550)</text>
</g>
<!-- s15&#45;&gt;s2 -->
<g id="edge62" class="edge">
<title>s15&#45;&gt;s2</title>
<path fill="none" stroke="black" d="M1924.06,-1254.19C1902.57,-1229.14 1859.44,-1174.01 1843.58,-1118.38 1829.13,-1067.73 1829.48,-1038.69 1867.58,-1002.32 1902.97,-968.54 2048.49,-947.57 2114.16,-939.65"/>
<polygon fill="black" stroke="black" points="2114.83,-943.1 2124.35,-938.45 2114.01,-936.15 2114.83,-943.1"/>
<text text-anchor="middle" x="1954.08" y="-1098.41" font-family="Times,serif" font-size="14.00">dont_cure_default|dont_notify_borrower</text>
</g>
<!-- s15&#45;&gt;s2 -->
<g id="edge63" class="edge">
<title>s15&#45;&gt;s2</title>
<path fill="none" stroke="black" d="M1931.9,-1252.84C1924.65,-1225.61 1914.34,-1168.64 1943.58,-1136.38 1979.2,-1097.07 2025.03,-1156.84 2061.58,-1118.38 2084.51,-1094.24 2057.4,-996.54 2076.58,-969.32 2085.62,-956.49 2100.96,-948.44 2114.98,-943.49"/>
<polygon fill="black" stroke="black" points="2116.35,-946.73 2124.85,-940.4 2114.26,-940.05 2116.35,-946.73"/>
<text text-anchor="middle" x="2197.08" y="-1098.41" font-family="Times,serif" font-size="14.00">dont_cure_default|notify_borrower_of_default</text>
</g>
<!-- s15&#45;&gt;s2 -->
<g id="edge64" class="edge">
<title>s15&#45;&gt;s2</title>
<path fill="none" stroke="black" d="M1960.56,-1261.02C2008.6,-1245.96 2118.81,-1207.65 2197.58,-1151.38 2205,-1146.08 2203.53,-1140.67 2211.58,-1136.38 2255.67,-1112.84 2290.19,-1156.44 2322.58,-1118.38 2331.95,-1107.37 2331.81,-1096.97 2322.58,-1085.85 2294.85,-1052.45 2267.16,-1083.27 2226.58,-1067.85 2159.21,-1042.24 2123.07,-1047.05 2087.58,-984.32 2078.27,-967.87 2097.72,-954.75 2116.74,-946.37"/>
<polygon fill="black" stroke="black" points="2118.25,-949.53 2126.2,-942.53 2115.61,-943.04 2118.25,-949.53"/>
<text text-anchor="middle" x="2378.08" y="-1098.41" font-family="Times,serif" font-size="14.00">dont_cure_default</text>
</g>
<!-- s15&#45;&gt;s8 -->
<g id="edge59" class="edge">
<title>s15&#45;&gt;s8</title>
<path fill="none" stroke="black" d="M1963.67,-1272.97C2005.14,-1277.55 2086.69,-1287.74 2154.58,-1303.43 2304.67,-1338.11 2478.79,-1399.41 2547.02,-1424.28"/>
<polygon fill="black" stroke="black" points="2546.08,-1427.66 2556.67,-1427.82 2548.48,-1421.09 2546.08,-1427.66"/>
<text text-anchor="middle" x="2461.08" y="-1348.99" font-family="Times,serif" font-size="14.00">notify_borrower_of_default</text>
</g>
<!-- s15&#45;&gt;s9 -->
<g id="edge57" class="edge">
<title>s15&#45;&gt;s9</title>
<path fill="none" stroke="black" d="M1908.97,-1271.16C1859.16,-1273.48 1756.99,-1280.94 1730.58,-1303.43 1723.79,-1309.21 1719.87,-1317.93 1717.61,-1326.39"/>
<polygon fill="black" stroke="black" points="1714.15,-1325.84 1715.59,-1336.34 1721.01,-1327.23 1714.15,-1325.84"/>
<text text-anchor="middle" x="1790.58" y="-1307.23" font-family="Times,serif" font-size="14.00">dont_notify_borrower</text>
</g>
<!-- s15&#45;&gt;s11 -->
<g id="edge60" class="edge">
<title>s15&#45;&gt;s11</title>
<path fill="none" stroke="black" d="M1964.16,-1268.48C2024.14,-1268.58 2163.75,-1265.43 2197.58,-1234.9 2230.96,-1204.78 2186.58,-1165.81 2220.58,-1136.38 2255.82,-1105.86 2398.06,-1152.72 2429.58,-1118.38 2439.35,-1107.73 2439.32,-1096.53 2429.58,-1085.85 2400.25,-1053.7 2264.56,-1099.39 2234.58,-1067.85 2228.89,-1061.87 2227.28,-1053.35 2227.45,-1045.13"/>
<polygon fill="black" stroke="black" points="2230.94,-1045.39 2228.45,-1035.09 2223.98,-1044.7 2230.94,-1045.39"/>
<text text-anchor="middle" x="2331.58" y="-1140.18" font-family="Times,serif" font-size="14.00">cure_default|notify_borrower_of_default</text>
</g>
<!-- s15&#45;&gt;s13 -->
<g id="edge61" class="edge">
<title>s15&#45;&gt;s13</title>
<path fill="none" stroke="black" d="M1964.16,-1270.26C2002.49,-1271.41 2073.19,-1277.3 2126.58,-1303.43 2176.18,-1327.71 2179.26,-1348.18 2218.58,-1386.96 2225.07,-1393.36 2225.89,-1395.76 2232.58,-1401.96 2258.89,-1426.37 2262.37,-1438.87 2295.58,-1452.48 2331.96,-1467.39 2445.23,-1441.3 2471.58,-1470.48 2502.92,-1505.2 2471.96,-1540.89 2434.58,-1569.01 2403.04,-1592.74 2289.76,-1599.54 2229.66,-1601.49"/>
<polygon fill="black" stroke="black" points="2229.33,-1598 2219.44,-1601.8 2229.54,-1605 2229.33,-1598"/>
<text text-anchor="middle" x="2390.58" y="-1432.52" font-family="Times,serif" font-size="14.00">cure_default|dont_notify_borrower</text>
</g>
<!-- s15&#45;&gt;s17 -->
<g id="edge58" class="edge">
<title>s15&#45;&gt;s17</title>
<path fill="none" stroke="black" d="M1909.65,-1265.45C1858.25,-1260.18 1742.59,-1247.95 1645.58,-1234.9 1545.6,-1221.46 1428.12,-1202.4 1369.97,-1192.75"/>
<polygon fill="black" stroke="black" points="1370.26,-1189.25 1359.82,-1191.06 1369.11,-1196.16 1370.26,-1189.25"/>
<text text-anchor="middle" x="1679.58" y="-1223.7" font-family="Times,serif" font-size="14.00">cure_default</text>
</g>
<!-- s16&#45;&gt;s2 -->
<g id="edge46" class="edge">
<title>s16&#45;&gt;s2</title>
<path fill="none" stroke="black" d="M2498.48,-1086.17C2502.24,-1075.55 2504.66,-1061.67 2496.58,-1052.85 2465.22,-1018.66 2319.94,-1069.04 2288.58,-1034.85 2278.81,-1024.2 2279.22,-1013.35 2288.58,-1002.32 2321.32,-963.73 2430.93,-1007.39 2397.58,-969.32 2369.63,-937.43 2241.27,-934.72 2179.7,-935.31"/>
<polygon fill="black" stroke="black" points="2179.32,-931.82 2169.37,-935.45 2179.41,-938.82 2179.32,-931.82"/>
<text text-anchor="middle" x="2399.08" y="-1014.89" font-family="Times,serif" font-size="14.00">dont_cure_default|dont_notify_borrower</text>
</g>
<!-- s16&#45;&gt;s2 -->
<g id="edge47" class="edge">
<title>s16&#45;&gt;s2</title>
<path fill="none" stroke="black" d="M2513.72,-1092.32C2545.74,-1079.1 2602.39,-1053.65 2613.58,-1034.85 2620.97,-1022.43 2621.96,-1014.1 2613.58,-1002.32 2587.67,-965.9 2562.28,-978.72 2518.58,-969.32 2395.48,-942.86 2245.08,-937.4 2179.63,-936.31"/>
<polygon fill="black" stroke="black" points="2179.56,-932.81 2169.51,-936.17 2179.46,-939.81 2179.56,-932.81"/>
<text text-anchor="middle" x="2745.08" y="-1014.89" font-family="Times,serif" font-size="14.00">dont_cure_default|notify_borrower_of_default</text>
</g>
<!-- s16&#45;&gt;s2 -->
<g id="edge48" class="edge">
<title>s16&#45;&gt;s2</title>
<path fill="none" stroke="black" d="M2497.26,-1086.06C2499.2,-1080.41 2501.22,-1073.9 2502.58,-1067.85 2505.76,-1053.61 2515.16,-1014.12 2506.58,-1002.32 2468.29,-949.7 2260.85,-938.86 2179.42,-936.64"/>
<polygon fill="black" stroke="black" points="2179.32,-933.13 2169.24,-936.38 2179.15,-940.13 2179.32,-933.13"/>
<text text-anchor="middle" x="2559.08" y="-1014.89" font-family="Times,serif" font-size="14.00">dont_cure_default</text>
</g>
<!-- s16&#45;&gt;s8 -->
<g id="edge43" class="edge">
<title>s16&#45;&gt;s8</title>
<path fill="none" stroke="black" d="M2498.34,-1118.07C2516.65,-1159.63 2566.78,-1280.43 2580.58,-1386.96 2581.53,-1394.35 2581.35,-1402.42 2580.7,-1409.8"/>
<polygon fill="black" stroke="black" points="2577.19,-1409.62 2579.49,-1419.97 2584.14,-1410.45 2577.19,-1409.62"/>
<text text-anchor="middle" x="2633.08" y="-1265.47" font-family="Times,serif" font-size="14.00">notify_borrower_of_default</text>
</g>
<!-- s16&#45;&gt;s9 -->
<g id="edge44" class="edge">
<title>s16&#45;&gt;s9</title>
<path fill="none" stroke="black" d="M2480.67,-1117.05C2471.7,-1127.71 2458.13,-1142.11 2443.58,-1151.38 2342.43,-1215.8 2290.13,-1181.78 2193.58,-1252.9 2159.78,-1277.8 2163.83,-1301.17 2125.58,-1318.43 2059.58,-1348.21 1841.28,-1351.69 1752.56,-1351.85"/>
<polygon fill="black" stroke="black" points="1752.4,-1348.35 1742.4,-1351.85 1752.4,-1355.35 1752.4,-1348.35"/>
<text text-anchor="middle" x="2359.58" y="-1223.7" font-family="Times,serif" font-size="14.00">cure_default|notify_borrower_of_default</text>
</g>
<!-- s16&#45;&gt;s11 -->
<g id="edge42" class="edge">
<title>s16&#45;&gt;s11</title>
<path fill="none" stroke="black" d="M2472.02,-1090.48C2468,-1088.67 2463.73,-1087.01 2459.58,-1085.85 2380.85,-1063.93 2348.41,-1106.82 2276.58,-1067.85 2269.07,-1063.78 2270.21,-1059.27 2264.58,-1052.85 2260.97,-1048.74 2257.01,-1044.46 2253.14,-1040.39"/>
<polygon fill="black" stroke="black" points="2255.4,-1037.69 2245.94,-1032.92 2250.37,-1042.54 2255.4,-1037.69"/>
<text text-anchor="middle" x="2336.58" y="-1056.65" font-family="Times,serif" font-size="14.00">dont_notify_borrower</text>
</g>
<!-- s16&#45;&gt;s13 -->
<g id="edge45" class="edge">
<title>s16&#45;&gt;s13</title>
<path fill="none" stroke="black" d="M2519.21,-1103.78C2598.75,-1106.32 2825.66,-1118 2874.58,-1169.38 2892.18,-1187.87 2881.58,-1200.87 2881.58,-1226.4 2881.58,-1520.75 2881.58,-1520.75 2881.58,-1520.75 2881.58,-1586.94 2374.28,-1599.56 2229.64,-1601.81"/>
<polygon fill="black" stroke="black" points="2229.43,-1598.32 2219.48,-1601.96 2229.53,-1605.31 2229.43,-1598.32"/>
<text text-anchor="middle" x="2976.58" y="-1348.99" font-family="Times,serif" font-size="14.00">cure_default|dont_notify_borrower</text>
</g>
<!-- s16&#45;&gt;s14 -->
<g id="edge41" class="edge">
<title>s16&#45;&gt;s14</title>
<path fill="none" stroke="black" d="M2467.4,-1094.25C2456.27,-1091.3 2442.83,-1088.03 2430.58,-1085.85 2357.08,-1072.76 2337.66,-1077.05 2263.58,-1067.85 2185.63,-1058.17 1641.64,-977.98 1563.58,-969.32 1426.86,-954.17 1263.78,-942.99 1191.39,-938.38"/>
<polygon fill="black" stroke="black" points="1191.18,-934.86 1180.98,-937.72 1190.74,-941.85 1191.18,-934.86"/>
<text text-anchor="middle" x="2059.58" y="-1014.89" font-family="Times,serif" font-size="14.00">cure_default</text>
</g>
<!-- s17&#45;&gt;s0 -->
<g id="edge31" class="edge">
<title>s17&#45;&gt;s0</title>
<path fill="none" stroke="black" d="M1331.7,-1202.09C1329.99,-1222.83 1329.88,-1259.97 1346.58,-1285.43 1360.17,-1306.15 1688.35,-1457.72 1791.11,-1504.82"/>
<polygon fill="black" stroke="black" points="1789.78,-1508.06 1800.33,-1509.04 1792.7,-1501.7 1789.78,-1508.06"/>
<text text-anchor="middle" x="1548.58" y="-1348.99" font-family="Times,serif" font-size="14.00">borrower_default</text>
</g>
<!-- s17&#45;&gt;s11 -->
<g id="edge33" class="edge">
<title>s17&#45;&gt;s11</title>
<path fill="none" stroke="black" d="M1361.14,-1184.23C1442.41,-1182.73 1676.85,-1176.26 1699.58,-1151.38 1704.07,-1146.45 1701.85,-1142.65 1699.58,-1136.38 1696.03,-1126.59 1688.12,-1128.17 1684.58,-1118.38 1679.66,-1104.78 1674.99,-1096.67 1684.58,-1085.85 1701.6,-1066.64 2074.08,-1033.16 2195.02,-1022.76"/>
<polygon fill="black" stroke="black" points="2195.6,-1026.22 2205.27,-1021.88 2195,-1019.25 2195.6,-1026.22"/>
<text text-anchor="middle" x="1760.08" y="-1098.41" font-family="Times,serif" font-size="14.00">notify_borrower_of_default</text>
</g>
<!-- s17&#45;&gt;s13 -->
<g id="edge32" class="edge">
<title>s17&#45;&gt;s13</title>
<path fill="none" stroke="black" d="M1322.38,-1200.74C1311.17,-1216.3 1295.58,-1242.56 1295.58,-1268.17 1295.58,-1520.75 1295.58,-1520.75 1295.58,-1520.75 1295.58,-1564.54 1983.44,-1594.18 2153.77,-1600.85"/>
<polygon fill="black" stroke="black" points="2153.65,-1604.35 2163.78,-1601.24 2153.92,-1597.35 2153.65,-1604.35"/>
<text text-anchor="middle" x="1355.58" y="-1390.76" font-family="Times,serif" font-size="14.00">dont_notify_borrower</text>
</g>
<!-- s17&#45;&gt;s14 -->
<g id="edge34" class="edge">
<title>s17&#45;&gt;s14</title>
<path fill="none" stroke="black" d="M1306.63,-1181.34C1258.39,-1175.19 1161.19,-1161.7 1149.58,-1151.38 1126.82,-1131.15 1153.2,-1105.06 1129.58,-1085.85 1095.3,-1057.98 961.37,-1100.47 931.58,-1067.85 901.47,-1034.88 1052.64,-973.42 1121.2,-947.77"/>
<polygon fill="black" stroke="black" points="1122.52,-951.02 1130.68,-944.26 1120.09,-944.45 1122.52,-951.02"/>
<text text-anchor="middle" x="1040.08" y="-1056.65" font-family="Times,serif" font-size="14.00">borrower_default|dont_notify_borrower</text>
</g>
<!-- s17&#45;&gt;s16 -->
<g id="edge35" class="edge">
<title>s17&#45;&gt;s16</title>
<path fill="none" stroke="black" d="M1361.03,-1183.23C1436.13,-1179.28 1651.21,-1167.33 1829.58,-1151.38 1889.27,-1146.04 1903.82,-1140.87 1963.58,-1136.38 2170.7,-1120.81 2224.95,-1147.74 2430.58,-1118.38 2439.43,-1117.11 2448.87,-1115.09 2457.61,-1112.93"/>
<polygon fill="black" stroke="black" points="2458.67,-1116.27 2467.47,-1110.37 2456.91,-1109.5 2458.67,-1116.27"/>
<text text-anchor="middle" x="2087.58" y="-1140.18" font-family="Times,serif" font-size="14.00">borrower_default|notify_borrower_of_default</text>
</g>
<!-- s18&#45;&gt;s3 -->
<g id="edge70" class="edge">
<title>s18&#45;&gt;s3</title>
<path fill="none" stroke="black" d="M1749.55,-261.01C1723.81,-255.74 1683.58,-246.21 1650.58,-232.58 1638.25,-227.49 1637.29,-221.62 1624.58,-217.58 1582.89,-204.34 1460.42,-229.57 1428.58,-199.58 1407.13,-179.38 1440.18,-154.08 1418.58,-134.05 1388.96,-106.6 1109.08,-101.81 1012.31,-100.97"/>
<polygon fill="black" stroke="black" points="1012.25,-97.47 1002.22,-100.89 1012.19,-104.47 1012.25,-97.47"/>
<text text-anchor="middle" x="1539.08" y="-179.62" font-family="Times,serif" font-size="14.00">dont_cure_default|dont_notify_borrower</text>
</g>
<!-- s18&#45;&gt;s3 -->
<g id="edge71" class="edge">
<title>s18&#45;&gt;s3</title>
<path fill="none" stroke="black" d="M1750.8,-259.09C1723.32,-250.21 1679.9,-231.85 1657.58,-199.58 1640.81,-175.35 1669.44,-153.8 1647.58,-134.05 1623.79,-112.57 1144.14,-103.4 1012.66,-101.29"/>
<polygon fill="black" stroke="black" points="1012.46,-97.78 1002.41,-101.12 1012.35,-104.78 1012.46,-97.78"/>
<text text-anchor="middle" x="1784.08" y="-179.62" font-family="Times,serif" font-size="14.00">dont_cure_default|notify_borrower_of_default</text>
</g>
<!-- s18&#45;&gt;s3 -->
<g id="edge72" class="edge">
<title>s18&#45;&gt;s3</title>
<path fill="none" stroke="black" d="M1800.03,-259.06C1847.54,-244.73 1944.57,-209.23 1907.58,-167.05 1847.38,-98.43 1169.89,-99.33 1012.23,-100.48"/>
<polygon fill="black" stroke="black" points="1012.17,-96.98 1002.2,-100.56 1012.22,-103.98 1012.17,-96.98"/>
<text text-anchor="middle" x="1965.08" y="-179.62" font-family="Times,serif" font-size="14.00">dont_cure_default</text>
</g>
<!-- s18&#45;&gt;s7 -->
<g id="edge67" class="edge">
<title>s18&#45;&gt;s7</title>
<path fill="none" stroke="black" d="M1748.06,-264.33C1644.32,-258.58 1282.23,-238.14 1271.58,-232.58 1264.01,-228.63 1266.87,-222.02 1259.58,-217.58 1218.14,-192.39 1161.24,-185.82 1125.71,-184.36"/>
<polygon fill="black" stroke="black" points="1125.51,-180.85 1115.41,-184.05 1125.3,-187.85 1125.51,-180.85"/>
<text text-anchor="middle" x="1347.08" y="-221.38" font-family="Times,serif" font-size="14.00">notify_borrower_of_default</text>
</g>
<!-- s18&#45;&gt;s10 -->
<g id="edge66" class="edge">
<title>s18&#45;&gt;s10</title>
<path fill="none" stroke="black" d="M1777.67,-283.18C1779.96,-293.99 1784.73,-307.95 1794.58,-316.11 1815.13,-333.13 1887.48,-342.32 1932.47,-346.5"/>
<polygon fill="black" stroke="black" points="1932.18,-349.99 1942.45,-347.39 1932.8,-343.01 1932.18,-349.99"/>
<text text-anchor="middle" x="1854.58" y="-304.91" font-family="Times,serif" font-size="14.00">dont_notify_borrower</text>
</g>
<!-- s18&#45;&gt;s12 -->
<g id="edge68" class="edge">
<title>s18&#45;&gt;s12</title>
<path fill="none" stroke="black" d="M1750.25,-273.41C1682.04,-289.82 1493.66,-344.81 1405.58,-468.16 1388.27,-492.4 1407.09,-508.27 1391.58,-533.69 1385,-544.47 1377.59,-541.92 1369.58,-551.69 1364.78,-557.53 1367.93,-562.61 1361.58,-566.69 1333.85,-584.49 1088.16,-560.69 1065.58,-584.69 1055.67,-595.22 1056.76,-605.76 1065.58,-617.22 1084.65,-641.99 1114.51,-610.44 1133.58,-635.22 1137.64,-640.5 1138.12,-645.33 1133.58,-650.22 1095.95,-690.68 923.98,-628.48 885.58,-668.22 864.63,-689.89 870.96,-780.09 875.59,-824.96"/>
<polygon fill="black" stroke="black" points="872.12,-825.5 876.68,-835.07 879.08,-824.75 872.12,-825.5"/>
<text text-anchor="middle" x="1480.58" y="-555.49" font-family="Times,serif" font-size="14.00">cure_default|notify_borrower_of_default</text>
</g>
<!-- s18&#45;&gt;s20 -->
<g id="edge69" class="edge">
<title>s18&#45;&gt;s20</title>
<path fill="none" stroke="black" d="M1803.24,-268.28C1980.96,-271.2 2956.06,-289.22 2998.58,-334.11 3008.52,-344.6 3008.59,-356.21 2998.58,-366.63 2964.46,-402.17 2590.3,-349.69 2555.58,-384.63 2538.08,-402.24 2546.29,-526.65 2551.58,-533.69 2568.81,-556.63 2596.35,-528.74 2613.58,-551.69 2654.77,-606.53 2602.73,-638.66 2573.58,-700.74 2566.09,-716.7 2566.54,-724.43 2551.58,-733.74 2499.44,-766.19 2473.46,-734.31 2414.58,-751.74 2413.54,-752.05 2412.5,-752.38 2411.46,-752.74"/>
<polygon fill="black" stroke="black" points="2410.14,-749.5 2402.17,-756.48 2412.75,-756 2410.14,-749.5"/>
<text text-anchor="middle" x="2646.58" y="-513.72" font-family="Times,serif" font-size="14.00">cure_default|dont_notify_borrower</text>
</g>
<!-- s18&#45;&gt;s21 -->
<g id="edge65" class="edge">
<title>s18&#45;&gt;s21</title>
<path fill="none" stroke="black" d="M1803.43,-267.94C1849.54,-268.91 1944.04,-274.33 2018.58,-301.11 2070.7,-319.83 2073.45,-345.34 2124.58,-366.63 2156.22,-379.81 2166.35,-376.19 2199.58,-384.63 2254.43,-398.57 2270,-396.68 2322.58,-417.63 2379.39,-440.27 2387.93,-457.8 2443.58,-483.16 2464.31,-492.61 2478.16,-482.75 2491.58,-501.16 2511.11,-527.95 2504.55,-617.81 2497.58,-650.22 2496.92,-653.28 2495.96,-656.39 2494.83,-659.43"/>
<polygon fill="black" stroke="black" points="2491.58,-658.14 2490.86,-668.71 2498.01,-660.89 2491.58,-658.14"/>
<text text-anchor="middle" x="2477.58" y="-471.96" font-family="Times,serif" font-size="14.00">cure_default</text>
</g>
<!-- s19&#45;&gt;s19 -->
<g id="edge25" class="edge">
<title>s19&#45;&gt;s19</title>
<path fill="none" stroke="black" d="M52.72,-23.1C54.88,-22.52 56.64,-21.54 56.63,-18.95"/>
<polygon fill="black" stroke="black" points="59.76,-17.35 52.72,-9.42 53.28,-20 59.76,-17.35"/>
<text text-anchor="middle" x="83.65" y="-12.56" font-family="Times,serif" font-size="14.00">breached</text>
</g>
<!-- s20&#45;&gt;s6 -->
<g id="edge36" class="edge">
<title>s20&#45;&gt;s6</title>
<path fill="none" stroke="black" d="M2402.1,-756.24C2406.12,-754.44 2410.4,-752.81 2414.58,-751.74 2448.21,-743.11 2701.35,-757.6 2726.58,-733.74 2733.67,-727.04 2759.51,-391.36 2766.58,-384.63 2807.41,-345.78 2981.16,-407.88 3019.58,-366.63 3062.93,-320.09 3032.56,-115.31 3020.17,-42.81"/>
<polygon fill="black" stroke="black" points="3023.58,-41.98 3018.42,-32.73 3016.68,-43.18 3023.58,-41.98"/>
<text text-anchor="middle" x="2911.08" y="-388.43" font-family="Times,serif" font-size="14.00">borrower_default|pay(normal, borrower, lender, 525)</text>
</g>
<!-- s20&#45;&gt;s6 -->
<g id="edge37" class="edge">
<title>s20&#45;&gt;s6</title>
<path fill="none" stroke="black" d="M2402.16,-756.45C2406.17,-754.63 2410.44,-752.95 2414.58,-751.74 2478.2,-733.24 2503.96,-764.64 2562.58,-733.74 2667.34,-678.52 2696.78,-644.49 2738.58,-533.69 2743.68,-520.16 2745.71,-513.73 2738.58,-501.16 2693.36,-421.5 2505.15,-450.73 2568.58,-384.63 2602.23,-349.57 2969.02,-398.65 3005.58,-366.63 3024.94,-349.68 3015.58,-335.34 3015.58,-309.61 3015.58,-309.61 3015.58,-309.61 3015.58,-98.79 3015.58,-80.05 3015.58,-58.88 3015.58,-42.81"/>
<polygon fill="black" stroke="black" points="3019.08,-42.59 3015.58,-32.59 3012.08,-42.59 3019.08,-42.59"/>
<text text-anchor="middle" x="2665.08" y="-388.43" font-family="Times,serif" font-size="14.00">pay(normal, borrower, lender, 525)</text>
</g>
<!-- s20&#45;&gt;s21 -->
<g id="edge38" class="edge">
<title>s20&#45;&gt;s21</title>
<path fill="none" stroke="black" d="M2403.56,-757.14C2414.89,-751.25 2428.74,-743.1 2439.58,-733.74 2446.04,-728.16 2446,-725.2 2451.58,-718.74 2455.1,-714.67 2458.95,-710.4 2462.7,-706.33"/>
<polygon fill="black" stroke="black" points="2465.4,-708.56 2469.67,-698.86 2460.29,-703.78 2465.4,-708.56"/>
<text text-anchor="middle" x="2498.58" y="-722.54" font-family="Times,serif" font-size="14.00">borrower_default</text>
</g>
<!-- s23 -->
<g id="node24" class="node">
<title>s23</title>
<ellipse fill="none" stroke="black" cx="1627.58" cy="-517.42" rx="27.65" ry="16.03"/>
<text text-anchor="middle" x="1627.58" y="-513.72" font-family="Times,serif" font-size="14.00">(20)</text>
</g>
<!-- s20&#45;&gt;s23 -->
<g id="edge39" class="edge">
<title>s20&#45;&gt;s23</title>
<path fill="none" stroke="black" d="M2357.56,-761.11C2281.75,-743.52 2047.69,-691.2 1850.58,-668.22 1830.14,-665.83 1494.77,-665.12 1480.58,-650.22 1475.98,-645.39 1476.05,-640.11 1480.58,-635.22 1498.14,-616.24 1687.29,-622.62 1712.58,-617.22 1777.67,-603.29 1815.26,-621.12 1853.58,-566.69 1857.41,-561.24 1857.93,-556.73 1853.58,-551.69 1829.72,-524.07 1723.36,-518.97 1665.45,-518.28"/>
<polygon fill="black" stroke="black" points="1665.26,-514.78 1655.23,-518.2 1665.2,-521.78 1665.26,-514.78"/>
<text text-anchor="middle" x="1661.08" y="-639.02" font-family="Times,serif" font-size="14.00">borrower_default|payment_default(normal, borrower, lender, 525)</text>
</g>
<!-- s20&#45;&gt;s24 -->
<g id="edge40" class="edge">
<title>s20&#45;&gt;s24</title>
<path fill="none" stroke="black" d="M2354.94,-767.25C2207.52,-768.26 1518.04,-769.29 1456.58,-700.74 1436.63,-678.5 1447.8,-653.3 1471.58,-635.22 1498.14,-615.01 1591.67,-606.77 1644.85,-603.66"/>
<polygon fill="black" stroke="black" points="1645.13,-607.15 1654.92,-603.11 1644.74,-600.16 1645.13,-607.15"/>
<text text-anchor="middle" x="1589.08" y="-680.78" font-family="Times,serif" font-size="14.00">payment_default(normal, borrower, lender, 525)</text>
</g>
<!-- s21&#45;&gt;s6 -->
<g id="edge17" class="edge">
<title>s21&#45;&gt;s6</title>
<path fill="none" stroke="black" d="M2500.79,-672.13C2508.06,-666.52 2515.64,-659.05 2519.58,-650.22 2536.05,-613.26 2526.09,-508.09 2519.58,-468.16 2511.92,-421.2 2494.46,-413.38 2485.58,-366.63 2480.84,-341.7 2482.58,-334.99 2482.58,-309.61 2482.58,-309.61 2482.58,-309.61 2482.58,-98.79 2482.58,-47.9 2867.18,-24.64 2982.98,-18.79"/>
<polygon fill="black" stroke="black" points="2983.2,-22.28 2993.02,-18.29 2982.85,-15.29 2983.2,-22.28"/>
<text text-anchor="middle" x="2582.08" y="-346.67" font-family="Times,serif" font-size="14.00">pay(normal, borrower, lender, 525)</text>
</g>
<!-- s21&#45;&gt;s6 -->
<g id="edge19" class="edge">
<title>s21&#45;&gt;s6</title>
<path fill="none" stroke="black" d="M2501.72,-672.74C2510.21,-667.07 2519.6,-659.38 2525.58,-650.22 2537.65,-631.7 2537.58,-624.06 2537.58,-601.95 2537.58,-601.95 2537.58,-601.95 2537.58,-432.9 2537.58,-410 2537.8,-399.05 2555.58,-384.63 2597.47,-350.67 2630.27,-395.88 2675.58,-366.63 2690.03,-357.3 2683.52,-345.31 2696.58,-334.11 2751.27,-287.17 2844.58,-339.91 2844.58,-267.84 2844.58,-267.84 2844.58,-267.84 2844.58,-98.79 2844.58,-38.28 2932.92,-22.63 2982.61,-18.62"/>
<polygon fill="black" stroke="black" points="2983.13,-22.09 2992.87,-17.91 2982.65,-15.11 2983.13,-22.09"/>
<text text-anchor="middle" x="2854.08" y="-346.67" font-family="Times,serif" font-size="14.00">dont_notify_borrower|pay(normal, borrower, lender, 525)</text>
</g>
<!-- s21&#45;&gt;s6 -->
<g id="edge20" class="edge">
<title>s21&#45;&gt;s6</title>
<path fill="none" stroke="black" d="M2492.95,-669.23C2496.57,-663.58 2500.3,-656.84 2502.58,-650.22 2515.73,-611.93 2532.26,-500.99 2508.58,-468.16 2434.59,-365.6 2359.95,-412.42 2236.58,-384.63 2214.12,-379.58 2150.27,-383.47 2134.58,-366.63 2117.2,-348 2128.58,-335.09 2128.58,-309.61 2128.58,-309.61 2128.58,-309.61 2128.58,-98.79 2128.58,-55.05 2821.71,-24.93 2982.53,-18.53"/>
<polygon fill="black" stroke="black" points="2982.91,-22.02 2992.76,-18.13 2982.63,-15.03 2982.91,-22.02"/>
<text text-anchor="middle" x="2307.58" y="-346.67" font-family="Times,serif" font-size="14.00">notify_borrower_of_default|pay(normal, borrower, lender, 525)</text>
</g>
<!-- s21&#45;&gt;s12 -->
<g id="edge24" class="edge">
<title>s21&#45;&gt;s12</title>
<path fill="none" stroke="black" d="M2506.89,-692.57C2530.01,-700.62 2559.48,-715.09 2546.58,-733.74 2510.37,-786.09 2474.93,-771.51 2412.58,-784.27 2260.81,-815.33 1119.82,-844.62 911.26,-849.74"/>
<polygon fill="black" stroke="black" points="911.15,-846.24 901.24,-849.99 911.32,-853.24 911.15,-846.24"/>
<text text-anchor="middle" x="2606.08" y="-764.31" font-family="Times,serif" font-size="14.00">notify_borrower_of_default</text>
</g>
<!-- s21&#45;&gt;s20 -->
<g id="edge23" class="edge">
<title>s21&#45;&gt;s20</title>
<path fill="none" stroke="black" d="M2455.3,-687.11C2414.09,-690.21 2339,-698.55 2322.58,-718.74 2310.71,-733.33 2330.01,-746.47 2349.81,-755.34"/>
<polygon fill="black" stroke="black" points="2348.55,-758.6 2359.13,-759.22 2351.24,-752.14 2348.55,-758.6"/>
<text text-anchor="middle" x="2382.58" y="-722.54" font-family="Times,serif" font-size="14.00">dont_notify_borrower</text>
</g>
<!-- s21&#45;&gt;s22 -->
<g id="edge22" class="edge">
<title>s21&#45;&gt;s22</title>
<path fill="none" stroke="black" d="M2454.89,-682.82C2269.3,-678.4 1213.39,-653.1 1210.58,-650.22 1205.93,-645.44 1206.76,-640.68 1210.58,-635.22 1223.86,-616.19 1246.3,-636.24 1259.58,-617.22 1267.85,-605.36 1269.5,-595.2 1259.58,-584.69 1211.75,-534.03 994.41,-617.35 946.58,-566.69 942,-561.84 942.6,-557.04 946.58,-551.69 963.2,-529.35 989.74,-555.86 1006.58,-533.69 1022.45,-512.79 1018.28,-481.59 1012.36,-459.87"/>
<polygon fill="black" stroke="black" points="1015.63,-458.61 1009.39,-450.05 1008.93,-460.63 1015.63,-458.61"/>
<text text-anchor="middle" x="1155.58" y="-555.49" font-family="Times,serif" font-size="14.00">notify_borrower_of_default|payment_default(normal, borrower, lender, 525)</text>
</g>
<!-- s21&#45;&gt;s23 -->
<g id="edge18" class="edge">
<title>s21&#45;&gt;s23</title>
<path fill="none" stroke="black" d="M2481.23,-668.21C2479.37,-657.13 2474.97,-642.81 2464.58,-635.22 2431.17,-610.8 2133.39,-624.07 2092.58,-617.22 1990.28,-600.03 1970.01,-573.4 1868.58,-551.69 1797.16,-536.4 1712.26,-526.59 1664.68,-521.83"/>
<polygon fill="black" stroke="black" points="1664.84,-518.33 1654.55,-520.84 1664.16,-525.3 1664.84,-518.33"/>
<text text-anchor="middle" x="2225.08" y="-597.25" font-family="Times,serif" font-size="14.00">payment_default(normal, borrower, lender, 525)</text>
</g>
<!-- s21&#45;&gt;s24 -->
<g id="edge21" class="edge">
<title>s21&#45;&gt;s24</title>
<path fill="none" stroke="black" d="M2454.75,-683.34C2340.19,-682.57 1908.42,-677.87 1854.58,-650.22 1846.98,-646.31 1849.85,-639.68 1842.58,-635.22 1805.11,-612.21 1754.37,-604.87 1720.16,-602.66"/>
<polygon fill="black" stroke="black" points="1720.28,-599.16 1710.11,-602.12 1719.91,-606.15 1720.28,-599.16"/>
<text text-anchor="middle" x="2048.08" y="-639.02" font-family="Times,serif" font-size="14.00">dont_notify_borrower|payment_default(normal, borrower, lender, 525)</text>
</g>
<!-- s22&#45;&gt;s3 -->
<g id="edge54" class="edge">
<title>s22&#45;&gt;s3</title>
<path fill="none" stroke="black" d="M986.04,-421.27C954.18,-398.96 887.79,-346.68 862.58,-283.11 848.62,-247.93 834.56,-180.35 871.58,-134.05 889.48,-111.66 922.13,-104 946.87,-101.54"/>
<polygon fill="black" stroke="black" points="947.21,-105.02 956.91,-100.78 946.68,-98.04 947.21,-105.02"/>
<text text-anchor="middle" x="973.08" y="-263.14" font-family="Times,serif" font-size="14.00">dont_cure_default|dont_notify_borrower</text>
</g>
<!-- s22&#45;&gt;s3 -->
<g id="edge55" class="edge">
<title>s22&#45;&gt;s3</title>
<path fill="none" stroke="black" d="M1031.36,-433.28C1120.48,-433.84 1396.61,-430.33 1451.58,-366.63 1461.02,-355.69 1460.89,-345.16 1451.58,-334.11 1365.57,-232.01 1243.62,-383.45 1155.58,-283.11 1144.65,-270.65 1160.37,-146.64 1149.58,-134.05 1132.13,-113.71 1056.59,-105.57 1012.29,-102.5"/>
<polygon fill="black" stroke="black" points="1012.49,-99.01 1002.29,-101.86 1012.04,-105.99 1012.49,-99.01"/>
<text text-anchor="middle" x="1282.08" y="-263.14" font-family="Times,serif" font-size="14.00">dont_cure_default|notify_borrower_of_default</text>
</g>
<!-- s22&#45;&gt;s3 -->
<g id="edge56" class="edge">
<title>s22&#45;&gt;s3</title>
<path fill="none" stroke="black" d="M978.37,-426.81C925.11,-412.43 802.1,-370.76 753.58,-283.11 712.53,-208.95 814.9,-162.61 861.58,-134.05 887.95,-117.92 922.38,-109.39 947.24,-105.02"/>
<polygon fill="black" stroke="black" points="947.94,-108.45 957.25,-103.4 946.82,-101.54 947.94,-108.45"/>
<text text-anchor="middle" x="803.08" y="-263.14" font-family="Times,serif" font-size="14.00">dont_cure_default</text>
</g>
<!-- s22&#45;&gt;s7 -->
<g id="edge51" class="edge">
<title>s22&#45;&gt;s7</title>
<path fill="none" stroke="black" d="M996.06,-417.85C983.86,-391.07 963.8,-334.78 991.58,-301.11 1018.37,-268.63 1056.5,-314.47 1084.58,-283.11 1102.23,-263.39 1101.56,-231.7 1098.21,-209.54"/>
<polygon fill="black" stroke="black" points="1101.62,-208.75 1096.42,-199.53 1094.73,-209.99 1101.62,-208.75"/>
<text text-anchor="middle" x="1067.08" y="-304.91" font-family="Times,serif" font-size="14.00">notify_borrower_of_default</text>
</g>
<!-- s22&#45;&gt;s10 -->
<g id="edge52" class="edge">
<title>s22&#45;&gt;s10</title>
<path fill="none" stroke="black" d="M1031.38,-432.56C1160.39,-430.87 1697.38,-422.49 1768.58,-399.63 1780.2,-395.9 1780.25,-389.18 1791.58,-384.63 1837.79,-366.11 1894.94,-357.77 1931.82,-354.11"/>
<polygon fill="black" stroke="black" points="1932.48,-357.56 1942.12,-353.16 1931.84,-350.59 1932.48,-357.56"/>
<text text-anchor="middle" x="1902.58" y="-388.43" font-family="Times,serif" font-size="14.00">cure_default|notify_borrower_of_default</text>
</g>
<!-- s22&#45;&gt;s12 -->
<g id="edge50" class="edge">
<title>s22&#45;&gt;s12</title>
<path fill="none" stroke="black" d="M996.73,-450.01C991.62,-460.17 983.93,-473.44 974.58,-483.16 889.12,-572.02 801.18,-526.75 742.58,-635.22 701.04,-712.1 804.69,-798.6 854.12,-834.05"/>
<polygon fill="black" stroke="black" points="852.2,-836.98 862.39,-839.87 856.22,-831.25 852.2,-836.98"/>
<text text-anchor="middle" x="802.58" y="-639.02" font-family="Times,serif" font-size="14.00">dont_notify_borrower</text>
</g>
<!-- s22&#45;&gt;s20 -->
<g id="edge53" class="edge">
<title>s22&#45;&gt;s20</title>
<path fill="none" stroke="black" d="M1007.05,-450.09C1010.92,-471.21 1014.41,-509.53 995.58,-533.69 985.61,-546.47 919.28,-532.24 942.58,-566.69 976.38,-616.66 1010.81,-599.81 1068.58,-617.22 1106.38,-628.61 1118.61,-621.34 1155.58,-635.22 1211.01,-656.03 1215.31,-682.3 1271.58,-700.74 1335.38,-721.66 1358.97,-694.47 1421.58,-718.74 1432.27,-722.89 1431.72,-730.05 1442.58,-733.74 1528.9,-763.1 2180.09,-766.55 2344.81,-766.95"/>
<polygon fill="black" stroke="black" points="2344.94,-770.45 2354.95,-766.98 2344.95,-763.45 2344.94,-770.45"/>
<text text-anchor="middle" x="1163.58" y="-597.25" font-family="Times,serif" font-size="14.00">cure_default|dont_notify_borrower</text>
</g>
<!-- s22&#45;&gt;s24 -->
<g id="edge49" class="edge">
<title>s22&#45;&gt;s24</title>
<path fill="none" stroke="black" d="M1029.46,-439.56C1136.08,-458.84 1538.17,-532.2 1592.58,-551.69 1614.83,-559.66 1638.31,-572.42 1655.71,-582.81"/>
<polygon fill="black" stroke="black" points="1654.34,-586.08 1664.7,-588.3 1657.99,-580.11 1654.34,-586.08"/>
<text text-anchor="middle" x="1548.58" y="-513.72" font-family="Times,serif" font-size="14.00">cure_default</text>
</g>
<!-- s23&#45;&gt;s7 -->
<g id="edge8" class="edge">
<title>s23&#45;&gt;s7</title>
<path fill="none" stroke="black" d="M1612.51,-503.66C1599.77,-493.25 1580.73,-478.61 1562.58,-468.16 1389.33,-368.39 1300.72,-417.36 1152.58,-283.11 1129.5,-262.19 1112.35,-230.32 1102.42,-208.47"/>
<polygon fill="black" stroke="black" points="1105.59,-206.97 1098.37,-199.21 1099.17,-209.77 1105.59,-206.97"/>
<text text-anchor="middle" x="1433.08" y="-346.67" font-family="Times,serif" font-size="14.00">notify_borrower_of_default|notify_borrower_of_default</text>
</g>
<!-- s23&#45;&gt;s10 -->
<g id="edge6" class="edge">
<title>s23&#45;&gt;s10</title>
<path fill="none" stroke="black" d="M1625.62,-500.86C1622.88,-476.01 1619.39,-429.01 1630.58,-417.63 1660.21,-387.49 1981.4,-430.22 2010.58,-399.63 2020.29,-389.45 2010.04,-377.39 1997.37,-367.87"/>
<polygon fill="black" stroke="black" points="1999.1,-364.81 1988.88,-362.03 1995.13,-370.58 1999.1,-364.81"/>
<text text-anchor="middle" x="1767.58" y="-430.2" font-family="Times,serif" font-size="14.00">dont_notify_borrower|notify_borrower_of_default</text>
</g>
<!-- s23&#45;&gt;s12 -->
<g id="edge7" class="edge">
<title>s23&#45;&gt;s12</title>
<path fill="none" stroke="black" d="M1618.97,-532.99C1611.1,-545.73 1599.66,-562.81 1592.58,-566.69 1534.22,-598.7 1354.38,-557.6 1293.58,-584.69 1274.77,-593.07 1278.43,-606.94 1260.58,-617.22 1234.22,-632.38 1223.81,-626.85 1194.58,-635.22 1172.27,-641.6 1167.4,-646.04 1144.58,-650.22 1116.64,-655.33 909.42,-647.9 889.58,-668.22 883.78,-674.15 883.27,-809.01 882.58,-817.27 882.36,-819.86 882.1,-822.55 881.81,-825.24"/>
<polygon fill="black" stroke="black" points="878.32,-824.98 880.64,-835.32 885.27,-825.79 878.32,-824.98"/>
<text text-anchor="middle" x="1026.58" y="-680.78" font-family="Times,serif" font-size="14.00">dont_notify_borrower|notify_borrower_of_default</text>
</g>
<!-- s23&#45;&gt;s18 -->
<g id="edge3" class="edge">
<title>s23&#45;&gt;s18</title>
<path fill="none" stroke="black" d="M1622.16,-501.22C1614.01,-475.63 1601.46,-422.98 1620.58,-384.63 1646.25,-333.15 1706.63,-298.39 1743.99,-280.95"/>
<polygon fill="black" stroke="black" points="1745.75,-283.99 1753.42,-276.69 1742.87,-277.62 1745.75,-283.99"/>
<text text-anchor="middle" x="1696.08" y="-388.43" font-family="Times,serif" font-size="14.00">notify_borrower_of_default</text>
</g>
<!-- s23&#45;&gt;s20 -->
<g id="edge5" class="edge">
<title>s23&#45;&gt;s20</title>
<path fill="none" stroke="black" d="M1623.87,-533.88C1620.44,-544.75 1614.22,-558.73 1603.58,-566.69 1586,-579.83 1228.68,-618.41 1214.58,-635.22 1210.29,-640.32 1210.6,-644.86 1214.58,-650.22 1216.97,-653.44 1487.61,-733.08 1491.58,-733.74 1659.53,-761.73 2196.82,-766.18 2344.63,-766.88"/>
<polygon fill="black" stroke="black" points="2344.96,-770.38 2354.98,-766.92 2345,-763.38 2344.96,-770.38"/>
<text text-anchor="middle" x="1335.58" y="-639.02" font-family="Times,serif" font-size="14.00">dont_notify_borrower|dont_notify_borrower</text>
</g>
<!-- s23&#45;&gt;s21 -->
<g id="edge2" class="edge">
<title>s23&#45;&gt;s21</title>
<path fill="none" stroke="black" d="M1655.12,-519.12C1781.62,-522.55 2303.14,-539.38 2358.58,-584.69 2370.39,-594.35 2357.97,-607.31 2369.58,-617.22 2405.93,-648.23 2442.2,-601.02 2475.58,-635.22 2481.4,-641.18 2483.78,-649.69 2484.5,-657.91"/>
<polygon fill="black" stroke="black" points="2481,-658.01 2484.67,-667.96 2488,-657.9 2481,-658.01"/>
<text text-anchor="middle" x="2429.58" y="-597.25" font-family="Times,serif" font-size="14.00">dont_notify_borrower</text>
</g>
<!-- s23&#45;&gt;s22 -->
<g id="edge4" class="edge">
<title>s23&#45;&gt;s22</title>
<path fill="none" stroke="black" d="M1600.99,-512.41C1560.66,-506.29 1481.61,-494.17 1414.58,-483.16 1375.86,-476.8 1366.45,-473.5 1327.58,-468.16 1224.26,-453.97 1101.65,-442.96 1041.17,-437.92"/>
<polygon fill="black" stroke="black" points="1041.22,-434.41 1030.96,-437.07 1040.64,-441.38 1041.22,-434.41"/>
<text text-anchor="middle" x="1490.08" y="-471.96" font-family="Times,serif" font-size="14.00">notify_borrower_of_default</text>
</g>
<!-- s23&#45;&gt;s24 -->
<g id="edge1" class="edge">
<title>s23&#45;&gt;s24</title>
<path fill="none" stroke="black" d="M1627.97,-533.84C1628.87,-543.88 1631.3,-556.89 1637.58,-566.69 1641.75,-573.21 1647.69,-578.9 1653.9,-583.64"/>
<polygon fill="black" stroke="black" points="1652.16,-586.69 1662.37,-589.5 1656.14,-580.94 1652.16,-586.69"/>
<text text-anchor="middle" x="1697.58" y="-555.49" font-family="Times,serif" font-size="14.00">dont_notify_borrower</text>
</g>
<!-- s24&#45;&gt;s10 -->
<g id="edge28" class="edge">
<title>s24&#45;&gt;s10</title>
<path fill="none" stroke="black" d="M1710.07,-598.7C1803.42,-594.33 2103.42,-579.38 2119.58,-566.69 2146.46,-545.58 2177.33,-445.53 2157.58,-417.63 2123.52,-369.52 2051.55,-356.1 2007.2,-352.5"/>
<polygon fill="black" stroke="black" points="2007.31,-349 1997.1,-351.81 2006.83,-355.99 2007.31,-349"/>
<text text-anchor="middle" x="2237.08" y="-471.96" font-family="Times,serif" font-size="14.00">notify_borrower_of_default</text>
</g>
<!-- s24&#45;&gt;s18 -->
<g id="edge30" class="edge">
<title>s24&#45;&gt;s18</title>
<path fill="none" stroke="black" d="M1709.75,-597.78C1752.27,-593.89 1831.93,-584.41 1853.58,-566.69 1896.91,-531.2 1890.7,-505.11 1901.58,-450.16 1904.38,-435.98 1911,-428.59 1901.58,-417.63 1866.7,-377.08 1818.52,-439.25 1782.58,-399.63 1756.52,-370.92 1761.85,-322.58 1768.46,-293.11"/>
<polygon fill="black" stroke="black" points="1771.92,-293.72 1770.9,-283.18 1765.12,-292.06 1771.92,-293.72"/>
<text text-anchor="middle" x="2029.58" y="-430.2" font-family="Times,serif" font-size="14.00">borrower_default|notify_borrower_of_default</text>
</g>
<!-- s24&#45;&gt;s20 -->
<g id="edge27" class="edge">
<title>s24&#45;&gt;s20</title>
<path fill="none" stroke="black" d="M1654.88,-602.15C1603.89,-603.18 1498.3,-608.55 1475.58,-635.22 1471.25,-640.29 1471.04,-645.33 1475.58,-650.22 1513.05,-690.52 1679.06,-634.53 1722.58,-668.22 1734.64,-677.56 1722.48,-690.27 1733.58,-700.74 1773.8,-738.71 1799.02,-724.63 1853.58,-733.74 2035.68,-764.17 2257.27,-767.34 2344.6,-767.28"/>
<polygon fill="black" stroke="black" points="2344.82,-770.78 2354.81,-767.26 2344.81,-763.78 2344.82,-770.78"/>
<text text-anchor="middle" x="1793.58" y="-680.78" font-family="Times,serif" font-size="14.00">dont_notify_borrower</text>
</g>
<!-- s24&#45;&gt;s21 -->
<g id="edge29" class="edge">
<title>s24&#45;&gt;s21</title>
<path fill="none" stroke="black" d="M1709.95,-602.97C1818.63,-607.1 2214.88,-622.94 2238.58,-635.22 2246.16,-639.14 2243.16,-645.98 2250.58,-650.22 2283,-668.75 2388.22,-677.81 2445.16,-681.45"/>
<polygon fill="black" stroke="black" points="2445.01,-684.95 2455.2,-682.07 2445.44,-677.96 2445.01,-684.95"/>
<text text-anchor="middle" x="2359.08" y="-639.02" font-family="Times,serif" font-size="14.00">borrower_default|dont_notify_borrower</text>
</g>
<!-- s24&#45;&gt;s23 -->
<g id="edge26" class="edge">
<title>s24&#45;&gt;s23</title>
<path fill="none" stroke="black" d="M1707.73,-593.86C1734.19,-586.23 1770.02,-571.7 1754.58,-551.69 1743.57,-537.42 1697.7,-528.09 1664.24,-523.04"/>
<polygon fill="black" stroke="black" points="1664.7,-519.57 1654.3,-521.61 1663.7,-526.5 1664.7,-519.57"/>
<text text-anchor="middle" x="1805.58" y="-555.49" font-family="Times,serif" font-size="14.00">borrower_default</text>
</g>
</g>
</svg>
