<?xml version="1.0" encoding="UTF-8" standalone="no"?>
<!DOCTYPE svg PUBLIC "-//W3C//DTD SVG 1.1//EN"
 "http://www.w3.org/Graphics/SVG/1.1/DTD/svg11.dtd">
<!-- Generated by graphviz version 5.0.1 (0)
 -->
<!-- Title: G Pages: 1 -->
<svg width="2646pt" height="1134pt"
 viewBox="0.00 0.00 2646.00 1134.38" xmlns="http://www.w3.org/2000/svg" xmlns:xlink="http://www.w3.org/1999/xlink">
<g id="graph0" class="graph" transform="scale(1 1) rotate(0) translate(4 1130.38)">
<title>G</title>
<polygon fill="white" stroke="none" points="-4,4 -4,-1130.38 2642,-1130.38 2642,4 -4,4"/>
<!-- s2 -->
<g id="node1" class="node">
<title>s2</title>
<ellipse fill="none" stroke="black" cx="1591" cy="-1106.11" rx="18.29" ry="16.08"/>
<ellipse fill="none" stroke="black" cx="1591" cy="-1106.11" rx="22.27" ry="20.03"/>
<text text-anchor="middle" x="1591" y="-1102.41" font-family="Times,serif" font-size="14.00">[]</text>
</g>
<!-- s3 -->
<g id="node4" class="node">
<title>s3</title>
<ellipse fill="none" stroke="black" cx="664" cy="-1018.59" rx="18.27" ry="16.03"/>
<text text-anchor="middle" x="664" y="-1014.89" font-family="Times,serif" font-size="14.00">[]</text>
</g>
<!-- s2&#45;&gt;s3 -->
<g id="edge74" class="edge">
<title>s2&#45;&gt;s3</title>
<path fill="none" stroke="black" d="M1568.54,-1103.04C1443.36,-1091.49 832.29,-1035.11 692.52,-1022.22"/>
<polygon fill="black" stroke="black" points="692.5,-1018.7 682.22,-1021.27 691.85,-1025.67 692.5,-1018.7"/>
<text text-anchor="middle" x="1230" y="-1056.65" font-family="Times,serif" font-size="14.00">request_principal</text>
</g>
<!-- s6 -->
<g id="node7" class="node">
<title>s6</title>
<ellipse fill="none" stroke="black" cx="1570" cy="-99.79" rx="18.27" ry="16.03"/>
<text text-anchor="middle" x="1570" y="-96.09" font-family="Times,serif" font-size="14.00">[]</text>
</g>
<!-- s2&#45;&gt;s6 -->
<g id="edge73" class="edge">
<title>s2&#45;&gt;s6</title>
<path fill="none" stroke="black" d="M1613.33,-1104.25C1754.14,-1098.64 2513,-1066.26 2513,-1019.59 2513,-1019.59 2513,-1019.59 2513,-182.32 2513,-111.86 2431.37,-146.37 2362,-134.05 2210.9,-107.23 1721.99,-101.9 1598.53,-100.97"/>
<polygon fill="black" stroke="black" points="1598.39,-97.47 1588.36,-100.9 1598.34,-104.47 1598.39,-97.47"/>
<text text-anchor="middle" x="2575.5" y="-597.25" font-family="Times,serif" font-size="14.00">dont_request_principal</text>
</g>
<!-- s0 -->
<g id="node2" class="node">
<title>s0</title>
<ellipse fill="none" stroke="black" cx="1358" cy="-684.48" rx="18.27" ry="16.03"/>
<text text-anchor="middle" x="1358" y="-680.78" font-family="Times,serif" font-size="14.00">[]</text>
</g>
<!-- s4 -->
<g id="node5" class="node">
<title>s4</title>
<ellipse fill="none" stroke="black" cx="1570" cy="-183.32" rx="18.27" ry="16.03"/>
<text text-anchor="middle" x="1570" y="-179.62" font-family="Times,serif" font-size="14.00">[]</text>
</g>
<!-- s0&#45;&gt;s4 -->
<g id="edge14" class="edge">
<title>s0&#45;&gt;s4</title>
<path fill="none" stroke="black" d="M1352.99,-668.65C1347.98,-652.45 1341,-625.66 1341,-601.95 1341,-601.95 1341,-601.95 1341,-474.66 1341,-449.31 1323.95,-437.26 1340,-417.63 1365.55,-386.4 1395.82,-422.6 1429,-399.63 1448.62,-386.05 1529.12,-237 1543,-217.58 1546.11,-213.23 1549.6,-208.7 1553.02,-204.43"/>
<polygon fill="black" stroke="black" points="1555.75,-206.63 1559.37,-196.67 1550.33,-202.19 1555.75,-206.63"/>
<text text-anchor="middle" x="1389.5" y="-430.2" font-family="Times,serif" font-size="14.00">dont_cure_default</text>
</g>
<!-- s0&#45;&gt;s6 -->
<g id="edge17" class="edge">
<title>s0&#45;&gt;s6</title>
<path fill="none" stroke="black" d="M1350.99,-669.09C1348.31,-663.3 1345.33,-656.51 1343,-650.22 1327.14,-607.41 1332,-593.63 1314,-551.69 1283.2,-479.94 1246.25,-475.04 1226,-399.63 1220.44,-378.92 1226,-372.82 1226,-351.37 1226,-351.37 1226,-351.37 1226,-182.32 1226,-117.7 1458.69,-104.23 1541.32,-101.48"/>
<polygon fill="black" stroke="black" points="1541.62,-104.97 1551.51,-101.17 1541.4,-97.97 1541.62,-104.97"/>
<text text-anchor="middle" x="1327" y="-388.43" font-family="Times,serif" font-size="14.00">pay(Normal, Borrower, Lender, 525)</text>
</g>
<!-- s18 -->
<g id="node19" class="node">
<title>s18</title>
<ellipse fill="none" stroke="black" cx="2098" cy="-600.95" rx="18.27" ry="16.03"/>
<text text-anchor="middle" x="2098" y="-597.25" font-family="Times,serif" font-size="14.00">[]</text>
</g>
<!-- s0&#45;&gt;s18 -->
<g id="edge15" class="edge">
<title>s0&#45;&gt;s18</title>
<path fill="none" stroke="black" d="M1376.34,-682.17C1480.81,-674.63 1998.59,-636.54 2067,-617.22 2069.2,-616.59 2071.44,-615.82 2073.65,-614.95"/>
<polygon fill="black" stroke="black" points="2075.33,-618.03 2082.99,-610.71 2072.44,-611.65 2075.33,-618.03"/>
<text text-anchor="middle" x="1966" y="-639.02" font-family="Times,serif" font-size="14.00">cure_default</text>
</g>
<!-- s21 -->
<g id="node22" class="node">
<title>s21</title>
<ellipse fill="none" stroke="black" cx="1538" cy="-350.37" rx="18.27" ry="16.03"/>
<text text-anchor="middle" x="1538" y="-346.67" font-family="Times,serif" font-size="14.00">[]</text>
</g>
<!-- s0&#45;&gt;s21 -->
<g id="edge16" class="edge">
<title>s0&#45;&gt;s21</title>
<path fill="none" stroke="black" d="M1376.21,-680.94C1412.64,-674.72 1491,-655.17 1491,-601.95 1491,-601.95 1491,-601.95 1491,-432.9 1491,-409.19 1506.1,-386.16 1519.19,-370.66"/>
<polygon fill="black" stroke="black" points="1522.09,-372.66 1526.14,-362.87 1516.87,-368 1522.09,-372.66"/>
<text text-anchor="middle" x="1628" y="-513.72" font-family="Times,serif" font-size="14.00">payment_default(Normal, Borrower, Lender, 525)</text>
</g>
<!-- s1 -->
<g id="node3" class="node">
<title>s1</title>
<ellipse fill="none" stroke="black" cx="1106" cy="-16.26" rx="18.27" ry="16.03"/>
<text text-anchor="middle" x="1106" y="-12.56" font-family="Times,serif" font-size="14.00">[]</text>
</g>
<!-- s7 -->
<g id="node8" class="node">
<title>s7</title>
<ellipse fill="none" stroke="black" cx="664" cy="-935.06" rx="18.27" ry="16.03"/>
<text text-anchor="middle" x="664" y="-931.36" font-family="Times,serif" font-size="14.00">[]</text>
</g>
<!-- s3&#45;&gt;s7 -->
<g id="edge72" class="edge">
<title>s3&#45;&gt;s7</title>
<path fill="none" stroke="black" d="M664,-1002.25C664,-990.75 664,-974.75 664,-961.37"/>
<polygon fill="black" stroke="black" points="667.5,-961.33 664,-951.33 660.5,-961.33 667.5,-961.33"/>
<text text-anchor="middle" x="772" y="-973.12" font-family="Times,serif" font-size="14.00">pay(Principal, Lender, Borrower, 1000)</text>
</g>
<!-- s23 -->
<g id="node24" class="node">
<title>s23</title>
<ellipse fill="none" stroke="black" cx="675" cy="-99.79" rx="18.27" ry="16.03"/>
<text text-anchor="middle" x="675" y="-96.09" font-family="Times,serif" font-size="14.00">[]</text>
</g>
<!-- s3&#45;&gt;s23 -->
<g id="edge71" class="edge">
<title>s3&#45;&gt;s23</title>
<path fill="none" stroke="black" d="M645.55,-1017.31C538.31,-1015.49 0,-1002.99 0,-936.06 0,-936.06 0,-936.06 0,-182.32 0,-116.15 517.79,-103.35 646.37,-101.19"/>
<polygon fill="black" stroke="black" points="646.65,-104.68 656.6,-101.03 646.54,-97.69 646.65,-104.68"/>
<text text-anchor="middle" x="144" y="-555.49" font-family="Times,serif" font-size="14.00">payment_default(Principal, Lender, Borrower, 1000)</text>
</g>
<!-- s4&#45;&gt;s6 -->
<g id="edge70" class="edge">
<title>s4&#45;&gt;s6</title>
<path fill="none" stroke="black" d="M1570,-166.98C1570,-155.48 1570,-139.48 1570,-126.1"/>
<polygon fill="black" stroke="black" points="1573.5,-126.06 1570,-116.06 1566.5,-126.06 1573.5,-126.06"/>
<text text-anchor="middle" x="1682.5" y="-137.85" font-family="Times,serif" font-size="14.00">pay(Accelerated, Borrower, Lender, 525)</text>
</g>
<!-- s4&#45;&gt;s23 -->
<g id="edge69" class="edge">
<title>s4&#45;&gt;s23</title>
<path fill="none" stroke="black" d="M1551.72,-180.65C1439.24,-170.41 841.43,-115.95 703.43,-103.38"/>
<polygon fill="black" stroke="black" points="703.53,-99.87 693.25,-102.45 702.9,-106.85 703.53,-99.87"/>
<text text-anchor="middle" x="1350.5" y="-137.85" font-family="Times,serif" font-size="14.00">payment_default(Accelerated, Borrower, Lender, 525)</text>
</g>
<!-- s5 -->
<g id="node6" class="node">
<title>s5</title>
<ellipse fill="none" stroke="black" cx="982" cy="-350.37" rx="18.27" ry="16.03"/>
<text text-anchor="middle" x="982" y="-346.67" font-family="Times,serif" font-size="14.00">[]</text>
</g>
<!-- s5&#45;&gt;s6 -->
<g id="edge68" class="edge">
<title>s5&#45;&gt;s6</title>
<path fill="none" stroke="black" d="M978.02,-334.14C972.04,-307.56 964.03,-252.25 990,-217.58 1057.43,-127.57 1433.88,-106.09 1541.35,-101.76"/>
<polygon fill="black" stroke="black" points="1541.59,-105.26 1551.45,-101.38 1541.32,-98.26 1541.59,-105.26"/>
<text text-anchor="middle" x="1106" y="-221.38" font-family="Times,serif" font-size="14.00">pay(Accelerated, Borrower, Lender, 1075)</text>
</g>
<!-- s5&#45;&gt;s23 -->
<g id="edge67" class="edge">
<title>s5&#45;&gt;s23</title>
<path fill="none" stroke="black" d="M963.4,-348.9C908.3,-346.39 745.55,-330.63 677,-232.58 655.03,-201.15 660.97,-154.39 667.69,-125.84"/>
<polygon fill="black" stroke="black" points="671.15,-126.42 670.25,-115.86 664.37,-124.68 671.15,-126.42"/>
<text text-anchor="middle" x="829" y="-221.38" font-family="Times,serif" font-size="14.00">payment_default(Accelerated, Borrower, Lender, 1075)</text>
</g>
<!-- s6&#45;&gt;s1 -->
<g id="edge66" class="edge">
<title>s6&#45;&gt;s1</title>
<path fill="none" stroke="black" d="M1552.09,-95.64C1481.26,-83.2 1220.29,-37.34 1133.94,-22.17"/>
<polygon fill="black" stroke="black" points="1134.31,-18.68 1123.85,-20.4 1133.1,-25.58 1134.31,-18.68"/>
<text text-anchor="middle" x="1401" y="-54.33" font-family="Times,serif" font-size="14.00">fulfilled</text>
</g>
<!-- s8 -->
<g id="node9" class="node">
<title>s8</title>
<ellipse fill="none" stroke="black" cx="793" cy="-851.53" rx="18.27" ry="16.03"/>
<text text-anchor="middle" x="793" y="-847.83" font-family="Times,serif" font-size="14.00">[]</text>
</g>
<!-- s7&#45;&gt;s8 -->
<g id="edge61" class="edge">
<title>s7&#45;&gt;s8</title>
<path fill="none" stroke="black" d="M682.72,-934.71C709.59,-934.54 758.75,-929.93 785,-900.8 790.53,-894.65 793.02,-886.2 793.97,-878.09"/>
<polygon fill="black" stroke="black" points="797.48,-878 794.46,-867.84 790.48,-877.66 797.48,-878"/>
<text text-anchor="middle" x="839" y="-889.6" font-family="Times,serif" font-size="14.00">borrower_default</text>
</g>
<!-- s14 -->
<g id="node15" class="node">
<title>s14</title>
<ellipse fill="none" stroke="black" cx="518" cy="-600.95" rx="18.27" ry="16.03"/>
<text text-anchor="middle" x="518" y="-597.25" font-family="Times,serif" font-size="14.00">[]</text>
</g>
<!-- s7&#45;&gt;s14 -->
<g id="edge60" class="edge">
<title>s7&#45;&gt;s14</title>
<path fill="none" stroke="black" d="M645.59,-933.54C601.79,-931.24 495,-918.82 495,-852.53 495,-852.53 495,-852.53 495,-725.24 495,-698.92 495.92,-689.79 511,-668.22 518.85,-656.99 529.76,-662.4 536,-650.22 540.37,-641.68 537.92,-631.83 533.6,-623.26"/>
<polygon fill="black" stroke="black" points="536.55,-621.37 528.41,-614.59 530.54,-624.97 536.55,-621.37"/>
<text text-anchor="middle" x="632" y="-764.31" font-family="Times,serif" font-size="14.00">payment_default(Normal, Borrower, Lender, 550)</text>
</g>
<!-- s7&#45;&gt;s18 -->
<g id="edge59" class="edge">
<title>s7&#45;&gt;s18</title>
<path fill="none" stroke="black" d="M682.17,-932.21C730.6,-927.26 866.77,-913.26 980,-900.8 1258.31,-870.16 2063.32,-930.04 2224,-700.74 2254.26,-657.55 2170.47,-624.12 2125.05,-609.7"/>
<polygon fill="black" stroke="black" points="2125.79,-606.27 2115.21,-606.69 2123.74,-612.96 2125.79,-606.27"/>
<text text-anchor="middle" x="2268" y="-764.31" font-family="Times,serif" font-size="14.00">pay(Normal, Borrower, Lender, 550)</text>
</g>
<!-- s8&#45;&gt;s7 -->
<g id="edge65" class="edge">
<title>s8&#45;&gt;s7</title>
<path fill="none" stroke="black" d="M774.89,-854.5C742.68,-858.41 677.53,-868.34 664,-885.8 659,-892.24 657.81,-900.77 658.24,-908.85"/>
<polygon fill="black" stroke="black" points="654.81,-909.56 659.57,-919.02 661.75,-908.65 654.81,-909.56"/>
<text text-anchor="middle" x="724" y="-889.6" font-family="Times,serif" font-size="14.00">dont_notify_borrower</text>
</g>
<!-- s10 -->
<g id="node11" class="node">
<title>s10</title>
<ellipse fill="none" stroke="black" cx="1154" cy="-768.01" rx="18.27" ry="16.03"/>
<text text-anchor="middle" x="1154" y="-764.31" font-family="Times,serif" font-size="14.00">[]</text>
</g>
<!-- s8&#45;&gt;s10 -->
<g id="edge62" class="edge">
<title>s8&#45;&gt;s10</title>
<path fill="none" stroke="black" d="M797.64,-835.62C801.87,-823.03 808.31,-806.41 814,-802.27 838.96,-784.11 1048.22,-773.48 1125.48,-770.15"/>
<polygon fill="black" stroke="black" points="1125.63,-773.65 1135.48,-769.73 1125.34,-766.65 1125.63,-773.65"/>
<text text-anchor="middle" x="889.5" y="-806.07" font-family="Times,serif" font-size="14.00">notify_borrower_of_default</text>
</g>
<!-- s15 -->
<g id="node16" class="node">
<title>s15</title>
<ellipse fill="none" stroke="black" cx="630" cy="-517.42" rx="18.27" ry="16.03"/>
<text text-anchor="middle" x="630" y="-513.72" font-family="Times,serif" font-size="14.00">[]</text>
</g>
<!-- s8&#45;&gt;s15 -->
<g id="edge64" class="edge">
<title>s8&#45;&gt;s15</title>
<path fill="none" stroke="black" d="M792.92,-835.03C792.45,-810.29 790.09,-763.43 779,-751.74 758.74,-730.38 537.71,-723.47 519,-700.74 509.81,-689.58 509.39,-679.01 519,-668.22 541.91,-642.48 646.02,-671.64 673,-650.22 708.85,-621.75 727.76,-590.19 703,-551.69 693.11,-536.31 674.17,-527.96 658.07,-523.47"/>
<polygon fill="black" stroke="black" points="658.55,-519.99 648.01,-521.04 656.91,-526.79 658.55,-519.99"/>
<text text-anchor="middle" x="656" y="-680.78" font-family="Times,serif" font-size="14.00">payment_default(Normal, Borrower, Lender, 550)</text>
</g>
<!-- s24 -->
<g id="node25" class="node">
<title>s24</title>
<ellipse fill="none" stroke="black" cx="1974" cy="-768.01" rx="18.27" ry="16.03"/>
<text text-anchor="middle" x="1974" y="-764.31" font-family="Times,serif" font-size="14.00">[]</text>
</g>
<!-- s8&#45;&gt;s24 -->
<g id="edge63" class="edge">
<title>s8&#45;&gt;s24</title>
<path fill="none" stroke="black" d="M811.55,-849.25C946.66,-839.92 1778.81,-782.48 1945.1,-771"/>
<polygon fill="black" stroke="black" points="1945.75,-774.46 1955.49,-770.28 1945.27,-767.48 1945.75,-774.46"/>
<text text-anchor="middle" x="1590" y="-806.07" font-family="Times,serif" font-size="14.00">pay(Normal, Borrower, Lender, 550)</text>
</g>
<!-- s9 -->
<g id="node10" class="node">
<title>s9</title>
<ellipse fill="none" stroke="black" cx="1983" cy="-433.9" rx="18.27" ry="16.03"/>
<text text-anchor="middle" x="1983" y="-430.2" font-family="Times,serif" font-size="14.00">[]</text>
</g>
<!-- s9&#45;&gt;s4 -->
<g id="edge43" class="edge">
<title>s9&#45;&gt;s4</title>
<path fill="none" stroke="black" d="M2001.57,-432.81C2039.24,-431.8 2119.64,-424.98 2102,-384.63 2066.83,-304.22 2035.72,-289.38 1957,-250.58 1833.92,-189.93 1665.13,-183.69 1598.6,-183.79"/>
<polygon fill="black" stroke="black" points="1598.45,-180.29 1588.47,-183.86 1598.49,-187.29 1598.45,-180.29"/>
<text text-anchor="middle" x="2109.5" y="-304.91" font-family="Times,serif" font-size="14.00">dont_cure_default</text>
</g>
<!-- s9&#45;&gt;s18 -->
<g id="edge45" class="edge">
<title>s9&#45;&gt;s18</title>
<path fill="none" stroke="black" d="M2001.42,-436.47C2037.37,-439.94 2114.95,-449.43 2133,-468.16 2153.54,-489.48 2125.65,-511.28 2145,-533.69 2161.26,-552.52 2183.51,-531.47 2198,-551.69 2217.88,-579.43 2162.44,-591.88 2126.35,-596.93"/>
<polygon fill="black" stroke="black" points="2125.8,-593.47 2116.32,-598.21 2126.69,-600.41 2125.8,-593.47"/>
<text text-anchor="middle" x="2179" y="-513.72" font-family="Times,serif" font-size="14.00">cure_default</text>
</g>
<!-- s20 -->
<g id="node21" class="node">
<title>s20</title>
<ellipse fill="none" stroke="black" cx="1880" cy="-350.37" rx="18.27" ry="16.03"/>
<text text-anchor="middle" x="1880" y="-346.67" font-family="Times,serif" font-size="14.00">[]</text>
</g>
<!-- s9&#45;&gt;s20 -->
<g id="edge44" class="edge">
<title>s9&#45;&gt;s20</title>
<path fill="none" stroke="black" d="M1964.4,-433C1940.38,-432 1899.35,-426.22 1880,-399.63 1875.2,-393.04 1874.05,-384.48 1874.47,-376.41"/>
<polygon fill="black" stroke="black" points="1877.97,-376.64 1875.75,-366.28 1871.02,-375.76 1877.97,-376.64"/>
<text text-anchor="middle" x="1927" y="-388.43" font-family="Times,serif" font-size="14.00">borrower_default</text>
</g>
<!-- s10&#45;&gt;s0 -->
<g id="edge57" class="edge">
<title>s10&#45;&gt;s0</title>
<path fill="none" stroke="black" d="M1172.53,-766.03C1199.5,-763.85 1250.22,-756.75 1286,-733.74 1293.18,-729.12 1291.48,-724.25 1298,-718.74 1308.28,-710.07 1321.16,-702.57 1332.35,-696.91"/>
<polygon fill="black" stroke="black" points="1334.17,-699.92 1341.65,-692.41 1331.12,-693.61 1334.17,-699.92"/>
<text text-anchor="middle" x="1399" y="-722.54" font-family="Times,serif" font-size="14.00">pay(Normal, Borrower, Lender, 550)</text>
</g>
<!-- s10&#45;&gt;s5 -->
<g id="edge56" class="edge">
<title>s10&#45;&gt;s5</title>
<path fill="none" stroke="black" d="M1172.3,-764.64C1202.75,-760.27 1261.7,-749.92 1274,-733.74 1278.04,-728.44 1275.17,-725.31 1274,-718.74 1261.36,-647.84 1236.49,-636.29 1218,-566.69 1210.42,-538.15 1220.5,-527.43 1207,-501.16 1173.6,-436.17 1153.61,-422.33 1091,-384.63 1065.83,-369.48 1033.19,-360.72 1010.21,-356.03"/>
<polygon fill="black" stroke="black" points="1010.57,-352.53 1000.09,-354.1 1009.26,-359.41 1010.57,-352.53"/>
<text text-anchor="middle" x="1267.5" y="-555.49" font-family="Times,serif" font-size="14.00">dont_cure_default</text>
</g>
<!-- s10&#45;&gt;s7 -->
<g id="edge58" class="edge">
<title>s10&#45;&gt;s7</title>
<path fill="none" stroke="black" d="M1165.24,-781.42C1173.19,-791.75 1181.1,-806.46 1173,-817.27 1093.57,-923.22 1016.34,-872.4 887,-900.8 817.89,-915.97 735.19,-926.3 692.55,-931.06"/>
<polygon fill="black" stroke="black" points="691.92,-927.61 682.36,-932.18 692.69,-934.57 691.92,-927.61"/>
<text text-anchor="middle" x="1191" y="-847.83" font-family="Times,serif" font-size="14.00">cure_default</text>
</g>
<!-- s12 -->
<g id="node13" class="node">
<title>s12</title>
<ellipse fill="none" stroke="black" cx="1016" cy="-684.48" rx="18.27" ry="16.03"/>
<text text-anchor="middle" x="1016" y="-680.78" font-family="Times,serif" font-size="14.00">[]</text>
</g>
<!-- s10&#45;&gt;s12 -->
<g id="edge55" class="edge">
<title>s10&#45;&gt;s12</title>
<path fill="none" stroke="black" d="M1135.49,-766.23C1075.4,-763.52 888.63,-753.57 871,-733.74 866.57,-728.76 866.64,-723.79 871,-718.74 887.51,-699.64 955.14,-708.89 992.82,-699.42"/>
<polygon fill="black" stroke="black" points="994.18,-702.65 1002.59,-696.21 992,-696 994.18,-702.65"/>
<text text-anchor="middle" x="1008" y="-722.54" font-family="Times,serif" font-size="14.00">payment_default(Normal, Borrower, Lender, 550)</text>
</g>
<!-- s11 -->
<g id="node12" class="node">
<title>s11</title>
<ellipse fill="none" stroke="black" cx="1883" cy="-517.42" rx="18.27" ry="16.03"/>
<text text-anchor="middle" x="1883" y="-513.72" font-family="Times,serif" font-size="14.00">[]</text>
</g>
<!-- s11&#45;&gt;s9 -->
<g id="edge52" class="edge">
<title>s11&#45;&gt;s9</title>
<path fill="none" stroke="black" d="M1901.29,-515.16C1922.43,-512.65 1956.64,-505.22 1975,-483.16 1980.21,-476.9 1982.64,-468.55 1983.64,-460.56"/>
<polygon fill="black" stroke="black" points="1987.14,-460.66 1984.25,-450.47 1980.15,-460.24 1987.14,-460.66"/>
<text text-anchor="middle" x="2056.5" y="-471.96" font-family="Times,serif" font-size="14.00">notify_borrower_of_default</text>
</g>
<!-- s17 -->
<g id="node18" class="node">
<title>s17</title>
<ellipse fill="none" stroke="black" cx="1724" cy="-433.9" rx="18.27" ry="16.03"/>
<text text-anchor="middle" x="1724" y="-430.2" font-family="Times,serif" font-size="14.00">[]</text>
</g>
<!-- s11&#45;&gt;s17 -->
<g id="edge53" class="edge">
<title>s11&#45;&gt;s17</title>
<path fill="none" stroke="black" d="M1864.85,-514.42C1830.59,-510.28 1758.22,-499.78 1740,-483.16 1736.28,-479.77 1732.7,-469.83 1729.88,-459.84"/>
<polygon fill="black" stroke="black" points="1733.24,-458.87 1727.32,-450.08 1726.47,-460.64 1733.24,-458.87"/>
<text text-anchor="middle" x="1787" y="-471.96" font-family="Times,serif" font-size="14.00">borrower_default</text>
</g>
<!-- s11&#45;&gt;s18 -->
<g id="edge54" class="edge">
<title>s11&#45;&gt;s18</title>
<path fill="none" stroke="black" d="M1864.77,-521.35C1832.53,-527.22 1770.93,-542.05 1794,-566.69 1814.78,-588.88 2037.64,-576.82 2067,-584.69 2069.21,-585.28 2071.46,-586.04 2073.67,-586.89"/>
<polygon fill="black" stroke="black" points="2072.46,-590.19 2083.01,-591.1 2075.33,-583.8 2072.46,-590.19"/>
<text text-anchor="middle" x="1854" y="-555.49" font-family="Times,serif" font-size="14.00">dont_notify_borrower</text>
</g>
<!-- s12&#45;&gt;s5 -->
<g id="edge36" class="edge">
<title>s12&#45;&gt;s5</title>
<path fill="none" stroke="black" d="M1034.42,-681.62C1054.13,-678.59 1084.74,-670.7 1101,-650.22 1114.48,-633.24 1108,-623.63 1108,-601.95 1108,-601.95 1108,-601.95 1108,-432.9 1108,-386.66 1047.44,-365.35 1010.29,-356.62"/>
<polygon fill="black" stroke="black" points="1010.57,-353.1 1000.05,-354.4 1009.08,-359.94 1010.57,-353.1"/>
<text text-anchor="middle" x="1157.5" y="-513.72" font-family="Times,serif" font-size="14.00">dont_cure_default</text>
</g>
<!-- s12&#45;&gt;s10 -->
<g id="edge39" class="edge">
<title>s12&#45;&gt;s10</title>
<path fill="none" stroke="black" d="M1034.23,-687.69C1066.34,-691.95 1131,-702.39 1146,-718.74 1151.65,-724.9 1154.14,-733.46 1155.06,-741.66"/>
<polygon fill="black" stroke="black" points="1151.57,-741.82 1155.51,-751.66 1158.56,-741.51 1151.57,-741.82"/>
<text text-anchor="middle" x="1213" y="-722.54" font-family="Times,serif" font-size="14.00">dont_notify_borrower</text>
</g>
<!-- s12&#45;&gt;s14 -->
<g id="edge38" class="edge">
<title>s12&#45;&gt;s14</title>
<path fill="none" stroke="black" d="M1002.6,-672.74C999.88,-670.98 996.94,-669.37 994,-668.22 993.67,-668.09 648.55,-620.1 546.25,-605.88"/>
<polygon fill="black" stroke="black" points="546.45,-602.37 536.06,-604.46 545.49,-609.31 546.45,-602.37"/>
<text text-anchor="middle" x="887" y="-639.02" font-family="Times,serif" font-size="14.00">cure_default</text>
</g>
<!-- s16 -->
<g id="node17" class="node">
<title>s16</title>
<ellipse fill="none" stroke="black" cx="982" cy="-600.95" rx="18.27" ry="16.03"/>
<text text-anchor="middle" x="982" y="-597.25" font-family="Times,serif" font-size="14.00">[]</text>
</g>
<!-- s12&#45;&gt;s16 -->
<g id="edge37" class="edge">
<title>s12&#45;&gt;s16</title>
<path fill="none" stroke="black" d="M1002.3,-673.37C999.6,-671.56 996.76,-669.76 994,-668.22 976.63,-658.5 963.88,-666.88 953,-650.22 946.49,-640.24 952.75,-628.82 961.1,-619.6"/>
<polygon fill="black" stroke="black" points="963.69,-621.96 968.36,-612.45 958.78,-616.97 963.69,-621.96"/>
<text text-anchor="middle" x="1028.5" y="-639.02" font-family="Times,serif" font-size="14.00">notify_borrower_of_default</text>
</g>
<!-- s13 -->
<g id="node14" class="node">
<title>s13</title>
<ellipse fill="none" stroke="black" cx="308" cy="-517.42" rx="18.27" ry="16.03"/>
<text text-anchor="middle" x="308" y="-513.72" font-family="Times,serif" font-size="14.00">[]</text>
</g>
<!-- s13&#45;&gt;s5 -->
<g id="edge46" class="edge">
<title>s13&#45;&gt;s5</title>
<path fill="none" stroke="black" d="M302.16,-501.99C298.99,-491.62 297,-477.83 304,-468.16 346.26,-409.82 387.72,-433.45 458,-417.63 644.26,-375.71 874.16,-358.15 953.5,-353.05"/>
<polygon fill="black" stroke="black" points="953.92,-356.53 963.68,-352.42 953.48,-349.55 953.92,-356.53"/>
<text text-anchor="middle" x="507.5" y="-430.2" font-family="Times,serif" font-size="14.00">dont_cure_default</text>
</g>
<!-- s13&#45;&gt;s7 -->
<g id="edge48" class="edge">
<title>s13&#45;&gt;s7</title>
<path fill="none" stroke="black" d="M304.4,-533.65C300.86,-549.96 296,-576.63 296,-599.95 296,-852.53 296,-852.53 296,-852.53 296,-921.95 548.79,-932.3 635.34,-933.81"/>
<polygon fill="black" stroke="black" points="635.45,-937.32 645.5,-933.96 635.55,-930.32 635.45,-937.32"/>
<text text-anchor="middle" x="330" y="-722.54" font-family="Times,serif" font-size="14.00">cure_default</text>
</g>
<!-- s22 -->
<g id="node23" class="node">
<title>s22</title>
<ellipse fill="none" stroke="black" cx="577" cy="-433.9" rx="18.27" ry="16.03"/>
<text text-anchor="middle" x="577" y="-430.2" font-family="Times,serif" font-size="14.00">[]</text>
</g>
<!-- s13&#45;&gt;s22 -->
<g id="edge47" class="edge">
<title>s13&#45;&gt;s22</title>
<path fill="none" stroke="black" d="M326.25,-514.93C351.28,-512.15 396.79,-504.36 429,-483.16 436.13,-478.47 433.8,-472.75 441,-468.16 473.89,-447.18 518.99,-439.43 548.07,-436.57"/>
<polygon fill="black" stroke="black" points="548.7,-440.03 558.37,-435.7 548.11,-433.05 548.7,-440.03"/>
<text text-anchor="middle" x="488" y="-471.96" font-family="Times,serif" font-size="14.00">borrower_default</text>
</g>
<!-- s14&#45;&gt;s7 -->
<g id="edge51" class="edge">
<title>s14&#45;&gt;s7</title>
<path fill="none" stroke="black" d="M502.45,-609.7C458.13,-632.93 336.41,-705.3 370,-784.27 399.22,-852.97 424.72,-866.43 491,-900.8 537.63,-924.97 599.55,-931.68 635.26,-933.48"/>
<polygon fill="black" stroke="black" points="635.33,-936.98 645.46,-933.89 635.61,-929.99 635.33,-936.98"/>
<text text-anchor="middle" x="430" y="-764.31" font-family="Times,serif" font-size="14.00">dont_notify_borrower</text>
</g>
<!-- s14&#45;&gt;s13 -->
<g id="edge49" class="edge">
<title>s14&#45;&gt;s13</title>
<path fill="none" stroke="black" d="M499.56,-599.16C456.35,-596.93 350.23,-589.25 324,-566.69 317.24,-560.88 313.33,-552.14 311.06,-543.7"/>
<polygon fill="black" stroke="black" points="314.46,-542.85 309.04,-533.75 307.6,-544.25 314.46,-542.85"/>
<text text-anchor="middle" x="399.5" y="-555.49" font-family="Times,serif" font-size="14.00">notify_borrower_of_default</text>
</g>
<!-- s14&#45;&gt;s15 -->
<g id="edge50" class="edge">
<title>s14&#45;&gt;s15</title>
<path fill="none" stroke="black" d="M502.77,-591.42C487.52,-581.78 467.8,-565.63 479,-551.69 494.1,-532.91 562.29,-524.11 601.68,-520.53"/>
<polygon fill="black" stroke="black" points="602.05,-524.01 611.72,-519.67 601.46,-517.03 602.05,-524.01"/>
<text text-anchor="middle" x="526" y="-555.49" font-family="Times,serif" font-size="14.00">borrower_default</text>
</g>
<!-- s15&#45;&gt;s8 -->
<g id="edge27" class="edge">
<title>s15&#45;&gt;s8</title>
<path fill="none" stroke="black" d="M648.35,-519.63C686.34,-522.51 771.67,-531.17 791,-551.69 805.86,-567.47 798,-578.28 798,-599.95 798,-769.01 798,-769.01 798,-769.01 798,-787.79 796.66,-808.95 795.37,-825.01"/>
<polygon fill="black" stroke="black" points="791.86,-824.96 794.5,-835.22 798.84,-825.56 791.86,-824.96"/>
<text text-anchor="middle" x="858" y="-680.78" font-family="Times,serif" font-size="14.00">dont_notify_borrower</text>
</g>
<!-- s15&#45;&gt;s12 -->
<g id="edge25" class="edge">
<title>s15&#45;&gt;s12</title>
<path fill="none" stroke="black" d="M648.39,-519.35C688.34,-521.76 781.14,-529.66 802,-551.69 822.21,-573.03 791.67,-595.07 811,-617.22 864.47,-678.46 913.78,-635.76 993.15,-668.87"/>
<polygon fill="black" stroke="black" points="991.9,-672.15 1002.46,-673.05 994.77,-665.76 991.9,-672.15"/>
<text text-anchor="middle" x="886.5" y="-597.25" font-family="Times,serif" font-size="14.00">notify_borrower_of_default</text>
</g>
<!-- s15&#45;&gt;s14 -->
<g id="edge28" class="edge">
<title>s15&#45;&gt;s14</title>
<path fill="none" stroke="black" d="M615.81,-527.79C606.82,-534.05 595.2,-542.74 586,-551.69 579.88,-557.64 580.44,-561.08 574,-566.69 564.73,-574.76 553.23,-581.97 543.07,-587.6"/>
<polygon fill="black" stroke="black" points="541.41,-584.52 534.22,-592.31 544.69,-590.71 541.41,-584.52"/>
<text text-anchor="middle" x="646" y="-555.49" font-family="Times,serif" font-size="14.00">dont_notify_borrower</text>
</g>
<!-- s15&#45;&gt;s22 -->
<g id="edge26" class="edge">
<title>s15&#45;&gt;s22</title>
<path fill="none" stroke="black" d="M621.25,-502.96C613.12,-490.45 600.86,-471.6 591.3,-456.9"/>
<polygon fill="black" stroke="black" points="594.15,-454.86 585.76,-448.38 588.28,-458.67 594.15,-454.86"/>
<text text-anchor="middle" x="684.5" y="-471.96" font-family="Times,serif" font-size="14.00">notify_borrower_of_default</text>
</g>
<!-- s16&#45;&gt;s5 -->
<g id="edge29" class="edge">
<title>s16&#45;&gt;s5</title>
<path fill="none" stroke="black" d="M982,-584.4C982,-542.81 982,-428.69 982,-377.19"/>
<polygon fill="black" stroke="black" points="985.5,-376.92 982,-366.92 978.5,-376.92 985.5,-376.92"/>
<text text-anchor="middle" x="1031.5" y="-471.96" font-family="Times,serif" font-size="14.00">dont_cure_default</text>
</g>
<!-- s16&#45;&gt;s10 -->
<g id="edge31" class="edge">
<title>s16&#45;&gt;s10</title>
<path fill="none" stroke="black" d="M969.43,-613.38C962.98,-619.54 955.19,-627.46 949,-635.22 938.15,-648.8 935.29,-652.43 928,-668.22 921.66,-681.95 928.51,-689.86 918,-700.74 893.88,-725.72 838.81,-703.23 866,-733.74 883.08,-752.91 1055.96,-762.66 1125.38,-765.82"/>
<polygon fill="black" stroke="black" points="1125.44,-769.33 1135.59,-766.27 1125.75,-762.34 1125.44,-769.33"/>
<text text-anchor="middle" x="962" y="-680.78" font-family="Times,serif" font-size="14.00">cure_default</text>
</g>
<!-- s16&#45;&gt;s13 -->
<g id="edge30" class="edge">
<title>s16&#45;&gt;s13</title>
<path fill="none" stroke="black" d="M968.64,-589.08C965.92,-587.34 962.97,-585.76 960,-584.69 871.88,-552.92 841.61,-586.27 750,-566.69 730.21,-562.46 726.8,-555.9 707,-551.69 570.46,-522.67 402.61,-518.71 336.59,-518.35"/>
<polygon fill="black" stroke="black" points="336.54,-514.85 326.53,-518.32 336.52,-521.85 336.54,-514.85"/>
<text text-anchor="middle" x="784" y="-555.49" font-family="Times,serif" font-size="14.00">cure_default</text>
</g>
<!-- s17&#45;&gt;s11 -->
<g id="edge7" class="edge">
<title>s17&#45;&gt;s11</title>
<path fill="none" stroke="black" d="M1742.34,-436.98C1765.6,-440.35 1806.15,-448.69 1835,-468.16 1842.08,-472.94 1841.18,-476.91 1847,-483.16 1851.91,-488.43 1857.51,-493.86 1862.8,-498.75"/>
<polygon fill="black" stroke="black" points="1860.47,-501.36 1870.23,-505.47 1865.16,-496.17 1860.47,-501.36"/>
<text text-anchor="middle" x="1907" y="-471.96" font-family="Times,serif" font-size="14.00">dont_notify_borrower</text>
</g>
<!-- s17&#45;&gt;s20 -->
<g id="edge5" class="edge">
<title>s17&#45;&gt;s20</title>
<path fill="none" stroke="black" d="M1718.7,-418.21C1715.93,-407.72 1714.5,-393.88 1722,-384.63 1730.14,-374.6 1808.51,-361.77 1851.73,-355.37"/>
<polygon fill="black" stroke="black" points="1852.5,-358.79 1861.89,-353.89 1851.49,-351.87 1852.5,-358.79"/>
<text text-anchor="middle" x="1797.5" y="-388.43" font-family="Times,serif" font-size="14.00">notify_borrower_of_default</text>
</g>
<!-- s17&#45;&gt;s21 -->
<g id="edge6" class="edge">
<title>s17&#45;&gt;s21</title>
<path fill="none" stroke="black" d="M1705.41,-432.26C1663.51,-430.42 1563.68,-423.55 1542,-399.63 1536.44,-393.5 1534.57,-384.95 1534.36,-376.75"/>
<polygon fill="black" stroke="black" points="1537.86,-376.91 1534.85,-366.75 1530.87,-376.57 1537.86,-376.91"/>
<text text-anchor="middle" x="1617.5" y="-388.43" font-family="Times,serif" font-size="14.00">notify_borrower_of_default</text>
</g>
<!-- s17&#45;&gt;s24 -->
<g id="edge8" class="edge">
<title>s17&#45;&gt;s24</title>
<path fill="none" stroke="black" d="M1724.19,-450.26C1725.05,-460.54 1727.68,-473.83 1735,-483.16 1746.05,-497.23 1759.65,-487.34 1771,-501.16 1790.17,-524.5 1766.12,-546.97 1789,-566.69 1839.52,-610.24 1889.1,-539.32 1938,-584.69 1940.89,-587.37 1960.39,-692.44 1969.42,-741.83"/>
<polygon fill="black" stroke="black" points="1965.99,-742.53 1971.23,-751.74 1972.88,-741.27 1965.99,-742.53"/>
<text text-anchor="middle" x="2005" y="-597.25" font-family="Times,serif" font-size="14.00">dont_notify_borrower</text>
</g>
<!-- s18&#45;&gt;s6 -->
<g id="edge42" class="edge">
<title>s18&#45;&gt;s6</title>
<path fill="none" stroke="black" d="M2116.41,-599.67C2140.33,-598.24 2181.66,-591.99 2204,-566.69 2210.06,-559.83 2217,-492.48 2217,-476.66 2217,-476.66 2217,-476.66 2217,-182.32 2217,-119.13 1724.9,-104.15 1599.04,-101.35"/>
<polygon fill="black" stroke="black" points="1598.74,-97.84 1588.67,-101.13 1598.59,-104.84 1598.74,-97.84"/>
<text text-anchor="middle" x="2318" y="-346.67" font-family="Times,serif" font-size="14.00">pay(Normal, Borrower, Lender, 525)</text>
</g>
<!-- s18&#45;&gt;s11 -->
<g id="edge41" class="edge">
<title>s18&#45;&gt;s11</title>
<path fill="none" stroke="black" d="M2082.96,-591.31C2078.01,-588.81 2072.4,-586.32 2067,-584.69 2006.93,-566.59 1981.69,-597.42 1927,-566.69 1919.56,-562.51 1920.63,-558.1 1915,-551.69 1910.87,-546.98 1906.28,-542.05 1901.89,-537.47"/>
<polygon fill="black" stroke="black" points="1904.3,-534.92 1894.82,-530.19 1899.28,-539.8 1904.3,-534.92"/>
<text text-anchor="middle" x="2064" y="-555.49" font-family="Times,serif" font-size="14.00">payment_default(Normal, Borrower, Lender, 525)</text>
</g>
<!-- s18&#45;&gt;s24 -->
<g id="edge40" class="edge">
<title>s18&#45;&gt;s24</title>
<path fill="none" stroke="black" d="M2082.56,-610.32C2057.39,-624.27 2009.19,-652.28 1998,-668.22 1982.8,-689.87 1977.17,-720.03 1975.12,-741.31"/>
<polygon fill="black" stroke="black" points="1971.61,-741.3 1974.34,-751.54 1978.59,-741.84 1971.61,-741.3"/>
<text text-anchor="middle" x="2045" y="-680.78" font-family="Times,serif" font-size="14.00">borrower_default</text>
</g>
<!-- s19 -->
<g id="node20" class="node">
<title>s19</title>
<ellipse fill="none" stroke="black" cx="1658" cy="-266.84" rx="18.27" ry="16.03"/>
<text text-anchor="middle" x="1658" y="-263.14" font-family="Times,serif" font-size="14.00">[]</text>
</g>
<!-- s19&#45;&gt;s0 -->
<g id="edge22" class="edge">
<title>s19&#45;&gt;s0</title>
<path fill="none" stroke="black" d="M1644.55,-278.47C1641.83,-280.23 1638.91,-281.88 1636,-283.11 1596.79,-299.59 1578.52,-279.3 1542,-301.11 1486.51,-334.25 1484.69,-360.22 1455,-417.63 1447.69,-431.78 1452.36,-440.13 1440,-450.16 1412.03,-472.84 1384.3,-440.7 1361,-468.16 1337.34,-496.05 1348.09,-607.07 1354.48,-657.87"/>
<polygon fill="black" stroke="black" points="1351.04,-658.55 1355.8,-668.02 1357.98,-657.65 1351.04,-658.55"/>
<text text-anchor="middle" x="1395" y="-471.96" font-family="Times,serif" font-size="14.00">cure_default</text>
</g>
<!-- s19&#45;&gt;s4 -->
<g id="edge23" class="edge">
<title>s19&#45;&gt;s4</title>
<path fill="none" stroke="black" d="M1645.76,-254.51C1631.32,-241.12 1607.08,-218.67 1589.92,-202.77"/>
<polygon fill="black" stroke="black" points="1591.85,-199.79 1582.13,-195.56 1587.09,-204.92 1591.85,-199.79"/>
<text text-anchor="middle" x="1670.5" y="-221.38" font-family="Times,serif" font-size="14.00">dont_cure_default</text>
</g>
<!-- s19&#45;&gt;s9 -->
<g id="edge24" class="edge">
<title>s19&#45;&gt;s9</title>
<path fill="none" stroke="black" d="M1673.66,-275.86C1683.16,-281.57 1694.64,-290.17 1701,-301.11 1723.24,-339.34 1683.11,-368.99 1715,-399.63 1743.51,-427.03 1852.82,-412.36 1892,-417.63 1913.27,-420.5 1937.19,-424.54 1955.17,-427.75"/>
<polygon fill="black" stroke="black" points="1954.8,-431.24 1965.27,-429.57 1956.05,-424.35 1954.8,-431.24"/>
<text text-anchor="middle" x="1741" y="-346.67" font-family="Times,serif" font-size="14.00">cure_default</text>
</g>
<!-- s20&#45;&gt;s4 -->
<g id="edge19" class="edge">
<title>s20&#45;&gt;s4</title>
<path fill="none" stroke="black" d="M1880.77,-333.72C1880.5,-323.57 1878.66,-310.54 1872,-301.11 1827.76,-238.46 1792.75,-244.67 1721,-217.58 1679.67,-201.97 1629.06,-192.68 1598.2,-188.04"/>
<polygon fill="black" stroke="black" points="1598.55,-184.56 1588.15,-186.59 1597.55,-191.48 1598.55,-184.56"/>
<text text-anchor="middle" x="1906.5" y="-263.14" font-family="Times,serif" font-size="14.00">dont_cure_default</text>
</g>
<!-- s20&#45;&gt;s9 -->
<g id="edge21" class="edge">
<title>s20&#45;&gt;s9</title>
<path fill="none" stroke="black" d="M1898.49,-352.41C1920.26,-354.69 1955.88,-361.9 1975,-384.63 1980.24,-390.87 1982.68,-399.21 1983.68,-407.21"/>
<polygon fill="black" stroke="black" points="1980.19,-407.53 1984.28,-417.31 1987.18,-407.12 1980.19,-407.53"/>
<text text-anchor="middle" x="2041" y="-388.43" font-family="Times,serif" font-size="14.00">dont_notify_borrower</text>
</g>
<!-- s20&#45;&gt;s19 -->
<g id="edge20" class="edge">
<title>s20&#45;&gt;s19</title>
<path fill="none" stroke="black" d="M1861.84,-347.06C1825.87,-342.23 1747.03,-330.33 1724,-316.11 1716.74,-311.62 1718.4,-306.76 1712,-301.11 1703.12,-293.26 1692.17,-286.13 1682.45,-280.5"/>
<polygon fill="black" stroke="black" points="1684.06,-277.4 1673.62,-275.6 1680.66,-283.51 1684.06,-277.4"/>
<text text-anchor="middle" x="1799.5" y="-304.91" font-family="Times,serif" font-size="14.00">notify_borrower_of_default</text>
</g>
<!-- s20&#45;&gt;s24 -->
<g id="edge18" class="edge">
<title>s20&#45;&gt;s24</title>
<path fill="none" stroke="black" d="M1898.71,-351.52C1970.99,-353.15 2228,-369.32 2228,-516.42 2228,-685.48 2228,-685.48 2228,-685.48 2228,-732.42 2068.73,-756.14 2002.43,-763.98"/>
<polygon fill="black" stroke="black" points="2001.8,-760.53 1992.27,-765.14 2002.6,-767.48 2001.8,-760.53"/>
<text text-anchor="middle" x="2262" y="-555.49" font-family="Times,serif" font-size="14.00">cure_default</text>
</g>
<!-- s21&#45;&gt;s0 -->
<g id="edge13" class="edge">
<title>s21&#45;&gt;s0</title>
<path fill="none" stroke="black" d="M1522.27,-358.99C1511.37,-364.85 1497.06,-373.78 1487,-384.63 1452.6,-421.73 1470.6,-452.99 1430,-483.16 1406.28,-500.79 1384.35,-478.01 1366,-501.16 1356.51,-513.14 1356.78,-610.65 1357.49,-657.94"/>
<polygon fill="black" stroke="black" points="1353.99,-658.08 1357.66,-668.02 1360.99,-657.96 1353.99,-658.08"/>
<text text-anchor="middle" x="1426" y="-513.72" font-family="Times,serif" font-size="14.00">dont_notify_borrower</text>
</g>
<!-- s21&#45;&gt;s4 -->
<g id="edge10" class="edge">
<title>s21&#45;&gt;s4</title>
<path fill="none" stroke="black" d="M1536.17,-334.07C1534.27,-314.46 1532.41,-279.51 1539,-250.58 1542.5,-235.19 1549.92,-219.12 1556.61,-206.66"/>
<polygon fill="black" stroke="black" points="1559.68,-208.34 1561.52,-197.91 1553.58,-204.92 1559.68,-208.34"/>
<text text-anchor="middle" x="1588.5" y="-263.14" font-family="Times,serif" font-size="14.00">dont_cure_default</text>
</g>
<!-- s21&#45;&gt;s11 -->
<g id="edge11" class="edge">
<title>s21&#45;&gt;s11</title>
<path fill="none" stroke="black" d="M1556.57,-351.92C1586.53,-353.55 1646.57,-359.9 1690,-384.63 1697.92,-389.15 1696.17,-394.95 1704,-399.63 1741.67,-422.18 1852.54,-439.01 1895,-450.16 1925.65,-458.21 1944.62,-443.08 1964,-468.16 1980.83,-489.95 1940.59,-503.94 1911,-510.97"/>
<polygon fill="black" stroke="black" points="1910.1,-507.59 1901.09,-513.17 1911.61,-514.42 1910.1,-507.59"/>
<text text-anchor="middle" x="1929" y="-430.2" font-family="Times,serif" font-size="14.00">cure_default</text>
</g>
<!-- s21&#45;&gt;s19 -->
<g id="edge12" class="edge">
<title>s21&#45;&gt;s19</title>
<path fill="none" stroke="black" d="M1538.87,-333.73C1540.3,-323.06 1543.94,-309.4 1553,-301.11 1578.66,-277.61 1598.13,-294.93 1634.81,-282.31"/>
<polygon fill="black" stroke="black" points="1636.55,-285.38 1644.52,-278.41 1633.94,-278.89 1636.55,-285.38"/>
<text text-anchor="middle" x="1628.5" y="-304.91" font-family="Times,serif" font-size="14.00">notify_borrower_of_default</text>
</g>
<!-- s22&#45;&gt;s5 -->
<g id="edge33" class="edge">
<title>s22&#45;&gt;s5</title>
<path fill="none" stroke="black" d="M594.66,-429.34C658.35,-416.52 876.54,-372.6 954.24,-356.96"/>
<polygon fill="black" stroke="black" points="955.13,-360.35 964.24,-354.95 953.75,-353.49 955.13,-360.35"/>
<text text-anchor="middle" x="864.5" y="-388.43" font-family="Times,serif" font-size="14.00">dont_cure_default</text>
</g>
<!-- s22&#45;&gt;s8 -->
<g id="edge34" class="edge">
<title>s22&#45;&gt;s8</title>
<path fill="none" stroke="black" d="M565.56,-447C539.92,-474.25 479.75,-539.02 475,-551.69 451.02,-615.59 467.36,-649.1 512,-700.74 535.82,-728.29 551.77,-724.5 587,-733.74 626.31,-744.05 738.33,-725.08 769,-751.74 779.95,-761.26 786.73,-799.27 790.18,-825.27"/>
<polygon fill="black" stroke="black" points="786.71,-825.74 791.42,-835.23 793.66,-824.87 786.71,-825.74"/>
<text text-anchor="middle" x="510" y="-639.02" font-family="Times,serif" font-size="14.00">cure_default</text>
</g>
<!-- s22&#45;&gt;s13 -->
<g id="edge35" class="edge">
<title>s22&#45;&gt;s13</title>
<path fill="none" stroke="black" d="M558.63,-436.57C500,-441.98 320.58,-459.21 312,-468.16 306.19,-474.22 304.3,-482.9 304.16,-491.22"/>
<polygon fill="black" stroke="black" points="300.68,-491.59 304.76,-501.36 307.67,-491.18 300.68,-491.59"/>
<text text-anchor="middle" x="372" y="-471.96" font-family="Times,serif" font-size="14.00">dont_notify_borrower</text>
</g>
<!-- s22&#45;&gt;s16 -->
<g id="edge32" class="edge">
<title>s22&#45;&gt;s16</title>
<path fill="none" stroke="black" d="M595.39,-434.7C629.86,-435.05 705.73,-439.36 761,-468.16 797.66,-487.26 792.29,-511.24 827,-533.69 877.57,-566.38 901.63,-556.25 959.21,-584.99"/>
<polygon fill="black" stroke="black" points="957.87,-588.24 968.35,-589.74 961.09,-582.02 957.87,-588.24"/>
<text text-anchor="middle" x="902.5" y="-513.72" font-family="Times,serif" font-size="14.00">notify_borrower_of_default</text>
</g>
<!-- s23&#45;&gt;s1 -->
<g id="edge9" class="edge">
<title>s23&#45;&gt;s1</title>
<path fill="none" stroke="black" d="M692.97,-95.39C760.06,-82.7 996.18,-38.04 1077.91,-22.58"/>
<polygon fill="black" stroke="black" points="1078.78,-25.97 1087.95,-20.68 1077.48,-19.1 1078.78,-25.97"/>
<text text-anchor="middle" x="953.5" y="-54.33" font-family="Times,serif" font-size="14.00">breached</text>
</g>
<!-- s24&#45;&gt;s0 -->
<g id="edge1" class="edge">
<title>s24&#45;&gt;s0</title>
<path fill="none" stroke="black" d="M1955.63,-766.56C1874.32,-764.46 1549.08,-754.8 1509,-733.74 1501.44,-729.77 1504.21,-723.32 1497,-718.74 1463.04,-697.19 1416.36,-689.6 1386.68,-686.92"/>
<polygon fill="black" stroke="black" points="1386.81,-683.42 1376.57,-686.14 1386.27,-690.4 1386.81,-683.42"/>
<text text-anchor="middle" x="1584.5" y="-722.54" font-family="Times,serif" font-size="14.00">notify_borrower_of_default</text>
</g>
<!-- s24&#45;&gt;s6 -->
<g id="edge4" class="edge">
<title>s24&#45;&gt;s6</title>
<path fill="none" stroke="black" d="M1992.31,-765.15C2036.42,-760.5 2147.52,-747.73 2182,-733.74 2205.65,-724.15 2212.28,-720.03 2229,-700.74 2272.75,-650.26 2279.3,-631.11 2297,-566.69 2314.6,-502.67 2269.22,-472.24 2307,-417.63 2338.12,-372.65 2386.65,-410.74 2419,-366.63 2434.1,-346.04 2426,-335.14 2426,-309.61 2426,-309.61 2426,-309.61 2426,-182.32 2426,-97.3 1748.2,-99.03 1598.87,-100.45"/>
<polygon fill="black" stroke="black" points="1598.64,-96.95 1588.67,-100.55 1598.71,-103.95 1598.64,-96.95"/>
<text text-anchor="middle" x="2408" y="-430.2" font-family="Times,serif" font-size="14.00">pay(Normal, Borrower, Lender, 525)</text>
</g>
<!-- s24&#45;&gt;s17 -->
<g id="edge3" class="edge">
<title>s24&#45;&gt;s17</title>
<path fill="none" stroke="black" d="M1955.81,-764.7C1900.44,-756.59 1733.62,-723.84 1667,-617.22 1623.87,-548.18 1762.01,-538.62 1765,-533.69 1772.5,-521.33 1772.9,-513.27 1765,-501.16 1754.12,-484.5 1734.88,-499.82 1724,-483.16 1719.6,-476.43 1718.5,-467.96 1718.84,-460.01"/>
<polygon fill="black" stroke="black" points="1722.33,-460.37 1719.97,-450.04 1715.37,-459.58 1722.33,-460.37"/>
<text text-anchor="middle" x="1804" y="-597.25" font-family="Times,serif" font-size="14.00">payment_default(Normal, Borrower, Lender, 525)</text>
</g>
<!-- s24&#45;&gt;s18 -->
<g id="edge2" class="edge">
<title>s24&#45;&gt;s18</title>
<path fill="none" stroke="black" d="M1991.93,-762.88C2019.15,-755.56 2070.14,-737.48 2093,-700.74 2106.74,-678.66 2105.97,-648.14 2103.06,-626.89"/>
<polygon fill="black" stroke="black" points="2106.51,-626.31 2101.45,-617 2099.6,-627.43 2106.51,-626.31"/>
<text text-anchor="middle" x="2163" y="-680.78" font-family="Times,serif" font-size="14.00">dont_notify_borrower</text>
</g>
</g>
</svg>
