<?xml version="1.0" encoding="UTF-8" standalone="no"?>
<!DOCTYPE svg PUBLIC "-//W3C//DTD SVG 1.1//EN"
 "http://www.w3.org/Graphics/SVG/1.1/DTD/svg11.dtd">
<!-- Generated by graphviz version 5.0.1 (0)
 -->
<!-- Title: G Pages: 1 -->
<svg width="2646pt" height="1134pt"
 viewBox="0.00 0.00 2646.00 1134.38" xmlns="http://www.w3.org/2000/svg" xmlns:xlink="http://www.w3.org/1999/xlink">
<g id="graph0" class="graph" transform="scale(1 1) rotate(0) translate(4 1130.38)">
<title>G</title>
<polygon fill="white" stroke="none" points="-4,4 -4,-1130.38 2642,-1130.38 2642,4 -4,4"/>
<!-- s4 -->
<g id="node1" class="node">
<title>s4</title>
<ellipse fill="none" stroke="black" cx="1586" cy="-1106.11" rx="18.29" ry="16.08"/>
<ellipse fill="none" stroke="black" cx="1586" cy="-1106.11" rx="22.27" ry="20.03"/>
<text text-anchor="middle" x="1586" y="-1102.41" font-family="Times,serif" font-size="14.00">[]</text>
</g>
<!-- s5 -->
<g id="node6" class="node">
<title>s5</title>
<ellipse fill="none" stroke="black" cx="663" cy="-1018.59" rx="18.27" ry="16.03"/>
<text text-anchor="middle" x="663" y="-1014.89" font-family="Times,serif" font-size="14.00">[]</text>
</g>
<!-- s4&#45;&gt;s5 -->
<g id="edge70" class="edge">
<title>s4&#45;&gt;s5</title>
<path fill="none" stroke="black" d="M1563.64,-1103.04C1439,-1091.49 830.57,-1035.11 691.39,-1022.22"/>
<polygon fill="black" stroke="black" points="691.42,-1018.7 681.14,-1021.27 690.77,-1025.67 691.42,-1018.7"/>
<text text-anchor="middle" x="1226" y="-1056.65" font-family="Times,serif" font-size="14.00">request_principal</text>
</g>
<!-- s6 -->
<g id="node7" class="node">
<title>s6</title>
<ellipse fill="none" stroke="black" cx="1570" cy="-99.79" rx="18.27" ry="16.03"/>
<text text-anchor="middle" x="1570" y="-96.09" font-family="Times,serif" font-size="14.00">[]</text>
</g>
<!-- s4&#45;&gt;s6 -->
<g id="edge69" class="edge">
<title>s4&#45;&gt;s6</title>
<path fill="none" stroke="black" d="M1608.46,-1104.25C1750.02,-1098.69 2513,-1066.51 2513,-1019.59 2513,-1019.59 2513,-1019.59 2513,-182.32 2513,-111.86 2431.37,-146.37 2362,-134.05 2210.9,-107.23 1721.99,-101.9 1598.53,-100.97"/>
<polygon fill="black" stroke="black" points="1598.39,-97.47 1588.36,-100.9 1598.34,-104.47 1598.39,-97.47"/>
<text text-anchor="middle" x="2575.5" y="-597.25" font-family="Times,serif" font-size="14.00">dont_request_principal</text>
</g>
<!-- s0 -->
<g id="node2" class="node">
<title>s0</title>
<ellipse fill="none" stroke="black" cx="1357" cy="-684.48" rx="18.27" ry="16.03"/>
<text text-anchor="middle" x="1357" y="-680.78" font-family="Times,serif" font-size="14.00">[]</text>
</g>
<!-- s2 -->
<g id="node4" class="node">
<title>s2</title>
<ellipse fill="none" stroke="black" cx="1570" cy="-183.32" rx="18.27" ry="16.03"/>
<text text-anchor="middle" x="1570" y="-179.62" font-family="Times,serif" font-size="14.00">[]</text>
</g>
<!-- s0&#45;&gt;s2 -->
<g id="edge13" class="edge">
<title>s0&#45;&gt;s2</title>
<path fill="none" stroke="black" d="M1352.29,-668.62C1347.57,-652.41 1341,-625.61 1341,-601.95 1341,-601.95 1341,-601.95 1341,-474.66 1341,-449.31 1323.95,-437.26 1340,-417.63 1365.55,-386.4 1395.82,-422.6 1429,-399.63 1448.62,-386.05 1529.12,-237 1543,-217.58 1546.11,-213.23 1549.6,-208.7 1553.02,-204.43"/>
<polygon fill="black" stroke="black" points="1555.75,-206.63 1559.37,-196.67 1550.33,-202.19 1555.75,-206.63"/>
<text text-anchor="middle" x="1389.5" y="-430.2" font-family="Times,serif" font-size="14.00">dont_cure_default</text>
</g>
<!-- s0&#45;&gt;s6 -->
<g id="edge16" class="edge">
<title>s0&#45;&gt;s6</title>
<path fill="none" stroke="black" d="M1350.51,-669.05C1348.01,-663.25 1345.23,-656.47 1343,-650.22 1327.68,-607.22 1332,-593.63 1314,-551.69 1283.2,-479.94 1246.25,-475.04 1226,-399.63 1220.44,-378.92 1226,-372.82 1226,-351.37 1226,-351.37 1226,-351.37 1226,-182.32 1226,-117.7 1458.69,-104.23 1541.32,-101.48"/>
<polygon fill="black" stroke="black" points="1541.62,-104.97 1551.51,-101.17 1541.4,-97.97 1541.62,-104.97"/>
<text text-anchor="middle" x="1327" y="-388.43" font-family="Times,serif" font-size="14.00">pay(Normal, Borrower, Lender, 525)</text>
</g>
<!-- s19 -->
<g id="node20" class="node">
<title>s19</title>
<ellipse fill="none" stroke="black" cx="2098" cy="-600.95" rx="18.27" ry="16.03"/>
<text text-anchor="middle" x="2098" y="-597.25" font-family="Times,serif" font-size="14.00">[]</text>
</g>
<!-- s0&#45;&gt;s19 -->
<g id="edge14" class="edge">
<title>s0&#45;&gt;s19</title>
<path fill="none" stroke="black" d="M1375.42,-682.39C1472.08,-676.58 1921.36,-648.31 2057,-617.22 2062.01,-616.07 2067.24,-614.46 2072.22,-612.71"/>
<polygon fill="black" stroke="black" points="2073.82,-615.85 2081.94,-609.04 2071.35,-609.3 2073.82,-615.85"/>
<text text-anchor="middle" x="1975" y="-639.02" font-family="Times,serif" font-size="14.00">cure_default</text>
</g>
<!-- s22 -->
<g id="node23" class="node">
<title>s22</title>
<ellipse fill="none" stroke="black" cx="1537" cy="-350.37" rx="18.27" ry="16.03"/>
<text text-anchor="middle" x="1537" y="-346.67" font-family="Times,serif" font-size="14.00">[]</text>
</g>
<!-- s0&#45;&gt;s22 -->
<g id="edge15" class="edge">
<title>s0&#45;&gt;s22</title>
<path fill="none" stroke="black" d="M1375.07,-681.03C1411.65,-674.96 1491,-655.6 1491,-601.95 1491,-601.95 1491,-601.95 1491,-432.9 1491,-409.45 1505.61,-386.54 1518.36,-371"/>
<polygon fill="black" stroke="black" points="1521.25,-373.02 1525.15,-363.18 1515.96,-368.44 1521.25,-373.02"/>
<text text-anchor="middle" x="1628" y="-513.72" font-family="Times,serif" font-size="14.00">payment_default(Normal, Borrower, Lender, 525)</text>
</g>
<!-- s1 -->
<g id="node3" class="node">
<title>s1</title>
<ellipse fill="none" stroke="black" cx="1109" cy="-16.26" rx="18.27" ry="16.03"/>
<text text-anchor="middle" x="1109" y="-12.56" font-family="Times,serif" font-size="14.00">[]</text>
</g>
<!-- s2&#45;&gt;s6 -->
<g id="edge74" class="edge">
<title>s2&#45;&gt;s6</title>
<path fill="none" stroke="black" d="M1570,-166.98C1570,-155.48 1570,-139.48 1570,-126.1"/>
<polygon fill="black" stroke="black" points="1573.5,-126.06 1570,-116.06 1566.5,-126.06 1573.5,-126.06"/>
<text text-anchor="middle" x="1682.5" y="-137.85" font-family="Times,serif" font-size="14.00">pay(Accelerated, Borrower, Lender, 525)</text>
</g>
<!-- s11 -->
<g id="node12" class="node">
<title>s11</title>
<ellipse fill="none" stroke="black" cx="675" cy="-99.79" rx="18.27" ry="16.03"/>
<text text-anchor="middle" x="675" y="-96.09" font-family="Times,serif" font-size="14.00">[]</text>
</g>
<!-- s2&#45;&gt;s11 -->
<g id="edge73" class="edge">
<title>s2&#45;&gt;s11</title>
<path fill="none" stroke="black" d="M1551.72,-180.65C1439.24,-170.41 841.43,-115.95 703.43,-103.38"/>
<polygon fill="black" stroke="black" points="703.53,-99.87 693.25,-102.45 702.9,-106.85 703.53,-99.87"/>
<text text-anchor="middle" x="1350.5" y="-137.85" font-family="Times,serif" font-size="14.00">payment_default(Accelerated, Borrower, Lender, 525)</text>
</g>
<!-- s3 -->
<g id="node5" class="node">
<title>s3</title>
<ellipse fill="none" stroke="black" cx="982" cy="-350.37" rx="18.27" ry="16.03"/>
<text text-anchor="middle" x="982" y="-346.67" font-family="Times,serif" font-size="14.00">[]</text>
</g>
<!-- s3&#45;&gt;s6 -->
<g id="edge72" class="edge">
<title>s3&#45;&gt;s6</title>
<path fill="none" stroke="black" d="M978.02,-334.14C972.04,-307.56 964.03,-252.25 990,-217.58 1057.43,-127.57 1433.88,-106.09 1541.35,-101.76"/>
<polygon fill="black" stroke="black" points="1541.59,-105.26 1551.45,-101.38 1541.32,-98.26 1541.59,-105.26"/>
<text text-anchor="middle" x="1106" y="-221.38" font-family="Times,serif" font-size="14.00">pay(Accelerated, Borrower, Lender, 1075)</text>
</g>
<!-- s3&#45;&gt;s11 -->
<g id="edge71" class="edge">
<title>s3&#45;&gt;s11</title>
<path fill="none" stroke="black" d="M963.4,-348.9C908.3,-346.39 745.55,-330.63 677,-232.58 655.03,-201.15 660.97,-154.39 667.69,-125.84"/>
<polygon fill="black" stroke="black" points="671.15,-126.42 670.25,-115.86 664.37,-124.68 671.15,-126.42"/>
<text text-anchor="middle" x="829" y="-221.38" font-family="Times,serif" font-size="14.00">payment_default(Accelerated, Borrower, Lender, 1075)</text>
</g>
<!-- s7 -->
<g id="node8" class="node">
<title>s7</title>
<ellipse fill="none" stroke="black" cx="663" cy="-935.06" rx="18.27" ry="16.03"/>
<text text-anchor="middle" x="663" y="-931.36" font-family="Times,serif" font-size="14.00">[]</text>
</g>
<!-- s5&#45;&gt;s7 -->
<g id="edge68" class="edge">
<title>s5&#45;&gt;s7</title>
<path fill="none" stroke="black" d="M663,-1002.25C663,-990.75 663,-974.75 663,-961.37"/>
<polygon fill="black" stroke="black" points="666.5,-961.33 663,-951.33 659.5,-961.33 666.5,-961.33"/>
<text text-anchor="middle" x="771" y="-973.12" font-family="Times,serif" font-size="14.00">pay(Principal, Lender, Borrower, 1000)</text>
</g>
<!-- s5&#45;&gt;s11 -->
<g id="edge67" class="edge">
<title>s5&#45;&gt;s11</title>
<path fill="none" stroke="black" d="M644.58,-1017.31C537.5,-1015.47 0,-1002.89 0,-936.06 0,-936.06 0,-936.06 0,-182.32 0,-116.15 517.79,-103.35 646.37,-101.19"/>
<polygon fill="black" stroke="black" points="646.65,-104.68 656.6,-101.03 646.54,-97.69 646.65,-104.68"/>
<text text-anchor="middle" x="144" y="-555.49" font-family="Times,serif" font-size="14.00">payment_default(Principal, Lender, Borrower, 1000)</text>
</g>
<!-- s6&#45;&gt;s1 -->
<g id="edge66" class="edge">
<title>s6&#45;&gt;s1</title>
<path fill="none" stroke="black" d="M1552.21,-95.64C1481.91,-83.21 1223.13,-37.45 1137.05,-22.22"/>
<polygon fill="black" stroke="black" points="1137.44,-18.74 1126.98,-20.44 1136.22,-25.63 1137.44,-18.74"/>
<text text-anchor="middle" x="1402" y="-54.33" font-family="Times,serif" font-size="14.00">fulfilled</text>
</g>
<!-- s8 -->
<g id="node9" class="node">
<title>s8</title>
<ellipse fill="none" stroke="black" cx="792" cy="-851.53" rx="18.27" ry="16.03"/>
<text text-anchor="middle" x="792" y="-847.83" font-family="Times,serif" font-size="14.00">[]</text>
</g>
<!-- s7&#45;&gt;s8 -->
<g id="edge61" class="edge">
<title>s7&#45;&gt;s8</title>
<path fill="none" stroke="black" d="M681.72,-934.71C708.59,-934.54 757.75,-929.93 784,-900.8 789.53,-894.65 792.02,-886.2 792.97,-878.09"/>
<polygon fill="black" stroke="black" points="796.48,-878 793.46,-867.84 789.48,-877.66 796.48,-878"/>
<text text-anchor="middle" x="838" y="-889.6" font-family="Times,serif" font-size="14.00">borrower_default</text>
</g>
<!-- s15 -->
<g id="node16" class="node">
<title>s15</title>
<ellipse fill="none" stroke="black" cx="517" cy="-600.95" rx="18.27" ry="16.03"/>
<text text-anchor="middle" x="517" y="-597.25" font-family="Times,serif" font-size="14.00">[]</text>
</g>
<!-- s7&#45;&gt;s15 -->
<g id="edge59" class="edge">
<title>s7&#45;&gt;s15</title>
<path fill="none" stroke="black" d="M644.38,-933.49C600.64,-931.05 495,-918.34 495,-852.53 495,-852.53 495,-852.53 495,-725.24 495,-698.92 495.92,-689.79 511,-668.22 518.85,-656.99 529.76,-662.4 536,-650.22 540.4,-641.62 537.78,-631.76 533.25,-623.2"/>
<polygon fill="black" stroke="black" points="536.11,-621.16 527.83,-614.55 530.17,-624.88 536.11,-621.16"/>
<text text-anchor="middle" x="632" y="-764.31" font-family="Times,serif" font-size="14.00">payment_default(Normal, Borrower, Lender, 550)</text>
</g>
<!-- s7&#45;&gt;s19 -->
<g id="edge60" class="edge">
<title>s7&#45;&gt;s19</title>
<path fill="none" stroke="black" d="M681.23,-932.21C729.81,-927.28 866.42,-913.31 980,-900.8 1258.31,-870.12 2062.54,-929.49 2224,-700.74 2254.48,-657.57 2170.19,-624.03 2124.79,-609.63"/>
<polygon fill="black" stroke="black" points="2125.81,-606.29 2115.23,-606.7 2123.76,-612.98 2125.81,-606.29"/>
<text text-anchor="middle" x="2268" y="-764.31" font-family="Times,serif" font-size="14.00">pay(Normal, Borrower, Lender, 550)</text>
</g>
<!-- s8&#45;&gt;s7 -->
<g id="edge65" class="edge">
<title>s8&#45;&gt;s7</title>
<path fill="none" stroke="black" d="M773.89,-854.5C741.68,-858.41 676.53,-868.34 663,-885.8 658,-892.24 656.81,-900.77 657.24,-908.85"/>
<polygon fill="black" stroke="black" points="653.81,-909.56 658.57,-919.02 660.75,-908.65 653.81,-909.56"/>
<text text-anchor="middle" x="723" y="-889.6" font-family="Times,serif" font-size="14.00">dont_notify_borrower</text>
</g>
<!-- s10 -->
<g id="node11" class="node">
<title>s10</title>
<ellipse fill="none" stroke="black" cx="1144" cy="-768.01" rx="18.27" ry="16.03"/>
<text text-anchor="middle" x="1144" y="-764.31" font-family="Times,serif" font-size="14.00">[]</text>
</g>
<!-- s8&#45;&gt;s10 -->
<g id="edge62" class="edge">
<title>s8&#45;&gt;s10</title>
<path fill="none" stroke="black" d="M796.95,-835.62C801.45,-823.03 808.24,-806.4 814,-802.27 861.97,-767.89 1044.69,-767.24 1115.62,-768.35"/>
<polygon fill="black" stroke="black" points="1115.56,-771.85 1125.62,-768.53 1115.69,-764.85 1115.56,-771.85"/>
<text text-anchor="middle" x="889.5" y="-806.07" font-family="Times,serif" font-size="14.00">notify_borrower_of_default</text>
</g>
<!-- s16 -->
<g id="node17" class="node">
<title>s16</title>
<ellipse fill="none" stroke="black" cx="630" cy="-517.42" rx="18.27" ry="16.03"/>
<text text-anchor="middle" x="630" y="-513.72" font-family="Times,serif" font-size="14.00">[]</text>
</g>
<!-- s8&#45;&gt;s16 -->
<g id="edge64" class="edge">
<title>s8&#45;&gt;s16</title>
<path fill="none" stroke="black" d="M792.25,-835.05C792.32,-810.33 790.94,-763.51 780,-751.74 759.87,-730.11 537.78,-723.55 519,-700.74 509.81,-689.58 509.35,-678.98 519,-668.22 543.47,-640.91 655.5,-674.46 683,-650.22 716.52,-620.67 727.17,-589.27 703,-551.69 693.11,-536.31 674.17,-527.96 658.07,-523.47"/>
<polygon fill="black" stroke="black" points="658.55,-519.99 648.01,-521.04 656.91,-526.79 658.55,-519.99"/>
<text text-anchor="middle" x="656" y="-680.78" font-family="Times,serif" font-size="14.00">payment_default(Normal, Borrower, Lender, 550)</text>
</g>
<!-- s24 -->
<g id="node25" class="node">
<title>s24</title>
<ellipse fill="none" stroke="black" cx="1969" cy="-768.01" rx="18.27" ry="16.03"/>
<text text-anchor="middle" x="1969" y="-764.31" font-family="Times,serif" font-size="14.00">[]</text>
</g>
<!-- s8&#45;&gt;s24 -->
<g id="edge63" class="edge">
<title>s8&#45;&gt;s24</title>
<path fill="none" stroke="black" d="M810.49,-849.25C945.14,-839.92 1774.47,-782.48 1940.2,-771"/>
<polygon fill="black" stroke="black" points="1940.82,-774.47 1950.55,-770.28 1940.33,-767.48 1940.82,-774.47"/>
<text text-anchor="middle" x="1586" y="-806.07" font-family="Times,serif" font-size="14.00">pay(Normal, Borrower, Lender, 550)</text>
</g>
<!-- s9 -->
<g id="node10" class="node">
<title>s9</title>
<ellipse fill="none" stroke="black" cx="1983" cy="-433.9" rx="18.27" ry="16.03"/>
<text text-anchor="middle" x="1983" y="-430.2" font-family="Times,serif" font-size="14.00">[]</text>
</g>
<!-- s9&#45;&gt;s2 -->
<g id="edge43" class="edge">
<title>s9&#45;&gt;s2</title>
<path fill="none" stroke="black" d="M2001.57,-432.81C2039.24,-431.8 2119.64,-424.98 2102,-384.63 2066.83,-304.22 2035.72,-289.38 1957,-250.58 1833.92,-189.93 1665.13,-183.69 1598.6,-183.79"/>
<polygon fill="black" stroke="black" points="1598.45,-180.29 1588.47,-183.86 1598.49,-187.29 1598.45,-180.29"/>
<text text-anchor="middle" x="2109.5" y="-304.91" font-family="Times,serif" font-size="14.00">dont_cure_default</text>
</g>
<!-- s9&#45;&gt;s19 -->
<g id="edge45" class="edge">
<title>s9&#45;&gt;s19</title>
<path fill="none" stroke="black" d="M2001.42,-436.47C2037.37,-439.94 2114.95,-449.43 2133,-468.16 2153.54,-489.48 2125.65,-511.28 2145,-533.69 2161.26,-552.52 2183.51,-531.47 2198,-551.69 2217.88,-579.43 2162.44,-591.88 2126.35,-596.93"/>
<polygon fill="black" stroke="black" points="2125.8,-593.47 2116.32,-598.21 2126.69,-600.41 2125.8,-593.47"/>
<text text-anchor="middle" x="2179" y="-513.72" font-family="Times,serif" font-size="14.00">cure_default</text>
</g>
<!-- s21 -->
<g id="node22" class="node">
<title>s21</title>
<ellipse fill="none" stroke="black" cx="1880" cy="-350.37" rx="18.27" ry="16.03"/>
<text text-anchor="middle" x="1880" y="-346.67" font-family="Times,serif" font-size="14.00">[]</text>
</g>
<!-- s9&#45;&gt;s21 -->
<g id="edge44" class="edge">
<title>s9&#45;&gt;s21</title>
<path fill="none" stroke="black" d="M1964.4,-433C1940.38,-432 1899.35,-426.22 1880,-399.63 1875.2,-393.04 1874.05,-384.48 1874.47,-376.41"/>
<polygon fill="black" stroke="black" points="1877.97,-376.64 1875.75,-366.28 1871.02,-375.76 1877.97,-376.64"/>
<text text-anchor="middle" x="1927" y="-388.43" font-family="Times,serif" font-size="14.00">borrower_default</text>
</g>
<!-- s10&#45;&gt;s0 -->
<g id="edge57" class="edge">
<title>s10&#45;&gt;s0</title>
<path fill="none" stroke="black" d="M1162.53,-766.03C1189.5,-763.85 1240.22,-756.75 1276,-733.74 1283.18,-729.12 1281.32,-724.06 1288,-718.74 1300.81,-708.54 1317.25,-700.46 1330.88,-694.82"/>
<polygon fill="black" stroke="black" points="1332.18,-698.06 1340.21,-691.14 1329.62,-691.55 1332.18,-698.06"/>
<text text-anchor="middle" x="1389" y="-722.54" font-family="Times,serif" font-size="14.00">pay(Normal, Borrower, Lender, 550)</text>
</g>
<!-- s10&#45;&gt;s3 -->
<g id="edge56" class="edge">
<title>s10&#45;&gt;s3</title>
<path fill="none" stroke="black" d="M1162.3,-764.64C1192.75,-760.27 1251.7,-749.92 1264,-733.74 1268.04,-728.44 1264.98,-725.34 1264,-718.74 1253.67,-648.9 1234.1,-635.43 1218,-566.69 1211.27,-537.94 1220.5,-527.43 1207,-501.16 1173.6,-436.17 1153.61,-422.33 1091,-384.63 1065.83,-369.48 1033.19,-360.72 1010.21,-356.03"/>
<polygon fill="black" stroke="black" points="1010.57,-352.53 1000.09,-354.1 1009.26,-359.41 1010.57,-352.53"/>
<text text-anchor="middle" x="1267.5" y="-555.49" font-family="Times,serif" font-size="14.00">dont_cure_default</text>
</g>
<!-- s10&#45;&gt;s7 -->
<g id="edge58" class="edge">
<title>s10&#45;&gt;s7</title>
<path fill="none" stroke="black" d="M1157.57,-779.38C1169.05,-789.43 1182.27,-804.92 1173,-817.27 1093.26,-923.52 1015.77,-872.37 886,-900.8 816.88,-915.94 734.19,-926.28 691.55,-931.05"/>
<polygon fill="black" stroke="black" points="690.92,-927.6 681.36,-932.17 691.69,-934.56 690.92,-927.6"/>
<text text-anchor="middle" x="1191" y="-847.83" font-family="Times,serif" font-size="14.00">cure_default</text>
</g>
<!-- s13 -->
<g id="node14" class="node">
<title>s13</title>
<ellipse fill="none" stroke="black" cx="1016" cy="-684.48" rx="18.27" ry="16.03"/>
<text text-anchor="middle" x="1016" y="-680.78" font-family="Times,serif" font-size="14.00">[]</text>
</g>
<!-- s10&#45;&gt;s13 -->
<g id="edge55" class="edge">
<title>s10&#45;&gt;s13</title>
<path fill="none" stroke="black" d="M1125.49,-766.23C1065.4,-763.52 878.63,-753.57 861,-733.74 856.57,-728.76 856.61,-723.76 861,-718.74 879.05,-698.08 952.92,-709.34 992.97,-699.36"/>
<polygon fill="black" stroke="black" points="994.17,-702.65 1002.6,-696.23 992.01,-695.99 994.17,-702.65"/>
<text text-anchor="middle" x="998" y="-722.54" font-family="Times,serif" font-size="14.00">payment_default(Normal, Borrower, Lender, 550)</text>
</g>
<!-- s11&#45;&gt;s1 -->
<g id="edge39" class="edge">
<title>s11&#45;&gt;s1</title>
<path fill="none" stroke="black" d="M692.82,-95.44C760.14,-82.8 999.27,-37.88 1081.21,-22.48"/>
<polygon fill="black" stroke="black" points="1082.09,-25.88 1091.27,-20.59 1080.79,-19 1082.09,-25.88"/>
<text text-anchor="middle" x="954.5" y="-54.33" font-family="Times,serif" font-size="14.00">breached</text>
</g>
<!-- s12 -->
<g id="node13" class="node">
<title>s12</title>
<ellipse fill="none" stroke="black" cx="1883" cy="-517.42" rx="18.27" ry="16.03"/>
<text text-anchor="middle" x="1883" y="-513.72" font-family="Times,serif" font-size="14.00">[]</text>
</g>
<!-- s12&#45;&gt;s9 -->
<g id="edge52" class="edge">
<title>s12&#45;&gt;s9</title>
<path fill="none" stroke="black" d="M1901.29,-515.16C1922.43,-512.65 1956.64,-505.22 1975,-483.16 1980.21,-476.9 1982.64,-468.55 1983.64,-460.56"/>
<polygon fill="black" stroke="black" points="1987.14,-460.66 1984.25,-450.47 1980.15,-460.24 1987.14,-460.66"/>
<text text-anchor="middle" x="2056.5" y="-471.96" font-family="Times,serif" font-size="14.00">notify_borrower_of_default</text>
</g>
<!-- s18 -->
<g id="node19" class="node">
<title>s18</title>
<ellipse fill="none" stroke="black" cx="1724" cy="-433.9" rx="18.27" ry="16.03"/>
<text text-anchor="middle" x="1724" y="-430.2" font-family="Times,serif" font-size="14.00">[]</text>
</g>
<!-- s12&#45;&gt;s18 -->
<g id="edge53" class="edge">
<title>s12&#45;&gt;s18</title>
<path fill="none" stroke="black" d="M1864.85,-514.42C1830.59,-510.28 1758.22,-499.78 1740,-483.16 1736.28,-479.77 1732.7,-469.83 1729.88,-459.84"/>
<polygon fill="black" stroke="black" points="1733.24,-458.87 1727.32,-450.08 1726.47,-460.64 1733.24,-458.87"/>
<text text-anchor="middle" x="1787" y="-471.96" font-family="Times,serif" font-size="14.00">borrower_default</text>
</g>
<!-- s12&#45;&gt;s19 -->
<g id="edge54" class="edge">
<title>s12&#45;&gt;s19</title>
<path fill="none" stroke="black" d="M1864.77,-521.34C1832.55,-527.21 1770.97,-542.02 1794,-566.69 1813.99,-588.1 2028.37,-578.51 2057,-584.69 2062.03,-585.77 2067.26,-587.35 2072.24,-589.08"/>
<polygon fill="black" stroke="black" points="2071.37,-592.5 2081.96,-592.76 2073.85,-585.95 2071.37,-592.5"/>
<text text-anchor="middle" x="1854" y="-555.49" font-family="Times,serif" font-size="14.00">dont_notify_borrower</text>
</g>
<!-- s13&#45;&gt;s3 -->
<g id="edge35" class="edge">
<title>s13&#45;&gt;s3</title>
<path fill="none" stroke="black" d="M1034.42,-681.62C1054.13,-678.59 1084.74,-670.7 1101,-650.22 1114.48,-633.24 1108,-623.63 1108,-601.95 1108,-601.95 1108,-601.95 1108,-432.9 1108,-386.66 1047.44,-365.35 1010.29,-356.62"/>
<polygon fill="black" stroke="black" points="1010.57,-353.1 1000.05,-354.4 1009.08,-359.94 1010.57,-353.1"/>
<text text-anchor="middle" x="1157.5" y="-513.72" font-family="Times,serif" font-size="14.00">dont_cure_default</text>
</g>
<!-- s13&#45;&gt;s10 -->
<g id="edge38" class="edge">
<title>s13&#45;&gt;s10</title>
<path fill="none" stroke="black" d="M1034.57,-684.88C1061.23,-685.12 1109.98,-689.8 1136,-718.74 1141.53,-724.89 1144.01,-733.34 1144.96,-741.45"/>
<polygon fill="black" stroke="black" points="1141.48,-741.89 1145.46,-751.7 1148.47,-741.55 1141.48,-741.89"/>
<text text-anchor="middle" x="1203" y="-722.54" font-family="Times,serif" font-size="14.00">dont_notify_borrower</text>
</g>
<!-- s13&#45;&gt;s15 -->
<g id="edge37" class="edge">
<title>s13&#45;&gt;s15</title>
<path fill="none" stroke="black" d="M1002.6,-672.73C999.88,-670.98 996.94,-669.37 994,-668.22 993.67,-668.09 647.83,-620.1 545.31,-605.88"/>
<polygon fill="black" stroke="black" points="545.49,-602.37 535.1,-604.46 544.53,-609.3 545.49,-602.37"/>
<text text-anchor="middle" x="886" y="-639.02" font-family="Times,serif" font-size="14.00">cure_default</text>
</g>
<!-- s17 -->
<g id="node18" class="node">
<title>s17</title>
<ellipse fill="none" stroke="black" cx="982" cy="-600.95" rx="18.27" ry="16.03"/>
<text text-anchor="middle" x="982" y="-597.25" font-family="Times,serif" font-size="14.00">[]</text>
</g>
<!-- s13&#45;&gt;s17 -->
<g id="edge36" class="edge">
<title>s13&#45;&gt;s17</title>
<path fill="none" stroke="black" d="M1002.3,-673.37C999.6,-671.56 996.76,-669.76 994,-668.22 976.63,-658.5 963.88,-666.88 953,-650.22 946.49,-640.24 952.75,-628.82 961.1,-619.6"/>
<polygon fill="black" stroke="black" points="963.69,-621.96 968.36,-612.45 958.78,-616.97 963.69,-621.96"/>
<text text-anchor="middle" x="1028.5" y="-639.02" font-family="Times,serif" font-size="14.00">notify_borrower_of_default</text>
</g>
<!-- s14 -->
<g id="node15" class="node">
<title>s14</title>
<ellipse fill="none" stroke="black" cx="308" cy="-517.42" rx="18.27" ry="16.03"/>
<text text-anchor="middle" x="308" y="-513.72" font-family="Times,serif" font-size="14.00">[]</text>
</g>
<!-- s14&#45;&gt;s3 -->
<g id="edge46" class="edge">
<title>s14&#45;&gt;s3</title>
<path fill="none" stroke="black" d="M302.16,-501.99C298.99,-491.62 297,-477.83 304,-468.16 346.26,-409.82 387.72,-433.45 458,-417.63 644.26,-375.71 874.16,-358.15 953.5,-353.05"/>
<polygon fill="black" stroke="black" points="953.92,-356.53 963.68,-352.42 953.48,-349.55 953.92,-356.53"/>
<text text-anchor="middle" x="507.5" y="-430.2" font-family="Times,serif" font-size="14.00">dont_cure_default</text>
</g>
<!-- s14&#45;&gt;s7 -->
<g id="edge48" class="edge">
<title>s14&#45;&gt;s7</title>
<path fill="none" stroke="black" d="M304.4,-533.65C300.86,-549.96 296,-576.63 296,-599.95 296,-852.53 296,-852.53 296,-852.53 296,-921.77 548.1,-932.24 634.42,-933.8"/>
<polygon fill="black" stroke="black" points="634.5,-937.3 644.55,-933.95 634.6,-930.3 634.5,-937.3"/>
<text text-anchor="middle" x="330" y="-722.54" font-family="Times,serif" font-size="14.00">cure_default</text>
</g>
<!-- s23 -->
<g id="node24" class="node">
<title>s23</title>
<ellipse fill="none" stroke="black" cx="577" cy="-433.9" rx="18.27" ry="16.03"/>
<text text-anchor="middle" x="577" y="-430.2" font-family="Times,serif" font-size="14.00">[]</text>
</g>
<!-- s14&#45;&gt;s23 -->
<g id="edge47" class="edge">
<title>s14&#45;&gt;s23</title>
<path fill="none" stroke="black" d="M326.25,-514.93C351.28,-512.15 396.79,-504.36 429,-483.16 436.13,-478.47 433.8,-472.75 441,-468.16 473.89,-447.18 518.99,-439.43 548.07,-436.57"/>
<polygon fill="black" stroke="black" points="548.7,-440.03 558.37,-435.7 548.11,-433.05 548.7,-440.03"/>
<text text-anchor="middle" x="488" y="-471.96" font-family="Times,serif" font-size="14.00">borrower_default</text>
</g>
<!-- s15&#45;&gt;s7 -->
<g id="edge51" class="edge">
<title>s15&#45;&gt;s7</title>
<path fill="none" stroke="black" d="M501.23,-609.89C456.91,-633.35 336.58,-705.7 370,-784.27 399.22,-852.97 424.74,-866.4 491,-900.8 537.36,-924.86 598.92,-931.61 634.43,-933.44"/>
<polygon fill="black" stroke="black" points="634.43,-936.94 644.57,-933.87 634.72,-929.95 634.43,-936.94"/>
<text text-anchor="middle" x="430" y="-764.31" font-family="Times,serif" font-size="14.00">dont_notify_borrower</text>
</g>
<!-- s15&#45;&gt;s14 -->
<g id="edge49" class="edge">
<title>s15&#45;&gt;s14</title>
<path fill="none" stroke="black" d="M498.65,-599.14C455.67,-596.89 350.09,-589.15 324,-566.69 317.25,-560.87 313.33,-552.14 311.07,-543.69"/>
<polygon fill="black" stroke="black" points="314.47,-542.85 309.04,-533.75 307.61,-544.25 314.47,-542.85"/>
<text text-anchor="middle" x="399.5" y="-555.49" font-family="Times,serif" font-size="14.00">notify_borrower_of_default</text>
</g>
<!-- s15&#45;&gt;s16 -->
<g id="edge50" class="edge">
<title>s15&#45;&gt;s16</title>
<path fill="none" stroke="black" d="M502.1,-591.37C487.18,-581.68 467.91,-565.49 479,-551.69 494.1,-532.91 562.29,-524.11 601.68,-520.53"/>
<polygon fill="black" stroke="black" points="602.05,-524.01 611.72,-519.67 601.46,-517.03 602.05,-524.01"/>
<text text-anchor="middle" x="526" y="-555.49" font-family="Times,serif" font-size="14.00">borrower_default</text>
</g>
<!-- s16&#45;&gt;s8 -->
<g id="edge26" class="edge">
<title>s16&#45;&gt;s8</title>
<path fill="none" stroke="black" d="M648.35,-519.63C686.34,-522.51 771.67,-531.17 791,-551.69 805.86,-567.47 798,-578.28 798,-599.95 798,-769.01 798,-769.01 798,-769.01 798,-787.8 796.39,-808.97 794.84,-825.02"/>
<polygon fill="black" stroke="black" points="791.34,-824.93 793.8,-835.23 798.3,-825.64 791.34,-824.93"/>
<text text-anchor="middle" x="858" y="-680.78" font-family="Times,serif" font-size="14.00">dont_notify_borrower</text>
</g>
<!-- s16&#45;&gt;s13 -->
<g id="edge24" class="edge">
<title>s16&#45;&gt;s13</title>
<path fill="none" stroke="black" d="M648.39,-519.35C688.34,-521.76 781.14,-529.66 802,-551.69 822.21,-573.03 791.67,-595.07 811,-617.22 864.47,-678.46 913.78,-635.76 993.15,-668.87"/>
<polygon fill="black" stroke="black" points="991.9,-672.15 1002.46,-673.05 994.77,-665.76 991.9,-672.15"/>
<text text-anchor="middle" x="886.5" y="-597.25" font-family="Times,serif" font-size="14.00">notify_borrower_of_default</text>
</g>
<!-- s16&#45;&gt;s15 -->
<g id="edge27" class="edge">
<title>s16&#45;&gt;s15</title>
<path fill="none" stroke="black" d="M615.81,-527.79C606.82,-534.05 595.2,-542.74 586,-551.69 579.88,-557.64 580.46,-561.11 574,-566.69 564.44,-574.94 552.54,-582.26 542.09,-587.91"/>
<polygon fill="black" stroke="black" points="540.28,-584.91 533.01,-592.61 543.5,-591.12 540.28,-584.91"/>
<text text-anchor="middle" x="646" y="-555.49" font-family="Times,serif" font-size="14.00">dont_notify_borrower</text>
</g>
<!-- s16&#45;&gt;s23 -->
<g id="edge25" class="edge">
<title>s16&#45;&gt;s23</title>
<path fill="none" stroke="black" d="M621.25,-502.96C613.12,-490.45 600.86,-471.6 591.3,-456.9"/>
<polygon fill="black" stroke="black" points="594.15,-454.86 585.76,-448.38 588.28,-458.67 594.15,-454.86"/>
<text text-anchor="middle" x="684.5" y="-471.96" font-family="Times,serif" font-size="14.00">notify_borrower_of_default</text>
</g>
<!-- s17&#45;&gt;s3 -->
<g id="edge28" class="edge">
<title>s17&#45;&gt;s3</title>
<path fill="none" stroke="black" d="M982,-584.4C982,-542.81 982,-428.69 982,-377.19"/>
<polygon fill="black" stroke="black" points="985.5,-376.92 982,-366.92 978.5,-376.92 985.5,-376.92"/>
<text text-anchor="middle" x="1031.5" y="-471.96" font-family="Times,serif" font-size="14.00">dont_cure_default</text>
</g>
<!-- s17&#45;&gt;s10 -->
<g id="edge30" class="edge">
<title>s17&#45;&gt;s10</title>
<path fill="none" stroke="black" d="M969.43,-613.38C962.98,-619.54 955.19,-627.46 949,-635.22 938.15,-648.8 935.29,-652.43 928,-668.22 921.66,-681.95 928.78,-690.13 918,-700.74 897.55,-720.87 873.23,-695.8 856,-718.74 852,-724.07 851.56,-728.77 856,-733.74 873.08,-752.91 1045.96,-762.66 1115.38,-765.82"/>
<polygon fill="black" stroke="black" points="1115.44,-769.33 1125.59,-766.27 1115.75,-762.34 1115.44,-769.33"/>
<text text-anchor="middle" x="962" y="-680.78" font-family="Times,serif" font-size="14.00">cure_default</text>
</g>
<!-- s17&#45;&gt;s14 -->
<g id="edge29" class="edge">
<title>s17&#45;&gt;s14</title>
<path fill="none" stroke="black" d="M968.64,-589.08C965.92,-587.34 962.97,-585.76 960,-584.69 871.88,-552.92 841.61,-586.27 750,-566.69 730.21,-562.46 726.8,-555.9 707,-551.69 570.46,-522.67 402.61,-518.71 336.59,-518.35"/>
<polygon fill="black" stroke="black" points="336.54,-514.85 326.53,-518.32 336.52,-521.85 336.54,-514.85"/>
<text text-anchor="middle" x="784" y="-555.49" font-family="Times,serif" font-size="14.00">cure_default</text>
</g>
<!-- s18&#45;&gt;s12 -->
<g id="edge7" class="edge">
<title>s18&#45;&gt;s12</title>
<path fill="none" stroke="black" d="M1742.34,-436.98C1765.6,-440.35 1806.15,-448.69 1835,-468.16 1842.08,-472.94 1841.18,-476.91 1847,-483.16 1851.91,-488.43 1857.51,-493.86 1862.8,-498.75"/>
<polygon fill="black" stroke="black" points="1860.47,-501.36 1870.23,-505.47 1865.16,-496.17 1860.47,-501.36"/>
<text text-anchor="middle" x="1907" y="-471.96" font-family="Times,serif" font-size="14.00">dont_notify_borrower</text>
</g>
<!-- s18&#45;&gt;s21 -->
<g id="edge5" class="edge">
<title>s18&#45;&gt;s21</title>
<path fill="none" stroke="black" d="M1718.7,-418.21C1715.93,-407.72 1714.5,-393.88 1722,-384.63 1730.14,-374.6 1808.51,-361.77 1851.73,-355.37"/>
<polygon fill="black" stroke="black" points="1852.5,-358.79 1861.89,-353.89 1851.49,-351.87 1852.5,-358.79"/>
<text text-anchor="middle" x="1797.5" y="-388.43" font-family="Times,serif" font-size="14.00">notify_borrower_of_default</text>
</g>
<!-- s18&#45;&gt;s22 -->
<g id="edge6" class="edge">
<title>s18&#45;&gt;s22</title>
<path fill="none" stroke="black" d="M1705.44,-432.23C1663.62,-430.32 1563.92,-423.33 1542,-399.63 1536.37,-393.55 1534.33,-385.01 1533.95,-376.8"/>
<polygon fill="black" stroke="black" points="1537.45,-376.88 1534.22,-366.79 1530.45,-376.69 1537.45,-376.88"/>
<text text-anchor="middle" x="1617.5" y="-388.43" font-family="Times,serif" font-size="14.00">notify_borrower_of_default</text>
</g>
<!-- s18&#45;&gt;s24 -->
<g id="edge8" class="edge">
<title>s18&#45;&gt;s24</title>
<path fill="none" stroke="black" d="M1724.19,-450.26C1725.05,-460.54 1727.68,-473.83 1735,-483.16 1746.05,-497.23 1759.65,-487.34 1771,-501.16 1790.17,-524.5 1766.21,-546.87 1789,-566.69 1836.01,-607.56 1881.96,-542.72 1928,-584.69 1928.37,-585.02 1952.23,-691.84 1963.38,-741.79"/>
<polygon fill="black" stroke="black" points="1960.02,-742.81 1965.61,-751.81 1966.85,-741.29 1960.02,-742.81"/>
<text text-anchor="middle" x="1995" y="-597.25" font-family="Times,serif" font-size="14.00">dont_notify_borrower</text>
</g>
<!-- s19&#45;&gt;s6 -->
<g id="edge42" class="edge">
<title>s19&#45;&gt;s6</title>
<path fill="none" stroke="black" d="M2116.41,-599.67C2140.33,-598.24 2181.66,-591.99 2204,-566.69 2210.06,-559.83 2217,-492.48 2217,-476.66 2217,-476.66 2217,-476.66 2217,-182.32 2217,-119.13 1724.9,-104.15 1599.04,-101.35"/>
<polygon fill="black" stroke="black" points="1598.74,-97.84 1588.67,-101.13 1598.59,-104.84 1598.74,-97.84"/>
<text text-anchor="middle" x="2318" y="-346.67" font-family="Times,serif" font-size="14.00">pay(Normal, Borrower, Lender, 525)</text>
</g>
<!-- s19&#45;&gt;s12 -->
<g id="edge41" class="edge">
<title>s19&#45;&gt;s12</title>
<path fill="none" stroke="black" d="M2081.9,-593.03C2074.44,-590.06 2065.4,-586.81 2057,-584.69 2000.44,-570.43 1977.71,-595.51 1927,-566.69 1919.58,-562.47 1920.63,-558.1 1915,-551.69 1910.87,-546.98 1906.28,-542.05 1901.89,-537.47"/>
<polygon fill="black" stroke="black" points="1904.3,-534.92 1894.82,-530.19 1899.28,-539.8 1904.3,-534.92"/>
<text text-anchor="middle" x="2064" y="-555.49" font-family="Times,serif" font-size="14.00">payment_default(Normal, Borrower, Lender, 525)</text>
</g>
<!-- s19&#45;&gt;s24 -->
<g id="edge40" class="edge">
<title>s19&#45;&gt;s24</title>
<path fill="none" stroke="black" d="M2081.56,-608.51C2059.31,-618.23 2019.88,-638.55 1998,-668.22 1982.02,-689.87 1974.81,-720.23 1971.58,-741.56"/>
<polygon fill="black" stroke="black" points="1968.1,-741.14 1970.25,-751.51 1975.04,-742.06 1968.1,-741.14"/>
<text text-anchor="middle" x="2045" y="-680.78" font-family="Times,serif" font-size="14.00">borrower_default</text>
</g>
<!-- s20 -->
<g id="node21" class="node">
<title>s20</title>
<ellipse fill="none" stroke="black" cx="1658" cy="-266.84" rx="18.27" ry="16.03"/>
<text text-anchor="middle" x="1658" y="-263.14" font-family="Times,serif" font-size="14.00">[]</text>
</g>
<!-- s20&#45;&gt;s0 -->
<g id="edge21" class="edge">
<title>s20&#45;&gt;s0</title>
<path fill="none" stroke="black" d="M1644.55,-278.47C1641.83,-280.23 1638.91,-281.88 1636,-283.11 1596.79,-299.59 1578.52,-279.3 1542,-301.11 1486.51,-334.25 1484.69,-360.22 1455,-417.63 1447.69,-431.78 1452.36,-440.13 1440,-450.16 1412.03,-472.84 1384.3,-440.7 1361,-468.16 1337.34,-496.05 1347.51,-607.07 1353.62,-657.87"/>
<polygon fill="black" stroke="black" points="1350.17,-658.53 1354.88,-668.02 1357.12,-657.66 1350.17,-658.53"/>
<text text-anchor="middle" x="1395" y="-471.96" font-family="Times,serif" font-size="14.00">cure_default</text>
</g>
<!-- s20&#45;&gt;s2 -->
<g id="edge22" class="edge">
<title>s20&#45;&gt;s2</title>
<path fill="none" stroke="black" d="M1645.76,-254.51C1631.32,-241.12 1607.08,-218.67 1589.92,-202.77"/>
<polygon fill="black" stroke="black" points="1591.85,-199.79 1582.13,-195.56 1587.09,-204.92 1591.85,-199.79"/>
<text text-anchor="middle" x="1670.5" y="-221.38" font-family="Times,serif" font-size="14.00">dont_cure_default</text>
</g>
<!-- s20&#45;&gt;s9 -->
<g id="edge23" class="edge">
<title>s20&#45;&gt;s9</title>
<path fill="none" stroke="black" d="M1673.66,-275.86C1683.16,-281.57 1694.64,-290.17 1701,-301.11 1723.24,-339.34 1683.14,-368.95 1715,-399.63 1742.84,-426.45 1849.68,-412.57 1888,-417.63 1910.67,-420.63 1936.26,-424.79 1955.16,-428.01"/>
<polygon fill="black" stroke="black" points="1954.74,-431.48 1965.18,-429.73 1955.92,-424.59 1954.74,-431.48"/>
<text text-anchor="middle" x="1741" y="-346.67" font-family="Times,serif" font-size="14.00">cure_default</text>
</g>
<!-- s21&#45;&gt;s2 -->
<g id="edge18" class="edge">
<title>s21&#45;&gt;s2</title>
<path fill="none" stroke="black" d="M1880.77,-333.72C1880.5,-323.57 1878.66,-310.54 1872,-301.11 1827.76,-238.46 1792.75,-244.67 1721,-217.58 1679.67,-201.97 1629.06,-192.68 1598.2,-188.04"/>
<polygon fill="black" stroke="black" points="1598.55,-184.56 1588.15,-186.59 1597.55,-191.48 1598.55,-184.56"/>
<text text-anchor="middle" x="1906.5" y="-263.14" font-family="Times,serif" font-size="14.00">dont_cure_default</text>
</g>
<!-- s21&#45;&gt;s9 -->
<g id="edge20" class="edge">
<title>s21&#45;&gt;s9</title>
<path fill="none" stroke="black" d="M1898.49,-352.41C1920.26,-354.69 1955.88,-361.9 1975,-384.63 1980.24,-390.87 1982.68,-399.21 1983.68,-407.21"/>
<polygon fill="black" stroke="black" points="1980.19,-407.53 1984.28,-417.31 1987.18,-407.12 1980.19,-407.53"/>
<text text-anchor="middle" x="2041" y="-388.43" font-family="Times,serif" font-size="14.00">dont_notify_borrower</text>
</g>
<!-- s21&#45;&gt;s20 -->
<g id="edge19" class="edge">
<title>s21&#45;&gt;s20</title>
<path fill="none" stroke="black" d="M1861.84,-347.06C1825.87,-342.23 1747.03,-330.33 1724,-316.11 1716.74,-311.62 1718.4,-306.76 1712,-301.11 1703.12,-293.26 1692.17,-286.13 1682.45,-280.5"/>
<polygon fill="black" stroke="black" points="1684.06,-277.4 1673.62,-275.6 1680.66,-283.51 1684.06,-277.4"/>
<text text-anchor="middle" x="1799.5" y="-304.91" font-family="Times,serif" font-size="14.00">notify_borrower_of_default</text>
</g>
<!-- s21&#45;&gt;s24 -->
<g id="edge17" class="edge">
<title>s21&#45;&gt;s24</title>
<path fill="none" stroke="black" d="M1898.71,-351.52C1970.99,-353.15 2228,-369.32 2228,-516.42 2228,-685.48 2228,-685.48 2228,-685.48 2228,-733.37 2064.84,-756.6 1997.52,-764.14"/>
<polygon fill="black" stroke="black" points="1996.78,-760.7 1987.21,-765.26 1997.53,-767.66 1996.78,-760.7"/>
<text text-anchor="middle" x="2262" y="-555.49" font-family="Times,serif" font-size="14.00">cure_default</text>
</g>
<!-- s22&#45;&gt;s0 -->
<g id="edge12" class="edge">
<title>s22&#45;&gt;s0</title>
<path fill="none" stroke="black" d="M1521.13,-359.3C1510.5,-365.2 1496.73,-374.04 1487,-384.63 1452.77,-421.89 1470.6,-452.99 1430,-483.16 1406.28,-500.79 1384.42,-478.06 1366,-501.16 1356.47,-513.12 1356.19,-610.64 1356.64,-657.94"/>
<polygon fill="black" stroke="black" points="1353.14,-658.05 1356.75,-668.01 1360.14,-657.97 1353.14,-658.05"/>
<text text-anchor="middle" x="1426" y="-513.72" font-family="Times,serif" font-size="14.00">dont_notify_borrower</text>
</g>
<!-- s22&#45;&gt;s2 -->
<g id="edge9" class="edge">
<title>s22&#45;&gt;s2</title>
<path fill="none" stroke="black" d="M1535.37,-334.07C1533.72,-314.44 1532.27,-279.48 1539,-250.58 1542.58,-235.2 1550,-219.14 1556.67,-206.67"/>
<polygon fill="black" stroke="black" points="1559.74,-208.36 1561.56,-197.92 1553.63,-204.94 1559.74,-208.36"/>
<text text-anchor="middle" x="1588.5" y="-263.14" font-family="Times,serif" font-size="14.00">dont_cure_default</text>
</g>
<!-- s22&#45;&gt;s12 -->
<g id="edge10" class="edge">
<title>s22&#45;&gt;s12</title>
<path fill="none" stroke="black" d="M1555.69,-351.89C1585.85,-353.48 1646.28,-359.78 1690,-384.63 1697.93,-389.14 1696.17,-394.95 1704,-399.63 1741.67,-422.18 1852.54,-439.01 1895,-450.16 1925.65,-458.21 1944.62,-443.08 1964,-468.16 1980.83,-489.95 1940.59,-503.94 1911,-510.97"/>
<polygon fill="black" stroke="black" points="1910.1,-507.59 1901.09,-513.17 1911.61,-514.42 1910.1,-507.59"/>
<text text-anchor="middle" x="1929" y="-430.2" font-family="Times,serif" font-size="14.00">cure_default</text>
</g>
<!-- s22&#45;&gt;s20 -->
<g id="edge11" class="edge">
<title>s22&#45;&gt;s20</title>
<path fill="none" stroke="black" d="M1538.22,-333.71C1539.88,-323.03 1543.81,-309.37 1553,-301.11 1578.88,-277.85 1598.16,-294.96 1634.82,-282.31"/>
<polygon fill="black" stroke="black" points="1636.55,-285.39 1644.52,-278.41 1633.94,-278.89 1636.55,-285.39"/>
<text text-anchor="middle" x="1628.5" y="-304.91" font-family="Times,serif" font-size="14.00">notify_borrower_of_default</text>
</g>
<!-- s23&#45;&gt;s3 -->
<g id="edge32" class="edge">
<title>s23&#45;&gt;s3</title>
<path fill="none" stroke="black" d="M594.66,-429.34C658.35,-416.52 876.54,-372.6 954.24,-356.96"/>
<polygon fill="black" stroke="black" points="955.13,-360.35 964.24,-354.95 953.75,-353.49 955.13,-360.35"/>
<text text-anchor="middle" x="864.5" y="-388.43" font-family="Times,serif" font-size="14.00">dont_cure_default</text>
</g>
<!-- s23&#45;&gt;s8 -->
<g id="edge33" class="edge">
<title>s23&#45;&gt;s8</title>
<path fill="none" stroke="black" d="M565.56,-447C539.92,-474.25 479.75,-539.02 475,-551.69 451.02,-615.59 467.36,-649.1 512,-700.74 535.82,-728.29 551.77,-724.5 587,-733.74 626.31,-744.05 738.45,-724.93 769,-751.74 779.88,-761.29 786.27,-799.3 789.45,-825.29"/>
<polygon fill="black" stroke="black" points="785.97,-825.7 790.59,-835.24 792.93,-824.91 785.97,-825.7"/>
<text text-anchor="middle" x="510" y="-639.02" font-family="Times,serif" font-size="14.00">cure_default</text>
</g>
<!-- s23&#45;&gt;s14 -->
<g id="edge34" class="edge">
<title>s23&#45;&gt;s14</title>
<path fill="none" stroke="black" d="M558.63,-436.57C500,-441.98 320.58,-459.21 312,-468.16 306.19,-474.22 304.3,-482.9 304.16,-491.22"/>
<polygon fill="black" stroke="black" points="300.68,-491.59 304.76,-501.36 307.67,-491.18 300.68,-491.59"/>
<text text-anchor="middle" x="372" y="-471.96" font-family="Times,serif" font-size="14.00">dont_notify_borrower</text>
</g>
<!-- s23&#45;&gt;s17 -->
<g id="edge31" class="edge">
<title>s23&#45;&gt;s17</title>
<path fill="none" stroke="black" d="M595.39,-434.7C629.86,-435.05 705.73,-439.36 761,-468.16 797.66,-487.26 792.29,-511.24 827,-533.69 877.57,-566.38 901.63,-556.25 959.21,-584.99"/>
<polygon fill="black" stroke="black" points="957.87,-588.24 968.35,-589.74 961.09,-582.02 957.87,-588.24"/>
<text text-anchor="middle" x="902.5" y="-513.72" font-family="Times,serif" font-size="14.00">notify_borrower_of_default</text>
</g>
<!-- s24&#45;&gt;s0 -->
<g id="edge1" class="edge">
<title>s24&#45;&gt;s0</title>
<path fill="none" stroke="black" d="M1950.43,-766.57C1868.25,-764.51 1539.52,-755.01 1499,-733.74 1491.44,-729.77 1494.17,-723.37 1487,-718.74 1455.9,-698.66 1413.32,-690.69 1385.49,-687.54"/>
<polygon fill="black" stroke="black" points="1385.55,-684.03 1375.25,-686.52 1384.86,-690.99 1385.55,-684.03"/>
<text text-anchor="middle" x="1574.5" y="-722.54" font-family="Times,serif" font-size="14.00">notify_borrower_of_default</text>
</g>
<!-- s24&#45;&gt;s6 -->
<g id="edge4" class="edge">
<title>s24&#45;&gt;s6</title>
<path fill="none" stroke="black" d="M1987.27,-765.3C2032.45,-760.92 2148.33,-748.54 2184,-733.74 2206.91,-724.24 2212.95,-719.65 2229,-700.74 2272.23,-649.81 2279.3,-631.11 2297,-566.69 2314.6,-502.67 2269.22,-472.24 2307,-417.63 2338.12,-372.65 2386.65,-410.74 2419,-366.63 2434.1,-346.04 2426,-335.14 2426,-309.61 2426,-309.61 2426,-309.61 2426,-182.32 2426,-97.3 1748.2,-99.03 1598.87,-100.45"/>
<polygon fill="black" stroke="black" points="1598.64,-96.95 1588.67,-100.55 1598.71,-103.95 1598.64,-96.95"/>
<text text-anchor="middle" x="2408" y="-430.2" font-family="Times,serif" font-size="14.00">pay(Normal, Borrower, Lender, 525)</text>
</g>
<!-- s24&#45;&gt;s18 -->
<g id="edge3" class="edge">
<title>s24&#45;&gt;s18</title>
<path fill="none" stroke="black" d="M1950.93,-764.86C1895.09,-757.15 1725,-725.29 1657,-617.22 1611.61,-545.08 1755.42,-548.81 1765,-533.69 1772.74,-521.48 1772.9,-513.27 1765,-501.16 1754.12,-484.5 1734.88,-499.82 1724,-483.16 1719.6,-476.43 1718.5,-467.96 1718.84,-460.01"/>
<polygon fill="black" stroke="black" points="1722.33,-460.37 1719.97,-450.04 1715.37,-459.58 1722.33,-460.37"/>
<text text-anchor="middle" x="1794" y="-597.25" font-family="Times,serif" font-size="14.00">payment_default(Normal, Borrower, Lender, 525)</text>
</g>
<!-- s24&#45;&gt;s19 -->
<g id="edge2" class="edge">
<title>s24&#45;&gt;s19</title>
<path fill="none" stroke="black" d="M1986.74,-763.34C2014.83,-756.5 2068.81,-738.87 2093,-700.74 2106.93,-678.78 2106.13,-648.24 2103.15,-626.95"/>
<polygon fill="black" stroke="black" points="2106.6,-626.33 2101.52,-617.04 2099.69,-627.47 2106.6,-626.33"/>
<text text-anchor="middle" x="2163" y="-680.78" font-family="Times,serif" font-size="14.00">dont_notify_borrower</text>
</g>
</g>
</svg>
