<?xml version="1.0" encoding="UTF-8"?>
<!DOCTYPE svg PUBLIC "-//W3C//DTD SVG 1.1//EN"
    "http://www.w3.org/Graphics/SVG/1.1/DTD/svg11.dtd">
<svg height="200.0000" width="779.7101" xmlns:xlink="http://www.w3.org/1999/xlink" stroke-opacity="1" version="1.1" stroke="rgb(0,0,0)" xmlns="http://www.w3.org/2000/svg" font-size="1" viewBox="0.0 0.0 779.7101449275364 200.0">
  <defs>
  </defs>
  <g fill-opacity="0.0" stroke-miterlimit="10.0" stroke-opacity="1.0" stroke-linecap="butt" stroke-linejoin="miter" fill="rgb(0,0,0)" stroke-width="1.5795798377315773" stroke="rgb(0,0,0)">
    <path d="M 197.8261,147.1014 l 357.2111,-87.6178 "/>
  </g>
  <g fill-opacity="1.0" stroke-miterlimit="10.0" stroke-opacity="1.0" stroke-linecap="butt" stroke-linejoin="miter" fill="rgb(0,0,0)" stroke-width="0.0" stroke="rgb(0,0,0)">
  </g>
  <g fill-opacity="1.0" stroke-miterlimit="10.0" stroke-opacity="1.0" stroke-linecap="butt" stroke-linejoin="miter" fill="rgb(0,0,0)" stroke-width="0.0" stroke="rgb(0,0,0)">
  </g>
  <g fill-opacity="1.0" stroke-miterlimit="10.0" stroke-opacity="1.0" stroke-linecap="butt" stroke-linejoin="miter" fill="rgb(0,0,0)" stroke-width="0.0" stroke="rgb(0,0,0)">
    <path d="M 581.8841,52.8986 l -34.4329,-2.5397 l 7.9893,9.0259 l -2.9060,11.6983 Z"/>
  </g>
  <g fill-opacity="1.0" stroke-miterlimit="10.0" stroke-opacity="1.0" stroke-linecap="butt" stroke-linejoin="miter" fill="rgb(0,0,0)" stroke-width="0.0" stroke="rgb(0,0,0)">
    <path d="M 555.4405,59.3847 l -0.4033,0.0989 l -0.1881,-0.7671 l 0.5914,0.6681 l -0.4033,0.0989 l 0.1881,0.7671 Z"/>
  </g>
  <g fill-opacity="1.0" stroke-miterlimit="10.0" stroke-opacity="1.0" stroke-linecap="butt" stroke-linejoin="miter" fill="rgb(255,0,0)" stroke-width="0.0" stroke="rgb(0,0,0)">
    <path d="M 584.7826,52.8986 c 0.0000,-1.6008 -1.2977,-2.8986 -2.8986 -2.8986c -1.6008,-0.0000 -2.8986,1.2977 -2.8986 2.8986c -0.0000,1.6008 1.2977,2.8986 2.8986 2.8986c 1.6008,0.0000 2.8986,-1.2977 2.8986 -2.8986Z"/>
  </g>
  <g fill-opacity="1.0" stroke-miterlimit="10.0" stroke-opacity="1.0" stroke-linecap="butt" stroke-linejoin="miter" fill="rgb(0,0,255)" stroke-width="0.0" stroke="rgb(0,0,0)">
    <path d="M 200.7246,147.1014 c 0.0000,-1.6008 -1.2977,-2.8986 -2.8986 -2.8986c -1.6008,-0.0000 -2.8986,1.2977 -2.8986 2.8986c -0.0000,1.6008 1.2977,2.8986 2.8986 2.8986c 1.6008,0.0000 2.8986,-1.2977 2.8986 -2.8986Z"/>
  </g>
</svg>