<?xml version="1.0" encoding="UTF-8" standalone="no"?>
<!DOCTYPE svg PUBLIC "-//W3C//DTD SVG 1.1//EN"
 "http://www.w3.org/Graphics/SVG/1.1/DTD/svg11.dtd">
<!-- Generated by graphviz version 5.0.1 (0)
 -->
<!-- Title: G Pages: 1 -->
<svg width="2638pt" height="1051pt"
 viewBox="0.00 0.00 2638.00 1050.85" xmlns="http://www.w3.org/2000/svg" xmlns:xlink="http://www.w3.org/1999/xlink">
<g id="graph0" class="graph" transform="scale(1 1) rotate(0) translate(4 1046.85)">
<title>G</title>
<polygon fill="white" stroke="none" points="-4,4 -4,-1046.85 2634,-1046.85 2634,4 -4,4"/>
<!-- s3 -->
<g id="node1" class="node">
<title>s3</title>
<ellipse fill="none" stroke="black" cx="1589" cy="-1022.59" rx="18.29" ry="16.08"/>
<ellipse fill="none" stroke="black" cx="1589" cy="-1022.59" rx="22.27" ry="20.03"/>
<text text-anchor="middle" x="1589" y="-1018.89" font-family="Times,serif" font-size="14.00">[]</text>
</g>
<!-- s4 -->
<g id="node5" class="node">
<title>s4</title>
<ellipse fill="none" stroke="black" cx="655" cy="-935.06" rx="18.27" ry="16.03"/>
<text text-anchor="middle" x="655" y="-931.36" font-family="Times,serif" font-size="14.00">[]</text>
</g>
<!-- s3&#45;&gt;s4 -->
<g id="edge70" class="edge">
<title>s3&#45;&gt;s4</title>
<path fill="none" stroke="black" d="M1566.83,-1019.56C1441.64,-1008.09 823.67,-951.5 683.37,-938.66"/>
<polygon fill="black" stroke="black" points="683.67,-935.17 673.39,-937.74 683.03,-942.14 683.67,-935.17"/>
<text text-anchor="middle" x="1224" y="-973.12" font-family="Times,serif" font-size="14.00">request_principal</text>
</g>
<!-- s5 -->
<g id="node6" class="node">
<title>s5</title>
<ellipse fill="none" stroke="black" cx="2038" cy="-16.26" rx="18.27" ry="16.03"/>
<text text-anchor="middle" x="2038" y="-12.56" font-family="Times,serif" font-size="14.00">[]</text>
</g>
<!-- s3&#45;&gt;s5 -->
<g id="edge69" class="edge">
<title>s3&#45;&gt;s5</title>
<path fill="none" stroke="black" d="M1611.64,-1020.69C1752.7,-1014.99 2505,-982.38 2505,-936.06 2505,-936.06 2505,-936.06 2505,-98.79 2505,-39.65 2438.53,-64.24 2381,-50.53 2266.77,-23.31 2126.06,-18.27 2066.64,-17.41"/>
<polygon fill="black" stroke="black" points="2066.55,-13.9 2056.51,-17.29 2066.47,-20.9 2066.55,-13.9"/>
<text text-anchor="middle" x="2567.5" y="-513.72" font-family="Times,serif" font-size="14.00">dont_request_principal</text>
</g>
<!-- s0 -->
<g id="node2" class="node">
<title>s0</title>
<ellipse fill="none" stroke="black" cx="1341" cy="-600.95" rx="18.27" ry="16.03"/>
<text text-anchor="middle" x="1341" y="-597.25" font-family="Times,serif" font-size="14.00">[]</text>
</g>
<!-- s1 -->
<g id="node3" class="node">
<title>s1</title>
<ellipse fill="none" stroke="black" cx="1687" cy="-99.79" rx="18.27" ry="16.03"/>
<text text-anchor="middle" x="1687" y="-96.09" font-family="Times,serif" font-size="14.00">[]</text>
</g>
<!-- s0&#45;&gt;s1 -->
<g id="edge13" class="edge">
<title>s0&#45;&gt;s1</title>
<path fill="none" stroke="black" d="M1335.99,-585.12C1330.98,-568.93 1324,-542.14 1324,-518.42 1324,-518.42 1324,-518.42 1324,-391.13 1324,-365.79 1306.95,-353.73 1323,-334.11 1348.55,-302.87 1377.12,-336.41 1412,-316.11 1445.36,-296.69 1442.98,-279.09 1469,-250.58 1503.66,-212.62 1512.01,-202.75 1549,-167.05 1564.86,-151.75 1566.91,-145.06 1586,-134.05 1609.12,-120.72 1638.34,-111.84 1659.39,-106.63"/>
<polygon fill="black" stroke="black" points="1660.36,-110 1669.3,-104.3 1658.76,-103.18 1660.36,-110"/>
<text text-anchor="middle" x="1372.5" y="-346.67" font-family="Times,serif" font-size="14.00">dont_cure_default</text>
</g>
<!-- s0&#45;&gt;s5 -->
<g id="edge16" class="edge">
<title>s0&#45;&gt;s5</title>
<path fill="none" stroke="black" d="M1333.71,-585.66C1330.99,-579.88 1328.06,-573.08 1326,-566.69 1312.29,-524.16 1321.84,-509.94 1306,-468.16 1278.31,-395.15 1238.25,-391.52 1218,-316.11 1212.44,-295.39 1218,-289.29 1218,-267.84 1218,-267.84 1218,-267.84 1218,-98.79 1218,-17.57 1863.22,-16.29 2008.98,-17.04"/>
<polygon fill="black" stroke="black" points="2009.31,-20.54 2019.33,-17.1 2009.35,-13.54 2009.31,-20.54"/>
<text text-anchor="middle" x="1314.5" y="-304.91" font-family="Times,serif" font-size="14.00">pay(normal, borrower, lender, 525)</text>
</g>
<!-- s18 -->
<g id="node19" class="node">
<title>s18</title>
<ellipse fill="none" stroke="black" cx="2093" cy="-517.42" rx="18.27" ry="16.03"/>
<text text-anchor="middle" x="2093" y="-513.72" font-family="Times,serif" font-size="14.00">[]</text>
</g>
<!-- s0&#45;&gt;s18 -->
<g id="edge14" class="edge">
<title>s0&#45;&gt;s18</title>
<path fill="none" stroke="black" d="M1359.42,-598.92C1457.08,-593.33 1915.01,-565.8 2053,-533.69 2057.81,-532.57 2062.83,-531 2067.61,-529.29"/>
<polygon fill="black" stroke="black" points="2068.89,-532.55 2076.97,-525.69 2066.38,-526.02 2068.89,-532.55"/>
<text text-anchor="middle" x="1969" y="-555.49" font-family="Times,serif" font-size="14.00">cure_default</text>
</g>
<!-- s21 -->
<g id="node22" class="node">
<title>s21</title>
<ellipse fill="none" stroke="black" cx="1541" cy="-266.84" rx="18.27" ry="16.03"/>
<text text-anchor="middle" x="1541" y="-263.14" font-family="Times,serif" font-size="14.00">[]</text>
</g>
<!-- s0&#45;&gt;s21 -->
<g id="edge15" class="edge">
<title>s0&#45;&gt;s21</title>
<path fill="none" stroke="black" d="M1359.21,-597.41C1395.64,-591.2 1474,-571.64 1474,-518.42 1474,-518.42 1474,-518.42 1474,-349.37 1474,-320.96 1498.58,-297.06 1517.96,-282.63"/>
<polygon fill="black" stroke="black" points="1519.98,-285.48 1526.13,-276.86 1515.94,-279.77 1519.98,-285.48"/>
<text text-anchor="middle" x="1606.5" y="-430.2" font-family="Times,serif" font-size="14.00">payment_default(normal, borrower, lender, 525)</text>
</g>
<!-- s1&#45;&gt;s5 -->
<g id="edge74" class="edge">
<title>s1&#45;&gt;s5</title>
<path fill="none" stroke="black" d="M1704.89,-94.64C1762.16,-81.33 1941.28,-39.73 2010.4,-23.67"/>
<polygon fill="black" stroke="black" points="2011.2,-27.08 2020.15,-21.41 2009.61,-20.26 2011.2,-27.08"/>
<text text-anchor="middle" x="2000" y="-54.33" font-family="Times,serif" font-size="14.00">pay(accelerated, borrower, lender, 525)</text>
</g>
<!-- s10 -->
<g id="node11" class="node">
<title>s10</title>
<ellipse fill="none" stroke="black" cx="683" cy="-16.26" rx="18.27" ry="16.03"/>
<text text-anchor="middle" x="683" y="-12.56" font-family="Times,serif" font-size="14.00">[]</text>
</g>
<!-- s1&#45;&gt;s10 -->
<g id="edge73" class="edge">
<title>s1&#45;&gt;s10</title>
<path fill="none" stroke="black" d="M1668.72,-97.31C1547.5,-87.46 860.06,-31.64 711.36,-19.57"/>
<polygon fill="black" stroke="black" points="711.48,-16.06 701.23,-18.74 710.91,-23.04 711.48,-16.06"/>
<text text-anchor="middle" x="1417" y="-54.33" font-family="Times,serif" font-size="14.00">payment_default(accelerated, borrower, lender, 525)</text>
</g>
<!-- s2 -->
<g id="node4" class="node">
<title>s2</title>
<ellipse fill="none" stroke="black" cx="974" cy="-266.84" rx="18.27" ry="16.03"/>
<text text-anchor="middle" x="974" y="-263.14" font-family="Times,serif" font-size="14.00">[]</text>
</g>
<!-- s2&#45;&gt;s5 -->
<g id="edge72" class="edge">
<title>s2&#45;&gt;s5</title>
<path fill="none" stroke="black" d="M971.6,-250.49C968.33,-223.72 965.65,-168.13 993,-134.05 1058.72,-52.16 1111.11,-71.48 1214,-50.53 1370.94,-18.57 1882.92,-17.07 2009.5,-17.19"/>
<polygon fill="black" stroke="black" points="2009.56,-20.69 2019.57,-17.21 2009.57,-13.69 2009.56,-20.69"/>
<text text-anchor="middle" x="1103.5" y="-137.85" font-family="Times,serif" font-size="14.00">pay(accelerated, borrower, lender, 1075)</text>
</g>
<!-- s2&#45;&gt;s10 -->
<g id="edge71" class="edge">
<title>s2&#45;&gt;s10</title>
<path fill="none" stroke="black" d="M955.41,-264.62C903.33,-260.09 755.55,-239.46 691,-149.05 668.68,-117.79 672.15,-70.98 677.22,-42.38"/>
<polygon fill="black" stroke="black" points="680.69,-42.86 679.18,-32.37 673.82,-41.51 680.69,-42.86"/>
<text text-anchor="middle" x="837.5" y="-137.85" font-family="Times,serif" font-size="14.00">payment_default(accelerated, borrower, lender, 1075)</text>
</g>
<!-- s6 -->
<g id="node7" class="node">
<title>s6</title>
<ellipse fill="none" stroke="black" cx="655" cy="-851.53" rx="18.27" ry="16.03"/>
<text text-anchor="middle" x="655" y="-847.83" font-family="Times,serif" font-size="14.00">[]</text>
</g>
<!-- s4&#45;&gt;s6 -->
<g id="edge68" class="edge">
<title>s4&#45;&gt;s6</title>
<path fill="none" stroke="black" d="M655,-918.72C655,-907.22 655,-891.23 655,-877.84"/>
<polygon fill="black" stroke="black" points="658.5,-877.8 655,-867.8 651.5,-877.8 658.5,-877.8"/>
<text text-anchor="middle" x="759" y="-889.6" font-family="Times,serif" font-size="14.00">pay(principal, lender, borrower, 1000)</text>
</g>
<!-- s4&#45;&gt;s10 -->
<g id="edge67" class="edge">
<title>s4&#45;&gt;s10</title>
<path fill="none" stroke="black" d="M636.45,-933.75C529.86,-931.75 0,-918.5 0,-852.53 0,-852.53 0,-852.53 0,-98.79 0,-31.85 523.93,-19.63 654.03,-17.63"/>
<polygon fill="black" stroke="black" points="654.43,-21.12 664.38,-17.48 654.33,-14.12 654.43,-21.12"/>
<text text-anchor="middle" x="140" y="-471.96" font-family="Times,serif" font-size="14.00">payment_default(principal, lender, borrower, 1000)</text>
</g>
<!-- s5&#45;&gt;s5 -->
<g id="edge66" class="edge">
<title>s5&#45;&gt;s5</title>
<path fill="none" stroke="black" d="M2054.5,-23.5C2056.53,-23.05 2058.22,-22.01 2058.03,-18.88"/>
<polygon fill="black" stroke="black" points="2061.17,-17.26 2054.5,-9.03 2054.58,-19.62 2061.17,-17.26"/>
<text text-anchor="middle" x="2082.38" y="-12.56" font-family="Times,serif" font-size="14.00">fulfilled</text>
</g>
<!-- s7 -->
<g id="node8" class="node">
<title>s7</title>
<ellipse fill="none" stroke="black" cx="784" cy="-768.01" rx="18.27" ry="16.03"/>
<text text-anchor="middle" x="784" y="-764.31" font-family="Times,serif" font-size="14.00">[]</text>
</g>
<!-- s6&#45;&gt;s7 -->
<g id="edge61" class="edge">
<title>s6&#45;&gt;s7</title>
<path fill="none" stroke="black" d="M673.72,-851.18C700.59,-851.01 749.75,-846.4 776,-817.27 781.53,-811.13 784.02,-802.68 784.97,-794.56"/>
<polygon fill="black" stroke="black" points="788.48,-794.47 785.46,-784.31 781.48,-794.13 788.48,-794.47"/>
<text text-anchor="middle" x="830" y="-806.07" font-family="Times,serif" font-size="14.00">borrower_default</text>
</g>
<!-- s14 -->
<g id="node15" class="node">
<title>s14</title>
<ellipse fill="none" stroke="black" cx="509" cy="-517.42" rx="18.27" ry="16.03"/>
<text text-anchor="middle" x="509" y="-513.72" font-family="Times,serif" font-size="14.00">[]</text>
</g>
<!-- s6&#45;&gt;s14 -->
<g id="edge59" class="edge">
<title>s6&#45;&gt;s14</title>
<path fill="none" stroke="black" d="M636.45,-849.52C594.51,-846.13 496,-831.51 496,-769.01 496,-769.01 496,-769.01 496,-641.72 496,-615.39 499.38,-607.79 512,-584.69 517.13,-575.3 524.2,-576.69 528,-566.69 531.35,-557.88 528.79,-548.21 524.59,-539.86"/>
<polygon fill="black" stroke="black" points="527.49,-537.9 519.37,-531.1 521.48,-541.48 527.49,-537.9"/>
<text text-anchor="middle" x="628.5" y="-680.78" font-family="Times,serif" font-size="14.00">payment_default(normal, borrower, lender, 550)</text>
</g>
<!-- s6&#45;&gt;s18 -->
<g id="edge60" class="edge">
<title>s6&#45;&gt;s18</title>
<path fill="none" stroke="black" d="M673.32,-849.38C842.54,-838.54 2129.24,-751.84 2224,-617.22 2255.25,-572.82 2167.36,-539.77 2120.41,-525.78"/>
<polygon fill="black" stroke="black" points="2121.11,-522.34 2110.53,-522.94 2119.17,-529.07 2121.11,-522.34"/>
<text text-anchor="middle" x="2218.5" y="-680.78" font-family="Times,serif" font-size="14.00">pay(normal, borrower, lender, 550)</text>
</g>
<!-- s7&#45;&gt;s6 -->
<g id="edge65" class="edge">
<title>s7&#45;&gt;s6</title>
<path fill="none" stroke="black" d="M765.89,-770.97C733.68,-774.89 668.53,-784.81 655,-802.27 650,-808.72 648.81,-817.24 649.24,-825.33"/>
<polygon fill="black" stroke="black" points="645.81,-826.03 650.57,-835.5 652.75,-825.13 645.81,-826.03"/>
<text text-anchor="middle" x="715" y="-806.07" font-family="Times,serif" font-size="14.00">dont_notify_borrower</text>
</g>
<!-- s9 -->
<g id="node10" class="node">
<title>s9</title>
<ellipse fill="none" stroke="black" cx="1158" cy="-684.48" rx="18.27" ry="16.03"/>
<text text-anchor="middle" x="1158" y="-680.78" font-family="Times,serif" font-size="14.00">[]</text>
</g>
<!-- s7&#45;&gt;s9 -->
<g id="edge62" class="edge">
<title>s7&#45;&gt;s9</title>
<path fill="none" stroke="black" d="M788.94,-752.08C793.44,-739.48 800.22,-722.85 806,-718.74 832.09,-700.17 1049.55,-689.77 1129.04,-686.56"/>
<polygon fill="black" stroke="black" points="1129.46,-690.05 1139.31,-686.16 1129.18,-683.06 1129.46,-690.05"/>
<text text-anchor="middle" x="881.5" y="-722.54" font-family="Times,serif" font-size="14.00">notify_borrower_of_default</text>
</g>
<!-- s15 -->
<g id="node16" class="node">
<title>s15</title>
<ellipse fill="none" stroke="black" cx="622" cy="-433.9" rx="18.27" ry="16.03"/>
<text text-anchor="middle" x="622" y="-430.2" font-family="Times,serif" font-size="14.00">[]</text>
</g>
<!-- s7&#45;&gt;s15 -->
<g id="edge64" class="edge">
<title>s7&#45;&gt;s15</title>
<path fill="none" stroke="black" d="M784.08,-751.52C783.86,-726.8 781.97,-679.98 771,-668.22 751.59,-647.4 538.01,-639.25 520,-617.22 510.85,-606.02 510.39,-595.48 520,-584.69 543.06,-558.79 649.06,-589.7 675,-566.69 708.42,-537.03 719.17,-505.74 695,-468.16 685.11,-452.79 666.17,-444.43 650.07,-439.94"/>
<polygon fill="black" stroke="black" points="650.55,-436.46 640.01,-437.52 648.91,-443.27 650.55,-436.46"/>
<text text-anchor="middle" x="652.5" y="-597.25" font-family="Times,serif" font-size="14.00">payment_default(normal, borrower, lender, 550)</text>
</g>
<!-- s23 -->
<g id="node24" class="node">
<title>s23</title>
<ellipse fill="none" stroke="black" cx="1971" cy="-684.48" rx="18.27" ry="16.03"/>
<text text-anchor="middle" x="1971" y="-680.78" font-family="Times,serif" font-size="14.00">[]</text>
</g>
<!-- s7&#45;&gt;s23 -->
<g id="edge63" class="edge">
<title>s7&#45;&gt;s23</title>
<path fill="none" stroke="black" d="M802.64,-765.73C938.44,-756.4 1774.82,-698.95 1941.95,-687.47"/>
<polygon fill="black" stroke="black" points="1942.66,-690.93 1952.4,-686.76 1942.18,-683.95 1942.66,-690.93"/>
<text text-anchor="middle" x="1579.5" y="-722.54" font-family="Times,serif" font-size="14.00">pay(normal, borrower, lender, 550)</text>
</g>
<!-- s8 -->
<g id="node9" class="node">
<title>s8</title>
<ellipse fill="none" stroke="black" cx="1985" cy="-350.37" rx="18.27" ry="16.03"/>
<text text-anchor="middle" x="1985" y="-346.67" font-family="Times,serif" font-size="14.00">[]</text>
</g>
<!-- s8&#45;&gt;s1 -->
<g id="edge43" class="edge">
<title>s8&#45;&gt;s1</title>
<path fill="none" stroke="black" d="M2003.54,-349.4C2041.62,-348.63 2123.66,-342.26 2106,-301.11 2038.99,-144.94 1798.32,-110.14 1715.35,-102.72"/>
<polygon fill="black" stroke="black" points="1715.63,-99.23 1705.38,-101.89 1715.05,-106.2 1715.63,-99.23"/>
<text text-anchor="middle" x="2108.5" y="-221.38" font-family="Times,serif" font-size="14.00">dont_cure_default</text>
</g>
<!-- s8&#45;&gt;s18 -->
<g id="edge45" class="edge">
<title>s8&#45;&gt;s18</title>
<path fill="none" stroke="black" d="M2003.17,-352.9C2039.04,-356.3 2117.05,-365.73 2135,-384.63 2155.33,-406.05 2132.85,-423.72 2146,-450.16 2150.9,-460.01 2158.93,-457.94 2163,-468.16 2165.46,-474.36 2166.56,-477.53 2163,-483.16 2153.77,-497.76 2136.2,-506.08 2120.97,-510.75"/>
<polygon fill="black" stroke="black" points="2119.69,-507.47 2110.93,-513.43 2121.49,-514.24 2119.69,-507.47"/>
<text text-anchor="middle" x="2180" y="-430.2" font-family="Times,serif" font-size="14.00">cure_default</text>
</g>
<!-- s20 -->
<g id="node21" class="node">
<title>s20</title>
<ellipse fill="none" stroke="black" cx="1883" cy="-266.84" rx="18.27" ry="16.03"/>
<text text-anchor="middle" x="1883" y="-263.14" font-family="Times,serif" font-size="14.00">[]</text>
</g>
<!-- s8&#45;&gt;s20 -->
<g id="edge44" class="edge">
<title>s8&#45;&gt;s20</title>
<path fill="none" stroke="black" d="M1966.43,-349.27C1942.89,-348.02 1903.1,-341.94 1884,-316.11 1879.15,-309.55 1877.84,-301 1878.09,-292.92"/>
<polygon fill="black" stroke="black" points="1881.59,-293.09 1879.13,-282.78 1874.63,-292.37 1881.59,-293.09"/>
<text text-anchor="middle" x="1931" y="-304.91" font-family="Times,serif" font-size="14.00">borrower_default</text>
</g>
<!-- s9&#45;&gt;s0 -->
<g id="edge57" class="edge">
<title>s9&#45;&gt;s0</title>
<path fill="none" stroke="black" d="M1176.53,-682.51C1203.5,-680.32 1254.22,-673.22 1290,-650.22 1297.18,-645.6 1296.06,-641.35 1302,-635.22 1307.45,-629.59 1313.76,-623.9 1319.7,-618.86"/>
<polygon fill="black" stroke="black" points="1321.97,-621.52 1327.45,-612.45 1317.51,-616.13 1321.97,-621.52"/>
<text text-anchor="middle" x="1398.5" y="-639.02" font-family="Times,serif" font-size="14.00">pay(normal, borrower, lender, 550)</text>
</g>
<!-- s9&#45;&gt;s2 -->
<g id="edge56" class="edge">
<title>s9&#45;&gt;s2</title>
<path fill="none" stroke="black" d="M1176.3,-681.11C1206.75,-676.75 1265.7,-666.39 1278,-650.22 1282.04,-644.91 1279.39,-641.74 1278,-635.22 1262.55,-562.82 1231.41,-554.03 1210,-483.16 1201.46,-454.89 1212.5,-443.9 1199,-417.63 1165.6,-352.64 1145.61,-338.8 1083,-301.11 1057.83,-285.95 1025.19,-277.19 1002.21,-272.5"/>
<polygon fill="black" stroke="black" points="1002.57,-269 992.09,-270.57 1001.26,-275.88 1002.57,-269"/>
<text text-anchor="middle" x="1259.5" y="-471.96" font-family="Times,serif" font-size="14.00">dont_cure_default</text>
</g>
<!-- s9&#45;&gt;s6 -->
<g id="edge58" class="edge">
<title>s9&#45;&gt;s6</title>
<path fill="none" stroke="black" d="M1161.58,-700.51C1163.12,-710.9 1163.2,-724.47 1156,-733.74 1076.88,-835.65 1003.9,-789.12 878,-817.27 808.95,-832.71 726.23,-842.93 683.57,-847.6"/>
<polygon fill="black" stroke="black" points="682.94,-844.15 673.37,-848.7 683.69,-851.11 682.94,-844.15"/>
<text text-anchor="middle" x="1174" y="-764.31" font-family="Times,serif" font-size="14.00">cure_default</text>
</g>
<!-- s12 -->
<g id="node13" class="node">
<title>s12</title>
<ellipse fill="none" stroke="black" cx="1008" cy="-600.95" rx="18.27" ry="16.03"/>
<text text-anchor="middle" x="1008" y="-597.25" font-family="Times,serif" font-size="14.00">[]</text>
</g>
<!-- s9&#45;&gt;s12 -->
<g id="edge55" class="edge">
<title>s9&#45;&gt;s12</title>
<path fill="none" stroke="black" d="M1139.67,-682.64C1081.05,-679.76 901,-669.4 884,-650.22 879.58,-645.23 879.72,-640.32 884,-635.22 911.68,-602.22 939.59,-630.55 984.93,-616.21"/>
<polygon fill="black" stroke="black" points="986.42,-619.39 994.56,-612.61 983.97,-612.84 986.42,-619.39"/>
<text text-anchor="middle" x="1016.5" y="-639.02" font-family="Times,serif" font-size="14.00">payment_default(normal, borrower, lender, 550)</text>
</g>
<!-- s10&#45;&gt;s10 -->
<g id="edge39" class="edge">
<title>s10&#45;&gt;s10</title>
<path fill="none" stroke="black" d="M699.5,-23.5C701.53,-23.05 703.22,-22.01 703.03,-18.88"/>
<polygon fill="black" stroke="black" points="706.17,-17.26 699.5,-9.03 699.58,-19.62 706.17,-17.26"/>
<text text-anchor="middle" x="729.88" y="-12.56" font-family="Times,serif" font-size="14.00">breached</text>
</g>
<!-- s11 -->
<g id="node12" class="node">
<title>s11</title>
<ellipse fill="none" stroke="black" cx="1882" cy="-433.9" rx="18.27" ry="16.03"/>
<text text-anchor="middle" x="1882" y="-430.2" font-family="Times,serif" font-size="14.00">[]</text>
</g>
<!-- s11&#45;&gt;s8 -->
<g id="edge52" class="edge">
<title>s11&#45;&gt;s8</title>
<path fill="none" stroke="black" d="M1900.22,-431.73C1921.7,-429.33 1956.87,-422 1976,-399.63 1981.32,-393.42 1983.91,-385.08 1985.08,-377.09"/>
<polygon fill="black" stroke="black" points="1988.58,-377.23 1985.9,-366.98 1981.6,-376.67 1988.58,-377.23"/>
<text text-anchor="middle" x="2058.5" y="-388.43" font-family="Times,serif" font-size="14.00">notify_borrower_of_default</text>
</g>
<!-- s17 -->
<g id="node18" class="node">
<title>s17</title>
<ellipse fill="none" stroke="black" cx="1725" cy="-350.37" rx="18.27" ry="16.03"/>
<text text-anchor="middle" x="1725" y="-346.67" font-family="Times,serif" font-size="14.00">[]</text>
</g>
<!-- s11&#45;&gt;s17 -->
<g id="edge53" class="edge">
<title>s11&#45;&gt;s17</title>
<path fill="none" stroke="black" d="M1863.84,-430.82C1829.95,-426.61 1758.9,-416.02 1741,-399.63 1737.29,-396.24 1733.71,-386.3 1730.88,-376.31"/>
<polygon fill="black" stroke="black" points="1734.25,-375.34 1728.33,-366.55 1727.47,-377.11 1734.25,-375.34"/>
<text text-anchor="middle" x="1788" y="-388.43" font-family="Times,serif" font-size="14.00">borrower_default</text>
</g>
<!-- s11&#45;&gt;s18 -->
<g id="edge54" class="edge">
<title>s11&#45;&gt;s18</title>
<path fill="none" stroke="black" d="M1863.66,-436.38C1824.77,-440.15 1739.87,-452.13 1769,-483.16 1790.64,-506.22 2022.1,-494.45 2053,-501.16 2057.83,-502.21 2062.85,-503.74 2067.64,-505.44"/>
<polygon fill="black" stroke="black" points="2066.4,-508.72 2076.99,-509.05 2068.92,-502.18 2066.4,-508.72"/>
<text text-anchor="middle" x="1829" y="-471.96" font-family="Times,serif" font-size="14.00">dont_notify_borrower</text>
</g>
<!-- s12&#45;&gt;s2 -->
<g id="edge35" class="edge">
<title>s12&#45;&gt;s2</title>
<path fill="none" stroke="black" d="M1026.42,-598.09C1046.13,-595.07 1076.74,-587.17 1093,-566.69 1106.48,-549.71 1100,-540.1 1100,-518.42 1100,-518.42 1100,-518.42 1100,-349.37 1100,-303.13 1039.44,-281.82 1002.29,-273.1"/>
<polygon fill="black" stroke="black" points="1002.57,-269.58 992.05,-270.87 1001.08,-276.42 1002.57,-269.58"/>
<text text-anchor="middle" x="1149.5" y="-430.2" font-family="Times,serif" font-size="14.00">dont_cure_default</text>
</g>
<!-- s12&#45;&gt;s9 -->
<g id="edge38" class="edge">
<title>s12&#45;&gt;s9</title>
<path fill="none" stroke="black" d="M1026.27,-603.73C1060.7,-607.48 1133.26,-617.33 1150,-635.22 1155.71,-641.32 1158.22,-649.86 1159.13,-658.07"/>
<polygon fill="black" stroke="black" points="1155.64,-658.24 1159.57,-668.08 1162.63,-657.94 1155.64,-658.24"/>
<text text-anchor="middle" x="1217" y="-639.02" font-family="Times,serif" font-size="14.00">dont_notify_borrower</text>
</g>
<!-- s12&#45;&gt;s14 -->
<g id="edge37" class="edge">
<title>s12&#45;&gt;s14</title>
<path fill="none" stroke="black" d="M994.6,-589.21C991.88,-587.45 988.94,-585.84 986,-584.69 985.67,-584.56 639.83,-536.57 537.31,-522.35"/>
<polygon fill="black" stroke="black" points="537.49,-518.84 527.1,-520.94 536.53,-525.78 537.49,-518.84"/>
<text text-anchor="middle" x="878" y="-555.49" font-family="Times,serif" font-size="14.00">cure_default</text>
</g>
<!-- s16 -->
<g id="node17" class="node">
<title>s16</title>
<ellipse fill="none" stroke="black" cx="974" cy="-517.42" rx="18.27" ry="16.03"/>
<text text-anchor="middle" x="974" y="-513.72" font-family="Times,serif" font-size="14.00">[]</text>
</g>
<!-- s12&#45;&gt;s16 -->
<g id="edge36" class="edge">
<title>s12&#45;&gt;s16</title>
<path fill="none" stroke="black" d="M994.3,-589.84C991.6,-588.03 988.76,-586.23 986,-584.69 968.63,-574.97 955.88,-583.35 945,-566.69 938.49,-556.71 944.75,-545.3 953.1,-536.07"/>
<polygon fill="black" stroke="black" points="955.69,-538.43 960.36,-528.92 950.78,-533.44 955.69,-538.43"/>
<text text-anchor="middle" x="1020.5" y="-555.49" font-family="Times,serif" font-size="14.00">notify_borrower_of_default</text>
</g>
<!-- s13 -->
<g id="node14" class="node">
<title>s13</title>
<ellipse fill="none" stroke="black" cx="300" cy="-433.9" rx="18.27" ry="16.03"/>
<text text-anchor="middle" x="300" y="-430.2" font-family="Times,serif" font-size="14.00">[]</text>
</g>
<!-- s13&#45;&gt;s2 -->
<g id="edge46" class="edge">
<title>s13&#45;&gt;s2</title>
<path fill="none" stroke="black" d="M294.16,-418.46C290.99,-408.1 289,-394.3 296,-384.63 338.26,-326.3 379.72,-349.93 450,-334.11 636.26,-292.18 866.16,-274.62 945.5,-269.53"/>
<polygon fill="black" stroke="black" points="945.92,-273.01 955.68,-268.89 945.48,-266.02 945.92,-273.01"/>
<text text-anchor="middle" x="499.5" y="-346.67" font-family="Times,serif" font-size="14.00">dont_cure_default</text>
</g>
<!-- s13&#45;&gt;s6 -->
<g id="edge48" class="edge">
<title>s13&#45;&gt;s6</title>
<path fill="none" stroke="black" d="M296.4,-450.13C292.86,-466.43 288,-493.11 288,-516.42 288,-769.01 288,-769.01 288,-769.01 288,-838.25 540.1,-848.72 626.42,-850.27"/>
<polygon fill="black" stroke="black" points="626.5,-853.77 636.55,-850.43 626.6,-846.77 626.5,-853.77"/>
<text text-anchor="middle" x="322" y="-639.02" font-family="Times,serif" font-size="14.00">cure_default</text>
</g>
<!-- s22 -->
<g id="node23" class="node">
<title>s22</title>
<ellipse fill="none" stroke="black" cx="569" cy="-350.37" rx="18.27" ry="16.03"/>
<text text-anchor="middle" x="569" y="-346.67" font-family="Times,serif" font-size="14.00">[]</text>
</g>
<!-- s13&#45;&gt;s22 -->
<g id="edge47" class="edge">
<title>s13&#45;&gt;s22</title>
<path fill="none" stroke="black" d="M318.25,-431.41C343.28,-428.62 388.79,-420.84 421,-399.63 428.13,-394.94 425.8,-389.23 433,-384.63 465.89,-363.65 510.99,-355.9 540.07,-353.04"/>
<polygon fill="black" stroke="black" points="540.7,-356.5 550.37,-352.17 540.11,-349.53 540.7,-356.5"/>
<text text-anchor="middle" x="480" y="-388.43" font-family="Times,serif" font-size="14.00">borrower_default</text>
</g>
<!-- s14&#45;&gt;s6 -->
<g id="edge51" class="edge">
<title>s14&#45;&gt;s6</title>
<path fill="none" stroke="black" d="M490.86,-520.42C452.77,-525.72 368,-543.82 368,-599.95 368,-769.01 368,-769.01 368,-769.01 368,-822.34 553.71,-842.62 626.36,-848.52"/>
<polygon fill="black" stroke="black" points="626.37,-852.03 636.61,-849.31 626.91,-845.05 626.37,-852.03"/>
<text text-anchor="middle" x="428" y="-680.78" font-family="Times,serif" font-size="14.00">dont_notify_borrower</text>
</g>
<!-- s14&#45;&gt;s13 -->
<g id="edge49" class="edge">
<title>s14&#45;&gt;s13</title>
<path fill="none" stroke="black" d="M490.65,-515.62C447.67,-513.36 342.09,-505.62 316,-483.16 309.25,-477.35 305.33,-468.61 303.07,-460.17"/>
<polygon fill="black" stroke="black" points="306.47,-459.32 301.04,-450.22 299.61,-460.72 306.47,-459.32"/>
<text text-anchor="middle" x="391.5" y="-471.96" font-family="Times,serif" font-size="14.00">notify_borrower_of_default</text>
</g>
<!-- s14&#45;&gt;s15 -->
<g id="edge50" class="edge">
<title>s14&#45;&gt;s15</title>
<path fill="none" stroke="black" d="M494.1,-507.84C479.18,-498.16 459.91,-481.96 471,-468.16 486.1,-449.38 554.29,-440.58 593.68,-437"/>
<polygon fill="black" stroke="black" points="594.05,-440.48 603.72,-436.14 593.46,-433.51 594.05,-440.48"/>
<text text-anchor="middle" x="518" y="-471.96" font-family="Times,serif" font-size="14.00">borrower_default</text>
</g>
<!-- s15&#45;&gt;s7 -->
<g id="edge26" class="edge">
<title>s15&#45;&gt;s7</title>
<path fill="none" stroke="black" d="M640.35,-436.1C678.34,-438.99 763.67,-447.65 783,-468.16 797.86,-483.94 790,-494.75 790,-516.42 790,-685.48 790,-685.48 790,-685.48 790,-704.27 788.39,-725.44 786.84,-741.5"/>
<polygon fill="black" stroke="black" points="783.34,-741.4 785.8,-751.7 790.3,-742.11 783.34,-741.4"/>
<text text-anchor="middle" x="850" y="-597.25" font-family="Times,serif" font-size="14.00">dont_notify_borrower</text>
</g>
<!-- s15&#45;&gt;s12 -->
<g id="edge24" class="edge">
<title>s15&#45;&gt;s12</title>
<path fill="none" stroke="black" d="M640.39,-435.82C680.34,-438.24 773.14,-446.13 794,-468.16 814.21,-489.51 783.67,-511.54 803,-533.69 856.47,-594.93 905.78,-552.23 985.15,-585.35"/>
<polygon fill="black" stroke="black" points="983.9,-588.62 994.46,-589.52 986.77,-582.24 983.9,-588.62"/>
<text text-anchor="middle" x="878.5" y="-513.72" font-family="Times,serif" font-size="14.00">notify_borrower_of_default</text>
</g>
<!-- s15&#45;&gt;s14 -->
<g id="edge27" class="edge">
<title>s15&#45;&gt;s14</title>
<path fill="none" stroke="black" d="M607.81,-444.26C598.82,-450.52 587.2,-459.21 578,-468.16 571.88,-474.12 572.46,-477.58 566,-483.16 556.44,-491.42 544.54,-498.73 534.09,-504.38"/>
<polygon fill="black" stroke="black" points="532.28,-501.38 525.01,-509.09 535.5,-507.59 532.28,-501.38"/>
<text text-anchor="middle" x="638" y="-471.96" font-family="Times,serif" font-size="14.00">dont_notify_borrower</text>
</g>
<!-- s15&#45;&gt;s22 -->
<g id="edge25" class="edge">
<title>s15&#45;&gt;s22</title>
<path fill="none" stroke="black" d="M613.25,-419.44C605.12,-406.93 592.86,-388.07 583.3,-373.37"/>
<polygon fill="black" stroke="black" points="586.15,-371.33 577.76,-364.85 580.28,-375.15 586.15,-371.33"/>
<text text-anchor="middle" x="676.5" y="-388.43" font-family="Times,serif" font-size="14.00">notify_borrower_of_default</text>
</g>
<!-- s16&#45;&gt;s2 -->
<g id="edge28" class="edge">
<title>s16&#45;&gt;s2</title>
<path fill="none" stroke="black" d="M974,-500.88C974,-459.29 974,-345.16 974,-293.66"/>
<polygon fill="black" stroke="black" points="977.5,-293.39 974,-283.39 970.5,-293.39 977.5,-293.39"/>
<text text-anchor="middle" x="1023.5" y="-388.43" font-family="Times,serif" font-size="14.00">dont_cure_default</text>
</g>
<!-- s16&#45;&gt;s9 -->
<g id="edge30" class="edge">
<title>s16&#45;&gt;s9</title>
<path fill="none" stroke="black" d="M961.43,-529.85C954.98,-536.02 947.19,-543.93 941,-551.69 930.15,-565.27 927.29,-568.9 920,-584.69 913.66,-598.42 919.41,-605.37 910,-617.22 907.7,-620.1 858.33,-626.94 879,-650.22 895.45,-668.74 1061.46,-678.81 1129.32,-682.18"/>
<polygon fill="black" stroke="black" points="1129.18,-685.68 1139.33,-682.66 1129.51,-678.68 1129.18,-685.68"/>
<text text-anchor="middle" x="954" y="-597.25" font-family="Times,serif" font-size="14.00">cure_default</text>
</g>
<!-- s16&#45;&gt;s13 -->
<g id="edge29" class="edge">
<title>s16&#45;&gt;s13</title>
<path fill="none" stroke="black" d="M960.64,-505.55C957.92,-503.81 954.97,-502.23 952,-501.16 863.88,-469.39 833.61,-502.74 742,-483.16 722.21,-478.93 718.8,-472.37 699,-468.16 562.46,-439.14 394.61,-435.18 328.59,-434.82"/>
<polygon fill="black" stroke="black" points="328.54,-431.32 318.53,-434.79 328.52,-438.32 328.54,-431.32"/>
<text text-anchor="middle" x="776" y="-471.96" font-family="Times,serif" font-size="14.00">cure_default</text>
</g>
<!-- s17&#45;&gt;s11 -->
<g id="edge7" class="edge">
<title>s17&#45;&gt;s11</title>
<path fill="none" stroke="black" d="M1743.34,-353.45C1766.6,-356.82 1807.15,-365.17 1836,-384.63 1843.08,-389.41 1842.27,-393.3 1848,-399.63 1852.51,-404.62 1857.59,-409.79 1862.42,-414.54"/>
<polygon fill="black" stroke="black" points="1860.06,-417.12 1869.68,-421.54 1864.91,-412.08 1860.06,-417.12"/>
<text text-anchor="middle" x="1908" y="-388.43" font-family="Times,serif" font-size="14.00">dont_notify_borrower</text>
</g>
<!-- s17&#45;&gt;s20 -->
<g id="edge5" class="edge">
<title>s17&#45;&gt;s20</title>
<path fill="none" stroke="black" d="M1720.82,-334.19C1718.92,-323.73 1718.52,-310.15 1726,-301.11 1734.19,-291.21 1812.02,-278.32 1854.93,-271.88"/>
<polygon fill="black" stroke="black" points="1855.64,-275.31 1865.02,-270.38 1854.62,-268.38 1855.64,-275.31"/>
<text text-anchor="middle" x="1801.5" y="-304.91" font-family="Times,serif" font-size="14.00">notify_borrower_of_default</text>
</g>
<!-- s17&#45;&gt;s21 -->
<g id="edge6" class="edge">
<title>s17&#45;&gt;s21</title>
<path fill="none" stroke="black" d="M1706.44,-348.64C1665.12,-346.61 1567.49,-339.4 1546,-316.11 1540.38,-310.01 1538.34,-301.47 1537.96,-293.26"/>
<polygon fill="black" stroke="black" points="1541.46,-293.34 1538.22,-283.25 1534.46,-293.16 1541.46,-293.34"/>
<text text-anchor="middle" x="1621.5" y="-304.91" font-family="Times,serif" font-size="14.00">notify_borrower_of_default</text>
</g>
<!-- s17&#45;&gt;s23 -->
<g id="edge8" class="edge">
<title>s17&#45;&gt;s23</title>
<path fill="none" stroke="black" d="M1727.55,-366.85C1729.37,-376.46 1732.18,-388.95 1736,-399.63 1739.02,-408.06 1741.8,-409.28 1745,-417.63 1755.8,-445.84 1740.04,-463.54 1763,-483.16 1817.74,-529.93 1870.28,-453.22 1924,-501.16 1946.29,-521.05 1931.72,-537.71 1939,-566.69 1947,-598.51 1957.14,-634.95 1963.84,-658.54"/>
<polygon fill="black" stroke="black" points="1960.54,-659.76 1966.65,-668.41 1967.28,-657.84 1960.54,-659.76"/>
<text text-anchor="middle" x="1997" y="-513.72" font-family="Times,serif" font-size="14.00">dont_notify_borrower</text>
</g>
<!-- s18&#45;&gt;s5 -->
<g id="edge42" class="edge">
<title>s18&#45;&gt;s5</title>
<path fill="none" stroke="black" d="M2110.66,-512.56C2137.98,-505.51 2189.55,-487.7 2211,-450.16 2223.67,-427.99 2218,-418.67 2218,-393.13 2218,-393.13 2218,-393.13 2218,-98.79 2218,-33.13 2117.4,-20.08 2066.61,-17.67"/>
<polygon fill="black" stroke="black" points="2066.71,-14.18 2056.59,-17.31 2066.45,-21.17 2066.71,-14.18"/>
<text text-anchor="middle" x="2314.5" y="-263.14" font-family="Times,serif" font-size="14.00">pay(normal, borrower, lender, 525)</text>
</g>
<!-- s18&#45;&gt;s11 -->
<g id="edge41" class="edge">
<title>s18&#45;&gt;s11</title>
<path fill="none" stroke="black" d="M2076.94,-509.26C2069.75,-506.32 2061.08,-503.15 2053,-501.16 2019.97,-493.04 1927.94,-503.93 1901,-483.16 1893.72,-477.55 1889.23,-468.74 1886.45,-460.18"/>
<polygon fill="black" stroke="black" points="1889.83,-459.24 1883.92,-450.44 1883.05,-461 1889.83,-459.24"/>
<text text-anchor="middle" x="2033.5" y="-471.96" font-family="Times,serif" font-size="14.00">payment_default(normal, borrower, lender, 525)</text>
</g>
<!-- s18&#45;&gt;s23 -->
<g id="edge40" class="edge">
<title>s18&#45;&gt;s23</title>
<path fill="none" stroke="black" d="M2076.79,-525.57C2055.71,-535.68 2019.2,-556.18 1999,-584.69 1983.55,-606.49 1976.6,-636.62 1973.48,-657.86"/>
<polygon fill="black" stroke="black" points="1969.97,-657.7 1972.18,-668.07 1976.92,-658.59 1969.97,-657.7"/>
<text text-anchor="middle" x="2046" y="-597.25" font-family="Times,serif" font-size="14.00">borrower_default</text>
</g>
<!-- s19 -->
<g id="node20" class="node">
<title>s19</title>
<ellipse fill="none" stroke="black" cx="1687" cy="-183.32" rx="18.27" ry="16.03"/>
<text text-anchor="middle" x="1687" y="-179.62" font-family="Times,serif" font-size="14.00">[]</text>
</g>
<!-- s19&#45;&gt;s0 -->
<g id="edge21" class="edge">
<title>s19&#45;&gt;s0</title>
<path fill="none" stroke="black" d="M1673.58,-195.03C1670.87,-196.79 1667.94,-198.41 1665,-199.58 1615.29,-219.34 1594.19,-194.36 1546,-217.58 1496.84,-241.27 1490,-258.42 1456,-301.11 1445.46,-314.35 1444.58,-318.98 1437,-334.11 1429.95,-348.18 1435.11,-356.58 1423,-366.63 1394.96,-389.91 1366.2,-356.52 1343,-384.63 1319.73,-412.84 1330.86,-523.69 1337.4,-574.39"/>
<polygon fill="black" stroke="black" points="1333.96,-575.08 1338.75,-584.53 1340.9,-574.15 1333.96,-575.08"/>
<text text-anchor="middle" x="1377" y="-388.43" font-family="Times,serif" font-size="14.00">cure_default</text>
</g>
<!-- s19&#45;&gt;s1 -->
<g id="edge22" class="edge">
<title>s19&#45;&gt;s1</title>
<path fill="none" stroke="black" d="M1687,-166.98C1687,-155.48 1687,-139.48 1687,-126.1"/>
<polygon fill="black" stroke="black" points="1690.5,-126.06 1687,-116.06 1683.5,-126.06 1690.5,-126.06"/>
<text text-anchor="middle" x="1736.5" y="-137.85" font-family="Times,serif" font-size="14.00">dont_cure_default</text>
</g>
<!-- s19&#45;&gt;s8 -->
<g id="edge23" class="edge">
<title>s19&#45;&gt;s8</title>
<path fill="none" stroke="black" d="M1695.68,-197.74C1699.1,-203.62 1702.74,-210.72 1705,-217.58 1718.85,-259.58 1687.12,-285.45 1719,-316.11 1747.34,-343.36 1856.04,-328.82 1895,-334.11 1915.81,-336.93 1939.19,-340.92 1956.9,-344.11"/>
<polygon fill="black" stroke="black" points="1956.66,-347.63 1967.12,-345.98 1957.91,-340.74 1956.66,-347.63"/>
<text text-anchor="middle" x="1742" y="-263.14" font-family="Times,serif" font-size="14.00">cure_default</text>
</g>
<!-- s20&#45;&gt;s1 -->
<g id="edge18" class="edge">
<title>s20&#45;&gt;s1</title>
<path fill="none" stroke="black" d="M1883.32,-250.26C1882.92,-240.39 1881.24,-227.64 1876,-217.58 1850.92,-169.48 1833.6,-161.82 1787,-134.05 1764.41,-120.59 1735.67,-111.76 1714.8,-106.61"/>
<polygon fill="black" stroke="black" points="1715.5,-103.17 1704.97,-104.3 1713.9,-109.99 1715.5,-103.17"/>
<text text-anchor="middle" x="1914.5" y="-179.62" font-family="Times,serif" font-size="14.00">dont_cure_default</text>
</g>
<!-- s20&#45;&gt;s8 -->
<g id="edge20" class="edge">
<title>s20&#45;&gt;s8</title>
<path fill="none" stroke="black" d="M1901.45,-268.66C1923.56,-270.7 1960.02,-277.66 1979,-301.11 1984.1,-307.41 1986.22,-315.76 1986.87,-323.75"/>
<polygon fill="black" stroke="black" points="1983.38,-323.89 1987.02,-333.83 1990.37,-323.78 1983.38,-323.89"/>
<text text-anchor="middle" x="2045" y="-304.91" font-family="Times,serif" font-size="14.00">dont_notify_borrower</text>
</g>
<!-- s20&#45;&gt;s19 -->
<g id="edge19" class="edge">
<title>s20&#45;&gt;s19</title>
<path fill="none" stroke="black" d="M1864.96,-263.52C1829.21,-258.67 1750.88,-246.73 1728,-232.58 1720.74,-228.09 1721.47,-224.13 1716,-217.58 1712.32,-213.17 1708.3,-208.49 1704.47,-204.07"/>
<polygon fill="black" stroke="black" points="1707.09,-201.75 1697.87,-196.53 1701.82,-206.36 1707.09,-201.75"/>
<text text-anchor="middle" x="1803.5" y="-221.38" font-family="Times,serif" font-size="14.00">notify_borrower_of_default</text>
</g>
<!-- s20&#45;&gt;s23 -->
<g id="edge17" class="edge">
<title>s20&#45;&gt;s23</title>
<path fill="none" stroke="black" d="M1901.6,-268.03C1973.47,-269.82 2229,-286.48 2229,-432.9 2229,-601.95 2229,-601.95 2229,-601.95 2229,-703.22 2107.72,-638.21 2011,-668.22 2006.49,-669.62 2001.75,-671.26 1997.17,-672.95"/>
<polygon fill="black" stroke="black" points="1995.66,-669.78 1987.57,-676.61 1998.16,-676.31 1995.66,-669.78"/>
<text text-anchor="middle" x="2263" y="-471.96" font-family="Times,serif" font-size="14.00">cure_default</text>
</g>
<!-- s21&#45;&gt;s0 -->
<g id="edge12" class="edge">
<title>s21&#45;&gt;s0</title>
<path fill="none" stroke="black" d="M1523.79,-272.59C1508.24,-277.6 1485.47,-286.77 1470,-301.11 1432.73,-335.65 1452.72,-369.24 1412,-399.63 1388.66,-417.05 1367.04,-394.78 1349,-417.63 1339.53,-429.63 1339.79,-527.13 1340.49,-574.42"/>
<polygon fill="black" stroke="black" points="1337,-574.55 1340.66,-584.49 1343.99,-574.43 1337,-574.55"/>
<text text-anchor="middle" x="1409" y="-430.2" font-family="Times,serif" font-size="14.00">dont_notify_borrower</text>
</g>
<!-- s21&#45;&gt;s1 -->
<g id="edge9" class="edge">
<title>s21&#45;&gt;s1</title>
<path fill="none" stroke="black" d="M1541.18,-250.55C1542.23,-229.32 1547.14,-190.85 1568,-167.05 1593.16,-138.36 1633.89,-119.51 1660.56,-109.5"/>
<polygon fill="black" stroke="black" points="1661.81,-112.77 1670.03,-106.09 1659.44,-106.18 1661.81,-112.77"/>
<text text-anchor="middle" x="1617.5" y="-179.62" font-family="Times,serif" font-size="14.00">dont_cure_default</text>
</g>
<!-- s21&#45;&gt;s11 -->
<g id="edge10" class="edge">
<title>s21&#45;&gt;s11</title>
<path fill="none" stroke="black" d="M1559.69,-268.37C1589.85,-269.95 1650.28,-276.25 1694,-301.11 1701.93,-305.61 1700.18,-311.41 1708,-316.11 1745.28,-338.48 1854.99,-355.46 1897,-366.63 1927.21,-374.67 1945.93,-359.86 1965,-384.63 1982.19,-406.97 1940.47,-420.85 1910.16,-427.71"/>
<polygon fill="black" stroke="black" points="1909.09,-424.35 1900.03,-429.84 1910.54,-431.2 1909.09,-424.35"/>
<text text-anchor="middle" x="1931" y="-346.67" font-family="Times,serif" font-size="14.00">cure_default</text>
</g>
<!-- s21&#45;&gt;s19 -->
<g id="edge11" class="edge">
<title>s21&#45;&gt;s19</title>
<path fill="none" stroke="black" d="M1542.21,-250.18C1543.88,-239.49 1547.8,-225.83 1557,-217.58 1585.43,-192.09 1604.16,-209.61 1641,-199.58 1647.39,-197.84 1654.21,-195.73 1660.58,-193.63"/>
<polygon fill="black" stroke="black" points="1661.74,-196.93 1670.1,-190.42 1659.5,-190.3 1661.74,-196.93"/>
<text text-anchor="middle" x="1632.5" y="-221.38" font-family="Times,serif" font-size="14.00">notify_borrower_of_default</text>
</g>
<!-- s22&#45;&gt;s2 -->
<g id="edge32" class="edge">
<title>s22&#45;&gt;s2</title>
<path fill="none" stroke="black" d="M586.66,-345.82C650.35,-332.99 868.54,-289.07 946.24,-273.43"/>
<polygon fill="black" stroke="black" points="947.13,-276.82 956.24,-271.42 945.75,-269.96 947.13,-276.82"/>
<text text-anchor="middle" x="856.5" y="-304.91" font-family="Times,serif" font-size="14.00">dont_cure_default</text>
</g>
<!-- s22&#45;&gt;s7 -->
<g id="edge33" class="edge">
<title>s22&#45;&gt;s7</title>
<path fill="none" stroke="black" d="M557.56,-363.47C531.92,-390.72 471.75,-455.5 467,-468.16 442.65,-533.07 466.2,-566.06 513,-617.22 537.31,-643.79 552.21,-640.91 587,-650.22 624.55,-660.26 731.84,-642.51 761,-668.22 771.86,-677.79 778.25,-715.79 781.44,-741.77"/>
<polygon fill="black" stroke="black" points="777.97,-742.18 782.58,-751.72 784.92,-741.38 777.97,-742.18"/>
<text text-anchor="middle" x="507" y="-555.49" font-family="Times,serif" font-size="14.00">cure_default</text>
</g>
<!-- s22&#45;&gt;s13 -->
<g id="edge34" class="edge">
<title>s22&#45;&gt;s13</title>
<path fill="none" stroke="black" d="M550.63,-353.04C492,-358.45 312.58,-375.68 304,-384.63 298.19,-390.69 296.3,-399.37 296.16,-407.7"/>
<polygon fill="black" stroke="black" points="292.68,-408.06 296.76,-417.84 299.67,-407.65 292.68,-408.06"/>
<text text-anchor="middle" x="364" y="-388.43" font-family="Times,serif" font-size="14.00">dont_notify_borrower</text>
</g>
<!-- s22&#45;&gt;s16 -->
<g id="edge31" class="edge">
<title>s22&#45;&gt;s16</title>
<path fill="none" stroke="black" d="M587.39,-351.17C621.86,-351.52 697.73,-355.84 753,-384.63 789.66,-403.73 784.29,-427.72 819,-450.16 869.57,-482.86 893.63,-472.72 951.21,-501.47"/>
<polygon fill="black" stroke="black" points="949.87,-504.71 960.35,-506.21 953.09,-498.5 949.87,-504.71"/>
<text text-anchor="middle" x="894.5" y="-430.2" font-family="Times,serif" font-size="14.00">notify_borrower_of_default</text>
</g>
<!-- s23&#45;&gt;s0 -->
<g id="edge1" class="edge">
<title>s23&#45;&gt;s0</title>
<path fill="none" stroke="black" d="M1952.55,-683.03C1870.89,-680.95 1544.25,-671.36 1504,-650.22 1496.44,-646.25 1499.25,-639.72 1492,-635.22 1454.11,-611.65 1401.77,-604.66 1369.71,-602.66"/>
<polygon fill="black" stroke="black" points="1369.83,-599.16 1359.67,-602.16 1369.48,-606.15 1369.83,-599.16"/>
<text text-anchor="middle" x="1579.5" y="-639.02" font-family="Times,serif" font-size="14.00">notify_borrower_of_default</text>
</g>
<!-- s23&#45;&gt;s5 -->
<g id="edge4" class="edge">
<title>s23&#45;&gt;s5</title>
<path fill="none" stroke="black" d="M1987.03,-676.19C1994.21,-673.23 2002.89,-670.07 2011,-668.22 2056.44,-657.8 2181.79,-676.92 2220,-650.22 2287.17,-603.28 2277.58,-562.52 2298,-483.16 2314.55,-418.86 2271.11,-389.31 2308,-334.11 2336.38,-291.63 2381.46,-324.78 2411,-283.11 2425.77,-262.27 2418,-251.62 2418,-226.08 2418,-226.08 2418,-226.08 2418,-98.79 2418,-26.97 2155.25,-18.22 2066.72,-17.31"/>
<polygon fill="black" stroke="black" points="2066.61,-13.81 2056.59,-17.23 2066.56,-20.81 2066.61,-13.81"/>
<text text-anchor="middle" x="2404.5" y="-346.67" font-family="Times,serif" font-size="14.00">pay(normal, borrower, lender, 525)</text>
</g>
<!-- s23&#45;&gt;s17 -->
<g id="edge3" class="edge">
<title>s23&#45;&gt;s17</title>
<path fill="none" stroke="black" d="M1952.7,-681.22C1896.98,-673.23 1729.1,-640.79 1662,-533.69 1654.32,-521.44 1655.16,-513.9 1662,-501.16 1681.42,-465 1719.58,-486.32 1739,-450.16 1745.84,-437.43 1743.69,-431.31 1739,-417.63 1735.71,-408.05 1728.29,-409.22 1725,-399.63 1722.52,-392.42 1721.81,-384.23 1721.92,-376.67"/>
<polygon fill="black" stroke="black" points="1725.42,-376.76 1722.52,-366.57 1718.43,-376.35 1725.42,-376.76"/>
<text text-anchor="middle" x="1794.5" y="-513.72" font-family="Times,serif" font-size="14.00">payment_default(normal, borrower, lender, 525)</text>
</g>
<!-- s23&#45;&gt;s18 -->
<g id="edge2" class="edge">
<title>s23&#45;&gt;s18</title>
<path fill="none" stroke="black" d="M1988.83,-679.91C2017,-673.19 2070.99,-655.74 2094,-617.22 2107.32,-594.92 2104.53,-564.44 2100.03,-543.25"/>
<polygon fill="black" stroke="black" points="2103.4,-542.31 2097.67,-533.4 2096.6,-543.94 2103.4,-542.31"/>
<text text-anchor="middle" x="2163" y="-597.25" font-family="Times,serif" font-size="14.00">dont_notify_borrower</text>
</g>
</g>
</svg>
