<?xml version="1.0" encoding="UTF-8" standalone="no"?>
<!DOCTYPE svg PUBLIC "-//W3C//DTD SVG 1.1//EN"
 "http://www.w3.org/Graphics/SVG/1.1/DTD/svg11.dtd">
<!-- Generated by graphviz version 5.0.1 (0)
 -->
<!-- Title: G Pages: 1 -->
<svg width="4821pt" height="1301pt"
 viewBox="0.00 0.00 4821.00 1301.43" xmlns="http://www.w3.org/2000/svg" xmlns:xlink="http://www.w3.org/1999/xlink">
<g id="graph0" class="graph" transform="scale(1 1) rotate(0) translate(4 1297.43)">
<title>G</title>
<polygon fill="white" stroke="none" points="-4,4 -4,-1297.43 4817,-1297.43 4817,4 -4,4"/>
<!-- s4 -->
<g id="node1" class="node">
<title>s4</title>
<ellipse fill="none" stroke="black" cx="4148" cy="-1273.17" rx="18.29" ry="16.08"/>
<ellipse fill="none" stroke="black" cx="4148" cy="-1273.17" rx="22.27" ry="20.03"/>
<text text-anchor="middle" x="4148" y="-1269.47" font-family="Times,serif" font-size="14.00">[]</text>
</g>
<!-- s5 -->
<g id="node6" class="node">
<title>s5</title>
<ellipse fill="none" stroke="black" cx="3595" cy="-1185.64" rx="18.27" ry="16.03"/>
<text text-anchor="middle" x="3595" y="-1181.94" font-family="Times,serif" font-size="14.00">[]</text>
</g>
<!-- s4&#45;&gt;s5 -->
<g id="edge128" class="edge">
<title>s4&#45;&gt;s5</title>
<path fill="none" stroke="black" d="M4125.98,-1268.76C4039.04,-1255.32 3719.7,-1205.93 3622.96,-1190.96"/>
<polygon fill="black" stroke="black" points="3623.46,-1187.5 3613.04,-1189.43 3622.39,-1194.42 3623.46,-1187.5"/>
<text text-anchor="middle" x="3951" y="-1223.7" font-family="Times,serif" font-size="14.00">request_principal</text>
</g>
<!-- s10 -->
<g id="node11" class="node">
<title>s10</title>
<ellipse fill="none" stroke="black" cx="3972" cy="-16.26" rx="18.27" ry="16.03"/>
<text text-anchor="middle" x="3972" y="-12.56" font-family="Times,serif" font-size="14.00">[]</text>
</g>
<!-- s4&#45;&gt;s10 -->
<g id="edge127" class="edge">
<title>s4&#45;&gt;s10</title>
<path fill="none" stroke="black" d="M4170.52,-1271.02C4272.71,-1265.52 4688,-1239.91 4688,-1186.64 4688,-1186.64 4688,-1186.64 4688,-98.79 4688,-28.36 4134.07,-18.75 4000.65,-17.46"/>
<polygon fill="black" stroke="black" points="4000.45,-13.96 3990.42,-17.37 4000.39,-20.96 4000.45,-13.96"/>
<text text-anchor="middle" x="4750.5" y="-639.02" font-family="Times,serif" font-size="14.00">dont_request_principal</text>
</g>
<!-- s0 -->
<g id="node2" class="node">
<title>s0</title>
<ellipse fill="none" stroke="black" cx="2593" cy="-684.48" rx="18.27" ry="16.03"/>
<text text-anchor="middle" x="2593" y="-680.78" font-family="Times,serif" font-size="14.00">[]</text>
</g>
<!-- s2 -->
<g id="node4" class="node">
<title>s2</title>
<ellipse fill="none" stroke="black" cx="2342" cy="-99.79" rx="18.27" ry="16.03"/>
<text text-anchor="middle" x="2342" y="-96.09" font-family="Times,serif" font-size="14.00">[]</text>
</g>
<!-- s0&#45;&gt;s2 -->
<g id="edge8" class="edge">
<title>s0&#45;&gt;s2</title>
<path fill="none" stroke="black" d="M2574.44,-682.43C2553.04,-680.14 2518.58,-672.91 2501,-650.22 2469.15,-609.09 2492.45,-585.65 2490,-533.69 2488.63,-504.6 2471.59,-490.72 2490,-468.16 2515.24,-437.23 2552.76,-481.09 2578,-450.16 2587.14,-438.96 2587.82,-428.24 2578,-417.63 2542.88,-379.68 2382.66,-436.1 2346,-399.63 2330.74,-384.45 2342,-372.9 2342,-351.37 2342,-351.37 2342,-351.37 2342,-182.32 2342,-163.57 2342,-142.4 2342,-126.33"/>
<polygon fill="black" stroke="black" points="2345.5,-126.12 2342,-116.12 2338.5,-126.12 2345.5,-126.12"/>
<text text-anchor="middle" x="2444" y="-388.43" font-family="Times,serif" font-size="14.00">borrower_default|dont_cure_default</text>
</g>
<!-- s0&#45;&gt;s2 -->
<g id="edge10" class="edge">
<title>s0&#45;&gt;s2</title>
<path fill="none" stroke="black" d="M2584.26,-670.14C2564.48,-639 2516.73,-558.46 2501,-483.16 2499.64,-476.64 2496.81,-473.35 2501,-468.16 2525,-438.47 2561,-479.85 2585,-450.16 2594.09,-438.92 2592.73,-429.85 2585,-417.63 2575.01,-401.84 2560.52,-412.53 2547,-399.63 2541.53,-394.42 2543.74,-390.52 2539,-384.63 2473.5,-303.36 2410.15,-324.13 2360,-232.58 2358.73,-230.27 2350.08,-163.96 2345.25,-126.3"/>
<polygon fill="black" stroke="black" points="2348.68,-125.55 2343.94,-116.07 2341.74,-126.44 2348.68,-125.55"/>
<text text-anchor="middle" x="2596.5" y="-388.43" font-family="Times,serif" font-size="14.00">dont_cure_default</text>
</g>
<!-- s15 -->
<g id="node16" class="node">
<title>s15</title>
<ellipse fill="none" stroke="black" cx="3530" cy="-600.95" rx="18.27" ry="16.03"/>
<text text-anchor="middle" x="3530" y="-597.25" font-family="Times,serif" font-size="14.00">[]</text>
</g>
<!-- s0&#45;&gt;s15 -->
<g id="edge7" class="edge">
<title>s0&#45;&gt;s15</title>
<path fill="none" stroke="black" d="M2611.46,-681.82C2684.02,-675.28 2945.95,-651.63 2950,-650.22 2961.52,-646.2 2961.41,-639.04 2973,-635.22 3072.53,-602.37 3401.76,-601.28 3501.27,-601.74"/>
<polygon fill="black" stroke="black" points="3501.45,-605.24 3511.47,-601.79 3501.49,-598.24 3501.45,-605.24"/>
<text text-anchor="middle" x="3055.5" y="-639.02" font-family="Times,serif" font-size="14.00">borrower_default|cure_default</text>
</g>
<!-- s17 -->
<g id="node18" class="node">
<title>s17</title>
<ellipse fill="none" stroke="black" cx="3120" cy="-266.84" rx="18.27" ry="16.03"/>
<text text-anchor="middle" x="3120" y="-263.14" font-family="Times,serif" font-size="14.00">[]</text>
</g>
<!-- s0&#45;&gt;s17 -->
<g id="edge6" class="edge">
<title>s0&#45;&gt;s17</title>
<path fill="none" stroke="black" d="M2593.24,-668.19C2594.06,-626.46 2597.33,-512.92 2609,-501.16 2638.72,-471.22 2768.09,-512.91 2798,-483.16 2821.6,-459.68 2790.38,-358.53 2813,-334.11 2898.21,-242.09 2975.07,-327.67 3096.94,-282.31"/>
<polygon fill="black" stroke="black" points="3098.56,-285.44 3106.56,-278.5 3095.97,-278.93 3098.56,-285.44"/>
<text text-anchor="middle" x="2852" y="-471.96" font-family="Times,serif" font-size="14.00">borrower_default</text>
</g>
<!-- s22 -->
<g id="node23" class="node">
<title>s22</title>
<ellipse fill="none" stroke="black" cx="3170" cy="-517.42" rx="18.27" ry="16.03"/>
<text text-anchor="middle" x="3170" y="-513.72" font-family="Times,serif" font-size="14.00">[]</text>
</g>
<!-- s0&#45;&gt;s22 -->
<g id="edge9" class="edge">
<title>s0&#45;&gt;s22</title>
<path fill="none" stroke="black" d="M2610.32,-678C2639.73,-668.76 2701.38,-649.67 2754,-635.22 2785.81,-626.48 2795.34,-629.39 2826,-617.22 2853.47,-606.31 2857.12,-596.96 2884,-584.69 2905.48,-574.88 2912.66,-576.81 2934,-566.69 2945.71,-561.13 2946.82,-556.11 2959,-551.69 3021.55,-528.97 3100.1,-521.76 3141.47,-519.47"/>
<polygon fill="black" stroke="black" points="3141.82,-522.96 3151.63,-518.97 3141.47,-515.97 3141.82,-522.96"/>
<text text-anchor="middle" x="2918" y="-597.25" font-family="Times,serif" font-size="14.00">cure_default</text>
</g>
<!-- s1 -->
<g id="node3" class="node">
<title>s1</title>
<ellipse fill="none" stroke="black" cx="1816" cy="-99.79" rx="18.27" ry="16.03"/>
<text text-anchor="middle" x="1816" y="-96.09" font-family="Times,serif" font-size="14.00">[]</text>
</g>
<!-- s2&#45;&gt;s10 -->
<g id="edge132" class="edge">
<title>s2&#45;&gt;s10</title>
<path fill="none" stroke="black" d="M2360.27,-97.75C2453.36,-92.44 2884.2,-68.02 3237,-50.53 3512.14,-36.88 3845.34,-22.62 3943.5,-18.46"/>
<polygon fill="black" stroke="black" points="3943.69,-21.96 3953.54,-18.04 3943.4,-14.97 3943.69,-21.96"/>
<text text-anchor="middle" x="3344" y="-54.33" font-family="Times,serif" font-size="14.00">pay(accelerated, borrower, lender, 525)</text>
</g>
<!-- s23 -->
<g id="node24" class="node">
<title>s23</title>
<ellipse fill="none" stroke="black" cx="1566" cy="-16.26" rx="18.27" ry="16.03"/>
<text text-anchor="middle" x="1566" y="-12.56" font-family="Times,serif" font-size="14.00">[]</text>
</g>
<!-- s2&#45;&gt;s23 -->
<g id="edge131" class="edge">
<title>s2&#45;&gt;s23</title>
<path fill="none" stroke="black" d="M2323.58,-96.86C2220.99,-86.08 1720.08,-33.45 1594.56,-20.26"/>
<polygon fill="black" stroke="black" points="1594.56,-16.74 1584.24,-19.18 1593.82,-23.71 1594.56,-16.74"/>
<text text-anchor="middle" x="2167" y="-54.33" font-family="Times,serif" font-size="14.00">payment_default(accelerated, borrower, lender, 525)</text>
</g>
<!-- s3 -->
<g id="node5" class="node">
<title>s3</title>
<ellipse fill="none" stroke="black" cx="879" cy="-350.37" rx="18.27" ry="16.03"/>
<text text-anchor="middle" x="879" y="-346.67" font-family="Times,serif" font-size="14.00">[]</text>
</g>
<!-- s3&#45;&gt;s10 -->
<g id="edge130" class="edge">
<title>s3&#45;&gt;s10</title>
<path fill="none" stroke="black" d="M897.67,-349.21C1008.67,-347.99 1577,-338.3 1577,-267.84 1577,-267.84 1577,-267.84 1577,-98.79 1577,-29.73 1815.19,-56.45 1884,-50.53 2310.25,-13.81 3725.28,-16.52 3943.61,-17.17"/>
<polygon fill="black" stroke="black" points="3943.62,-20.67 3953.63,-17.2 3943.64,-13.67 3943.62,-20.67"/>
<text text-anchor="middle" x="1687.5" y="-179.62" font-family="Times,serif" font-size="14.00">pay(accelerated, borrower, lender, 1075)</text>
</g>
<!-- s3&#45;&gt;s23 -->
<g id="edge129" class="edge">
<title>s3&#45;&gt;s23</title>
<path fill="none" stroke="black" d="M897.41,-349.79C945.47,-349.85 1071,-342.81 1071,-267.84 1071,-267.84 1071,-267.84 1071,-98.79 1071,-51.21 1431.66,-25.46 1537.27,-18.93"/>
<polygon fill="black" stroke="black" points="1537.73,-22.41 1547.5,-18.31 1537.31,-15.43 1537.73,-22.41"/>
<text text-anchor="middle" x="1217.5" y="-179.62" font-family="Times,serif" font-size="14.00">payment_default(accelerated, borrower, lender, 1075)</text>
</g>
<!-- s11 -->
<g id="node12" class="node">
<title>s11</title>
<ellipse fill="none" stroke="black" cx="1763" cy="-1102.11" rx="18.27" ry="16.03"/>
<text text-anchor="middle" x="1763" y="-1098.41" font-family="Times,serif" font-size="14.00">[]</text>
</g>
<!-- s5&#45;&gt;s11 -->
<g id="edge126" class="edge">
<title>s5&#45;&gt;s11</title>
<path fill="none" stroke="black" d="M3576.57,-1183.82C3399.97,-1175.96 2008.96,-1114.06 1791.54,-1104.38"/>
<polygon fill="black" stroke="black" points="1791.69,-1100.89 1781.54,-1103.94 1791.38,-1107.88 1791.69,-1100.89"/>
<text text-anchor="middle" x="2947" y="-1140.18" font-family="Times,serif" font-size="14.00">pay(principal, lender, borrower, 1000)</text>
</g>
<!-- s5&#45;&gt;s23 -->
<g id="edge125" class="edge">
<title>s5&#45;&gt;s23</title>
<path fill="none" stroke="black" d="M3598.66,-1169.61C3606.06,-1135.18 3618.69,-1049.96 3576,-1002.32 3458.85,-871.61 3362.86,-949.27 3190,-918.8 3169.4,-915.16 2837.47,-872.09 2817,-867.8 2765.44,-856.97 2755.03,-843.59 2703,-835.27 2652.82,-827.24 2288.9,-844.51 2246,-817.27 2218.3,-799.68 2235.39,-774.75 2212,-751.74 2116.42,-657.72 2015.49,-729.35 1942,-617.22 1913.69,-574.02 1972.3,-537.9 1936,-501.16 1891.87,-456.49 1705.43,-519.19 1654,-483.16 1604.54,-448.52 1566,-286.46 1566,-226.08 1566,-226.08 1566,-226.08 1566,-98.79 1566,-80.05 1566,-58.88 1566,-42.81"/>
<polygon fill="black" stroke="black" points="1569.5,-42.59 1566,-32.59 1562.5,-42.59 1569.5,-42.59"/>
<text text-anchor="middle" x="2082" y="-597.25" font-family="Times,serif" font-size="14.00">payment_default(principal, lender, borrower, 1000)</text>
</g>
<!-- s6 -->
<g id="node7" class="node">
<title>s6</title>
<ellipse fill="none" stroke="black" cx="927" cy="-600.95" rx="18.27" ry="16.03"/>
<text text-anchor="middle" x="927" y="-597.25" font-family="Times,serif" font-size="14.00">[]</text>
</g>
<!-- s6&#45;&gt;s1 -->
<g id="edge120" class="edge">
<title>s6&#45;&gt;s1</title>
<path fill="none" stroke="black" d="M940.37,-589.11C943.09,-587.36 946.03,-585.78 949,-584.69 1027.82,-555.83 1054.3,-581.06 1137,-566.69 1344.36,-530.66 1455.71,-607.06 1596,-450.16 1630.71,-411.35 1585.19,-378.74 1612,-334.11 1664.52,-246.64 1743.6,-285.89 1798,-199.58 1801.88,-193.43 1808.35,-153.33 1812.38,-126.15"/>
<polygon fill="black" stroke="black" points="1815.87,-126.52 1813.85,-116.12 1808.94,-125.51 1815.87,-126.52"/>
<text text-anchor="middle" x="1712" y="-346.67" font-family="Times,serif" font-size="14.00">dont_cure_default|dont_cure_default</text>
</g>
<!-- s6&#45;&gt;s3 -->
<g id="edge121" class="edge">
<title>s6&#45;&gt;s3</title>
<path fill="none" stroke="black" d="M913.24,-589.95C910.55,-588.13 907.72,-586.3 905,-584.69 817.44,-533.01 753.62,-569.55 700,-483.16 659.2,-417.43 792.06,-373.83 851.62,-358.01"/>
<polygon fill="black" stroke="black" points="852.7,-361.34 861.51,-355.46 850.95,-354.57 852.7,-361.34"/>
<text text-anchor="middle" x="784.5" y="-471.96" font-family="Times,serif" font-size="14.00">cure_default|dont_cure_default</text>
</g>
<!-- s6&#45;&gt;s3 -->
<g id="edge124" class="edge">
<title>s6&#45;&gt;s3</title>
<path fill="none" stroke="black" d="M913.43,-589.9C903.54,-582.31 891.32,-572.27 888,-566.69 880.33,-553.8 883.59,-548.46 881,-533.69 877.09,-511.36 875.56,-505.78 874,-483.16 871.45,-446.22 874.12,-403.36 876.43,-376.8"/>
<polygon fill="black" stroke="black" points="879.92,-377.09 877.35,-366.81 872.95,-376.44 879.92,-377.09"/>
<text text-anchor="middle" x="923.5" y="-471.96" font-family="Times,serif" font-size="14.00">dont_cure_default</text>
</g>
<!-- s9 -->
<g id="node10" class="node">
<title>s9</title>
<ellipse fill="none" stroke="black" cx="1301" cy="-935.06" rx="18.27" ry="16.03"/>
<text text-anchor="middle" x="1301" y="-931.36" font-family="Times,serif" font-size="14.00">[]</text>
</g>
<!-- s6&#45;&gt;s9 -->
<g id="edge122" class="edge">
<title>s6&#45;&gt;s9</title>
<path fill="none" stroke="black" d="M913.51,-612.49C910.8,-614.27 907.89,-615.94 905,-617.22 834.38,-648.35 797.28,-617.62 739,-668.22 660.71,-736.19 630.93,-849.45 721,-900.8 774.89,-931.52 1220.11,-899.32 1279,-918.8 1279.1,-918.83 1279.2,-918.86 1279.3,-918.9"/>
<polygon fill="black" stroke="black" points="1277.66,-921.99 1288.17,-923.37 1280.81,-915.74 1277.66,-921.99"/>
<text text-anchor="middle" x="712" y="-764.31" font-family="Times,serif" font-size="14.00">cure_default</text>
</g>
<!-- s6&#45;&gt;s11 -->
<g id="edge119" class="edge">
<title>s6&#45;&gt;s11</title>
<path fill="none" stroke="black" d="M913.61,-612.72C910.89,-614.47 907.95,-616.08 905,-617.22 846.03,-639.87 824.79,-618.02 764,-635.22 661.69,-664.16 645.75,-696.93 546,-733.74 308.94,-821.23 0,-639.6 0,-892.3 0,-1019.59 0,-1019.59 0,-1019.59 0,-1102.28 286.55,-1061.49 369,-1067.85 648.13,-1089.37 1560.76,-1099.16 1734.35,-1100.84"/>
<polygon fill="black" stroke="black" points="1734.45,-1104.35 1744.48,-1100.94 1734.51,-1097.35 1734.45,-1104.35"/>
<text text-anchor="middle" x="76.5" y="-847.83" font-family="Times,serif" font-size="14.00">cure_default|cure_default</text>
</g>
<!-- s24 -->
<g id="node25" class="node">
<title>s24</title>
<ellipse fill="none" stroke="black" cx="1246" cy="-517.42" rx="18.27" ry="16.03"/>
<text text-anchor="middle" x="1246" y="-513.72" font-family="Times,serif" font-size="14.00">[]</text>
</g>
<!-- s6&#45;&gt;s24 -->
<g id="edge123" class="edge">
<title>s6&#45;&gt;s24</title>
<path fill="none" stroke="black" d="M942.34,-591.8C947.53,-589.27 953.42,-586.64 959,-584.69 1051.17,-552.5 1165.49,-531.47 1217.66,-522.85"/>
<polygon fill="black" stroke="black" points="1218.51,-526.26 1227.82,-521.2 1217.38,-519.35 1218.51,-526.26"/>
<text text-anchor="middle" x="1102" y="-555.49" font-family="Times,serif" font-size="14.00">cure_default</text>
</g>
<!-- s7 -->
<g id="node8" class="node">
<title>s7</title>
<ellipse fill="none" stroke="black" cx="2665" cy="-183.32" rx="18.27" ry="16.03"/>
<text text-anchor="middle" x="2665" y="-179.62" font-family="Times,serif" font-size="14.00">[]</text>
</g>
<!-- s7&#45;&gt;s0 -->
<g id="edge117" class="edge">
<title>s7&#45;&gt;s0</title>
<path fill="none" stroke="black" d="M2665,-199.64C2665,-216.03 2665,-242.77 2665,-265.84 2665,-434.9 2665,-434.9 2665,-434.9 2665,-440.32 2661.62,-479.13 2658,-483.16 2636.54,-507.07 2608.67,-476.57 2588,-501.16 2550.38,-545.91 2569.63,-620.95 2583.28,-659.31"/>
<polygon fill="black" stroke="black" points="2580.16,-660.95 2586.93,-669.1 2586.72,-658.51 2580.16,-660.95"/>
<text text-anchor="middle" x="2699" y="-430.2" font-family="Times,serif" font-size="14.00">cure_default</text>
</g>
<!-- s7&#45;&gt;s1 -->
<g id="edge113" class="edge">
<title>s7&#45;&gt;s1</title>
<path fill="none" stroke="black" d="M2646.87,-180.58C2538.65,-170.18 1978.01,-116.35 1844.54,-103.53"/>
<polygon fill="black" stroke="black" points="1844.61,-100.02 1834.32,-102.55 1843.94,-106.99 1844.61,-100.02"/>
<text text-anchor="middle" x="2416" y="-137.85" font-family="Times,serif" font-size="14.00">dont_cure_default|dont_cure_default</text>
</g>
<!-- s7&#45;&gt;s2 -->
<g id="edge114" class="edge">
<title>s7&#45;&gt;s2</title>
<path fill="none" stroke="black" d="M2673.18,-168.35C2678.25,-157.68 2682.35,-143.28 2674,-134.05 2653.81,-111.74 2447.68,-103.74 2370.75,-101.51"/>
<polygon fill="black" stroke="black" points="2370.47,-98 2360.37,-101.22 2370.27,-105 2370.47,-98"/>
<text text-anchor="middle" x="2762.5" y="-137.85" font-family="Times,serif" font-size="14.00">cure_default|dont_cure_default</text>
</g>
<!-- s7&#45;&gt;s2 -->
<g id="edge118" class="edge">
<title>s7&#45;&gt;s2</title>
<path fill="none" stroke="black" d="M2646.98,-179.67C2627.08,-175.92 2595.07,-167.37 2574,-149.05 2568.3,-144.1 2572.17,-138.41 2566,-134.05 2535.04,-112.22 2423.74,-104.41 2370.62,-101.88"/>
<polygon fill="black" stroke="black" points="2370.66,-98.38 2360.51,-101.43 2370.34,-105.37 2370.66,-98.38"/>
<text text-anchor="middle" x="2623.5" y="-137.85" font-family="Times,serif" font-size="14.00">dont_cure_default</text>
</g>
<!-- s8 -->
<g id="node9" class="node">
<title>s8</title>
<ellipse fill="none" stroke="black" cx="2837" cy="-851.53" rx="18.27" ry="16.03"/>
<text text-anchor="middle" x="2837" y="-847.83" font-family="Times,serif" font-size="14.00">[]</text>
</g>
<!-- s7&#45;&gt;s8 -->
<g id="edge116" class="edge">
<title>s7&#45;&gt;s8</title>
<path fill="none" stroke="black" d="M2648.79,-191.07C2599.99,-211.29 2450.03,-272.63 2323,-316.11 2174.6,-366.91 2078.61,-291.78 1985,-417.63 1976.37,-429.23 1974.99,-439.74 1985,-450.16 2019.43,-486.01 2397.57,-432.31 2432,-468.16 2436.62,-472.97 2435.9,-477.75 2432,-483.16 2417.21,-503.68 2393.33,-481.03 2378,-501.16 2362.62,-521.35 2375,-532.81 2375,-558.19 2375,-769.01 2375,-769.01 2375,-769.01 2375,-860.64 2692.5,-815.63 2782,-835.27 2791.18,-837.28 2801.11,-839.9 2809.98,-842.4"/>
<polygon fill="black" stroke="black" points="2809.2,-845.82 2819.78,-845.23 2811.15,-839.09 2809.2,-845.82"/>
<text text-anchor="middle" x="2412" y="-513.72" font-family="Times,serif" font-size="14.00">cure_default</text>
</g>
<!-- s7&#45;&gt;s22 -->
<g id="edge115" class="edge">
<title>s7&#45;&gt;s22</title>
<path fill="none" stroke="black" d="M2674.18,-197.45C2706.03,-241.87 2817.07,-387.23 2948,-450.16 2998.99,-474.67 3023.85,-442 3074,-468.16 3082.08,-472.38 3080.49,-477.99 3088,-483.16 3104.77,-494.7 3126.15,-503.2 3142.87,-508.73"/>
<polygon fill="black" stroke="black" points="3142.01,-512.12 3152.6,-511.78 3144.1,-505.44 3142.01,-512.12"/>
<text text-anchor="middle" x="2894.5" y="-346.67" font-family="Times,serif" font-size="14.00">cure_default|cure_default</text>
</g>
<!-- s8&#45;&gt;s1 -->
<g id="edge107" class="edge">
<title>s8&#45;&gt;s1</title>
<path fill="none" stroke="black" d="M2819.88,-844.69C2809.14,-841.29 2794.92,-837.3 2782,-835.27 2589.53,-805.02 2534.1,-859.93 2344,-817.27 2290.32,-805.22 2230,-824.03 2230,-769.01 2230,-769.01 2230,-769.01 2230,-641.72 2230,-616.18 2240.26,-603.51 2223,-584.69 2220.69,-582.17 1985.04,-535.26 1982,-533.69 1963.15,-523.91 1966.51,-509.54 1947,-501.16 1917.33,-488.43 1679.11,-506.69 1657,-483.16 1652.43,-478.3 1653.86,-474.04 1657,-468.16 1695.3,-396.52 1766.4,-435.81 1809,-366.63 1822.39,-344.89 1816,-335.14 1816,-309.61 1816,-309.61 1816,-309.61 1816,-182.32 1816,-163.57 1816,-142.4 1816,-126.33"/>
<polygon fill="black" stroke="black" points="1819.5,-126.12 1816,-116.12 1812.5,-126.12 1819.5,-126.12"/>
<text text-anchor="middle" x="1804" y="-471.96" font-family="Times,serif" font-size="14.00">dont_cure_default|pay(normal, borrower, lender, 525)</text>
</g>
<!-- s8&#45;&gt;s2 -->
<g id="edge105" class="edge">
<title>s8&#45;&gt;s2</title>
<path fill="none" stroke="black" d="M2819.88,-844.71C2809.14,-841.33 2794.92,-837.34 2782,-835.27 2739.6,-828.49 2433.37,-838.4 2396,-817.27 2288.51,-756.48 2333.96,-669.29 2244,-584.69 2177.37,-522.03 2128.83,-548.67 2065,-483.16 2059.73,-477.75 2063.01,-472.74 2057,-468.16 2028.01,-446.07 2001.92,-476.75 1977,-450.16 1959.45,-431.44 1968,-418.79 1968,-393.13 1968,-393.13 1968,-393.13 1968,-182.32 1968,-151.11 1990.64,-147.07 2019,-134.05 2071.16,-110.12 2244.67,-103.21 2313.51,-101.39"/>
<polygon fill="black" stroke="black" points="2313.71,-104.89 2323.62,-101.14 2313.54,-97.89 2313.71,-104.89"/>
<text text-anchor="middle" x="2248" y="-471.96" font-family="Times,serif" font-size="14.00">dont_cure_default|payment_default(normal, borrower, lender, 525)</text>
</g>
<!-- s8&#45;&gt;s2 -->
<g id="edge112" class="edge">
<title>s8&#45;&gt;s2</title>
<path fill="none" stroke="black" d="M2819.88,-844.7C2809.14,-841.31 2794.92,-837.32 2782,-835.27 2691.93,-820.98 2457.69,-848.47 2372,-817.27 2349.36,-809.03 2344.26,-802.91 2329,-784.27 2276.59,-720.28 2281.58,-692.35 2247,-617.22 2240.42,-602.92 2244.54,-595.39 2233,-584.69 2220.25,-572.86 2101.32,-539.72 2085,-533.69 2056.31,-523.09 1974.2,-508.45 1957,-483.16 1944.93,-465.43 1957,-456.35 1957,-434.9 1957,-434.9 1957,-434.9 1957,-182.32 1957,-167.92 1981.72,-137.13 1987,-134.05 2042.18,-101.89 2239.06,-99.97 2313.35,-100.43"/>
<polygon fill="black" stroke="black" points="2313.36,-103.93 2323.39,-100.51 2313.42,-96.93 2313.36,-103.93"/>
<text text-anchor="middle" x="2006.5" y="-471.96" font-family="Times,serif" font-size="14.00">dont_cure_default</text>
</g>
<!-- s8&#45;&gt;s10 -->
<g id="edge108" class="edge">
<title>s8&#45;&gt;s10</title>
<path fill="none" stroke="black" d="M2855.38,-850.34C2978.86,-849 3685.4,-840.34 3778,-817.27 3975.13,-768.16 4015.82,-723.42 4189,-617.22 4293.96,-552.85 4337.98,-550.03 4410,-450.16 4418.93,-437.78 4412.13,-430.05 4421,-417.63 4464.04,-357.42 4515.61,-379.98 4553,-316.11 4563.95,-297.4 4560,-289.52 4560,-267.84 4560,-267.84 4560,-267.84 4560,-98.79 4560,-77.12 4568.98,-65.17 4553,-50.53 4532.44,-31.68 4114.85,-20.59 4000.65,-17.91"/>
<polygon fill="black" stroke="black" points="4000.65,-14.4 3990.57,-17.67 4000.49,-21.4 4000.65,-14.4"/>
<text text-anchor="middle" x="4552.5" y="-430.2" font-family="Times,serif" font-size="14.00">cure_default|pay(normal, borrower, lender, 525)</text>
</g>
<!-- s8&#45;&gt;s10 -->
<g id="edge110" class="edge">
<title>s8&#45;&gt;s10</title>
<path fill="none" stroke="black" d="M2855.7,-850.72C2979.71,-851.83 3681.28,-856.36 3767,-817.27 3775.3,-813.49 3773.8,-807.87 3781,-802.27 3823.93,-768.88 4181.37,-612.92 4210,-566.69 4244.9,-510.32 4175.68,-470.27 4216,-417.63 4221.74,-410.15 4533.74,-323.16 4540,-316.11 4554.48,-299.79 4549,-289.66 4549,-267.84 4549,-267.84 4549,-267.84 4549,-98.79 4549,-42.8 4117.59,-22.68 4000.84,-18.26"/>
<polygon fill="black" stroke="black" points="4000.67,-14.75 3990.54,-17.88 4000.41,-21.75 4000.67,-14.75"/>
<text text-anchor="middle" x="4312.5" y="-430.2" font-family="Times,serif" font-size="14.00">pay(normal, borrower, lender, 525)</text>
</g>
<!-- s13 -->
<g id="node14" class="node">
<title>s13</title>
<ellipse fill="none" stroke="black" cx="2708" cy="-768.01" rx="18.27" ry="16.03"/>
<text text-anchor="middle" x="2708" y="-764.31" font-family="Times,serif" font-size="14.00">[]</text>
</g>
<!-- s8&#45;&gt;s13 -->
<g id="edge109" class="edge">
<title>s8&#45;&gt;s13</title>
<path fill="none" stroke="black" d="M2838.46,-835.23C2838.61,-824.71 2836.96,-811.1 2829,-802.27 2805.83,-776.55 2764.8,-769.94 2737.01,-768.63"/>
<polygon fill="black" stroke="black" points="2736.81,-765.13 2726.72,-768.36 2736.62,-772.12 2736.81,-765.13"/>
<text text-anchor="middle" x="2968.5" y="-806.07" font-family="Times,serif" font-size="14.00">payment_default(normal, borrower, lender, 525)</text>
</g>
<!-- s21 -->
<g id="node22" class="node">
<title>s21</title>
<ellipse fill="none" stroke="black" cx="3338" cy="-433.9" rx="18.27" ry="16.03"/>
<text text-anchor="middle" x="3338" y="-430.2" font-family="Times,serif" font-size="14.00">[]</text>
</g>
<!-- s8&#45;&gt;s21 -->
<g id="edge106" class="edge">
<title>s8&#45;&gt;s21</title>
<path fill="none" stroke="black" d="M2855.47,-849.59C2909.93,-846.62 3069.06,-836.47 3117,-817.27 3152.74,-802.96 3249.02,-726.35 3261,-700.74 3267.12,-687.65 3270.23,-679.34 3261,-668.22 3232.19,-633.5 3137.71,-671.14 3165,-635.22 3233.65,-544.83 3342.35,-657.07 3411,-566.69 3415.03,-561.38 3415.32,-556.77 3411,-551.69 3378.61,-513.63 3332.39,-571.75 3300,-533.69 3290.63,-522.68 3290.26,-511.85 3300,-501.16 3329.17,-469.16 3464.83,-515.16 3494,-483.16 3498.49,-478.23 3498.39,-473.18 3494,-468.16 3475.8,-447.36 3401.39,-458.79 3361.09,-448.79"/>
<polygon fill="black" stroke="black" points="3361.99,-445.4 3351.4,-445.65 3359.84,-452.06 3361.99,-445.4"/>
<text text-anchor="middle" x="3332.5" y="-639.02" font-family="Times,serif" font-size="14.00">cure_default|payment_default(normal, borrower, lender, 525)</text>
</g>
<!-- s8&#45;&gt;s22 -->
<g id="edge111" class="edge">
<title>s8&#45;&gt;s22</title>
<path fill="none" stroke="black" d="M2855.52,-850.08C2908.58,-848.5 3059.99,-841.88 3102,-817.27 3157.54,-784.73 3167.88,-761.88 3188,-700.74 3192.52,-687.01 3194.93,-680.9 3188,-668.22 3180.91,-655.23 3167.09,-663.2 3160,-650.22 3141.57,-616.46 3151.56,-570.42 3160.65,-542.65"/>
<polygon fill="black" stroke="black" points="3164.04,-543.55 3164.03,-532.96 3157.43,-541.25 3164.04,-543.55"/>
<text text-anchor="middle" x="3226" y="-680.78" font-family="Times,serif" font-size="14.00">cure_default</text>
</g>
<!-- s9&#45;&gt;s2 -->
<g id="edge99" class="edge">
<title>s9&#45;&gt;s2</title>
<path fill="none" stroke="black" d="M1319.54,-932.88C1366.55,-929.64 1489.24,-919.58 1525,-900.8 1533.07,-896.56 1531.88,-891.5 1539,-885.8 1573.59,-858.08 1583.15,-849.89 1625,-835.27 1701.07,-808.69 1931.18,-845.12 1984,-784.27 1993.48,-773.35 1992.6,-763.36 1984,-751.74 1967.69,-729.71 1948.13,-748.47 1925,-733.74 1891.94,-712.7 1894.87,-694.71 1866,-668.22 1792.94,-601.17 1756.17,-605.7 1688,-533.69 1669.39,-514.03 1661.9,-509.05 1654,-483.16 1628.66,-400.12 1716.49,-519.39 1818,-366.63 1832.2,-345.26 1827,-335.27 1827,-309.61 1827,-309.61 1827,-309.61 1827,-182.32 1827,-132.65 2205.49,-108.22 2313.52,-102.26"/>
<polygon fill="black" stroke="black" points="2313.87,-105.75 2323.67,-101.71 2313.5,-98.76 2313.87,-105.75"/>
<text text-anchor="middle" x="1835" y="-513.72" font-family="Times,serif" font-size="14.00">dont_cure_default|pay(normal, borrower, lender, 550)</text>
</g>
<!-- s9&#45;&gt;s3 -->
<g id="edge97" class="edge">
<title>s9&#45;&gt;s3</title>
<path fill="none" stroke="black" d="M1288.17,-923.36C1285.31,-921.51 1282.18,-919.85 1279,-918.8 1217.77,-898.59 763.36,-904.66 699,-900.8 638.65,-897.18 157,-912.99 157,-852.53 157,-852.53 157,-852.53 157,-432.9 157,-361.89 715.57,-352.72 850.11,-351.54"/>
<polygon fill="black" stroke="black" points="850.46,-355.04 860.43,-351.46 850.4,-348.04 850.46,-355.04"/>
<text text-anchor="middle" x="340" y="-639.02" font-family="Times,serif" font-size="14.00">dont_cure_default|payment_default(normal, borrower, lender, 550)</text>
</g>
<!-- s9&#45;&gt;s3 -->
<g id="edge104" class="edge">
<title>s9&#45;&gt;s3</title>
<path fill="none" stroke="black" d="M1288.18,-923.33C1285.32,-921.48 1282.19,-919.82 1279,-918.8 1168.9,-883.29 351.38,-923.77 238,-900.8 199.5,-892.99 184.59,-894.74 156,-867.8 151.13,-863.21 54.73,-656.67 53,-650.22 47.42,-629.43 49,-623.48 49,-601.95 49,-601.95 49,-601.95 49,-432.9 49,-350.61 703.49,-350.18 850.1,-351.11"/>
<polygon fill="black" stroke="black" points="850.48,-354.62 860.5,-351.19 850.53,-347.62 850.48,-354.62"/>
<text text-anchor="middle" x="102.5" y="-639.02" font-family="Times,serif" font-size="14.00">dont_cure_default</text>
</g>
<!-- s9&#45;&gt;s8 -->
<g id="edge101" class="edge">
<title>s9&#45;&gt;s8</title>
<path fill="none" stroke="black" d="M1319.59,-933.32C1369.98,-931.04 1508,-922.88 1547,-900.8 1554.43,-896.59 1551.34,-889.56 1559,-885.8 1609.51,-860.96 2515.75,-869.91 2572,-867.8 2658.27,-864.55 2760.18,-857.88 2808.65,-854.54"/>
<polygon fill="black" stroke="black" points="2808.97,-858.02 2818.7,-853.84 2808.48,-851.04 2808.97,-858.02"/>
<text text-anchor="middle" x="1655.5" y="-889.6" font-family="Times,serif" font-size="14.00">pay(normal, borrower, lender, 550)</text>
</g>
<!-- s9&#45;&gt;s11 -->
<g id="edge103" class="edge">
<title>s9&#45;&gt;s11</title>
<path fill="none" stroke="black" d="M1288.49,-947.16C1268.92,-965.91 1235.15,-1004.75 1254,-1034.85 1271.83,-1063.32 1289.57,-1059.1 1322,-1067.85 1400.3,-1088.98 1649.65,-1097.89 1734.45,-1100.36"/>
<polygon fill="black" stroke="black" points="1734.53,-1103.86 1744.63,-1100.64 1734.73,-1096.86 1734.53,-1103.86"/>
<text text-anchor="middle" x="1288" y="-1014.89" font-family="Times,serif" font-size="14.00">cure_default</text>
</g>
<!-- s14 -->
<g id="node15" class="node">
<title>s14</title>
<ellipse fill="none" stroke="black" cx="718" cy="-851.53" rx="18.27" ry="16.03"/>
<text text-anchor="middle" x="718" y="-847.83" font-family="Times,serif" font-size="14.00">[]</text>
</g>
<!-- s9&#45;&gt;s14 -->
<g id="edge102" class="edge">
<title>s9&#45;&gt;s14</title>
<path fill="none" stroke="black" d="M1288.16,-923.39C1285.3,-921.54 1282.17,-919.86 1279,-918.8 1190.67,-889.06 943.11,-942.96 860,-900.8 852.39,-896.93 855.17,-890.43 848,-885.8 816.9,-865.72 774.32,-857.75 746.49,-854.59"/>
<polygon fill="black" stroke="black" points="746.55,-851.08 736.25,-853.57 745.86,-858.05 746.55,-851.08"/>
<text text-anchor="middle" x="992.5" y="-889.6" font-family="Times,serif" font-size="14.00">payment_default(normal, borrower, lender, 550)</text>
</g>
<!-- s20 -->
<g id="node21" class="node">
<title>s20</title>
<ellipse fill="none" stroke="black" cx="1085" cy="-768.01" rx="18.27" ry="16.03"/>
<text text-anchor="middle" x="1085" y="-764.31" font-family="Times,serif" font-size="14.00">[]</text>
</g>
<!-- s9&#45;&gt;s20 -->
<g id="edge98" class="edge">
<title>s9&#45;&gt;s20</title>
<path fill="none" stroke="black" d="M1287.61,-923.28C1284.89,-921.53 1281.95,-919.93 1279,-918.8 1219.18,-895.88 1193.04,-929.95 1136,-900.8 1127.88,-896.65 1130.14,-889.91 1122,-885.8 1091.25,-870.25 990.91,-893.53 968,-867.8 934.55,-830.21 1014.51,-794.2 1058.47,-777.98"/>
<polygon fill="black" stroke="black" points="1059.78,-781.23 1068.02,-774.56 1057.42,-774.64 1059.78,-781.23"/>
<text text-anchor="middle" x="1135.5" y="-847.83" font-family="Times,serif" font-size="14.00">cure_default|payment_default(normal, borrower, lender, 550)</text>
</g>
<!-- s9&#45;&gt;s22 -->
<g id="edge100" class="edge">
<title>s9&#45;&gt;s22</title>
<path fill="none" stroke="black" d="M1319.38,-933.04C1367.87,-930.09 1498.18,-920.5 1536,-900.8 1544.09,-896.58 1541.94,-890.06 1550,-885.8 1594.23,-862.41 1945.75,-826.05 1995,-817.27 2028.04,-811.38 2035.66,-806.07 2069,-802.27 2105.39,-798.12 2698.36,-805.79 2728,-784.27 2749.96,-768.33 2745,-685.41 2766,-668.22 2797.79,-642.19 2913.16,-668.41 2950,-650.22 2958.18,-646.18 2956.84,-640.86 2964,-635.22 3023.49,-588.29 3104.1,-548.4 3144.58,-529.73"/>
<polygon fill="black" stroke="black" points="3146.09,-532.89 3153.74,-525.56 3143.19,-526.52 3146.09,-532.89"/>
<text text-anchor="middle" x="2879.5" y="-722.54" font-family="Times,serif" font-size="14.00">cure_default|pay(normal, borrower, lender, 550)</text>
</g>
<!-- s10&#45;&gt;s10 -->
<g id="edge96" class="edge">
<title>s10&#45;&gt;s10</title>
<path fill="none" stroke="black" d="M3988.5,-23.5C3990.53,-23.05 3992.22,-22.01 3992.03,-18.88"/>
<polygon fill="black" stroke="black" points="3995.17,-17.26 3988.5,-9.03 3988.58,-19.62 3995.17,-17.26"/>
<text text-anchor="middle" x="4016.38" y="-12.56" font-family="Times,serif" font-size="14.00">fulfilled</text>
</g>
<!-- s12 -->
<g id="node13" class="node">
<title>s12</title>
<ellipse fill="none" stroke="black" cx="2629" cy="-1018.59" rx="18.27" ry="16.03"/>
<text text-anchor="middle" x="2629" y="-1014.89" font-family="Times,serif" font-size="14.00">[]</text>
</g>
<!-- s11&#45;&gt;s12 -->
<g id="edge95" class="edge">
<title>s11&#45;&gt;s12</title>
<path fill="none" stroke="black" d="M1781.11,-1098.06C1831.98,-1089.58 1980.62,-1065.55 2105,-1052.85 2293.38,-1033.61 2521.06,-1023.69 2600.23,-1020.64"/>
<polygon fill="black" stroke="black" points="2600.53,-1024.13 2610.39,-1020.25 2600.27,-1017.13 2600.53,-1024.13"/>
<text text-anchor="middle" x="2152" y="-1056.65" font-family="Times,serif" font-size="14.00">borrower_default</text>
</g>
<!-- s11&#45;&gt;s15 -->
<g id="edge91" class="edge">
<title>s11&#45;&gt;s15</title>
<path fill="none" stroke="black" d="M1781.39,-1101C1969.28,-1099.82 3534.77,-1089.31 3577,-1067.85 3706.38,-1002.1 3828.1,-933.91 3767,-802.27 3722.36,-706.09 3606.28,-639.4 3554.99,-613.7"/>
<polygon fill="black" stroke="black" points="3556.43,-610.51 3545.91,-609.24 3553.35,-616.79 3556.43,-610.51"/>
<text text-anchor="middle" x="3927.5" y="-847.83" font-family="Times,serif" font-size="14.00">borrower_default|pay(normal, borrower, lender, 550)</text>
</g>
<!-- s19 -->
<g id="node20" class="node">
<title>s19</title>
<ellipse fill="none" stroke="black" cx="1400" cy="-684.48" rx="18.27" ry="16.03"/>
<text text-anchor="middle" x="1400" y="-680.78" font-family="Times,serif" font-size="14.00">[]</text>
</g>
<!-- s11&#45;&gt;s19 -->
<g id="edge92" class="edge">
<title>s11&#45;&gt;s19</title>
<path fill="none" stroke="black" d="M1747.39,-1092.96C1691.24,-1064.04 1493.67,-965.56 1319,-918.8 1289.98,-911.03 1204.78,-923.41 1185,-900.8 1126.84,-834.3 995.08,-919.61 1309,-867.8 1430.75,-847.7 1503.09,-912.13 1582,-817.27 1632.47,-756.6 1489.53,-709.52 1427.33,-692.43"/>
<polygon fill="black" stroke="black" points="1427.97,-688.98 1417.4,-689.77 1426.15,-695.74 1427.97,-688.98"/>
<text text-anchor="middle" x="1365.5" y="-889.6" font-family="Times,serif" font-size="14.00">borrower_default|payment_default(normal, borrower, lender, 550)</text>
</g>
<!-- s11&#45;&gt;s20 -->
<g id="edge94" class="edge">
<title>s11&#45;&gt;s20</title>
<path fill="none" stroke="black" d="M1744.63,-1100.76C1666.62,-1099.13 1362.5,-1091.34 1270,-1067.85 1149.62,-1037.27 1097.85,-1044.74 1016,-951.32 1006.03,-939.95 1017.63,-928.47 1006,-918.8 979.35,-896.61 874.06,-926.69 851,-900.8 846.57,-895.82 847.8,-891.65 851,-885.8 883.92,-825.52 917.58,-828.61 981,-802.27 1012.77,-789.08 1026.59,-797.59 1062.02,-783.63"/>
<polygon fill="black" stroke="black" points="1063.7,-786.71 1071.52,-779.57 1060.95,-780.28 1063.7,-786.71"/>
<text text-anchor="middle" x="1148.5" y="-931.36" font-family="Times,serif" font-size="14.00">payment_default(normal, borrower, lender, 550)</text>
</g>
<!-- s11&#45;&gt;s22 -->
<g id="edge93" class="edge">
<title>s11&#45;&gt;s22</title>
<path fill="none" stroke="black" d="M1781.52,-1101.11C1934.31,-1101.06 2988.94,-1099.52 3305,-1067.85 3425.42,-1055.78 3573,-1140.61 3573,-1019.59 3573,-1019.59 3573,-1019.59 3573,-850.53 3573,-829.08 3567.62,-823.03 3573,-802.27 3575.3,-793.41 3580.7,-793.13 3583,-784.27 3586.63,-770.27 3587.16,-765.59 3583,-751.74 3565.13,-692.29 3555.75,-672.34 3506,-635.22 3444.2,-589.09 3415.51,-600.35 3340,-584.69 3305.4,-577.51 3208.56,-590 3182,-566.69 3175.45,-560.94 3172.2,-552.22 3170.66,-543.76"/>
<polygon fill="black" stroke="black" points="3174.14,-543.35 3169.54,-533.8 3167.18,-544.13 3174.14,-543.35"/>
<text text-anchor="middle" x="3669.5" y="-806.07" font-family="Times,serif" font-size="14.00">pay(normal, borrower, lender, 550)</text>
</g>
<!-- s12&#45;&gt;s8 -->
<g id="edge84" class="edge">
<title>s12&#45;&gt;s8</title>
<path fill="none" stroke="black" d="M2642.33,-1007.01C2677.48,-979.12 2772.91,-903.39 2815.72,-869.42"/>
<polygon fill="black" stroke="black" points="2818.13,-871.98 2823.78,-863.02 2813.77,-866.49 2818.13,-871.98"/>
<text text-anchor="middle" x="2923" y="-931.36" font-family="Times,serif" font-size="14.00">notify_borrower_of_default|pay(normal, borrower, lender, 550)</text>
</g>
<!-- s12&#45;&gt;s9 -->
<g id="edge88" class="edge">
<title>s12&#45;&gt;s9</title>
<path fill="none" stroke="black" d="M2610.65,-1017.1C2524.94,-1014.77 2155.43,-1004.02 1853,-984.32 1652.26,-971.25 1411.16,-947.33 1329.57,-939.01"/>
<polygon fill="black" stroke="black" points="1329.87,-935.52 1319.56,-937.98 1329.15,-942.48 1329.87,-935.52"/>
<text text-anchor="middle" x="1928.5" y="-973.12" font-family="Times,serif" font-size="14.00">notify_borrower_of_default</text>
</g>
<!-- s12&#45;&gt;s11 -->
<g id="edge90" class="edge">
<title>s12&#45;&gt;s11</title>
<path fill="none" stroke="black" d="M2610.63,-1021.89C2551.28,-1029.29 2359.31,-1052.83 2200,-1067.85 2046.12,-1082.36 1861.3,-1094.79 1791.53,-1099.3"/>
<polygon fill="black" stroke="black" points="1791.09,-1095.82 1781.34,-1099.96 1791.54,-1102.81 1791.09,-1095.82"/>
<text text-anchor="middle" x="2401" y="-1056.65" font-family="Times,serif" font-size="14.00">dont_notify_borrower</text>
</g>
<!-- s12&#45;&gt;s14 -->
<g id="edge86" class="edge">
<title>s12&#45;&gt;s14</title>
<path fill="none" stroke="black" d="M2610.48,-1017.34C2408.88,-1014.64 628.16,-989.71 591,-951.32 553.71,-912.8 643.71,-876.52 691.1,-860.76"/>
<polygon fill="black" stroke="black" points="692.34,-864.04 700.78,-857.63 690.19,-857.38 692.34,-864.04"/>
<text text-anchor="middle" x="800" y="-931.36" font-family="Times,serif" font-size="14.00">notify_borrower_of_default|payment_default(normal, borrower, lender, 550)</text>
</g>
<!-- s12&#45;&gt;s15 -->
<g id="edge87" class="edge">
<title>s12&#45;&gt;s15</title>
<path fill="none" stroke="black" d="M2647.47,-1017.74C2748.17,-1018.43 3228.45,-1019.82 3283,-984.32 3302,-971.96 3356.23,-814.97 3375,-802.27 3413.43,-776.28 3551.64,-818.46 3583,-784.27 3625.49,-737.94 3575.26,-659.46 3546.87,-622.44"/>
<polygon fill="black" stroke="black" points="3549.46,-620.07 3540.53,-614.37 3543.96,-624.4 3549.46,-620.07"/>
<text text-anchor="middle" x="3471.5" y="-806.07" font-family="Times,serif" font-size="14.00">pay(normal, borrower, lender, 550)</text>
</g>
<!-- s12&#45;&gt;s19 -->
<g id="edge89" class="edge">
<title>s12&#45;&gt;s19</title>
<path fill="none" stroke="black" d="M2631.62,-1002.27C2636.58,-970.95 2645.44,-901.21 2629,-885.8 2577.21,-837.23 2367.08,-910.02 2310,-867.8 2297.61,-858.63 2310.39,-844.43 2298,-835.27 2269.19,-813.97 2011.54,-821.88 1976,-817.27 1939.78,-812.57 1843.9,-806.6 1815,-784.27 1802.25,-774.42 1807.71,-765.29 1799,-751.74 1788.75,-735.8 1788.75,-727.61 1772,-718.74 1756.87,-710.73 1513.42,-693.29 1428.75,-687.44"/>
<polygon fill="black" stroke="black" points="1428.78,-683.93 1418.57,-686.74 1428.3,-690.92 1428.78,-683.93"/>
<text text-anchor="middle" x="2442.5" y="-847.83" font-family="Times,serif" font-size="14.00">payment_default(normal, borrower, lender, 550)</text>
</g>
<!-- s12&#45;&gt;s20 -->
<g id="edge85" class="edge">
<title>s12&#45;&gt;s20</title>
<path fill="none" stroke="black" d="M2610.62,-1015.99C2551.59,-1010.1 2363.42,-985.34 2238,-900.8 2230.92,-896.02 2233.35,-890.14 2226,-885.8 2197.85,-869.14 1968.31,-840.36 1936,-835.27 1832.25,-818.92 1806.54,-812.44 1702,-802.27 1475.74,-780.26 1201.29,-771.89 1113.47,-769.67"/>
<polygon fill="black" stroke="black" points="1113.55,-766.17 1103.47,-769.42 1113.38,-773.17 1113.55,-766.17"/>
<text text-anchor="middle" x="2431.5" y="-889.6" font-family="Times,serif" font-size="14.00">dont_notify_borrower|payment_default(normal, borrower, lender, 550)</text>
</g>
<!-- s12&#45;&gt;s22 -->
<g id="edge83" class="edge">
<title>s12&#45;&gt;s22</title>
<path fill="none" stroke="black" d="M2647.46,-1016.4C2723.77,-1011.3 3014.49,-989.66 3097,-951.32 3178.08,-913.65 3198.84,-892.6 3247,-817.27 3263.4,-791.61 3243.5,-771.1 3267,-751.74 3296.83,-727.17 3406.49,-753.01 3440,-733.74 3479.85,-710.83 3486.74,-693.92 3501,-650.22 3503.07,-643.88 3505.21,-640.39 3501,-635.22 3489.18,-620.69 3182.97,-581.09 3171,-566.69 3165.73,-560.34 3164.36,-551.74 3164.68,-543.56"/>
<polygon fill="black" stroke="black" points="3168.16,-543.95 3165.81,-533.61 3161.2,-543.15 3168.16,-543.95"/>
<text text-anchor="middle" x="3424.5" y="-764.31" font-family="Times,serif" font-size="14.00">dont_notify_borrower|pay(normal, borrower, lender, 550)</text>
</g>
<!-- s13&#45;&gt;s0 -->
<g id="edge80" class="edge">
<title>s13&#45;&gt;s0</title>
<path fill="none" stroke="black" d="M2689.33,-766.98C2642.76,-766.49 2523.45,-762.39 2499,-733.74 2478.12,-709.27 2529.95,-695.68 2564.68,-689.54"/>
<polygon fill="black" stroke="black" points="2565.51,-692.95 2574.81,-687.88 2564.37,-686.05 2565.51,-692.95"/>
<text text-anchor="middle" x="2610" y="-722.54" font-family="Times,serif" font-size="14.00">cure_default|notify_borrower_of_default</text>
</g>
<!-- s13&#45;&gt;s2 -->
<g id="edge76" class="edge">
<title>s13&#45;&gt;s2</title>
<path fill="none" stroke="black" d="M2689.41,-767.31C2637,-767.77 2489.76,-766.1 2457,-733.74 2441.58,-718.51 2450,-707.15 2450,-685.48 2450,-685.48 2450,-685.48 2450,-516.42 2450,-493.53 2450.53,-481.6 2432,-468.16 2392.39,-439.44 2026.8,-484.56 1992,-450.16 1973.95,-432.32 1989,-418.51 1989,-393.13 1989,-393.13 1989,-393.13 1989,-182.32 1989,-115.88 2229.35,-103.58 2313.4,-101.3"/>
<polygon fill="black" stroke="black" points="2313.61,-104.8 2323.52,-101.06 2313.44,-97.8 2313.61,-104.8"/>
<text text-anchor="middle" x="2118.5" y="-430.2" font-family="Times,serif" font-size="14.00">dont_cure_default|notify_borrower_of_default</text>
</g>
<!-- s13&#45;&gt;s2 -->
<g id="edge77" class="edge">
<title>s13&#45;&gt;s2</title>
<path fill="none" stroke="black" d="M2689.49,-767.19C2638.74,-767.28 2499.11,-764.65 2468,-733.74 2452.63,-718.46 2461,-707.15 2461,-685.48 2461,-685.48 2461,-685.48 2461,-516.42 2461,-493.37 2460.42,-482.03 2442,-468.16 2408.29,-442.78 2282.19,-480.62 2253,-450.16 2235.44,-431.84 2250,-418.51 2250,-393.13 2250,-393.13 2250,-393.13 2250,-182.32 2250,-146.96 2288.52,-123.23 2315.71,-110.88"/>
<polygon fill="black" stroke="black" points="2317.31,-114 2325.13,-106.84 2314.56,-107.56 2317.31,-114"/>
<text text-anchor="middle" x="2363.5" y="-430.2" font-family="Times,serif" font-size="14.00">dont_cure_default|dont_notify_borrower</text>
</g>
<!-- s13&#45;&gt;s2 -->
<g id="edge82" class="edge">
<title>s13&#45;&gt;s2</title>
<path fill="none" stroke="black" d="M2689.47,-766.67C2641.95,-765.45 2517.32,-759.77 2487,-733.74 2469.96,-719.11 2472,-707.94 2472,-685.48 2472,-685.48 2472,-685.48 2472,-516.42 2472,-494.47 2485.54,-434.09 2471,-417.63 2431.21,-372.6 2383.96,-437.12 2337,-399.63 2319.11,-385.35 2319,-374.26 2319,-351.37 2319,-351.37 2319,-351.37 2319,-182.32 2319,-162.41 2325.43,-140.76 2331.49,-124.78"/>
<polygon fill="black" stroke="black" points="2334.87,-125.76 2335.35,-115.17 2328.37,-123.15 2334.87,-125.76"/>
<text text-anchor="middle" x="2526.5" y="-430.2" font-family="Times,serif" font-size="14.00">dont_cure_default</text>
</g>
<!-- s13&#45;&gt;s7 -->
<g id="edge75" class="edge">
<title>s13&#45;&gt;s7</title>
<path fill="none" stroke="black" d="M2689.56,-767.02C2642.31,-766.64 2518.84,-762.82 2493,-733.74 2475.26,-713.78 2491.72,-483.88 2506,-468.16 2534.31,-437 2562.08,-470.39 2599,-450.16 2626.17,-435.28 2634.33,-427.9 2647,-399.63 2650.83,-391.09 2659.64,-264.87 2663.33,-209.75"/>
<polygon fill="black" stroke="black" points="2666.82,-209.94 2663.99,-199.73 2659.84,-209.48 2666.82,-209.94"/>
<text text-anchor="middle" x="2581.5" y="-471.96" font-family="Times,serif" font-size="14.00">notify_borrower_of_default</text>
</g>
<!-- s13&#45;&gt;s8 -->
<g id="edge79" class="edge">
<title>s13&#45;&gt;s8</title>
<path fill="none" stroke="black" d="M2705.04,-784.21C2703.92,-794.68 2704.41,-808.27 2712,-817.27 2732.72,-841.82 2750.97,-826.97 2782,-835.27 2791.08,-837.7 2800.99,-840.42 2809.86,-842.89"/>
<polygon fill="black" stroke="black" points="2809.11,-846.32 2819.68,-845.64 2810.99,-839.57 2809.11,-846.32"/>
<text text-anchor="middle" x="2772" y="-806.07" font-family="Times,serif" font-size="14.00">dont_notify_borrower</text>
</g>
<!-- s13&#45;&gt;s21 -->
<g id="edge81" class="edge">
<title>s13&#45;&gt;s21</title>
<path fill="none" stroke="black" d="M2717.8,-754.03C2721.83,-748.12 2726.2,-740.86 2729,-733.74 2741.33,-702.37 2732.19,-607.49 2757,-584.69 2786.11,-557.94 2905.22,-593.8 2934,-566.69 2966.29,-536.27 2916.93,-497.73 2950,-468.16 2980.35,-441.03 3277.45,-463.27 3316,-450.16 3316.1,-450.13 3316.2,-450.09 3316.3,-450.06"/>
<polygon fill="black" stroke="black" points="3317.83,-453.21 3325.15,-445.55 3314.65,-446.97 3317.83,-453.21"/>
<text text-anchor="middle" x="2791" y="-597.25" font-family="Times,serif" font-size="14.00">cure_default</text>
</g>
<!-- s13&#45;&gt;s22 -->
<g id="edge78" class="edge">
<title>s13&#45;&gt;s22</title>
<path fill="none" stroke="black" d="M2721.3,-756.27C2727.87,-750.3 2735.35,-742.34 2740,-733.74 2750.69,-713.96 2746.02,-649.95 2763,-635.22 2794.36,-608 2916.67,-643.28 2949,-617.22 2972.81,-598.02 2946.86,-571.69 2970,-551.69 2995.19,-529.92 3092.38,-522.16 3141.39,-519.59"/>
<polygon fill="black" stroke="black" points="3141.82,-523.07 3151.63,-519.09 3141.48,-516.08 3141.82,-523.07"/>
<text text-anchor="middle" x="2858" y="-639.02" font-family="Times,serif" font-size="14.00">cure_default|dont_notify_borrower</text>
</g>
<!-- s14&#45;&gt;s3 -->
<g id="edge60" class="edge">
<title>s14&#45;&gt;s3</title>
<path fill="none" stroke="black" d="M701.36,-844.41C666.51,-830.64 586.03,-793.66 549,-733.74 525.75,-696.12 565.92,-666.84 535,-635.22 500.67,-600.11 458.74,-653.81 426,-617.22 409.08,-598.3 423,-585.57 423,-560.19 423,-560.19 423,-560.19 423,-432.9 423,-389.3 750.25,-361.06 850.3,-353.45"/>
<polygon fill="black" stroke="black" points="850.85,-356.92 860.56,-352.68 850.33,-349.93 850.85,-356.92"/>
<text text-anchor="middle" x="552.5" y="-597.25" font-family="Times,serif" font-size="14.00">dont_cure_default|notify_borrower_of_default</text>
</g>
<!-- s14&#45;&gt;s3 -->
<g id="edge61" class="edge">
<title>s14&#45;&gt;s3</title>
<path fill="none" stroke="black" d="M710.28,-836.56C703.5,-823.49 694.1,-803.19 690,-784.27 668.91,-686.9 684,-659.82 684,-560.19 684,-560.19 684,-560.19 684,-432.9 684,-361.69 796.06,-351.59 850.28,-350.87"/>
<polygon fill="black" stroke="black" points="850.31,-354.37 860.3,-350.84 850.29,-347.37 850.31,-354.37"/>
<text text-anchor="middle" x="794.5" y="-597.25" font-family="Times,serif" font-size="14.00">dont_cure_default|dont_notify_borrower</text>
</g>
<!-- s14&#45;&gt;s3 -->
<g id="edge66" class="edge">
<title>s14&#45;&gt;s3</title>
<path fill="none" stroke="black" d="M699.81,-848.05C667.19,-842.62 598.76,-826.59 562,-784.27 546.16,-766.04 548.65,-756.96 542,-733.74 535.87,-712.34 540.46,-650.2 524,-635.22 490.02,-604.28 349.64,-650.54 318,-617.22 300.54,-598.82 316,-585.55 316,-560.19 316,-560.19 316,-560.19 316,-432.9 316,-378.3 736.02,-357.2 850.49,-352.46"/>
<polygon fill="black" stroke="black" points="850.74,-355.95 860.59,-352.05 850.45,-348.96 850.74,-355.95"/>
<text text-anchor="middle" x="367.5" y="-597.25" font-family="Times,serif" font-size="14.00">dont_cure_default</text>
</g>
<!-- s14&#45;&gt;s6 -->
<g id="edge59" class="edge">
<title>s14&#45;&gt;s6</title>
<path fill="none" stroke="black" d="M729.23,-838.49C740.03,-826.02 755.62,-805.42 762,-784.27 766.18,-770.43 769.53,-764.08 762,-751.74 752.89,-736.81 736.11,-748.67 727,-733.74 723.53,-728.05 723.65,-724.51 727,-718.74 771.14,-642.76 824.08,-664.1 904.28,-617.23"/>
<polygon fill="black" stroke="black" points="906.44,-620.02 913.16,-611.83 902.8,-614.04 906.44,-620.02"/>
<text text-anchor="middle" x="802.5" y="-722.54" font-family="Times,serif" font-size="14.00">notify_borrower_of_default</text>
</g>
<!-- s14&#45;&gt;s9 -->
<g id="edge64" class="edge">
<title>s14&#45;&gt;s9</title>
<path fill="none" stroke="black" d="M717.69,-868.17C718.4,-879.13 721.34,-893.14 731,-900.8 778.74,-938.64 1221.17,-899.65 1279,-918.8 1279.1,-918.83 1279.2,-918.86 1279.3,-918.9"/>
<polygon fill="black" stroke="black" points="1277.66,-921.99 1288.17,-923.37 1280.81,-915.74 1277.66,-921.99"/>
<text text-anchor="middle" x="791" y="-889.6" font-family="Times,serif" font-size="14.00">dont_notify_borrower</text>
</g>
<!-- s14&#45;&gt;s11 -->
<g id="edge63" class="edge">
<title>s14&#45;&gt;s11</title>
<path fill="none" stroke="black" d="M699.66,-854.26C609.04,-863.19 215.34,-906.72 266,-984.32 316.42,-1061.57 365.98,-1047.74 456,-1067.85 584.56,-1096.57 1554.68,-1100.56 1734.4,-1101.05"/>
<polygon fill="black" stroke="black" points="1734.63,-1104.55 1744.64,-1101.08 1734.65,-1097.55 1734.63,-1104.55"/>
<text text-anchor="middle" x="361" y="-973.12" font-family="Times,serif" font-size="14.00">cure_default|dont_notify_borrower</text>
</g>
<!-- s14&#45;&gt;s20 -->
<g id="edge65" class="edge">
<title>s14&#45;&gt;s20</title>
<path fill="none" stroke="black" d="M736.27,-849.35C762.33,-846.9 810.79,-839.49 845,-817.27 852.16,-812.62 849.52,-806.39 857,-802.27 920.46,-767.32 947.59,-796.45 1019,-784.27 1031.82,-782.08 1045.88,-778.94 1057.72,-776.07"/>
<polygon fill="black" stroke="black" points="1058.6,-779.45 1067.46,-773.65 1056.92,-772.66 1058.6,-779.45"/>
<text text-anchor="middle" x="891" y="-806.07" font-family="Times,serif" font-size="14.00">cure_default</text>
</g>
<!-- s14&#45;&gt;s24 -->
<g id="edge62" class="edge">
<title>s14&#45;&gt;s24</title>
<path fill="none" stroke="black" d="M733.29,-842.49C763.76,-825.81 832.72,-784.74 875,-733.74 906.09,-696.25 882.51,-662.29 923,-635.22 977.42,-598.84 1165.83,-658.03 1217,-617.22 1228.48,-608.06 1237.18,-569.94 1241.93,-543.82"/>
<polygon fill="black" stroke="black" points="1245.4,-544.27 1243.66,-533.82 1238.5,-543.07 1245.4,-544.27"/>
<text text-anchor="middle" x="1010" y="-680.78" font-family="Times,serif" font-size="14.00">cure_default|notify_borrower_of_default</text>
</g>
<!-- s15&#45;&gt;s8 -->
<g id="edge43" class="edge">
<title>s15&#45;&gt;s8</title>
<path fill="none" stroke="black" d="M3524.14,-616.76C3519.3,-627.32 3511.53,-641.18 3501,-650.22 3410.61,-727.77 3329.39,-660.37 3253,-751.74 3233.9,-774.59 3261.36,-797.6 3239,-817.27 3211.08,-841.83 2952.72,-848.53 2865.56,-850.1"/>
<polygon fill="black" stroke="black" points="2865.29,-846.61 2855.35,-850.28 2865.41,-853.61 2865.29,-846.61"/>
<text text-anchor="middle" x="3363.5" y="-722.54" font-family="Times,serif" font-size="14.00">notify_borrower_of_default</text>
</g>
<!-- s15&#45;&gt;s10 -->
<g id="edge46" class="edge">
<title>s15&#45;&gt;s10</title>
<path fill="none" stroke="black" d="M3548.25,-598.2C3579.23,-595.25 3644.09,-589.17 3699,-584.69 3726.43,-582.45 3925.75,-585.32 3946,-566.69 3970.74,-543.93 3993,-301.46 3993,-267.84 3993,-267.84 3993,-267.84 3993,-98.79 3993,-79.01 3987.13,-57.35 3981.6,-41.34"/>
<polygon fill="black" stroke="black" points="3984.79,-39.89 3978.07,-31.7 3978.22,-42.3 3984.79,-39.89"/>
<text text-anchor="middle" x="4087.5" y="-304.91" font-family="Times,serif" font-size="14.00">pay(normal, borrower, lender, 525)</text>
</g>
<!-- s15&#45;&gt;s10 -->
<g id="edge49" class="edge">
<title>s15&#45;&gt;s10</title>
<path fill="none" stroke="black" d="M3548.25,-598.19C3579.22,-595.22 3644.09,-589.11 3699,-584.69 3755.4,-580.14 3901.98,-591.16 3953,-566.69 4107.09,-492.76 4195,-438.75 4195,-267.84 4195,-267.84 4195,-267.84 4195,-98.79 4195,-57.76 4060.18,-31.25 4000.2,-21.48"/>
<polygon fill="black" stroke="black" points="4000.67,-18.01 3990.25,-19.9 3999.58,-24.93 4000.67,-18.01"/>
<text text-anchor="middle" x="4366" y="-304.91" font-family="Times,serif" font-size="14.00">notify_borrower_of_default|pay(normal, borrower, lender, 525)</text>
</g>
<!-- s15&#45;&gt;s10 -->
<g id="edge50" class="edge">
<title>s15&#45;&gt;s10</title>
<path fill="none" stroke="black" d="M3548.56,-598.27C3619.12,-591.85 3867.12,-569.15 3875,-566.69 3903.68,-557.72 3918.8,-559.61 3934,-533.69 3961.07,-487.54 3942.24,-452.9 3902,-417.63 3816.42,-342.62 3596.24,-384.2 3674,-301.11 3715.24,-257.04 3901.15,-324.58 3945,-283.11 3963.55,-265.56 3952,-251.62 3952,-226.08 3952,-226.08 3952,-226.08 3952,-98.79 3952,-79.06 3957.59,-57.41 3962.86,-41.38"/>
<polygon fill="black" stroke="black" points="3966.24,-42.32 3966.22,-31.73 3959.62,-40.02 3966.24,-42.32"/>
<text text-anchor="middle" x="3831.5" y="-304.91" font-family="Times,serif" font-size="14.00">dont_notify_borrower|pay(normal, borrower, lender, 525)</text>
</g>
<!-- s15&#45;&gt;s13 -->
<g id="edge47" class="edge">
<title>s15&#45;&gt;s13</title>
<path fill="none" stroke="black" d="M3511.49,-602.52C3446.12,-604.71 3226.53,-613.53 3160,-635.22 3147.68,-639.23 3147.4,-646.45 3135,-650.22 3096.47,-661.93 2800.76,-639.04 2773,-668.22 2763.03,-678.69 2763.15,-690.16 2773,-700.74 2810.94,-741.52 2985.06,-677.97 3023,-718.74 3027.54,-723.62 3027.46,-728.79 3023,-733.74 3004.02,-754.83 2810.87,-763.54 2736.75,-766.12"/>
<polygon fill="black" stroke="black" points="2736.19,-762.64 2726.32,-766.47 2736.43,-769.63 2736.19,-762.64"/>
<text text-anchor="middle" x="2982" y="-680.78" font-family="Times,serif" font-size="14.00">notify_borrower_of_default|payment_default(normal, borrower, lender, 525)</text>
</g>
<!-- s18 -->
<g id="node19" class="node">
<title>s18</title>
<ellipse fill="none" stroke="black" cx="3020" cy="-350.37" rx="18.27" ry="16.03"/>
<text text-anchor="middle" x="3020" y="-346.67" font-family="Times,serif" font-size="14.00">[]</text>
</g>
<!-- s15&#45;&gt;s18 -->
<g id="edge45" class="edge">
<title>s15&#45;&gt;s18</title>
<path fill="none" stroke="black" d="M3548.31,-598.19C3621.71,-590.93 3891.79,-562.41 3916,-533.69 3925.32,-522.64 3925.85,-511.74 3916,-501.16 3877.58,-459.92 3714.28,-506.57 3663,-483.16 3644.13,-474.55 3642.85,-466.44 3630,-450.16 3619.48,-436.84 3624.36,-426.67 3610,-417.63 3577.28,-397.05 3475.2,-405.53 3437,-399.63 3404.27,-394.58 3396.76,-389.52 3364,-384.63 3279.23,-371.99 3257.31,-374.92 3172,-366.63 3128.98,-362.46 3079.12,-357.41 3048.58,-354.3"/>
<polygon fill="black" stroke="black" points="3048.55,-350.78 3038.25,-353.24 3047.84,-357.74 3048.55,-350.78"/>
<text text-anchor="middle" x="3795.5" y="-471.96" font-family="Times,serif" font-size="14.00">payment_default(normal, borrower, lender, 525)</text>
</g>
<!-- s15&#45;&gt;s21 -->
<g id="edge48" class="edge">
<title>s15&#45;&gt;s21</title>
<path fill="none" stroke="black" d="M3530.61,-584.65C3531.51,-553.36 3531.55,-483.68 3515,-468.16 3491.53,-446.16 3406.12,-460.03 3361.12,-448.81"/>
<polygon fill="black" stroke="black" points="3361.97,-445.41 3351.38,-445.7 3359.84,-452.07 3361.97,-445.41"/>
<text text-anchor="middle" x="3723.5" y="-513.72" font-family="Times,serif" font-size="14.00">dont_notify_borrower|payment_default(normal, borrower, lender, 525)</text>
</g>
<!-- s15&#45;&gt;s22 -->
<g id="edge44" class="edge">
<title>s15&#45;&gt;s22</title>
<path fill="none" stroke="black" d="M3512.14,-596.4C3494.04,-592.92 3465.18,-587.71 3440,-584.69 3412.02,-581.33 3209.41,-583.78 3187,-566.69 3184.84,-565.04 3180.87,-553.97 3177.31,-542.85"/>
<polygon fill="black" stroke="black" points="3180.65,-541.8 3174.34,-533.29 3173.97,-543.88 3180.65,-541.8"/>
<text text-anchor="middle" x="3247" y="-555.49" font-family="Times,serif" font-size="14.00">dont_notify_borrower</text>
</g>
<!-- s16 -->
<g id="node17" class="node">
<title>s16</title>
<ellipse fill="none" stroke="black" cx="1267" cy="-433.9" rx="18.27" ry="16.03"/>
<text text-anchor="middle" x="1267" y="-430.2" font-family="Times,serif" font-size="14.00">[]</text>
</g>
<!-- s16&#45;&gt;s3 -->
<g id="edge51" class="edge">
<title>s16&#45;&gt;s3</title>
<path fill="none" stroke="black" d="M1268.92,-417.58C1269.34,-406.78 1267.85,-392.83 1259,-384.63 1233.34,-360.87 991.29,-353.68 907.43,-351.89"/>
<polygon fill="black" stroke="black" points="907.42,-348.39 897.35,-351.68 907.28,-355.38 907.42,-348.39"/>
<text text-anchor="middle" x="1378.5" y="-388.43" font-family="Times,serif" font-size="14.00">dont_cure_default|dont_notify_borrower</text>
</g>
<!-- s16&#45;&gt;s3 -->
<g id="edge52" class="edge">
<title>s16&#45;&gt;s3</title>
<path fill="none" stroke="black" d="M1248.75,-431.49C1175.73,-425.82 908.19,-404.73 901,-399.63 896.62,-396.53 891.66,-386.22 887.56,-375.93"/>
<polygon fill="black" stroke="black" points="890.73,-374.43 883.94,-366.3 884.18,-376.89 890.73,-374.43"/>
<text text-anchor="middle" x="1027.5" y="-388.43" font-family="Times,serif" font-size="14.00">dont_cure_default|notify_borrower_of_default</text>
</g>
<!-- s16&#45;&gt;s3 -->
<g id="edge58" class="edge">
<title>s16&#45;&gt;s3</title>
<path fill="none" stroke="black" d="M1248.56,-431.49C1225.3,-428.83 1185.18,-421.23 1159,-399.63 1153.17,-394.83 1157.23,-388.91 1151,-384.63 1111.96,-357.85 969.19,-352.61 907.6,-351.6"/>
<polygon fill="black" stroke="black" points="907.47,-348.1 897.42,-351.46 907.37,-355.1 907.47,-348.1"/>
<text text-anchor="middle" x="1208.5" y="-388.43" font-family="Times,serif" font-size="14.00">dont_cure_default</text>
</g>
<!-- s16&#45;&gt;s6 -->
<g id="edge53" class="edge">
<title>s16&#45;&gt;s6</title>
<path fill="none" stroke="black" d="M1248.89,-437.03C1210.19,-441.69 1116.64,-453.56 1039,-468.16 1009.86,-473.64 1002.96,-476.79 974,-483.16 935.86,-491.55 912.62,-470.85 888,-501.16 868.81,-524.79 890.59,-559.03 908.48,-580.36"/>
<polygon fill="black" stroke="black" points="906.06,-582.92 915.29,-588.12 911.32,-578.3 906.06,-582.92"/>
<text text-anchor="middle" x="963.5" y="-513.72" font-family="Times,serif" font-size="14.00">notify_borrower_of_default</text>
</g>
<!-- s16&#45;&gt;s9 -->
<g id="edge54" class="edge">
<title>s16&#45;&gt;s9</title>
<path fill="none" stroke="black" d="M1284.7,-438.83C1310.75,-444.71 1360.87,-456.36 1403,-468.16 1495.92,-494.2 1517.85,-505.05 1610,-533.69 1636.18,-541.83 1652.69,-529.66 1669,-551.69 1708.49,-605.03 1620.38,-647.5 1660,-700.74 1665.8,-708.53 1742.07,-693.97 1720,-733.74 1685.94,-795.1 1651.46,-791.96 1586,-817.27 1469.28,-862.4 1432.68,-848.69 1309,-867.8 1277.56,-872.65 1188.03,-861.93 1167,-885.8 1134.57,-922.6 1220.52,-901.98 1277.93,-919.86"/>
<polygon fill="black" stroke="black" points="1276.98,-923.24 1287.58,-923.37 1279.37,-916.66 1276.98,-923.24"/>
<text text-anchor="middle" x="1771" y="-680.78" font-family="Times,serif" font-size="14.00">cure_default|notify_borrower_of_default</text>
</g>
<!-- s16&#45;&gt;s11 -->
<g id="edge55" class="edge">
<title>s16&#45;&gt;s11</title>
<path fill="none" stroke="black" d="M1285.29,-437.13C1321.79,-441.73 1406.14,-453.12 1476,-468.16 1530.49,-479.89 1547.42,-475.69 1597,-501.16 1617.38,-511.63 1616.7,-523.05 1637,-533.69 1662.42,-547.01 1671.72,-542.79 1699,-551.69 1739.9,-565.03 1751.33,-565.83 1790,-584.69 1890.87,-633.88 1935.13,-630.13 2004,-718.74 2006.35,-721.76 2022.04,-781.85 2025,-784.27 2053.21,-807.33 2153.28,-791.2 2188,-802.27 2201.08,-806.44 2201.79,-813.53 2215,-817.27 2302.55,-842.02 2533.78,-823.59 2624,-835.27 2691.65,-844.03 2706.95,-855.24 2774,-867.8 2916.85,-894.54 2954.71,-889.2 3097,-918.8 3184.65,-937.03 3237.21,-898.52 3292,-969.32 3388.12,-1093.52 2010.23,-1100.74 1791.92,-1101.1"/>
<polygon fill="black" stroke="black" points="1791.59,-1097.6 1781.6,-1101.11 1791.6,-1104.6 1791.59,-1097.6"/>
<text text-anchor="middle" x="2120" y="-764.31" font-family="Times,serif" font-size="14.00">cure_default|dont_notify_borrower</text>
</g>
<!-- s16&#45;&gt;s12 -->
<g id="edge57" class="edge">
<title>s16&#45;&gt;s12</title>
<path fill="none" stroke="black" d="M1284.99,-438.21C1315.52,-443.91 1379.38,-456.09 1433,-468.16 1492,-481.44 1508.97,-478.42 1565,-501.16 1591.67,-511.99 1594.7,-521.99 1621,-533.69 1644.89,-544.32 1653.03,-541.25 1677,-551.69 1774.15,-594.01 1803.69,-600.27 1885,-668.22 1892.24,-674.26 1931.09,-728.6 1939,-733.74 1964.14,-750.07 1981.41,-732.04 2004,-751.74 2015.86,-762.09 2005.39,-774.86 2018,-784.27 2045.26,-804.61 2137.63,-791.81 2170,-802.27 2183.06,-806.49 2183.79,-813.53 2197,-817.27 2283.47,-841.74 2520.51,-795.3 2601,-835.27 2651.3,-860.25 2655.22,-895.32 2651,-951.32 2649.89,-966.12 2650.55,-970.2 2646,-984.32 2644.89,-987.76 2643.46,-991.28 2641.9,-994.67"/>
<polygon fill="black" stroke="black" points="2638.69,-993.27 2637.32,-1003.77 2644.95,-996.41 2638.69,-993.27"/>
<text text-anchor="middle" x="1973" y="-722.54" font-family="Times,serif" font-size="14.00">cure_default</text>
</g>
<!-- s16&#45;&gt;s24 -->
<g id="edge56" class="edge">
<title>s16&#45;&gt;s24</title>
<path fill="none" stroke="black" d="M1265.28,-450.29C1264.01,-459.86 1261.97,-472.35 1259,-483.16 1258.16,-486.23 1257.13,-489.41 1256.02,-492.52"/>
<polygon fill="black" stroke="black" points="1252.67,-491.48 1252.36,-502.07 1259.21,-493.99 1252.67,-491.48"/>
<text text-anchor="middle" x="1323" y="-471.96" font-family="Times,serif" font-size="14.00">dont_notify_borrower</text>
</g>
<!-- s17&#45;&gt;s0 -->
<g id="edge72" class="edge">
<title>s17&#45;&gt;s0</title>
<path fill="none" stroke="black" d="M3106.66,-278.76C3103.93,-280.5 3100.98,-282.06 3098,-283.11 3041.88,-302.77 2884.09,-274.32 2831,-301.11 2760.43,-336.71 2795.95,-401.07 2734,-450.16 2713.18,-466.66 2697.43,-451.18 2677,-468.16 2671.19,-472.99 2674.94,-478.49 2669,-483.16 2643.75,-503.02 2619.43,-476.37 2599,-501.16 2579.84,-524.42 2585.85,-613.85 2590.2,-658.22"/>
<polygon fill="black" stroke="black" points="2586.72,-658.62 2591.22,-668.21 2593.68,-657.91 2586.72,-658.62"/>
<text text-anchor="middle" x="2737" y="-471.96" font-family="Times,serif" font-size="14.00">dont_notify_borrower</text>
</g>
<!-- s17&#45;&gt;s2 -->
<g id="edge67" class="edge">
<title>s17&#45;&gt;s2</title>
<path fill="none" stroke="black" d="M3136.44,-259.3C3171.27,-244.47 3247.08,-206.53 3219,-167.05 3168.76,-96.41 2517.58,-98.96 2371.12,-100.43"/>
<polygon fill="black" stroke="black" points="2370.68,-96.94 2360.72,-100.54 2370.75,-103.94 2370.68,-96.94"/>
<text text-anchor="middle" x="3335.5" y="-179.62" font-family="Times,serif" font-size="14.00">dont_cure_default|dont_notify_borrower</text>
</g>
<!-- s17&#45;&gt;s2 -->
<g id="edge68" class="edge">
<title>s17&#45;&gt;s2</title>
<path fill="none" stroke="black" d="M3106.51,-255.3C3103.8,-253.53 3100.89,-251.86 3098,-250.58 3037.52,-223.92 3017.65,-231.33 2953,-217.58 2912.67,-209.01 2891.37,-228.51 2862,-199.58 2840.78,-178.68 2870.53,-153.53 2848,-134.05 2811.82,-102.77 2472.39,-100.63 2370.67,-100.7"/>
<polygon fill="black" stroke="black" points="2370.52,-97.2 2360.52,-100.71 2370.53,-104.2 2370.52,-97.2"/>
<text text-anchor="middle" x="2988.5" y="-179.62" font-family="Times,serif" font-size="14.00">dont_cure_default|notify_borrower_of_default</text>
</g>
<!-- s17&#45;&gt;s2 -->
<g id="edge74" class="edge">
<title>s17&#45;&gt;s2</title>
<path fill="none" stroke="black" d="M3119.8,-250.29C3119.3,-223.98 3117.61,-172.94 3112,-167.05 3059.93,-112.45 2504.94,-102.65 2370.98,-101.07"/>
<polygon fill="black" stroke="black" points="2370.74,-97.57 2360.7,-100.95 2370.66,-104.57 2370.74,-97.57"/>
<text text-anchor="middle" x="3166.5" y="-179.62" font-family="Times,serif" font-size="14.00">dont_cure_default</text>
</g>
<!-- s17&#45;&gt;s7 -->
<g id="edge69" class="edge">
<title>s17&#45;&gt;s7</title>
<path fill="none" stroke="black" d="M3106.66,-254.92C3103.94,-253.18 3100.99,-251.62 3098,-250.58 3036.37,-229.2 2862.9,-262.63 2805,-232.58 2797.42,-228.65 2800.16,-222.22 2793,-217.58 2762.55,-197.84 2720.92,-189.8 2693.52,-186.53"/>
<polygon fill="black" stroke="black" points="2693.73,-183.03 2683.41,-185.47 2692.99,-190 2693.73,-183.03"/>
<text text-anchor="middle" x="2880.5" y="-221.38" font-family="Times,serif" font-size="14.00">notify_borrower_of_default</text>
</g>
<!-- s17&#45;&gt;s8 -->
<g id="edge70" class="edge">
<title>s17&#45;&gt;s8</title>
<path fill="none" stroke="black" d="M3138.46,-269.58C3243.91,-279.73 3769.92,-333.95 3906,-417.63 3947.26,-443.01 3958.36,-456.05 3976,-501.16 3993.76,-546.59 3989.25,-603.29 3980,-617.22 3927.05,-696.95 3675.97,-761.52 3583,-784.27 3487.71,-807.59 3460.51,-791.52 3363,-802.27 3314.83,-807.58 3303.17,-812.01 3255,-817.27 3108.98,-833.21 2933.48,-844.68 2865.67,-848.83"/>
<polygon fill="black" stroke="black" points="2865.14,-845.36 2855.37,-849.46 2865.56,-852.34 2865.14,-845.36"/>
<text text-anchor="middle" x="4099" y="-555.49" font-family="Times,serif" font-size="14.00">cure_default|notify_borrower_of_default</text>
</g>
<!-- s17&#45;&gt;s15 -->
<g id="edge73" class="edge">
<title>s17&#45;&gt;s15</title>
<path fill="none" stroke="black" d="M3138.29,-269.16C3180.2,-272.41 3286.26,-281.99 3373,-301.11 3494.42,-327.87 3521.67,-346.45 3640,-384.63 3727.81,-412.97 3747.86,-426.31 3837,-450.16 3875.56,-460.48 3899.76,-437.23 3925,-468.16 3943.42,-490.73 3939.88,-509.94 3923,-533.69 3899.76,-566.38 3877.95,-557.12 3839,-566.69 3812.09,-573.3 3629.35,-590.72 3558.24,-597.35"/>
<polygon fill="black" stroke="black" points="3557.84,-593.87 3548.2,-598.28 3558.48,-600.84 3557.84,-593.87"/>
<text text-anchor="middle" x="3871" y="-430.2" font-family="Times,serif" font-size="14.00">cure_default</text>
</g>
<!-- s17&#45;&gt;s22 -->
<g id="edge71" class="edge">
<title>s17&#45;&gt;s22</title>
<path fill="none" stroke="black" d="M3138.15,-269.43C3197.34,-274.95 3383.41,-295.12 3427,-334.11 3449.9,-354.59 3425.12,-380.31 3449,-399.63 3476.29,-421.73 3582.63,-391.43 3606,-417.63 3643.12,-459.25 3553.72,-472.4 3499,-483.16 3411,-500.47 3387.21,-491.85 3298,-501.16 3263.72,-504.74 3224.36,-509.54 3198.44,-512.79"/>
<polygon fill="black" stroke="black" points="3197.69,-509.36 3188.21,-514.08 3198.57,-516.3 3197.69,-509.36"/>
<text text-anchor="middle" x="3544" y="-388.43" font-family="Times,serif" font-size="14.00">cure_default|dont_notify_borrower</text>
</g>
<!-- s18&#45;&gt;s0 -->
<g id="edge42" class="edge">
<title>s18&#45;&gt;s0</title>
<path fill="none" stroke="black" d="M3003.33,-357.73C2995.66,-360.58 2986.41,-363.91 2978,-366.63 2950.3,-375.61 2934.13,-362.68 2915,-384.63 2885.94,-417.98 2933.4,-453.05 2901,-483.16 2857.93,-523.19 2684.18,-466.06 2637,-501.16 2582.48,-541.72 2617.93,-583.93 2603,-650.22 2602.35,-653.08 2601.59,-656.07 2600.78,-659.01"/>
<polygon fill="black" stroke="black" points="2597.4,-658.11 2597.93,-668.69 2604.11,-660.09 2597.4,-658.11"/>
<text text-anchor="middle" x="2774" y="-513.72" font-family="Times,serif" font-size="14.00">dont_notify_borrower|notify_borrower_of_default</text>
</g>
<!-- s18&#45;&gt;s7 -->
<g id="edge39" class="edge">
<title>s18&#45;&gt;s7</title>
<path fill="none" stroke="black" d="M3003.34,-342.98C2995.67,-340.13 2986.42,-336.81 2978,-334.11 2897.6,-308.34 2853.29,-344.19 2795,-283.11 2774.37,-261.49 2800.52,-239.3 2780,-217.58 2757.67,-193.95 2719.68,-186.78 2693.52,-184.77"/>
<polygon fill="black" stroke="black" points="2693.63,-181.28 2683.45,-184.21 2693.23,-188.26 2693.63,-181.28"/>
<text text-anchor="middle" x="2947.5" y="-263.14" font-family="Times,serif" font-size="14.00">notify_borrower_of_default|notify_borrower_of_default</text>
</g>
<!-- s18&#45;&gt;s8 -->
<g id="edge40" class="edge">
<title>s18&#45;&gt;s8</title>
<path fill="none" stroke="black" d="M3038.22,-353.56C3066.72,-356.9 3123.58,-363.24 3172,-366.63 3272.5,-373.67 3528.53,-355.58 3625,-384.63 3678.76,-400.83 3679.68,-432.58 3733,-450.16 3774.54,-463.86 3896.43,-438.97 3929,-468.16 4022.74,-552.18 3966.72,-544.34 3946,-566.69 3910.09,-605.43 3747.73,-548.78 3709,-584.69 3687.4,-604.72 3718.09,-627.78 3699,-650.22 3620.61,-742.32 3558.37,-708.89 3440,-733.74 3401.52,-741.82 3293.83,-726.13 3264,-751.74 3241.17,-771.34 3270.03,-797.91 3247,-817.27 3217.91,-841.72 2953.71,-848.51 2865.51,-850.1"/>
<polygon fill="black" stroke="black" points="2865.36,-846.6 2855.43,-850.27 2865.48,-853.6 2865.36,-846.6"/>
<text text-anchor="middle" x="3846" y="-597.25" font-family="Times,serif" font-size="14.00">dont_notify_borrower|notify_borrower_of_default</text>
</g>
<!-- s18&#45;&gt;s13 -->
<g id="edge36" class="edge">
<title>s18&#45;&gt;s13</title>
<path fill="none" stroke="black" d="M3002.31,-355.68C2986.75,-360.35 2964.53,-369.26 2951,-384.63 2905.45,-436.39 2959.75,-488.13 2908,-533.69 2865.54,-571.07 2828.32,-519.22 2782,-551.69 2775.81,-556.03 2779.12,-561.13 2774,-566.69 2763.97,-577.57 2754.26,-572.42 2746,-584.69 2708.35,-640.6 2733.95,-668.25 2718,-733.74 2717.3,-736.6 2716.51,-739.57 2715.68,-742.52"/>
<polygon fill="black" stroke="black" points="2712.3,-741.61 2712.82,-752.2 2719.01,-743.6 2712.3,-741.61"/>
<text text-anchor="middle" x="2857.5" y="-555.49" font-family="Times,serif" font-size="14.00">notify_borrower_of_default</text>
</g>
<!-- s18&#45;&gt;s15 -->
<g id="edge37" class="edge">
<title>s18&#45;&gt;s15</title>
<path fill="none" stroke="black" d="M3003.41,-357.41C2990.75,-362.78 2973.72,-371.79 2963,-384.63 2934.93,-418.25 2932.96,-452.27 2964,-483.16 3036.66,-555.48 3079.25,-543.07 3179,-566.69 3296.19,-594.44 3440.58,-599.18 3501.13,-599.89"/>
<polygon fill="black" stroke="black" points="3501.41,-603.39 3511.44,-599.98 3501.47,-596.39 3501.41,-603.39"/>
<text text-anchor="middle" x="3024" y="-471.96" font-family="Times,serif" font-size="14.00">dont_notify_borrower</text>
</g>
<!-- s18&#45;&gt;s17 -->
<g id="edge35" class="edge">
<title>s18&#45;&gt;s17</title>
<path fill="none" stroke="black" d="M3017.01,-334.13C3015.87,-323.65 3016.35,-310.05 3024,-301.11 3044.19,-277.49 3063.66,-293.76 3097.17,-282.17"/>
<polygon fill="black" stroke="black" points="3098.57,-285.38 3106.5,-278.35 3095.92,-278.9 3098.57,-285.38"/>
<text text-anchor="middle" x="3099.5" y="-304.91" font-family="Times,serif" font-size="14.00">notify_borrower_of_default</text>
</g>
<!-- s18&#45;&gt;s21 -->
<g id="edge38" class="edge">
<title>s18&#45;&gt;s21</title>
<path fill="none" stroke="black" d="M3038.01,-353.7C3070.53,-358.13 3141.08,-368.78 3199,-384.63 3217.71,-389.76 3221.42,-394.06 3240,-399.63 3270.52,-408.8 3282.34,-404.39 3315.17,-418.21"/>
<polygon fill="black" stroke="black" points="3313.94,-421.5 3324.5,-422.38 3316.8,-415.11 3313.94,-421.5"/>
<text text-anchor="middle" x="3300" y="-388.43" font-family="Times,serif" font-size="14.00">dont_notify_borrower</text>
</g>
<!-- s18&#45;&gt;s22 -->
<g id="edge41" class="edge">
<title>s18&#45;&gt;s22</title>
<path fill="none" stroke="black" d="M3038.49,-353.21C3067.4,-356.08 3125.07,-361.8 3174,-366.63 3194.33,-368.64 3342.17,-370.58 3357,-384.63 3378.38,-404.9 3346.06,-429.44 3367,-450.16 3407.53,-490.26 3456.62,-425.11 3494,-468.16 3498.37,-473.2 3498.49,-478.24 3494,-483.16 3479.34,-499.24 3320.64,-498.88 3299,-501.16 3264.31,-504.81 3224.44,-509.63 3198.32,-512.86"/>
<polygon fill="black" stroke="black" points="3197.85,-509.39 3188.35,-514.1 3198.71,-516.34 3197.85,-509.39"/>
<text text-anchor="middle" x="3488" y="-430.2" font-family="Times,serif" font-size="14.00">dont_notify_borrower|dont_notify_borrower</text>
</g>
<!-- s19&#45;&gt;s6 -->
<g id="edge31" class="edge">
<title>s19&#45;&gt;s6</title>
<path fill="none" stroke="black" d="M1381.5,-682.33C1295.08,-676.94 935.09,-654.25 931,-650.22 925.03,-644.31 923.11,-635.68 922.98,-627.33"/>
<polygon fill="black" stroke="black" points="926.49,-627.35 923.62,-617.15 919.5,-626.91 926.49,-627.35"/>
<text text-anchor="middle" x="1083.5" y="-639.02" font-family="Times,serif" font-size="14.00">notify_borrower_of_default|notify_borrower_of_default</text>
</g>
<!-- s19&#45;&gt;s9 -->
<g id="edge32" class="edge">
<title>s19&#45;&gt;s9</title>
<path fill="none" stroke="black" d="M1395.47,-700.6C1392.09,-710.52 1386.87,-723.5 1380,-733.74 1355.92,-769.64 1330.87,-763.88 1311,-802.27 1297.43,-828.5 1321.39,-847.43 1300,-867.8 1250.41,-915.01 1192.5,-834.63 1147,-885.8 1108.7,-928.87 1212.13,-899.89 1278.15,-919.98"/>
<polygon fill="black" stroke="black" points="1277,-923.28 1287.6,-923.31 1279.33,-916.68 1277,-923.28"/>
<text text-anchor="middle" x="1448" y="-806.07" font-family="Times,serif" font-size="14.00">dont_notify_borrower|notify_borrower_of_default</text>
</g>
<!-- s19&#45;&gt;s11 -->
<g id="edge34" class="edge">
<title>s19&#45;&gt;s11</title>
<path fill="none" stroke="black" d="M1418.69,-685.7C1492.15,-687.08 1757,-696.91 1757,-767.01 1757,-1019.59 1757,-1019.59 1757,-1019.59 1757,-1038.38 1758.61,-1059.55 1760.16,-1075.61"/>
<polygon fill="black" stroke="black" points="1756.7,-1076.22 1761.2,-1085.81 1763.66,-1075.51 1756.7,-1076.22"/>
<text text-anchor="middle" x="1878" y="-889.6" font-family="Times,serif" font-size="14.00">dont_notify_borrower|dont_notify_borrower</text>
</g>
<!-- s19&#45;&gt;s12 -->
<g id="edge29" class="edge">
<title>s19&#45;&gt;s12</title>
<path fill="none" stroke="black" d="M1418.53,-686.74C1490.21,-691.69 1746.12,-709.91 1761,-718.74 1776.08,-727.69 1790.46,-774.46 1805,-784.27 1896.5,-845.96 1940.39,-810.82 2048,-835.27 2107.34,-848.75 2120.74,-859.28 2181,-867.8 2205.28,-871.23 2604.56,-868.56 2622,-885.8 2636.49,-900.11 2634.23,-958.09 2631.5,-992.19"/>
<polygon fill="black" stroke="black" points="2628,-992.07 2630.61,-1002.34 2634.97,-992.68 2628,-992.07"/>
<text text-anchor="middle" x="2241" y="-847.83" font-family="Times,serif" font-size="14.00">dont_notify_borrower</text>
</g>
<!-- s19&#45;&gt;s14 -->
<g id="edge28" class="edge">
<title>s19&#45;&gt;s14</title>
<path fill="none" stroke="black" d="M1381.7,-686.7C1303.99,-692.1 1001.37,-715.11 914,-751.74 879.93,-766.03 875.36,-777.45 848,-802.27 841.25,-808.4 841.78,-812.51 834,-817.27 806.77,-833.95 770.83,-842.56 746.22,-846.8"/>
<polygon fill="black" stroke="black" points="745.43,-843.38 736.1,-848.4 746.53,-850.29 745.43,-843.38"/>
<text text-anchor="middle" x="989.5" y="-764.31" font-family="Times,serif" font-size="14.00">notify_borrower_of_default</text>
</g>
<!-- s19&#45;&gt;s16 -->
<g id="edge27" class="edge">
<title>s19&#45;&gt;s16</title>
<path fill="none" stroke="black" d="M1417.78,-680.15C1446.49,-673.72 1502.23,-656.57 1526,-617.22 1533.47,-604.84 1532.18,-597.76 1526,-584.69 1491.09,-510.89 1456.34,-506.01 1384,-468.16 1355.48,-453.24 1319.44,-444.29 1294.95,-439.5"/>
<polygon fill="black" stroke="black" points="1295.36,-436.01 1284.89,-437.64 1294.09,-442.9 1295.36,-436.01"/>
<text text-anchor="middle" x="1592.5" y="-555.49" font-family="Times,serif" font-size="14.00">notify_borrower_of_default</text>
</g>
<!-- s19&#45;&gt;s20 -->
<g id="edge30" class="edge">
<title>s19&#45;&gt;s20</title>
<path fill="none" stroke="black" d="M1381.69,-686.21C1353.97,-688.1 1300.57,-694.81 1263,-718.74 1255.8,-723.33 1258.29,-729.3 1251,-733.74 1208.19,-759.81 1148.74,-765.91 1113.83,-767.08"/>
<polygon fill="black" stroke="black" points="1113.33,-763.58 1103.41,-767.3 1113.48,-770.58 1113.33,-763.58"/>
<text text-anchor="middle" x="1323" y="-722.54" font-family="Times,serif" font-size="14.00">dont_notify_borrower</text>
</g>
<!-- s19&#45;&gt;s24 -->
<g id="edge33" class="edge">
<title>s19&#45;&gt;s24</title>
<path fill="none" stroke="black" d="M1402.17,-668.31C1402.78,-657.58 1401.56,-643.66 1393,-635.22 1348.95,-591.79 1297.88,-661.79 1255,-617.22 1250.02,-612.04 1247.71,-571.64 1246.7,-544.14"/>
<polygon fill="black" stroke="black" points="1250.2,-543.86 1246.37,-533.98 1243.2,-544.09 1250.2,-543.86"/>
<text text-anchor="middle" x="1392" y="-597.25" font-family="Times,serif" font-size="14.00">dont_notify_borrower|notify_borrower_of_default</text>
</g>
<!-- s20&#45;&gt;s11 -->
<g id="edge23" class="edge">
<title>s20&#45;&gt;s11</title>
<path fill="none" stroke="black" d="M1071.59,-779.74C1068.87,-781.5 1065.94,-783.12 1063,-784.27 1009.93,-805.08 986.56,-775.93 936,-802.27 927.91,-806.48 929.8,-812.55 922,-817.27 849.43,-861.16 820.66,-848.85 738,-867.8 677.21,-881.73 501.9,-870.85 462,-918.8 452.75,-929.91 452.9,-940.09 462,-951.32 618.69,-1144.84 763,-1036.35 1010,-1067.85 1290.57,-1103.63 1634.16,-1102.7 1734.33,-1101.55"/>
<polygon fill="black" stroke="black" points="1734.6,-1105.04 1744.56,-1101.42 1734.51,-1098.04 1734.6,-1105.04"/>
<text text-anchor="middle" x="522" y="-931.36" font-family="Times,serif" font-size="14.00">dont_notify_borrower</text>
</g>
<!-- s20&#45;&gt;s12 -->
<g id="edge26" class="edge">
<title>s20&#45;&gt;s12</title>
<path fill="none" stroke="black" d="M1103.74,-769.35C1169.95,-770.77 1398.93,-777.3 1586,-802.27 1772.06,-827.1 1839.74,-788.07 2000,-885.8 2007.29,-890.24 2005.11,-895.76 2012,-900.8 2095.78,-962.01 2128.85,-961.22 2230,-984.32 2366.09,-1015.4 2534.2,-1018.19 2600.35,-1017.95"/>
<polygon fill="black" stroke="black" points="2600.45,-1021.45 2610.42,-1017.88 2600.4,-1014.45 2600.45,-1021.45"/>
<text text-anchor="middle" x="2120.5" y="-889.6" font-family="Times,serif" font-size="14.00">borrower_default|dont_notify_borrower</text>
</g>
<!-- s20&#45;&gt;s16 -->
<g id="edge25" class="edge">
<title>s20&#45;&gt;s16</title>
<path fill="none" stroke="black" d="M1071.4,-756.69C1068.7,-754.9 1065.83,-753.16 1063,-751.74 999.31,-719.78 952.61,-758.59 911,-700.74 893.71,-676.71 905.37,-659 923,-635.22 930.94,-624.51 937.52,-626.59 947,-617.22 959.97,-604.4 958.77,-597.23 972,-584.69 1012.07,-546.69 1135.77,-480.74 1164,-468.16 1188.82,-457.11 1218.45,-447.93 1239.55,-442.04"/>
<polygon fill="black" stroke="black" points="1240.72,-445.34 1249.45,-439.34 1238.88,-438.59 1240.72,-445.34"/>
<text text-anchor="middle" x="1096" y="-597.25" font-family="Times,serif" font-size="14.00">borrower_default|notify_borrower_of_default</text>
</g>
<!-- s20&#45;&gt;s19 -->
<g id="edge24" class="edge">
<title>s20&#45;&gt;s19</title>
<path fill="none" stroke="black" d="M1101.37,-760.59C1114.79,-754.83 1133.8,-745.49 1148,-733.74 1154.58,-728.3 1152.58,-722.96 1160,-718.74 1195.57,-698.52 1315.66,-689.83 1371.29,-686.81"/>
<polygon fill="black" stroke="black" points="1371.7,-690.3 1381.51,-686.29 1371.34,-683.31 1371.7,-690.3"/>
<text text-anchor="middle" x="1207" y="-722.54" font-family="Times,serif" font-size="14.00">borrower_default</text>
</g>
<!-- s20&#45;&gt;s24 -->
<g id="edge22" class="edge">
<title>s20&#45;&gt;s24</title>
<path fill="none" stroke="black" d="M1098.81,-757.07C1134.01,-731.62 1224.91,-665 1233,-650.22 1242.66,-632.55 1245.19,-577.34 1245.82,-544.25"/>
<polygon fill="black" stroke="black" points="1249.32,-544.01 1245.97,-533.96 1242.33,-543.91 1249.32,-544.01"/>
<text text-anchor="middle" x="1314.5" y="-639.02" font-family="Times,serif" font-size="14.00">notify_borrower_of_default</text>
</g>
<!-- s21&#45;&gt;s0 -->
<g id="edge18" class="edge">
<title>s21&#45;&gt;s0</title>
<path fill="none" stroke="black" d="M3325.15,-445.55C3322.3,-447.41 3319.17,-449.09 3316,-450.16 3276.08,-463.7 2972.63,-445.63 2937,-468.16 2909.09,-485.81 2929.75,-515.8 2902,-533.69 2850.34,-566.99 2670.66,-509.46 2626,-551.69 2609.97,-566.84 2621.4,-629.44 2614,-650.22 2612.6,-654.16 2610.66,-658.11 2608.53,-661.86"/>
<polygon fill="black" stroke="black" points="2605.4,-660.26 2603.02,-670.58 2611.32,-664 2605.4,-660.26"/>
<text text-anchor="middle" x="2701.5" y="-555.49" font-family="Times,serif" font-size="14.00">notify_borrower_of_default</text>
</g>
<!-- s21&#45;&gt;s15 -->
<g id="edge21" class="edge">
<title>s21&#45;&gt;s15</title>
<path fill="none" stroke="black" d="M3351.39,-445.69C3354.11,-447.44 3357.04,-449.04 3360,-450.16 3391.38,-462.08 3487.72,-443.05 3510,-468.16 3514.42,-473.15 3514.5,-478.24 3510,-483.16 3479.42,-516.57 3337.58,-467.75 3307,-501.16 3297.24,-511.83 3297.6,-522.7 3307,-533.69 3323.82,-553.34 3397.2,-544.35 3422,-551.69 3451.89,-560.53 3484.29,-575.85 3505.73,-586.86"/>
<polygon fill="black" stroke="black" points="3504.27,-590.05 3514.76,-591.58 3507.51,-583.85 3504.27,-590.05"/>
<text text-anchor="middle" x="3415.5" y="-513.72" font-family="Times,serif" font-size="14.00">borrower_default|dont_notify_borrower</text>
</g>
<!-- s21&#45;&gt;s17 -->
<g id="edge20" class="edge">
<title>s21&#45;&gt;s17</title>
<path fill="none" stroke="black" d="M3350.23,-421.47C3360.05,-410.95 3370.71,-395.37 3361,-384.63 3334.18,-354.99 3210.98,-394.17 3182,-366.63 3160.64,-346.34 3188.06,-325.81 3172,-301.11 3165.67,-291.37 3155.38,-283.92 3145.62,-278.56"/>
<polygon fill="black" stroke="black" points="3147.08,-275.38 3136.57,-274.06 3143.96,-281.64 3147.08,-275.38"/>
<text text-anchor="middle" x="3306" y="-346.67" font-family="Times,serif" font-size="14.00">borrower_default|notify_borrower_of_default</text>
</g>
<!-- s21&#45;&gt;s18 -->
<g id="edge19" class="edge">
<title>s21&#45;&gt;s18</title>
<path fill="none" stroke="black" d="M3324.64,-422.03C3321.92,-420.29 3318.97,-418.71 3316,-417.63 3228.72,-386.13 3196.81,-426.52 3108,-399.63 3084.22,-392.43 3059.63,-378.28 3042.51,-367.15"/>
<polygon fill="black" stroke="black" points="3044.08,-363.99 3033.82,-361.35 3040.19,-369.81 3044.08,-363.99"/>
<text text-anchor="middle" x="3155" y="-388.43" font-family="Times,serif" font-size="14.00">borrower_default</text>
</g>
<!-- s21&#45;&gt;s22 -->
<g id="edge17" class="edge">
<title>s21&#45;&gt;s22</title>
<path fill="none" stroke="black" d="M3352.03,-444.62C3364.92,-454.71 3380.53,-470.74 3370,-483.16 3364.47,-489.69 3251.86,-505.5 3198.1,-512.72"/>
<polygon fill="black" stroke="black" points="3197.63,-509.25 3188.18,-514.05 3198.56,-516.19 3197.63,-509.25"/>
<text text-anchor="middle" x="3433" y="-471.96" font-family="Times,serif" font-size="14.00">dont_notify_borrower</text>
</g>
<!-- s22&#45;&gt;s10 -->
<g id="edge13" class="edge">
<title>s22&#45;&gt;s10</title>
<path fill="none" stroke="black" d="M3188.19,-513.88C3212.97,-510.5 3258.76,-504.57 3298,-501.16 3334.58,-497.99 3596.72,-502.4 3628,-483.16 3642.42,-474.29 3641.71,-466.24 3647,-450.16 3667.85,-386.83 3619.46,-350.72 3664,-301.11 3688.34,-273.99 3719.31,-309.91 3744,-283.11 3761.34,-264.28 3752,-251.67 3752,-226.08 3752,-226.08 3752,-226.08 3752,-98.79 3752,-58.34 3884.45,-31.58 3943.81,-21.62"/>
<polygon fill="black" stroke="black" points="3944.69,-25.02 3954,-19.95 3943.56,-18.11 3944.69,-25.02"/>
<text text-anchor="middle" x="3850.5" y="-263.14" font-family="Times,serif" font-size="14.00">pay(normal, borrower, lender, 525)</text>
</g>
<!-- s22&#45;&gt;s10 -->
<g id="edge16" class="edge">
<title>s22&#45;&gt;s10</title>
<path fill="none" stroke="black" d="M3188.2,-514C3213,-510.76 3258.8,-504.97 3298,-501.16 3404.02,-490.85 3433.53,-508.49 3537,-483.16 3573.17,-474.31 3587.6,-476.41 3614,-450.16 3635.79,-428.5 3651.56,-411.13 3636,-384.63 3589.1,-304.76 3500.9,-362.98 3454,-283.11 3441.16,-261.25 3455,-251.43 3455,-226.08 3455,-226.08 3455,-226.08 3455,-98.79 3455,-48.94 3834.96,-24.64 3943.41,-18.72"/>
<polygon fill="black" stroke="black" points="3943.8,-22.21 3953.6,-18.18 3943.43,-15.22 3943.8,-22.21"/>
<text text-anchor="middle" x="3598.5" y="-263.14" font-family="Times,serif" font-size="14.00">borrower_default|pay(normal, borrower, lender, 525)</text>
</g>
<!-- s22&#45;&gt;s15 -->
<g id="edge14" class="edge">
<title>s22&#45;&gt;s15</title>
<path fill="none" stroke="black" d="M3188.05,-520.77C3215.02,-524.71 3267.04,-534.02 3308,-551.69 3319.21,-556.52 3319.63,-562.27 3331,-566.69 3376.76,-584.48 3391.57,-576.58 3440,-584.69 3460.81,-588.17 3484.31,-592.16 3502.08,-595.19"/>
<polygon fill="black" stroke="black" points="3501.63,-598.66 3512.07,-596.89 3502.8,-591.76 3501.63,-598.66"/>
<text text-anchor="middle" x="3378" y="-555.49" font-family="Times,serif" font-size="14.00">borrower_default</text>
</g>
<!-- s22&#45;&gt;s18 -->
<g id="edge15" class="edge">
<title>s22&#45;&gt;s18</title>
<path fill="none" stroke="black" d="M3153.67,-509.91C3139.47,-503.9 3118.61,-494.26 3102,-483.16 3093.62,-477.56 3094.15,-472.37 3085,-468.16 3058.91,-456.15 2975.84,-471.84 2957,-450.16 2933.76,-423.42 2971.29,-387.35 2997.67,-367.01"/>
<polygon fill="black" stroke="black" points="2999.82,-369.77 3005.75,-360.99 2995.64,-364.16 2999.82,-369.77"/>
<text text-anchor="middle" x="3137.5" y="-430.2" font-family="Times,serif" font-size="14.00">borrower_default|payment_default(normal, borrower, lender, 525)</text>
</g>
<!-- s22&#45;&gt;s21 -->
<g id="edge12" class="edge">
<title>s22&#45;&gt;s21</title>
<path fill="none" stroke="black" d="M3152.86,-511.11C3129.21,-502.95 3091.31,-486.36 3108,-468.16 3137.58,-435.91 3257.62,-462.51 3315.02,-448.71"/>
<polygon fill="black" stroke="black" points="3316.1,-452.04 3324.64,-445.77 3314.06,-445.34 3316.1,-452.04"/>
<text text-anchor="middle" x="3240.5" y="-471.96" font-family="Times,serif" font-size="14.00">payment_default(normal, borrower, lender, 525)</text>
</g>
<!-- s23&#45;&gt;s23 -->
<g id="edge11" class="edge">
<title>s23&#45;&gt;s23</title>
<path fill="none" stroke="black" d="M1582.5,-23.5C1584.53,-23.05 1586.22,-22.01 1586.03,-18.88"/>
<polygon fill="black" stroke="black" points="1589.17,-17.26 1582.5,-9.03 1582.58,-19.62 1589.17,-17.26"/>
<text text-anchor="middle" x="1612.88" y="-12.56" font-family="Times,serif" font-size="14.00">breached</text>
</g>
<!-- s24&#45;&gt;s3 -->
<g id="edge3" class="edge">
<title>s24&#45;&gt;s3</title>
<path fill="none" stroke="black" d="M1264.18,-514.41C1297.7,-510.34 1367.32,-500.03 1384,-483.16 1405,-461.91 1377.58,-438.47 1399,-417.63 1428.24,-389.19 1463.14,-431.18 1489,-399.63 1493.23,-394.48 1493.58,-389.48 1489,-384.63 1468.78,-363.28 1025.6,-353.96 907.63,-351.85"/>
<polygon fill="black" stroke="black" points="907.61,-348.35 897.55,-351.67 907.49,-355.35 907.61,-348.35"/>
<text text-anchor="middle" x="1497" y="-430.2" font-family="Times,serif" font-size="14.00">borrower_default|dont_cure_default</text>
</g>
<!-- s24&#45;&gt;s3 -->
<g id="edge5" class="edge">
<title>s24&#45;&gt;s3</title>
<path fill="none" stroke="black" d="M1227.41,-516.12C1168.89,-514.13 986.73,-499.78 892,-399.63 886.13,-393.43 882.85,-384.86 881.04,-376.66"/>
<polygon fill="black" stroke="black" points="884.48,-376.01 879.45,-366.68 877.57,-377.11 884.48,-376.01"/>
<text text-anchor="middle" x="1007.5" y="-430.2" font-family="Times,serif" font-size="14.00">dont_cure_default</text>
</g>
<!-- s24&#45;&gt;s11 -->
<g id="edge4" class="edge">
<title>s24&#45;&gt;s11</title>
<path fill="none" stroke="black" d="M1264.34,-519.37C1340.56,-523.36 1630.06,-539.23 1669,-551.69 1749.99,-577.61 1759.22,-607.95 1833,-650.22 1847.5,-658.52 1852.68,-658.13 1866,-668.22 1898.45,-692.8 1894.99,-712.96 1930,-733.74 1955.41,-748.82 1971.77,-732.28 1994,-751.74 2005.84,-762.11 1996.44,-773.59 2008,-784.27 2041.44,-815.18 2060.22,-809.02 2105,-817.27 2159.24,-827.26 2551.51,-810.95 2601,-835.27 2627.21,-848.15 2629.89,-859.7 2643,-885.8 2672.77,-945.04 2692.22,-984.57 2649,-1034.85 2591.92,-1101.26 1938.95,-1101.99 1792.17,-1101.31"/>
<polygon fill="black" stroke="black" points="1791.77,-1097.81 1781.75,-1101.25 1791.73,-1104.81 1791.77,-1097.81"/>
<text text-anchor="middle" x="2139" y="-806.07" font-family="Times,serif" font-size="14.00">cure_default</text>
</g>
<!-- s24&#45;&gt;s12 -->
<g id="edge2" class="edge">
<title>s24&#45;&gt;s12</title>
<path fill="none" stroke="black" d="M1263.68,-522.44C1363.1,-545.03 1848.36,-655.81 1858,-668.22 1890.44,-709.95 1797.3,-744.4 1832,-784.27 1840.73,-794.3 2055.76,-816.11 2069,-817.27 2124.71,-822.13 2519.5,-815.99 2572,-835.27 2606.02,-847.77 2617.33,-854.73 2636,-885.8 2655.78,-918.71 2646.66,-965.01 2638.01,-993.06"/>
<polygon fill="black" stroke="black" points="2634.58,-992.26 2634.77,-1002.86 2641.23,-994.46 2634.58,-992.26"/>
<text text-anchor="middle" x="1914.5" y="-764.31" font-family="Times,serif" font-size="14.00">borrower_default|cure_default</text>
</g>
<!-- s24&#45;&gt;s16 -->
<g id="edge1" class="edge">
<title>s24&#45;&gt;s16</title>
<path fill="none" stroke="black" d="M1228.27,-513.07C1200.25,-506.95 1150.62,-492.34 1168,-468.16 1183.88,-446.08 1215.15,-438.45 1238.31,-435.92"/>
<polygon fill="black" stroke="black" points="1238.63,-439.41 1248.3,-435.09 1238.05,-432.43 1238.63,-439.41"/>
<text text-anchor="middle" x="1215" y="-471.96" font-family="Times,serif" font-size="14.00">borrower_default</text>
</g>
</g>
</svg>
