<?xml version="1.0" encoding="UTF-8" standalone="no"?>
<!DOCTYPE svg PUBLIC "-//W3C//DTD SVG 1.1//EN"
 "http://www.w3.org/Graphics/SVG/1.1/DTD/svg11.dtd">
<!-- Generated by graphviz version 7.0.2 (0)
 -->
<!-- Title: prob_graph Pages: 1 -->
<svg width="540pt" height="719pt"
 viewBox="0.00 0.00 540.00 718.66" xmlns="http://www.w3.org/2000/svg" xmlns:xlink="http://www.w3.org/1999/xlink">
<g id="graph0" class="graph" transform="scale(0.501393 0.501393) rotate(0) translate(4 1429.33)">
<title>prob_graph</title>
<polygon fill="white" stroke="none" points="-4,4 -4,-1429.33 1073,-1429.33 1073,4 -4,4"/>
<!-- 1 -->
<g id="node1" class="node">
<title>1</title>
<polygon fill="none" stroke="green" points="0,-1373 0,-1415 302,-1415 302,-1373 0,-1373"/>
<text text-anchor="middle" x="10" y="-1390.9" font-family="Times,serif" font-size="12.00"> </text>
<polyline fill="none" stroke="green" points="20,-1373 20,-1415"/>
<text text-anchor="middle" x="151" y="-1401.4" font-family="Times,serif" font-size="12.00">active_rules ↦ rules_to_trigger ↦ rules_to_interrupt</text>
<polyline fill="none" stroke="green" points="20,-1394 282,-1394"/>
<text text-anchor="middle" x="151" y="-1380.4" font-family="Times,serif" font-size="12.00"># states: 1</text>
<polyline fill="none" stroke="green" points="282,-1373 282,-1415"/>
<text text-anchor="middle" x="292" y="-1390.9" font-family="Times,serif" font-size="12.00"> </text>
</g>
<!-- 2 -->
<g id="node2" class="node">
<title>2</title>
<polygon fill="none" stroke="blue" points="82.5,-1241 82.5,-1283 219.5,-1283 219.5,-1241 82.5,-1241"/>
<text text-anchor="middle" x="92.5" y="-1258.9" font-family="Times,serif" font-size="12.00"> </text>
<polyline fill="none" stroke="blue" points="102.5,-1241 102.5,-1283"/>
<text text-anchor="middle" x="151" y="-1269.4" font-family="Times,serif" font-size="12.00">&lt;&lt; undefined &gt;&gt;</text>
<polyline fill="none" stroke="blue" points="102.5,-1262 199.5,-1262"/>
<text text-anchor="middle" x="151" y="-1248.4" font-family="Times,serif" font-size="12.00"># states: 5</text>
<polyline fill="none" stroke="blue" points="199.5,-1241 199.5,-1283"/>
<text text-anchor="middle" x="209.5" y="-1258.9" font-family="Times,serif" font-size="12.00"> </text>
</g>
<!-- 1&#45;&gt;2 -->
<g id="edge1" class="edge">
<title>1&#45;&gt;2</title>
<path fill="none" stroke="black" d="M151,-1373.26C151,-1352.26 151,-1318.75 151,-1294.18"/>
<polygon fill="black" stroke="black" points="154.5,-1294.44 151,-1284.44 147.5,-1294.44 154.5,-1294.44"/>
<text text-anchor="middle" x="195.5" y="-1324.9" font-family="Times,serif" font-size="12.00">start_cspm_MAIN</text>
</g>
<!-- 2&#45;&gt;2 -->
<g id="edge2" class="edge">
<title>2&#45;&gt;2</title>
<path fill="none" stroke="#806040" stroke-dasharray="5,2" d="M219.17,-1273.4C230.05,-1271.73 237.5,-1267.93 237.5,-1262 237.5,-1258.39 234.73,-1255.56 230.11,-1253.53"/>
<polygon fill="#806040" stroke="#806040" points="231.2,-1250.2 220.63,-1251 229.39,-1256.96 231.2,-1250.2"/>
<text text-anchor="middle" x="245" y="-1258.9" font-family="Times,serif" font-size="12.00">tau</text>
</g>
<!-- 4 -->
<g id="node3" class="node">
<title>4</title>
<polygon fill="none" stroke="blue" points="163,-1109 163,-1151 371,-1151 371,-1109 163,-1109"/>
<text text-anchor="middle" x="173" y="-1126.9" font-family="Times,serif" font-size="12.00"> </text>
<polyline fill="none" stroke="blue" points="183,-1109 183,-1151"/>
<text text-anchor="middle" x="267" y="-1137.4" font-family="Times,serif" font-size="12.00">(∅↦{(Assessment↦org)}↦∅)</text>
<polyline fill="none" stroke="blue" points="183,-1130 351,-1130"/>
<text text-anchor="middle" x="267" y="-1116.4" font-family="Times,serif" font-size="12.00"># states: 2</text>
<polyline fill="none" stroke="blue" points="351,-1109 351,-1151"/>
<text text-anchor="middle" x="361" y="-1126.9" font-family="Times,serif" font-size="12.00"> </text>
</g>
<!-- 2&#45;&gt;4 -->
<g id="edge4" class="edge">
<title>2&#45;&gt;4</title>
<path fill="none" stroke="#806040" stroke-dasharray="5,2" d="M168.62,-1241.26C188.12,-1219.4 219.72,-1183.99 241.83,-1159.21"/>
<polygon fill="#806040" stroke="#806040" points="244.16,-1161.85 248.21,-1152.06 238.94,-1157.19 244.16,-1161.85"/>
<text text-anchor="middle" x="220.5" y="-1192.9" font-family="Times,serif" font-size="12.00">tau</text>
</g>
<!-- 3 -->
<g id="node16" class="node">
<title>3</title>
<polygon fill="none" stroke="blue" stroke-width="2" points="487,-10 487,-52 607,-52 607,-10 487,-10"/>
<text text-anchor="middle" x="497" y="-27.9" font-family="Times,serif" font-size="12.00"> </text>
<polyline fill="none" stroke="blue" stroke-width="2" points="507,-10 507,-52"/>
<text text-anchor="middle" x="547" y="-38.4" font-family="Times,serif" font-size="12.00">(∅↦∅↦∅)</text>
<polyline fill="none" stroke="blue" stroke-width="2" points="507,-31 587,-31"/>
<text text-anchor="middle" x="547" y="-17.4" font-family="Times,serif" font-size="12.00"># states: 12</text>
<polyline fill="none" stroke="blue" stroke-width="2" points="587,-10 587,-52"/>
<text text-anchor="middle" x="597" y="-27.9" font-family="Times,serif" font-size="12.00"> </text>
</g>
<!-- 2&#45;&gt;3 -->
<g id="edge3" class="edge">
<title>2&#45;&gt;3</title>
<path fill="none" stroke="#806040" stroke-dasharray="5,2" d="M147.04,-1241.27C142.31,-1215.88 135,-1170.34 135,-1131 135,-1131 135,-1131 135,-162 135,-91.41 357.74,-54.34 475.67,-39.67"/>
<polygon fill="#806040" stroke="#806040" points="476.09,-43.14 485.59,-38.46 475.24,-36.19 476.09,-43.14"/>
<text text-anchor="middle" x="142.5" y="-664.9" font-family="Times,serif" font-size="12.00">tau</text>
</g>
<!-- 5 -->
<g id="node15" class="node">
<title>5</title>
<polygon fill="none" stroke="blue" points="163,-977 163,-1019 371,-1019 371,-977 163,-977"/>
<text text-anchor="middle" x="173" y="-994.9" font-family="Times,serif" font-size="12.00"> </text>
<polyline fill="none" stroke="blue" points="183,-977 183,-1019"/>
<text text-anchor="middle" x="267" y="-1005.4" font-family="Times,serif" font-size="12.00">({(Assessment↦org)}↦∅↦∅)</text>
<polyline fill="none" stroke="blue" points="183,-998 351,-998"/>
<text text-anchor="middle" x="267" y="-984.4" font-family="Times,serif" font-size="12.00"># states: 64</text>
<polyline fill="none" stroke="blue" points="351,-977 351,-1019"/>
<text text-anchor="middle" x="361" y="-994.9" font-family="Times,serif" font-size="12.00"> </text>
</g>
<!-- 4&#45;&gt;5 -->
<g id="edge5" class="edge">
<title>4&#45;&gt;5</title>
<path fill="none" stroke="black" d="M267,-1109.26C267,-1088.26 267,-1054.75 267,-1030.18"/>
<polygon fill="black" stroke="black" points="270.5,-1030.44 267,-1020.44 263.5,-1030.44 270.5,-1030.44"/>
<text text-anchor="middle" x="294.5" y="-1060.9" font-family="Times,serif" font-size="12.00">trigger_rule</text>
</g>
<!-- 6 -->
<g id="node4" class="node">
<title>6</title>
<polygon fill="none" stroke="green" points="214.5,-845 214.5,-887 513.5,-887 513.5,-845 214.5,-845"/>
<text text-anchor="middle" x="224.5" y="-862.9" font-family="Times,serif" font-size="12.00"> </text>
<polyline fill="none" stroke="green" points="234.5,-845 234.5,-887"/>
<text text-anchor="middle" x="364" y="-873.4" font-family="Times,serif" font-size="12.00">(∅↦{(NotifyPdpc↦org),(NotifyIndiv↦org)}↦∅)</text>
<polyline fill="none" stroke="green" points="234.5,-866 493.5,-866"/>
<text text-anchor="middle" x="364" y="-852.4" font-family="Times,serif" font-size="12.00"># states: 1</text>
<polyline fill="none" stroke="green" points="493.5,-845 493.5,-887"/>
<text text-anchor="middle" x="503.5" y="-862.9" font-family="Times,serif" font-size="12.00"> </text>
</g>
<!-- 7 -->
<g id="node5" class="node">
<title>7</title>
<polygon fill="none" stroke="green" points="216,-713 216,-755 512,-755 512,-713 216,-713"/>
<text text-anchor="middle" x="226" y="-730.9" font-family="Times,serif" font-size="12.00"> </text>
<polyline fill="none" stroke="green" points="236,-713 236,-755"/>
<text text-anchor="middle" x="364" y="-741.4" font-family="Times,serif" font-size="12.00">({(NotifyPdpc↦org)}↦{(NotifyIndiv↦org)}↦∅)</text>
<polyline fill="none" stroke="green" points="236,-734 492,-734"/>
<text text-anchor="middle" x="364" y="-720.4" font-family="Times,serif" font-size="12.00"># states: 1</text>
<polyline fill="none" stroke="green" points="492,-713 492,-755"/>
<text text-anchor="middle" x="502" y="-730.9" font-family="Times,serif" font-size="12.00"> </text>
</g>
<!-- 6&#45;&gt;7 -->
<g id="edge7" class="edge">
<title>6&#45;&gt;7</title>
<path fill="none" stroke="#806040" d="M364,-845.26C364,-824.26 364,-790.75 364,-766.18"/>
<polygon fill="#806040" stroke="#806040" points="367.5,-766.44 364,-756.44 360.5,-766.44 367.5,-766.44"/>
<text text-anchor="middle" x="391.5" y="-796.9" font-family="Times,serif" font-size="12.00">trigger_rule</text>
</g>
<!-- 8 -->
<g id="node6" class="node">
<title>8</title>
<polygon fill="none" stroke="green" points="530,-713 530,-755 826,-755 826,-713 530,-713"/>
<text text-anchor="middle" x="540" y="-730.9" font-family="Times,serif" font-size="12.00"> </text>
<polyline fill="none" stroke="green" points="550,-713 550,-755"/>
<text text-anchor="middle" x="678" y="-741.4" font-family="Times,serif" font-size="12.00">({(NotifyIndiv↦org)}↦{(NotifyPdpc↦org)}↦∅)</text>
<polyline fill="none" stroke="green" points="550,-734 806,-734"/>
<text text-anchor="middle" x="678" y="-720.4" font-family="Times,serif" font-size="12.00"># states: 1</text>
<polyline fill="none" stroke="green" points="806,-713 806,-755"/>
<text text-anchor="middle" x="816" y="-730.9" font-family="Times,serif" font-size="12.00"> </text>
</g>
<!-- 6&#45;&gt;8 -->
<g id="edge8" class="edge">
<title>6&#45;&gt;8</title>
<path fill="none" stroke="#806040" d="M412.03,-845.11C467.7,-822.07 559.44,-784.08 619.29,-759.3"/>
<polygon fill="#806040" stroke="#806040" points="620.42,-762.63 628.32,-755.57 617.74,-756.16 620.42,-762.63"/>
<text text-anchor="middle" x="558.5" y="-796.9" font-family="Times,serif" font-size="12.00">trigger_rule</text>
</g>
<!-- 9 -->
<g id="node7" class="node">
<title>9</title>
<polygon fill="none" stroke="blue" points="528.5,-581 528.5,-623 827.5,-623 827.5,-581 528.5,-581"/>
<text text-anchor="middle" x="538.5" y="-598.9" font-family="Times,serif" font-size="12.00"> </text>
<polyline fill="none" stroke="blue" points="548.5,-581 548.5,-623"/>
<text text-anchor="middle" x="678" y="-609.4" font-family="Times,serif" font-size="12.00">({(NotifyPdpc↦org),(NotifyIndiv↦org)}↦∅↦∅)</text>
<polyline fill="none" stroke="blue" points="548.5,-602 807.5,-602"/>
<text text-anchor="middle" x="678" y="-588.4" font-family="Times,serif" font-size="12.00"># states: 5</text>
<polyline fill="none" stroke="blue" points="807.5,-581 807.5,-623"/>
<text text-anchor="middle" x="817.5" y="-598.9" font-family="Times,serif" font-size="12.00"> </text>
</g>
<!-- 7&#45;&gt;9 -->
<g id="edge10" class="edge">
<title>7&#45;&gt;9</title>
<path fill="none" stroke="black" d="M412.03,-713.11C467.7,-690.07 559.44,-652.08 619.29,-627.3"/>
<polygon fill="black" stroke="black" points="620.42,-630.63 628.32,-623.57 617.74,-624.16 620.42,-630.63"/>
<text text-anchor="middle" x="558.5" y="-664.9" font-family="Times,serif" font-size="12.00">trigger_rule</text>
</g>
<!-- 8&#45;&gt;9 -->
<g id="edge11" class="edge">
<title>8&#45;&gt;9</title>
<path fill="none" stroke="black" d="M678,-713.26C678,-692.26 678,-658.75 678,-634.18"/>
<polygon fill="black" stroke="black" points="681.5,-634.44 678,-624.44 674.5,-634.44 681.5,-634.44"/>
<text text-anchor="middle" x="705.5" y="-664.9" font-family="Times,serif" font-size="12.00">trigger_rule</text>
</g>
<!-- 10 -->
<g id="node8" class="node">
<title>10</title>
<polygon fill="none" stroke="blue" points="221,-449 221,-491 563,-491 563,-449 221,-449"/>
<text text-anchor="middle" x="231" y="-466.9" font-family="Times,serif" font-size="12.00"> </text>
<polyline fill="none" stroke="blue" points="241,-449 241,-491"/>
<text text-anchor="middle" x="392" y="-477.4" font-family="Times,serif" font-size="12.00">({(NotifyIndiv↦org)}↦{(ProhibitNotifyIndiv↦pdpc)}↦∅)</text>
<polyline fill="none" stroke="blue" points="241,-470 543,-470"/>
<text text-anchor="middle" x="392" y="-456.4" font-family="Times,serif" font-size="12.00"># states: 4</text>
<polyline fill="none" stroke="blue" points="543,-449 543,-491"/>
<text text-anchor="middle" x="553" y="-466.9" font-family="Times,serif" font-size="12.00"> </text>
</g>
<!-- 9&#45;&gt;10 -->
<g id="edge12" class="edge">
<title>9&#45;&gt;10</title>
<path fill="none" stroke="#806040" stroke-dasharray="5,2" d="M634.25,-581.11C583.68,-558.13 500.44,-520.29 445.91,-495.51"/>
<polygon fill="#806040" stroke="#806040" points="447.67,-492.46 437.12,-491.51 444.78,-498.83 447.67,-492.46"/>
<text text-anchor="middle" x="573" y="-532.9" font-family="Times,serif" font-size="12.00">notify_pdpc</text>
</g>
<!-- 12 -->
<g id="node9" class="node">
<title>12</title>
<polygon fill="none" stroke="green" points="861,-362 861,-404 1069,-404 1069,-362 861,-362"/>
<text text-anchor="middle" x="871" y="-379.9" font-family="Times,serif" font-size="12.00"> </text>
<polyline fill="none" stroke="green" points="881,-362 881,-404"/>
<text text-anchor="middle" x="965" y="-390.4" font-family="Times,serif" font-size="12.00">({(NotifyIndiv↦org)}↦∅↦∅)</text>
<polyline fill="none" stroke="green" points="881,-383 1049,-383"/>
<text text-anchor="middle" x="965" y="-369.4" font-family="Times,serif" font-size="12.00"># states: 1</text>
<polyline fill="none" stroke="green" points="1049,-362 1049,-404"/>
<text text-anchor="middle" x="1059" y="-379.9" font-family="Times,serif" font-size="12.00"> </text>
</g>
<!-- 9&#45;&gt;12 -->
<g id="edge16" class="edge">
<title>9&#45;&gt;12</title>
<path fill="none" stroke="#806040" stroke-dasharray="5,2" d="M704.23,-581.17C756.11,-541.94 871.85,-454.43 930.1,-410.39"/>
<polygon fill="#806040" stroke="#806040" points="931.86,-413.44 937.73,-404.62 927.64,-407.86 931.86,-413.44"/>
<text text-anchor="middle" x="796" y="-532.9" font-family="Times,serif" font-size="12.00">notify_pdpc</text>
</g>
<!-- 11 -->
<g id="node10" class="node">
<title>11</title>
<polygon fill="none" stroke="blue" points="587.5,-449 587.5,-491 794.5,-491 794.5,-449 587.5,-449"/>
<text text-anchor="middle" x="597.5" y="-466.9" font-family="Times,serif" font-size="12.00"> </text>
<polyline fill="none" stroke="blue" points="607.5,-449 607.5,-491"/>
<text text-anchor="middle" x="691" y="-477.4" font-family="Times,serif" font-size="12.00">({(NotifyPdpc↦org)}↦∅↦∅)</text>
<polyline fill="none" stroke="blue" points="607.5,-470 774.5,-470"/>
<text text-anchor="middle" x="691" y="-456.4" font-family="Times,serif" font-size="12.00"># states: 6</text>
<polyline fill="none" stroke="blue" points="774.5,-449 774.5,-491"/>
<text text-anchor="middle" x="784.5" y="-466.9" font-family="Times,serif" font-size="12.00"> </text>
</g>
<!-- 9&#45;&gt;11 -->
<g id="edge13" class="edge">
<title>9&#45;&gt;11</title>
<path fill="none" stroke="black" d="M679.97,-581.26C682.07,-560.26 685.42,-526.75 687.88,-502.18"/>
<polygon fill="black" stroke="black" points="691.34,-502.73 688.86,-492.44 684.38,-502.04 691.34,-502.73"/>
<text text-anchor="middle" x="713" y="-532.9" font-family="Times,serif" font-size="12.00">notify_indiv</text>
</g>
<!-- 13 -->
<g id="node13" class="node">
<title>13</title>
<polygon fill="none" stroke="blue" points="201.5,-274 201.5,-316 546.5,-316 546.5,-274 201.5,-274"/>
<text text-anchor="middle" x="211.5" y="-291.9" font-family="Times,serif" font-size="12.00"> </text>
<polyline fill="none" stroke="blue" points="221.5,-274 221.5,-316"/>
<text text-anchor="middle" x="374" y="-302.4" font-family="Times,serif" font-size="12.00">({(NotifyIndiv↦org),(ProhibitNotifyIndiv↦pdpc)}↦∅↦∅)</text>
<polyline fill="none" stroke="blue" points="221.5,-295 526.5,-295"/>
<text text-anchor="middle" x="374" y="-281.4" font-family="Times,serif" font-size="12.00"># states: 14</text>
<polyline fill="none" stroke="blue" points="526.5,-274 526.5,-316"/>
<text text-anchor="middle" x="536.5" y="-291.9" font-family="Times,serif" font-size="12.00"> </text>
</g>
<!-- 10&#45;&gt;13 -->
<g id="edge14" class="edge">
<title>10&#45;&gt;13</title>
<path fill="none" stroke="black" d="M389.94,-449.15C386.82,-419.25 380.91,-362.39 377.22,-326.99"/>
<polygon fill="black" stroke="black" points="380.74,-326.97 376.23,-317.38 373.78,-327.69 380.74,-326.97"/>
<text text-anchor="middle" x="413.5" y="-379.9" font-family="Times,serif" font-size="12.00">trigger_rule</text>
</g>
<!-- 12&#45;&gt;3 -->
<g id="edge17" class="edge">
<title>12&#45;&gt;3</title>
<path fill="none" stroke="black" d="M964.29,-362.35C961.24,-309.37 945.12,-162.69 860,-90.5 824.26,-60.19 698.6,-44.37 617.78,-37.14"/>
<polygon fill="black" stroke="black" points="618.46,-33.69 608.2,-36.31 617.86,-40.66 618.46,-33.69"/>
<text text-anchor="middle" x="972" y="-225.9" font-family="Times,serif" font-size="12.00">notify_indiv</text>
</g>
<!-- 16 -->
<g id="node11" class="node">
<title>16</title>
<polygon fill="none" stroke="green" points="564.5,-274 564.5,-316 817.5,-316 817.5,-274 564.5,-274"/>
<text text-anchor="middle" x="574.5" y="-291.9" font-family="Times,serif" font-size="12.00"> </text>
<polyline fill="none" stroke="green" points="584.5,-274 584.5,-316"/>
<text text-anchor="middle" x="691" y="-302.4" font-family="Times,serif" font-size="12.00">(∅↦{(ProhibitNotifyIndiv↦pdpc)}↦∅)</text>
<polyline fill="none" stroke="green" points="584.5,-295 797.5,-295"/>
<text text-anchor="middle" x="691" y="-281.4" font-family="Times,serif" font-size="12.00"># states: 1</text>
<polyline fill="none" stroke="green" points="797.5,-274 797.5,-316"/>
<text text-anchor="middle" x="807.5" y="-291.9" font-family="Times,serif" font-size="12.00"> </text>
</g>
<!-- 11&#45;&gt;16 -->
<g id="edge15" class="edge">
<title>11&#45;&gt;16</title>
<path fill="none" stroke="#806040" stroke-dasharray="5,2" d="M691,-449.15C691,-419.25 691,-362.39 691,-326.99"/>
<polygon fill="#806040" stroke="#806040" points="694.5,-327.39 691,-317.39 687.5,-327.39 694.5,-327.39"/>
<text text-anchor="middle" x="720" y="-379.9" font-family="Times,serif" font-size="12.00">notify_pdpc</text>
</g>
<!-- 11&#45;&gt;3 -->
<g id="edge18" class="edge">
<title>11&#45;&gt;3</title>
<path fill="none" stroke="#806040" stroke-dasharray="5,2" d="M718.57,-449.03C751.89,-422.96 806.1,-373.83 827,-316.5 847.25,-260.94 793.09,-149.54 787,-141.5 746.23,-87.73 672.88,-59.58 617.96,-45.37"/>
<polygon fill="#806040" stroke="#806040" points="618.91,-42 608.36,-42.99 617.23,-48.79 618.91,-42"/>
<text text-anchor="middle" x="852" y="-225.9" font-family="Times,serif" font-size="12.00">notify_pdpc</text>
</g>
<!-- 15 -->
<g id="node14" class="node">
<title>15</title>
<polygon fill="none" stroke="blue" points="524.5,-142 524.5,-184 777.5,-184 777.5,-142 524.5,-142"/>
<text text-anchor="middle" x="534.5" y="-159.9" font-family="Times,serif" font-size="12.00"> </text>
<polyline fill="none" stroke="blue" points="544.5,-142 544.5,-184"/>
<text text-anchor="middle" x="651" y="-170.4" font-family="Times,serif" font-size="12.00">({(ProhibitNotifyIndiv↦pdpc)}↦∅↦∅)</text>
<polyline fill="none" stroke="blue" points="544.5,-163 757.5,-163"/>
<text text-anchor="middle" x="651" y="-149.4" font-family="Times,serif" font-size="12.00"># states: 11</text>
<polyline fill="none" stroke="blue" points="757.5,-142 757.5,-184"/>
<text text-anchor="middle" x="767.5" y="-159.9" font-family="Times,serif" font-size="12.00"> </text>
</g>
<!-- 16&#45;&gt;15 -->
<g id="edge23" class="edge">
<title>16&#45;&gt;15</title>
<path fill="none" stroke="black" d="M684.92,-274.26C678.43,-253.16 668.06,-219.45 660.49,-194.85"/>
<polygon fill="black" stroke="black" points="663.86,-193.91 657.58,-185.38 657.17,-195.96 663.86,-193.91"/>
<text text-anchor="middle" x="699.5" y="-225.9" font-family="Times,serif" font-size="12.00">trigger_rule</text>
</g>
<!-- 14 -->
<g id="node12" class="node">
<title>14</title>
<polygon fill="none" stroke="blue" points="242,-142 242,-184 506,-184 506,-142 242,-142"/>
<text text-anchor="middle" x="252" y="-159.9" font-family="Times,serif" font-size="12.00"> </text>
<polyline fill="none" stroke="blue" points="262,-142 262,-184"/>
<text text-anchor="middle" x="374" y="-170.4" font-family="Times,serif" font-size="12.00">({(NotifyIndiv↦org)}↦∅↦{NotifyIndiv})</text>
<polyline fill="none" stroke="blue" points="262,-163 486,-163"/>
<text text-anchor="middle" x="374" y="-149.4" font-family="Times,serif" font-size="12.00"># states: 5</text>
<polyline fill="none" stroke="blue" points="486,-142 486,-184"/>
<text text-anchor="middle" x="496" y="-159.9" font-family="Times,serif" font-size="12.00"> </text>
</g>
<!-- 14&#45;&gt;3 -->
<g id="edge21" class="edge">
<title>14&#45;&gt;3</title>
<path fill="none" stroke="black" d="M400.27,-142.26C430,-119.92 478.55,-83.44 511.6,-58.6"/>
<polygon fill="black" stroke="black" points="513.38,-61.64 519.27,-52.84 509.17,-56.05 513.38,-61.64"/>
<text text-anchor="middle" x="498" y="-93.9" font-family="Times,serif" font-size="12.00">interrupt_rule</text>
</g>
<!-- 13&#45;&gt;14 -->
<g id="edge19" class="edge">
<title>13&#45;&gt;14</title>
<path fill="none" stroke="black" d="M374,-274.26C374,-253.26 374,-219.75 374,-195.18"/>
<polygon fill="black" stroke="black" points="377.5,-195.44 374,-185.44 370.5,-195.44 377.5,-195.44"/>
<text text-anchor="middle" x="424.5" y="-225.9" font-family="Times,serif" font-size="12.00">prohibit_notify_indiv</text>
</g>
<!-- 13&#45;&gt;15 -->
<g id="edge20" class="edge">
<title>13&#45;&gt;15</title>
<path fill="none" stroke="black" d="M416.37,-274.11C465.25,-251.18 545.64,-213.45 598.46,-188.66"/>
<polygon fill="black" stroke="black" points="599.7,-191.94 607.26,-184.53 596.72,-185.61 599.7,-191.94"/>
<text text-anchor="middle" x="550" y="-225.9" font-family="Times,serif" font-size="12.00">notify_indiv</text>
</g>
<!-- 15&#45;&gt;3 -->
<g id="edge22" class="edge">
<title>15&#45;&gt;3</title>
<path fill="none" stroke="black" d="M635.2,-142.26C617.87,-120.59 589.88,-85.61 570.09,-60.86"/>
<polygon fill="black" stroke="black" points="572.87,-58.73 563.89,-53.11 567.4,-63.11 572.87,-58.73"/>
<text text-anchor="middle" x="652.5" y="-93.9" font-family="Times,serif" font-size="12.00">prohibit_notify_indiv</text>
</g>
<!-- 5&#45;&gt;6 -->
<g id="edge6" class="edge">
<title>5&#45;&gt;6</title>
<path fill="none" stroke="#806040" stroke-dasharray="5,2" d="M281.73,-977.26C297.9,-955.59 324,-920.61 342.46,-895.86"/>
<polygon fill="#806040" stroke="#806040" points="345.05,-898.25 348.22,-888.14 339.44,-894.06 345.05,-898.25"/>
<text text-anchor="middle" x="333.5" y="-928.9" font-family="Times,serif" font-size="12.00">assess</text>
</g>
<!-- 5&#45;&gt;3 -->
<g id="edge9" class="edge">
<title>5&#45;&gt;3</title>
<path fill="none" stroke="#806040" stroke-dasharray="5,2" d="M240.06,-977.03C212.29,-953.92 173,-913.09 173,-867 173,-867 173,-867 173,-162 173,-98.51 367.71,-58.96 476.15,-41.86"/>
<polygon fill="#806040" stroke="#806040" points="476.48,-45.35 485.83,-40.36 475.41,-38.43 476.48,-45.35"/>
<text text-anchor="middle" x="187.5" y="-532.9" font-family="Times,serif" font-size="12.00">assess</text>
</g>
</g>
</svg>
