<?xml version="1.0" encoding="UTF-8" standalone="no"?>
<!DOCTYPE svg PUBLIC "-//W3C//DTD SVG 1.1//EN"
 "http://www.w3.org/Graphics/SVG/1.1/DTD/svg11.dtd">
<!-- Generated by graphviz version 7.0.3 (0)
 -->
<!-- Title: prob_graph Pages: 1 -->
<svg width="540pt" height="705pt"
 viewBox="0.00 0.00 540.00 704.70" xmlns="http://www.w3.org/2000/svg" xmlns:xlink="http://www.w3.org/1999/xlink">
<g id="graph0" class="graph" transform="scale(0.764873 0.764873) rotate(0) translate(4 917.33)">
<title>prob_graph</title>
<polygon fill="white" stroke="none" points="-4,4 -4,-917.33 702,-917.33 702,4 -4,4"/>
<!-- 1 -->
<g id="node1" class="node">
<title>1</title>
<polygon fill="none" stroke="green" stroke-width="2" points="467,-859 467,-901 685,-901 685,-859 467,-859"/>
<text text-anchor="middle" x="477" y="-876.9" font-family="Times,serif" font-size="12.00"> </text>
<polyline fill="none" stroke="green" stroke-width="2" points="487,-859 487,-901"/>
<text text-anchor="middle" x="576" y="-887.4" font-family="Times,serif" font-size="12.00">breached_by ↦ dom(active_rules)</text>
<polyline fill="none" stroke="green" stroke-width="2" points="487,-880 665,-880"/>
<text text-anchor="middle" x="576" y="-866.4" font-family="Times,serif" font-size="12.00"># states: 1</text>
<polyline fill="none" stroke="green" stroke-width="2" points="665,-859 665,-901"/>
<text text-anchor="middle" x="675" y="-876.9" font-family="Times,serif" font-size="12.00"> </text>
</g>
<!-- 2 -->
<g id="node2" class="node">
<title>2</title>
<polygon fill="none" stroke="green" points="507.5,-718 507.5,-760 644.5,-760 644.5,-718 507.5,-718"/>
<text text-anchor="middle" x="517.5" y="-735.9" font-family="Times,serif" font-size="12.00"> </text>
<polyline fill="none" stroke="green" points="527.5,-718 527.5,-760"/>
<text text-anchor="middle" x="576" y="-746.4" font-family="Times,serif" font-size="12.00">&lt;&lt; undefined &gt;&gt;</text>
<polyline fill="none" stroke="green" points="527.5,-739 624.5,-739"/>
<text text-anchor="middle" x="576" y="-725.4" font-family="Times,serif" font-size="12.00"># states: 1</text>
<polyline fill="none" stroke="green" points="624.5,-718 624.5,-760"/>
<text text-anchor="middle" x="634.5" y="-735.9" font-family="Times,serif" font-size="12.00"> </text>
</g>
<!-- 1&#45;&gt;2 -->
<g id="edge1" class="edge">
<title>1&#45;&gt;2</title>
<path fill="none" stroke="black" d="M576,-859.08C576,-836.17 576,-798.25 576,-771.36"/>
<polygon fill="black" stroke="black" points="579.5,-771.39 576,-761.39 572.5,-771.39 579.5,-771.39"/>
<text text-anchor="middle" x="633.5" y="-806.9" font-family="Times,serif" font-size="12.00">SETUP_CONSTANTS</text>
</g>
<!-- 3 -->
<g id="node9" class="node">
<title>3</title>
<polygon fill="none" stroke="blue" points="483,-577 483,-619 669,-619 669,-577 483,-577"/>
<text text-anchor="middle" x="493" y="-594.9" font-family="Times,serif" font-size="12.00"> </text>
<polyline fill="none" stroke="blue" points="503,-577 503,-619"/>
<text text-anchor="middle" x="576" y="-605.4" font-family="Times,serif" font-size="12.00">(∅↦{(Assessment↦org)})</text>
<polyline fill="none" stroke="blue" points="503,-598 649,-598"/>
<text text-anchor="middle" x="576" y="-584.4" font-family="Times,serif" font-size="12.00"># states: 31</text>
<polyline fill="none" stroke="blue" points="649,-577 649,-619"/>
<text text-anchor="middle" x="659" y="-594.9" font-family="Times,serif" font-size="12.00"> </text>
</g>
<!-- 2&#45;&gt;3 -->
<g id="edge2" class="edge">
<title>2&#45;&gt;3</title>
<path fill="none" stroke="black" d="M576,-718.08C576,-695.17 576,-657.25 576,-630.36"/>
<polygon fill="black" stroke="black" points="579.5,-630.39 576,-620.39 572.5,-630.39 579.5,-630.39"/>
<text text-anchor="middle" x="622" y="-664.9" font-family="Times,serif" font-size="12.00">INITIALISATION</text>
</g>
<!-- 8 -->
<g id="node3" class="node">
<title>8</title>
<polygon fill="none" stroke="green" points="187.5,-12 187.5,-54 290.5,-54 290.5,-12 187.5,-12"/>
<text text-anchor="middle" x="197.5" y="-29.9" font-family="Times,serif" font-size="12.00"> </text>
<polyline fill="none" stroke="green" points="207.5,-12 207.5,-54"/>
<text text-anchor="middle" x="239" y="-40.4" font-family="Times,serif" font-size="12.00">(∅↦∅)</text>
<polyline fill="none" stroke="green" points="207.5,-33 270.5,-33"/>
<text text-anchor="middle" x="239" y="-19.4" font-family="Times,serif" font-size="12.00"># states: 1</text>
<polyline fill="none" stroke="green" points="270.5,-12 270.5,-54"/>
<text text-anchor="middle" x="280.5" y="-29.9" font-family="Times,serif" font-size="12.00"> </text>
</g>
<!-- 4 -->
<g id="node4" class="node">
<title>4</title>
<polygon fill="none" stroke="blue" points="346.5,-436 346.5,-478 623.5,-478 623.5,-436 346.5,-436"/>
<text text-anchor="middle" x="356.5" y="-453.9" font-family="Times,serif" font-size="12.00"> </text>
<polyline fill="none" stroke="blue" points="366.5,-436 366.5,-478"/>
<text text-anchor="middle" x="485" y="-464.4" font-family="Times,serif" font-size="12.00">(∅↦{(NotifyIndiv↦org),(NotifyPdpc↦org)})</text>
<polyline fill="none" stroke="blue" points="366.5,-457 603.5,-457"/>
<text text-anchor="middle" x="485" y="-443.4" font-family="Times,serif" font-size="12.00"># states: 4</text>
<polyline fill="none" stroke="blue" points="603.5,-436 603.5,-478"/>
<text text-anchor="middle" x="613.5" y="-453.9" font-family="Times,serif" font-size="12.00"> </text>
</g>
<!-- 5 -->
<g id="node5" class="node">
<title>5</title>
<polygon fill="none" stroke="blue" points="0,-294 0,-336 186,-336 186,-294 0,-294"/>
<text text-anchor="middle" x="10" y="-311.9" font-family="Times,serif" font-size="12.00"> </text>
<polyline fill="none" stroke="blue" points="20,-294 20,-336"/>
<text text-anchor="middle" x="93" y="-322.4" font-family="Times,serif" font-size="12.00">(∅↦{(NotifyPdpc↦org)})</text>
<polyline fill="none" stroke="blue" points="20,-315 166,-315"/>
<text text-anchor="middle" x="93" y="-301.4" font-family="Times,serif" font-size="12.00"># states: 4</text>
<polyline fill="none" stroke="blue" points="166,-294 166,-336"/>
<text text-anchor="middle" x="176" y="-311.9" font-family="Times,serif" font-size="12.00"> </text>
</g>
<!-- 4&#45;&gt;5 -->
<g id="edge4" class="edge">
<title>4&#45;&gt;5</title>
<path fill="none" stroke="#806040" d="M429.25,-436.09C358.09,-410.67 235.13,-366.76 159.26,-339.66"/>
<polygon fill="#806040" stroke="#806040" points="160.89,-336.53 150.3,-336.46 158.54,-343.12 160.89,-336.53"/>
<text text-anchor="middle" x="336.5" y="-382.9" font-family="Times,serif" font-size="12.00">event_happens</text>
</g>
<!-- 9 -->
<g id="node6" class="node">
<title>9</title>
<polygon fill="none" stroke="green" points="449,-153 449,-195 563,-195 563,-153 449,-153"/>
<text text-anchor="middle" x="459" y="-170.9" font-family="Times,serif" font-size="12.00"> </text>
<polyline fill="none" stroke="green" points="469,-153 469,-195"/>
<text text-anchor="middle" x="506" y="-181.4" font-family="Times,serif" font-size="12.00">({org}↦∅)</text>
<polyline fill="none" stroke="green" points="469,-174 543,-174"/>
<text text-anchor="middle" x="506" y="-160.4" font-family="Times,serif" font-size="12.00"># states: 1</text>
<polyline fill="none" stroke="green" points="543,-153 543,-195"/>
<text text-anchor="middle" x="553" y="-170.9" font-family="Times,serif" font-size="12.00"> </text>
</g>
<!-- 4&#45;&gt;9 -->
<g id="edge9" class="edge">
<title>4&#45;&gt;9</title>
<path fill="none" stroke="black" stroke-dasharray="5,2" d="M496.47,-436.09C509.05,-413.02 528.45,-373.41 536,-336.5 545.3,-291.01 530.64,-238.06 518.73,-205.54"/>
<polygon fill="black" stroke="black" points="522.06,-204.44 515.22,-196.35 515.52,-206.94 522.06,-204.44"/>
<text text-anchor="middle" x="572.5" y="-311.9" font-family="Times,serif" font-size="12.00">event_timeout</text>
</g>
<!-- 6 -->
<g id="node8" class="node">
<title>6</title>
<polygon fill="none" stroke="blue" points="204.5,-294 204.5,-336 527.5,-336 527.5,-294 204.5,-294"/>
<text text-anchor="middle" x="214.5" y="-311.9" font-family="Times,serif" font-size="12.00"> </text>
<polyline fill="none" stroke="blue" points="224.5,-294 224.5,-336"/>
<text text-anchor="middle" x="366" y="-322.4" font-family="Times,serif" font-size="12.00">(∅↦{(NotifyIndiv↦org),(ProhibitNotifyIndiv↦pdpc)})</text>
<polyline fill="none" stroke="blue" points="224.5,-315 507.5,-315"/>
<text text-anchor="middle" x="366" y="-301.4" font-family="Times,serif" font-size="12.00"># states: 10</text>
<polyline fill="none" stroke="blue" points="507.5,-294 507.5,-336"/>
<text text-anchor="middle" x="517.5" y="-311.9" font-family="Times,serif" font-size="12.00"> </text>
</g>
<!-- 4&#45;&gt;6 -->
<g id="edge5" class="edge">
<title>4&#45;&gt;6</title>
<path fill="none" stroke="#806040" d="M468.2,-436.24C447.83,-412.27 413.33,-371.68 390.11,-344.37"/>
<polygon fill="#806040" stroke="#806040" points="392.84,-342.17 383.69,-336.81 387.5,-346.7 392.84,-342.17"/>
<text text-anchor="middle" x="465.5" y="-382.9" font-family="Times,serif" font-size="12.00">event_happens</text>
</g>
<!-- 5&#45;&gt;9 -->
<g id="edge10" class="edge">
<title>5&#45;&gt;9</title>
<path fill="none" stroke="black" stroke-dasharray="5,2" d="M126.03,-294.1C159.03,-274.47 207.7,-246.31 228,-238.5 297.31,-211.84 380.84,-194.62 438.13,-184.93"/>
<polygon fill="black" stroke="black" points="438.44,-188.43 447.73,-183.34 437.3,-181.52 438.44,-188.43"/>
<text text-anchor="middle" x="261.5" y="-241.9" font-family="Times,serif" font-size="12.00">event_timeout</text>
</g>
<!-- 7 -->
<g id="node7" class="node">
<title>7</title>
<polygon fill="none" stroke="blue" points="123.5,-153 123.5,-195 354.5,-195 354.5,-153 123.5,-153"/>
<text text-anchor="middle" x="133.5" y="-170.9" font-family="Times,serif" font-size="12.00"> </text>
<polyline fill="none" stroke="blue" points="143.5,-153 143.5,-195"/>
<text text-anchor="middle" x="239" y="-181.4" font-family="Times,serif" font-size="12.00">(∅↦{(ProhibitNotifyIndiv↦pdpc)})</text>
<polyline fill="none" stroke="blue" points="143.5,-174 334.5,-174"/>
<text text-anchor="middle" x="239" y="-160.4" font-family="Times,serif" font-size="12.00"># states: 6</text>
<polyline fill="none" stroke="blue" points="334.5,-153 334.5,-195"/>
<text text-anchor="middle" x="344.5" y="-170.9" font-family="Times,serif" font-size="12.00"> </text>
</g>
<!-- 5&#45;&gt;7 -->
<g id="edge6" class="edge">
<title>5&#45;&gt;7</title>
<path fill="none" stroke="black" d="M98.5,-294.1C103.85,-277.64 113.35,-254.47 128,-238.5 142.38,-222.84 161.53,-210.01 179.88,-200.08"/>
<polygon fill="black" stroke="black" points="181.33,-203.27 188.6,-195.56 178.12,-197.05 181.33,-203.27"/>
<text text-anchor="middle" x="163.5" y="-241.9" font-family="Times,serif" font-size="12.00">event_happens</text>
</g>
<!-- 7&#45;&gt;8 -->
<g id="edge8" class="edge">
<title>7&#45;&gt;8</title>
<path fill="none" stroke="black" d="M215.14,-153.13C200.75,-138.6 186.37,-117.94 193,-97.5 197.05,-85.01 204.58,-72.91 212.39,-62.69"/>
<polygon fill="black" stroke="black" points="215.01,-65.02 218.6,-55.05 209.58,-60.6 215.01,-65.02"/>
<text text-anchor="middle" x="228.5" y="-100.9" font-family="Times,serif" font-size="12.00">event_happens</text>
</g>
<!-- 7&#45;&gt;8 -->
<g id="edge12" class="edge">
<title>7&#45;&gt;8</title>
<path fill="none" stroke="black" stroke-dasharray="5,2" d="M249.25,-153.05C254.82,-141.06 261.15,-125.3 264,-110.5 267.03,-94.76 262.32,-77.76 256.2,-63.79"/>
<polygon fill="black" stroke="black" points="259.52,-62.61 252.01,-55.13 253.22,-65.66 259.52,-62.61"/>
<text text-anchor="middle" x="298.5" y="-100.9" font-family="Times,serif" font-size="12.00">event_timeout</text>
</g>
<!-- 6&#45;&gt;9 -->
<g id="edge11" class="edge">
<title>6&#45;&gt;9</title>
<path fill="none" stroke="black" stroke-dasharray="5,2" d="M386.06,-294.08C410.18,-270.14 450.8,-229.8 478,-202.8"/>
<polygon fill="black" stroke="black" points="480.27,-205.47 484.9,-195.94 475.34,-200.51 480.27,-205.47"/>
<text text-anchor="middle" x="474.5" y="-241.9" font-family="Times,serif" font-size="12.00">event_timeout</text>
</g>
<!-- 6&#45;&gt;7 -->
<g id="edge7" class="edge">
<title>6&#45;&gt;7</title>
<path fill="none" stroke="black" d="M347.8,-294.08C326.02,-270.24 289.39,-230.15 264.72,-203.15"/>
<polygon fill="black" stroke="black" points="267.51,-201.02 258.18,-196 262.34,-205.74 267.51,-201.02"/>
<text text-anchor="middle" x="342.5" y="-241.9" font-family="Times,serif" font-size="12.00">event_happens</text>
</g>
<!-- 3&#45;&gt;4 -->
<g id="edge3" class="edge">
<title>3&#45;&gt;4</title>
<path fill="none" stroke="black" d="M562.96,-577.08C547.55,-553.55 521.79,-514.19 504.12,-487.21"/>
<polygon fill="black" stroke="black" points="507.25,-485.59 498.84,-479.14 501.39,-489.43 507.25,-485.59"/>
<text text-anchor="middle" x="569.5" y="-523.9" font-family="Times,serif" font-size="12.00">event_happens</text>
</g>
<!-- 3&#45;&gt;9 -->
<g id="edge13" class="edge">
<title>3&#45;&gt;9</title>
<path fill="none" stroke="black" stroke-dasharray="5,2" d="M589.14,-577.09C603.23,-554.37 624.57,-515.53 632,-478.5 643.17,-422.85 615.06,-304.33 610,-293.5 593.29,-257.72 562.38,-224.63 538.58,-202.56"/>
<polygon fill="black" stroke="black" points="541.06,-200.08 531.3,-195.96 536.36,-205.27 541.06,-200.08"/>
<text text-anchor="middle" x="664.5" y="-382.9" font-family="Times,serif" font-size="12.00">event_timeout</text>
</g>
</g>
</svg>
