<?xml version="1.0" encoding="UTF-8" standalone="no"?>
<!DOCTYPE svg PUBLIC "-//W3C//DTD SVG 1.1//EN"
 "http://www.w3.org/Graphics/SVG/1.1/DTD/svg11.dtd">
<!-- Generated by graphviz version 7.0.3 (0)
 -->
<!-- Title: prob_graph Pages: 1 -->
<svg width="540pt" height="718pt"
 viewBox="0.00 0.00 540.00 718.26" xmlns="http://www.w3.org/2000/svg" xmlns:xlink="http://www.w3.org/1999/xlink">
<g id="graph0" class="graph" transform="scale(0.521487 0.521487) rotate(0) translate(4 1373.33)">
<title>prob_graph</title>
<polygon fill="white" stroke="none" points="-4,4 -4,-1373.33 1031.5,-1373.33 1031.5,4 -4,4"/>
<!-- 1 -->
<g id="node1" class="node">
<title>1</title>
<polygon fill="none" stroke="green" stroke-width="2" points="0,-1319 0,-1361 294,-1361 294,-1319 0,-1319"/>
<text text-anchor="middle" x="10" y="-1336.9" font-family="Times,serif" font-size="12.00"> </text>
<polyline fill="none" stroke="green" stroke-width="2" points="20,-1319 20,-1361"/>
<text text-anchor="middle" x="147" y="-1347.4" font-family="Times,serif" font-size="12.00">active_rules ↦ rules_to_trigger ↦ rules_to_interrupt</text>
<polyline fill="none" stroke="green" stroke-width="2" points="20,-1340 274,-1340"/>
<text text-anchor="middle" x="147" y="-1326.4" font-family="Times,serif" font-size="12.00"># states: 1</text>
<polyline fill="none" stroke="green" stroke-width="2" points="274,-1319 274,-1361"/>
<text text-anchor="middle" x="284" y="-1336.9" font-family="Times,serif" font-size="12.00"> </text>
</g>
<!-- 2 -->
<g id="node2" class="node">
<title>2</title>
<polygon fill="none" stroke="blue" points="78.5,-1192 78.5,-1234 215.5,-1234 215.5,-1192 78.5,-1192"/>
<text text-anchor="middle" x="88.5" y="-1209.9" font-family="Times,serif" font-size="12.00"> </text>
<polyline fill="none" stroke="blue" points="98.5,-1192 98.5,-1234"/>
<text text-anchor="middle" x="147" y="-1220.4" font-family="Times,serif" font-size="12.00">&lt;&lt; undefined &gt;&gt;</text>
<polyline fill="none" stroke="blue" points="98.5,-1213 195.5,-1213"/>
<text text-anchor="middle" x="147" y="-1199.4" font-family="Times,serif" font-size="12.00"># states: 5</text>
<polyline fill="none" stroke="blue" points="195.5,-1192 195.5,-1234"/>
<text text-anchor="middle" x="205.5" y="-1209.9" font-family="Times,serif" font-size="12.00"> </text>
</g>
<!-- 1&#45;&gt;2 -->
<g id="edge1" class="edge">
<title>1&#45;&gt;2</title>
<path fill="none" stroke="black" d="M147,-1319.19C147,-1299.26 147,-1268.23 147,-1245.03"/>
<polygon fill="black" stroke="black" points="150.5,-1245.23 147,-1235.23 143.5,-1245.23 150.5,-1245.23"/>
<text text-anchor="middle" x="191.5" y="-1272.9" font-family="Times,serif" font-size="12.00">start_cspm_MAIN</text>
</g>
<!-- 2&#45;&gt;2 -->
<g id="edge2" class="edge">
<title>2&#45;&gt;2</title>
<path fill="none" stroke="#806040" stroke-dasharray="5,2" d="M215.17,-1223.88C226.05,-1222.29 233.5,-1218.66 233.5,-1213 233.5,-1209.55 230.73,-1206.86 226.11,-1204.92"/>
<polygon fill="#806040" stroke="#806040" points="227.19,-1201.58 216.64,-1202.5 225.46,-1208.36 227.19,-1201.58"/>
<text text-anchor="middle" x="241" y="-1209.9" font-family="Times,serif" font-size="12.00">tau</text>
</g>
<!-- 4 -->
<g id="node3" class="node">
<title>4</title>
<polygon fill="none" stroke="blue" points="159.5,-1065 159.5,-1107 356.5,-1107 356.5,-1065 159.5,-1065"/>
<text text-anchor="middle" x="169.5" y="-1082.9" font-family="Times,serif" font-size="12.00"> </text>
<polyline fill="none" stroke="blue" points="179.5,-1065 179.5,-1107"/>
<text text-anchor="middle" x="258" y="-1093.4" font-family="Times,serif" font-size="12.00">(∅↦{(Assessment↦org)}↦∅)</text>
<polyline fill="none" stroke="blue" points="179.5,-1086 336.5,-1086"/>
<text text-anchor="middle" x="258" y="-1072.4" font-family="Times,serif" font-size="12.00"># states: 2</text>
<polyline fill="none" stroke="blue" points="336.5,-1065 336.5,-1107"/>
<text text-anchor="middle" x="346.5" y="-1082.9" font-family="Times,serif" font-size="12.00"> </text>
</g>
<!-- 2&#45;&gt;4 -->
<g id="edge4" class="edge">
<title>2&#45;&gt;4</title>
<path fill="none" stroke="#806040" stroke-dasharray="5,2" d="M164.59,-1192.19C183.02,-1171.44 212.13,-1138.65 232.96,-1115.2"/>
<polygon fill="#806040" stroke="#806040" points="235.47,-1117.65 239.49,-1107.85 230.23,-1113 235.47,-1117.65"/>
<text text-anchor="middle" x="213.5" y="-1145.9" font-family="Times,serif" font-size="12.00">tau</text>
</g>
<!-- 3 -->
<g id="node16" class="node">
<title>3</title>
<polygon fill="none" stroke="blue" points="471,-9 471,-51 583,-51 583,-9 471,-9"/>
<text text-anchor="middle" x="481" y="-26.9" font-family="Times,serif" font-size="12.00"> </text>
<polyline fill="none" stroke="blue" points="491,-9 491,-51"/>
<text text-anchor="middle" x="527" y="-37.4" font-family="Times,serif" font-size="12.00">(∅↦∅↦∅)</text>
<polyline fill="none" stroke="blue" points="491,-30 563,-30"/>
<text text-anchor="middle" x="527" y="-16.4" font-family="Times,serif" font-size="12.00"># states: 13</text>
<polyline fill="none" stroke="blue" points="563,-9 563,-51"/>
<text text-anchor="middle" x="573" y="-26.9" font-family="Times,serif" font-size="12.00"> </text>
</g>
<!-- 2&#45;&gt;3 -->
<g id="edge3" class="edge">
<title>2&#45;&gt;3</title>
<path fill="none" stroke="#806040" stroke-dasharray="5,2" d="M142.88,-1192.18C138.14,-1167.62 131,-1124.41 131,-1087 131,-1087 131,-1087 131,-156 131,-87.87 346.86,-52.2 459.84,-38.2"/>
<polygon fill="#806040" stroke="#806040" points="460.09,-41.7 469.6,-37.02 459.25,-34.75 460.09,-41.7"/>
<text text-anchor="middle" x="138.5" y="-638.9" font-family="Times,serif" font-size="12.00">tau</text>
</g>
<!-- 5 -->
<g id="node15" class="node">
<title>5</title>
<polygon fill="none" stroke="blue" points="159.5,-938 159.5,-980 356.5,-980 356.5,-938 159.5,-938"/>
<text text-anchor="middle" x="169.5" y="-955.9" font-family="Times,serif" font-size="12.00"> </text>
<polyline fill="none" stroke="blue" points="179.5,-938 179.5,-980"/>
<text text-anchor="middle" x="258" y="-966.4" font-family="Times,serif" font-size="12.00">({(Assessment↦org)}↦∅↦∅)</text>
<polyline fill="none" stroke="blue" points="179.5,-959 336.5,-959"/>
<text text-anchor="middle" x="258" y="-945.4" font-family="Times,serif" font-size="12.00"># states: 64</text>
<polyline fill="none" stroke="blue" points="336.5,-938 336.5,-980"/>
<text text-anchor="middle" x="346.5" y="-955.9" font-family="Times,serif" font-size="12.00"> </text>
</g>
<!-- 4&#45;&gt;5 -->
<g id="edge5" class="edge">
<title>4&#45;&gt;5</title>
<path fill="none" stroke="black" d="M258,-1065.19C258,-1045.26 258,-1014.23 258,-991.03"/>
<polygon fill="black" stroke="black" points="261.5,-991.23 258,-981.23 254.5,-991.23 261.5,-991.23"/>
<text text-anchor="middle" x="285.5" y="-1019.9" font-family="Times,serif" font-size="12.00">trigger_rule</text>
</g>
<!-- 6 -->
<g id="node4" class="node">
<title>6</title>
<polygon fill="none" stroke="green" points="211,-811 211,-853 495,-853 495,-811 211,-811"/>
<text text-anchor="middle" x="221" y="-828.9" font-family="Times,serif" font-size="12.00"> </text>
<polyline fill="none" stroke="green" points="231,-811 231,-853"/>
<text text-anchor="middle" x="353" y="-839.4" font-family="Times,serif" font-size="12.00">(∅↦{(NotifyPdpc↦org),(NotifyIndiv↦org)}↦∅)</text>
<polyline fill="none" stroke="green" points="231,-832 475,-832"/>
<text text-anchor="middle" x="353" y="-818.4" font-family="Times,serif" font-size="12.00"># states: 1</text>
<polyline fill="none" stroke="green" points="475,-811 475,-853"/>
<text text-anchor="middle" x="485" y="-828.9" font-family="Times,serif" font-size="12.00"> </text>
</g>
<!-- 7 -->
<g id="node5" class="node">
<title>7</title>
<polygon fill="none" stroke="green" points="212.5,-684 212.5,-726 493.5,-726 493.5,-684 212.5,-684"/>
<text text-anchor="middle" x="222.5" y="-701.9" font-family="Times,serif" font-size="12.00"> </text>
<polyline fill="none" stroke="green" points="232.5,-684 232.5,-726"/>
<text text-anchor="middle" x="353" y="-712.4" font-family="Times,serif" font-size="12.00">({(NotifyPdpc↦org)}↦{(NotifyIndiv↦org)}↦∅)</text>
<polyline fill="none" stroke="green" points="232.5,-705 473.5,-705"/>
<text text-anchor="middle" x="353" y="-691.4" font-family="Times,serif" font-size="12.00"># states: 1</text>
<polyline fill="none" stroke="green" points="473.5,-684 473.5,-726"/>
<text text-anchor="middle" x="483.5" y="-701.9" font-family="Times,serif" font-size="12.00"> </text>
</g>
<!-- 6&#45;&gt;7 -->
<g id="edge8" class="edge">
<title>6&#45;&gt;7</title>
<path fill="none" stroke="#806040" d="M353,-811.19C353,-791.26 353,-760.23 353,-737.03"/>
<polygon fill="#806040" stroke="#806040" points="356.5,-737.23 353,-727.23 349.5,-737.23 356.5,-737.23"/>
<text text-anchor="middle" x="380.5" y="-765.9" font-family="Times,serif" font-size="12.00">trigger_rule</text>
</g>
<!-- 8 -->
<g id="node6" class="node">
<title>8</title>
<polygon fill="none" stroke="green" points="511.5,-684 511.5,-726 792.5,-726 792.5,-684 511.5,-684"/>
<text text-anchor="middle" x="521.5" y="-701.9" font-family="Times,serif" font-size="12.00"> </text>
<polyline fill="none" stroke="green" points="531.5,-684 531.5,-726"/>
<text text-anchor="middle" x="652" y="-712.4" font-family="Times,serif" font-size="12.00">({(NotifyIndiv↦org)}↦{(NotifyPdpc↦org)}↦∅)</text>
<polyline fill="none" stroke="green" points="531.5,-705 772.5,-705"/>
<text text-anchor="middle" x="652" y="-691.4" font-family="Times,serif" font-size="12.00"># states: 1</text>
<polyline fill="none" stroke="green" points="772.5,-684 772.5,-726"/>
<text text-anchor="middle" x="782.5" y="-701.9" font-family="Times,serif" font-size="12.00"> </text>
</g>
<!-- 6&#45;&gt;8 -->
<g id="edge9" class="edge">
<title>6&#45;&gt;8</title>
<path fill="none" stroke="#806040" d="M400.71,-811.06C453.22,-789.1 537.63,-753.81 593.94,-730.27"/>
<polygon fill="#806040" stroke="#806040" points="595.19,-733.54 603.07,-726.46 592.49,-727.09 595.19,-733.54"/>
<text text-anchor="middle" x="539.5" y="-765.9" font-family="Times,serif" font-size="12.00">trigger_rule</text>
</g>
<!-- 9 -->
<g id="node8" class="node">
<title>9</title>
<polygon fill="none" stroke="blue" points="510,-557 510,-599 794,-599 794,-557 510,-557"/>
<text text-anchor="middle" x="520" y="-574.9" font-family="Times,serif" font-size="12.00"> </text>
<polyline fill="none" stroke="blue" points="530,-557 530,-599"/>
<text text-anchor="middle" x="652" y="-585.4" font-family="Times,serif" font-size="12.00">({(NotifyPdpc↦org),(NotifyIndiv↦org)}↦∅↦∅)</text>
<polyline fill="none" stroke="blue" points="530,-578 774,-578"/>
<text text-anchor="middle" x="652" y="-564.4" font-family="Times,serif" font-size="12.00"># states: 5</text>
<polyline fill="none" stroke="blue" points="774,-557 774,-599"/>
<text text-anchor="middle" x="784" y="-574.9" font-family="Times,serif" font-size="12.00"> </text>
</g>
<!-- 7&#45;&gt;9 -->
<g id="edge10" class="edge">
<title>7&#45;&gt;9</title>
<path fill="none" stroke="black" d="M400.71,-684.06C453.22,-662.1 537.63,-626.81 593.94,-603.27"/>
<polygon fill="black" stroke="black" points="595.19,-606.54 603.07,-599.46 592.49,-600.09 595.19,-606.54"/>
<text text-anchor="middle" x="539.5" y="-638.9" font-family="Times,serif" font-size="12.00">trigger_rule</text>
</g>
<!-- 8&#45;&gt;9 -->
<g id="edge11" class="edge">
<title>8&#45;&gt;9</title>
<path fill="none" stroke="black" d="M652,-684.19C652,-664.26 652,-633.23 652,-610.03"/>
<polygon fill="black" stroke="black" points="655.5,-610.23 652,-600.23 648.5,-610.23 655.5,-610.23"/>
<text text-anchor="middle" x="679.5" y="-638.9" font-family="Times,serif" font-size="12.00">trigger_rule</text>
</g>
<!-- 13 -->
<g id="node7" class="node">
<title>13</title>
<polygon fill="none" stroke="green" points="545,-262 545,-304 787,-304 787,-262 545,-262"/>
<text text-anchor="middle" x="555" y="-279.9" font-family="Times,serif" font-size="12.00"> </text>
<polyline fill="none" stroke="green" points="565,-262 565,-304"/>
<text text-anchor="middle" x="666" y="-290.4" font-family="Times,serif" font-size="12.00">(∅↦{(ProhibitNotifyIndiv↦pdpc)}↦∅)</text>
<polyline fill="none" stroke="green" points="565,-283 767,-283"/>
<text text-anchor="middle" x="666" y="-269.4" font-family="Times,serif" font-size="12.00"># states: 1</text>
<polyline fill="none" stroke="green" points="767,-262 767,-304"/>
<text text-anchor="middle" x="777" y="-279.9" font-family="Times,serif" font-size="12.00"> </text>
</g>
<!-- 16 -->
<g id="node14" class="node">
<title>16</title>
<polygon fill="none" stroke="blue" points="506,-136 506,-178 748,-178 748,-136 506,-136"/>
<text text-anchor="middle" x="516" y="-153.9" font-family="Times,serif" font-size="12.00"> </text>
<polyline fill="none" stroke="blue" points="526,-136 526,-178"/>
<text text-anchor="middle" x="627" y="-164.4" font-family="Times,serif" font-size="12.00">({(ProhibitNotifyIndiv↦pdpc)}↦∅↦∅)</text>
<polyline fill="none" stroke="blue" points="526,-157 728,-157"/>
<text text-anchor="middle" x="627" y="-143.4" font-family="Times,serif" font-size="12.00"># states: 11</text>
<polyline fill="none" stroke="blue" points="728,-136 728,-178"/>
<text text-anchor="middle" x="738" y="-153.9" font-family="Times,serif" font-size="12.00"> </text>
</g>
<!-- 13&#45;&gt;16 -->
<g id="edge18" class="edge">
<title>13&#45;&gt;16</title>
<path fill="none" stroke="black" d="M659.73,-262.08C653.51,-242.28 643.87,-211.65 636.67,-188.74"/>
<polygon fill="black" stroke="black" points="640.04,-187.81 633.7,-179.32 633.37,-189.91 640.04,-187.81"/>
<text text-anchor="middle" x="674.5" y="-216.9" font-family="Times,serif" font-size="12.00">trigger_rule</text>
</g>
<!-- 10 -->
<g id="node9" class="node">
<title>10</title>
<polygon fill="none" stroke="blue" points="216.5,-431 216.5,-473 543.5,-473 543.5,-431 216.5,-431"/>
<text text-anchor="middle" x="226.5" y="-448.9" font-family="Times,serif" font-size="12.00"> </text>
<polyline fill="none" stroke="blue" points="236.5,-431 236.5,-473"/>
<text text-anchor="middle" x="380" y="-459.4" font-family="Times,serif" font-size="12.00">({(NotifyIndiv↦org)}↦{(ProhibitNotifyIndiv↦pdpc)}↦∅)</text>
<polyline fill="none" stroke="blue" points="236.5,-452 523.5,-452"/>
<text text-anchor="middle" x="380" y="-438.4" font-family="Times,serif" font-size="12.00"># states: 4</text>
<polyline fill="none" stroke="blue" points="523.5,-431 523.5,-473"/>
<text text-anchor="middle" x="533.5" y="-448.9" font-family="Times,serif" font-size="12.00"> </text>
</g>
<!-- 9&#45;&gt;10 -->
<g id="edge12" class="edge">
<title>9&#45;&gt;10</title>
<path fill="none" stroke="#806040" stroke-dasharray="5,2" d="M608.3,-557.08C560.81,-535.43 484.9,-500.82 433.79,-477.52"/>
<polygon fill="#806040" stroke="#806040" points="435.52,-474.46 424.97,-473.5 432.62,-480.83 435.52,-474.46"/>
<text text-anchor="middle" x="554" y="-511.9" font-family="Times,serif" font-size="12.00">notify_pdpc</text>
</g>
<!-- 14 -->
<g id="node10" class="node">
<title>14</title>
<polygon fill="none" stroke="green" points="830.5,-346 830.5,-388 1027.5,-388 1027.5,-346 830.5,-346"/>
<text text-anchor="middle" x="840.5" y="-363.9" font-family="Times,serif" font-size="12.00"> </text>
<polyline fill="none" stroke="green" points="850.5,-346 850.5,-388"/>
<text text-anchor="middle" x="929" y="-374.4" font-family="Times,serif" font-size="12.00">({(NotifyIndiv↦org)}↦∅↦∅)</text>
<polyline fill="none" stroke="green" points="850.5,-367 1007.5,-367"/>
<text text-anchor="middle" x="929" y="-353.4" font-family="Times,serif" font-size="12.00"># states: 1</text>
<polyline fill="none" stroke="green" points="1007.5,-346 1007.5,-388"/>
<text text-anchor="middle" x="1017.5" y="-363.9" font-family="Times,serif" font-size="12.00"> </text>
</g>
<!-- 9&#45;&gt;14 -->
<g id="edge19" class="edge">
<title>9&#45;&gt;14</title>
<path fill="none" stroke="#806040" stroke-dasharray="5,2" d="M678.31,-557.15C728.46,-519.31 837.73,-436.87 893.98,-394.42"/>
<polygon fill="#806040" stroke="#806040" points="895.78,-397.45 901.66,-388.63 891.57,-391.86 895.78,-397.45"/>
<text text-anchor="middle" x="767" y="-511.9" font-family="Times,serif" font-size="12.00">notify_pdpc</text>
</g>
<!-- 11 -->
<g id="node11" class="node">
<title>11</title>
<polygon fill="none" stroke="blue" points="568,-431 568,-473 764,-473 764,-431 568,-431"/>
<text text-anchor="middle" x="578" y="-448.9" font-family="Times,serif" font-size="12.00"> </text>
<polyline fill="none" stroke="blue" points="588,-431 588,-473"/>
<text text-anchor="middle" x="666" y="-459.4" font-family="Times,serif" font-size="12.00">({(NotifyPdpc↦org)}↦∅↦∅)</text>
<polyline fill="none" stroke="blue" points="588,-452 744,-452"/>
<text text-anchor="middle" x="666" y="-438.4" font-family="Times,serif" font-size="12.00"># states: 6</text>
<polyline fill="none" stroke="blue" points="744,-431 744,-473"/>
<text text-anchor="middle" x="754" y="-448.9" font-family="Times,serif" font-size="12.00"> </text>
</g>
<!-- 9&#45;&gt;11 -->
<g id="edge13" class="edge">
<title>9&#45;&gt;11</title>
<path fill="none" stroke="black" d="M654.25,-557.08C656.47,-537.37 659.91,-506.93 662.49,-484.05"/>
<polygon fill="black" stroke="black" points="665.94,-484.71 663.59,-474.38 658.99,-483.92 665.94,-484.71"/>
<text text-anchor="middle" x="688" y="-511.9" font-family="Times,serif" font-size="12.00">notify_indiv</text>
</g>
<!-- 12 -->
<g id="node13" class="node">
<title>12</title>
<polygon fill="none" stroke="blue" points="197,-262 197,-304 527,-304 527,-262 197,-262"/>
<text text-anchor="middle" x="207" y="-279.9" font-family="Times,serif" font-size="12.00"> </text>
<polyline fill="none" stroke="blue" points="217,-262 217,-304"/>
<text text-anchor="middle" x="362" y="-290.4" font-family="Times,serif" font-size="12.00">({(NotifyIndiv↦org),(ProhibitNotifyIndiv↦pdpc)}↦∅↦∅)</text>
<polyline fill="none" stroke="blue" points="217,-283 507,-283"/>
<text text-anchor="middle" x="362" y="-269.4" font-family="Times,serif" font-size="12.00"># states: 14</text>
<polyline fill="none" stroke="blue" points="507,-262 507,-304"/>
<text text-anchor="middle" x="517" y="-279.9" font-family="Times,serif" font-size="12.00"> </text>
</g>
<!-- 10&#45;&gt;12 -->
<g id="edge14" class="edge">
<title>10&#45;&gt;12</title>
<path fill="none" stroke="black" d="M377.86,-431.19C374.77,-402.44 368.99,-348.88 365.33,-314.91"/>
<polygon fill="black" stroke="black" points="368.85,-314.86 364.29,-305.29 361.89,-315.61 368.85,-314.86"/>
<text text-anchor="middle" x="401.5" y="-363.9" font-family="Times,serif" font-size="12.00">trigger_rule</text>
</g>
<!-- 14&#45;&gt;3 -->
<g id="edge20" class="edge">
<title>14&#45;&gt;3</title>
<path fill="none" stroke="black" d="M928.39,-346.34C925.66,-294.74 910.7,-154.7 829,-86.5 794.14,-57.4 671.92,-42.45 594.06,-35.71"/>
<polygon fill="black" stroke="black" points="594.68,-32.25 584.42,-34.9 594.09,-39.22 594.68,-32.25"/>
<text text-anchor="middle" x="937" y="-216.9" font-family="Times,serif" font-size="12.00">notify_indiv</text>
</g>
<!-- 11&#45;&gt;13 -->
<g id="edge15" class="edge">
<title>11&#45;&gt;13</title>
<path fill="none" stroke="#806040" stroke-dasharray="5,2" d="M666,-431.19C666,-402.44 666,-348.88 666,-314.91"/>
<polygon fill="#806040" stroke="#806040" points="669.5,-315.3 666,-305.3 662.5,-315.3 669.5,-315.3"/>
<text text-anchor="middle" x="695" y="-363.9" font-family="Times,serif" font-size="12.00">notify_pdpc</text>
</g>
<!-- 11&#45;&gt;3 -->
<g id="edge21" class="edge">
<title>11&#45;&gt;3</title>
<path fill="none" stroke="#806040" stroke-dasharray="5,2" d="M693.34,-431.18C725.41,-405.99 776.65,-359.15 796,-304.5 815.31,-249.96 758.58,-137.62 757,-135.5 718.06,-83.19 646.78,-56.4 593.85,-43.12"/>
<polygon fill="#806040" stroke="#806040" points="594.86,-39.76 584.32,-40.84 593.23,-46.57 594.86,-39.76"/>
<text text-anchor="middle" x="820" y="-216.9" font-family="Times,serif" font-size="12.00">notify_pdpc</text>
</g>
<!-- 15 -->
<g id="node12" class="node">
<title>15</title>
<polygon fill="none" stroke="blue" points="236,-136 236,-178 488,-178 488,-136 236,-136"/>
<text text-anchor="middle" x="246" y="-153.9" font-family="Times,serif" font-size="12.00"> </text>
<polyline fill="none" stroke="blue" points="256,-136 256,-178"/>
<text text-anchor="middle" x="362" y="-164.4" font-family="Times,serif" font-size="12.00">({(NotifyIndiv↦org)}↦∅↦{NotifyIndiv})</text>
<polyline fill="none" stroke="blue" points="256,-157 468,-157"/>
<text text-anchor="middle" x="362" y="-143.4" font-family="Times,serif" font-size="12.00"># states: 5</text>
<polyline fill="none" stroke="blue" points="468,-136 468,-178"/>
<text text-anchor="middle" x="478" y="-153.9" font-family="Times,serif" font-size="12.00"> </text>
</g>
<!-- 15&#45;&gt;3 -->
<g id="edge22" class="edge">
<title>15&#45;&gt;3</title>
<path fill="none" stroke="black" d="M388.14,-136.19C416.06,-115.04 460.47,-81.4 491.53,-57.87"/>
<polygon fill="black" stroke="black" points="493.64,-60.66 499.5,-51.83 489.41,-55.08 493.64,-60.66"/>
<text text-anchor="middle" x="482" y="-89.9" font-family="Times,serif" font-size="12.00">interrupt_rule</text>
</g>
<!-- 12&#45;&gt;15 -->
<g id="edge16" class="edge">
<title>12&#45;&gt;15</title>
<path fill="none" stroke="black" d="M362,-262.08C362,-242.46 362,-212.21 362,-189.37"/>
<polygon fill="black" stroke="black" points="365.5,-189.39 362,-179.39 358.5,-189.39 365.5,-189.39"/>
<text text-anchor="middle" x="412.5" y="-216.9" font-family="Times,serif" font-size="12.00">prohibit_notify_indiv</text>
</g>
<!-- 12&#45;&gt;16 -->
<g id="edge17" class="edge">
<title>12&#45;&gt;16</title>
<path fill="none" stroke="black" d="M404.58,-262.08C450.74,-240.47 524.49,-205.97 574.29,-182.67"/>
<polygon fill="black" stroke="black" points="575.58,-185.92 583.16,-178.51 572.62,-179.58 575.58,-185.92"/>
<text text-anchor="middle" x="532" y="-216.9" font-family="Times,serif" font-size="12.00">notify_indiv</text>
</g>
<!-- 16&#45;&gt;3 -->
<g id="edge23" class="edge">
<title>16&#45;&gt;3</title>
<path fill="none" stroke="black" d="M611.15,-136.19C594.62,-115.53 568.55,-82.94 549.81,-59.51"/>
<polygon fill="black" stroke="black" points="552.7,-57.52 543.72,-51.9 547.23,-61.89 552.7,-57.52"/>
<text text-anchor="middle" x="629.5" y="-89.9" font-family="Times,serif" font-size="12.00">prohibit_notify_indiv</text>
</g>
<!-- 5&#45;&gt;6 -->
<g id="edge6" class="edge">
<title>5&#45;&gt;6</title>
<path fill="none" stroke="#806040" stroke-dasharray="5,2" d="M273.05,-938.19C288.69,-917.62 313.31,-885.23 331.09,-861.82"/>
<polygon fill="#806040" stroke="#806040" points="333.84,-864 337.1,-853.92 328.26,-859.76 333.84,-864"/>
<text text-anchor="middle" x="323.5" y="-892.9" font-family="Times,serif" font-size="12.00">assess</text>
</g>
<!-- 5&#45;&gt;3 -->
<g id="edge7" class="edge">
<title>5&#45;&gt;3</title>
<path fill="none" stroke="#806040" stroke-dasharray="5,2" d="M231.78,-938.1C205.53,-915.7 169,-876.69 169,-833 169,-833 169,-833 169,-156 169,-95.08 356.09,-56.92 459.77,-40.44"/>
<polygon fill="#806040" stroke="#806040" points="460.23,-43.91 469.57,-38.91 459.15,-37 460.23,-43.91"/>
<text text-anchor="middle" x="183.5" y="-511.9" font-family="Times,serif" font-size="12.00">assess</text>
</g>
</g>
</svg>
