<?xml version="1.0" encoding="UTF-8" standalone="no"?>
<!DOCTYPE svg PUBLIC "-//W3C//DTD SVG 1.1//EN"
 "http://www.w3.org/Graphics/SVG/1.1/DTD/svg11.dtd">
<!-- Generated by graphviz version 7.0.3 (0)
 -->
<!-- Title: prob_graph Pages: 1 -->
<svg width="540pt" height="719pt"
 viewBox="0.00 0.00 540.00 718.77" xmlns="http://www.w3.org/2000/svg" xmlns:xlink="http://www.w3.org/1999/xlink">
<g id="graph0" class="graph" transform="scale(0.36999 0.36999) rotate(0) translate(4 1938.67)">
<title>prob_graph</title>
<polygon fill="white" stroke="none" points="-4,4 -4,-1938.67 1455.5,-1938.67 1455.5,4 -4,4"/>
<!-- 1 -->
<g id="node1" class="node">
<title>1</title>
<polygon fill="none" stroke="green" points="1034.5,-1870 1034.5,-1912 1451.5,-1912 1451.5,-1870 1034.5,-1870"/>
<text text-anchor="middle" x="1044.5" y="-1887.9" font-family="Times,serif" font-size="12.00"> </text>
<polyline fill="none" stroke="green" points="1054.5,-1870 1054.5,-1912"/>
<text text-anchor="middle" x="1243" y="-1898.4" font-family="Times,serif" font-size="12.00">is_contract_breached ↦ active_rules ↦ rules_to_trigger ↦ rules_to_interrupt</text>
<polyline fill="none" stroke="green" points="1054.5,-1891 1431.5,-1891"/>
<text text-anchor="middle" x="1243" y="-1877.4" font-family="Times,serif" font-size="12.00"># states: 1</text>
<polyline fill="none" stroke="green" points="1431.5,-1870 1431.5,-1912"/>
<text text-anchor="middle" x="1441.5" y="-1887.9" font-family="Times,serif" font-size="12.00"> </text>
</g>
<!-- 2 -->
<g id="node2" class="node">
<title>2</title>
<polygon fill="none" stroke="blue" points="1174.5,-1686 1174.5,-1728 1311.5,-1728 1311.5,-1686 1174.5,-1686"/>
<text text-anchor="middle" x="1184.5" y="-1703.9" font-family="Times,serif" font-size="12.00"> </text>
<polyline fill="none" stroke="blue" points="1194.5,-1686 1194.5,-1728"/>
<text text-anchor="middle" x="1243" y="-1714.4" font-family="Times,serif" font-size="12.00">&lt;&lt; undefined &gt;&gt;</text>
<polyline fill="none" stroke="blue" points="1194.5,-1707 1291.5,-1707"/>
<text text-anchor="middle" x="1243" y="-1693.4" font-family="Times,serif" font-size="12.00"># states: 5</text>
<polyline fill="none" stroke="blue" points="1291.5,-1686 1291.5,-1728"/>
<text text-anchor="middle" x="1301.5" y="-1703.9" font-family="Times,serif" font-size="12.00"> </text>
</g>
<!-- 1&#45;&gt;2 -->
<g id="edge1" class="edge">
<title>1&#45;&gt;2</title>
<path fill="none" stroke="black" d="M1243,-1870.18C1243,-1838.59 1243,-1776.57 1243,-1739.05"/>
<polygon fill="black" stroke="black" points="1246.5,-1739.31 1243,-1729.31 1239.5,-1739.31 1246.5,-1739.31"/>
<text text-anchor="middle" x="1287.5" y="-1795.9" font-family="Times,serif" font-size="12.00">start_cspm_MAIN</text>
</g>
<!-- 2&#45;&gt;2 -->
<g id="edge2" class="edge">
<title>2&#45;&gt;2</title>
<path fill="none" stroke="#806040" stroke-dasharray="5,2" d="M1311.17,-1722.89C1322.05,-1720.56 1329.5,-1715.27 1329.5,-1707 1329.5,-1701.83 1326.59,-1697.83 1321.75,-1694.98"/>
<polygon fill="#806040" stroke="#806040" points="1323.19,-1691.78 1312.59,-1691.63 1320.78,-1698.36 1323.19,-1691.78"/>
<text text-anchor="middle" x="1337" y="-1703.9" font-family="Times,serif" font-size="12.00">tau</text>
</g>
<!-- 4 -->
<g id="node3" class="node">
<title>4</title>
<polygon fill="none" stroke="blue" points="764,-1501 764,-1543 1018,-1543 1018,-1501 764,-1501"/>
<text text-anchor="middle" x="774" y="-1518.9" font-family="Times,serif" font-size="12.00"> </text>
<polyline fill="none" stroke="blue" points="784,-1501 784,-1543"/>
<text text-anchor="middle" x="891" y="-1529.4" font-family="Times,serif" font-size="12.00">(FALSE↦∅↦{(Assessment↦org)}↦∅)</text>
<polyline fill="none" stroke="blue" points="784,-1522 998,-1522"/>
<text text-anchor="middle" x="891" y="-1508.4" font-family="Times,serif" font-size="12.00"># states: 2</text>
<polyline fill="none" stroke="blue" points="998,-1501 998,-1543"/>
<text text-anchor="middle" x="1008" y="-1518.9" font-family="Times,serif" font-size="12.00"> </text>
</g>
<!-- 2&#45;&gt;4 -->
<g id="edge4" class="edge">
<title>2&#45;&gt;4</title>
<path fill="none" stroke="#806040" stroke-dasharray="5,2" d="M1204.66,-1686.07C1140.12,-1652.52 1009.93,-1584.83 939.27,-1548.1"/>
<polygon fill="#806040" stroke="#806040" points="941.12,-1545.11 930.64,-1543.61 937.89,-1551.32 941.12,-1545.11"/>
<text text-anchor="middle" x="1084.5" y="-1610.9" font-family="Times,serif" font-size="12.00">tau</text>
</g>
<!-- 3 -->
<g id="node19" class="node">
<title>3</title>
<polygon fill="none" stroke="blue" stroke-width="2" points="588.5,-22 588.5,-64 753.5,-64 753.5,-22 588.5,-22"/>
<text text-anchor="middle" x="598.5" y="-39.9" font-family="Times,serif" font-size="12.00"> </text>
<polyline fill="none" stroke="blue" stroke-width="2" points="608.5,-22 608.5,-64"/>
<text text-anchor="middle" x="671" y="-50.4" font-family="Times,serif" font-size="12.00">(FALSE↦∅↦∅↦∅)</text>
<polyline fill="none" stroke="blue" stroke-width="2" points="608.5,-43 733.5,-43"/>
<text text-anchor="middle" x="671" y="-29.4" font-family="Times,serif" font-size="12.00"># states: 19</text>
<polyline fill="none" stroke="blue" stroke-width="2" points="733.5,-22 733.5,-64"/>
<text text-anchor="middle" x="743.5" y="-39.9" font-family="Times,serif" font-size="12.00"> </text>
</g>
<!-- 2&#45;&gt;3 -->
<g id="edge3" class="edge">
<title>2&#45;&gt;3</title>
<path fill="none" stroke="#806040" stroke-dasharray="5,2" d="M1257.66,-1686.03C1280.01,-1653.58 1320,-1586.59 1320,-1523 1320,-1523 1320,-1523 1320,-227 1320,-112.96 944.13,-66.51 764.48,-50.82"/>
<polygon fill="#806040" stroke="#806040" points="764.97,-47.35 754.7,-49.98 764.37,-54.32 764.97,-47.35"/>
<text text-anchor="middle" x="1327.5" y="-871.9" font-family="Times,serif" font-size="12.00">tau</text>
</g>
<!-- 5 -->
<g id="node17" class="node">
<title>5</title>
<polygon fill="none" stroke="blue" points="0,-1316 0,-1358 254,-1358 254,-1316 0,-1316"/>
<text text-anchor="middle" x="10" y="-1333.9" font-family="Times,serif" font-size="12.00"> </text>
<polyline fill="none" stroke="blue" points="20,-1316 20,-1358"/>
<text text-anchor="middle" x="127" y="-1344.4" font-family="Times,serif" font-size="12.00">(FALSE↦{(Assessment↦org)}↦∅↦∅)</text>
<polyline fill="none" stroke="blue" points="20,-1337 234,-1337"/>
<text text-anchor="middle" x="127" y="-1323.4" font-family="Times,serif" font-size="12.00"># states: 64</text>
<polyline fill="none" stroke="blue" points="234,-1316 234,-1358"/>
<text text-anchor="middle" x="244" y="-1333.9" font-family="Times,serif" font-size="12.00"> </text>
</g>
<!-- 4&#45;&gt;5 -->
<g id="edge5" class="edge">
<title>4&#45;&gt;5</title>
<path fill="none" stroke="black" d="M807.78,-1501.07C664.5,-1466.75 372.13,-1396.72 221.45,-1360.62"/>
<polygon fill="black" stroke="black" points="222.42,-1357.26 211.88,-1358.33 220.78,-1364.06 222.42,-1357.26"/>
<text text-anchor="middle" x="558.5" y="-1425.9" font-family="Times,serif" font-size="12.00">trigger_rule</text>
</g>
<!-- 6 -->
<g id="node4" class="node">
<title>6</title>
<polygon fill="none" stroke="blue" points="97.5,-1131 97.5,-1173 442.5,-1173 442.5,-1131 97.5,-1131"/>
<text text-anchor="middle" x="107.5" y="-1148.9" font-family="Times,serif" font-size="12.00"> </text>
<polyline fill="none" stroke="blue" points="117.5,-1131 117.5,-1173"/>
<text text-anchor="middle" x="270" y="-1159.4" font-family="Times,serif" font-size="12.00">(FALSE↦∅↦{(NotifyPdpc↦org),(NotifyIndiv↦org)}↦∅)</text>
<polyline fill="none" stroke="blue" points="117.5,-1152 422.5,-1152"/>
<text text-anchor="middle" x="270" y="-1138.4" font-family="Times,serif" font-size="12.00"># states: 2</text>
<polyline fill="none" stroke="blue" points="422.5,-1131 422.5,-1173"/>
<text text-anchor="middle" x="432.5" y="-1148.9" font-family="Times,serif" font-size="12.00"> </text>
</g>
<!-- 8 -->
<g id="node11" class="node">
<title>8</title>
<polygon fill="none" stroke="blue" points="98,-946 98,-988 440,-988 440,-946 98,-946"/>
<text text-anchor="middle" x="108" y="-963.9" font-family="Times,serif" font-size="12.00"> </text>
<polyline fill="none" stroke="blue" points="118,-946 118,-988"/>
<text text-anchor="middle" x="269" y="-974.4" font-family="Times,serif" font-size="12.00">(FALSE↦{(NotifyPdpc↦org)}↦{(NotifyIndiv↦org)}↦∅)</text>
<polyline fill="none" stroke="blue" points="118,-967 420,-967"/>
<text text-anchor="middle" x="269" y="-953.4" font-family="Times,serif" font-size="12.00"># states: 2</text>
<polyline fill="none" stroke="blue" points="420,-946 420,-988"/>
<text text-anchor="middle" x="430" y="-963.9" font-family="Times,serif" font-size="12.00"> </text>
</g>
<!-- 6&#45;&gt;8 -->
<g id="edge7" class="edge">
<title>6&#45;&gt;8</title>
<path fill="none" stroke="#806040" d="M269.89,-1131.07C269.72,-1099.3 269.38,-1036.95 269.17,-999.22"/>
<polygon fill="#806040" stroke="#806040" points="272.67,-999.4 269.12,-989.42 265.67,-999.44 272.67,-999.4"/>
<text text-anchor="middle" x="297.5" y="-1056.9" font-family="Times,serif" font-size="12.00">trigger_rule</text>
</g>
<!-- 9 -->
<g id="node12" class="node">
<title>9</title>
<polygon fill="none" stroke="blue" points="458,-946 458,-988 800,-988 800,-946 458,-946"/>
<text text-anchor="middle" x="468" y="-963.9" font-family="Times,serif" font-size="12.00"> </text>
<polyline fill="none" stroke="blue" points="478,-946 478,-988"/>
<text text-anchor="middle" x="629" y="-974.4" font-family="Times,serif" font-size="12.00">(FALSE↦{(NotifyIndiv↦org)}↦{(NotifyPdpc↦org)}↦∅)</text>
<polyline fill="none" stroke="blue" points="478,-967 780,-967"/>
<text text-anchor="middle" x="629" y="-953.4" font-family="Times,serif" font-size="12.00"># states: 2</text>
<polyline fill="none" stroke="blue" points="780,-946 780,-988"/>
<text text-anchor="middle" x="790" y="-963.9" font-family="Times,serif" font-size="12.00"> </text>
</g>
<!-- 6&#45;&gt;9 -->
<g id="edge8" class="edge">
<title>6&#45;&gt;9</title>
<path fill="none" stroke="#806040" d="M309.1,-1131.07C374.92,-1097.52 507.7,-1029.83 579.77,-993.1"/>
<polygon fill="#806040" stroke="#806040" points="581.28,-996.26 588.6,-988.6 578.1,-990.02 581.28,-996.26"/>
<text text-anchor="middle" x="488.5" y="-1056.9" font-family="Times,serif" font-size="12.00">trigger_rule</text>
</g>
<!-- 13 -->
<g id="node5" class="node">
<title>13</title>
<polygon fill="none" stroke="green" points="369,-577 369,-619 619,-619 619,-577 369,-577"/>
<text text-anchor="middle" x="379" y="-594.9" font-family="Times,serif" font-size="12.00"> </text>
<polyline fill="none" stroke="green" points="389,-577 389,-619"/>
<text text-anchor="middle" x="494" y="-605.4" font-family="Times,serif" font-size="12.00">(TRUE↦{(NotifyIndiv↦org)}↦∅↦∅)</text>
<polyline fill="none" stroke="green" points="389,-598 599,-598"/>
<text text-anchor="middle" x="494" y="-584.4" font-family="Times,serif" font-size="12.00"># states: 1</text>
<polyline fill="none" stroke="green" points="599,-577 599,-619"/>
<text text-anchor="middle" x="609" y="-594.9" font-family="Times,serif" font-size="12.00"> </text>
</g>
<!-- 14 -->
<g id="node6" class="node">
<title>14</title>
<polygon fill="none" stroke="green" points="637.5,-577 637.5,-619 886.5,-619 886.5,-577 637.5,-577"/>
<text text-anchor="middle" x="647.5" y="-594.9" font-family="Times,serif" font-size="12.00"> </text>
<polyline fill="none" stroke="green" points="657.5,-577 657.5,-619"/>
<text text-anchor="middle" x="762" y="-605.4" font-family="Times,serif" font-size="12.00">(TRUE↦{(NotifyPdpc↦org)}↦∅↦∅)</text>
<polyline fill="none" stroke="green" points="657.5,-598 866.5,-598"/>
<text text-anchor="middle" x="762" y="-584.4" font-family="Times,serif" font-size="12.00"># states: 1</text>
<polyline fill="none" stroke="green" points="866.5,-577 866.5,-619"/>
<text text-anchor="middle" x="876.5" y="-594.9" font-family="Times,serif" font-size="12.00"> </text>
</g>
<!-- 16 -->
<g id="node7" class="node">
<title>16</title>
<polygon fill="none" stroke="blue" points="637.5,-207 637.5,-249 946.5,-249 946.5,-207 637.5,-207"/>
<text text-anchor="middle" x="647.5" y="-224.9" font-family="Times,serif" font-size="12.00"> </text>
<polyline fill="none" stroke="blue" points="657.5,-207 657.5,-249"/>
<text text-anchor="middle" x="792" y="-235.4" font-family="Times,serif" font-size="12.00">(FALSE↦{(NotifyIndiv↦org)}↦∅↦{NotifyIndiv})</text>
<polyline fill="none" stroke="blue" points="657.5,-228 926.5,-228"/>
<text text-anchor="middle" x="792" y="-214.4" font-family="Times,serif" font-size="12.00"># states: 8</text>
<polyline fill="none" stroke="blue" points="926.5,-207 926.5,-249"/>
<text text-anchor="middle" x="936.5" y="-224.9" font-family="Times,serif" font-size="12.00"> </text>
</g>
<!-- 16&#45;&gt;3 -->
<g id="edge21" class="edge">
<title>16&#45;&gt;3</title>
<path fill="none" stroke="black" d="M778.82,-207.07C757.45,-174.75 715.15,-110.78 690.36,-73.28"/>
<polygon fill="black" stroke="black" points="693.43,-71.58 685,-65.17 687.59,-75.44 693.43,-71.58"/>
<text text-anchor="middle" x="767" y="-132.9" font-family="Times,serif" font-size="12.00">interrupt_rule</text>
</g>
<!-- 15 -->
<g id="node8" class="node">
<title>15</title>
<polygon fill="none" stroke="blue" points="855,-392 855,-434 1245,-434 1245,-392 855,-392"/>
<text text-anchor="middle" x="865" y="-409.9" font-family="Times,serif" font-size="12.00"> </text>
<polyline fill="none" stroke="blue" points="875,-392 875,-434"/>
<text text-anchor="middle" x="1050" y="-420.4" font-family="Times,serif" font-size="12.00">(FALSE↦{(NotifyIndiv↦org),(ProhibitNotifyIndiv↦pdpc)}↦∅↦∅)</text>
<polyline fill="none" stroke="blue" points="875,-413 1225,-413"/>
<text text-anchor="middle" x="1050" y="-399.4" font-family="Times,serif" font-size="12.00"># states: 14</text>
<polyline fill="none" stroke="blue" points="1225,-392 1225,-434"/>
<text text-anchor="middle" x="1235" y="-409.9" font-family="Times,serif" font-size="12.00"> </text>
</g>
<!-- 15&#45;&gt;16 -->
<g id="edge18" class="edge">
<title>15&#45;&gt;16</title>
<path fill="none" stroke="black" d="M1021.9,-392.07C975.18,-358.93 881.51,-292.49 829.31,-255.46"/>
<polygon fill="black" stroke="black" points="831.48,-252.71 821.3,-249.78 827.43,-258.42 831.48,-252.71"/>
<text text-anchor="middle" x="978.5" y="-316.9" font-family="Times,serif" font-size="12.00">prohibit_notify_indiv</text>
</g>
<!-- 17 -->
<g id="node9" class="node">
<title>17</title>
<polygon fill="none" stroke="blue" points="320.5,-207 320.5,-249 619.5,-249 619.5,-207 320.5,-207"/>
<text text-anchor="middle" x="330.5" y="-224.9" font-family="Times,serif" font-size="12.00"> </text>
<polyline fill="none" stroke="blue" points="340.5,-207 340.5,-249"/>
<text text-anchor="middle" x="470" y="-235.4" font-family="Times,serif" font-size="12.00">(FALSE↦{(ProhibitNotifyIndiv↦pdpc)}↦∅↦∅)</text>
<polyline fill="none" stroke="blue" points="340.5,-228 599.5,-228"/>
<text text-anchor="middle" x="470" y="-214.4" font-family="Times,serif" font-size="12.00"># states: 12</text>
<polyline fill="none" stroke="blue" points="599.5,-207 599.5,-249"/>
<text text-anchor="middle" x="609.5" y="-224.9" font-family="Times,serif" font-size="12.00"> </text>
</g>
<!-- 15&#45;&gt;17 -->
<g id="edge19" class="edge">
<title>15&#45;&gt;17</title>
<path fill="none" stroke="#806040" stroke-dasharray="5,2" d="M986.83,-392.07C878.74,-357.97 658.91,-288.6 543.89,-252.31"/>
<polygon fill="#806040" stroke="#806040" points="545.13,-249.03 534.54,-249.36 543.02,-255.71 545.13,-249.03"/>
<text text-anchor="middle" x="806" y="-316.9" font-family="Times,serif" font-size="12.00">notify_indiv</text>
</g>
<!-- 18 -->
<g id="node10" class="node">
<title>18</title>
<polygon fill="none" stroke="blue" points="964.5,-207 964.5,-249 1259.5,-249 1259.5,-207 964.5,-207"/>
<text text-anchor="middle" x="974.5" y="-224.9" font-family="Times,serif" font-size="12.00"> </text>
<polyline fill="none" stroke="blue" points="984.5,-207 984.5,-249"/>
<text text-anchor="middle" x="1112" y="-235.4" font-family="Times,serif" font-size="12.00">(TRUE↦{(ProhibitNotifyIndiv↦pdpc)}↦∅↦∅)</text>
<polyline fill="none" stroke="blue" points="984.5,-228 1239.5,-228"/>
<text text-anchor="middle" x="1112" y="-214.4" font-family="Times,serif" font-size="12.00"># states: 9</text>
<polyline fill="none" stroke="blue" points="1239.5,-207 1239.5,-249"/>
<text text-anchor="middle" x="1249.5" y="-224.9" font-family="Times,serif" font-size="12.00"> </text>
</g>
<!-- 15&#45;&gt;18 -->
<g id="edge20" class="edge">
<title>15&#45;&gt;18</title>
<path fill="none" stroke="#806040" stroke-dasharray="5,2" d="M1056.75,-392.07C1067.56,-360.17 1088.82,-297.41 1101.59,-259.73"/>
<polygon fill="#806040" stroke="#806040" points="1104.88,-260.94 1104.77,-250.34 1098.25,-258.69 1104.88,-260.94"/>
<text text-anchor="middle" x="1111" y="-316.9" font-family="Times,serif" font-size="12.00">notify_indiv</text>
</g>
<!-- 17&#45;&gt;3 -->
<g id="edge22" class="edge">
<title>17&#45;&gt;3</title>
<path fill="none" stroke="black" d="M491.89,-207.07C527.91,-174.27 599.75,-108.87 640.66,-71.63"/>
<polygon fill="black" stroke="black" points="642.98,-74.25 648.01,-64.93 638.26,-69.07 642.98,-74.25"/>
<text text-anchor="middle" x="626.5" y="-132.9" font-family="Times,serif" font-size="12.00">prohibit_notify_indiv</text>
</g>
<!-- 10 -->
<g id="node13" class="node">
<title>10</title>
<polygon fill="none" stroke="blue" points="355.5,-762 355.5,-804 700.5,-804 700.5,-762 355.5,-762"/>
<text text-anchor="middle" x="365.5" y="-779.9" font-family="Times,serif" font-size="12.00"> </text>
<polyline fill="none" stroke="blue" points="375.5,-762 375.5,-804"/>
<text text-anchor="middle" x="528" y="-790.4" font-family="Times,serif" font-size="12.00">(FALSE↦{(NotifyPdpc↦org),(NotifyIndiv↦org)}↦∅↦∅)</text>
<polyline fill="none" stroke="blue" points="375.5,-783 680.5,-783"/>
<text text-anchor="middle" x="528" y="-769.4" font-family="Times,serif" font-size="12.00"># states: 6</text>
<polyline fill="none" stroke="blue" points="680.5,-762 680.5,-804"/>
<text text-anchor="middle" x="690.5" y="-779.9" font-family="Times,serif" font-size="12.00"> </text>
</g>
<!-- 8&#45;&gt;10 -->
<g id="edge10" class="edge">
<title>8&#45;&gt;10</title>
<path fill="none" stroke="black" d="M297.21,-946.18C344.11,-913.22 438.14,-847.14 490.54,-810.32"/>
<polygon fill="black" stroke="black" points="492.42,-813.28 498.59,-804.67 488.39,-807.56 492.42,-813.28"/>
<text text-anchor="middle" x="434.5" y="-871.9" font-family="Times,serif" font-size="12.00">trigger_rule</text>
</g>
<!-- 9&#45;&gt;10 -->
<g id="edge11" class="edge">
<title>9&#45;&gt;10</title>
<path fill="none" stroke="black" d="M618,-946.18C600.24,-914.18 565.16,-850.95 544.43,-813.6"/>
<polygon fill="black" stroke="black" points="547.63,-812.17 539.72,-805.12 541.51,-815.56 547.63,-812.17"/>
<text text-anchor="middle" x="608.5" y="-871.9" font-family="Times,serif" font-size="12.00">trigger_rule</text>
</g>
<!-- 10&#45;&gt;13 -->
<g id="edge16" class="edge">
<title>10&#45;&gt;13</title>
<path fill="none" stroke="#806040" stroke-dasharray="5,2" d="M524.3,-762.07C518.4,-730.3 506.81,-667.95 499.8,-630.22"/>
<polygon fill="#806040" stroke="#806040" points="503.24,-629.59 497.98,-620.4 496.36,-630.87 503.24,-629.59"/>
<text text-anchor="middle" x="542" y="-686.9" font-family="Times,serif" font-size="12.00">notify_pdpc</text>
</g>
<!-- 10&#45;&gt;14 -->
<g id="edge17" class="edge">
<title>10&#45;&gt;14</title>
<path fill="none" stroke="#806040" stroke-dasharray="5,2" d="M553.49,-762.07C595.69,-729.07 680.11,-663.04 727.57,-625.93"/>
<polygon fill="#806040" stroke="#806040" points="729.63,-628.76 735.35,-619.84 725.32,-623.24 729.63,-628.76"/>
<text text-anchor="middle" x="681" y="-686.9" font-family="Times,serif" font-size="12.00">notify_indiv</text>
</g>
<!-- 11 -->
<g id="node14" class="node">
<title>11</title>
<polygon fill="none" stroke="blue" points="904.5,-577 904.5,-619 1291.5,-619 1291.5,-577 904.5,-577"/>
<text text-anchor="middle" x="914.5" y="-594.9" font-family="Times,serif" font-size="12.00"> </text>
<polyline fill="none" stroke="blue" points="924.5,-577 924.5,-619"/>
<text text-anchor="middle" x="1098" y="-605.4" font-family="Times,serif" font-size="12.00">(FALSE↦{(NotifyIndiv↦org)}↦{(ProhibitNotifyIndiv↦pdpc)}↦∅)</text>
<polyline fill="none" stroke="blue" points="924.5,-598 1271.5,-598"/>
<text text-anchor="middle" x="1098" y="-584.4" font-family="Times,serif" font-size="12.00"># states: 5</text>
<polyline fill="none" stroke="blue" points="1271.5,-577 1271.5,-619"/>
<text text-anchor="middle" x="1281.5" y="-594.9" font-family="Times,serif" font-size="12.00"> </text>
</g>
<!-- 10&#45;&gt;11 -->
<g id="edge12" class="edge">
<title>10&#45;&gt;11</title>
<path fill="none" stroke="#806040" stroke-dasharray="5,2" d="M590.09,-762.07C696.2,-728 911.91,-658.74 1025.04,-622.42"/>
<polygon fill="#806040" stroke="#806040" points="1026.1,-625.76 1034.55,-619.37 1023.96,-619.1 1026.1,-625.76"/>
<text text-anchor="middle" x="859" y="-686.9" font-family="Times,serif" font-size="12.00">notify_pdpc</text>
</g>
<!-- 12 -->
<g id="node15" class="node">
<title>12</title>
<polygon fill="none" stroke="blue" points="97.5,-577 97.5,-619 350.5,-619 350.5,-577 97.5,-577"/>
<text text-anchor="middle" x="107.5" y="-594.9" font-family="Times,serif" font-size="12.00"> </text>
<polyline fill="none" stroke="blue" points="117.5,-577 117.5,-619"/>
<text text-anchor="middle" x="224" y="-605.4" font-family="Times,serif" font-size="12.00">(FALSE↦{(NotifyPdpc↦org)}↦∅↦∅)</text>
<polyline fill="none" stroke="blue" points="117.5,-598 330.5,-598"/>
<text text-anchor="middle" x="224" y="-584.4" font-family="Times,serif" font-size="12.00"># states: 9</text>
<polyline fill="none" stroke="blue" points="330.5,-577 330.5,-619"/>
<text text-anchor="middle" x="340.5" y="-594.9" font-family="Times,serif" font-size="12.00"> </text>
</g>
<!-- 10&#45;&gt;12 -->
<g id="edge13" class="edge">
<title>10&#45;&gt;12</title>
<path fill="none" stroke="#806040" stroke-dasharray="5,2" d="M494.89,-762.07C439.49,-728.72 328.1,-661.66 266.82,-624.78"/>
<polygon fill="#806040" stroke="#806040" points="268.74,-621.85 258.37,-619.69 265.13,-627.84 268.74,-621.85"/>
<text text-anchor="middle" x="415" y="-686.9" font-family="Times,serif" font-size="12.00">notify_indiv</text>
</g>
<!-- 11&#45;&gt;15 -->
<g id="edge14" class="edge">
<title>11&#45;&gt;15</title>
<path fill="none" stroke="black" d="M1092.77,-577.07C1084.4,-545.17 1067.94,-482.41 1058.06,-444.73"/>
<polygon fill="black" stroke="black" points="1061.53,-444.16 1055.61,-435.37 1054.76,-445.93 1061.53,-444.16"/>
<text text-anchor="middle" x="1102.5" y="-501.9" font-family="Times,serif" font-size="12.00">trigger_rule</text>
</g>
<!-- 19 -->
<g id="node16" class="node">
<title>19</title>
<polygon fill="none" stroke="blue" points="284.5,-392 284.5,-434 583.5,-434 583.5,-392 284.5,-392"/>
<text text-anchor="middle" x="294.5" y="-409.9" font-family="Times,serif" font-size="12.00"> </text>
<polyline fill="none" stroke="blue" points="304.5,-392 304.5,-434"/>
<text text-anchor="middle" x="434" y="-420.4" font-family="Times,serif" font-size="12.00">(FALSE↦∅↦{(ProhibitNotifyIndiv↦pdpc)}↦∅)</text>
<polyline fill="none" stroke="blue" points="304.5,-413 563.5,-413"/>
<text text-anchor="middle" x="434" y="-399.4" font-family="Times,serif" font-size="12.00"># states: 4</text>
<polyline fill="none" stroke="blue" points="563.5,-392 563.5,-434"/>
<text text-anchor="middle" x="573.5" y="-409.9" font-family="Times,serif" font-size="12.00"> </text>
</g>
<!-- 12&#45;&gt;19 -->
<g id="edge15" class="edge">
<title>12&#45;&gt;19</title>
<path fill="none" stroke="#806040" stroke-dasharray="5,2" d="M246.87,-577.07C284.59,-544.2 359.88,-478.59 402.57,-441.39"/>
<polygon fill="#806040" stroke="#806040" points="404.77,-444.11 410.01,-434.9 400.18,-438.83 404.77,-444.11"/>
<text text-anchor="middle" x="365" y="-501.9" font-family="Times,serif" font-size="12.00">notify_pdpc</text>
</g>
<!-- 7 -->
<g id="node18" class="node">
<title>7</title>
<polygon fill="none" stroke="blue" points="57,-392 57,-434 219,-434 219,-392 57,-392"/>
<text text-anchor="middle" x="67" y="-409.9" font-family="Times,serif" font-size="12.00"> </text>
<polyline fill="none" stroke="blue" points="77,-392 77,-434"/>
<text text-anchor="middle" x="138" y="-420.4" font-family="Times,serif" font-size="12.00">(TRUE↦∅↦∅↦∅)</text>
<polyline fill="none" stroke="blue" points="77,-413 199,-413"/>
<text text-anchor="middle" x="138" y="-399.4" font-family="Times,serif" font-size="12.00"># states: 5</text>
<polyline fill="none" stroke="blue" points="199,-392 199,-434"/>
<text text-anchor="middle" x="209" y="-409.9" font-family="Times,serif" font-size="12.00"> </text>
</g>
<!-- 12&#45;&gt;7 -->
<g id="edge23" class="edge">
<title>12&#45;&gt;7</title>
<path fill="none" stroke="#806040" stroke-dasharray="5,2" d="M214.63,-577.07C199.58,-545.03 169.89,-481.87 152.21,-444.25"/>
<polygon fill="#806040" stroke="#806040" points="155.42,-442.84 148,-435.28 149.09,-445.82 155.42,-442.84"/>
<text text-anchor="middle" x="213" y="-501.9" font-family="Times,serif" font-size="12.00">notify_pdpc</text>
</g>
<!-- 19&#45;&gt;17 -->
<g id="edge24" class="edge">
<title>19&#45;&gt;17</title>
<path fill="none" stroke="black" d="M437.92,-392.07C444.2,-360.17 456.54,-297.41 463.95,-259.73"/>
<polygon fill="black" stroke="black" points="467.3,-260.88 465.79,-250.39 460.43,-259.53 467.3,-260.88"/>
<text text-anchor="middle" x="481.5" y="-316.9" font-family="Times,serif" font-size="12.00">trigger_rule</text>
</g>
<!-- 5&#45;&gt;6 -->
<g id="edge6" class="edge">
<title>5&#45;&gt;6</title>
<path fill="none" stroke="#806040" stroke-dasharray="5,2" d="M142.58,-1316.07C167.93,-1283.62 218.24,-1219.23 247.49,-1181.81"/>
<polygon fill="#806040" stroke="#806040" points="250.11,-1184.14 253.51,-1174.1 244.6,-1179.83 250.11,-1184.14"/>
<text text-anchor="middle" x="217.5" y="-1241.9" font-family="Times,serif" font-size="12.00">assess</text>
</g>
<!-- 5&#45;&gt;7 -->
<g id="edge9" class="edge">
<title>5&#45;&gt;7</title>
<path fill="none" stroke="#806040" stroke-dasharray="5,2" d="M116.23,-1316.07C99.45,-1283.14 69,-1214.82 69,-1153 69,-1153 69,-1153 69,-597 69,-539.83 98.85,-478.7 119.28,-443.55"/>
<polygon fill="#806040" stroke="#806040" points="122.13,-445.61 124.25,-435.23 116.12,-442.02 122.13,-445.61"/>
<text text-anchor="middle" x="83.5" y="-871.9" font-family="Times,serif" font-size="12.00">assess</text>
</g>
<!-- 5&#45;&gt;3 -->
<g id="edge25" class="edge">
<title>5&#45;&gt;3</title>
<path fill="none" stroke="#806040" stroke-dasharray="5,2" d="M106.85,-1316.08C77.12,-1284.47 25,-1219.56 25,-1153 25,-1153 25,-1153 25,-227 25,-113.59 398.19,-66.86 577.28,-50.96"/>
<polygon fill="#806040" stroke="#806040" points="577.36,-54.47 587.02,-50.11 576.75,-47.5 577.36,-54.47"/>
<text text-anchor="middle" x="39.5" y="-686.9" font-family="Times,serif" font-size="12.00">assess</text>
</g>
</g>
</svg>
