<?xml version="1.0" encoding="UTF-8" standalone="no"?>
<!DOCTYPE svg PUBLIC "-//W3C//DTD SVG 1.1//EN"
 "http://www.w3.org/Graphics/SVG/1.1/DTD/svg11.dtd">
<!-- Generated by graphviz version 7.0.3 (0)
 -->
<!-- Title: prob_graph Pages: 1 -->
<svg width="540pt" height="716pt"
 viewBox="0.00 0.00 540.00 716.31" xmlns="http://www.w3.org/2000/svg" xmlns:xlink="http://www.w3.org/1999/xlink">
<g id="graph0" class="graph" transform="scale(0.983941 0.983941) rotate(0) translate(4 724)">
<title>prob_graph</title>
<polygon fill="white" stroke="none" points="-4,4 -4,-724 544.81,-724 544.81,4 -4,4"/>
<!-- 1 -->
<g id="node1" class="node">
<title>1</title>
<polygon fill="none" stroke="green" stroke-width="2" points="92.17,-631 92.17,-673 386.17,-673 386.17,-631 92.17,-631"/>
<text text-anchor="middle" x="102.17" y="-648.9" font-family="Times,serif" font-size="12.00"> </text>
<polyline fill="none" stroke="green" stroke-width="2" points="112.17,-631 112.17,-673"/>
<text text-anchor="middle" x="239.17" y="-659.4" font-family="Times,serif" font-size="12.00">active_rules ↦ rules_to_trigger ↦ rules_to_interrupt</text>
<polyline fill="none" stroke="green" stroke-width="2" points="112.17,-652 366.17,-652"/>
<text text-anchor="middle" x="239.17" y="-638.4" font-family="Times,serif" font-size="12.00"># states: 1</text>
<polyline fill="none" stroke="green" stroke-width="2" points="366.17,-631 366.17,-673"/>
<text text-anchor="middle" x="376.17" y="-648.9" font-family="Times,serif" font-size="12.00"> </text>
</g>
<!-- 2 -->
<g id="node2" class="node">
<title>2</title>
<polygon fill="none" stroke="blue" points="170.67,-339 170.67,-381 307.67,-381 307.67,-339 170.67,-339"/>
<text text-anchor="middle" x="180.67" y="-356.9" font-family="Times,serif" font-size="12.00"> </text>
<polyline fill="none" stroke="blue" points="190.67,-339 190.67,-381"/>
<text text-anchor="middle" x="239.17" y="-367.4" font-family="Times,serif" font-size="12.00">&lt;&lt; undefined &gt;&gt;</text>
<polyline fill="none" stroke="blue" points="190.67,-360 287.67,-360"/>
<text text-anchor="middle" x="239.17" y="-346.4" font-family="Times,serif" font-size="12.00"># states: 5</text>
<polyline fill="none" stroke="blue" points="287.67,-339 287.67,-381"/>
<text text-anchor="middle" x="297.67" y="-356.9" font-family="Times,serif" font-size="12.00"> </text>
</g>
<!-- 1&#45;&gt;2 -->
<g id="edge1" class="edge">
<title>1&#45;&gt;2</title>
<path fill="none" stroke="black" d="M239.17,-631.07C239.17,-581.38 239.17,-451.75 239.17,-392"/>
<polygon fill="black" stroke="black" points="242.67,-392.2 239.17,-382.2 235.67,-392.2 242.67,-392.2"/>
<text text-anchor="middle" x="283.67" y="-502.9" font-family="Times,serif" font-size="12.00">start_cspm_MAIN</text>
</g>
<!-- 2&#45;&gt;2 -->
<g id="edge2" class="edge">
<title>2&#45;&gt;2</title>
<path fill="none" stroke="#806040" stroke-dasharray="5,2" d="M265.74,-380.95C293.9,-394.07 325.67,-387.09 325.67,-360 325.67,-336.3 301.35,-327.99 276.4,-335.07"/>
<polygon fill="#806040" stroke="#806040" points="275.3,-331.74 267.15,-338.52 277.75,-338.3 275.3,-331.74"/>
<text text-anchor="middle" x="333.17" y="-356.9" font-family="Times,serif" font-size="12.00">tau</text>
</g>
<!-- 3 -->
<g id="node3" class="node">
<title>3</title>
<polygon fill="none" stroke="blue" points="43.17,-47 43.17,-89 155.17,-89 155.17,-47 43.17,-47"/>
<text text-anchor="middle" x="53.17" y="-64.9" font-family="Times,serif" font-size="12.00"> </text>
<polyline fill="none" stroke="blue" points="63.17,-47 63.17,-89"/>
<text text-anchor="middle" x="99.17" y="-75.4" font-family="Times,serif" font-size="12.00">(∅↦∅↦∅)</text>
<polyline fill="none" stroke="blue" points="63.17,-68 135.17,-68"/>
<text text-anchor="middle" x="99.17" y="-54.4" font-family="Times,serif" font-size="12.00"># states: 2</text>
<polyline fill="none" stroke="blue" points="135.17,-47 135.17,-89"/>
<text text-anchor="middle" x="145.17" y="-64.9" font-family="Times,serif" font-size="12.00"> </text>
</g>
<!-- 2&#45;&gt;3 -->
<g id="edge3" class="edge">
<title>2&#45;&gt;3</title>
<path fill="none" stroke="#806040" stroke-dasharray="5,2" d="M229.55,-339.07C205.41,-289.07 142.2,-158.13 113.59,-98.88"/>
<polygon fill="#806040" stroke="#806040" points="116.83,-97.54 109.33,-90.05 110.53,-100.58 116.83,-97.54"/>
<text text-anchor="middle" x="176.67" y="-210.9" font-family="Times,serif" font-size="12.00">tau</text>
</g>
<!-- 4 -->
<g id="node4" class="node">
<title>4</title>
<polygon fill="none" stroke="blue" points="281.67,-47 281.67,-89 478.67,-89 478.67,-47 281.67,-47"/>
<text text-anchor="middle" x="291.67" y="-64.9" font-family="Times,serif" font-size="12.00"> </text>
<polyline fill="none" stroke="blue" points="301.67,-47 301.67,-89"/>
<text text-anchor="middle" x="380.17" y="-75.4" font-family="Times,serif" font-size="12.00">(∅↦{(Assessment↦org)}↦∅)</text>
<polyline fill="none" stroke="blue" points="301.67,-68 458.67,-68"/>
<text text-anchor="middle" x="380.17" y="-54.4" font-family="Times,serif" font-size="12.00"># states: 2</text>
<polyline fill="none" stroke="blue" points="458.67,-47 458.67,-89"/>
<text text-anchor="middle" x="468.67" y="-64.9" font-family="Times,serif" font-size="12.00"> </text>
</g>
<!-- 2&#45;&gt;4 -->
<g id="edge4" class="edge">
<title>2&#45;&gt;4</title>
<path fill="none" stroke="#806040" stroke-dasharray="5,2" d="M248.86,-339.07C273.17,-289.07 336.83,-158.13 365.64,-98.88"/>
<polygon fill="#806040" stroke="#806040" points="368.71,-100.57 369.93,-90.05 362.41,-97.51 368.71,-100.57"/>
<text text-anchor="middle" x="317.67" y="-210.9" font-family="Times,serif" font-size="12.00">tau</text>
</g>
</g>
</svg>
