<?xml version="1.0" encoding="UTF-8" standalone="no"?>
<!DOCTYPE svg PUBLIC "-//W3C//DTD SVG 1.1//EN"
 "http://www.w3.org/Graphics/SVG/1.1/DTD/svg11.dtd">
<!-- Generated by graphviz version 7.1.0 (0)
 -->
<!-- Pages: 1 -->
<svg width="957pt" height="900pt"
 viewBox="0.00 0.00 956.58 900.00" xmlns="http://www.w3.org/2000/svg" xmlns:xlink="http://www.w3.org/1999/xlink">
<g id="graph0" class="graph" transform="scale(1 1) rotate(0) translate(4 896)">
<polygon fill="white" stroke="none" points="-4,4 -4,-896 952.58,-896 952.58,4 -4,4"/>
<!-- 0 -->
<g id="node1" class="node">
<title>0</title>
<ellipse fill="none" stroke="black" cx="468.99" cy="-874" rx="153.27" ry="18"/>
<text text-anchor="middle" x="468.99" y="-870.3" font-family="Times,serif" font-size="14.00">empty ⊢ ¬ (&#39;P ∧ &#39;Q) → (¬ &#39;P ∨ ¬ &#39;Q)</text>
</g>
<!-- 1 -->
<g id="node2" class="node">
<title>1</title>
<ellipse fill="none" stroke="black" cx="468.99" cy="-787" rx="110.48" ry="18"/>
<text text-anchor="middle" x="468.99" y="-783.3" font-family="Times,serif" font-size="14.00">¬ (&#39;P ∧ &#39;Q) ⊢ ¬ &#39;P ∨ ¬ &#39;Q</text>
</g>
<!-- 0&#45;&gt;1 -->
<g id="edge1" class="edge">
<title>0&#45;&gt;1</title>
<path fill="none" stroke="black" d="M468.99,-855.8C468.99,-844.58 468.99,-829.67 468.99,-816.69"/>
<polygon fill="black" stroke="black" points="472.49,-816.98 468.99,-806.98 465.49,-816.98 472.49,-816.98"/>
<text text-anchor="middle" x="496.99" y="-826.8" font-family="Times,serif" font-size="14.00">impl&#45;right</text>
</g>
<!-- 2 -->
<g id="node3" class="node">
<title>2</title>
<ellipse fill="none" stroke="black" cx="468.99" cy="-700" rx="124.28" ry="18"/>
<text text-anchor="middle" x="468.99" y="-696.3" font-family="Times,serif" font-size="14.00">empty ⊢ &#39;P ∧ &#39;Q, ¬ &#39;P ∨ ¬ &#39;Q</text>
</g>
<!-- 1&#45;&gt;2 -->
<g id="edge2" class="edge">
<title>1&#45;&gt;2</title>
<path fill="none" stroke="black" d="M468.99,-768.8C468.99,-757.58 468.99,-742.67 468.99,-729.69"/>
<polygon fill="black" stroke="black" points="472.49,-729.98 468.99,-719.98 465.49,-729.98 472.49,-729.98"/>
<text text-anchor="middle" x="490.49" y="-739.8" font-family="Times,serif" font-size="14.00">neg&#45;left</text>
</g>
<!-- 3 -->
<g id="node4" class="node">
<title>3</title>
<ellipse fill="none" stroke="black" cx="468.99" cy="-613" rx="208.76" ry="18"/>
<text text-anchor="middle" x="468.99" y="-609.3" font-family="Times,serif" font-size="14.00">(empty ⊢ &#39;P, ¬ &#39;P ∨ ¬ &#39;Q) (empty ⊢ &#39;Q, ¬ &#39;P ∨ ¬ &#39;Q)</text>
</g>
<!-- 2&#45;&gt;3 -->
<g id="edge3" class="edge">
<title>2&#45;&gt;3</title>
<path fill="none" stroke="black" d="M468.99,-681.8C468.99,-670.58 468.99,-655.67 468.99,-642.69"/>
<polygon fill="black" stroke="black" points="472.49,-642.98 468.99,-632.98 465.49,-642.98 472.49,-642.98"/>
<text text-anchor="middle" x="493.99" y="-652.8" font-family="Times,serif" font-size="14.00">and&#45;right</text>
</g>
<!-- 4 -->
<g id="node5" class="node">
<title>4</title>
<ellipse fill="none" stroke="black" cx="280.99" cy="-526" rx="178.97" ry="18"/>
<text text-anchor="middle" x="280.99" y="-522.3" font-family="Times,serif" font-size="14.00">(empty ⊢ &#39;P, ¬ &#39;P) (empty ⊢ &#39;Q, ¬ &#39;P ∨ ¬ &#39;Q)</text>
</g>
<!-- 3&#45;&gt;4 -->
<g id="edge4" class="edge">
<title>3&#45;&gt;4</title>
<path fill="none" stroke="black" d="M431.4,-595C401.94,-581.68 360.75,-563.06 328.92,-548.67"/>
<polygon fill="black" stroke="black" points="330.45,-545.52 319.9,-544.59 327.57,-551.9 330.45,-545.52"/>
<text text-anchor="middle" x="413.49" y="-565.8" font-family="Times,serif" font-size="14.00">or&#45;right&#45;1</text>
</g>
<!-- 17 -->
<g id="node18" class="node">
<title>17</title>
<ellipse fill="none" stroke="black" cx="657.99" cy="-526" rx="180.87" ry="18"/>
<text text-anchor="middle" x="657.99" y="-522.3" font-family="Times,serif" font-size="14.00">(empty ⊢ &#39;P, ¬ &#39;P ∨ ¬ &#39;Q) (empty ⊢ &#39;Q, ¬ &#39;Q)</text>
</g>
<!-- 3&#45;&gt;17 -->
<g id="edge24" class="edge">
<title>3&#45;&gt;17</title>
<path fill="none" stroke="black" d="M506.78,-595C536.4,-581.68 577.81,-563.06 609.8,-548.67"/>
<polygon fill="black" stroke="black" points="611.2,-551.88 618.88,-544.59 608.33,-545.5 611.2,-551.88"/>
<text text-anchor="middle" x="600.49" y="-565.8" font-family="Times,serif" font-size="14.00">or&#45;right&#45;2</text>
</g>
<!-- 5 -->
<g id="node6" class="node">
<title>5</title>
<ellipse fill="none" stroke="black" cx="174.99" cy="-439" rx="144.87" ry="18"/>
<text text-anchor="middle" x="174.99" y="-435.3" font-family="Times,serif" font-size="14.00">(&#39;P ⊢ &#39;P) (empty ⊢ &#39;Q, ¬ &#39;P ∨ ¬ &#39;Q)</text>
</g>
<!-- 4&#45;&gt;5 -->
<g id="edge5" class="edge">
<title>4&#45;&gt;5</title>
<path fill="none" stroke="black" d="M259.54,-507.8C243.88,-495.24 222.44,-478.05 205.07,-464.12"/>
<polygon fill="black" stroke="black" points="207.58,-461.65 197.59,-458.12 203.2,-467.11 207.58,-461.65"/>
<text text-anchor="middle" x="259.99" y="-478.8" font-family="Times,serif" font-size="14.00">neg&#45;right</text>
</g>
<!-- 14 -->
<g id="node15" class="node">
<title>14</title>
<ellipse fill="none" stroke="black" cx="488.99" cy="-439" rx="150.57" ry="18"/>
<text text-anchor="middle" x="488.99" y="-435.3" font-family="Times,serif" font-size="14.00">(empty ⊢ &#39;P, ¬ &#39;P) (empty ⊢ &#39;Q, ¬ &#39;Q)</text>
</g>
<!-- 4&#45;&gt;14 -->
<g id="edge18" class="edge">
<title>4&#45;&gt;14</title>
<path fill="none" stroke="black" d="M322.08,-508.21C355.13,-494.7 401.75,-475.65 437.32,-461.11"/>
<polygon fill="black" stroke="black" points="438.65,-464.35 446.58,-457.33 436,-457.87 438.65,-464.35"/>
<text text-anchor="middle" x="424.49" y="-478.8" font-family="Times,serif" font-size="14.00">or&#45;right&#45;2</text>
</g>
<!-- 6 -->
<g id="node7" class="node">
<title>6</title>
<ellipse fill="none" stroke="black" cx="103.99" cy="-352" rx="103.98" ry="18"/>
<text text-anchor="middle" x="103.99" y="-348.3" font-family="Times,serif" font-size="14.00">empty ⊢ &#39;Q, ¬ &#39;P ∨ ¬ &#39;Q</text>
</g>
<!-- 5&#45;&gt;6 -->
<g id="edge6" class="edge">
<title>5&#45;&gt;6</title>
<path fill="none" stroke="black" d="M160.62,-420.8C150.52,-408.7 136.82,-392.3 125.43,-378.67"/>
<polygon fill="black" stroke="black" points="128.4,-376.77 119.31,-371.34 123.03,-381.26 128.4,-376.77"/>
<text text-anchor="middle" x="161.49" y="-391.8" font-family="Times,serif" font-size="14.00">axiom</text>
</g>
<!-- 11 -->
<g id="node12" class="node">
<title>11</title>
<ellipse fill="none" stroke="black" cx="341.99" cy="-352" rx="116.18" ry="18"/>
<text text-anchor="middle" x="341.99" y="-348.3" font-family="Times,serif" font-size="14.00">(&#39;P ⊢ &#39;P) (empty ⊢ &#39;Q, ¬ &#39;Q)</text>
</g>
<!-- 5&#45;&gt;11 -->
<g id="edge12" class="edge">
<title>5&#45;&gt;11</title>
<path fill="none" stroke="black" d="M208.38,-421C234.49,-407.71 270.98,-389.14 299.22,-374.77"/>
<polygon fill="black" stroke="black" points="300.55,-378.02 307.88,-370.36 297.38,-371.78 300.55,-378.02"/>
<text text-anchor="middle" x="295.49" y="-391.8" font-family="Times,serif" font-size="14.00">or&#45;right&#45;2</text>
</g>
<!-- 7 -->
<g id="node8" class="node">
<title>7</title>
<ellipse fill="none" stroke="black" cx="283.99" cy="-265" rx="75.29" ry="18"/>
<text text-anchor="middle" x="283.99" y="-261.3" font-family="Times,serif" font-size="14.00">empty ⊢ &#39;Q, ¬ &#39;Q</text>
</g>
<!-- 6&#45;&gt;7 -->
<g id="edge7" class="edge">
<title>6&#45;&gt;7</title>
<path fill="none" stroke="black" d="M138.7,-334.61C167.79,-320.87 209.48,-301.19 240.74,-286.42"/>
<polygon fill="black" stroke="black" points="241.99,-289.7 249.54,-282.27 239,-283.37 241.99,-289.7"/>
<text text-anchor="middle" x="231.49" y="-304.8" font-family="Times,serif" font-size="14.00">or&#45;right&#45;2</text>
</g>
<!-- 8 -->
<g id="node9" class="node">
<title>8</title>
<ellipse fill="none" stroke="black" cx="403.99" cy="-178" rx="40.09" ry="18"/>
<text text-anchor="middle" x="403.99" y="-174.3" font-family="Times,serif" font-size="14.00">&#39;Q ⊢ &#39;Q</text>
</g>
<!-- 7&#45;&gt;8 -->
<g id="edge8" class="edge">
<title>7&#45;&gt;8</title>
<path fill="none" stroke="black" d="M307.41,-247.41C326.37,-233.98 353.21,-214.97 373.79,-200.39"/>
<polygon fill="black" stroke="black" points="375.66,-203.35 381.8,-194.72 371.62,-197.64 375.66,-203.35"/>
<text text-anchor="middle" x="376.99" y="-217.8" font-family="Times,serif" font-size="14.00">neg&#45;right</text>
</g>
<!-- 9 -->
<g id="node10" class="node">
<title>9</title>
<ellipse fill="none" stroke="black" cx="451.99" cy="-91" rx="29.8" ry="18"/>
<text text-anchor="middle" x="451.99" y="-87.3" font-family="Times,serif" font-size="14.00">Done</text>
</g>
<!-- 8&#45;&gt;9 -->
<g id="edge9" class="edge">
<title>8&#45;&gt;9</title>
<path fill="none" stroke="black" d="M413.47,-160.21C420.22,-148.25 429.43,-131.96 437.14,-118.29"/>
<polygon fill="black" stroke="black" points="440.08,-120.22 441.95,-109.79 433.98,-116.77 440.08,-120.22"/>
<text text-anchor="middle" x="447.49" y="-130.8" font-family="Times,serif" font-size="14.00">axiom</text>
</g>
<!-- 10 -->
<g id="node11" class="node">
<title>10</title>
<ellipse fill="none" stroke="black" cx="451.99" cy="-18" rx="29.8" ry="18"/>
<text text-anchor="middle" x="451.99" y="-14.3" font-family="Times,serif" font-size="14.00">Done</text>
</g>
<!-- 9&#45;&gt;10 -->
<g id="edge10" class="edge">
<title>9&#45;&gt;10</title>
<path fill="none" stroke="black" d="M451.99,-72.81C451.99,-65.23 451.99,-56.1 451.99,-47.54"/>
<polygon fill="black" stroke="black" points="455.49,-47.54 451.99,-37.54 448.49,-47.54 455.49,-47.54"/>
</g>
<!-- 10&#45;&gt;10 -->
<g id="edge11" class="edge">
<title>10&#45;&gt;10</title>
<path fill="none" stroke="black" d="M480.03,-24.82C490.88,-25.12 499.89,-22.85 499.89,-18 499.89,-15.05 496.54,-13.05 491.47,-12.01"/>
<polygon fill="black" stroke="black" points="491.77,-8.52 481.54,-11.29 491.27,-15.5 491.77,-8.52"/>
</g>
<!-- 11&#45;&gt;7 -->
<g id="edge13" class="edge">
<title>11&#45;&gt;7</title>
<path fill="none" stroke="black" d="M330.25,-333.8C322.16,-321.93 311.24,-305.93 302.04,-292.45"/>
<polygon fill="black" stroke="black" points="305.09,-290.71 296.56,-284.43 299.31,-294.66 305.09,-290.71"/>
<text text-anchor="middle" x="334.49" y="-304.8" font-family="Times,serif" font-size="14.00">axiom</text>
</g>
<!-- 12 -->
<g id="node13" class="node">
<title>12</title>
<ellipse fill="none" stroke="black" cx="458.99" cy="-265" rx="81.49" ry="18"/>
<text text-anchor="middle" x="458.99" y="-261.3" font-family="Times,serif" font-size="14.00">(&#39;P ⊢ &#39;P) (&#39;Q ⊢ &#39;Q)</text>
</g>
<!-- 11&#45;&gt;12 -->
<g id="edge14" class="edge">
<title>11&#45;&gt;12</title>
<path fill="none" stroke="black" d="M365.39,-334C383.04,-321.18 407.45,-303.44 426.93,-289.3"/>
<polygon fill="black" stroke="black" points="428.78,-292.28 434.81,-283.57 424.66,-286.61 428.78,-292.28"/>
<text text-anchor="middle" x="432.99" y="-304.8" font-family="Times,serif" font-size="14.00">neg&#45;right</text>
</g>
<!-- 12&#45;&gt;8 -->
<g id="edge15" class="edge">
<title>12&#45;&gt;8</title>
<path fill="none" stroke="black" d="M447.86,-246.8C440.08,-234.78 429.55,-218.51 420.76,-204.92"/>
<polygon fill="black" stroke="black" points="423.92,-203.36 415.55,-196.87 418.05,-207.16 423.92,-203.36"/>
<text text-anchor="middle" x="451.49" y="-217.8" font-family="Times,serif" font-size="14.00">axiom</text>
</g>
<!-- 13 -->
<g id="node14" class="node">
<title>13</title>
<ellipse fill="none" stroke="black" cx="499.99" cy="-178" rx="37.89" ry="18"/>
<text text-anchor="middle" x="499.99" y="-174.3" font-family="Times,serif" font-size="14.00">&#39;P ⊢ &#39;P</text>
</g>
<!-- 12&#45;&gt;13 -->
<g id="edge16" class="edge">
<title>12&#45;&gt;13</title>
<path fill="none" stroke="black" d="M467.29,-246.8C472.94,-235.09 480.53,-219.34 486.98,-205.97"/>
<polygon fill="black" stroke="black" points="490,-207.78 491.19,-197.25 483.69,-204.73 490,-207.78"/>
<text text-anchor="middle" x="498.49" y="-217.8" font-family="Times,serif" font-size="14.00">axiom</text>
</g>
<!-- 13&#45;&gt;9 -->
<g id="edge17" class="edge">
<title>13&#45;&gt;9</title>
<path fill="none" stroke="black" d="M490.51,-160.21C483.76,-148.25 474.56,-131.96 466.84,-118.29"/>
<polygon fill="black" stroke="black" points="470,-116.77 462.04,-109.79 463.9,-120.22 470,-116.77"/>
<text text-anchor="middle" x="495.49" y="-130.8" font-family="Times,serif" font-size="14.00">axiom</text>
</g>
<!-- 14&#45;&gt;11 -->
<g id="edge19" class="edge">
<title>14&#45;&gt;11</title>
<path fill="none" stroke="black" d="M459.6,-421C436.99,-407.93 405.55,-389.75 380.86,-375.48"/>
<polygon fill="black" stroke="black" points="382.8,-372.56 372.39,-370.58 379.3,-378.62 382.8,-372.56"/>
<text text-anchor="middle" x="448.99" y="-391.8" font-family="Times,serif" font-size="14.00">neg&#45;right</text>
</g>
<!-- 15 -->
<g id="node16" class="node">
<title>15</title>
<ellipse fill="none" stroke="black" cx="591.99" cy="-352" rx="115.88" ry="18"/>
<text text-anchor="middle" x="591.99" y="-348.3" font-family="Times,serif" font-size="14.00">(&#39;Q ⊢ &#39;Q) (empty ⊢ &#39;P, ¬ &#39;P)</text>
</g>
<!-- 14&#45;&gt;15 -->
<g id="edge20" class="edge">
<title>14&#45;&gt;15</title>
<path fill="none" stroke="black" d="M509.83,-420.8C525.05,-408.24 545.88,-391.05 562.76,-377.12"/>
<polygon fill="black" stroke="black" points="564.53,-380.2 570.01,-371.14 560.07,-374.8 564.53,-380.2"/>
<text text-anchor="middle" x="570.99" y="-391.8" font-family="Times,serif" font-size="14.00">neg&#45;right</text>
</g>
<!-- 15&#45;&gt;12 -->
<g id="edge23" class="edge">
<title>15&#45;&gt;12</title>
<path fill="none" stroke="black" d="M565.4,-334C544.93,-320.92 516.45,-302.72 494.11,-288.44"/>
<polygon fill="black" stroke="black" points="496.22,-285.64 485.91,-283.2 492.45,-291.54 496.22,-285.64"/>
<text text-anchor="middle" x="557.99" y="-304.8" font-family="Times,serif" font-size="14.00">neg&#45;right</text>
</g>
<!-- 16 -->
<g id="node17" class="node">
<title>16</title>
<ellipse fill="none" stroke="black" cx="629.99" cy="-265" rx="71.49" ry="18"/>
<text text-anchor="middle" x="629.99" y="-261.3" font-family="Times,serif" font-size="14.00">empty ⊢ &#39;P, ¬ &#39;P</text>
</g>
<!-- 15&#45;&gt;16 -->
<g id="edge21" class="edge">
<title>15&#45;&gt;16</title>
<path fill="none" stroke="black" d="M594.84,-333.8C596.88,-323.9 600.13,-311.4 604.99,-301 606.31,-298.18 607.86,-295.35 609.54,-292.59"/>
<polygon fill="black" stroke="black" points="612.44,-294.54 615.1,-284.28 606.62,-290.65 612.44,-294.54"/>
<text text-anchor="middle" x="622.49" y="-304.8" font-family="Times,serif" font-size="14.00">axiom</text>
</g>
<!-- 16&#45;&gt;13 -->
<g id="edge22" class="edge">
<title>16&#45;&gt;13</title>
<path fill="none" stroke="black" d="M605.23,-247.81C584.18,-234.05 553.85,-214.22 531.16,-199.38"/>
<polygon fill="black" stroke="black" points="533.19,-196.52 522.9,-193.98 529.36,-202.38 533.19,-196.52"/>
<text text-anchor="middle" x="596.99" y="-217.8" font-family="Times,serif" font-size="14.00">neg&#45;right</text>
</g>
<!-- 17&#45;&gt;14 -->
<g id="edge25" class="edge">
<title>17&#45;&gt;14</title>
<path fill="none" stroke="black" d="M624.2,-508C597.95,-494.8 561.33,-476.39 532.83,-462.05"/>
<polygon fill="black" stroke="black" points="534.58,-459.01 524.08,-457.65 531.44,-465.27 534.58,-459.01"/>
<text text-anchor="middle" x="609.49" y="-478.8" font-family="Times,serif" font-size="14.00">or&#45;right&#45;1</text>
</g>
<!-- 18 -->
<g id="node19" class="node">
<title>18</title>
<ellipse fill="none" stroke="black" cx="802.99" cy="-439" rx="145.67" ry="18"/>
<text text-anchor="middle" x="802.99" y="-435.3" font-family="Times,serif" font-size="14.00">(&#39;Q ⊢ &#39;Q) (empty ⊢ &#39;P, ¬ &#39;P ∨ ¬ &#39;Q)</text>
</g>
<!-- 17&#45;&gt;18 -->
<g id="edge26" class="edge">
<title>17&#45;&gt;18</title>
<path fill="none" stroke="black" d="M687.33,-507.8C709.49,-494.81 740.1,-476.87 764.27,-462.7"/>
<polygon fill="black" stroke="black" points="766.02,-465.73 772.88,-457.65 762.48,-459.69 766.02,-465.73"/>
<text text-anchor="middle" x="763.99" y="-478.8" font-family="Times,serif" font-size="14.00">neg&#45;right</text>
</g>
<!-- 18&#45;&gt;15 -->
<g id="edge29" class="edge">
<title>18&#45;&gt;15</title>
<path fill="none" stroke="black" d="M761.56,-421.31C727.47,-407.58 679.04,-388.07 642.65,-373.41"/>
<polygon fill="black" stroke="black" points="644.24,-370.28 633.66,-369.79 641.63,-376.77 644.24,-370.28"/>
<text text-anchor="middle" x="736.49" y="-391.8" font-family="Times,serif" font-size="14.00">or&#45;right&#45;1</text>
</g>
<!-- 19 -->
<g id="node20" class="node">
<title>19</title>
<ellipse fill="none" stroke="black" cx="826.99" cy="-352" rx="101.28" ry="18"/>
<text text-anchor="middle" x="826.99" y="-348.3" font-family="Times,serif" font-size="14.00">empty ⊢ &#39;P, ¬ &#39;P ∨ ¬ &#39;Q</text>
</g>
<!-- 18&#45;&gt;19 -->
<g id="edge27" class="edge">
<title>18&#45;&gt;19</title>
<path fill="none" stroke="black" d="M807.85,-420.8C811.05,-409.47 815.31,-394.36 819,-381.29"/>
<polygon fill="black" stroke="black" points="822.3,-382.5 821.65,-371.92 815.56,-380.6 822.3,-382.5"/>
<text text-anchor="middle" x="833.49" y="-391.8" font-family="Times,serif" font-size="14.00">axiom</text>
</g>
<!-- 19&#45;&gt;16 -->
<g id="edge28" class="edge">
<title>19&#45;&gt;16</title>
<path fill="none" stroke="black" d="M789.47,-334.81C757,-320.8 709.94,-300.5 675.36,-285.57"/>
<polygon fill="black" stroke="black" points="677.01,-282.48 666.44,-281.73 674.24,-288.9 677.01,-282.48"/>
<text text-anchor="middle" x="766.49" y="-304.8" font-family="Times,serif" font-size="14.00">or&#45;right&#45;1</text>
</g>
</g>
</svg>
