<?xml version="1.0" encoding="UTF-8" standalone="no"?>
<!DOCTYPE svg PUBLIC "-//W3C//DTD SVG 1.1//EN"
 "http://www.w3.org/Graphics/SVG/1.1/DTD/svg11.dtd">
<!-- Generated by graphviz version 7.1.0 (0)
 -->
<!-- Pages: 1 -->
<svg width="1722pt" height="674pt"
 viewBox="0.00 0.00 1722.08 674.00" xmlns="http://www.w3.org/2000/svg" xmlns:xlink="http://www.w3.org/1999/xlink">
<g id="graph0" class="graph" transform="scale(1 1) rotate(0) translate(4 670)">
<polygon fill="white" stroke="none" points="-4,4 -4,-670 1718.08,-670 1718.08,4 -4,4"/>
<!-- 0 -->
<g id="node1" class="node">
<title>0</title>
<ellipse fill="none" stroke="black" cx="537.54" cy="-648" rx="96.68" ry="18"/>
<text text-anchor="middle" x="537.54" y="-644.3" font-family="Times,serif" font-size="14.00">¬ &#39;P → ¬ &#39;Q ⊢ &#39;Q → &#39;P</text>
</g>
<!-- 1 -->
<g id="node2" class="node">
<title>1</title>
<ellipse fill="none" stroke="black" cx="789.54" cy="-561" rx="165.97" ry="18"/>
<text text-anchor="middle" x="789.54" y="-557.3" font-family="Times,serif" font-size="14.00">(empty ⊢ ¬ &#39;P, &#39;Q → &#39;P) (¬ &#39;Q ⊢ &#39;Q → &#39;P)</text>
</g>
<!-- 0&#45;&gt;1 -->
<g id="edge1" class="edge">
<title>0&#45;&gt;1</title>
<path fill="none" stroke="black" d="M582.88,-631.71C623.86,-617.88 684.46,-597.44 729.46,-582.26"/>
<polygon fill="black" stroke="black" points="730.46,-585.62 738.82,-579.11 728.22,-578.99 730.46,-585.62"/>
<text text-anchor="middle" x="703.04" y="-600.8" font-family="Times,serif" font-size="14.00">impl&#45;left</text>
</g>
<!-- 26 -->
<g id="node27" class="node">
<title>26</title>
<ellipse fill="none" stroke="black" cx="400.54" cy="-507" rx="87.99" ry="18"/>
<text text-anchor="middle" x="400.54" y="-503.3" font-family="Times,serif" font-size="14.00">&#39;Q, ¬ &#39;P → ¬ &#39;Q ⊢ &#39;P</text>
</g>
<!-- 0&#45;&gt;26 -->
<g id="edge52" class="edge">
<title>0&#45;&gt;26</title>
<path fill="none" stroke="black" d="M520.74,-629.96C496.78,-605.65 452.65,-560.87 425.04,-532.86"/>
<polygon fill="black" stroke="black" points="427.62,-530.49 418.11,-525.83 422.63,-535.41 427.62,-530.49"/>
<text text-anchor="middle" x="531.54" y="-600.8" font-family="Times,serif" font-size="14.00">impl&#45;right</text>
</g>
<!-- 2 -->
<g id="node3" class="node">
<title>2</title>
<ellipse fill="none" stroke="black" cx="1122.54" cy="-453" rx="129.18" ry="18"/>
<text text-anchor="middle" x="1122.54" y="-449.3" font-family="Times,serif" font-size="14.00">(&#39;Q ⊢ &#39;P, ¬ &#39;P) (¬ &#39;Q ⊢ &#39;Q → &#39;P)</text>
</g>
<!-- 1&#45;&gt;2 -->
<g id="edge2" class="edge">
<title>1&#45;&gt;2</title>
<path fill="none" stroke="black" d="M841.57,-543.44C901.14,-524.48 998.6,-493.45 1061.65,-473.38"/>
<polygon fill="black" stroke="black" points="1062.32,-476.84 1070.79,-470.47 1060.2,-470.17 1062.32,-476.84"/>
<text text-anchor="middle" x="1032.54" y="-503.3" font-family="Times,serif" font-size="14.00">impl&#45;right</text>
</g>
<!-- 17 -->
<g id="node18" class="node">
<title>17</title>
<ellipse fill="none" stroke="black" cx="1401.54" cy="-453" rx="131.88" ry="18"/>
<text text-anchor="middle" x="1401.54" y="-449.3" font-family="Times,serif" font-size="14.00">(&#39;P ⊢ &#39;Q → &#39;P) (¬ &#39;Q ⊢ &#39;Q → &#39;P)</text>
</g>
<!-- 1&#45;&gt;17 -->
<g id="edge28" class="edge">
<title>1&#45;&gt;17</title>
<path fill="none" stroke="black" d="M903.57,-547.59C953.16,-541.65 1011.86,-533.89 1064.54,-525 1155.15,-509.71 1258.43,-487.19 1326.51,-471.63"/>
<polygon fill="black" stroke="black" points="1327.1,-475.09 1336.06,-469.44 1325.54,-468.26 1327.1,-475.09"/>
<text text-anchor="middle" x="1272.54" y="-503.3" font-family="Times,serif" font-size="14.00">neg&#45;right</text>
</g>
<!-- 22 -->
<g id="node23" class="node">
<title>22</title>
<ellipse fill="none" stroke="black" cx="429.54" cy="-453" rx="156.77" ry="18"/>
<text text-anchor="middle" x="429.54" y="-449.3" font-family="Times,serif" font-size="14.00">(empty ⊢ ¬ &#39;P, &#39;Q → &#39;P) (&#39;Q, ¬ &#39;Q ⊢ &#39;P)</text>
</g>
<!-- 1&#45;&gt;22 -->
<g id="edge39" class="edge">
<title>1&#45;&gt;22</title>
<path fill="none" stroke="black" d="M734.08,-543.67C669.77,-524.73 563.86,-493.55 495.42,-473.4"/>
<polygon fill="black" stroke="black" points="496.8,-470.16 486.22,-470.69 494.82,-476.87 496.8,-470.16"/>
<text text-anchor="middle" x="690.54" y="-503.3" font-family="Times,serif" font-size="14.00">impl&#45;right</text>
</g>
<!-- 25 -->
<g id="node26" class="node">
<title>25</title>
<ellipse fill="none" stroke="black" cx="789.54" cy="-453" rx="185.47" ry="18"/>
<text text-anchor="middle" x="789.54" y="-449.3" font-family="Times,serif" font-size="14.00">(empty ⊢ &#39;Q, &#39;Q → &#39;P) (empty ⊢ ¬ &#39;P, &#39;Q → &#39;P)</text>
</g>
<!-- 1&#45;&gt;25 -->
<g id="edge48" class="edge">
<title>1&#45;&gt;25</title>
<path fill="none" stroke="black" d="M789.54,-542.97C789.54,-526.76 789.54,-502.06 789.54,-482.79"/>
<polygon fill="black" stroke="black" points="793.04,-482.85 789.54,-472.85 786.04,-482.85 793.04,-482.85"/>
<text text-anchor="middle" x="811.04" y="-503.3" font-family="Times,serif" font-size="14.00">neg&#45;left</text>
</g>
<!-- 3 -->
<g id="node4" class="node">
<title>3</title>
<ellipse fill="none" stroke="black" cx="1592.54" cy="-366" rx="121.58" ry="18"/>
<text text-anchor="middle" x="1592.54" y="-362.3" font-family="Times,serif" font-size="14.00">(¬ &#39;Q ⊢ &#39;Q → &#39;P) (&#39;P, &#39;Q ⊢ &#39;P)</text>
</g>
<!-- 2&#45;&gt;3 -->
<g id="edge3" class="edge">
<title>2&#45;&gt;3</title>
<path fill="none" stroke="black" d="M1132.81,-434.88C1140.73,-423.39 1152.81,-409.11 1167.54,-402 1226.49,-373.55 1396.38,-390.22 1461.54,-384 1472.41,-382.96 1483.77,-381.72 1495.06,-380.39"/>
<polygon fill="black" stroke="black" points="1495.3,-383.89 1504.81,-379.22 1494.46,-376.94 1495.3,-383.89"/>
<text text-anchor="middle" x="1192.54" y="-405.8" font-family="Times,serif" font-size="14.00">neg&#45;right</text>
</g>
<!-- 13 -->
<g id="node14" class="node">
<title>13</title>
<ellipse fill="none" stroke="black" cx="433.54" cy="-366" rx="120.48" ry="18"/>
<text text-anchor="middle" x="433.54" y="-362.3" font-family="Times,serif" font-size="14.00">(&#39;Q ⊢ &#39;P, ¬ &#39;P) (&#39;Q, ¬ &#39;Q ⊢ &#39;P)</text>
</g>
<!-- 2&#45;&gt;13 -->
<g id="edge19" class="edge">
<title>2&#45;&gt;13</title>
<path fill="none" stroke="black" d="M1024.39,-440.99C995.99,-435.78 965.42,-428.15 938.54,-417 927.61,-412.47 927.75,-405.77 916.54,-402 841.88,-376.88 640.98,-391.15 562.54,-384 551.93,-383.03 540.86,-381.85 529.86,-380.55"/>
<polygon fill="black" stroke="black" points="530.28,-377.08 519.93,-379.35 529.44,-384.03 530.28,-377.08"/>
<text text-anchor="middle" x="966.54" y="-405.8" font-family="Times,serif" font-size="14.00">impl&#45;right</text>
</g>
<!-- 16 -->
<g id="node17" class="node">
<title>16</title>
<ellipse fill="none" stroke="black" cx="720.54" cy="-366" rx="148.67" ry="18"/>
<text text-anchor="middle" x="720.54" y="-362.3" font-family="Times,serif" font-size="14.00">(&#39;Q ⊢ &#39;P, ¬ &#39;P) (empty ⊢ &#39;Q, &#39;Q → &#39;P)</text>
</g>
<!-- 2&#45;&gt;16 -->
<g id="edge25" class="edge">
<title>2&#45;&gt;16</title>
<path fill="none" stroke="black" d="M1112.51,-435.02C1104.78,-423.59 1092.97,-409.32 1078.54,-402 1038.74,-381.81 922.94,-388.39 878.54,-384 865.77,-382.74 852.44,-381.38 839.16,-379.99"/>
<polygon fill="black" stroke="black" points="839.84,-376.54 829.53,-378.98 839.11,-383.5 839.84,-376.54"/>
<text text-anchor="middle" x="1118.04" y="-405.8" font-family="Times,serif" font-size="14.00">neg&#45;left</text>
</g>
<!-- 4 -->
<g id="node5" class="node">
<title>4</title>
<ellipse fill="none" stroke="black" cx="1024.54" cy="-279" rx="112.38" ry="18"/>
<text text-anchor="middle" x="1024.54" y="-275.3" font-family="Times,serif" font-size="14.00">(&#39;P, &#39;Q ⊢ &#39;P) (&#39;Q, ¬ &#39;Q ⊢ &#39;P)</text>
</g>
<!-- 3&#45;&gt;4 -->
<g id="edge4" class="edge">
<title>3&#45;&gt;4</title>
<path fill="none" stroke="black" d="M1506.14,-352.93C1451.75,-344.99 1389.61,-335.14 1377.54,-330 1367.31,-325.65 1367.92,-318.96 1357.54,-315 1269.17,-281.33 1239.5,-307.58 1145.54,-297 1135.96,-295.92 1125.98,-294.69 1116.03,-293.4"/>
<polygon fill="black" stroke="black" points="1116.71,-289.96 1106.34,-292.11 1115.79,-296.9 1116.71,-289.96"/>
<text text-anchor="middle" x="1405.54" y="-318.8" font-family="Times,serif" font-size="14.00">impl&#45;right</text>
</g>
<!-- 10 -->
<g id="node11" class="node">
<title>10</title>
<ellipse fill="none" stroke="black" cx="1295.54" cy="-279" rx="141.07" ry="18"/>
<text text-anchor="middle" x="1295.54" y="-275.3" font-family="Times,serif" font-size="14.00">(empty ⊢ &#39;Q, &#39;Q → &#39;P) (&#39;P, &#39;Q ⊢ &#39;P)</text>
</g>
<!-- 3&#45;&gt;10 -->
<g id="edge12" class="edge">
<title>3&#45;&gt;10</title>
<path fill="none" stroke="black" d="M1545.66,-348.93C1515.05,-338.67 1474.12,-325.39 1437.54,-315 1416.73,-309.09 1394.05,-303.23 1373.04,-298.06"/>
<polygon fill="black" stroke="black" points="1373.91,-294.67 1363.37,-295.69 1372.25,-301.47 1373.91,-294.67"/>
<text text-anchor="middle" x="1506.04" y="-318.8" font-family="Times,serif" font-size="14.00">neg&#45;left</text>
</g>
<!-- 12 -->
<g id="node13" class="node">
<title>12</title>
<ellipse fill="none" stroke="black" cx="1523.54" cy="-279" rx="68.79" ry="18"/>
<text text-anchor="middle" x="1523.54" y="-275.3" font-family="Times,serif" font-size="14.00">¬ &#39;Q ⊢ &#39;Q → &#39;P</text>
</g>
<!-- 3&#45;&gt;12 -->
<g id="edge16" class="edge">
<title>3&#45;&gt;12</title>
<path fill="none" stroke="black" d="M1578.57,-347.8C1568.78,-335.74 1555.52,-319.4 1544.47,-305.79"/>
<polygon fill="black" stroke="black" points="1547.22,-303.62 1538.2,-298.06 1541.78,-308.03 1547.22,-303.62"/>
<text text-anchor="middle" x="1579.04" y="-318.8" font-family="Times,serif" font-size="14.00">axiom</text>
</g>
<!-- 5 -->
<g id="node6" class="node">
<title>5</title>
<ellipse fill="none" stroke="black" cx="1095.54" cy="-192" rx="59.59" ry="18"/>
<text text-anchor="middle" x="1095.54" y="-188.3" font-family="Times,serif" font-size="14.00">&#39;Q, ¬ &#39;Q ⊢ &#39;P</text>
</g>
<!-- 4&#45;&gt;5 -->
<g id="edge5" class="edge">
<title>4&#45;&gt;5</title>
<path fill="none" stroke="black" d="M1053.42,-261.24C1060.65,-256.07 1067.93,-249.9 1073.54,-243 1078.9,-236.4 1083.21,-228.28 1086.54,-220.52"/>
<polygon fill="black" stroke="black" points="1089.73,-221.99 1090.06,-211.4 1083.2,-219.47 1089.73,-221.99"/>
<text text-anchor="middle" x="1099.04" y="-231.8" font-family="Times,serif" font-size="14.00">axiom</text>
</g>
<!-- 8 -->
<g id="node9" class="node">
<title>8</title>
<ellipse fill="none" stroke="black" cx="914.54" cy="-192" rx="103.18" ry="18"/>
<text text-anchor="middle" x="914.54" y="-188.3" font-family="Times,serif" font-size="14.00">(&#39;Q ⊢ &#39;P, &#39;Q) (&#39;P, &#39;Q ⊢ &#39;P)</text>
</g>
<!-- 4&#45;&gt;8 -->
<g id="edge8" class="edge">
<title>4&#45;&gt;8</title>
<path fill="none" stroke="black" d="M982.28,-262.01C971.63,-256.87 960.64,-250.52 951.54,-243 943.52,-236.38 936.3,-227.66 930.41,-219.36"/>
<polygon fill="black" stroke="black" points="933.44,-217.6 924.98,-211.22 927.61,-221.48 933.44,-217.6"/>
<text text-anchor="middle" x="973.04" y="-231.8" font-family="Times,serif" font-size="14.00">neg&#45;left</text>
</g>
<!-- 6 -->
<g id="node7" class="node">
<title>6</title>
<ellipse fill="none" stroke="black" cx="974.54" cy="-105" rx="50.89" ry="18"/>
<text text-anchor="middle" x="974.54" y="-101.3" font-family="Times,serif" font-size="14.00">&#39;Q ⊢ &#39;P, &#39;Q</text>
</g>
<!-- 5&#45;&gt;6 -->
<g id="edge6" class="edge">
<title>5&#45;&gt;6</title>
<path fill="none" stroke="black" d="M1072.78,-175.01C1053.98,-161.81 1027.1,-142.93 1006.21,-128.25"/>
<polygon fill="black" stroke="black" points="1008.22,-125.38 998.02,-122.5 1004.19,-131.11 1008.22,-125.38"/>
<text text-anchor="middle" x="1063.04" y="-144.8" font-family="Times,serif" font-size="14.00">neg&#45;left</text>
</g>
<!-- 7 -->
<g id="node8" class="node">
<title>7</title>
<ellipse fill="none" stroke="black" cx="906.54" cy="-18" rx="27" ry="18"/>
<text text-anchor="middle" x="906.54" y="-14.3" font-family="Times,serif" font-size="14.00">Nil</text>
</g>
<!-- 6&#45;&gt;7 -->
<g id="edge7" class="edge">
<title>6&#45;&gt;7</title>
<path fill="none" stroke="black" d="M961.1,-87.21C951.01,-74.59 937.03,-57.12 925.76,-43.02"/>
<polygon fill="black" stroke="black" points="928.73,-41.13 919.75,-35.51 923.26,-45.51 928.73,-41.13"/>
<text text-anchor="middle" x="962.04" y="-57.8" font-family="Times,serif" font-size="14.00">axiom</text>
</g>
<!-- 8&#45;&gt;6 -->
<g id="edge11" class="edge">
<title>8&#45;&gt;6</title>
<path fill="none" stroke="black" d="M926.68,-173.8C935.11,-161.85 946.5,-145.72 956.05,-132.18"/>
<polygon fill="black" stroke="black" points="958.84,-134.31 961.74,-124.12 953.12,-130.27 958.84,-134.31"/>
<text text-anchor="middle" x="965.04" y="-144.8" font-family="Times,serif" font-size="14.00">axiom</text>
</g>
<!-- 9 -->
<g id="node10" class="node">
<title>9</title>
<ellipse fill="none" stroke="black" cx="847.54" cy="-105" rx="49.29" ry="18"/>
<text text-anchor="middle" x="847.54" y="-101.3" font-family="Times,serif" font-size="14.00">&#39;P, &#39;Q ⊢ &#39;P</text>
</g>
<!-- 8&#45;&gt;9 -->
<g id="edge9" class="edge">
<title>8&#45;&gt;9</title>
<path fill="none" stroke="black" d="M900.98,-173.8C891.41,-161.66 878.43,-145.19 867.66,-131.52"/>
<polygon fill="black" stroke="black" points="870.5,-129.47 861.56,-123.79 865,-133.81 870.5,-129.47"/>
<text text-anchor="middle" x="902.04" y="-144.8" font-family="Times,serif" font-size="14.00">axiom</text>
</g>
<!-- 9&#45;&gt;7 -->
<g id="edge10" class="edge">
<title>9&#45;&gt;7</title>
<path fill="none" stroke="black" d="M859.19,-87.21C867.76,-74.86 879.55,-57.89 889.21,-43.96"/>
<polygon fill="black" stroke="black" points="891.81,-46.35 894.64,-36.14 886.06,-42.36 891.81,-46.35"/>
<text text-anchor="middle" x="898.04" y="-57.8" font-family="Times,serif" font-size="14.00">axiom</text>
</g>
<!-- 10&#45;&gt;8 -->
<g id="edge13" class="edge">
<title>10&#45;&gt;8</title>
<path fill="none" stroke="black" d="M1194.3,-266.07C1115.17,-256.65 1017.83,-244.8 1013.54,-243 1003.61,-238.85 1003.76,-233.53 994.54,-228 985.75,-222.73 976.03,-217.81 966.48,-213.41"/>
<polygon fill="black" stroke="black" points="968.18,-210.33 957.62,-209.47 965.34,-216.73 968.18,-210.33"/>
<text text-anchor="middle" x="1041.54" y="-231.8" font-family="Times,serif" font-size="14.00">impl&#45;right</text>
</g>
<!-- 11 -->
<g id="node12" class="node">
<title>11</title>
<ellipse fill="none" stroke="black" cx="1295.54" cy="-192" rx="88.28" ry="18"/>
<text text-anchor="middle" x="1295.54" y="-188.3" font-family="Times,serif" font-size="14.00">empty ⊢ &#39;Q, &#39;Q → &#39;P</text>
</g>
<!-- 10&#45;&gt;11 -->
<g id="edge14" class="edge">
<title>10&#45;&gt;11</title>
<path fill="none" stroke="black" d="M1295.54,-260.8C1295.54,-249.58 1295.54,-234.67 1295.54,-221.69"/>
<polygon fill="black" stroke="black" points="1299.04,-221.98 1295.54,-211.98 1292.04,-221.98 1299.04,-221.98"/>
<text text-anchor="middle" x="1313.04" y="-231.8" font-family="Times,serif" font-size="14.00">axiom</text>
</g>
<!-- 11&#45;&gt;6 -->
<g id="edge15" class="edge">
<title>11&#45;&gt;6</title>
<path fill="none" stroke="black" d="M1243.25,-177.15C1183,-161.2 1084.67,-135.16 1025.14,-119.4"/>
<polygon fill="black" stroke="black" points="1026.16,-116.05 1015.6,-116.87 1024.37,-122.82 1026.16,-116.05"/>
<text text-anchor="middle" x="1181.54" y="-144.8" font-family="Times,serif" font-size="14.00">impl&#45;right</text>
</g>
<!-- 12&#45;&gt;5 -->
<g id="edge17" class="edge">
<title>12&#45;&gt;5</title>
<path fill="none" stroke="black" d="M1473.78,-266.15C1464.44,-264.21 1454.72,-262.39 1445.54,-261 1352.91,-247 1327.07,-262.92 1235.54,-243 1202.14,-235.73 1165.84,-222.61 1138.57,-211.62"/>
<polygon fill="black" stroke="black" points="1140.19,-208.51 1129.61,-207.96 1137.54,-214.99 1140.19,-208.51"/>
<text text-anchor="middle" x="1263.54" y="-231.8" font-family="Times,serif" font-size="14.00">impl&#45;right</text>
</g>
<!-- 12&#45;&gt;11 -->
<g id="edge18" class="edge">
<title>12&#45;&gt;11</title>
<path fill="none" stroke="black" d="M1485.12,-263.68C1447.17,-249.53 1388.9,-227.81 1346.98,-212.18"/>
<polygon fill="black" stroke="black" points="1348.44,-208.99 1337.84,-208.77 1345.99,-215.55 1348.44,-208.99"/>
<text text-anchor="middle" x="1444.04" y="-231.8" font-family="Times,serif" font-size="14.00">neg&#45;left</text>
</g>
<!-- 13&#45;&gt;4 -->
<g id="edge20" class="edge">
<title>13&#45;&gt;4</title>
<path fill="none" stroke="black" d="M518.44,-352.92C533.12,-351.08 548.26,-349.35 562.54,-348 699.93,-334.98 736.96,-355.78 872.54,-330 907.14,-323.42 944.76,-311.09 973.91,-300.32"/>
<polygon fill="black" stroke="black" points="975.1,-303.62 983.23,-296.82 972.64,-297.06 975.1,-303.62"/>
<text text-anchor="middle" x="952.54" y="-318.8" font-family="Times,serif" font-size="14.00">neg&#45;right</text>
</g>
<!-- 14 -->
<g id="node15" class="node">
<title>14</title>
<ellipse fill="none" stroke="black" cx="537.54" cy="-279" rx="111.28" ry="18"/>
<text text-anchor="middle" x="537.54" y="-275.3" font-family="Times,serif" font-size="14.00">(&#39;Q ⊢ &#39;P, &#39;Q) (&#39;Q ⊢ &#39;P, ¬ &#39;P)</text>
</g>
<!-- 13&#45;&gt;14 -->
<g id="edge21" class="edge">
<title>13&#45;&gt;14</title>
<path fill="none" stroke="black" d="M454.58,-347.8C470.05,-335.16 491.26,-317.82 508.36,-303.85"/>
<polygon fill="black" stroke="black" points="510.18,-306.88 515.71,-297.84 505.75,-301.46 510.18,-306.88"/>
<text text-anchor="middle" x="514.04" y="-318.8" font-family="Times,serif" font-size="14.00">neg&#45;left</text>
</g>
<!-- 14&#45;&gt;8 -->
<g id="edge24" class="edge">
<title>14&#45;&gt;8</title>
<path fill="none" stroke="black" d="M618.97,-266.38C685.74,-256.77 769.85,-244.49 773.54,-243 784.17,-238.71 784.22,-233.01 794.54,-228 809.29,-220.84 825.79,-214.85 841.71,-209.98"/>
<polygon fill="black" stroke="black" points="842.56,-213.38 851.17,-207.2 840.59,-206.66 842.56,-213.38"/>
<text text-anchor="middle" x="819.54" y="-231.8" font-family="Times,serif" font-size="14.00">neg&#45;right</text>
</g>
<!-- 15 -->
<g id="node16" class="node">
<title>15</title>
<ellipse fill="none" stroke="black" cx="537.54" cy="-192" rx="57.39" ry="18"/>
<text text-anchor="middle" x="537.54" y="-188.3" font-family="Times,serif" font-size="14.00">&#39;Q ⊢ &#39;P, ¬ &#39;P</text>
</g>
<!-- 14&#45;&gt;15 -->
<g id="edge22" class="edge">
<title>14&#45;&gt;15</title>
<path fill="none" stroke="black" d="M537.54,-260.8C537.54,-249.58 537.54,-234.67 537.54,-221.69"/>
<polygon fill="black" stroke="black" points="541.04,-221.98 537.54,-211.98 534.04,-221.98 541.04,-221.98"/>
<text text-anchor="middle" x="555.04" y="-231.8" font-family="Times,serif" font-size="14.00">axiom</text>
</g>
<!-- 15&#45;&gt;9 -->
<g id="edge23" class="edge">
<title>15&#45;&gt;9</title>
<path fill="none" stroke="black" d="M579.67,-179.45C636.55,-163.85 737.73,-136.11 798.13,-119.55"/>
<polygon fill="black" stroke="black" points="798.74,-123.01 807.46,-116.99 796.89,-116.26 798.74,-123.01"/>
<text text-anchor="middle" x="735.54" y="-144.8" font-family="Times,serif" font-size="14.00">neg&#45;right</text>
</g>
<!-- 16&#45;&gt;10 -->
<g id="edge26" class="edge">
<title>16&#45;&gt;10</title>
<path fill="none" stroke="black" d="M828.03,-353.19C844.92,-351.4 862.2,-349.62 878.54,-348 966.91,-339.25 991.81,-353.2 1077.54,-330 1092.7,-325.9 1094.59,-319.82 1109.54,-315 1135.51,-306.62 1164.21,-299.99 1191.13,-294.86"/>
<polygon fill="black" stroke="black" points="1191.46,-298.36 1200.65,-293.1 1190.18,-291.48 1191.46,-298.36"/>
<text text-anchor="middle" x="1134.54" y="-318.8" font-family="Times,serif" font-size="14.00">neg&#45;right</text>
</g>
<!-- 16&#45;&gt;14 -->
<g id="edge27" class="edge">
<title>16&#45;&gt;14</title>
<path fill="none" stroke="black" d="M701.56,-347.69C688.99,-337.01 671.72,-323.72 654.54,-315 640.92,-308.09 625.7,-302.3 610.87,-297.54"/>
<polygon fill="black" stroke="black" points="612.19,-294.29 601.61,-294.71 610.14,-300.98 612.19,-294.29"/>
<text text-anchor="middle" x="705.54" y="-318.8" font-family="Times,serif" font-size="14.00">impl&#45;right</text>
</g>
<!-- 17&#45;&gt;3 -->
<g id="edge29" class="edge">
<title>17&#45;&gt;3</title>
<path fill="none" stroke="black" d="M1438.82,-435.41C1469.19,-421.89 1512.25,-402.73 1545.08,-388.12"/>
<polygon fill="black" stroke="black" points="1546.25,-391.43 1553.97,-384.16 1543.41,-385.03 1546.25,-391.43"/>
<text text-anchor="middle" x="1535.54" y="-405.8" font-family="Times,serif" font-size="14.00">impl&#45;right</text>
</g>
<!-- 18 -->
<g id="node19" class="node">
<title>18</title>
<ellipse fill="none" stroke="black" cx="1009.54" cy="-366" rx="122.38" ry="18"/>
<text text-anchor="middle" x="1009.54" y="-362.3" font-family="Times,serif" font-size="14.00">(&#39;P ⊢ &#39;Q → &#39;P) (&#39;Q, ¬ &#39;Q ⊢ &#39;P)</text>
</g>
<!-- 17&#45;&gt;18 -->
<g id="edge30" class="edge">
<title>17&#45;&gt;18</title>
<path fill="none" stroke="black" d="M1349.92,-436.07C1314.13,-425.42 1265.24,-411.65 1221.54,-402 1184.4,-393.8 1143.22,-386.58 1107.1,-380.86"/>
<polygon fill="black" stroke="black" points="1107.98,-377.46 1097.56,-379.37 1106.9,-384.37 1107.98,-377.46"/>
<text text-anchor="middle" x="1308.54" y="-405.8" font-family="Times,serif" font-size="14.00">impl&#45;right</text>
</g>
<!-- 21 -->
<g id="node22" class="node">
<title>21</title>
<ellipse fill="none" stroke="black" cx="1301.54" cy="-366" rx="151.37" ry="18"/>
<text text-anchor="middle" x="1301.54" y="-362.3" font-family="Times,serif" font-size="14.00">(&#39;P ⊢ &#39;Q → &#39;P) (empty ⊢ &#39;Q, &#39;Q → &#39;P)</text>
</g>
<!-- 17&#45;&gt;21 -->
<g id="edge36" class="edge">
<title>17&#45;&gt;21</title>
<path fill="none" stroke="black" d="M1381.3,-434.8C1366.66,-422.36 1346.67,-405.36 1330.37,-391.5"/>
<polygon fill="black" stroke="black" points="1332.78,-388.97 1322.9,-385.16 1328.25,-394.3 1332.78,-388.97"/>
<text text-anchor="middle" x="1378.04" y="-405.8" font-family="Times,serif" font-size="14.00">neg&#45;left</text>
</g>
<!-- 18&#45;&gt;4 -->
<g id="edge31" class="edge">
<title>18&#45;&gt;4</title>
<path fill="none" stroke="black" d="M1012.57,-347.8C1014.55,-336.58 1017.18,-321.67 1019.47,-308.69"/>
<polygon fill="black" stroke="black" points="1022.9,-309.41 1021.19,-298.96 1016.01,-308.2 1022.9,-309.41"/>
<text text-anchor="middle" x="1045.54" y="-318.8" font-family="Times,serif" font-size="14.00">impl&#45;right</text>
</g>
<!-- 19 -->
<g id="node20" class="node">
<title>19</title>
<ellipse fill="none" stroke="black" cx="780.54" cy="-279" rx="113.98" ry="18"/>
<text text-anchor="middle" x="780.54" y="-275.3" font-family="Times,serif" font-size="14.00">(&#39;P ⊢ &#39;Q → &#39;P) (&#39;Q ⊢ &#39;P, &#39;Q)</text>
</g>
<!-- 18&#45;&gt;19 -->
<g id="edge32" class="edge">
<title>18&#45;&gt;19</title>
<path fill="none" stroke="black" d="M922.47,-353.06C884.94,-346.9 845.94,-338.83 829.54,-330 818.46,-324.04 808.33,-314.72 800.19,-305.74"/>
<polygon fill="black" stroke="black" points="802.89,-303.51 793.74,-298.16 797.56,-308.05 802.89,-303.51"/>
<text text-anchor="middle" x="851.04" y="-318.8" font-family="Times,serif" font-size="14.00">neg&#45;left</text>
</g>
<!-- 19&#45;&gt;8 -->
<g id="edge33" class="edge">
<title>19&#45;&gt;8</title>
<path fill="none" stroke="black" d="M815.43,-261.5C826.26,-256 838.09,-249.58 848.54,-243 860.99,-235.16 874.03,-225.6 885.2,-216.94"/>
<polygon fill="black" stroke="black" points="887.21,-219.82 892.91,-210.88 882.88,-214.32 887.21,-219.82"/>
<text text-anchor="middle" x="896.54" y="-231.8" font-family="Times,serif" font-size="14.00">impl&#45;right</text>
</g>
<!-- 20 -->
<g id="node21" class="node">
<title>20</title>
<ellipse fill="none" stroke="black" cx="733.54" cy="-192" rx="59.59" ry="18"/>
<text text-anchor="middle" x="733.54" y="-188.3" font-family="Times,serif" font-size="14.00">&#39;P ⊢ &#39;Q → &#39;P</text>
</g>
<!-- 19&#45;&gt;20 -->
<g id="edge34" class="edge">
<title>19&#45;&gt;20</title>
<path fill="none" stroke="black" d="M754.2,-261.37C748.08,-256.23 742.27,-250.04 738.54,-243 735.09,-236.5 733.37,-228.86 732.62,-221.54"/>
<polygon fill="black" stroke="black" points="736.12,-221.48 732.18,-211.65 729.12,-221.79 736.12,-221.48"/>
<text text-anchor="middle" x="756.04" y="-231.8" font-family="Times,serif" font-size="14.00">axiom</text>
</g>
<!-- 20&#45;&gt;9 -->
<g id="edge35" class="edge">
<title>20&#45;&gt;9</title>
<path fill="none" stroke="black" d="M755.25,-174.81C772.9,-161.65 798,-142.93 817.57,-128.34"/>
<polygon fill="black" stroke="black" points="819.54,-131.24 825.46,-122.46 815.35,-125.63 819.54,-131.24"/>
<text text-anchor="middle" x="824.54" y="-144.8" font-family="Times,serif" font-size="14.00">impl&#45;right</text>
</g>
<!-- 21&#45;&gt;10 -->
<g id="edge37" class="edge">
<title>21&#45;&gt;10</title>
<path fill="none" stroke="black" d="M1300.32,-347.8C1299.53,-336.58 1298.48,-321.67 1297.56,-308.69"/>
<polygon fill="black" stroke="black" points="1301.07,-308.71 1296.88,-298.98 1294.09,-309.2 1301.07,-308.71"/>
<text text-anchor="middle" x="1326.54" y="-318.8" font-family="Times,serif" font-size="14.00">impl&#45;right</text>
</g>
<!-- 21&#45;&gt;19 -->
<g id="edge38" class="edge">
<title>21&#45;&gt;19</title>
<path fill="none" stroke="black" d="M1264,-348.17C1236.71,-336.74 1198.57,-322.41 1163.54,-315 1050.21,-291.04 1018.75,-308.94 903.54,-297 893.54,-295.96 883.1,-294.74 872.72,-293.43"/>
<polygon fill="black" stroke="black" points="873.36,-289.99 862.99,-292.18 872.46,-296.93 873.36,-289.99"/>
<text text-anchor="middle" x="1241.54" y="-318.8" font-family="Times,serif" font-size="14.00">impl&#45;right</text>
</g>
<!-- 22&#45;&gt;13 -->
<g id="edge40" class="edge">
<title>22&#45;&gt;13</title>
<path fill="none" stroke="black" d="M430.35,-434.8C430.87,-423.58 431.58,-408.67 432.19,-395.69"/>
<polygon fill="black" stroke="black" points="435.67,-396.13 432.64,-385.98 428.68,-395.8 435.67,-396.13"/>
<text text-anchor="middle" x="460.54" y="-405.8" font-family="Times,serif" font-size="14.00">impl&#45;right</text>
</g>
<!-- 22&#45;&gt;18 -->
<g id="edge41" class="edge">
<title>22&#45;&gt;18</title>
<path fill="none" stroke="black" d="M542.02,-440.15C559.91,-438.36 578.23,-436.58 595.54,-435 694.56,-425.93 720.93,-435.95 818.54,-417 840.48,-412.74 845,-407.99 866.54,-402 888.55,-395.87 912.63,-389.76 934.64,-384.39"/>
<polygon fill="black" stroke="black" points="935.23,-387.85 944.13,-382.1 933.59,-381.05 935.23,-387.85"/>
<text text-anchor="middle" x="891.54" y="-405.8" font-family="Times,serif" font-size="14.00">neg&#45;right</text>
</g>
<!-- 23 -->
<g id="node24" class="node">
<title>23</title>
<ellipse fill="none" stroke="black" cx="147.54" cy="-366" rx="147.57" ry="18"/>
<text text-anchor="middle" x="147.54" y="-362.3" font-family="Times,serif" font-size="14.00">(&#39;Q ⊢ &#39;P, &#39;Q) (empty ⊢ ¬ &#39;P, &#39;Q → &#39;P)</text>
</g>
<!-- 22&#45;&gt;23 -->
<g id="edge42" class="edge">
<title>22&#45;&gt;23</title>
<path fill="none" stroke="black" d="M375.5,-435.71C328.81,-421.64 261.26,-401.28 211.81,-386.37"/>
<polygon fill="black" stroke="black" points="212.95,-383.06 202.36,-383.53 210.93,-389.76 212.95,-383.06"/>
<text text-anchor="middle" x="327.04" y="-405.8" font-family="Times,serif" font-size="14.00">neg&#45;left</text>
</g>
<!-- 23&#45;&gt;14 -->
<g id="edge46" class="edge">
<title>23&#45;&gt;14</title>
<path fill="none" stroke="black" d="M217.26,-349.8C286.1,-334.8 391.06,-311.92 461.89,-296.49"/>
<polygon fill="black" stroke="black" points="462.44,-299.95 471.47,-294.4 460.95,-293.11 462.44,-299.95"/>
<text text-anchor="middle" x="394.54" y="-318.8" font-family="Times,serif" font-size="14.00">impl&#45;right</text>
</g>
<!-- 23&#45;&gt;19 -->
<g id="edge47" class="edge">
<title>23&#45;&gt;19</title>
<path fill="none" stroke="black" d="M253.06,-353.11C270.25,-351.31 287.88,-349.54 304.54,-348 408.84,-338.36 436.1,-346.56 539.54,-330 567.1,-325.59 573.27,-321 600.54,-315 631.97,-308.08 666.64,-301.17 697.1,-295.34"/>
<polygon fill="black" stroke="black" points="697.46,-298.84 706.63,-293.53 696.15,-291.96 697.46,-298.84"/>
<text text-anchor="middle" x="625.54" y="-318.8" font-family="Times,serif" font-size="14.00">neg&#45;right</text>
</g>
<!-- 24 -->
<g id="node25" class="node">
<title>24</title>
<ellipse fill="none" stroke="black" cx="314.54" cy="-279" rx="93.68" ry="18"/>
<text text-anchor="middle" x="314.54" y="-275.3" font-family="Times,serif" font-size="14.00">empty ⊢ ¬ &#39;P, &#39;Q → &#39;P</text>
</g>
<!-- 23&#45;&gt;24 -->
<g id="edge43" class="edge">
<title>23&#45;&gt;24</title>
<path fill="none" stroke="black" d="M180.93,-348C207.3,-334.58 244.24,-315.78 272.59,-301.35"/>
<polygon fill="black" stroke="black" points="273.94,-304.59 281.27,-296.93 270.77,-298.35 273.94,-304.59"/>
<text text-anchor="middle" x="259.04" y="-318.8" font-family="Times,serif" font-size="14.00">axiom</text>
</g>
<!-- 24&#45;&gt;15 -->
<g id="edge44" class="edge">
<title>24&#45;&gt;15</title>
<path fill="none" stroke="black" d="M355.44,-262.41C393.91,-247.75 451.42,-225.82 491.49,-210.55"/>
<polygon fill="black" stroke="black" points="492.53,-213.9 500.63,-207.07 490.04,-207.36 492.53,-213.9"/>
<text text-anchor="middle" x="467.54" y="-231.8" font-family="Times,serif" font-size="14.00">impl&#45;right</text>
</g>
<!-- 24&#45;&gt;20 -->
<g id="edge45" class="edge">
<title>24&#45;&gt;20</title>
<path fill="none" stroke="black" d="M382.61,-266.26C394.25,-264.4 406.23,-262.57 417.54,-261 487.98,-251.21 506.99,-257.86 576.54,-243 614.45,-234.9 656.22,-221.36 687.14,-210.42"/>
<polygon fill="black" stroke="black" points="687.94,-213.85 696.17,-207.18 685.58,-207.26 687.94,-213.85"/>
<text text-anchor="middle" x="657.54" y="-231.8" font-family="Times,serif" font-size="14.00">neg&#45;right</text>
</g>
<!-- 25&#45;&gt;16 -->
<g id="edge50" class="edge">
<title>25&#45;&gt;16</title>
<path fill="none" stroke="black" d="M775.57,-434.8C765.85,-422.82 752.7,-406.62 741.69,-393.06"/>
<polygon fill="black" stroke="black" points="744.45,-390.91 735.43,-385.35 739.02,-395.32 744.45,-390.91"/>
<text text-anchor="middle" x="786.54" y="-405.8" font-family="Times,serif" font-size="14.00">impl&#45;right</text>
</g>
<!-- 25&#45;&gt;21 -->
<g id="edge51" class="edge">
<title>25&#45;&gt;21</title>
<path fill="none" stroke="black" d="M911.61,-439.07C940.61,-433.96 971.09,-426.85 998.54,-417 1011.09,-412.49 1011.89,-406.25 1024.54,-402 1039.74,-396.89 1113.29,-387.7 1180.78,-380.02"/>
<polygon fill="black" stroke="black" points="1180.94,-383.53 1190.48,-378.93 1180.15,-376.57 1180.94,-383.53"/>
<text text-anchor="middle" x="1049.54" y="-405.8" font-family="Times,serif" font-size="14.00">neg&#45;right</text>
</g>
<!-- 25&#45;&gt;23 -->
<g id="edge49" class="edge">
<title>25&#45;&gt;23</title>
<path fill="none" stroke="black" d="M706.88,-436.46C647.43,-425.68 565.24,-411.59 492.54,-402 409.32,-391.03 388.04,-392.52 304.54,-384 291.86,-382.71 278.61,-381.32 265.41,-379.92"/>
<polygon fill="black" stroke="black" points="266.17,-376.48 255.86,-378.91 265.43,-383.45 266.17,-376.48"/>
<text text-anchor="middle" x="618.54" y="-405.8" font-family="Times,serif" font-size="14.00">impl&#45;right</text>
</g>
<!-- 26&#45;&gt;13 -->
<g id="edge53" class="edge">
<title>26&#45;&gt;13</title>
<path fill="none" stroke="black" d="M317.61,-500.64C274.46,-495.94 227.96,-487.19 214.54,-471 204.32,-458.68 205.05,-447.88 214.54,-435 230.86,-412.85 293.4,-394.79 347.49,-382.87"/>
<polygon fill="black" stroke="black" points="348.02,-386.34 357.06,-380.81 346.54,-379.49 348.02,-386.34"/>
<text text-anchor="middle" x="239.04" y="-449.3" font-family="Times,serif" font-size="14.00">impl&#45;left</text>
</g>
</g>
</svg>
