<?xml version="1.0" encoding="UTF-8" standalone="no"?>
<!DOCTYPE svg PUBLIC "-//W3C//DTD SVG 1.1//EN"
 "http://www.w3.org/Graphics/SVG/1.1/DTD/svg11.dtd">
<!-- Generated by graphviz version 7.0.4 (0)
 -->
<!-- Title: history Pages: 1 -->
<svg width="2431pt" height="1157pt"
 viewBox="0.00 0.00 2431.00 1157.00" xmlns="http://www.w3.org/2000/svg" xmlns:xlink="http://www.w3.org/1999/xlink">
<g id="graph0" class="graph" transform="scale(1 1) rotate(0) translate(4 1153)">
<title>history</title>
<polygon fill="white" stroke="none" points="-4,4 -4,-1153 2427,-1153 2427,4 -4,4"/>
<!-- 0 -->
<g id="node1" class="node">
<title>0</title>
<polygon fill="none" stroke="brown" stroke-width="2" points="2423,-986 0,-986 0,-950 2423,-950 2423,-986"/>
<text text-anchor="middle" x="1211.5" y="-971.4" font-family="Times,serif" font-size="12.00">Rule = {rec(deontic:NCOb,event:rec(name:assess),initial_actors:{org},name:Assessment,on_done:rec(interrupt:{},trigger:{(org|&#45;&gt;{(NotifyIndiv|&#45;&gt;org),(NotifyPdpc|&#45;&gt;org)}),(indiv|&#45;&gt;{(NotifyIndiv|&#45;&gt;indiv),(NotifyPdpc|&#45;&gt;indiv)}),(pdpc|&#45;&gt;{(NotifyIndiv|&#45;&gt;pdpc),(NotifyPdpc|&#45;&gt;pdpc)})}),on_timeout:rec(interrupt:{},trigger:{(org|&#45;&gt;{}),(i...,is_compensable(rec(deontic:NCOb,event:rec(name:assess),initial_actors:{org},name...,is_compensable(rec(deontic:NCOb,event:rec(name:notify_indiv),initial_actors:{},n...,</text>
<text text-anchor="middle" x="1211.5" y="-958.4" font-family="Times,serif" font-size="12.00">is_compensable(rec(deontic:NCOb,event:rec(name:notify_pdpc),initial_actors:{},na...,is_compensable(rec(deontic:NCProhib,event:rec(name:notify_indiv),initial_actors:...,is_compensable(rec(deontic:Perm,event:rec(name:prohibit_notify_indiv),initial_ac...</text>
</g>
<!-- 1 -->
<g id="node2" class="node">
<title>1</title>
<polygon fill="none" stroke="brown" stroke-width="2" points="1346,-829 1077,-829 1077,-793 1346,-793 1346,-829"/>
<text text-anchor="middle" x="1211.5" y="-807.9" font-family="Times,serif" font-size="12.00">active_rules = {},breached_by = {},started = FALSE</text>
</g>
<!-- 0&#45;&gt;1 -->
<g id="edge2" class="edge">
<title>0&#45;&gt;1</title>
<path fill="none" stroke="brown" d="M1211.5,-949.22C1211.5,-922.71 1211.5,-872.54 1211.5,-840.76"/>
<polygon fill="brown" stroke="brown" points="1215,-841.09 1211.5,-831.09 1208,-841.09 1215,-841.09"/>
<text text-anchor="middle" x="1257.5" y="-886.4" font-family="Times,serif" font-size="12.00">INITIALISATION</text>
</g>
<!-- 2 -->
<g id="node3" class="node">
<title>2</title>
<polygon fill="none" stroke="brown" stroke-width="2" points="1393.5,-672 1029.5,-672 1029.5,-636 1393.5,-636 1393.5,-672"/>
<text text-anchor="middle" x="1211.5" y="-650.9" font-family="Times,serif" font-size="12.00">active_rules((Assessment|&#45;&gt;org)) = 30,breached_by = {},started = TRUE</text>
</g>
<!-- 1&#45;&gt;2 -->
<g id="edge3" class="edge">
<title>1&#45;&gt;2</title>
<path fill="none" stroke="brown" d="M1211.5,-792.22C1211.5,-765.71 1211.5,-715.54 1211.5,-683.76"/>
<polygon fill="brown" stroke="brown" points="1215,-684.09 1211.5,-674.09 1208,-684.09 1215,-684.09"/>
<text text-anchor="middle" x="1221.5" y="-729.4" font-family="Times,serif" font-size="12.00">start</text>
</g>
<!-- 3 -->
<g id="node4" class="node">
<title>3</title>
<polygon fill="none" stroke="brown" stroke-width="2" points="1440.5,-515 982.5,-515 982.5,-479 1440.5,-479 1440.5,-515"/>
<text text-anchor="middle" x="1211.5" y="-500.4" font-family="Times,serif" font-size="12.00">active_rules((NotifyIndiv|&#45;&gt;org)) = 3,active_rules((NotifyPdpc|&#45;&gt;org)) = 3,breached_by = {},</text>
<text text-anchor="middle" x="1211.5" y="-487.4" font-family="Times,serif" font-size="12.00">started = TRUE</text>
</g>
<!-- 2&#45;&gt;3 -->
<g id="edge4" class="edge">
<title>2&#45;&gt;3</title>
<path fill="none" stroke="brown" d="M1211.5,-635.22C1211.5,-608.71 1211.5,-558.54 1211.5,-526.76"/>
<polygon fill="brown" stroke="brown" points="1215,-527.09 1211.5,-517.09 1208,-527.09 1215,-527.09"/>
<text text-anchor="middle" x="1263.5" y="-572.4" font-family="Times,serif" font-size="12.00">assess_happened(org)</text>
</g>
<!-- 5 -->
<g id="node5" class="node">
<title>5</title>
<polygon fill="none" stroke="brown" stroke-width="2" points="1390,-358 1033,-358 1033,-322 1390,-322 1390,-358"/>
<text text-anchor="middle" x="1211.5" y="-336.9" font-family="Times,serif" font-size="12.00">active_rules((NotifyPdpc|&#45;&gt;org)) = 3,breached_by = {},started = TRUE</text>
</g>
<!-- 3&#45;&gt;5 -->
<g id="edge5" class="edge">
<title>3&#45;&gt;5</title>
<path fill="none" stroke="brown" d="M1211.5,-478.22C1211.5,-451.71 1211.5,-401.54 1211.5,-369.76"/>
<polygon fill="brown" stroke="brown" points="1215,-370.09 1211.5,-360.09 1208,-370.09 1215,-370.09"/>
<text text-anchor="middle" x="1278" y="-415.4" font-family="Times,serif" font-size="12.00">notify_indiv_happened(org)</text>
</g>
<!-- 9 -->
<g id="node6" class="node">
<title>9</title>
<polygon fill="none" stroke="brown" stroke-width="2" points="1413,-201 1010,-201 1010,-165 1413,-165 1413,-201"/>
<text text-anchor="middle" x="1211.5" y="-179.9" font-family="Times,serif" font-size="12.00">active_rules((ProhibitNotifyIndiv|&#45;&gt;pdpc)) = 5,breached_by = {},started = TRUE</text>
</g>
<!-- 5&#45;&gt;9 -->
<g id="edge6" class="edge">
<title>5&#45;&gt;9</title>
<path fill="none" stroke="brown" d="M1211.5,-321.22C1211.5,-294.71 1211.5,-244.54 1211.5,-212.76"/>
<polygon fill="brown" stroke="brown" points="1215,-213.09 1211.5,-203.09 1208,-213.09 1215,-213.09"/>
<text text-anchor="middle" x="1278" y="-258.4" font-family="Times,serif" font-size="12.00">notify_pdpc_happened(org)</text>
</g>
<!-- 11 -->
<g id="node7" class="node">
<title>11</title>
<polygon fill="none" stroke="brown" stroke-width="2" points="1472.88,-14.54 1472.88,-29.46 1319.77,-40 1103.23,-40 950.12,-29.46 950.12,-14.54 1103.23,-4 1319.77,-4 1472.88,-14.54"/>
<polygon fill="none" stroke="brown" stroke-width="2" points="1476.88,-10.81 1476.88,-33.19 1319.91,-44 1103.09,-44 946.12,-33.19 946.12,-10.81 1103.09,0 1319.91,0 1476.88,-10.81"/>
<text text-anchor="middle" x="1211.5" y="-18.9" font-family="Times,serif" font-size="12.00">active_rules((CannotNotifyIndiv|&#45;&gt;org)) = 5,breached_by = {},started = TRUE</text>
</g>
<!-- 9&#45;&gt;11 -->
<g id="edge7" class="edge">
<title>9&#45;&gt;11</title>
<path fill="none" stroke="brown" d="M1211.5,-164.07C1211.5,-137.96 1211.5,-89.01 1211.5,-56.21"/>
<polygon fill="brown" stroke="brown" points="1215,-56.44 1211.5,-46.44 1208,-56.44 1215,-56.44"/>
<text text-anchor="middle" x="1303.5" y="-101.4" font-family="Times,serif" font-size="12.00">prohibit_notify_indiv_happened(pdpc)</text>
</g>
<!-- root -->
<g id="node8" class="node">
<title>root</title>
<polygon fill="none" stroke="brown" stroke-width="2" points="1211.5,-1107 1254.68,-1138.5 1168.32,-1138.5 1211.5,-1107"/>
<text text-anchor="middle" x="1211.5" y="-1124.9" font-family="Times,serif" font-size="12.00">root</text>
</g>
<!-- root&#45;&gt;0 -->
<g id="edge1" class="edge">
<title>root&#45;&gt;0</title>
<path fill="none" stroke="black" stroke-dasharray="1,5" d="M1211.5,-1106.02C1211.5,-1078.3 1211.5,-1029.35 1211.5,-998.08"/>
<polygon fill="black" stroke="black" points="1215,-998.17 1211.5,-988.17 1208,-998.17 1215,-998.17"/>
<text text-anchor="middle" x="1269" y="-1043.4" font-family="Times,serif" font-size="12.00">SETUP_CONSTANTS</text>
</g>
</g>
</svg>
