<?xml version="1.0" encoding="UTF-8" standalone="no"?>
<!DOCTYPE svg PUBLIC "-//W3C//DTD SVG 1.1//EN"
 "http://www.w3.org/Graphics/SVG/1.1/DTD/svg11.dtd">
<!-- Generated by graphviz version 7.0.4 (0)
 -->
<!-- Title: history Pages: 1 -->
<svg width="3021pt" height="5883pt"
 viewBox="0.00 0.00 3020.63 5883.04" xmlns="http://www.w3.org/2000/svg" xmlns:xlink="http://www.w3.org/1999/xlink">
<g id="graph0" class="graph" transform="scale(1 1) rotate(0) translate(4 5879.04)">
<title>history</title>
<polygon fill="white" stroke="none" points="-4,4 -4,-5879.04 3016.63,-5879.04 3016.63,4 -4,4"/>
<!-- 0 -->
<g id="node1" class="node">
<title>0</title>
<polygon fill="none" stroke="brown" stroke-width="2" points="1416.31,-5712.04 1362.31,-5712.04 1362.31,-5676.04 1416.31,-5676.04 1416.31,-5712.04"/>
</g>
<!-- 1 -->
<g id="node2" class="node">
<title>1</title>
<polygon fill="none" stroke="brown" stroke-width="2" points="2366.81,-5555.04 411.81,-5555.04 411.81,-5519.04 2366.81,-5519.04 2366.81,-5555.04"/>
<text text-anchor="middle" x="1389.31" y="-5533.94" font-family="Times,serif" font-size="12.00">active_rules((RequestPrincipal|&#45;&gt;borrower)) = 1,breached_by = {},rules = {rec(deontic:COb,event:rec(initial_timer_val:1,is_preemptive:TRUE,name:request_principal),name:RequestPrincipal,possible_actors:{borrower}),rec(deontic:COb,event:rec(initial_timer_val:2,is_preemptive:TRUE,name:cure_default),name:CureDefault,possible_actors:{borrower}),rec(deontic:COb,event:rec(initial_timer_val:10,is_p...</text>
</g>
<!-- 0&#45;&gt;1 -->
<g id="edge2" class="edge">
<title>0&#45;&gt;1</title>
<path fill="none" stroke="brown" d="M1389.31,-5675.26C1389.31,-5648.75 1389.31,-5598.58 1389.31,-5566.81"/>
<polygon fill="brown" stroke="brown" points="1392.81,-5567.13 1389.31,-5557.13 1385.81,-5567.13 1392.81,-5567.13"/>
<text text-anchor="middle" x="1435.31" y="-5612.44" font-family="Times,serif" font-size="12.00">INITIALISATION</text>
</g>
<!-- 2 -->
<g id="node3" class="node">
<title>2</title>
<polygon fill="none" stroke="brown" stroke-width="2" points="2366.81,-5398.04 411.81,-5398.04 411.81,-5362.04 2366.81,-5362.04 2366.81,-5398.04"/>
<text text-anchor="middle" x="1389.31" y="-5376.94" font-family="Times,serif" font-size="12.00">active_rules((RequestPrincipal|&#45;&gt;borrower)) = 0,breached_by = {},rules = {rec(deontic:COb,event:rec(initial_timer_val:1,is_preemptive:TRUE,name:request_principal),name:RequestPrincipal,possible_actors:{borrower}),rec(deontic:COb,event:rec(initial_timer_val:2,is_preemptive:TRUE,name:cure_default),name:CureDefault,possible_actors:{borrower}),rec(deontic:COb,event:rec(initial_timer_val:10,is_p...</text>
</g>
<!-- 1&#45;&gt;2 -->
<g id="edge3" class="edge">
<title>1&#45;&gt;2</title>
<path fill="none" stroke="brown" d="M1389.31,-5518.26C1389.31,-5491.75 1389.31,-5441.58 1389.31,-5409.81"/>
<polygon fill="brown" stroke="brown" points="1392.81,-5410.13 1389.31,-5400.13 1385.81,-5410.13 1392.81,-5410.13"/>
<text text-anchor="middle" x="1398.31" y="-5455.44" font-family="Times,serif" font-size="12.00">tick</text>
</g>
<!-- 3 -->
<g id="node4" class="node">
<title>3</title>
<polygon fill="none" stroke="brown" stroke-width="2" points="2352.81,-5241.04 425.81,-5241.04 425.81,-5205.04 2352.81,-5205.04 2352.81,-5241.04"/>
<text text-anchor="middle" x="1389.31" y="-5219.94" font-family="Times,serif" font-size="12.00">active_rules((SendPrincipal|&#45;&gt;lender)) = 3,breached_by = {},rules = {rec(deontic:COb,event:rec(initial_timer_val:1,is_preemptive:TRUE,name:request_principal),name:RequestPrincipal,possible_actors:{borrower}),rec(deontic:COb,event:rec(initial_timer_val:2,is_preemptive:TRUE,name:cure_default),name:CureDefault,possible_actors:{borrower}),rec(deontic:COb,event:rec(initial_timer_val:10,is_p...</text>
</g>
<!-- 2&#45;&gt;3 -->
<g id="edge4" class="edge">
<title>2&#45;&gt;3</title>
<path fill="none" stroke="brown" d="M1389.31,-5361.26C1389.31,-5334.75 1389.31,-5284.58 1389.31,-5252.81"/>
<polygon fill="brown" stroke="brown" points="1392.81,-5253.13 1389.31,-5243.13 1385.81,-5253.13 1392.81,-5253.13"/>
<text text-anchor="middle" x="1481.31" y="-5298.44" font-family="Times,serif" font-size="12.00">request_principal_happened(borrower)</text>
</g>
<!-- 5 -->
<g id="node6" class="node">
<title>5</title>
<polygon fill="none" stroke="brown" stroke-width="2" points="2352.81,-5084.04 425.81,-5084.04 425.81,-5048.04 2352.81,-5048.04 2352.81,-5084.04"/>
<text text-anchor="middle" x="1389.31" y="-5062.94" font-family="Times,serif" font-size="12.00">active_rules((SendPrincipal|&#45;&gt;lender)) = 2,breached_by = {},rules = {rec(deontic:COb,event:rec(initial_timer_val:1,is_preemptive:TRUE,name:request_principal),name:RequestPrincipal,possible_actors:{borrower}),rec(deontic:COb,event:rec(initial_timer_val:2,is_preemptive:TRUE,name:cure_default),name:CureDefault,possible_actors:{borrower}),rec(deontic:COb,event:rec(initial_timer_val:10,is_p...</text>
</g>
<!-- 3&#45;&gt;5 -->
<g id="edge5" class="edge">
<title>3&#45;&gt;5</title>
<path fill="none" stroke="brown" d="M1389.31,-5204.26C1389.31,-5177.75 1389.31,-5127.58 1389.31,-5095.81"/>
<polygon fill="brown" stroke="brown" points="1392.81,-5096.13 1389.31,-5086.13 1385.81,-5096.13 1392.81,-5096.13"/>
<text text-anchor="middle" x="1398.31" y="-5141.44" font-family="Times,serif" font-size="12.00">tick</text>
</g>
<!-- 4 -->
<g id="node5" class="node">
<title>4</title>
<polygon fill="none" stroke="brown" stroke-width="2" points="2774.44,-19.24 2774.44,-40.81 1963.05,-56.06 815.57,-56.06 4.19,-40.81 4.19,-19.24 815.57,-3.98 1963.05,-3.98 2774.44,-19.24"/>
<polygon fill="none" stroke="brown" stroke-width="2" points="2778.44,-15.31 2778.44,-44.74 1963.09,-60.07 815.54,-60.07 0.19,-44.74 0.19,-15.31 815.54,0.02 1963.09,0.02 2778.44,-15.31"/>
<text text-anchor="middle" x="1389.31" y="-33.42" font-family="Times,serif" font-size="12.00">repeated (3)</text>
<text text-anchor="middle" x="1389.31" y="-20.42" font-family="Times,serif" font-size="12.00">active_rules = {},breached_by = {},rules = {rec(deontic:COb,event:rec(initial_timer_val:1,is_preemptive:TRUE,name:request_principal),name:RequestPrincipal,possible_actors:{borrower}),rec(deontic:COb,event:rec(initial_timer_val:2,is_preemptive:TRUE,name:cure_default),name:CureDefault,possible_actors:{borrower}),rec(deontic:COb,event:rec(initial_timer_val:10,is_p...</text>
</g>
<!-- 4&#45;&gt;4 -->
<g id="edge38" class="edge">
<title>4&#45;&gt;4</title>
<path fill="none" stroke="brown" d="M2779.12,-35.45C2846.82,-34.09 2886.63,-32.28 2886.63,-30.02 2886.63,-27.89 2851.2,-26.16 2790.35,-24.83"/>
<polygon fill="brown" stroke="brown" points="2790.7,-21.34 2780.63,-24.63 2790.56,-28.34 2790.7,-21.34"/>
<text text-anchor="middle" x="2895.63" y="-26.92" font-family="Times,serif" font-size="12.00">tick</text>
</g>
<!-- 4&#45;&gt;4 -->
<g id="edge39" class="edge">
<title>4&#45;&gt;4</title>
<path fill="none" stroke="brown" d="M2779.15,-43.69C2911.14,-40.9 2994.63,-36.34 2994.63,-30.02 2994.63,-23.89 2915.96,-19.41 2790.63,-16.61"/>
<polygon fill="brown" stroke="brown" points="2790.74,-13.11 2780.67,-16.39 2790.59,-20.11 2790.74,-13.11"/>
<text text-anchor="middle" x="3003.63" y="-26.92" font-family="Times,serif" font-size="12.00">tick</text>
</g>
<!-- 7 -->
<g id="node8" class="node">
<title>7</title>
<polygon fill="none" stroke="brown" stroke-width="2" points="2352.81,-4927.04 425.81,-4927.04 425.81,-4891.04 2352.81,-4891.04 2352.81,-4927.04"/>
<text text-anchor="middle" x="1389.31" y="-4905.94" font-family="Times,serif" font-size="12.00">active_rules((SendPrincipal|&#45;&gt;lender)) = 1,breached_by = {},rules = {rec(deontic:COb,event:rec(initial_timer_val:1,is_preemptive:TRUE,name:request_principal),name:RequestPrincipal,possible_actors:{borrower}),rec(deontic:COb,event:rec(initial_timer_val:2,is_preemptive:TRUE,name:cure_default),name:CureDefault,possible_actors:{borrower}),rec(deontic:COb,event:rec(initial_timer_val:10,is_p...</text>
</g>
<!-- 5&#45;&gt;7 -->
<g id="edge6" class="edge">
<title>5&#45;&gt;7</title>
<path fill="none" stroke="brown" d="M1389.31,-5047.26C1389.31,-5020.75 1389.31,-4970.58 1389.31,-4938.81"/>
<polygon fill="brown" stroke="brown" points="1392.81,-4939.13 1389.31,-4929.13 1385.81,-4939.13 1392.81,-4939.13"/>
<text text-anchor="middle" x="1398.31" y="-4984.44" font-family="Times,serif" font-size="12.00">tick</text>
</g>
<!-- 6 -->
<g id="node7" class="node">
<title>6</title>
<polygon fill="none" stroke="brown" stroke-width="2" points="2207.81,-4613.04 570.81,-4613.04 570.81,-4577.04 2207.81,-4577.04 2207.81,-4613.04"/>
<text text-anchor="middle" x="1389.31" y="-4598.44" font-family="Times,serif" font-size="12.00">active_rules((EventOfDefault|&#45;&gt;borrower)) = 25,active_rules((Payment1|&#45;&gt;borrower)) = 10,breached_by = {},</text>
<text text-anchor="middle" x="1389.31" y="-4585.44" font-family="Times,serif" font-size="12.00">rules = {rec(deontic:COb,event:rec(initial_timer_val:1,is_preemptive:TRUE,name:request_principal),name:RequestPrincipal,possible_actors:{borrower}),rec(deontic:COb,event:rec(initial_timer_val:2,is_preemptive:TRUE,name:cure_default),name:CureDefault,possible_actors:{borrower}),rec(deontic:COb,event:rec(initial_timer_val:10,is_p...</text>
</g>
<!-- 10 -->
<g id="node10" class="node">
<title>10</title>
<polygon fill="none" stroke="brown" stroke-width="2" points="2207.81,-4456.04 570.81,-4456.04 570.81,-4420.04 2207.81,-4420.04 2207.81,-4456.04"/>
<text text-anchor="middle" x="1389.31" y="-4441.44" font-family="Times,serif" font-size="12.00">active_rules((EventOfDefault|&#45;&gt;borrower)) = 24,active_rules((Payment1|&#45;&gt;borrower)) = 9,breached_by = {},</text>
<text text-anchor="middle" x="1389.31" y="-4428.44" font-family="Times,serif" font-size="12.00">rules = {rec(deontic:COb,event:rec(initial_timer_val:1,is_preemptive:TRUE,name:request_principal),name:RequestPrincipal,possible_actors:{borrower}),rec(deontic:COb,event:rec(initial_timer_val:2,is_preemptive:TRUE,name:cure_default),name:CureDefault,possible_actors:{borrower}),rec(deontic:COb,event:rec(initial_timer_val:10,is_p...</text>
</g>
<!-- 6&#45;&gt;10 -->
<g id="edge9" class="edge">
<title>6&#45;&gt;10</title>
<path fill="none" stroke="brown" d="M1389.31,-4576.26C1389.31,-4549.75 1389.31,-4499.58 1389.31,-4467.81"/>
<polygon fill="brown" stroke="brown" points="1392.81,-4468.13 1389.31,-4458.13 1385.81,-4468.13 1392.81,-4468.13"/>
<text text-anchor="middle" x="1398.31" y="-4513.44" font-family="Times,serif" font-size="12.00">tick</text>
</g>
<!-- 8 -->
<g id="node9" class="node">
<title>8</title>
<polygon fill="none" stroke="brown" stroke-width="2" points="2352.81,-4770.04 425.81,-4770.04 425.81,-4734.04 2352.81,-4734.04 2352.81,-4770.04"/>
<text text-anchor="middle" x="1389.31" y="-4748.94" font-family="Times,serif" font-size="12.00">active_rules((SendPrincipal|&#45;&gt;lender)) = 0,breached_by = {},rules = {rec(deontic:COb,event:rec(initial_timer_val:1,is_preemptive:TRUE,name:request_principal),name:RequestPrincipal,possible_actors:{borrower}),rec(deontic:COb,event:rec(initial_timer_val:2,is_preemptive:TRUE,name:cure_default),name:CureDefault,possible_actors:{borrower}),rec(deontic:COb,event:rec(initial_timer_val:10,is_p...</text>
</g>
<!-- 7&#45;&gt;8 -->
<g id="edge7" class="edge">
<title>7&#45;&gt;8</title>
<path fill="none" stroke="brown" d="M1389.31,-4890.26C1389.31,-4863.75 1389.31,-4813.58 1389.31,-4781.81"/>
<polygon fill="brown" stroke="brown" points="1392.81,-4782.13 1389.31,-4772.13 1385.81,-4782.13 1392.81,-4782.13"/>
<text text-anchor="middle" x="1398.31" y="-4827.44" font-family="Times,serif" font-size="12.00">tick</text>
</g>
<!-- 8&#45;&gt;6 -->
<g id="edge8" class="edge">
<title>8&#45;&gt;6</title>
<path fill="none" stroke="brown" d="M1389.31,-4733.26C1389.31,-4706.75 1389.31,-4656.58 1389.31,-4624.81"/>
<polygon fill="brown" stroke="brown" points="1392.81,-4625.13 1389.31,-4615.13 1385.81,-4625.13 1392.81,-4625.13"/>
<text text-anchor="middle" x="1468.31" y="-4670.44" font-family="Times,serif" font-size="12.00">send_principal_happened(lender)</text>
</g>
<!-- 12 -->
<g id="node11" class="node">
<title>12</title>
<polygon fill="none" stroke="brown" stroke-width="2" points="2207.81,-4299.04 570.81,-4299.04 570.81,-4263.04 2207.81,-4263.04 2207.81,-4299.04"/>
<text text-anchor="middle" x="1389.31" y="-4284.44" font-family="Times,serif" font-size="12.00">active_rules((EventOfDefault|&#45;&gt;borrower)) = 23,active_rules((Payment1|&#45;&gt;borrower)) = 8,breached_by = {},</text>
<text text-anchor="middle" x="1389.31" y="-4271.44" font-family="Times,serif" font-size="12.00">rules = {rec(deontic:COb,event:rec(initial_timer_val:1,is_preemptive:TRUE,name:request_principal),name:RequestPrincipal,possible_actors:{borrower}),rec(deontic:COb,event:rec(initial_timer_val:2,is_preemptive:TRUE,name:cure_default),name:CureDefault,possible_actors:{borrower}),rec(deontic:COb,event:rec(initial_timer_val:10,is_p...</text>
</g>
<!-- 10&#45;&gt;12 -->
<g id="edge10" class="edge">
<title>10&#45;&gt;12</title>
<path fill="none" stroke="brown" d="M1389.31,-4419.26C1389.31,-4392.75 1389.31,-4342.58 1389.31,-4310.81"/>
<polygon fill="brown" stroke="brown" points="1392.81,-4311.13 1389.31,-4301.13 1385.81,-4311.13 1392.81,-4311.13"/>
<text text-anchor="middle" x="1398.31" y="-4356.44" font-family="Times,serif" font-size="12.00">tick</text>
</g>
<!-- 16 -->
<g id="node12" class="node">
<title>16</title>
<polygon fill="none" stroke="brown" stroke-width="2" points="2207.81,-4142.04 570.81,-4142.04 570.81,-4106.04 2207.81,-4106.04 2207.81,-4142.04"/>
<text text-anchor="middle" x="1389.31" y="-4127.44" font-family="Times,serif" font-size="12.00">active_rules((EventOfDefault|&#45;&gt;borrower)) = 22,active_rules((Payment1|&#45;&gt;borrower)) = 7,breached_by = {},</text>
<text text-anchor="middle" x="1389.31" y="-4114.44" font-family="Times,serif" font-size="12.00">rules = {rec(deontic:COb,event:rec(initial_timer_val:1,is_preemptive:TRUE,name:request_principal),name:RequestPrincipal,possible_actors:{borrower}),rec(deontic:COb,event:rec(initial_timer_val:2,is_preemptive:TRUE,name:cure_default),name:CureDefault,possible_actors:{borrower}),rec(deontic:COb,event:rec(initial_timer_val:10,is_p...</text>
</g>
<!-- 12&#45;&gt;16 -->
<g id="edge11" class="edge">
<title>12&#45;&gt;16</title>
<path fill="none" stroke="brown" d="M1389.31,-4262.26C1389.31,-4235.75 1389.31,-4185.58 1389.31,-4153.81"/>
<polygon fill="brown" stroke="brown" points="1392.81,-4154.13 1389.31,-4144.13 1385.81,-4154.13 1392.81,-4154.13"/>
<text text-anchor="middle" x="1398.31" y="-4199.44" font-family="Times,serif" font-size="12.00">tick</text>
</g>
<!-- 20 -->
<g id="node13" class="node">
<title>20</title>
<polygon fill="none" stroke="brown" stroke-width="2" points="2207.81,-3985.04 570.81,-3985.04 570.81,-3949.04 2207.81,-3949.04 2207.81,-3985.04"/>
<text text-anchor="middle" x="1389.31" y="-3970.44" font-family="Times,serif" font-size="12.00">active_rules((EventOfDefault|&#45;&gt;borrower)) = 21,active_rules((Payment1|&#45;&gt;borrower)) = 6,breached_by = {},</text>
<text text-anchor="middle" x="1389.31" y="-3957.44" font-family="Times,serif" font-size="12.00">rules = {rec(deontic:COb,event:rec(initial_timer_val:1,is_preemptive:TRUE,name:request_principal),name:RequestPrincipal,possible_actors:{borrower}),rec(deontic:COb,event:rec(initial_timer_val:2,is_preemptive:TRUE,name:cure_default),name:CureDefault,possible_actors:{borrower}),rec(deontic:COb,event:rec(initial_timer_val:10,is_p...</text>
</g>
<!-- 16&#45;&gt;20 -->
<g id="edge12" class="edge">
<title>16&#45;&gt;20</title>
<path fill="none" stroke="brown" d="M1389.31,-4105.26C1389.31,-4078.75 1389.31,-4028.58 1389.31,-3996.81"/>
<polygon fill="brown" stroke="brown" points="1392.81,-3997.13 1389.31,-3987.13 1385.81,-3997.13 1392.81,-3997.13"/>
<text text-anchor="middle" x="1398.31" y="-4042.44" font-family="Times,serif" font-size="12.00">tick</text>
</g>
<!-- 24 -->
<g id="node14" class="node">
<title>24</title>
<polygon fill="none" stroke="brown" stroke-width="2" points="2207.81,-3828.04 570.81,-3828.04 570.81,-3792.04 2207.81,-3792.04 2207.81,-3828.04"/>
<text text-anchor="middle" x="1389.31" y="-3813.44" font-family="Times,serif" font-size="12.00">active_rules((EventOfDefault|&#45;&gt;borrower)) = 20,active_rules((Payment1|&#45;&gt;borrower)) = 5,breached_by = {},</text>
<text text-anchor="middle" x="1389.31" y="-3800.44" font-family="Times,serif" font-size="12.00">rules = {rec(deontic:COb,event:rec(initial_timer_val:1,is_preemptive:TRUE,name:request_principal),name:RequestPrincipal,possible_actors:{borrower}),rec(deontic:COb,event:rec(initial_timer_val:2,is_preemptive:TRUE,name:cure_default),name:CureDefault,possible_actors:{borrower}),rec(deontic:COb,event:rec(initial_timer_val:10,is_p...</text>
</g>
<!-- 20&#45;&gt;24 -->
<g id="edge13" class="edge">
<title>20&#45;&gt;24</title>
<path fill="none" stroke="brown" d="M1389.31,-3948.26C1389.31,-3921.75 1389.31,-3871.58 1389.31,-3839.81"/>
<polygon fill="brown" stroke="brown" points="1392.81,-3840.13 1389.31,-3830.13 1385.81,-3840.13 1392.81,-3840.13"/>
<text text-anchor="middle" x="1398.31" y="-3885.44" font-family="Times,serif" font-size="12.00">tick</text>
</g>
<!-- 28 -->
<g id="node15" class="node">
<title>28</title>
<polygon fill="none" stroke="brown" stroke-width="2" points="2207.81,-3671.04 570.81,-3671.04 570.81,-3635.04 2207.81,-3635.04 2207.81,-3671.04"/>
<text text-anchor="middle" x="1389.31" y="-3656.44" font-family="Times,serif" font-size="12.00">active_rules((EventOfDefault|&#45;&gt;borrower)) = 19,active_rules((Payment1|&#45;&gt;borrower)) = 4,breached_by = {},</text>
<text text-anchor="middle" x="1389.31" y="-3643.44" font-family="Times,serif" font-size="12.00">rules = {rec(deontic:COb,event:rec(initial_timer_val:1,is_preemptive:TRUE,name:request_principal),name:RequestPrincipal,possible_actors:{borrower}),rec(deontic:COb,event:rec(initial_timer_val:2,is_preemptive:TRUE,name:cure_default),name:CureDefault,possible_actors:{borrower}),rec(deontic:COb,event:rec(initial_timer_val:10,is_p...</text>
</g>
<!-- 24&#45;&gt;28 -->
<g id="edge14" class="edge">
<title>24&#45;&gt;28</title>
<path fill="none" stroke="brown" d="M1389.31,-3791.26C1389.31,-3764.75 1389.31,-3714.58 1389.31,-3682.81"/>
<polygon fill="brown" stroke="brown" points="1392.81,-3683.13 1389.31,-3673.13 1385.81,-3683.13 1392.81,-3683.13"/>
<text text-anchor="middle" x="1398.31" y="-3728.44" font-family="Times,serif" font-size="12.00">tick</text>
</g>
<!-- 32 -->
<g id="node16" class="node">
<title>32</title>
<polygon fill="none" stroke="brown" stroke-width="2" points="2207.81,-3514.04 570.81,-3514.04 570.81,-3478.04 2207.81,-3478.04 2207.81,-3514.04"/>
<text text-anchor="middle" x="1389.31" y="-3499.44" font-family="Times,serif" font-size="12.00">active_rules((EventOfDefault|&#45;&gt;borrower)) = 18,active_rules((Payment1|&#45;&gt;borrower)) = 3,breached_by = {},</text>
<text text-anchor="middle" x="1389.31" y="-3486.44" font-family="Times,serif" font-size="12.00">rules = {rec(deontic:COb,event:rec(initial_timer_val:1,is_preemptive:TRUE,name:request_principal),name:RequestPrincipal,possible_actors:{borrower}),rec(deontic:COb,event:rec(initial_timer_val:2,is_preemptive:TRUE,name:cure_default),name:CureDefault,possible_actors:{borrower}),rec(deontic:COb,event:rec(initial_timer_val:10,is_p...</text>
</g>
<!-- 28&#45;&gt;32 -->
<g id="edge15" class="edge">
<title>28&#45;&gt;32</title>
<path fill="none" stroke="brown" d="M1389.31,-3634.26C1389.31,-3607.75 1389.31,-3557.58 1389.31,-3525.81"/>
<polygon fill="brown" stroke="brown" points="1392.81,-3526.13 1389.31,-3516.13 1385.81,-3526.13 1392.81,-3526.13"/>
<text text-anchor="middle" x="1398.31" y="-3571.44" font-family="Times,serif" font-size="12.00">tick</text>
</g>
<!-- 36 -->
<g id="node17" class="node">
<title>36</title>
<polygon fill="none" stroke="brown" stroke-width="2" points="2207.81,-3357.04 570.81,-3357.04 570.81,-3321.04 2207.81,-3321.04 2207.81,-3357.04"/>
<text text-anchor="middle" x="1389.31" y="-3342.44" font-family="Times,serif" font-size="12.00">active_rules((EventOfDefault|&#45;&gt;borrower)) = 17,active_rules((Payment1|&#45;&gt;borrower)) = 2,breached_by = {},</text>
<text text-anchor="middle" x="1389.31" y="-3329.44" font-family="Times,serif" font-size="12.00">rules = {rec(deontic:COb,event:rec(initial_timer_val:1,is_preemptive:TRUE,name:request_principal),name:RequestPrincipal,possible_actors:{borrower}),rec(deontic:COb,event:rec(initial_timer_val:2,is_preemptive:TRUE,name:cure_default),name:CureDefault,possible_actors:{borrower}),rec(deontic:COb,event:rec(initial_timer_val:10,is_p...</text>
</g>
<!-- 32&#45;&gt;36 -->
<g id="edge16" class="edge">
<title>32&#45;&gt;36</title>
<path fill="none" stroke="brown" d="M1389.31,-3477.26C1389.31,-3450.75 1389.31,-3400.58 1389.31,-3368.81"/>
<polygon fill="brown" stroke="brown" points="1392.81,-3369.13 1389.31,-3359.13 1385.81,-3369.13 1392.81,-3369.13"/>
<text text-anchor="middle" x="1398.31" y="-3414.44" font-family="Times,serif" font-size="12.00">tick</text>
</g>
<!-- 40 -->
<g id="node18" class="node">
<title>40</title>
<polygon fill="none" stroke="brown" stroke-width="2" points="2207.81,-3200.04 570.81,-3200.04 570.81,-3164.04 2207.81,-3164.04 2207.81,-3200.04"/>
<text text-anchor="middle" x="1389.31" y="-3185.44" font-family="Times,serif" font-size="12.00">active_rules((EventOfDefault|&#45;&gt;borrower)) = 16,active_rules((Payment1|&#45;&gt;borrower)) = 1,breached_by = {},</text>
<text text-anchor="middle" x="1389.31" y="-3172.44" font-family="Times,serif" font-size="12.00">rules = {rec(deontic:COb,event:rec(initial_timer_val:1,is_preemptive:TRUE,name:request_principal),name:RequestPrincipal,possible_actors:{borrower}),rec(deontic:COb,event:rec(initial_timer_val:2,is_preemptive:TRUE,name:cure_default),name:CureDefault,possible_actors:{borrower}),rec(deontic:COb,event:rec(initial_timer_val:10,is_p...</text>
</g>
<!-- 36&#45;&gt;40 -->
<g id="edge17" class="edge">
<title>36&#45;&gt;40</title>
<path fill="none" stroke="brown" d="M1389.31,-3320.26C1389.31,-3293.75 1389.31,-3243.58 1389.31,-3211.81"/>
<polygon fill="brown" stroke="brown" points="1392.81,-3212.13 1389.31,-3202.13 1385.81,-3212.13 1392.81,-3212.13"/>
<text text-anchor="middle" x="1398.31" y="-3257.44" font-family="Times,serif" font-size="12.00">tick</text>
</g>
<!-- 44 -->
<g id="node19" class="node">
<title>44</title>
<polygon fill="none" stroke="brown" stroke-width="2" points="2207.81,-3043.04 570.81,-3043.04 570.81,-3007.04 2207.81,-3007.04 2207.81,-3043.04"/>
<text text-anchor="middle" x="1389.31" y="-3028.44" font-family="Times,serif" font-size="12.00">active_rules((EventOfDefault|&#45;&gt;borrower)) = 15,active_rules((Payment1|&#45;&gt;borrower)) = 0,breached_by = {},</text>
<text text-anchor="middle" x="1389.31" y="-3015.44" font-family="Times,serif" font-size="12.00">rules = {rec(deontic:COb,event:rec(initial_timer_val:1,is_preemptive:TRUE,name:request_principal),name:RequestPrincipal,possible_actors:{borrower}),rec(deontic:COb,event:rec(initial_timer_val:2,is_preemptive:TRUE,name:cure_default),name:CureDefault,possible_actors:{borrower}),rec(deontic:COb,event:rec(initial_timer_val:10,is_p...</text>
</g>
<!-- 40&#45;&gt;44 -->
<g id="edge18" class="edge">
<title>40&#45;&gt;44</title>
<path fill="none" stroke="brown" d="M1389.31,-3163.26C1389.31,-3136.75 1389.31,-3086.58 1389.31,-3054.81"/>
<polygon fill="brown" stroke="brown" points="1392.81,-3055.13 1389.31,-3045.13 1385.81,-3055.13 1392.81,-3055.13"/>
<text text-anchor="middle" x="1398.31" y="-3100.44" font-family="Times,serif" font-size="12.00">tick</text>
</g>
<!-- 49 -->
<g id="node20" class="node">
<title>49</title>
<polygon fill="none" stroke="brown" stroke-width="2" points="2252.31,-2886.04 526.31,-2886.04 526.31,-2850.04 2252.31,-2850.04 2252.31,-2886.04"/>
<text text-anchor="middle" x="1389.31" y="-2871.44" font-family="Times,serif" font-size="12.00">active_rules((EventOfDefault|&#45;&gt;borrower)) = 15,active_rules((NotifyBorrower|&#45;&gt;lender)) = 3,active_rules((Payment2|&#45;&gt;borrower)) = 10,</text>
<text text-anchor="middle" x="1389.31" y="-2858.44" font-family="Times,serif" font-size="12.00">breached_by = {},rules = {rec(deontic:COb,event:rec(initial_timer_val:1,is_preemptive:TRUE,name:request_principal),name:RequestPrincipal,possible_actors:{borrower}),rec(deontic:COb,event:rec(initial_timer_val:2,is_preemptive:TRUE,name:cure_default),name:CureDefault,possible_actors:{borrower}),rec(deontic:COb,event:rec(initial_timer_val:10,is_p...</text>
</g>
<!-- 44&#45;&gt;49 -->
<g id="edge19" class="edge">
<title>44&#45;&gt;49</title>
<path fill="none" stroke="brown" d="M1389.31,-3006.26C1389.31,-2979.75 1389.31,-2929.58 1389.31,-2897.81"/>
<polygon fill="brown" stroke="brown" points="1392.81,-2898.13 1389.31,-2888.13 1385.81,-2898.13 1392.81,-2898.13"/>
<text text-anchor="middle" x="1458.81" y="-2943.44" font-family="Times,serif" font-size="12.00">payment1_timeout(borrower)</text>
</g>
<!-- 53 -->
<g id="node21" class="node">
<title>53</title>
<polygon fill="none" stroke="brown" stroke-width="2" points="2252.31,-2729.04 526.31,-2729.04 526.31,-2693.04 2252.31,-2693.04 2252.31,-2729.04"/>
<text text-anchor="middle" x="1389.31" y="-2714.44" font-family="Times,serif" font-size="12.00">active_rules((EventOfDefault|&#45;&gt;borrower)) = 14,active_rules((NotifyBorrower|&#45;&gt;lender)) = 2,active_rules((Payment2|&#45;&gt;borrower)) = 9,</text>
<text text-anchor="middle" x="1389.31" y="-2701.44" font-family="Times,serif" font-size="12.00">breached_by = {},rules = {rec(deontic:COb,event:rec(initial_timer_val:1,is_preemptive:TRUE,name:request_principal),name:RequestPrincipal,possible_actors:{borrower}),rec(deontic:COb,event:rec(initial_timer_val:2,is_preemptive:TRUE,name:cure_default),name:CureDefault,possible_actors:{borrower}),rec(deontic:COb,event:rec(initial_timer_val:10,is_p...</text>
</g>
<!-- 49&#45;&gt;53 -->
<g id="edge20" class="edge">
<title>49&#45;&gt;53</title>
<path fill="none" stroke="brown" d="M1389.31,-2849.26C1389.31,-2822.75 1389.31,-2772.58 1389.31,-2740.81"/>
<polygon fill="brown" stroke="brown" points="1392.81,-2741.13 1389.31,-2731.13 1385.81,-2741.13 1392.81,-2741.13"/>
<text text-anchor="middle" x="1398.31" y="-2786.44" font-family="Times,serif" font-size="12.00">tick</text>
</g>
<!-- 57 -->
<g id="node22" class="node">
<title>57</title>
<polygon fill="none" stroke="brown" stroke-width="2" points="2252.31,-2572.04 526.31,-2572.04 526.31,-2536.04 2252.31,-2536.04 2252.31,-2572.04"/>
<text text-anchor="middle" x="1389.31" y="-2557.44" font-family="Times,serif" font-size="12.00">active_rules((EventOfDefault|&#45;&gt;borrower)) = 13,active_rules((NotifyBorrower|&#45;&gt;lender)) = 1,active_rules((Payment2|&#45;&gt;borrower)) = 8,</text>
<text text-anchor="middle" x="1389.31" y="-2544.44" font-family="Times,serif" font-size="12.00">breached_by = {},rules = {rec(deontic:COb,event:rec(initial_timer_val:1,is_preemptive:TRUE,name:request_principal),name:RequestPrincipal,possible_actors:{borrower}),rec(deontic:COb,event:rec(initial_timer_val:2,is_preemptive:TRUE,name:cure_default),name:CureDefault,possible_actors:{borrower}),rec(deontic:COb,event:rec(initial_timer_val:10,is_p...</text>
</g>
<!-- 53&#45;&gt;57 -->
<g id="edge21" class="edge">
<title>53&#45;&gt;57</title>
<path fill="none" stroke="brown" d="M1389.31,-2692.26C1389.31,-2665.75 1389.31,-2615.58 1389.31,-2583.81"/>
<polygon fill="brown" stroke="brown" points="1392.81,-2584.13 1389.31,-2574.13 1385.81,-2584.13 1392.81,-2584.13"/>
<text text-anchor="middle" x="1398.31" y="-2629.44" font-family="Times,serif" font-size="12.00">tick</text>
</g>
<!-- 64 -->
<g id="node23" class="node">
<title>64</title>
<polygon fill="none" stroke="brown" stroke-width="2" points="2252.31,-2415.04 526.31,-2415.04 526.31,-2379.04 2252.31,-2379.04 2252.31,-2415.04"/>
<text text-anchor="middle" x="1389.31" y="-2400.44" font-family="Times,serif" font-size="12.00">active_rules((EventOfDefault|&#45;&gt;borrower)) = 12,active_rules((NotifyBorrower|&#45;&gt;lender)) = 0,active_rules((Payment2|&#45;&gt;borrower)) = 7,</text>
<text text-anchor="middle" x="1389.31" y="-2387.44" font-family="Times,serif" font-size="12.00">breached_by = {},rules = {rec(deontic:COb,event:rec(initial_timer_val:1,is_preemptive:TRUE,name:request_principal),name:RequestPrincipal,possible_actors:{borrower}),rec(deontic:COb,event:rec(initial_timer_val:2,is_preemptive:TRUE,name:cure_default),name:CureDefault,possible_actors:{borrower}),rec(deontic:COb,event:rec(initial_timer_val:10,is_p...</text>
</g>
<!-- 57&#45;&gt;64 -->
<g id="edge22" class="edge">
<title>57&#45;&gt;64</title>
<path fill="none" stroke="brown" d="M1389.31,-2535.26C1389.31,-2508.75 1389.31,-2458.58 1389.31,-2426.81"/>
<polygon fill="brown" stroke="brown" points="1392.81,-2427.13 1389.31,-2417.13 1385.81,-2427.13 1392.81,-2427.13"/>
<text text-anchor="middle" x="1398.31" y="-2472.44" font-family="Times,serif" font-size="12.00">tick</text>
</g>
<!-- 72 -->
<g id="node24" class="node">
<title>72</title>
<polygon fill="none" stroke="brown" stroke-width="2" points="2506.81,-2258.04 271.81,-2258.04 271.81,-2222.04 2506.81,-2222.04 2506.81,-2258.04"/>
<text text-anchor="middle" x="1389.31" y="-2236.94" font-family="Times,serif" font-size="12.00">active_rules = {(NotifyBorrower|&#45;&gt;lender|&#45;&gt;0),(NotifyBorrower|&#45;&gt;lender|&#45;&gt;3),(Payment2|&#45;&gt;borrower|&#45;&gt;7)},breached_by = {},rules = {rec(deontic:COb,event:rec(initial_timer_val:1,is_preemptive:TRUE,name:request_principal),name:RequestPrincipal,possible_actors:{borrower}),rec(deontic:COb,event:rec(initial_timer_val:2,is_preemptive:TRUE,name:cure_default),name:CureDefault,possible_actors:{borrower}),rec(deontic:COb,event:rec(initial_timer_val:10,is_p...</text>
</g>
<!-- 64&#45;&gt;72 -->
<g id="edge23" class="edge">
<title>64&#45;&gt;72</title>
<path fill="none" stroke="brown" d="M1389.31,-2378.26C1389.31,-2351.75 1389.31,-2301.58 1389.31,-2269.81"/>
<polygon fill="brown" stroke="brown" points="1392.81,-2270.13 1389.31,-2260.13 1385.81,-2270.13 1392.81,-2270.13"/>
<text text-anchor="middle" x="1480.81" y="-2315.44" font-family="Times,serif" font-size="12.00">event_of_default_happened(borrower)</text>
</g>
<!-- 81 -->
<g id="node25" class="node">
<title>81</title>
<polygon fill="none" stroke="brown" stroke-width="2" points="2207.81,-2101.04 570.81,-2101.04 570.81,-2065.04 2207.81,-2065.04 2207.81,-2101.04"/>
<text text-anchor="middle" x="1389.31" y="-2086.44" font-family="Times,serif" font-size="12.00">active_rules((NotifyBorrower|&#45;&gt;lender)) = 3,active_rules((Payment2|&#45;&gt;borrower)) = 7,breached_by = {},</text>
<text text-anchor="middle" x="1389.31" y="-2073.44" font-family="Times,serif" font-size="12.00">rules = {rec(deontic:COb,event:rec(initial_timer_val:1,is_preemptive:TRUE,name:request_principal),name:RequestPrincipal,possible_actors:{borrower}),rec(deontic:COb,event:rec(initial_timer_val:2,is_preemptive:TRUE,name:cure_default),name:CureDefault,possible_actors:{borrower}),rec(deontic:COb,event:rec(initial_timer_val:10,is_p...</text>
</g>
<!-- 72&#45;&gt;81 -->
<g id="edge24" class="edge">
<title>72&#45;&gt;81</title>
<path fill="none" stroke="brown" d="M1389.31,-2221.26C1389.31,-2194.75 1389.31,-2144.58 1389.31,-2112.81"/>
<polygon fill="brown" stroke="brown" points="1392.81,-2113.13 1389.31,-2103.13 1385.81,-2113.13 1392.81,-2113.13"/>
<text text-anchor="middle" x="1467.31" y="-2158.44" font-family="Times,serif" font-size="12.00">notify_borrower_timeout(lender)</text>
</g>
<!-- 87 -->
<g id="node26" class="node">
<title>87</title>
<polygon fill="none" stroke="brown" stroke-width="2" points="2207.81,-1944.04 570.81,-1944.04 570.81,-1908.04 2207.81,-1908.04 2207.81,-1944.04"/>
<text text-anchor="middle" x="1389.31" y="-1929.44" font-family="Times,serif" font-size="12.00">active_rules((NotifyBorrower|&#45;&gt;lender)) = 2,active_rules((Payment2|&#45;&gt;borrower)) = 6,breached_by = {},</text>
<text text-anchor="middle" x="1389.31" y="-1916.44" font-family="Times,serif" font-size="12.00">rules = {rec(deontic:COb,event:rec(initial_timer_val:1,is_preemptive:TRUE,name:request_principal),name:RequestPrincipal,possible_actors:{borrower}),rec(deontic:COb,event:rec(initial_timer_val:2,is_preemptive:TRUE,name:cure_default),name:CureDefault,possible_actors:{borrower}),rec(deontic:COb,event:rec(initial_timer_val:10,is_p...</text>
</g>
<!-- 81&#45;&gt;87 -->
<g id="edge25" class="edge">
<title>81&#45;&gt;87</title>
<path fill="none" stroke="brown" d="M1389.31,-2064.26C1389.31,-2037.75 1389.31,-1987.58 1389.31,-1955.81"/>
<polygon fill="brown" stroke="brown" points="1392.81,-1956.13 1389.31,-1946.13 1385.81,-1956.13 1392.81,-1956.13"/>
<text text-anchor="middle" x="1398.31" y="-2001.44" font-family="Times,serif" font-size="12.00">tick</text>
</g>
<!-- 94 -->
<g id="node27" class="node">
<title>94</title>
<polygon fill="none" stroke="brown" stroke-width="2" points="2207.81,-1787.04 570.81,-1787.04 570.81,-1751.04 2207.81,-1751.04 2207.81,-1787.04"/>
<text text-anchor="middle" x="1389.31" y="-1772.44" font-family="Times,serif" font-size="12.00">active_rules((NotifyBorrower|&#45;&gt;lender)) = 1,active_rules((Payment2|&#45;&gt;borrower)) = 5,breached_by = {},</text>
<text text-anchor="middle" x="1389.31" y="-1759.44" font-family="Times,serif" font-size="12.00">rules = {rec(deontic:COb,event:rec(initial_timer_val:1,is_preemptive:TRUE,name:request_principal),name:RequestPrincipal,possible_actors:{borrower}),rec(deontic:COb,event:rec(initial_timer_val:2,is_preemptive:TRUE,name:cure_default),name:CureDefault,possible_actors:{borrower}),rec(deontic:COb,event:rec(initial_timer_val:10,is_p...</text>
</g>
<!-- 87&#45;&gt;94 -->
<g id="edge26" class="edge">
<title>87&#45;&gt;94</title>
<path fill="none" stroke="brown" d="M1389.31,-1907.26C1389.31,-1880.75 1389.31,-1830.58 1389.31,-1798.81"/>
<polygon fill="brown" stroke="brown" points="1392.81,-1799.13 1389.31,-1789.13 1385.81,-1799.13 1392.81,-1799.13"/>
<text text-anchor="middle" x="1398.31" y="-1844.44" font-family="Times,serif" font-size="12.00">tick</text>
</g>
<!-- 96 -->
<g id="node28" class="node">
<title>96</title>
<polygon fill="none" stroke="brown" stroke-width="2" points="2207.81,-1630.04 570.81,-1630.04 570.81,-1594.04 2207.81,-1594.04 2207.81,-1630.04"/>
<text text-anchor="middle" x="1389.31" y="-1615.44" font-family="Times,serif" font-size="12.00">active_rules((NotifyBorrower|&#45;&gt;lender)) = 0,active_rules((Payment2|&#45;&gt;borrower)) = 4,breached_by = {},</text>
<text text-anchor="middle" x="1389.31" y="-1602.44" font-family="Times,serif" font-size="12.00">rules = {rec(deontic:COb,event:rec(initial_timer_val:1,is_preemptive:TRUE,name:request_principal),name:RequestPrincipal,possible_actors:{borrower}),rec(deontic:COb,event:rec(initial_timer_val:2,is_preemptive:TRUE,name:cure_default),name:CureDefault,possible_actors:{borrower}),rec(deontic:COb,event:rec(initial_timer_val:10,is_p...</text>
</g>
<!-- 94&#45;&gt;96 -->
<g id="edge27" class="edge">
<title>94&#45;&gt;96</title>
<path fill="none" stroke="brown" d="M1389.31,-1750.26C1389.31,-1723.75 1389.31,-1673.58 1389.31,-1641.81"/>
<polygon fill="brown" stroke="brown" points="1392.81,-1642.13 1389.31,-1632.13 1385.81,-1642.13 1392.81,-1642.13"/>
<text text-anchor="middle" x="1398.31" y="-1687.44" font-family="Times,serif" font-size="12.00">tick</text>
</g>
<!-- 100 -->
<g id="node29" class="node">
<title>100</title>
<polygon fill="none" stroke="brown" stroke-width="2" points="2350.31,-1473.04 428.31,-1473.04 428.31,-1437.04 2350.31,-1437.04 2350.31,-1473.04"/>
<text text-anchor="middle" x="1389.31" y="-1451.94" font-family="Times,serif" font-size="12.00">active_rules((Payment2|&#45;&gt;borrower)) = 4,breached_by = {},rules = {rec(deontic:COb,event:rec(initial_timer_val:1,is_preemptive:TRUE,name:request_principal),name:RequestPrincipal,possible_actors:{borrower}),rec(deontic:COb,event:rec(initial_timer_val:2,is_preemptive:TRUE,name:cure_default),name:CureDefault,possible_actors:{borrower}),rec(deontic:COb,event:rec(initial_timer_val:10,is_p...</text>
</g>
<!-- 96&#45;&gt;100 -->
<g id="edge28" class="edge">
<title>96&#45;&gt;100</title>
<path fill="none" stroke="brown" d="M1389.31,-1593.26C1389.31,-1566.75 1389.31,-1516.58 1389.31,-1484.81"/>
<polygon fill="brown" stroke="brown" points="1392.81,-1485.13 1389.31,-1475.13 1385.81,-1485.13 1392.81,-1485.13"/>
<text text-anchor="middle" x="1467.31" y="-1530.44" font-family="Times,serif" font-size="12.00">notify_borrower_timeout(lender)</text>
</g>
<!-- 103 -->
<g id="node30" class="node">
<title>103</title>
<polygon fill="none" stroke="brown" stroke-width="2" points="2350.31,-1316.04 428.31,-1316.04 428.31,-1280.04 2350.31,-1280.04 2350.31,-1316.04"/>
<text text-anchor="middle" x="1389.31" y="-1294.94" font-family="Times,serif" font-size="12.00">active_rules((Payment2|&#45;&gt;borrower)) = 3,breached_by = {},rules = {rec(deontic:COb,event:rec(initial_timer_val:1,is_preemptive:TRUE,name:request_principal),name:RequestPrincipal,possible_actors:{borrower}),rec(deontic:COb,event:rec(initial_timer_val:2,is_preemptive:TRUE,name:cure_default),name:CureDefault,possible_actors:{borrower}),rec(deontic:COb,event:rec(initial_timer_val:10,is_p...</text>
</g>
<!-- 100&#45;&gt;103 -->
<g id="edge29" class="edge">
<title>100&#45;&gt;103</title>
<path fill="none" stroke="brown" d="M1389.31,-1436.26C1389.31,-1409.75 1389.31,-1359.58 1389.31,-1327.81"/>
<polygon fill="brown" stroke="brown" points="1392.81,-1328.13 1389.31,-1318.13 1385.81,-1328.13 1392.81,-1328.13"/>
<text text-anchor="middle" x="1398.31" y="-1373.44" font-family="Times,serif" font-size="12.00">tick</text>
</g>
<!-- 105 -->
<g id="node31" class="node">
<title>105</title>
<polygon fill="none" stroke="brown" stroke-width="2" points="2350.31,-1159.04 428.31,-1159.04 428.31,-1123.04 2350.31,-1123.04 2350.31,-1159.04"/>
<text text-anchor="middle" x="1389.31" y="-1137.94" font-family="Times,serif" font-size="12.00">active_rules((Payment2|&#45;&gt;borrower)) = 2,breached_by = {},rules = {rec(deontic:COb,event:rec(initial_timer_val:1,is_preemptive:TRUE,name:request_principal),name:RequestPrincipal,possible_actors:{borrower}),rec(deontic:COb,event:rec(initial_timer_val:2,is_preemptive:TRUE,name:cure_default),name:CureDefault,possible_actors:{borrower}),rec(deontic:COb,event:rec(initial_timer_val:10,is_p...</text>
</g>
<!-- 103&#45;&gt;105 -->
<g id="edge30" class="edge">
<title>103&#45;&gt;105</title>
<path fill="none" stroke="brown" d="M1389.31,-1279.26C1389.31,-1252.75 1389.31,-1202.58 1389.31,-1170.81"/>
<polygon fill="brown" stroke="brown" points="1392.81,-1171.13 1389.31,-1161.13 1385.81,-1171.13 1392.81,-1171.13"/>
<text text-anchor="middle" x="1398.31" y="-1216.44" font-family="Times,serif" font-size="12.00">tick</text>
</g>
<!-- 106 -->
<g id="node32" class="node">
<title>106</title>
<polygon fill="none" stroke="brown" stroke-width="2" points="2350.31,-1002.04 428.31,-1002.04 428.31,-966.04 2350.31,-966.04 2350.31,-1002.04"/>
<text text-anchor="middle" x="1389.31" y="-980.94" font-family="Times,serif" font-size="12.00">active_rules((Payment2|&#45;&gt;borrower)) = 1,breached_by = {},rules = {rec(deontic:COb,event:rec(initial_timer_val:1,is_preemptive:TRUE,name:request_principal),name:RequestPrincipal,possible_actors:{borrower}),rec(deontic:COb,event:rec(initial_timer_val:2,is_preemptive:TRUE,name:cure_default),name:CureDefault,possible_actors:{borrower}),rec(deontic:COb,event:rec(initial_timer_val:10,is_p...</text>
</g>
<!-- 105&#45;&gt;106 -->
<g id="edge31" class="edge">
<title>105&#45;&gt;106</title>
<path fill="none" stroke="brown" d="M1389.31,-1122.26C1389.31,-1095.75 1389.31,-1045.58 1389.31,-1013.81"/>
<polygon fill="brown" stroke="brown" points="1392.81,-1014.13 1389.31,-1004.13 1385.81,-1014.13 1392.81,-1014.13"/>
<text text-anchor="middle" x="1398.31" y="-1059.44" font-family="Times,serif" font-size="12.00">tick</text>
</g>
<!-- 107 -->
<g id="node33" class="node">
<title>107</title>
<polygon fill="none" stroke="brown" stroke-width="2" points="2350.31,-845.04 428.31,-845.04 428.31,-809.04 2350.31,-809.04 2350.31,-845.04"/>
<text text-anchor="middle" x="1389.31" y="-823.94" font-family="Times,serif" font-size="12.00">active_rules((Payment2|&#45;&gt;borrower)) = 0,breached_by = {},rules = {rec(deontic:COb,event:rec(initial_timer_val:1,is_preemptive:TRUE,name:request_principal),name:RequestPrincipal,possible_actors:{borrower}),rec(deontic:COb,event:rec(initial_timer_val:2,is_preemptive:TRUE,name:cure_default),name:CureDefault,possible_actors:{borrower}),rec(deontic:COb,event:rec(initial_timer_val:10,is_p...</text>
</g>
<!-- 106&#45;&gt;107 -->
<g id="edge32" class="edge">
<title>106&#45;&gt;107</title>
<path fill="none" stroke="brown" d="M1389.31,-965.26C1389.31,-938.75 1389.31,-888.58 1389.31,-856.81"/>
<polygon fill="brown" stroke="brown" points="1392.81,-857.13 1389.31,-847.13 1385.81,-857.13 1392.81,-857.13"/>
<text text-anchor="middle" x="1398.31" y="-902.44" font-family="Times,serif" font-size="12.00">tick</text>
</g>
<!-- 108 -->
<g id="node34" class="node">
<title>108</title>
<polygon fill="none" stroke="brown" stroke-width="2" points="2357.81,-688.04 420.81,-688.04 420.81,-652.04 2357.81,-652.04 2357.81,-688.04"/>
<text text-anchor="middle" x="1389.31" y="-666.94" font-family="Times,serif" font-size="12.00">active_rules((NotifyBorrower|&#45;&gt;lender)) = 3,breached_by = {},rules = {rec(deontic:COb,event:rec(initial_timer_val:1,is_preemptive:TRUE,name:request_principal),name:RequestPrincipal,possible_actors:{borrower}),rec(deontic:COb,event:rec(initial_timer_val:2,is_preemptive:TRUE,name:cure_default),name:CureDefault,possible_actors:{borrower}),rec(deontic:COb,event:rec(initial_timer_val:10,is_p...</text>
</g>
<!-- 107&#45;&gt;108 -->
<g id="edge33" class="edge">
<title>107&#45;&gt;108</title>
<path fill="none" stroke="brown" d="M1389.31,-808.26C1389.31,-781.75 1389.31,-731.58 1389.31,-699.81"/>
<polygon fill="brown" stroke="brown" points="1392.81,-700.13 1389.31,-690.13 1385.81,-700.13 1392.81,-700.13"/>
<text text-anchor="middle" x="1458.81" y="-745.44" font-family="Times,serif" font-size="12.00">payment2_timeout(borrower)</text>
</g>
<!-- 109 -->
<g id="node35" class="node">
<title>109</title>
<polygon fill="none" stroke="brown" stroke-width="2" points="2357.81,-531.04 420.81,-531.04 420.81,-495.04 2357.81,-495.04 2357.81,-531.04"/>
<text text-anchor="middle" x="1389.31" y="-509.94" font-family="Times,serif" font-size="12.00">active_rules((NotifyBorrower|&#45;&gt;lender)) = 2,breached_by = {},rules = {rec(deontic:COb,event:rec(initial_timer_val:1,is_preemptive:TRUE,name:request_principal),name:RequestPrincipal,possible_actors:{borrower}),rec(deontic:COb,event:rec(initial_timer_val:2,is_preemptive:TRUE,name:cure_default),name:CureDefault,possible_actors:{borrower}),rec(deontic:COb,event:rec(initial_timer_val:10,is_p...</text>
</g>
<!-- 108&#45;&gt;109 -->
<g id="edge34" class="edge">
<title>108&#45;&gt;109</title>
<path fill="none" stroke="brown" d="M1389.31,-651.26C1389.31,-624.75 1389.31,-574.58 1389.31,-542.81"/>
<polygon fill="brown" stroke="brown" points="1392.81,-543.13 1389.31,-533.13 1385.81,-543.13 1392.81,-543.13"/>
<text text-anchor="middle" x="1398.31" y="-588.44" font-family="Times,serif" font-size="12.00">tick</text>
</g>
<!-- 111 -->
<g id="node36" class="node">
<title>111</title>
<polygon fill="none" stroke="brown" stroke-width="2" points="2357.81,-374.04 420.81,-374.04 420.81,-338.04 2357.81,-338.04 2357.81,-374.04"/>
<text text-anchor="middle" x="1389.31" y="-352.94" font-family="Times,serif" font-size="12.00">active_rules((NotifyBorrower|&#45;&gt;lender)) = 1,breached_by = {},rules = {rec(deontic:COb,event:rec(initial_timer_val:1,is_preemptive:TRUE,name:request_principal),name:RequestPrincipal,possible_actors:{borrower}),rec(deontic:COb,event:rec(initial_timer_val:2,is_preemptive:TRUE,name:cure_default),name:CureDefault,possible_actors:{borrower}),rec(deontic:COb,event:rec(initial_timer_val:10,is_p...</text>
</g>
<!-- 109&#45;&gt;111 -->
<g id="edge35" class="edge">
<title>109&#45;&gt;111</title>
<path fill="none" stroke="brown" d="M1389.31,-494.26C1389.31,-467.75 1389.31,-417.58 1389.31,-385.81"/>
<polygon fill="brown" stroke="brown" points="1392.81,-386.13 1389.31,-376.13 1385.81,-386.13 1392.81,-386.13"/>
<text text-anchor="middle" x="1398.31" y="-431.44" font-family="Times,serif" font-size="12.00">tick</text>
</g>
<!-- 113 -->
<g id="node37" class="node">
<title>113</title>
<polygon fill="none" stroke="brown" stroke-width="2" points="2357.81,-217.04 420.81,-217.04 420.81,-181.04 2357.81,-181.04 2357.81,-217.04"/>
<text text-anchor="middle" x="1389.31" y="-195.94" font-family="Times,serif" font-size="12.00">active_rules((NotifyBorrower|&#45;&gt;lender)) = 0,breached_by = {},rules = {rec(deontic:COb,event:rec(initial_timer_val:1,is_preemptive:TRUE,name:request_principal),name:RequestPrincipal,possible_actors:{borrower}),rec(deontic:COb,event:rec(initial_timer_val:2,is_preemptive:TRUE,name:cure_default),name:CureDefault,possible_actors:{borrower}),rec(deontic:COb,event:rec(initial_timer_val:10,is_p...</text>
</g>
<!-- 111&#45;&gt;113 -->
<g id="edge36" class="edge">
<title>111&#45;&gt;113</title>
<path fill="none" stroke="brown" d="M1389.31,-337.26C1389.31,-310.75 1389.31,-260.58 1389.31,-228.81"/>
<polygon fill="brown" stroke="brown" points="1392.81,-229.13 1389.31,-219.13 1385.81,-229.13 1392.81,-229.13"/>
<text text-anchor="middle" x="1398.31" y="-274.44" font-family="Times,serif" font-size="12.00">tick</text>
</g>
<!-- 113&#45;&gt;4 -->
<g id="edge37" class="edge">
<title>113&#45;&gt;4</title>
<path fill="none" stroke="brown" d="M1389.31,-180.17C1389.31,-154.54 1389.31,-106.62 1389.31,-72.01"/>
<polygon fill="brown" stroke="brown" points="1392.81,-72.34 1389.31,-62.34 1385.81,-72.34 1392.81,-72.34"/>
<text text-anchor="middle" x="1467.31" y="-117.44" font-family="Times,serif" font-size="12.00">notify_borrower_timeout(lender)</text>
</g>
<!-- root -->
<g id="node38" class="node">
<title>root</title>
<polygon fill="none" stroke="brown" stroke-width="2" points="1389.31,-5833.04 1432.5,-5864.54 1346.13,-5864.54 1389.31,-5833.04"/>
<text text-anchor="middle" x="1389.31" y="-5850.94" font-family="Times,serif" font-size="12.00">root</text>
</g>
<!-- root&#45;&gt;0 -->
<g id="edge1" class="edge">
<title>root&#45;&gt;0</title>
<path fill="none" stroke="black" stroke-dasharray="1,5" d="M1389.31,-5832.06C1389.31,-5804.35 1389.31,-5755.4 1389.31,-5724.13"/>
<polygon fill="black" stroke="black" points="1392.81,-5724.21 1389.31,-5714.21 1385.81,-5724.21 1392.81,-5724.21"/>
<text text-anchor="middle" x="1446.81" y="-5769.44" font-family="Times,serif" font-size="12.00">SETUP_CONSTANTS</text>
</g>
</g>
</svg>
