<?xml version="1.0" encoding="UTF-8" standalone="no"?>
<!DOCTYPE svg PUBLIC "-//W3C//DTD SVG 1.1//EN"
 "http://www.w3.org/Graphics/SVG/1.1/DTD/svg11.dtd">
<!-- Generated by graphviz version 7.0.4 (0)
 -->
<!-- Title: history Pages: 1 -->
<svg width="2406pt" height="383pt"
 viewBox="0.00 0.00 2406.00 383.00" xmlns="http://www.w3.org/2000/svg" xmlns:xlink="http://www.w3.org/1999/xlink">
<g id="graph0" class="graph" transform="scale(1 1) rotate(0) translate(4 379)">
<title>history</title>
<polygon fill="white" stroke="none" points="-4,4 -4,-379 2402,-379 2402,4 -4,4"/>
<!-- 0 -->
<g id="node1" class="node">
<title>0</title>
<polygon fill="none" stroke="brown" stroke-width="2" points="2398,-212 0,-212 0,-165 2398,-165 2398,-212"/>
<text text-anchor="middle" x="1199" y="-198.4" font-family="Times,serif" font-size="12.00">Rule = {rec(deontic:COb,event:rec(name:request_principal),initial_actors:{borrower},name:RequestPrincipal,on_done:rec(interrupt:{},trigger:{(borrower|&#45;&gt;{(SendPrincipal|&#45;&gt;lender)}),(lender|&#45;&gt;{(SendPrincipal|&#45;&gt;lender)})}),on_timeout:rec(interrupt:{},trigger:{(borrower|&#45;&gt;{}),(lender|&#45;&gt;{})}),possible_actors:{borrower},timer:rec(i...,is_compensable(rec(deontic:COb,event:rec(name:request_principal),initial_actors:...,is_compensable(rec(deontic:COb,event:rec(name:cure_default),initial_actors:{},na...,</text>
<text text-anchor="middle" x="1199" y="-185.4" font-family="Times,serif" font-size="12.00">is_compensable(rec(deontic:COb,event:rec(name:pay1),initial_actors:{},name:Payme...,is_compensable(rec(deontic:COb,event:rec(name:pay2),initial_actors:{},name:Payme...,is_compensable(rec(deontic:NCOb,event:rec(name:pay_accelerated),initial_actors:{...,</text>
<text text-anchor="middle" x="1199" y="-172.4" font-family="Times,serif" font-size="12.00">is_compensable(rec(deontic:NCOb,event:rec(name:send_principal),initial_actors:{}...,is_compensable(rec(deontic:CProhib,event:rec(name:event_of_default),initial_acto...,is_compensable(rec(deontic:Perm,event:rec(name:notify_borrower),initial_actors:{...</text>
</g>
<!-- 1 -->
<g id="node2" class="node">
<title>1</title>
<polygon fill="none" stroke="brown" stroke-width="2" points="1378.47,-14.54 1378.47,-29.46 1273.34,-40 1124.66,-40 1019.53,-29.46 1019.53,-14.54 1124.66,-4 1273.34,-4 1378.47,-14.54"/>
<polygon fill="none" stroke="brown" stroke-width="2" points="1382.47,-10.93 1382.47,-33.07 1273.54,-44 1124.46,-44 1015.53,-33.07 1015.53,-10.93 1124.46,0 1273.54,0 1382.47,-10.93"/>
<text text-anchor="middle" x="1199" y="-18.9" font-family="Times,serif" font-size="12.00">active_rules = {},breached_by = {},started = FALSE</text>
</g>
<!-- 0&#45;&gt;1 -->
<g id="edge2" class="edge">
<title>0&#45;&gt;1</title>
<path fill="none" stroke="brown" d="M1199,-164.28C1199,-136.09 1199,-88.34 1199,-56.25"/>
<polygon fill="brown" stroke="brown" points="1202.5,-56.3 1199,-46.3 1195.5,-56.3 1202.5,-56.3"/>
<text text-anchor="middle" x="1245" y="-101.4" font-family="Times,serif" font-size="12.00">INITIALISATION</text>
</g>
<!-- root -->
<g id="node3" class="node">
<title>root</title>
<polygon fill="none" stroke="brown" stroke-width="2" points="1199,-333 1242.18,-364.5 1155.82,-364.5 1199,-333"/>
<text text-anchor="middle" x="1199" y="-350.9" font-family="Times,serif" font-size="12.00">root</text>
</g>
<!-- root&#45;&gt;0 -->
<g id="edge1" class="edge">
<title>root&#45;&gt;0</title>
<path fill="none" stroke="black" stroke-dasharray="1,5" d="M1199,-331.96C1199,-304.69 1199,-256.78 1199,-224.11"/>
<polygon fill="black" stroke="black" points="1202.5,-224.35 1199,-214.35 1195.5,-224.35 1202.5,-224.35"/>
<text text-anchor="middle" x="1256.5" y="-269.4" font-family="Times,serif" font-size="12.00">SETUP_CONSTANTS</text>
</g>
</g>
</svg>
