<?xml version="1.0" encoding="UTF-8" standalone="no"?>
<!DOCTYPE svg PUBLIC "-//W3C//DTD SVG 1.1//EN"
 "http://www.w3.org/Graphics/SVG/1.1/DTD/svg11.dtd">
<!-- Generated by graphviz version 7.0.4 (0)
 -->
<!-- Title: history Pages: 1 -->
<svg width="3294pt" height="6060pt"
 viewBox="0.00 0.00 3294.00 6059.94" xmlns="http://www.w3.org/2000/svg" xmlns:xlink="http://www.w3.org/1999/xlink">
<g id="graph0" class="graph" transform="scale(1 1) rotate(0) translate(4 6055.94)">
<title>history</title>
<polygon fill="white" stroke="none" points="-4,4 -4,-6055.94 3290,-6055.94 3290,4 -4,4"/>
<!-- 0 -->
<g id="node1" class="node">
<title>0</title>
<polygon fill="none" stroke="brown" stroke-width="2" points="3286,-5888.94 0,-5888.94 0,-5852.94 3286,-5852.94 3286,-5888.94"/>
<text text-anchor="middle" x="1643" y="-5867.84" font-family="Times,serif" font-size="12.00">get_rule_name = %rule.(rule : struct(deontic:{COb,NCOb,CProhib,NCProhib,Perm},event:struct(initial_timer_val:NATURAL1,is_preemptive:{FALSE,TRUE},name:EventName),name:{RequestPrincipal,CureDefault,EventOfDefault,NotifyBorrower,PayAccelerated,Payment1,Payment2,SendPrincipal},possible_actors:POW(Actor))|rule&#39;name),rules0 = {rec(deontic:COb,event:rec(initial_timer_val:1,is_preemptive:TRUE,name:request_principal),name:RequestPrincipal,possible_actors:{borrower}),rec(deontic:COb,event:rec(initial_timer_val:2,is_preemptive:TRUE,name:cure_default),name:CureDefault,possible_actors:{borrower}),rec(deontic:COb,event:rec(initial_timer_val:10,is_p...</text>
</g>
<!-- 1 -->
<g id="node2" class="node">
<title>1</title>
<polygon fill="none" stroke="brown" stroke-width="2" points="1762.5,-5731.94 1523.5,-5731.94 1523.5,-5695.94 1762.5,-5695.94 1762.5,-5731.94"/>
<text text-anchor="middle" x="1643" y="-5717.34" font-family="Times,serif" font-size="12.00">active_rules = {},breached_by = {},rules = {},</text>
<text text-anchor="middle" x="1643" y="-5704.34" font-family="Times,serif" font-size="12.00">started = FALSE</text>
</g>
<!-- 0&#45;&gt;1 -->
<g id="edge2" class="edge">
<title>0&#45;&gt;1</title>
<path fill="none" stroke="brown" d="M1643,-5852.16C1643,-5825.65 1643,-5775.48 1643,-5743.71"/>
<polygon fill="brown" stroke="brown" points="1646.5,-5744.03 1643,-5734.03 1639.5,-5744.03 1646.5,-5744.03"/>
<text text-anchor="middle" x="1689" y="-5789.34" font-family="Times,serif" font-size="12.00">INITIALISATION</text>
</g>
<!-- 2 -->
<g id="node3" class="node">
<title>2</title>
<polygon fill="none" stroke="brown" stroke-width="2" points="2622,-5574.94 664,-5574.94 664,-5538.94 2622,-5538.94 2622,-5574.94"/>
<text text-anchor="middle" x="1643" y="-5560.34" font-family="Times,serif" font-size="12.00">active_rules((RequestPrincipal|&#45;&gt;borrower)) = 1,breached_by = {},rules = {rec(deontic:COb,event:rec(initial_timer_val:1,is_preemptive:TRUE,name:request_principal),name:RequestPrincipal,possible_actors:{borrower}),rec(deontic:COb,event:rec(initial_timer_val:2,is_preemptive:TRUE,name:cure_default),name:CureDefault,possible_actors:{borrower}),rec(deontic:COb,event:rec(initial_timer_val:10,is_p...,</text>
<text text-anchor="middle" x="1643" y="-5547.34" font-family="Times,serif" font-size="12.00">started = TRUE</text>
</g>
<!-- 1&#45;&gt;2 -->
<g id="edge3" class="edge">
<title>1&#45;&gt;2</title>
<path fill="none" stroke="brown" d="M1643,-5695.16C1643,-5668.65 1643,-5618.48 1643,-5586.71"/>
<polygon fill="brown" stroke="brown" points="1646.5,-5587.03 1643,-5577.03 1639.5,-5587.03 1646.5,-5587.03"/>
<text text-anchor="middle" x="1653" y="-5632.34" font-family="Times,serif" font-size="12.00">start</text>
</g>
<!-- 3 -->
<g id="node4" class="node">
<title>3</title>
<polygon fill="none" stroke="brown" stroke-width="2" points="2622,-5417.94 664,-5417.94 664,-5381.94 2622,-5381.94 2622,-5417.94"/>
<text text-anchor="middle" x="1643" y="-5403.34" font-family="Times,serif" font-size="12.00">active_rules((RequestPrincipal|&#45;&gt;borrower)) = 0,breached_by = {},rules = {rec(deontic:COb,event:rec(initial_timer_val:1,is_preemptive:TRUE,name:request_principal),name:RequestPrincipal,possible_actors:{borrower}),rec(deontic:COb,event:rec(initial_timer_val:2,is_preemptive:TRUE,name:cure_default),name:CureDefault,possible_actors:{borrower}),rec(deontic:COb,event:rec(initial_timer_val:10,is_p...,</text>
<text text-anchor="middle" x="1643" y="-5390.34" font-family="Times,serif" font-size="12.00">started = TRUE</text>
</g>
<!-- 2&#45;&gt;3 -->
<g id="edge4" class="edge">
<title>2&#45;&gt;3</title>
<path fill="none" stroke="brown" d="M1643,-5538.16C1643,-5511.65 1643,-5461.48 1643,-5429.71"/>
<polygon fill="brown" stroke="brown" points="1646.5,-5430.03 1643,-5420.03 1639.5,-5430.03 1646.5,-5430.03"/>
<text text-anchor="middle" x="1652" y="-5475.34" font-family="Times,serif" font-size="12.00">tick</text>
</g>
<!-- 4 -->
<g id="node5" class="node">
<title>4</title>
<polygon fill="none" stroke="brown" stroke-width="2" points="2608,-5260.94 678,-5260.94 678,-5224.94 2608,-5224.94 2608,-5260.94"/>
<text text-anchor="middle" x="1643" y="-5246.34" font-family="Times,serif" font-size="12.00">active_rules((SendPrincipal|&#45;&gt;lender)) = 3,breached_by = {},rules = {rec(deontic:COb,event:rec(initial_timer_val:1,is_preemptive:TRUE,name:request_principal),name:RequestPrincipal,possible_actors:{borrower}),rec(deontic:COb,event:rec(initial_timer_val:2,is_preemptive:TRUE,name:cure_default),name:CureDefault,possible_actors:{borrower}),rec(deontic:COb,event:rec(initial_timer_val:10,is_p...,</text>
<text text-anchor="middle" x="1643" y="-5233.34" font-family="Times,serif" font-size="12.00">started = TRUE</text>
</g>
<!-- 3&#45;&gt;4 -->
<g id="edge5" class="edge">
<title>3&#45;&gt;4</title>
<path fill="none" stroke="brown" d="M1643,-5381.16C1643,-5354.65 1643,-5304.48 1643,-5272.71"/>
<polygon fill="brown" stroke="brown" points="1646.5,-5273.03 1643,-5263.03 1639.5,-5273.03 1646.5,-5273.03"/>
<text text-anchor="middle" x="1735" y="-5318.34" font-family="Times,serif" font-size="12.00">request_principal_happened(borrower)</text>
</g>
<!-- 6 -->
<g id="node7" class="node">
<title>6</title>
<polygon fill="none" stroke="brown" stroke-width="2" points="2608,-5103.94 678,-5103.94 678,-5067.94 2608,-5067.94 2608,-5103.94"/>
<text text-anchor="middle" x="1643" y="-5089.34" font-family="Times,serif" font-size="12.00">active_rules((SendPrincipal|&#45;&gt;lender)) = 2,breached_by = {},rules = {rec(deontic:COb,event:rec(initial_timer_val:1,is_preemptive:TRUE,name:request_principal),name:RequestPrincipal,possible_actors:{borrower}),rec(deontic:COb,event:rec(initial_timer_val:2,is_preemptive:TRUE,name:cure_default),name:CureDefault,possible_actors:{borrower}),rec(deontic:COb,event:rec(initial_timer_val:10,is_p...,</text>
<text text-anchor="middle" x="1643" y="-5076.34" font-family="Times,serif" font-size="12.00">started = TRUE</text>
</g>
<!-- 4&#45;&gt;6 -->
<g id="edge6" class="edge">
<title>4&#45;&gt;6</title>
<path fill="none" stroke="brown" d="M1643,-5224.16C1643,-5197.65 1643,-5147.48 1643,-5115.71"/>
<polygon fill="brown" stroke="brown" points="1646.5,-5116.03 1643,-5106.03 1639.5,-5116.03 1646.5,-5116.03"/>
<text text-anchor="middle" x="1652" y="-5161.34" font-family="Times,serif" font-size="12.00">tick</text>
</g>
<!-- 5 -->
<g id="node6" class="node">
<title>5</title>
<polygon fill="none" stroke="brown" stroke-width="2" points="3030.72,-25.08 3030.72,-54.86 2217.81,-75.92 1068.19,-75.92 255.28,-54.86 255.28,-25.08 1068.19,-4.02 2217.81,-4.02 3030.72,-25.08"/>
<polygon fill="none" stroke="brown" stroke-width="2" points="3034.72,-21.19 3034.72,-58.76 2217.86,-79.92 1068.14,-79.92 251.28,-58.76 251.28,-21.19 1068.14,-0.03 2217.86,-0.03 3034.72,-21.19"/>
<text text-anchor="middle" x="1643" y="-49.87" font-family="Times,serif" font-size="12.00">repeated (3)</text>
<text text-anchor="middle" x="1643" y="-36.87" font-family="Times,serif" font-size="12.00">active_rules = {},breached_by = {},rules = {rec(deontic:COb,event:rec(initial_timer_val:1,is_preemptive:TRUE,name:request_principal),name:RequestPrincipal,possible_actors:{borrower}),rec(deontic:COb,event:rec(initial_timer_val:2,is_preemptive:TRUE,name:cure_default),name:CureDefault,possible_actors:{borrower}),rec(deontic:COb,event:rec(initial_timer_val:10,is_p...,</text>
<text text-anchor="middle" x="1643" y="-23.87" font-family="Times,serif" font-size="12.00">started = TRUE</text>
</g>
<!-- 5&#45;&gt;5 -->
<g id="edge39" class="edge">
<title>5&#45;&gt;5</title>
<path fill="none" stroke="brown" d="M3035.43,-45.98C3102.93,-44.48 3142.61,-42.47 3142.61,-39.97 3142.61,-37.61 3107.3,-35.7 3046.63,-34.22"/>
<polygon fill="brown" stroke="brown" points="3047.03,-30.73 3036.95,-34 3046.86,-37.73 3047.03,-30.73"/>
<text text-anchor="middle" x="3151.61" y="-36.87" font-family="Times,serif" font-size="12.00">tick</text>
</g>
<!-- 5&#45;&gt;5 -->
<g id="edge40" class="edge">
<title>5&#45;&gt;5</title>
<path fill="none" stroke="brown" d="M3035.52,-55.12C3167.3,-52.03 3250.61,-46.98 3250.61,-39.97 3250.61,-33.17 3172.11,-28.22 3046.98,-25.1"/>
<polygon fill="brown" stroke="brown" points="3047.11,-21.6 3037.03,-24.86 3046.94,-28.6 3047.11,-21.6"/>
<text text-anchor="middle" x="3259.61" y="-36.87" font-family="Times,serif" font-size="12.00">tick</text>
</g>
<!-- 8 -->
<g id="node9" class="node">
<title>8</title>
<polygon fill="none" stroke="brown" stroke-width="2" points="2608,-4946.94 678,-4946.94 678,-4910.94 2608,-4910.94 2608,-4946.94"/>
<text text-anchor="middle" x="1643" y="-4932.34" font-family="Times,serif" font-size="12.00">active_rules((SendPrincipal|&#45;&gt;lender)) = 1,breached_by = {},rules = {rec(deontic:COb,event:rec(initial_timer_val:1,is_preemptive:TRUE,name:request_principal),name:RequestPrincipal,possible_actors:{borrower}),rec(deontic:COb,event:rec(initial_timer_val:2,is_preemptive:TRUE,name:cure_default),name:CureDefault,possible_actors:{borrower}),rec(deontic:COb,event:rec(initial_timer_val:10,is_p...,</text>
<text text-anchor="middle" x="1643" y="-4919.34" font-family="Times,serif" font-size="12.00">started = TRUE</text>
</g>
<!-- 6&#45;&gt;8 -->
<g id="edge7" class="edge">
<title>6&#45;&gt;8</title>
<path fill="none" stroke="brown" d="M1643,-5067.16C1643,-5040.65 1643,-4990.48 1643,-4958.71"/>
<polygon fill="brown" stroke="brown" points="1646.5,-4959.03 1643,-4949.03 1639.5,-4959.03 1646.5,-4959.03"/>
<text text-anchor="middle" x="1652" y="-5004.34" font-family="Times,serif" font-size="12.00">tick</text>
</g>
<!-- 7 -->
<g id="node8" class="node">
<title>7</title>
<polygon fill="none" stroke="brown" stroke-width="2" points="2501,-4632.94 785,-4632.94 785,-4596.94 2501,-4596.94 2501,-4632.94"/>
<text text-anchor="middle" x="1643" y="-4618.34" font-family="Times,serif" font-size="12.00">active_rules((EventOfDefault|&#45;&gt;borrower)) = 25,active_rules((Payment1|&#45;&gt;borrower)) = 10,breached_by = {},</text>
<text text-anchor="middle" x="1643" y="-4605.34" font-family="Times,serif" font-size="12.00">rules = {rec(deontic:COb,event:rec(initial_timer_val:1,is_preemptive:TRUE,name:request_principal),name:RequestPrincipal,possible_actors:{borrower}),rec(deontic:COb,event:rec(initial_timer_val:2,is_preemptive:TRUE,name:cure_default),name:CureDefault,possible_actors:{borrower}),rec(deontic:COb,event:rec(initial_timer_val:10,is_p...,started = TRUE</text>
</g>
<!-- 11 -->
<g id="node11" class="node">
<title>11</title>
<polygon fill="none" stroke="brown" stroke-width="2" points="2501,-4475.94 785,-4475.94 785,-4439.94 2501,-4439.94 2501,-4475.94"/>
<text text-anchor="middle" x="1643" y="-4461.34" font-family="Times,serif" font-size="12.00">active_rules((EventOfDefault|&#45;&gt;borrower)) = 24,active_rules((Payment1|&#45;&gt;borrower)) = 9,breached_by = {},</text>
<text text-anchor="middle" x="1643" y="-4448.34" font-family="Times,serif" font-size="12.00">rules = {rec(deontic:COb,event:rec(initial_timer_val:1,is_preemptive:TRUE,name:request_principal),name:RequestPrincipal,possible_actors:{borrower}),rec(deontic:COb,event:rec(initial_timer_val:2,is_preemptive:TRUE,name:cure_default),name:CureDefault,possible_actors:{borrower}),rec(deontic:COb,event:rec(initial_timer_val:10,is_p...,started = TRUE</text>
</g>
<!-- 7&#45;&gt;11 -->
<g id="edge10" class="edge">
<title>7&#45;&gt;11</title>
<path fill="none" stroke="brown" d="M1643,-4596.16C1643,-4569.65 1643,-4519.48 1643,-4487.71"/>
<polygon fill="brown" stroke="brown" points="1646.5,-4488.03 1643,-4478.03 1639.5,-4488.03 1646.5,-4488.03"/>
<text text-anchor="middle" x="1652" y="-4533.34" font-family="Times,serif" font-size="12.00">tick</text>
</g>
<!-- 9 -->
<g id="node10" class="node">
<title>9</title>
<polygon fill="none" stroke="brown" stroke-width="2" points="2608,-4789.94 678,-4789.94 678,-4753.94 2608,-4753.94 2608,-4789.94"/>
<text text-anchor="middle" x="1643" y="-4775.34" font-family="Times,serif" font-size="12.00">active_rules((SendPrincipal|&#45;&gt;lender)) = 0,breached_by = {},rules = {rec(deontic:COb,event:rec(initial_timer_val:1,is_preemptive:TRUE,name:request_principal),name:RequestPrincipal,possible_actors:{borrower}),rec(deontic:COb,event:rec(initial_timer_val:2,is_preemptive:TRUE,name:cure_default),name:CureDefault,possible_actors:{borrower}),rec(deontic:COb,event:rec(initial_timer_val:10,is_p...,</text>
<text text-anchor="middle" x="1643" y="-4762.34" font-family="Times,serif" font-size="12.00">started = TRUE</text>
</g>
<!-- 8&#45;&gt;9 -->
<g id="edge8" class="edge">
<title>8&#45;&gt;9</title>
<path fill="none" stroke="brown" d="M1643,-4910.16C1643,-4883.65 1643,-4833.48 1643,-4801.71"/>
<polygon fill="brown" stroke="brown" points="1646.5,-4802.03 1643,-4792.03 1639.5,-4802.03 1646.5,-4802.03"/>
<text text-anchor="middle" x="1652" y="-4847.34" font-family="Times,serif" font-size="12.00">tick</text>
</g>
<!-- 9&#45;&gt;7 -->
<g id="edge9" class="edge">
<title>9&#45;&gt;7</title>
<path fill="none" stroke="brown" d="M1643,-4753.16C1643,-4726.65 1643,-4676.48 1643,-4644.71"/>
<polygon fill="brown" stroke="brown" points="1646.5,-4645.03 1643,-4635.03 1639.5,-4645.03 1646.5,-4645.03"/>
<text text-anchor="middle" x="1722" y="-4690.34" font-family="Times,serif" font-size="12.00">send_principal_happened(lender)</text>
</g>
<!-- 13 -->
<g id="node12" class="node">
<title>13</title>
<polygon fill="none" stroke="brown" stroke-width="2" points="2501,-4318.94 785,-4318.94 785,-4282.94 2501,-4282.94 2501,-4318.94"/>
<text text-anchor="middle" x="1643" y="-4304.34" font-family="Times,serif" font-size="12.00">active_rules((EventOfDefault|&#45;&gt;borrower)) = 23,active_rules((Payment1|&#45;&gt;borrower)) = 8,breached_by = {},</text>
<text text-anchor="middle" x="1643" y="-4291.34" font-family="Times,serif" font-size="12.00">rules = {rec(deontic:COb,event:rec(initial_timer_val:1,is_preemptive:TRUE,name:request_principal),name:RequestPrincipal,possible_actors:{borrower}),rec(deontic:COb,event:rec(initial_timer_val:2,is_preemptive:TRUE,name:cure_default),name:CureDefault,possible_actors:{borrower}),rec(deontic:COb,event:rec(initial_timer_val:10,is_p...,started = TRUE</text>
</g>
<!-- 11&#45;&gt;13 -->
<g id="edge11" class="edge">
<title>11&#45;&gt;13</title>
<path fill="none" stroke="brown" d="M1643,-4439.16C1643,-4412.65 1643,-4362.48 1643,-4330.71"/>
<polygon fill="brown" stroke="brown" points="1646.5,-4331.03 1643,-4321.03 1639.5,-4331.03 1646.5,-4331.03"/>
<text text-anchor="middle" x="1652" y="-4376.34" font-family="Times,serif" font-size="12.00">tick</text>
</g>
<!-- 17 -->
<g id="node13" class="node">
<title>17</title>
<polygon fill="none" stroke="brown" stroke-width="2" points="2501,-4161.94 785,-4161.94 785,-4125.94 2501,-4125.94 2501,-4161.94"/>
<text text-anchor="middle" x="1643" y="-4147.34" font-family="Times,serif" font-size="12.00">active_rules((EventOfDefault|&#45;&gt;borrower)) = 22,active_rules((Payment1|&#45;&gt;borrower)) = 7,breached_by = {},</text>
<text text-anchor="middle" x="1643" y="-4134.34" font-family="Times,serif" font-size="12.00">rules = {rec(deontic:COb,event:rec(initial_timer_val:1,is_preemptive:TRUE,name:request_principal),name:RequestPrincipal,possible_actors:{borrower}),rec(deontic:COb,event:rec(initial_timer_val:2,is_preemptive:TRUE,name:cure_default),name:CureDefault,possible_actors:{borrower}),rec(deontic:COb,event:rec(initial_timer_val:10,is_p...,started = TRUE</text>
</g>
<!-- 13&#45;&gt;17 -->
<g id="edge12" class="edge">
<title>13&#45;&gt;17</title>
<path fill="none" stroke="brown" d="M1643,-4282.16C1643,-4255.65 1643,-4205.48 1643,-4173.71"/>
<polygon fill="brown" stroke="brown" points="1646.5,-4174.03 1643,-4164.03 1639.5,-4174.03 1646.5,-4174.03"/>
<text text-anchor="middle" x="1652" y="-4219.34" font-family="Times,serif" font-size="12.00">tick</text>
</g>
<!-- 21 -->
<g id="node14" class="node">
<title>21</title>
<polygon fill="none" stroke="brown" stroke-width="2" points="2501,-4004.94 785,-4004.94 785,-3968.94 2501,-3968.94 2501,-4004.94"/>
<text text-anchor="middle" x="1643" y="-3990.34" font-family="Times,serif" font-size="12.00">active_rules((EventOfDefault|&#45;&gt;borrower)) = 21,active_rules((Payment1|&#45;&gt;borrower)) = 6,breached_by = {},</text>
<text text-anchor="middle" x="1643" y="-3977.34" font-family="Times,serif" font-size="12.00">rules = {rec(deontic:COb,event:rec(initial_timer_val:1,is_preemptive:TRUE,name:request_principal),name:RequestPrincipal,possible_actors:{borrower}),rec(deontic:COb,event:rec(initial_timer_val:2,is_preemptive:TRUE,name:cure_default),name:CureDefault,possible_actors:{borrower}),rec(deontic:COb,event:rec(initial_timer_val:10,is_p...,started = TRUE</text>
</g>
<!-- 17&#45;&gt;21 -->
<g id="edge13" class="edge">
<title>17&#45;&gt;21</title>
<path fill="none" stroke="brown" d="M1643,-4125.16C1643,-4098.65 1643,-4048.48 1643,-4016.71"/>
<polygon fill="brown" stroke="brown" points="1646.5,-4017.03 1643,-4007.03 1639.5,-4017.03 1646.5,-4017.03"/>
<text text-anchor="middle" x="1652" y="-4062.34" font-family="Times,serif" font-size="12.00">tick</text>
</g>
<!-- 25 -->
<g id="node15" class="node">
<title>25</title>
<polygon fill="none" stroke="brown" stroke-width="2" points="2501,-3847.94 785,-3847.94 785,-3811.94 2501,-3811.94 2501,-3847.94"/>
<text text-anchor="middle" x="1643" y="-3833.34" font-family="Times,serif" font-size="12.00">active_rules((EventOfDefault|&#45;&gt;borrower)) = 20,active_rules((Payment1|&#45;&gt;borrower)) = 5,breached_by = {},</text>
<text text-anchor="middle" x="1643" y="-3820.34" font-family="Times,serif" font-size="12.00">rules = {rec(deontic:COb,event:rec(initial_timer_val:1,is_preemptive:TRUE,name:request_principal),name:RequestPrincipal,possible_actors:{borrower}),rec(deontic:COb,event:rec(initial_timer_val:2,is_preemptive:TRUE,name:cure_default),name:CureDefault,possible_actors:{borrower}),rec(deontic:COb,event:rec(initial_timer_val:10,is_p...,started = TRUE</text>
</g>
<!-- 21&#45;&gt;25 -->
<g id="edge14" class="edge">
<title>21&#45;&gt;25</title>
<path fill="none" stroke="brown" d="M1643,-3968.16C1643,-3941.65 1643,-3891.48 1643,-3859.71"/>
<polygon fill="brown" stroke="brown" points="1646.5,-3860.03 1643,-3850.03 1639.5,-3860.03 1646.5,-3860.03"/>
<text text-anchor="middle" x="1652" y="-3905.34" font-family="Times,serif" font-size="12.00">tick</text>
</g>
<!-- 29 -->
<g id="node16" class="node">
<title>29</title>
<polygon fill="none" stroke="brown" stroke-width="2" points="2501,-3690.94 785,-3690.94 785,-3654.94 2501,-3654.94 2501,-3690.94"/>
<text text-anchor="middle" x="1643" y="-3676.34" font-family="Times,serif" font-size="12.00">active_rules((EventOfDefault|&#45;&gt;borrower)) = 19,active_rules((Payment1|&#45;&gt;borrower)) = 4,breached_by = {},</text>
<text text-anchor="middle" x="1643" y="-3663.34" font-family="Times,serif" font-size="12.00">rules = {rec(deontic:COb,event:rec(initial_timer_val:1,is_preemptive:TRUE,name:request_principal),name:RequestPrincipal,possible_actors:{borrower}),rec(deontic:COb,event:rec(initial_timer_val:2,is_preemptive:TRUE,name:cure_default),name:CureDefault,possible_actors:{borrower}),rec(deontic:COb,event:rec(initial_timer_val:10,is_p...,started = TRUE</text>
</g>
<!-- 25&#45;&gt;29 -->
<g id="edge15" class="edge">
<title>25&#45;&gt;29</title>
<path fill="none" stroke="brown" d="M1643,-3811.16C1643,-3784.65 1643,-3734.48 1643,-3702.71"/>
<polygon fill="brown" stroke="brown" points="1646.5,-3703.03 1643,-3693.03 1639.5,-3703.03 1646.5,-3703.03"/>
<text text-anchor="middle" x="1652" y="-3748.34" font-family="Times,serif" font-size="12.00">tick</text>
</g>
<!-- 33 -->
<g id="node17" class="node">
<title>33</title>
<polygon fill="none" stroke="brown" stroke-width="2" points="2501,-3533.94 785,-3533.94 785,-3497.94 2501,-3497.94 2501,-3533.94"/>
<text text-anchor="middle" x="1643" y="-3519.34" font-family="Times,serif" font-size="12.00">active_rules((EventOfDefault|&#45;&gt;borrower)) = 18,active_rules((Payment1|&#45;&gt;borrower)) = 3,breached_by = {},</text>
<text text-anchor="middle" x="1643" y="-3506.34" font-family="Times,serif" font-size="12.00">rules = {rec(deontic:COb,event:rec(initial_timer_val:1,is_preemptive:TRUE,name:request_principal),name:RequestPrincipal,possible_actors:{borrower}),rec(deontic:COb,event:rec(initial_timer_val:2,is_preemptive:TRUE,name:cure_default),name:CureDefault,possible_actors:{borrower}),rec(deontic:COb,event:rec(initial_timer_val:10,is_p...,started = TRUE</text>
</g>
<!-- 29&#45;&gt;33 -->
<g id="edge16" class="edge">
<title>29&#45;&gt;33</title>
<path fill="none" stroke="brown" d="M1643,-3654.16C1643,-3627.65 1643,-3577.48 1643,-3545.71"/>
<polygon fill="brown" stroke="brown" points="1646.5,-3546.03 1643,-3536.03 1639.5,-3546.03 1646.5,-3546.03"/>
<text text-anchor="middle" x="1652" y="-3591.34" font-family="Times,serif" font-size="12.00">tick</text>
</g>
<!-- 37 -->
<g id="node18" class="node">
<title>37</title>
<polygon fill="none" stroke="brown" stroke-width="2" points="2501,-3376.94 785,-3376.94 785,-3340.94 2501,-3340.94 2501,-3376.94"/>
<text text-anchor="middle" x="1643" y="-3362.34" font-family="Times,serif" font-size="12.00">active_rules((EventOfDefault|&#45;&gt;borrower)) = 17,active_rules((Payment1|&#45;&gt;borrower)) = 2,breached_by = {},</text>
<text text-anchor="middle" x="1643" y="-3349.34" font-family="Times,serif" font-size="12.00">rules = {rec(deontic:COb,event:rec(initial_timer_val:1,is_preemptive:TRUE,name:request_principal),name:RequestPrincipal,possible_actors:{borrower}),rec(deontic:COb,event:rec(initial_timer_val:2,is_preemptive:TRUE,name:cure_default),name:CureDefault,possible_actors:{borrower}),rec(deontic:COb,event:rec(initial_timer_val:10,is_p...,started = TRUE</text>
</g>
<!-- 33&#45;&gt;37 -->
<g id="edge17" class="edge">
<title>33&#45;&gt;37</title>
<path fill="none" stroke="brown" d="M1643,-3497.16C1643,-3470.65 1643,-3420.48 1643,-3388.71"/>
<polygon fill="brown" stroke="brown" points="1646.5,-3389.03 1643,-3379.03 1639.5,-3389.03 1646.5,-3389.03"/>
<text text-anchor="middle" x="1652" y="-3434.34" font-family="Times,serif" font-size="12.00">tick</text>
</g>
<!-- 41 -->
<g id="node19" class="node">
<title>41</title>
<polygon fill="none" stroke="brown" stroke-width="2" points="2501,-3219.94 785,-3219.94 785,-3183.94 2501,-3183.94 2501,-3219.94"/>
<text text-anchor="middle" x="1643" y="-3205.34" font-family="Times,serif" font-size="12.00">active_rules((EventOfDefault|&#45;&gt;borrower)) = 16,active_rules((Payment1|&#45;&gt;borrower)) = 1,breached_by = {},</text>
<text text-anchor="middle" x="1643" y="-3192.34" font-family="Times,serif" font-size="12.00">rules = {rec(deontic:COb,event:rec(initial_timer_val:1,is_preemptive:TRUE,name:request_principal),name:RequestPrincipal,possible_actors:{borrower}),rec(deontic:COb,event:rec(initial_timer_val:2,is_preemptive:TRUE,name:cure_default),name:CureDefault,possible_actors:{borrower}),rec(deontic:COb,event:rec(initial_timer_val:10,is_p...,started = TRUE</text>
</g>
<!-- 37&#45;&gt;41 -->
<g id="edge18" class="edge">
<title>37&#45;&gt;41</title>
<path fill="none" stroke="brown" d="M1643,-3340.16C1643,-3313.65 1643,-3263.48 1643,-3231.71"/>
<polygon fill="brown" stroke="brown" points="1646.5,-3232.03 1643,-3222.03 1639.5,-3232.03 1646.5,-3232.03"/>
<text text-anchor="middle" x="1652" y="-3277.34" font-family="Times,serif" font-size="12.00">tick</text>
</g>
<!-- 45 -->
<g id="node20" class="node">
<title>45</title>
<polygon fill="none" stroke="brown" stroke-width="2" points="2501,-3062.94 785,-3062.94 785,-3026.94 2501,-3026.94 2501,-3062.94"/>
<text text-anchor="middle" x="1643" y="-3048.34" font-family="Times,serif" font-size="12.00">active_rules((EventOfDefault|&#45;&gt;borrower)) = 15,active_rules((Payment1|&#45;&gt;borrower)) = 0,breached_by = {},</text>
<text text-anchor="middle" x="1643" y="-3035.34" font-family="Times,serif" font-size="12.00">rules = {rec(deontic:COb,event:rec(initial_timer_val:1,is_preemptive:TRUE,name:request_principal),name:RequestPrincipal,possible_actors:{borrower}),rec(deontic:COb,event:rec(initial_timer_val:2,is_preemptive:TRUE,name:cure_default),name:CureDefault,possible_actors:{borrower}),rec(deontic:COb,event:rec(initial_timer_val:10,is_p...,started = TRUE</text>
</g>
<!-- 41&#45;&gt;45 -->
<g id="edge19" class="edge">
<title>41&#45;&gt;45</title>
<path fill="none" stroke="brown" d="M1643,-3183.16C1643,-3156.65 1643,-3106.48 1643,-3074.71"/>
<polygon fill="brown" stroke="brown" points="1646.5,-3075.03 1643,-3065.03 1639.5,-3075.03 1646.5,-3075.03"/>
<text text-anchor="middle" x="1652" y="-3120.34" font-family="Times,serif" font-size="12.00">tick</text>
</g>
<!-- 50 -->
<g id="node21" class="node">
<title>50</title>
<polygon fill="none" stroke="brown" stroke-width="2" points="2545.5,-2905.94 740.5,-2905.94 740.5,-2869.94 2545.5,-2869.94 2545.5,-2905.94"/>
<text text-anchor="middle" x="1643" y="-2891.34" font-family="Times,serif" font-size="12.00">active_rules((EventOfDefault|&#45;&gt;borrower)) = 15,active_rules((NotifyBorrower|&#45;&gt;lender)) = 3,active_rules((Payment2|&#45;&gt;borrower)) = 10,</text>
<text text-anchor="middle" x="1643" y="-2878.34" font-family="Times,serif" font-size="12.00">breached_by = {},rules = {rec(deontic:COb,event:rec(initial_timer_val:1,is_preemptive:TRUE,name:request_principal),name:RequestPrincipal,possible_actors:{borrower}),rec(deontic:COb,event:rec(initial_timer_val:2,is_preemptive:TRUE,name:cure_default),name:CureDefault,possible_actors:{borrower}),rec(deontic:COb,event:rec(initial_timer_val:10,is_p...,started = TRUE</text>
</g>
<!-- 45&#45;&gt;50 -->
<g id="edge20" class="edge">
<title>45&#45;&gt;50</title>
<path fill="none" stroke="brown" d="M1643,-3026.16C1643,-2999.65 1643,-2949.48 1643,-2917.71"/>
<polygon fill="brown" stroke="brown" points="1646.5,-2918.03 1643,-2908.03 1639.5,-2918.03 1646.5,-2918.03"/>
<text text-anchor="middle" x="1712.5" y="-2963.34" font-family="Times,serif" font-size="12.00">payment1_timeout(borrower)</text>
</g>
<!-- 54 -->
<g id="node22" class="node">
<title>54</title>
<polygon fill="none" stroke="brown" stroke-width="2" points="2545.5,-2748.94 740.5,-2748.94 740.5,-2712.94 2545.5,-2712.94 2545.5,-2748.94"/>
<text text-anchor="middle" x="1643" y="-2734.34" font-family="Times,serif" font-size="12.00">active_rules((EventOfDefault|&#45;&gt;borrower)) = 14,active_rules((NotifyBorrower|&#45;&gt;lender)) = 2,active_rules((Payment2|&#45;&gt;borrower)) = 9,</text>
<text text-anchor="middle" x="1643" y="-2721.34" font-family="Times,serif" font-size="12.00">breached_by = {},rules = {rec(deontic:COb,event:rec(initial_timer_val:1,is_preemptive:TRUE,name:request_principal),name:RequestPrincipal,possible_actors:{borrower}),rec(deontic:COb,event:rec(initial_timer_val:2,is_preemptive:TRUE,name:cure_default),name:CureDefault,possible_actors:{borrower}),rec(deontic:COb,event:rec(initial_timer_val:10,is_p...,started = TRUE</text>
</g>
<!-- 50&#45;&gt;54 -->
<g id="edge21" class="edge">
<title>50&#45;&gt;54</title>
<path fill="none" stroke="brown" d="M1643,-2869.16C1643,-2842.65 1643,-2792.48 1643,-2760.71"/>
<polygon fill="brown" stroke="brown" points="1646.5,-2761.03 1643,-2751.03 1639.5,-2761.03 1646.5,-2761.03"/>
<text text-anchor="middle" x="1652" y="-2806.34" font-family="Times,serif" font-size="12.00">tick</text>
</g>
<!-- 58 -->
<g id="node23" class="node">
<title>58</title>
<polygon fill="none" stroke="brown" stroke-width="2" points="2545.5,-2591.94 740.5,-2591.94 740.5,-2555.94 2545.5,-2555.94 2545.5,-2591.94"/>
<text text-anchor="middle" x="1643" y="-2577.34" font-family="Times,serif" font-size="12.00">active_rules((EventOfDefault|&#45;&gt;borrower)) = 13,active_rules((NotifyBorrower|&#45;&gt;lender)) = 1,active_rules((Payment2|&#45;&gt;borrower)) = 8,</text>
<text text-anchor="middle" x="1643" y="-2564.34" font-family="Times,serif" font-size="12.00">breached_by = {},rules = {rec(deontic:COb,event:rec(initial_timer_val:1,is_preemptive:TRUE,name:request_principal),name:RequestPrincipal,possible_actors:{borrower}),rec(deontic:COb,event:rec(initial_timer_val:2,is_preemptive:TRUE,name:cure_default),name:CureDefault,possible_actors:{borrower}),rec(deontic:COb,event:rec(initial_timer_val:10,is_p...,started = TRUE</text>
</g>
<!-- 54&#45;&gt;58 -->
<g id="edge22" class="edge">
<title>54&#45;&gt;58</title>
<path fill="none" stroke="brown" d="M1643,-2712.16C1643,-2685.65 1643,-2635.48 1643,-2603.71"/>
<polygon fill="brown" stroke="brown" points="1646.5,-2604.03 1643,-2594.03 1639.5,-2604.03 1646.5,-2604.03"/>
<text text-anchor="middle" x="1652" y="-2649.34" font-family="Times,serif" font-size="12.00">tick</text>
</g>
<!-- 65 -->
<g id="node24" class="node">
<title>65</title>
<polygon fill="none" stroke="brown" stroke-width="2" points="2545.5,-2434.94 740.5,-2434.94 740.5,-2398.94 2545.5,-2398.94 2545.5,-2434.94"/>
<text text-anchor="middle" x="1643" y="-2420.34" font-family="Times,serif" font-size="12.00">active_rules((EventOfDefault|&#45;&gt;borrower)) = 12,active_rules((NotifyBorrower|&#45;&gt;lender)) = 0,active_rules((Payment2|&#45;&gt;borrower)) = 7,</text>
<text text-anchor="middle" x="1643" y="-2407.34" font-family="Times,serif" font-size="12.00">breached_by = {},rules = {rec(deontic:COb,event:rec(initial_timer_val:1,is_preemptive:TRUE,name:request_principal),name:RequestPrincipal,possible_actors:{borrower}),rec(deontic:COb,event:rec(initial_timer_val:2,is_preemptive:TRUE,name:cure_default),name:CureDefault,possible_actors:{borrower}),rec(deontic:COb,event:rec(initial_timer_val:10,is_p...,started = TRUE</text>
</g>
<!-- 58&#45;&gt;65 -->
<g id="edge23" class="edge">
<title>58&#45;&gt;65</title>
<path fill="none" stroke="brown" d="M1643,-2555.16C1643,-2528.65 1643,-2478.48 1643,-2446.71"/>
<polygon fill="brown" stroke="brown" points="1646.5,-2447.03 1643,-2437.03 1639.5,-2447.03 1646.5,-2447.03"/>
<text text-anchor="middle" x="1652" y="-2492.34" font-family="Times,serif" font-size="12.00">tick</text>
</g>
<!-- 73 -->
<g id="node25" class="node">
<title>73</title>
<polygon fill="none" stroke="brown" stroke-width="2" points="2762,-2277.94 524,-2277.94 524,-2241.94 2762,-2241.94 2762,-2277.94"/>
<text text-anchor="middle" x="1643" y="-2263.34" font-family="Times,serif" font-size="12.00">active_rules = {(NotifyBorrower|&#45;&gt;lender|&#45;&gt;0),(NotifyBorrower|&#45;&gt;lender|&#45;&gt;3),(Payment2|&#45;&gt;borrower|&#45;&gt;7)},breached_by = {},rules = {rec(deontic:COb,event:rec(initial_timer_val:1,is_preemptive:TRUE,name:request_principal),name:RequestPrincipal,possible_actors:{borrower}),rec(deontic:COb,event:rec(initial_timer_val:2,is_preemptive:TRUE,name:cure_default),name:CureDefault,possible_actors:{borrower}),rec(deontic:COb,event:rec(initial_timer_val:10,is_p...,</text>
<text text-anchor="middle" x="1643" y="-2250.34" font-family="Times,serif" font-size="12.00">started = TRUE</text>
</g>
<!-- 65&#45;&gt;73 -->
<g id="edge24" class="edge">
<title>65&#45;&gt;73</title>
<path fill="none" stroke="brown" d="M1643,-2398.16C1643,-2371.65 1643,-2321.48 1643,-2289.71"/>
<polygon fill="brown" stroke="brown" points="1646.5,-2290.03 1643,-2280.03 1639.5,-2290.03 1646.5,-2290.03"/>
<text text-anchor="middle" x="1734.5" y="-2335.34" font-family="Times,serif" font-size="12.00">event_of_default_happened(borrower)</text>
</g>
<!-- 82 -->
<g id="node26" class="node">
<title>82</title>
<polygon fill="none" stroke="brown" stroke-width="2" points="2501,-2120.94 785,-2120.94 785,-2084.94 2501,-2084.94 2501,-2120.94"/>
<text text-anchor="middle" x="1643" y="-2106.34" font-family="Times,serif" font-size="12.00">active_rules((NotifyBorrower|&#45;&gt;lender)) = 3,active_rules((Payment2|&#45;&gt;borrower)) = 7,breached_by = {},</text>
<text text-anchor="middle" x="1643" y="-2093.34" font-family="Times,serif" font-size="12.00">rules = {rec(deontic:COb,event:rec(initial_timer_val:1,is_preemptive:TRUE,name:request_principal),name:RequestPrincipal,possible_actors:{borrower}),rec(deontic:COb,event:rec(initial_timer_val:2,is_preemptive:TRUE,name:cure_default),name:CureDefault,possible_actors:{borrower}),rec(deontic:COb,event:rec(initial_timer_val:10,is_p...,started = TRUE</text>
</g>
<!-- 73&#45;&gt;82 -->
<g id="edge25" class="edge">
<title>73&#45;&gt;82</title>
<path fill="none" stroke="brown" d="M1643,-2241.16C1643,-2214.65 1643,-2164.48 1643,-2132.71"/>
<polygon fill="brown" stroke="brown" points="1646.5,-2133.03 1643,-2123.03 1639.5,-2133.03 1646.5,-2133.03"/>
<text text-anchor="middle" x="1721" y="-2178.34" font-family="Times,serif" font-size="12.00">notify_borrower_timeout(lender)</text>
</g>
<!-- 88 -->
<g id="node27" class="node">
<title>88</title>
<polygon fill="none" stroke="brown" stroke-width="2" points="2501,-1963.94 785,-1963.94 785,-1927.94 2501,-1927.94 2501,-1963.94"/>
<text text-anchor="middle" x="1643" y="-1949.34" font-family="Times,serif" font-size="12.00">active_rules((NotifyBorrower|&#45;&gt;lender)) = 2,active_rules((Payment2|&#45;&gt;borrower)) = 6,breached_by = {},</text>
<text text-anchor="middle" x="1643" y="-1936.34" font-family="Times,serif" font-size="12.00">rules = {rec(deontic:COb,event:rec(initial_timer_val:1,is_preemptive:TRUE,name:request_principal),name:RequestPrincipal,possible_actors:{borrower}),rec(deontic:COb,event:rec(initial_timer_val:2,is_preemptive:TRUE,name:cure_default),name:CureDefault,possible_actors:{borrower}),rec(deontic:COb,event:rec(initial_timer_val:10,is_p...,started = TRUE</text>
</g>
<!-- 82&#45;&gt;88 -->
<g id="edge26" class="edge">
<title>82&#45;&gt;88</title>
<path fill="none" stroke="brown" d="M1643,-2084.16C1643,-2057.65 1643,-2007.48 1643,-1975.71"/>
<polygon fill="brown" stroke="brown" points="1646.5,-1976.03 1643,-1966.03 1639.5,-1976.03 1646.5,-1976.03"/>
<text text-anchor="middle" x="1652" y="-2021.34" font-family="Times,serif" font-size="12.00">tick</text>
</g>
<!-- 95 -->
<g id="node28" class="node">
<title>95</title>
<polygon fill="none" stroke="brown" stroke-width="2" points="2501,-1806.94 785,-1806.94 785,-1770.94 2501,-1770.94 2501,-1806.94"/>
<text text-anchor="middle" x="1643" y="-1792.34" font-family="Times,serif" font-size="12.00">active_rules((NotifyBorrower|&#45;&gt;lender)) = 1,active_rules((Payment2|&#45;&gt;borrower)) = 5,breached_by = {},</text>
<text text-anchor="middle" x="1643" y="-1779.34" font-family="Times,serif" font-size="12.00">rules = {rec(deontic:COb,event:rec(initial_timer_val:1,is_preemptive:TRUE,name:request_principal),name:RequestPrincipal,possible_actors:{borrower}),rec(deontic:COb,event:rec(initial_timer_val:2,is_preemptive:TRUE,name:cure_default),name:CureDefault,possible_actors:{borrower}),rec(deontic:COb,event:rec(initial_timer_val:10,is_p...,started = TRUE</text>
</g>
<!-- 88&#45;&gt;95 -->
<g id="edge27" class="edge">
<title>88&#45;&gt;95</title>
<path fill="none" stroke="brown" d="M1643,-1927.16C1643,-1900.65 1643,-1850.48 1643,-1818.71"/>
<polygon fill="brown" stroke="brown" points="1646.5,-1819.03 1643,-1809.03 1639.5,-1819.03 1646.5,-1819.03"/>
<text text-anchor="middle" x="1652" y="-1864.34" font-family="Times,serif" font-size="12.00">tick</text>
</g>
<!-- 97 -->
<g id="node29" class="node">
<title>97</title>
<polygon fill="none" stroke="brown" stroke-width="2" points="2501,-1649.94 785,-1649.94 785,-1613.94 2501,-1613.94 2501,-1649.94"/>
<text text-anchor="middle" x="1643" y="-1635.34" font-family="Times,serif" font-size="12.00">active_rules((NotifyBorrower|&#45;&gt;lender)) = 0,active_rules((Payment2|&#45;&gt;borrower)) = 4,breached_by = {},</text>
<text text-anchor="middle" x="1643" y="-1622.34" font-family="Times,serif" font-size="12.00">rules = {rec(deontic:COb,event:rec(initial_timer_val:1,is_preemptive:TRUE,name:request_principal),name:RequestPrincipal,possible_actors:{borrower}),rec(deontic:COb,event:rec(initial_timer_val:2,is_preemptive:TRUE,name:cure_default),name:CureDefault,possible_actors:{borrower}),rec(deontic:COb,event:rec(initial_timer_val:10,is_p...,started = TRUE</text>
</g>
<!-- 95&#45;&gt;97 -->
<g id="edge28" class="edge">
<title>95&#45;&gt;97</title>
<path fill="none" stroke="brown" d="M1643,-1770.16C1643,-1743.65 1643,-1693.48 1643,-1661.71"/>
<polygon fill="brown" stroke="brown" points="1646.5,-1662.03 1643,-1652.03 1639.5,-1662.03 1646.5,-1662.03"/>
<text text-anchor="middle" x="1652" y="-1707.34" font-family="Times,serif" font-size="12.00">tick</text>
</g>
<!-- 101 -->
<g id="node30" class="node">
<title>101</title>
<polygon fill="none" stroke="brown" stroke-width="2" points="2605.5,-1492.94 680.5,-1492.94 680.5,-1456.94 2605.5,-1456.94 2605.5,-1492.94"/>
<text text-anchor="middle" x="1643" y="-1478.34" font-family="Times,serif" font-size="12.00">active_rules((Payment2|&#45;&gt;borrower)) = 4,breached_by = {},rules = {rec(deontic:COb,event:rec(initial_timer_val:1,is_preemptive:TRUE,name:request_principal),name:RequestPrincipal,possible_actors:{borrower}),rec(deontic:COb,event:rec(initial_timer_val:2,is_preemptive:TRUE,name:cure_default),name:CureDefault,possible_actors:{borrower}),rec(deontic:COb,event:rec(initial_timer_val:10,is_p...,</text>
<text text-anchor="middle" x="1643" y="-1465.34" font-family="Times,serif" font-size="12.00">started = TRUE</text>
</g>
<!-- 97&#45;&gt;101 -->
<g id="edge29" class="edge">
<title>97&#45;&gt;101</title>
<path fill="none" stroke="brown" d="M1643,-1613.16C1643,-1586.65 1643,-1536.48 1643,-1504.71"/>
<polygon fill="brown" stroke="brown" points="1646.5,-1505.03 1643,-1495.03 1639.5,-1505.03 1646.5,-1505.03"/>
<text text-anchor="middle" x="1721" y="-1550.34" font-family="Times,serif" font-size="12.00">notify_borrower_timeout(lender)</text>
</g>
<!-- 104 -->
<g id="node31" class="node">
<title>104</title>
<polygon fill="none" stroke="brown" stroke-width="2" points="2605.5,-1335.94 680.5,-1335.94 680.5,-1299.94 2605.5,-1299.94 2605.5,-1335.94"/>
<text text-anchor="middle" x="1643" y="-1321.34" font-family="Times,serif" font-size="12.00">active_rules((Payment2|&#45;&gt;borrower)) = 3,breached_by = {},rules = {rec(deontic:COb,event:rec(initial_timer_val:1,is_preemptive:TRUE,name:request_principal),name:RequestPrincipal,possible_actors:{borrower}),rec(deontic:COb,event:rec(initial_timer_val:2,is_preemptive:TRUE,name:cure_default),name:CureDefault,possible_actors:{borrower}),rec(deontic:COb,event:rec(initial_timer_val:10,is_p...,</text>
<text text-anchor="middle" x="1643" y="-1308.34" font-family="Times,serif" font-size="12.00">started = TRUE</text>
</g>
<!-- 101&#45;&gt;104 -->
<g id="edge30" class="edge">
<title>101&#45;&gt;104</title>
<path fill="none" stroke="brown" d="M1643,-1456.16C1643,-1429.65 1643,-1379.48 1643,-1347.71"/>
<polygon fill="brown" stroke="brown" points="1646.5,-1348.03 1643,-1338.03 1639.5,-1348.03 1646.5,-1348.03"/>
<text text-anchor="middle" x="1652" y="-1393.34" font-family="Times,serif" font-size="12.00">tick</text>
</g>
<!-- 106 -->
<g id="node32" class="node">
<title>106</title>
<polygon fill="none" stroke="brown" stroke-width="2" points="2605.5,-1178.94 680.5,-1178.94 680.5,-1142.94 2605.5,-1142.94 2605.5,-1178.94"/>
<text text-anchor="middle" x="1643" y="-1164.34" font-family="Times,serif" font-size="12.00">active_rules((Payment2|&#45;&gt;borrower)) = 2,breached_by = {},rules = {rec(deontic:COb,event:rec(initial_timer_val:1,is_preemptive:TRUE,name:request_principal),name:RequestPrincipal,possible_actors:{borrower}),rec(deontic:COb,event:rec(initial_timer_val:2,is_preemptive:TRUE,name:cure_default),name:CureDefault,possible_actors:{borrower}),rec(deontic:COb,event:rec(initial_timer_val:10,is_p...,</text>
<text text-anchor="middle" x="1643" y="-1151.34" font-family="Times,serif" font-size="12.00">started = TRUE</text>
</g>
<!-- 104&#45;&gt;106 -->
<g id="edge31" class="edge">
<title>104&#45;&gt;106</title>
<path fill="none" stroke="brown" d="M1643,-1299.16C1643,-1272.65 1643,-1222.48 1643,-1190.71"/>
<polygon fill="brown" stroke="brown" points="1646.5,-1191.03 1643,-1181.03 1639.5,-1191.03 1646.5,-1191.03"/>
<text text-anchor="middle" x="1652" y="-1236.34" font-family="Times,serif" font-size="12.00">tick</text>
</g>
<!-- 107 -->
<g id="node33" class="node">
<title>107</title>
<polygon fill="none" stroke="brown" stroke-width="2" points="2605.5,-1021.94 680.5,-1021.94 680.5,-985.94 2605.5,-985.94 2605.5,-1021.94"/>
<text text-anchor="middle" x="1643" y="-1007.34" font-family="Times,serif" font-size="12.00">active_rules((Payment2|&#45;&gt;borrower)) = 1,breached_by = {},rules = {rec(deontic:COb,event:rec(initial_timer_val:1,is_preemptive:TRUE,name:request_principal),name:RequestPrincipal,possible_actors:{borrower}),rec(deontic:COb,event:rec(initial_timer_val:2,is_preemptive:TRUE,name:cure_default),name:CureDefault,possible_actors:{borrower}),rec(deontic:COb,event:rec(initial_timer_val:10,is_p...,</text>
<text text-anchor="middle" x="1643" y="-994.34" font-family="Times,serif" font-size="12.00">started = TRUE</text>
</g>
<!-- 106&#45;&gt;107 -->
<g id="edge32" class="edge">
<title>106&#45;&gt;107</title>
<path fill="none" stroke="brown" d="M1643,-1142.16C1643,-1115.65 1643,-1065.48 1643,-1033.71"/>
<polygon fill="brown" stroke="brown" points="1646.5,-1034.03 1643,-1024.03 1639.5,-1034.03 1646.5,-1034.03"/>
<text text-anchor="middle" x="1652" y="-1079.34" font-family="Times,serif" font-size="12.00">tick</text>
</g>
<!-- 108 -->
<g id="node34" class="node">
<title>108</title>
<polygon fill="none" stroke="brown" stroke-width="2" points="2605.5,-864.94 680.5,-864.94 680.5,-828.94 2605.5,-828.94 2605.5,-864.94"/>
<text text-anchor="middle" x="1643" y="-850.34" font-family="Times,serif" font-size="12.00">active_rules((Payment2|&#45;&gt;borrower)) = 0,breached_by = {},rules = {rec(deontic:COb,event:rec(initial_timer_val:1,is_preemptive:TRUE,name:request_principal),name:RequestPrincipal,possible_actors:{borrower}),rec(deontic:COb,event:rec(initial_timer_val:2,is_preemptive:TRUE,name:cure_default),name:CureDefault,possible_actors:{borrower}),rec(deontic:COb,event:rec(initial_timer_val:10,is_p...,</text>
<text text-anchor="middle" x="1643" y="-837.34" font-family="Times,serif" font-size="12.00">started = TRUE</text>
</g>
<!-- 107&#45;&gt;108 -->
<g id="edge33" class="edge">
<title>107&#45;&gt;108</title>
<path fill="none" stroke="brown" d="M1643,-985.16C1643,-958.65 1643,-908.48 1643,-876.71"/>
<polygon fill="brown" stroke="brown" points="1646.5,-877.03 1643,-867.03 1639.5,-877.03 1646.5,-877.03"/>
<text text-anchor="middle" x="1652" y="-922.34" font-family="Times,serif" font-size="12.00">tick</text>
</g>
<!-- 109 -->
<g id="node35" class="node">
<title>109</title>
<polygon fill="none" stroke="brown" stroke-width="2" points="2613,-707.94 673,-707.94 673,-671.94 2613,-671.94 2613,-707.94"/>
<text text-anchor="middle" x="1643" y="-693.34" font-family="Times,serif" font-size="12.00">active_rules((NotifyBorrower|&#45;&gt;lender)) = 3,breached_by = {},rules = {rec(deontic:COb,event:rec(initial_timer_val:1,is_preemptive:TRUE,name:request_principal),name:RequestPrincipal,possible_actors:{borrower}),rec(deontic:COb,event:rec(initial_timer_val:2,is_preemptive:TRUE,name:cure_default),name:CureDefault,possible_actors:{borrower}),rec(deontic:COb,event:rec(initial_timer_val:10,is_p...,</text>
<text text-anchor="middle" x="1643" y="-680.34" font-family="Times,serif" font-size="12.00">started = TRUE</text>
</g>
<!-- 108&#45;&gt;109 -->
<g id="edge34" class="edge">
<title>108&#45;&gt;109</title>
<path fill="none" stroke="brown" d="M1643,-828.16C1643,-801.65 1643,-751.48 1643,-719.71"/>
<polygon fill="brown" stroke="brown" points="1646.5,-720.03 1643,-710.03 1639.5,-720.03 1646.5,-720.03"/>
<text text-anchor="middle" x="1712.5" y="-765.34" font-family="Times,serif" font-size="12.00">payment2_timeout(borrower)</text>
</g>
<!-- 110 -->
<g id="node36" class="node">
<title>110</title>
<polygon fill="none" stroke="brown" stroke-width="2" points="2613,-550.94 673,-550.94 673,-514.94 2613,-514.94 2613,-550.94"/>
<text text-anchor="middle" x="1643" y="-536.34" font-family="Times,serif" font-size="12.00">active_rules((NotifyBorrower|&#45;&gt;lender)) = 2,breached_by = {},rules = {rec(deontic:COb,event:rec(initial_timer_val:1,is_preemptive:TRUE,name:request_principal),name:RequestPrincipal,possible_actors:{borrower}),rec(deontic:COb,event:rec(initial_timer_val:2,is_preemptive:TRUE,name:cure_default),name:CureDefault,possible_actors:{borrower}),rec(deontic:COb,event:rec(initial_timer_val:10,is_p...,</text>
<text text-anchor="middle" x="1643" y="-523.34" font-family="Times,serif" font-size="12.00">started = TRUE</text>
</g>
<!-- 109&#45;&gt;110 -->
<g id="edge35" class="edge">
<title>109&#45;&gt;110</title>
<path fill="none" stroke="brown" d="M1643,-671.16C1643,-644.65 1643,-594.48 1643,-562.71"/>
<polygon fill="brown" stroke="brown" points="1646.5,-563.03 1643,-553.03 1639.5,-563.03 1646.5,-563.03"/>
<text text-anchor="middle" x="1652" y="-608.34" font-family="Times,serif" font-size="12.00">tick</text>
</g>
<!-- 112 -->
<g id="node37" class="node">
<title>112</title>
<polygon fill="none" stroke="brown" stroke-width="2" points="2613,-393.94 673,-393.94 673,-357.94 2613,-357.94 2613,-393.94"/>
<text text-anchor="middle" x="1643" y="-379.34" font-family="Times,serif" font-size="12.00">active_rules((NotifyBorrower|&#45;&gt;lender)) = 1,breached_by = {},rules = {rec(deontic:COb,event:rec(initial_timer_val:1,is_preemptive:TRUE,name:request_principal),name:RequestPrincipal,possible_actors:{borrower}),rec(deontic:COb,event:rec(initial_timer_val:2,is_preemptive:TRUE,name:cure_default),name:CureDefault,possible_actors:{borrower}),rec(deontic:COb,event:rec(initial_timer_val:10,is_p...,</text>
<text text-anchor="middle" x="1643" y="-366.34" font-family="Times,serif" font-size="12.00">started = TRUE</text>
</g>
<!-- 110&#45;&gt;112 -->
<g id="edge36" class="edge">
<title>110&#45;&gt;112</title>
<path fill="none" stroke="brown" d="M1643,-514.16C1643,-487.65 1643,-437.48 1643,-405.71"/>
<polygon fill="brown" stroke="brown" points="1646.5,-406.03 1643,-396.03 1639.5,-406.03 1646.5,-406.03"/>
<text text-anchor="middle" x="1652" y="-451.34" font-family="Times,serif" font-size="12.00">tick</text>
</g>
<!-- 114 -->
<g id="node38" class="node">
<title>114</title>
<polygon fill="none" stroke="brown" stroke-width="2" points="2613,-236.94 673,-236.94 673,-200.94 2613,-200.94 2613,-236.94"/>
<text text-anchor="middle" x="1643" y="-222.34" font-family="Times,serif" font-size="12.00">active_rules((NotifyBorrower|&#45;&gt;lender)) = 0,breached_by = {},rules = {rec(deontic:COb,event:rec(initial_timer_val:1,is_preemptive:TRUE,name:request_principal),name:RequestPrincipal,possible_actors:{borrower}),rec(deontic:COb,event:rec(initial_timer_val:2,is_preemptive:TRUE,name:cure_default),name:CureDefault,possible_actors:{borrower}),rec(deontic:COb,event:rec(initial_timer_val:10,is_p...,</text>
<text text-anchor="middle" x="1643" y="-209.34" font-family="Times,serif" font-size="12.00">started = TRUE</text>
</g>
<!-- 112&#45;&gt;114 -->
<g id="edge37" class="edge">
<title>112&#45;&gt;114</title>
<path fill="none" stroke="brown" d="M1643,-357.16C1643,-330.65 1643,-280.48 1643,-248.71"/>
<polygon fill="brown" stroke="brown" points="1646.5,-249.03 1643,-239.03 1639.5,-249.03 1646.5,-249.03"/>
<text text-anchor="middle" x="1652" y="-294.34" font-family="Times,serif" font-size="12.00">tick</text>
</g>
<!-- 114&#45;&gt;5 -->
<g id="edge38" class="edge">
<title>114&#45;&gt;5</title>
<path fill="none" stroke="brown" d="M1643,-200C1643,-174.95 1643,-128.47 1643,-92.21"/>
<polygon fill="brown" stroke="brown" points="1646.5,-92.35 1643,-82.35 1639.5,-92.35 1646.5,-92.35"/>
<text text-anchor="middle" x="1721" y="-137.34" font-family="Times,serif" font-size="12.00">notify_borrower_timeout(lender)</text>
</g>
<!-- root -->
<g id="node39" class="node">
<title>root</title>
<polygon fill="none" stroke="brown" stroke-width="2" points="1643,-6009.94 1686.18,-6041.44 1599.82,-6041.44 1643,-6009.94"/>
<text text-anchor="middle" x="1643" y="-6027.84" font-family="Times,serif" font-size="12.00">root</text>
</g>
<!-- root&#45;&gt;0 -->
<g id="edge1" class="edge">
<title>root&#45;&gt;0</title>
<path fill="none" stroke="black" stroke-dasharray="1,5" d="M1643,-6008.96C1643,-5981.25 1643,-5932.3 1643,-5901.03"/>
<polygon fill="black" stroke="black" points="1646.5,-5901.11 1643,-5891.11 1639.5,-5901.11 1646.5,-5901.11"/>
<text text-anchor="middle" x="1700.5" y="-5946.34" font-family="Times,serif" font-size="12.00">SETUP_CONSTANTS</text>
</g>
</g>
</svg>
