<?xml version="1.0" encoding="UTF-8" standalone="no"?>
<!DOCTYPE svg PUBLIC "-//W3C//DTD SVG 1.1//EN"
 "http://www.w3.org/Graphics/SVG/1.1/DTD/svg11.dtd">
<!-- Generated by graphviz version 7.1.0 (0)
 -->
<!-- Pages: 1 -->
<svg width="1026pt" height="3353pt"
 viewBox="0.00 0.00 1026.00 3352.53" xmlns="http://www.w3.org/2000/svg" xmlns:xlink="http://www.w3.org/1999/xlink">
<g id="graph0" class="graph" transform="scale(1 1) rotate(0) translate(4 3348.53)">
<polygon fill="white" stroke="none" points="-4,4 -4,-3348.53 1022,-3348.53 1022,4 -4,4"/>
<!-- 0 -->
<g id="node1" class="node">
<title>0</title>
<ellipse fill="none" stroke="black" cx="248" cy="-3263.92" rx="73.58" ry="80.72"/>
<text text-anchor="middle" x="248" y="-3289.72" font-family="Times,serif" font-size="14.00">&lt; &#39;J : Jug |</text>
<text text-anchor="middle" x="248" y="-3274.72" font-family="Times,serif" font-size="14.00"> &#160;currCap : 0,</text>
<text text-anchor="middle" x="248" y="-3259.72" font-family="Times,serif" font-size="14.00"> &#160;maxCap : 3 &gt; </text>
<text text-anchor="middle" x="248" y="-3244.72" font-family="Times,serif" font-size="14.00">&lt; &#39;J : Jug |</text>
<text text-anchor="middle" x="248" y="-3229.72" font-family="Times,serif" font-size="14.00"> &#160;currCap : 0,</text>
<text text-anchor="middle" x="248" y="-3214.72" font-family="Times,serif" font-size="14.00"> &#160;maxCap : 5 &gt;</text>
</g>
<!-- 1 -->
<g id="node2" class="node">
<title>1</title>
<ellipse fill="none" stroke="black" cx="248" cy="-3051.7" rx="73.58" ry="80.72"/>
<text text-anchor="middle" x="248" y="-3077.5" font-family="Times,serif" font-size="14.00">&lt; &#39;J : Jug |</text>
<text text-anchor="middle" x="248" y="-3062.5" font-family="Times,serif" font-size="14.00"> &#160;currCap : 0,</text>
<text text-anchor="middle" x="248" y="-3047.5" font-family="Times,serif" font-size="14.00"> &#160;maxCap : 3 &gt; </text>
<text text-anchor="middle" x="248" y="-3032.5" font-family="Times,serif" font-size="14.00">&lt; &#39;J : Jug |</text>
<text text-anchor="middle" x="248" y="-3017.5" font-family="Times,serif" font-size="14.00"> &#160;currCap : 0,</text>
<text text-anchor="middle" x="248" y="-3002.5" font-family="Times,serif" font-size="14.00"> &#160;maxCap : 5 &gt;</text>
</g>
<!-- 0&#45;&gt;1 -->
<g id="edge1" class="edge">
<title>0&#45;&gt;1</title>
<path fill="none" stroke="black" d="M248,-3182.84C248,-3170.19 248,-3157.02 248,-3144.13"/>
<polygon fill="black" stroke="black" points="251.5,-3144.41 248,-3134.41 244.5,-3144.41 251.5,-3144.41"/>
<text text-anchor="middle" x="276.5" y="-3154.11" font-family="Times,serif" font-size="14.00">empty&#45;jug</text>
</g>
<!-- 2 -->
<g id="node3" class="node">
<title>2</title>
<ellipse fill="none" stroke="black" cx="618" cy="-2839.47" rx="73.58" ry="80.72"/>
<text text-anchor="middle" x="618" y="-2865.27" font-family="Times,serif" font-size="14.00">&lt; &#39;J : Jug |</text>
<text text-anchor="middle" x="618" y="-2850.27" font-family="Times,serif" font-size="14.00"> &#160;currCap : 0,</text>
<text text-anchor="middle" x="618" y="-2835.27" font-family="Times,serif" font-size="14.00"> &#160;maxCap : 5 &gt; </text>
<text text-anchor="middle" x="618" y="-2820.27" font-family="Times,serif" font-size="14.00">&lt; &#39;J : Jug |</text>
<text text-anchor="middle" x="618" y="-2805.27" font-family="Times,serif" font-size="14.00"> &#160;currCap : 3,</text>
<text text-anchor="middle" x="618" y="-2790.27" font-family="Times,serif" font-size="14.00"> &#160;maxCap : 3 &gt;</text>
</g>
<!-- 0&#45;&gt;2 -->
<g id="edge68" class="edge">
<title>0&#45;&gt;2</title>
<path fill="none" stroke="black" d="M308.46,-3217.62C378.84,-3162.14 494.54,-3062 566,-2953.08 572.03,-2943.9 577.71,-2933.91 582.96,-2923.79"/>
<polygon fill="black" stroke="black" points="586.01,-2925.52 587.38,-2915.01 579.76,-2922.38 586.01,-2925.52"/>
<text text-anchor="middle" x="569" y="-3048" font-family="Times,serif" font-size="14.00">fill&#45;jug</text>
</g>
<!-- 7 -->
<g id="node8" class="node">
<title>7</title>
<ellipse fill="none" stroke="black" cx="305" cy="-1141.71" rx="73.58" ry="80.72"/>
<text text-anchor="middle" x="305" y="-1167.51" font-family="Times,serif" font-size="14.00">&lt; &#39;J : Jug |</text>
<text text-anchor="middle" x="305" y="-1152.51" font-family="Times,serif" font-size="14.00"> &#160;currCap : 0,</text>
<text text-anchor="middle" x="305" y="-1137.51" font-family="Times,serif" font-size="14.00"> &#160;maxCap : 3 &gt; </text>
<text text-anchor="middle" x="305" y="-1122.51" font-family="Times,serif" font-size="14.00">&lt; &#39;J : Jug |</text>
<text text-anchor="middle" x="305" y="-1107.51" font-family="Times,serif" font-size="14.00"> &#160;currCap : 5,</text>
<text text-anchor="middle" x="305" y="-1092.51" font-family="Times,serif" font-size="14.00"> &#160;maxCap : 5 &gt;</text>
</g>
<!-- 0&#45;&gt;7 -->
<g id="edge69" class="edge">
<title>0&#45;&gt;7</title>
<path fill="none" stroke="black" d="M177.93,-3238.12C104.59,-3207.15 0,-3146.53 0,-3052.7 0,-3052.7 0,-3052.7 0,-1352.93 0,-1244.89 131.34,-1188.12 221.65,-1161.86"/>
<polygon fill="black" stroke="black" points="222.59,-1165.23 231.26,-1159.14 220.69,-1158.49 222.59,-1165.23"/>
<text text-anchor="middle" x="19" y="-2199.11" font-family="Times,serif" font-size="14.00">fill&#45;jug</text>
</g>
<!-- 1&#45;&gt;1 -->
<g id="edge2" class="edge">
<title>1&#45;&gt;1</title>
<path fill="none" stroke="black" d="M320.14,-3070.02C331.66,-3067.34 339.54,-3061.23 339.54,-3051.7 339.54,-3045.44 336.14,-3040.66 330.56,-3037.35"/>
<polygon fill="black" stroke="black" points="332.15,-3034.21 321.56,-3033.91 329.65,-3040.75 332.15,-3034.21"/>
<text text-anchor="middle" x="368.04" y="-3048" font-family="Times,serif" font-size="14.00">empty&#45;jug</text>
</g>
<!-- 1&#45;&gt;2 -->
<g id="edge3" class="edge">
<title>1&#45;&gt;2</title>
<path fill="none" stroke="black" d="M313.3,-3013.6C377.56,-2977.08 475.6,-2921.38 543.02,-2883.08"/>
<polygon fill="black" stroke="black" points="544.45,-2886.29 551.42,-2878.3 541,-2880.2 544.45,-2886.29"/>
<text text-anchor="middle" x="463" y="-2941.88" font-family="Times,serif" font-size="14.00">fill&#45;jug</text>
</g>
<!-- 1&#45;&gt;7 -->
<g id="edge67" class="edge">
<title>1&#45;&gt;7</title>
<path fill="none" stroke="black" d="M183.58,-3012.04C131.22,-2975.2 66,-2914.45 66,-2840.47 66,-2840.47 66,-2840.47 66,-1352.93 66,-1266.16 155.92,-1206.74 225.45,-1173.77"/>
<polygon fill="black" stroke="black" points="226.57,-1177.11 234.18,-1169.73 223.63,-1170.76 226.57,-1177.11"/>
<text text-anchor="middle" x="85" y="-2093" font-family="Times,serif" font-size="14.00">fill&#45;jug</text>
</g>
<!-- 2&#45;&gt;1 -->
<g id="edge66" class="edge">
<title>2&#45;&gt;1</title>
<path fill="none" stroke="black" d="M563.23,-2894.03C540.58,-2914.29 513.26,-2936.46 486,-2953.08 436.92,-2983.02 377.03,-3007.53 329.6,-3024.5"/>
<polygon fill="black" stroke="black" points="328.45,-3021.2 320.18,-3027.83 330.78,-3027.8 328.45,-3021.2"/>
<text text-anchor="middle" x="533.5" y="-2941.88" font-family="Times,serif" font-size="14.00">empty&#45;jug</text>
</g>
<!-- 2&#45;&gt;2 -->
<g id="edge4" class="edge">
<title>2&#45;&gt;2</title>
<path fill="none" stroke="black" d="M690.14,-2857.8C701.66,-2855.12 709.54,-2849.01 709.54,-2839.47 709.54,-2833.22 706.14,-2828.44 700.56,-2825.13"/>
<polygon fill="black" stroke="black" points="702.15,-2821.99 691.56,-2821.69 699.65,-2828.53 702.15,-2821.99"/>
<text text-anchor="middle" x="728.54" y="-2835.77" font-family="Times,serif" font-size="14.00">fill&#45;jug</text>
</g>
<!-- 3 -->
<g id="node4" class="node">
<title>3</title>
<ellipse fill="none" stroke="black" cx="422" cy="-2627.25" rx="73.58" ry="80.72"/>
<text text-anchor="middle" x="422" y="-2653.05" font-family="Times,serif" font-size="14.00">&lt; &#39;J : Jug |</text>
<text text-anchor="middle" x="422" y="-2638.05" font-family="Times,serif" font-size="14.00"> &#160;currCap : 0,</text>
<text text-anchor="middle" x="422" y="-2623.05" font-family="Times,serif" font-size="14.00"> &#160;maxCap : 3 &gt; </text>
<text text-anchor="middle" x="422" y="-2608.05" font-family="Times,serif" font-size="14.00">&lt; &#39;J : Jug |</text>
<text text-anchor="middle" x="422" y="-2593.05" font-family="Times,serif" font-size="14.00"> &#160;currCap : 3,</text>
<text text-anchor="middle" x="422" y="-2578.05" font-family="Times,serif" font-size="14.00"> &#160;maxCap : 5 &gt;</text>
</g>
<!-- 2&#45;&gt;3 -->
<g id="edge5" class="edge">
<title>2&#45;&gt;3</title>
<path fill="none" stroke="black" d="M546.18,-2820.88C504.29,-2806.62 454.61,-2781.95 428,-2740.86 423.7,-2734.22 420.6,-2726.86 418.44,-2719.19"/>
<polygon fill="black" stroke="black" points="421.91,-2718.64 416.31,-2709.64 415.07,-2720.16 421.91,-2718.64"/>
<text text-anchor="middle" x="460.5" y="-2729.66" font-family="Times,serif" font-size="14.00">transfer&#45;full</text>
</g>
<!-- 6 -->
<g id="node7" class="node">
<title>6</title>
<ellipse fill="none" stroke="black" cx="587" cy="-1353.93" rx="73.58" ry="80.72"/>
<text text-anchor="middle" x="587" y="-1379.73" font-family="Times,serif" font-size="14.00">&lt; &#39;J : Jug |</text>
<text text-anchor="middle" x="587" y="-1364.73" font-family="Times,serif" font-size="14.00"> &#160;currCap : 3,</text>
<text text-anchor="middle" x="587" y="-1349.73" font-family="Times,serif" font-size="14.00"> &#160;maxCap : 3 &gt; </text>
<text text-anchor="middle" x="587" y="-1334.73" font-family="Times,serif" font-size="14.00">&lt; &#39;J : Jug |</text>
<text text-anchor="middle" x="587" y="-1319.73" font-family="Times,serif" font-size="14.00"> &#160;currCap : 5,</text>
<text text-anchor="middle" x="587" y="-1304.73" font-family="Times,serif" font-size="14.00"> &#160;maxCap : 5 &gt;</text>
</g>
<!-- 2&#45;&gt;6 -->
<g id="edge65" class="edge">
<title>2&#45;&gt;6</title>
<path fill="none" stroke="black" d="M664.13,-2776.61C689.55,-2736.46 716,-2681.81 716,-2628.25 716,-2628.25 716,-2628.25 716,-2307.92 716,-2225.11 717.55,-2203.34 701,-2122.2 699.31,-2113.94 697.04,-2112.39 695,-2104.2 682.72,-2054.96 676,-2042.35 676,-1991.59 676,-1991.59 676,-1991.59 676,-1565.15 676,-1517.47 656.34,-1468.18 635.51,-1429.32"/>
<polygon fill="black" stroke="black" points="638.82,-1428.07 630.93,-1421 632.68,-1431.45 638.82,-1428.07"/>
<text text-anchor="middle" x="714" y="-2093" font-family="Times,serif" font-size="14.00">fill&#45;jug</text>
</g>
<!-- 3&#45;&gt;1 -->
<g id="edge64" class="edge">
<title>3&#45;&gt;1</title>
<path fill="none" stroke="black" d="M391.97,-2701.17C361.46,-2775.23 314.28,-2889.77 282.32,-2967.37"/>
<polygon fill="black" stroke="black" points="279.26,-2965.61 278.69,-2976.19 285.73,-2968.28 279.26,-2965.61"/>
<text text-anchor="middle" x="395.5" y="-2835.77" font-family="Times,serif" font-size="14.00">empty&#45;jug</text>
</g>
<!-- 3&#45;&gt;2 -->
<g id="edge7" class="edge">
<title>3&#45;&gt;2</title>
<path fill="none" stroke="black" d="M471.83,-2687.11C487.04,-2704.64 503.98,-2723.73 520,-2740.86 531.13,-2752.77 543.24,-2765.21 555.03,-2777.08"/>
<polygon fill="black" stroke="black" points="552.52,-2779.52 562.06,-2784.12 557.47,-2774.57 552.52,-2779.52"/>
<text text-anchor="middle" x="552.5" y="-2729.66" font-family="Times,serif" font-size="14.00">transfer&#45;full</text>
</g>
<!-- 3&#45;&gt;3 -->
<g id="edge6" class="edge">
<title>3&#45;&gt;3</title>
<path fill="none" stroke="black" d="M494.14,-2645.58C505.66,-2642.89 513.54,-2636.79 513.54,-2627.25 513.54,-2621 510.14,-2616.22 504.56,-2612.91"/>
<polygon fill="black" stroke="black" points="506.15,-2609.77 495.56,-2609.47 503.65,-2616.31 506.15,-2609.77"/>
<text text-anchor="middle" x="542.04" y="-2623.55" font-family="Times,serif" font-size="14.00">empty&#45;jug</text>
</g>
<!-- 4 -->
<g id="node5" class="node">
<title>4</title>
<ellipse fill="none" stroke="black" cx="401" cy="-2415.03" rx="73.58" ry="80.72"/>
<text text-anchor="middle" x="401" y="-2440.83" font-family="Times,serif" font-size="14.00">&lt; &#39;J : Jug |</text>
<text text-anchor="middle" x="401" y="-2425.83" font-family="Times,serif" font-size="14.00"> &#160;currCap : 3,</text>
<text text-anchor="middle" x="401" y="-2410.83" font-family="Times,serif" font-size="14.00"> &#160;maxCap : 3 &gt; </text>
<text text-anchor="middle" x="401" y="-2395.83" font-family="Times,serif" font-size="14.00">&lt; &#39;J : Jug |</text>
<text text-anchor="middle" x="401" y="-2380.83" font-family="Times,serif" font-size="14.00"> &#160;currCap : 3,</text>
<text text-anchor="middle" x="401" y="-2365.83" font-family="Times,serif" font-size="14.00"> &#160;maxCap : 5 &gt;</text>
</g>
<!-- 3&#45;&gt;4 -->
<g id="edge8" class="edge">
<title>3&#45;&gt;4</title>
<path fill="none" stroke="black" d="M389.06,-2554.73C386.17,-2546.09 383.7,-2537.27 382,-2528.64 380.45,-2520.75 379.86,-2512.54 379.98,-2504.29"/>
<polygon fill="black" stroke="black" points="383.46,-2504.74 380.47,-2494.58 376.47,-2504.39 383.46,-2504.74"/>
<text text-anchor="middle" x="401" y="-2517.44" font-family="Times,serif" font-size="14.00">fill&#45;jug</text>
</g>
<!-- 3&#45;&gt;7 -->
<g id="edge63" class="edge">
<title>3&#45;&gt;7</title>
<path fill="none" stroke="black" d="M368.68,-2571.41C350.03,-2549.42 330.61,-2522.86 318,-2495.64 249.97,-2348.83 187,-1941.18 187,-1779.37 187,-1779.37 187,-1779.37 187,-1352.93 187,-1299.24 216.64,-1246.56 246.21,-1207.37"/>
<polygon fill="black" stroke="black" points="248.62,-1209.96 251.97,-1199.91 243.09,-1205.68 248.62,-1209.96"/>
<text text-anchor="middle" x="212" y="-1880.78" font-family="Times,serif" font-size="14.00">fill&#45;jug</text>
</g>
<!-- 4&#45;&gt;2 -->
<g id="edge62" class="edge">
<title>4&#45;&gt;2</title>
<path fill="none" stroke="black" d="M341.86,-2463.41C318.52,-2485.86 294.35,-2514.75 282,-2546.64 256.13,-2613.46 240.52,-2649.44 282,-2707.86 321.79,-2763.91 363.83,-2734.24 428,-2758.86 464.92,-2773.03 505.39,-2789.81 539.45,-2804.3"/>
<polygon fill="black" stroke="black" points="537.85,-2807.42 548.42,-2808.13 540.59,-2800.98 537.85,-2807.42"/>
<text text-anchor="middle" x="310.5" y="-2623.55" font-family="Times,serif" font-size="14.00">empty&#45;jug</text>
</g>
<!-- 4&#45;&gt;3 -->
<g id="edge60" class="edge">
<title>4&#45;&gt;3</title>
<path fill="none" stroke="black" d="M417.45,-2494.17C418.46,-2500.74 419.33,-2507.29 420,-2513.64 420.73,-2520.54 421.29,-2527.68 421.72,-2534.87"/>
<polygon fill="black" stroke="black" points="418.22,-2534.85 422.22,-2544.66 425.21,-2534.5 418.22,-2534.85"/>
<text text-anchor="middle" x="450.5" y="-2517.44" font-family="Times,serif" font-size="14.00">empty&#45;jug</text>
</g>
<!-- 4&#45;&gt;4 -->
<g id="edge59" class="edge">
<title>4&#45;&gt;4</title>
<path fill="none" stroke="black" d="M473.14,-2433.36C484.66,-2430.67 492.54,-2424.57 492.54,-2415.03 492.54,-2408.78 489.14,-2404 483.56,-2400.69"/>
<polygon fill="black" stroke="black" points="485.15,-2397.55 474.56,-2397.25 482.65,-2404.09 485.15,-2397.55"/>
<text text-anchor="middle" x="511.54" y="-2411.33" font-family="Times,serif" font-size="14.00">fill&#45;jug</text>
</g>
<!-- 5 -->
<g id="node6" class="node">
<title>5</title>
<ellipse fill="none" stroke="black" cx="389" cy="-2202.81" rx="73.58" ry="80.72"/>
<text text-anchor="middle" x="389" y="-2228.61" font-family="Times,serif" font-size="14.00">&lt; &#39;J : Jug |</text>
<text text-anchor="middle" x="389" y="-2213.61" font-family="Times,serif" font-size="14.00"> &#160;currCap : 1,</text>
<text text-anchor="middle" x="389" y="-2198.61" font-family="Times,serif" font-size="14.00"> &#160;maxCap : 3 &gt; </text>
<text text-anchor="middle" x="389" y="-2183.61" font-family="Times,serif" font-size="14.00">&lt; &#39;J : Jug |</text>
<text text-anchor="middle" x="389" y="-2168.61" font-family="Times,serif" font-size="14.00"> &#160;currCap : 5,</text>
<text text-anchor="middle" x="389" y="-2153.61" font-family="Times,serif" font-size="14.00"> &#160;maxCap : 5 &gt;</text>
</g>
<!-- 4&#45;&gt;5 -->
<g id="edge9" class="edge">
<title>4&#45;&gt;5</title>
<path fill="none" stroke="black" d="M358.97,-2348.43C354.04,-2338.07 349.78,-2327.21 347,-2316.42 344.09,-2305.17 344.44,-2293.48 346.76,-2282.08"/>
<polygon fill="black" stroke="black" points="350.07,-2283.29 349.18,-2272.73 343.29,-2281.54 350.07,-2283.29"/>
<text text-anchor="middle" x="387.5" y="-2305.22" font-family="Times,serif" font-size="14.00">transfer&#45;partial</text>
</g>
<!-- 4&#45;&gt;6 -->
<g id="edge61" class="edge">
<title>4&#45;&gt;6</title>
<path fill="none" stroke="black" d="M462.81,-2370.45C481.44,-2355.03 500.71,-2336.48 515,-2316.42 524.15,-2303.58 524.02,-2298.68 528,-2283.42 576.13,-2099.21 572.89,-2048.92 586,-1858.98 595.93,-1715.03 593.49,-1547.39 590.48,-1446.31"/>
<polygon fill="black" stroke="black" points="593.99,-1446.33 590.18,-1436.44 586.99,-1446.54 593.99,-1446.33"/>
<text text-anchor="middle" x="603" y="-1880.78" font-family="Times,serif" font-size="14.00">fill&#45;jug</text>
</g>
<!-- 5&#45;&gt;4 -->
<g id="edge11" class="edge">
<title>5&#45;&gt;4</title>
<path fill="none" stroke="black" d="M421.21,-2275.65C423.99,-2284.2 426.36,-2292.91 428,-2301.42 429.67,-2310.1 429.97,-2319.12 429.32,-2328.1"/>
<polygon fill="black" stroke="black" points="425.86,-2327.59 428.2,-2337.93 432.81,-2328.39 425.86,-2327.59"/>
<text text-anchor="middle" x="470.5" y="-2305.22" font-family="Times,serif" font-size="14.00">transfer&#45;partial</text>
</g>
<!-- 5&#45;&gt;5 -->
<g id="edge10" class="edge">
<title>5&#45;&gt;5</title>
<path fill="none" stroke="black" d="M461.14,-2221.14C472.66,-2218.45 480.54,-2212.35 480.54,-2202.81 480.54,-2196.56 477.14,-2191.78 471.56,-2188.47"/>
<polygon fill="black" stroke="black" points="473.15,-2185.33 462.56,-2185.03 470.65,-2191.87 473.15,-2185.33"/>
<text text-anchor="middle" x="499.54" y="-2199.11" font-family="Times,serif" font-size="14.00">fill&#45;jug</text>
</g>
<!-- 5&#45;&gt;6 -->
<g id="edge12" class="edge">
<title>5&#45;&gt;6</title>
<path fill="none" stroke="black" d="M451.16,-2159.14C478.86,-2136.49 508.84,-2106.11 525,-2071.2 559.93,-1995.75 540.74,-1780.59 548,-1697.76 555.52,-1611.98 566.89,-1514.44 575.42,-1445.39"/>
<polygon fill="black" stroke="black" points="578.87,-1445.99 576.63,-1435.64 571.92,-1445.13 578.87,-1445.99"/>
<text text-anchor="middle" x="567" y="-1774.67" font-family="Times,serif" font-size="14.00">fill&#45;jug</text>
</g>
<!-- 5&#45;&gt;7 -->
<g id="edge41" class="edge">
<title>5&#45;&gt;7</title>
<path fill="none" stroke="black" d="M334.56,-2148.18C315.42,-2126.15 295.76,-2099.24 284,-2071.2 163.29,-1783.46 237.09,-1400.15 280.29,-1230.2"/>
<polygon fill="black" stroke="black" points="283.68,-1231.09 282.78,-1220.54 276.9,-1229.35 283.68,-1231.09"/>
<text text-anchor="middle" x="247.5" y="-1668.56" font-family="Times,serif" font-size="14.00">empty&#45;jug</text>
</g>
<!-- 13 -->
<g id="node14" class="node">
<title>13</title>
<ellipse fill="none" stroke="black" cx="367" cy="-1990.59" rx="73.58" ry="80.72"/>
<text text-anchor="middle" x="367" y="-2016.39" font-family="Times,serif" font-size="14.00">&lt; &#39;J : Jug |</text>
<text text-anchor="middle" x="367" y="-2001.39" font-family="Times,serif" font-size="14.00"> &#160;currCap : 0,</text>
<text text-anchor="middle" x="367" y="-1986.39" font-family="Times,serif" font-size="14.00"> &#160;maxCap : 5 &gt; </text>
<text text-anchor="middle" x="367" y="-1971.39" font-family="Times,serif" font-size="14.00">&lt; &#39;J : Jug |</text>
<text text-anchor="middle" x="367" y="-1956.39" font-family="Times,serif" font-size="14.00"> &#160;currCap : 1,</text>
<text text-anchor="middle" x="367" y="-1941.39" font-family="Times,serif" font-size="14.00"> &#160;maxCap : 3 &gt;</text>
</g>
<!-- 5&#45;&gt;13 -->
<g id="edge42" class="edge">
<title>5&#45;&gt;13</title>
<path fill="none" stroke="black" d="M387.6,-2121.74C386.99,-2110.79 386.15,-2099.7 385,-2089.2 384.71,-2086.53 384.38,-2083.82 384.03,-2081.09"/>
<polygon fill="black" stroke="black" points="387.51,-2080.68 382.67,-2071.26 380.58,-2081.65 387.51,-2080.68"/>
<text text-anchor="middle" x="415.5" y="-2093" font-family="Times,serif" font-size="14.00">empty&#45;jug</text>
</g>
<!-- 6&#45;&gt;2 -->
<g id="edge40" class="edge">
<title>6&#45;&gt;2</title>
<path fill="none" stroke="black" d="M646.28,-1401.76C688.21,-1440.52 737,-1499.69 737,-1565.15 737,-1991.59 737,-1991.59 737,-1991.59 737,-2041.64 735.82,-2054.2 738,-2104.2 741.96,-2194.94 754,-2217.1 754,-2307.92 754,-2628.25 754,-2628.25 754,-2628.25 754,-2679.43 755.96,-2696.76 730,-2740.86 719.51,-2758.68 704.61,-2774.91 689.09,-2788.8"/>
<polygon fill="black" stroke="black" points="686.86,-2786.1 681.58,-2795.28 691.43,-2791.4 686.86,-2786.1"/>
<text text-anchor="middle" x="766.5" y="-2093" font-family="Times,serif" font-size="14.00">empty&#45;jug</text>
</g>
<!-- 6&#45;&gt;6 -->
<g id="edge13" class="edge">
<title>6&#45;&gt;6</title>
<path fill="none" stroke="black" d="M659.14,-1372.25C670.66,-1369.57 678.54,-1363.47 678.54,-1353.93 678.54,-1347.68 675.14,-1342.9 669.56,-1339.59"/>
<polygon fill="black" stroke="black" points="671.15,-1336.45 660.56,-1336.15 668.65,-1342.99 671.15,-1336.45"/>
<text text-anchor="middle" x="697.54" y="-1350.23" font-family="Times,serif" font-size="14.00">fill&#45;jug</text>
</g>
<!-- 6&#45;&gt;7 -->
<g id="edge14" class="edge">
<title>6&#45;&gt;7</title>
<path fill="none" stroke="black" d="M536.23,-1295.51C526.57,-1287.07 516.01,-1279.24 505,-1273.32 472.14,-1255.65 455.94,-1272.85 423,-1255.32 401.11,-1243.67 380.38,-1226.81 362.59,-1209.67"/>
<polygon fill="black" stroke="black" points="365.27,-1207.4 355.7,-1202.86 360.35,-1212.38 365.27,-1207.4"/>
<text text-anchor="middle" x="451.5" y="-1244.12" font-family="Times,serif" font-size="14.00">empty&#45;jug</text>
</g>
<!-- 7&#45;&gt;1 -->
<g id="edge39" class="edge">
<title>7&#45;&gt;1</title>
<path fill="none" stroke="black" d="M240.99,-1182.43C189.96,-1219.56 127,-1280.12 127,-1352.93 127,-1991.59 127,-1991.59 127,-1991.59 127,-2226.54 118,-2285.2 118,-2520.14 118,-2840.47 118,-2840.47 118,-2840.47 118,-2896.73 152.09,-2950.49 185.35,-2989.56"/>
<polygon fill="black" stroke="black" points="182.66,-2991.8 191.87,-2997.03 187.93,-2987.2 182.66,-2991.8"/>
<text text-anchor="middle" x="155.5" y="-2093" font-family="Times,serif" font-size="14.00">empty&#45;jug</text>
</g>
<!-- 7&#45;&gt;6 -->
<g id="edge38" class="edge">
<title>7&#45;&gt;6</title>
<path fill="none" stroke="black" d="M372.77,-1174.42C406.5,-1191.68 447.02,-1214.73 480,-1240.32 497.24,-1253.7 514.27,-1269.86 529.5,-1285.72"/>
<polygon fill="black" stroke="black" points="526.84,-1288 536.25,-1292.87 531.93,-1283.2 526.84,-1288"/>
<text text-anchor="middle" x="515" y="-1244.12" font-family="Times,serif" font-size="14.00">fill&#45;jug</text>
</g>
<!-- 7&#45;&gt;7 -->
<g id="edge15" class="edge">
<title>7&#45;&gt;7</title>
<path fill="none" stroke="black" d="M377.14,-1160.03C388.66,-1157.35 396.54,-1151.25 396.54,-1141.71 396.54,-1135.46 393.14,-1130.67 387.56,-1127.37"/>
<polygon fill="black" stroke="black" points="389.15,-1124.23 378.56,-1123.93 386.65,-1130.77 389.15,-1124.23"/>
<text text-anchor="middle" x="415.54" y="-1138.01" font-family="Times,serif" font-size="14.00">fill&#45;jug</text>
</g>
<!-- 8 -->
<g id="node9" class="node">
<title>8</title>
<ellipse fill="none" stroke="black" cx="536" cy="-929.49" rx="73.58" ry="80.72"/>
<text text-anchor="middle" x="536" y="-955.29" font-family="Times,serif" font-size="14.00">&lt; &#39;J : Jug |</text>
<text text-anchor="middle" x="536" y="-940.29" font-family="Times,serif" font-size="14.00"> &#160;currCap : 2,</text>
<text text-anchor="middle" x="536" y="-925.29" font-family="Times,serif" font-size="14.00"> &#160;maxCap : 5 &gt; </text>
<text text-anchor="middle" x="536" y="-910.29" font-family="Times,serif" font-size="14.00">&lt; &#39;J : Jug |</text>
<text text-anchor="middle" x="536" y="-895.29" font-family="Times,serif" font-size="14.00"> &#160;currCap : 3,</text>
<text text-anchor="middle" x="536" y="-880.29" font-family="Times,serif" font-size="14.00"> &#160;maxCap : 3 &gt;</text>
</g>
<!-- 7&#45;&gt;8 -->
<g id="edge16" class="edge">
<title>7&#45;&gt;8</title>
<path fill="none" stroke="black" d="M371.26,-1106.26C399.83,-1089.51 432.47,-1067.69 458,-1043.1 469.17,-1032.35 479.7,-1019.77 489.21,-1007"/>
<polygon fill="black" stroke="black" points="492.03,-1009.07 495.05,-998.91 486.36,-1004.97 492.03,-1009.07"/>
<text text-anchor="middle" x="510.5" y="-1031.9" font-family="Times,serif" font-size="14.00">transfer&#45;partial</text>
</g>
<!-- 8&#45;&gt;2 -->
<g id="edge20" class="edge">
<title>8&#45;&gt;2</title>
<path fill="none" stroke="black" d="M599.73,-970.44C670.53,-1017.13 775,-1093.95 775,-1140.71 775,-1779.37 775,-1779.37 775,-1779.37 775,-1829.42 773.12,-1842.01 776,-1891.98 783.96,-2030.24 809,-2063.33 809,-2201.81 809,-2628.25 809,-2628.25 809,-2628.25 809,-2700.47 746.49,-2758.86 692.99,-2795.61"/>
<polygon fill="black" stroke="black" points="691.08,-2792.68 684.72,-2801.15 694.98,-2798.49 691.08,-2792.68"/>
<text text-anchor="middle" x="804.5" y="-1880.78" font-family="Times,serif" font-size="14.00">empty&#45;jug</text>
</g>
<!-- 8&#45;&gt;6 -->
<g id="edge19" class="edge">
<title>8&#45;&gt;6</title>
<path fill="none" stroke="black" d="M551.89,-1008.7C553.02,-1015.25 554.08,-1021.78 555,-1028.1 566.51,-1106.81 575.02,-1196.88 580.36,-1262.17"/>
<polygon fill="black" stroke="black" points="576.84,-1262.05 581.13,-1271.74 583.81,-1261.49 576.84,-1262.05"/>
<text text-anchor="middle" x="595" y="-1138.01" font-family="Times,serif" font-size="14.00">fill&#45;jug</text>
</g>
<!-- 8&#45;&gt;7 -->
<g id="edge17" class="edge">
<title>8&#45;&gt;7</title>
<path fill="none" stroke="black" d="M470.61,-967.15C443.78,-983.85 413.36,-1005.04 389,-1028.1 376.8,-1039.66 365.07,-1053.15 354.46,-1066.7"/>
<polygon fill="black" stroke="black" points="351.87,-1064.32 348.57,-1074.39 357.43,-1068.58 351.87,-1064.32"/>
<text text-anchor="middle" x="421.5" y="-1031.9" font-family="Times,serif" font-size="14.00">transfer&#45;full</text>
</g>
<!-- 8&#45;&gt;8 -->
<g id="edge18" class="edge">
<title>8&#45;&gt;8</title>
<path fill="none" stroke="black" d="M608.14,-947.81C619.66,-945.13 627.54,-939.02 627.54,-929.49 627.54,-923.24 624.14,-918.45 618.56,-915.15"/>
<polygon fill="black" stroke="black" points="620.15,-912.01 609.56,-911.71 617.65,-918.55 620.15,-912.01"/>
<text text-anchor="middle" x="646.54" y="-925.79" font-family="Times,serif" font-size="14.00">fill&#45;jug</text>
</g>
<!-- 9 -->
<g id="node10" class="node">
<title>9</title>
<ellipse fill="none" stroke="black" cx="650" cy="-717.27" rx="73.58" ry="80.72"/>
<text text-anchor="middle" x="650" y="-743.07" font-family="Times,serif" font-size="14.00">&lt; &#39;J : Jug |</text>
<text text-anchor="middle" x="650" y="-728.07" font-family="Times,serif" font-size="14.00"> &#160;currCap : 0,</text>
<text text-anchor="middle" x="650" y="-713.07" font-family="Times,serif" font-size="14.00"> &#160;maxCap : 3 &gt; </text>
<text text-anchor="middle" x="650" y="-698.07" font-family="Times,serif" font-size="14.00">&lt; &#39;J : Jug |</text>
<text text-anchor="middle" x="650" y="-683.07" font-family="Times,serif" font-size="14.00"> &#160;currCap : 2,</text>
<text text-anchor="middle" x="650" y="-668.07" font-family="Times,serif" font-size="14.00"> &#160;maxCap : 5 &gt;</text>
</g>
<!-- 8&#45;&gt;9 -->
<g id="edge21" class="edge">
<title>8&#45;&gt;9</title>
<path fill="none" stroke="black" d="M575.26,-860.98C580.95,-850.93 586.68,-840.66 592,-830.88 597.67,-820.45 603.53,-809.42 609.25,-798.49"/>
<polygon fill="black" stroke="black" points="612.23,-800.34 613.74,-789.85 606.02,-797.11 612.23,-800.34"/>
<text text-anchor="middle" x="626.5" y="-819.68" font-family="Times,serif" font-size="14.00">empty&#45;jug</text>
</g>
<!-- 9&#45;&gt;1 -->
<g id="edge37" class="edge">
<title>9&#45;&gt;1</title>
<path fill="none" stroke="black" d="M700.85,-776.17C748.85,-834.98 817.57,-930.97 846,-1028.1 939.66,-1348.14 885,-1443.91 885,-1777.37 885,-2840.47 885,-2840.47 885,-2840.47 885,-3060.28 618.78,-2908.74 408,-2971.08 378.85,-2979.71 348.57,-2993.39 322.3,-3007"/>
<polygon fill="black" stroke="black" points="320.99,-3003.73 313.78,-3011.49 324.26,-3009.92 320.99,-3003.73"/>
<text text-anchor="middle" x="913.5" y="-1880.78" font-family="Times,serif" font-size="14.00">empty&#45;jug</text>
</g>
<!-- 9&#45;&gt;7 -->
<g id="edge36" class="edge">
<title>9&#45;&gt;7</title>
<path fill="none" stroke="black" d="M680.71,-791.14C702.23,-854.75 719.93,-946.59 675,-1010.1 666.29,-1022.42 492.43,-1080.24 386.17,-1114.69"/>
<polygon fill="black" stroke="black" points="385.35,-1111.27 376.92,-1117.68 387.51,-1117.93 385.35,-1111.27"/>
<text text-anchor="middle" x="721" y="-925.79" font-family="Times,serif" font-size="14.00">fill&#45;jug</text>
</g>
<!-- 9&#45;&gt;8 -->
<g id="edge35" class="edge">
<title>9&#45;&gt;8</title>
<path fill="none" stroke="black" d="M589.85,-764.25C574.44,-779.05 559.54,-796.65 550,-815.88 546.65,-822.64 543.98,-829.9 541.88,-837.35"/>
<polygon fill="black" stroke="black" points="538.52,-836.36 539.54,-846.91 545.32,-838.03 538.52,-836.36"/>
<text text-anchor="middle" x="569" y="-819.68" font-family="Times,serif" font-size="14.00">fill&#45;jug</text>
</g>
<!-- 9&#45;&gt;9 -->
<g id="edge22" class="edge">
<title>9&#45;&gt;9</title>
<path fill="none" stroke="black" d="M722.14,-735.59C733.66,-732.91 741.54,-726.8 741.54,-717.27 741.54,-711.01 738.14,-706.23 732.56,-702.93"/>
<polygon fill="black" stroke="black" points="734.15,-699.79 723.56,-699.49 731.65,-706.33 734.15,-699.79"/>
<text text-anchor="middle" x="770.04" y="-713.57" font-family="Times,serif" font-size="14.00">empty&#45;jug</text>
</g>
<!-- 10 -->
<g id="node11" class="node">
<title>10</title>
<ellipse fill="none" stroke="black" cx="731" cy="-505.05" rx="73.58" ry="80.72"/>
<text text-anchor="middle" x="731" y="-530.85" font-family="Times,serif" font-size="14.00">&lt; &#39;J : Jug |</text>
<text text-anchor="middle" x="731" y="-515.85" font-family="Times,serif" font-size="14.00"> &#160;currCap : 0,</text>
<text text-anchor="middle" x="731" y="-500.85" font-family="Times,serif" font-size="14.00"> &#160;maxCap : 5 &gt; </text>
<text text-anchor="middle" x="731" y="-485.85" font-family="Times,serif" font-size="14.00">&lt; &#39;J : Jug |</text>
<text text-anchor="middle" x="731" y="-470.85" font-family="Times,serif" font-size="14.00"> &#160;currCap : 2,</text>
<text text-anchor="middle" x="731" y="-455.85" font-family="Times,serif" font-size="14.00"> &#160;maxCap : 3 &gt;</text>
</g>
<!-- 9&#45;&gt;10 -->
<g id="edge23" class="edge">
<title>9&#45;&gt;10</title>
<path fill="none" stroke="black" d="M695.68,-653.72C702.33,-642.46 708.45,-630.53 713,-618.66 715.69,-611.64 717.98,-604.23 719.92,-596.69"/>
<polygon fill="black" stroke="black" points="723.3,-597.6 722.19,-587.07 716.49,-596 723.3,-597.6"/>
<text text-anchor="middle" x="749.5" y="-607.46" font-family="Times,serif" font-size="14.00">transfer&#45;full</text>
</g>
<!-- 10&#45;&gt;1 -->
<g id="edge34" class="edge">
<title>10&#45;&gt;1</title>
<path fill="none" stroke="black" d="M800.01,-534.21C867.76,-566.98 961,-628.09 961,-716.27 961,-2840.47 961,-2840.47 961,-2840.47 961,-2845.64 885.48,-2939.26 850,-2953.08 758.4,-2988.77 503.22,-2946.65 408,-2971.08 378.55,-2978.64 348.21,-2992.08 321.97,-3005.78"/>
<polygon fill="black" stroke="black" points="320.63,-3002.53 313.46,-3010.32 323.93,-3008.7 320.63,-3002.53"/>
<text text-anchor="middle" x="989.5" y="-1774.67" font-family="Times,serif" font-size="14.00">empty&#45;jug</text>
</g>
<!-- 10&#45;&gt;2 -->
<g id="edge33" class="edge">
<title>10&#45;&gt;2</title>
<path fill="none" stroke="black" d="M778.25,-567.26C804.53,-607.37 832,-662.22 832,-716.27 832,-1567.15 832,-1567.15 832,-1567.15 832,-1617.2 831.65,-1629.73 833,-1679.76 836.72,-1817.56 847,-1851.75 847,-1989.59 847,-2628.25 847,-2628.25 847,-2628.25 847,-2711.8 763.26,-2771.17 697.06,-2805.06"/>
<polygon fill="black" stroke="black" points="695.75,-2801.8 688.37,-2809.4 698.88,-2808.06 695.75,-2801.8"/>
<text text-anchor="middle" x="852" y="-1668.56" font-family="Times,serif" font-size="14.00">fill&#45;jug</text>
</g>
<!-- 10&#45;&gt;9 -->
<g id="edge25" class="edge">
<title>10&#45;&gt;9</title>
<path fill="none" stroke="black" d="M673.79,-556.44C661.66,-570.4 650.55,-586.48 644,-603.66 641.28,-610.79 639.53,-618.36 638.52,-626.07"/>
<polygon fill="black" stroke="black" points="635.04,-625.65 637.66,-635.92 642.01,-626.26 635.04,-625.65"/>
<text text-anchor="middle" x="676.5" y="-607.46" font-family="Times,serif" font-size="14.00">transfer&#45;full</text>
</g>
<!-- 10&#45;&gt;10 -->
<g id="edge24" class="edge">
<title>10&#45;&gt;10</title>
<path fill="none" stroke="black" d="M803.14,-523.37C814.66,-520.69 822.54,-514.58 822.54,-505.05 822.54,-498.79 819.14,-494.01 813.56,-490.71"/>
<polygon fill="black" stroke="black" points="815.15,-487.57 804.56,-487.27 812.65,-494.11 815.15,-487.57"/>
<text text-anchor="middle" x="851.04" y="-501.35" font-family="Times,serif" font-size="14.00">empty&#45;jug</text>
</g>
<!-- 11 -->
<g id="node12" class="node">
<title>11</title>
<ellipse fill="none" stroke="black" cx="730" cy="-292.83" rx="73.58" ry="80.72"/>
<text text-anchor="middle" x="730" y="-318.63" font-family="Times,serif" font-size="14.00">&lt; &#39;J : Jug |</text>
<text text-anchor="middle" x="730" y="-303.63" font-family="Times,serif" font-size="14.00"> &#160;currCap : 2,</text>
<text text-anchor="middle" x="730" y="-288.63" font-family="Times,serif" font-size="14.00"> &#160;maxCap : 3 &gt; </text>
<text text-anchor="middle" x="730" y="-273.63" font-family="Times,serif" font-size="14.00">&lt; &#39;J : Jug |</text>
<text text-anchor="middle" x="730" y="-258.63" font-family="Times,serif" font-size="14.00"> &#160;currCap : 5,</text>
<text text-anchor="middle" x="730" y="-243.63" font-family="Times,serif" font-size="14.00"> &#160;maxCap : 5 &gt;</text>
</g>
<!-- 10&#45;&gt;11 -->
<g id="edge26" class="edge">
<title>10&#45;&gt;11</title>
<path fill="none" stroke="black" d="M705.48,-428.9C703.66,-421.38 702.11,-413.8 701,-406.44 699.66,-397.5 699.67,-388.24 700.61,-379.05"/>
<polygon fill="black" stroke="black" points="704.04,-379.78 701.97,-369.39 697.11,-378.8 704.04,-379.78"/>
<text text-anchor="middle" x="720" y="-395.24" font-family="Times,serif" font-size="14.00">fill&#45;jug</text>
</g>
<!-- 11&#45;&gt;6 -->
<g id="edge30" class="edge">
<title>11&#45;&gt;6</title>
<path fill="none" stroke="black" d="M794.5,-332.24C827.48,-355.06 865.52,-386.88 889,-424.44 908.28,-455.29 908,-467.67 908,-504.05 908,-1142.71 908,-1142.71 908,-1142.71 908,-1256.29 765.61,-1311.83 670.5,-1336.26"/>
<polygon fill="black" stroke="black" points="669.76,-1332.83 660.91,-1338.65 671.46,-1339.63 669.76,-1332.83"/>
<text text-anchor="middle" x="927" y="-819.68" font-family="Times,serif" font-size="14.00">fill&#45;jug</text>
</g>
<!-- 11&#45;&gt;7 -->
<g id="edge31" class="edge">
<title>11&#45;&gt;7</title>
<path fill="none" stroke="black" d="M656.46,-300.47C543.19,-315.18 339,-361.47 339,-504.05 339,-930.49 339,-930.49 339,-930.49 339,-970.87 332.81,-1015.06 325.71,-1052.46"/>
<polygon fill="black" stroke="black" points="322.36,-1051.35 323.88,-1061.84 329.23,-1052.69 322.36,-1051.35"/>
<text text-anchor="middle" x="367.5" y="-713.57" font-family="Times,serif" font-size="14.00">empty&#45;jug</text>
</g>
<!-- 11&#45;&gt;10 -->
<g id="edge32" class="edge">
<title>11&#45;&gt;10</title>
<path fill="none" stroke="black" d="M737.95,-373.43C738.37,-379.52 738.73,-385.58 739,-391.44 739.32,-398.44 739.4,-405.69 739.29,-412.97"/>
<polygon fill="black" stroke="black" points="735.79,-412.81 739.02,-422.9 742.79,-413 735.79,-412.81"/>
<text text-anchor="middle" x="767.5" y="-395.24" font-family="Times,serif" font-size="14.00">empty&#45;jug</text>
</g>
<!-- 11&#45;&gt;11 -->
<g id="edge27" class="edge">
<title>11&#45;&gt;11</title>
<path fill="none" stroke="black" d="M802.14,-311.15C813.66,-308.47 821.54,-302.36 821.54,-292.83 821.54,-286.57 818.14,-281.79 812.56,-278.49"/>
<polygon fill="black" stroke="black" points="814.15,-275.35 803.56,-275.05 811.65,-281.89 814.15,-275.35"/>
<text text-anchor="middle" x="840.54" y="-289.13" font-family="Times,serif" font-size="14.00">fill&#45;jug</text>
</g>
<!-- 12 -->
<g id="node13" class="node">
<title>12</title>
<ellipse fill="none" stroke="black" cx="730" cy="-80.61" rx="73.58" ry="80.72"/>
<text text-anchor="middle" x="730" y="-106.41" font-family="Times,serif" font-size="14.00">&lt; &#39;J : Jug |</text>
<text text-anchor="middle" x="730" y="-91.41" font-family="Times,serif" font-size="14.00"> &#160;currCap : 3,</text>
<text text-anchor="middle" x="730" y="-76.41" font-family="Times,serif" font-size="14.00"> &#160;maxCap : 3 &gt; </text>
<text text-anchor="middle" x="730" y="-61.41" font-family="Times,serif" font-size="14.00">&lt; &#39;J : Jug |</text>
<text text-anchor="middle" x="730" y="-46.41" font-family="Times,serif" font-size="14.00"> &#160;currCap : 4,</text>
<text text-anchor="middle" x="730" y="-31.41" font-family="Times,serif" font-size="14.00"> &#160;maxCap : 5 &gt;</text>
</g>
<!-- 11&#45;&gt;12 -->
<g id="edge28" class="edge">
<title>11&#45;&gt;12</title>
<path fill="none" stroke="black" d="M730,-211.76C730,-199.1 730,-185.93 730,-173.05"/>
<polygon fill="black" stroke="black" points="733.5,-173.32 730,-163.32 726.5,-173.32 733.5,-173.32"/>
<text text-anchor="middle" x="770.5" y="-183.02" font-family="Times,serif" font-size="14.00">transfer&#45;partial</text>
</g>
<!-- 12&#45;&gt;12 -->
<g id="edge29" class="edge">
<title>12&#45;&gt;12</title>
<path fill="none" stroke="black" d="M802.14,-98.93C813.66,-96.25 821.54,-90.14 821.54,-80.61 821.54,-74.35 818.14,-69.57 812.56,-66.27"/>
<polygon fill="black" stroke="black" points="814.15,-63.13 803.56,-62.83 811.65,-69.67 814.15,-63.13"/>
</g>
<!-- 13&#45;&gt;1 -->
<g id="edge58" class="edge">
<title>13&#45;&gt;1</title>
<path fill="none" stroke="black" d="M330.67,-2061.15C321.62,-2080.53 312.62,-2101.85 306,-2122.2 249.18,-2296.97 226.83,-2344.9 230,-2528.64 232.6,-2679.62 239.43,-2855.06 243.89,-2959.26"/>
<polygon fill="black" stroke="black" points="240.39,-2959.32 244.32,-2969.16 247.39,-2959.02 240.39,-2959.32"/>
<text text-anchor="middle" x="258.5" y="-2517.44" font-family="Times,serif" font-size="14.00">empty&#45;jug</text>
</g>
<!-- 13&#45;&gt;2 -->
<g id="edge57" class="edge">
<title>13&#45;&gt;2</title>
<path fill="none" stroke="black" d="M432.35,-2027.76C466.63,-2050.3 505.98,-2082.56 528,-2122.2 543.03,-2149.25 588.43,-2560.84 608.4,-2747.57"/>
<polygon fill="black" stroke="black" points="604.92,-2747.92 609.46,-2757.49 611.88,-2747.18 604.92,-2747.92"/>
<text text-anchor="middle" x="599" y="-2411.33" font-family="Times,serif" font-size="14.00">fill&#45;jug</text>
</g>
<!-- 13&#45;&gt;5 -->
<g id="edge56" class="edge">
<title>13&#45;&gt;5</title>
<path fill="none" stroke="black" d="M341.88,-2066.75C340.3,-2079.27 340.29,-2092.11 343,-2104.2 344.33,-2110.14 346.06,-2116.15 348.08,-2122.11"/>
<polygon fill="black" stroke="black" points="344.73,-2123.15 351.46,-2131.34 351.3,-2120.74 344.73,-2123.15"/>
<text text-anchor="middle" x="362" y="-2093" font-family="Times,serif" font-size="14.00">fill&#45;jug</text>
</g>
<!-- 13&#45;&gt;13 -->
<g id="edge43" class="edge">
<title>13&#45;&gt;13</title>
<path fill="none" stroke="black" d="M439.14,-2008.92C450.66,-2006.23 458.54,-2000.13 458.54,-1990.59 458.54,-1984.34 455.14,-1979.56 449.56,-1976.25"/>
<polygon fill="black" stroke="black" points="451.15,-1973.11 440.56,-1972.81 448.65,-1979.65 451.15,-1973.11"/>
<text text-anchor="middle" x="487.04" y="-1986.89" font-family="Times,serif" font-size="14.00">empty&#45;jug</text>
</g>
<!-- 14 -->
<g id="node15" class="node">
<title>14</title>
<ellipse fill="none" stroke="black" cx="342" cy="-1778.37" rx="73.58" ry="80.72"/>
<text text-anchor="middle" x="342" y="-1804.17" font-family="Times,serif" font-size="14.00">&lt; &#39;J : Jug |</text>
<text text-anchor="middle" x="342" y="-1789.17" font-family="Times,serif" font-size="14.00"> &#160;currCap : 0,</text>
<text text-anchor="middle" x="342" y="-1774.17" font-family="Times,serif" font-size="14.00"> &#160;maxCap : 3 &gt; </text>
<text text-anchor="middle" x="342" y="-1759.17" font-family="Times,serif" font-size="14.00">&lt; &#39;J : Jug |</text>
<text text-anchor="middle" x="342" y="-1744.17" font-family="Times,serif" font-size="14.00"> &#160;currCap : 1,</text>
<text text-anchor="middle" x="342" y="-1729.17" font-family="Times,serif" font-size="14.00"> &#160;maxCap : 5 &gt;</text>
</g>
<!-- 13&#45;&gt;14 -->
<g id="edge44" class="edge">
<title>13&#45;&gt;14</title>
<path fill="none" stroke="black" d="M327.36,-1922.12C323.1,-1912.29 319.43,-1902.07 317,-1891.98 314.94,-1883.43 314.32,-1874.49 314.71,-1865.56"/>
<polygon fill="black" stroke="black" points="318.18,-1866.05 315.58,-1855.78 311.21,-1865.43 318.18,-1866.05"/>
<text text-anchor="middle" x="349.5" y="-1880.78" font-family="Times,serif" font-size="14.00">transfer&#45;full</text>
</g>
<!-- 14&#45;&gt;1 -->
<g id="edge55" class="edge">
<title>14&#45;&gt;1</title>
<path fill="none" stroke="black" d="M308.08,-1850.43C299.62,-1869.53 290.97,-1890.34 284,-1909.98 218.59,-2094.16 197.39,-2141.05 169,-2334.42 157.01,-2416.12 164,-2437.57 164,-2520.14 164,-2840.47 164,-2840.47 164,-2840.47 164,-2887.2 182.11,-2935.86 201.52,-2974.58"/>
<polygon fill="black" stroke="black" points="198.35,-2976.08 206.05,-2983.37 204.58,-2972.88 198.35,-2976.08"/>
<text text-anchor="middle" x="197.5" y="-2411.33" font-family="Times,serif" font-size="14.00">empty&#45;jug</text>
</g>
<!-- 14&#45;&gt;7 -->
<g id="edge54" class="edge">
<title>14&#45;&gt;7</title>
<path fill="none" stroke="black" d="M327.71,-1698.85C325.06,-1681.73 322.62,-1663.68 321,-1646.76 307.22,-1503.05 304.56,-1335.35 304.4,-1234.19"/>
<polygon fill="black" stroke="black" points="307.9,-1234.3 304.4,-1224.3 300.9,-1234.31 307.9,-1234.3"/>
<text text-anchor="middle" x="329" y="-1456.34" font-family="Times,serif" font-size="14.00">fill&#45;jug</text>
</g>
<!-- 14&#45;&gt;13 -->
<g id="edge46" class="edge">
<title>14&#45;&gt;13</title>
<path fill="none" stroke="black" d="M374.94,-1850.89C377.83,-1859.54 380.3,-1868.36 382,-1876.98 383.5,-1884.61 384.19,-1892.56 384.27,-1900.55"/>
<polygon fill="black" stroke="black" points="380.77,-1900.26 384.04,-1910.33 387.77,-1900.42 380.77,-1900.26"/>
<text text-anchor="middle" x="416.5" y="-1880.78" font-family="Times,serif" font-size="14.00">transfer&#45;full</text>
</g>
<!-- 14&#45;&gt;14 -->
<g id="edge45" class="edge">
<title>14&#45;&gt;14</title>
<path fill="none" stroke="black" d="M414.14,-1796.69C425.66,-1794.01 433.54,-1787.91 433.54,-1778.37 433.54,-1772.12 430.14,-1767.34 424.56,-1764.03"/>
<polygon fill="black" stroke="black" points="426.15,-1760.89 415.56,-1760.59 423.65,-1767.43 426.15,-1760.89"/>
<text text-anchor="middle" x="462.04" y="-1774.67" font-family="Times,serif" font-size="14.00">empty&#45;jug</text>
</g>
<!-- 15 -->
<g id="node16" class="node">
<title>15</title>
<ellipse fill="none" stroke="black" cx="404" cy="-1566.15" rx="73.58" ry="80.72"/>
<text text-anchor="middle" x="404" y="-1591.95" font-family="Times,serif" font-size="14.00">&lt; &#39;J : Jug |</text>
<text text-anchor="middle" x="404" y="-1576.95" font-family="Times,serif" font-size="14.00"> &#160;currCap : 1,</text>
<text text-anchor="middle" x="404" y="-1561.95" font-family="Times,serif" font-size="14.00"> &#160;maxCap : 5 &gt; </text>
<text text-anchor="middle" x="404" y="-1546.95" font-family="Times,serif" font-size="14.00">&lt; &#39;J : Jug |</text>
<text text-anchor="middle" x="404" y="-1531.95" font-family="Times,serif" font-size="14.00"> &#160;currCap : 3,</text>
<text text-anchor="middle" x="404" y="-1516.95" font-family="Times,serif" font-size="14.00"> &#160;maxCap : 3 &gt;</text>
</g>
<!-- 14&#45;&gt;15 -->
<g id="edge47" class="edge">
<title>14&#45;&gt;15</title>
<path fill="none" stroke="black" d="M386.63,-1713.92C392.47,-1702.96 397.6,-1691.35 401,-1679.76 403.03,-1672.85 404.53,-1665.59 405.63,-1658.23"/>
<polygon fill="black" stroke="black" points="409.07,-1658.86 406.8,-1648.51 402.13,-1658.02 409.07,-1658.86"/>
<text text-anchor="middle" x="424" y="-1668.56" font-family="Times,serif" font-size="14.00">fill&#45;jug</text>
</g>
<!-- 15&#45;&gt;2 -->
<g id="edge52" class="edge">
<title>15&#45;&gt;2</title>
<path fill="none" stroke="black" d="M471.85,-1598.09C512.45,-1620.14 561.55,-1653.67 590,-1697.76 633.96,-1765.89 616.41,-1796.26 624,-1876.98 653.96,-2195.61 635.68,-2576.26 624.61,-2747.32"/>
<polygon fill="black" stroke="black" points="621.12,-2747.06 623.96,-2757.27 628.11,-2747.52 621.12,-2747.06"/>
<text text-anchor="middle" x="668.5" y="-2199.11" font-family="Times,serif" font-size="14.00">empty&#45;jug</text>
</g>
<!-- 15&#45;&gt;6 -->
<g id="edge51" class="edge">
<title>15&#45;&gt;6</title>
<path fill="none" stroke="black" d="M454.49,-1507.15C477.6,-1480.61 505.1,-1449.01 529.05,-1421.5"/>
<polygon fill="black" stroke="black" points="531.44,-1424.09 535.36,-1414.25 526.16,-1419.49 531.44,-1424.09"/>
<text text-anchor="middle" x="519" y="-1456.34" font-family="Times,serif" font-size="14.00">fill&#45;jug</text>
</g>
<!-- 15&#45;&gt;14 -->
<g id="edge53" class="edge">
<title>15&#45;&gt;14</title>
<path fill="none" stroke="black" d="M356.42,-1628.27C349.66,-1639.83 343.74,-1652.24 340,-1664.76 337.92,-1671.73 336.49,-1679.05 335.55,-1686.47"/>
<polygon fill="black" stroke="black" points="332.08,-1686 334.65,-1696.28 339.05,-1686.64 332.08,-1686"/>
<text text-anchor="middle" x="368.5" y="-1668.56" font-family="Times,serif" font-size="14.00">empty&#45;jug</text>
</g>
<!-- 15&#45;&gt;15 -->
<g id="edge50" class="edge">
<title>15&#45;&gt;15</title>
<path fill="none" stroke="black" d="M476.14,-1584.47C487.66,-1581.79 495.54,-1575.69 495.54,-1566.15 495.54,-1559.9 492.14,-1555.12 486.56,-1551.81"/>
<polygon fill="black" stroke="black" points="488.15,-1548.67 477.56,-1548.37 485.65,-1555.21 488.15,-1548.67"/>
<text text-anchor="middle" x="514.54" y="-1562.45" font-family="Times,serif" font-size="14.00">fill&#45;jug</text>
</g>
<!-- 16 -->
<g id="node17" class="node">
<title>16</title>
<ellipse fill="none" stroke="black" cx="404" cy="-1353.93" rx="73.58" ry="80.72"/>
<text text-anchor="middle" x="404" y="-1379.73" font-family="Times,serif" font-size="14.00">&lt; &#39;J : Jug |</text>
<text text-anchor="middle" x="404" y="-1364.73" font-family="Times,serif" font-size="14.00"> &#160;currCap : 0,</text>
<text text-anchor="middle" x="404" y="-1349.73" font-family="Times,serif" font-size="14.00"> &#160;maxCap : 3 &gt; </text>
<text text-anchor="middle" x="404" y="-1334.73" font-family="Times,serif" font-size="14.00">&lt; &#39;J : Jug |</text>
<text text-anchor="middle" x="404" y="-1319.73" font-family="Times,serif" font-size="14.00"> &#160;currCap : 4,</text>
<text text-anchor="middle" x="404" y="-1304.73" font-family="Times,serif" font-size="14.00"> &#160;maxCap : 5 &gt;</text>
</g>
<!-- 15&#45;&gt;16 -->
<g id="edge48" class="edge">
<title>15&#45;&gt;16</title>
<path fill="none" stroke="black" d="M404,-1485.08C404,-1472.42 404,-1459.26 404,-1446.37"/>
<polygon fill="black" stroke="black" points="407.5,-1446.65 404,-1436.65 400.5,-1446.65 407.5,-1446.65"/>
<text text-anchor="middle" x="436.5" y="-1456.34" font-family="Times,serif" font-size="14.00">transfer&#45;full</text>
</g>
<!-- 16&#45;&gt;16 -->
<g id="edge49" class="edge">
<title>16&#45;&gt;16</title>
<path fill="none" stroke="black" d="M476.14,-1372.25C487.66,-1369.57 495.54,-1363.47 495.54,-1353.93 495.54,-1347.68 492.14,-1342.9 486.56,-1339.59"/>
<polygon fill="black" stroke="black" points="488.15,-1336.45 477.56,-1336.15 485.65,-1342.99 488.15,-1336.45"/>
</g>
</g>
</svg>
