<?xml version="1.0" encoding="UTF-8" standalone="no"?>
<!DOCTYPE svg PUBLIC "-//W3C//DTD SVG 1.1//EN"
 "http://www.w3.org/Graphics/SVG/1.1/DTD/svg11.dtd">
<!-- Generated by graphviz version 8.0.3 (0)
 -->
<!-- Pages: 1 -->
<svg width="1330pt" height="1279pt"
 viewBox="0.00 0.00 1330.00 1279.18" xmlns="http://www.w3.org/2000/svg" xmlns:xlink="http://www.w3.org/1999/xlink">
<g id="graph0" class="graph" transform="scale(1 1) rotate(0) translate(4 1275.18)">
<polygon fill="white" stroke="none" points="-4,4 -4,-1275.18 1326,-1275.18 1326,4 -4,4"/>
<g id="clust1" class="cluster">
<title>cluster_140536163465536</title>
</g>
<!-- node_0 -->
<g id="node_0" class="node">
<title>node_0</title>
<g id="a_node_0"><a xlink:title="Borrower does default">
<polygon fill="#ffffff" stroke="black" points="1072,-706.96 934,-706.96 934,-668.96 1072,-668.96 1072,-706.96"/>
<text text-anchor="middle" x="1003" y="-691.76" font-family="Times,serif" font-size="14.00" fill="#000000">Borrower does default</text>
<text text-anchor="middle" x="1003" y="-676.76" font-family="Times,serif" font-size="14.00" fill="#000000">True</text>
</a>
</g>
</g>
<!-- node_2 -->
<g id="node_2" class="node">
<title>node_2</title>
<g id="a_node_2"><a xlink:title="RULE Payment default PARTY Lender MAY notify Borrower WITHIN INF DAY ">
<ellipse fill="#ffffff" stroke="black" cx="809" cy="-430.35" rx="335.75" ry="26.74"/>
<text text-anchor="middle" x="809" y="-434.15" font-family="Times,serif" font-size="14.00" fill="#000000">RULE Payment default PARTY Lender MAY notify Borrower WITHIN INF DAY </text>
<text text-anchor="middle" x="809" y="-419.15" font-family="Times,serif" font-size="14.00" fill="#000000">{}</text>
</a>
</g>
</g>
<!-- node_0&#45;&gt;node_2 -->
<g id="edge2" class="edge">
<title>node_0&#45;&gt;node_2</title>
<path fill="none" stroke="black" d="M1004.63,-668.69C1005.52,-649.75 1004.59,-619.82 993,-597.22 963.4,-539.53 904.84,-492.25 861.7,-463.14"/>
<polygon fill="black" stroke="black" points="864.01,-459.81 853.75,-457.21 860.15,-465.65 864.01,-459.81"/>
<text text-anchor="middle" x="988.5" y="-568.02" font-family="Times,serif" font-size="14.00"> &#39;&#39; </text>
</g>
<!-- node_9 -->
<g id="node_9" class="node">
<title>node_9</title>
<g id="a_node_9"><a xlink:title="Lender does notify Borrower">
<polygon fill="#ffffff" stroke="black" points="896.5,-352.48 721.5,-352.48 721.5,-314.48 896.5,-314.48 896.5,-352.48"/>
<text text-anchor="middle" x="809" y="-337.28" font-family="Times,serif" font-size="14.00" fill="#000000">Lender does notify Borrower</text>
<text text-anchor="middle" x="809" y="-322.28" font-family="Times,serif" font-size="14.00" fill="#000000">True</text>
</a>
</g>
</g>
<!-- node_7 -->
<g id="node_7" class="node">
<title>node_7</title>
<g id="a_node_7"><a xlink:title="RULE Cure default PARTY Borrower MUST resolve default condition WITHIN 2 DAY ">
<ellipse fill="#ffffff" stroke="black" cx="809" cy="-236.61" rx="357.59" ry="26.74"/>
<text text-anchor="middle" x="809" y="-240.41" font-family="Times,serif" font-size="14.00" fill="#000000">RULE Cure default PARTY Borrower MUST resolve default condition WITHIN 2 DAY </text>
<text text-anchor="middle" x="809" y="-225.41" font-family="Times,serif" font-size="14.00" fill="#000000">{}</text>
</a>
</g>
</g>
<!-- node_9&#45;&gt;node_7 -->
<g id="edge8" class="edge">
<title>node_9&#45;&gt;node_7</title>
<path fill="none" stroke="black" d="M809,-314.19C809,-303 809,-288.28 809,-274.73"/>
<polygon fill="black" stroke="black" points="812.5,-274.74 809,-264.74 805.5,-274.74 812.5,-274.74"/>
<text text-anchor="middle" x="815.5" y="-285.28" font-family="Times,serif" font-size="14.00"> &#39;&#39; </text>
</g>
<!-- node_12 -->
<g id="node_12" class="node">
<title>node_12</title>
<g id="a_node_12"><a xlink:title="31 DAY">
<polygon fill="#ffffff" stroke="black" points="678,-546.22 616,-546.22 616,-508.22 678,-508.22 678,-546.22"/>
<text text-anchor="middle" x="647" y="-531.02" font-family="Times,serif" font-size="14.00" fill="#000000">31 DAY</text>
<text text-anchor="middle" x="647" y="-516.02" font-family="Times,serif" font-size="14.00" fill="#000000">True</text>
</a>
</g>
</g>
<!-- node_12&#45;&gt;node_2 -->
<g id="edge14" class="edge">
<title>node_12&#45;&gt;node_2</title>
<path fill="none" stroke="black" d="M678.24,-507.93C700.1,-495.12 729.86,-477.7 755.47,-462.7"/>
<polygon fill="black" stroke="black" points="756.83,-465.37 763.69,-457.3 753.29,-459.33 756.83,-465.37"/>
<text text-anchor="middle" x="738.5" y="-479.02" font-family="Times,serif" font-size="14.00"> &#39;&#39; </text>
</g>
<!-- node_6 -->
<g id="node_6" class="node">
<title>node_6</title>
<g id="a_node_6"><a xlink:title="3 DAY">
<polygon fill="#ffffff" stroke="black" points="837,-158.74 781,-158.74 781,-120.74 837,-120.74 837,-158.74"/>
<text text-anchor="middle" x="809" y="-143.54" font-family="Times,serif" font-size="14.00" fill="#000000">3 DAY</text>
<text text-anchor="middle" x="809" y="-128.54" font-family="Times,serif" font-size="14.00" fill="#000000">True</text>
</a>
</g>
</g>
<!-- node_7&#45;&gt;node_6 -->
<g id="edge5" class="edge">
<title>node_7&#45;&gt;node_6</title>
<path fill="none" stroke="black" d="M809,-209.44C809,-197.17 809,-182.52 809,-169.91"/>
<polygon fill="black" stroke="black" points="812.5,-170.02 809,-160.02 805.5,-170.02 812.5,-170.02"/>
<text text-anchor="middle" x="815.5" y="-180.54" font-family="Times,serif" font-size="14.00"> &#39;&#39; </text>
</g>
<!-- node_13 -->
<g id="node_13" class="node">
<title>node_13</title>
<g id="a_node_13"><a xlink:title="Borrower does repay first half">
<polygon fill="#ffffff" stroke="black" points="553.5,-762.96 372.5,-762.96 372.5,-724.96 553.5,-724.96 553.5,-762.96"/>
<text text-anchor="middle" x="463" y="-747.76" font-family="Times,serif" font-size="14.00" fill="#000000">Borrower does repay first half</text>
<text text-anchor="middle" x="463" y="-732.76" font-family="Times,serif" font-size="14.00" fill="#000000">True</text>
</a>
</g>
</g>
<!-- node_14 -->
<g id="node_14" class="node">
<title>node_14</title>
<g id="a_node_14"><a xlink:title="RULE Repay second half PARTY Borrower MUST repay second half ON 30 DAY ">
<ellipse fill="#ffffff" stroke="black" cx="647" cy="-624.09" rx="336.67" ry="26.74"/>
<text text-anchor="middle" x="647" y="-627.89" font-family="Times,serif" font-size="14.00" fill="#000000">RULE Repay second half PARTY Borrower MUST repay second half ON 30 DAY </text>
<text text-anchor="middle" x="647" y="-612.89" font-family="Times,serif" font-size="14.00" fill="#000000">{}</text>
</a>
</g>
</g>
<!-- node_13&#45;&gt;node_14 -->
<g id="edge16" class="edge">
<title>node_13&#45;&gt;node_14</title>
<path fill="none" stroke="black" d="M491.75,-724.54C519.93,-706.49 563.45,-678.61 597.25,-656.96"/>
<polygon fill="black" stroke="black" points="598.97,-659.37 605.51,-651.03 595.2,-653.48 598.97,-659.37"/>
<text text-anchor="middle" x="582.5" y="-684.26" font-family="Times,serif" font-size="14.00"> &#39;&#39; </text>
</g>
<!-- node_8 -->
<g id="node_8" class="node">
<title>node_8</title>
<g id="a_node_8"><a xlink:title="RULE Accelerate outstanding payments PARTY Borrower MUST repay outstanding amount WITHIN 1 DAY ">
<ellipse fill="#ffffff" stroke="black" cx="809" cy="-42.87" rx="441.88" ry="26.74"/>
<text text-anchor="middle" x="809" y="-46.67" font-family="Times,serif" font-size="14.00" fill="#000000">RULE Accelerate outstanding payments PARTY Borrower MUST repay outstanding amount WITHIN 1 DAY </text>
<text text-anchor="middle" x="809" y="-31.67" font-family="Times,serif" font-size="14.00" fill="#000000">{}</text>
</a>
</g>
</g>
<!-- node_10 -->
<g id="node_10" class="node">
<title>node_10</title>
<g id="a_node_10"><a xlink:title="Lender does remit principal">
<polygon fill="#ffffff" stroke="black" points="731,-956.7 563,-956.7 563,-918.7 731,-918.7 731,-956.7"/>
<text text-anchor="middle" x="647" y="-941.5" font-family="Times,serif" font-size="14.00" fill="#000000">Lender does remit principal</text>
<text text-anchor="middle" x="647" y="-926.5" font-family="Times,serif" font-size="14.00" fill="#000000">True</text>
</a>
</g>
</g>
<!-- node_11 -->
<g id="node_11" class="node">
<title>node_11</title>
<g id="a_node_11"><a xlink:title="RULE Repay in two halves PARTY Borrower MUST repay first half ON 30 DAY ">
<ellipse fill="#ffffff" stroke="black" cx="349" cy="-840.83" rx="333.09" ry="26.74"/>
<text text-anchor="middle" x="349" y="-844.63" font-family="Times,serif" font-size="14.00" fill="#000000">RULE Repay in two halves PARTY Borrower MUST repay first half ON 30 DAY </text>
<text text-anchor="middle" x="349" y="-829.63" font-family="Times,serif" font-size="14.00" fill="#000000">{}</text>
</a>
</g>
</g>
<!-- node_10&#45;&gt;node_11 -->
<g id="edge11" class="edge">
<title>node_10&#45;&gt;node_11</title>
<path fill="none" stroke="black" d="M589.19,-918.3C546.6,-904.74 487.87,-886.04 439.14,-870.53"/>
<polygon fill="black" stroke="black" points="440.5,-866.97 429.91,-867.27 438.37,-873.64 440.5,-866.97"/>
<text text-anchor="middle" x="539.5" y="-889.5" font-family="Times,serif" font-size="14.00"> &#39;&#39; </text>
</g>
<!-- node_1 -->
<g id="node_1" class="node">
<title>node_1</title>
<g id="a_node_1"><a xlink:title="RULE Avoid default PARTY Borrower SHANT default WITHIN 60 DAY ">
<ellipse fill="#ffffff" stroke="black" cx="1003" cy="-840.83" rx="302.78" ry="26.74"/>
<text text-anchor="middle" x="1003" y="-844.63" font-family="Times,serif" font-size="14.00" fill="#000000">RULE Avoid default PARTY Borrower SHANT default WITHIN 60 DAY </text>
<text text-anchor="middle" x="1003" y="-829.63" font-family="Times,serif" font-size="14.00" fill="#000000">{}</text>
</a>
</g>
</g>
<!-- node_10&#45;&gt;node_1 -->
<g id="edge10" class="edge">
<title>node_10&#45;&gt;node_1</title>
<path fill="none" stroke="black" d="M716.06,-918.3C768.04,-904.44 840.16,-885.23 899.09,-869.52"/>
<polygon fill="black" stroke="black" points="899.79,-872.69 908.55,-866.73 897.99,-865.93 899.79,-872.69"/>
<text text-anchor="middle" x="841.5" y="-889.5" font-family="Times,serif" font-size="14.00"> &#39;&#39; </text>
</g>
<!-- node_4 -->
<g id="node_4" class="node">
<title>node_4</title>
<g id="a_node_4"><a xlink:title="RULE Contract Commencement PARTY Borrower MAY request funds WITHIN 1 DAY ">
<ellipse fill="#ffffff" stroke="black" cx="647" cy="-1228.31" rx="360.75" ry="26.74"/>
<text text-anchor="middle" x="647" y="-1232.11" font-family="Times,serif" font-size="14.00" fill="#000000">RULE Contract Commencement PARTY Borrower MAY request funds WITHIN 1 DAY </text>
<text text-anchor="middle" x="647" y="-1217.11" font-family="Times,serif" font-size="14.00" fill="#000000">{}</text>
</a>
</g>
</g>
<!-- node_3 -->
<g id="node_3" class="node">
<title>node_3</title>
<g id="a_node_3"><a xlink:title="Borrower does request funds">
<polygon fill="#ffffff" stroke="black" points="733.5,-1150.44 560.5,-1150.44 560.5,-1112.44 733.5,-1112.44 733.5,-1150.44"/>
<text text-anchor="middle" x="647" y="-1135.24" font-family="Times,serif" font-size="14.00" fill="#000000">Borrower does request funds</text>
<text text-anchor="middle" x="647" y="-1120.24" font-family="Times,serif" font-size="14.00" fill="#000000">True</text>
</a>
</g>
</g>
<!-- node_4&#45;&gt;node_3 -->
<g id="edge3" class="edge">
<title>node_4&#45;&gt;node_3</title>
<path fill="none" stroke="black" d="M647,-1201.14C647,-1188.87 647,-1174.22 647,-1161.61"/>
<polygon fill="black" stroke="black" points="650.5,-1161.72 647,-1151.72 643.5,-1161.72 650.5,-1161.72"/>
<text text-anchor="middle" x="653.5" y="-1172.24" font-family="Times,serif" font-size="14.00"> &#39;&#39; </text>
</g>
<!-- node_6&#45;&gt;node_8 -->
<g id="edge6" class="edge">
<title>node_6&#45;&gt;node_8</title>
<path fill="none" stroke="black" d="M809,-120.45C809,-109.26 809,-94.54 809,-80.99"/>
<polygon fill="black" stroke="black" points="812.5,-81 809,-71 805.5,-81 812.5,-81"/>
<text text-anchor="middle" x="815.5" y="-91.54" font-family="Times,serif" font-size="14.00"> &#39;&#39; </text>
</g>
<!-- node_2&#45;&gt;node_9 -->
<g id="edge7" class="edge">
<title>node_2&#45;&gt;node_9</title>
<path fill="none" stroke="black" d="M809,-403.18C809,-390.91 809,-376.26 809,-363.65"/>
<polygon fill="black" stroke="black" points="812.5,-363.76 809,-353.76 805.5,-363.76 812.5,-363.76"/>
<text text-anchor="middle" x="815.5" y="-374.28" font-family="Times,serif" font-size="14.00"> &#39;&#39; </text>
</g>
<!-- node_5 -->
<g id="node_5" class="node">
<title>node_5</title>
<g id="a_node_5"><a xlink:title="RULE Remit principal PARTY Lender MUST remit principal WITHIN 1 DAY ">
<ellipse fill="#ffffff" stroke="black" cx="647" cy="-1034.57" rx="322.38" ry="26.74"/>
<text text-anchor="middle" x="647" y="-1038.37" font-family="Times,serif" font-size="14.00" fill="#000000">RULE Remit principal PARTY Lender MUST remit principal WITHIN 1 DAY </text>
<text text-anchor="middle" x="647" y="-1023.37" font-family="Times,serif" font-size="14.00" fill="#000000">{}</text>
</a>
</g>
</g>
<!-- node_5&#45;&gt;node_10 -->
<g id="edge9" class="edge">
<title>node_5&#45;&gt;node_10</title>
<path fill="none" stroke="black" d="M647,-1007.4C647,-995.13 647,-980.48 647,-967.87"/>
<polygon fill="black" stroke="black" points="650.5,-967.98 647,-957.98 643.5,-967.98 650.5,-967.98"/>
<text text-anchor="middle" x="653.5" y="-978.5" font-family="Times,serif" font-size="14.00"> &#39;&#39; </text>
</g>
<!-- node_14&#45;&gt;node_12 -->
<g id="edge13" class="edge">
<title>node_14&#45;&gt;node_12</title>
<path fill="none" stroke="black" d="M647,-596.92C647,-584.65 647,-570 647,-557.39"/>
<polygon fill="black" stroke="black" points="650.5,-557.5 647,-547.5 643.5,-557.5 650.5,-557.5"/>
<text text-anchor="middle" x="653.5" y="-568.02" font-family="Times,serif" font-size="14.00"> &#39;&#39; </text>
</g>
<!-- node_11&#45;&gt;node_12 -->
<g id="edge12" class="edge">
<title>node_11&#45;&gt;node_12</title>
<path fill="none" stroke="black" d="M331.7,-813.87C301.86,-765.56 248.72,-660.96 301,-597.22 339.02,-550.87 521.2,-535.06 604.85,-530.18"/>
<polygon fill="black" stroke="black" points="604.94,-533.63 614.73,-529.58 604.55,-526.64 604.94,-533.63"/>
<text text-anchor="middle" x="289.5" y="-684.26" font-family="Times,serif" font-size="14.00"> &#39;&#39; </text>
</g>
<!-- node_11&#45;&gt;node_13 -->
<g id="edge15" class="edge">
<title>node_11&#45;&gt;node_13</title>
<path fill="none" stroke="black" d="M380.15,-813.91C396.54,-800.27 416.55,-783.61 432.8,-770.09"/>
<polygon fill="black" stroke="black" points="434.47,-772.42 439.92,-763.34 429.99,-767.04 434.47,-772.42"/>
<text text-anchor="middle" x="425.5" y="-784.76" font-family="Times,serif" font-size="14.00"> &#39;&#39; </text>
</g>
<!-- node_1&#45;&gt;node_0 -->
<g id="edge1" class="edge">
<title>node_1&#45;&gt;node_0</title>
<path fill="none" stroke="black" d="M1003,-813.9C1003,-787.36 1003,-746.18 1003,-718.43"/>
<polygon fill="black" stroke="black" points="1006.5,-718.44 1003,-708.44 999.5,-718.44 1006.5,-718.44"/>
<text text-anchor="middle" x="1009.5" y="-784.76" font-family="Times,serif" font-size="14.00"> &#39;&#39; </text>
</g>
<!-- node_3&#45;&gt;node_5 -->
<g id="edge4" class="edge">
<title>node_3&#45;&gt;node_5</title>
<path fill="none" stroke="black" d="M647,-1112.15C647,-1100.96 647,-1086.24 647,-1072.69"/>
<polygon fill="black" stroke="black" points="650.5,-1072.7 647,-1062.7 643.5,-1072.7 650.5,-1072.7"/>
<text text-anchor="middle" x="653.5" y="-1083.24" font-family="Times,serif" font-size="14.00"> &#39;&#39; </text>
</g>
</g>
</svg>
