<?xml version="1.0" encoding="UTF-8" standalone="no"?>
<!DOCTYPE svg PUBLIC "-//W3C//DTD SVG 1.1//EN"
 "http://www.w3.org/Graphics/SVG/1.1/DTD/svg11.dtd">
<!-- Generated by graphviz version 8.0.3 (0)
 -->
<!-- Pages: 1 -->
<svg width="2584pt" height="675pt"
 viewBox="0.00 0.00 2584.00 674.96" xmlns="http://www.w3.org/2000/svg" xmlns:xlink="http://www.w3.org/1999/xlink">
<g id="graph0" class="graph" transform="scale(1 1) rotate(0) translate(4 670.96)">
<polygon fill="white" stroke="none" points="-4,4 -4,-670.96 2580,-670.96 2580,4 -4,4"/>
<g id="clust1" class="cluster">
<title>cluster_140078853029168</title>
</g>
<!-- node_3 -->
<g id="node_3" class="node">
<title>node_3</title>
<g id="a_node_3"><a xlink:title="RULE Notify Individuals PARTY Organisation MUST NOTIFY each of the Notifiable Individuals WITHIN 3 DAY ">
<ellipse fill="#ffffff" stroke="black" cx="1276" cy="-430.35" rx="464.64" ry="26.74"/>
<text text-anchor="middle" x="1276" y="-434.15" font-family="Times,serif" font-size="14.00" fill="#000000">RULE Notify Individuals PARTY Organisation MUST NOTIFY each of the Notifiable Individuals WITHIN 3 DAY </text>
<text text-anchor="middle" x="1276" y="-419.15" font-family="Times,serif" font-size="14.00" fill="#000000">{}</text>
</a>
</g>
</g>
<!-- node_7 -->
<g id="node_7" class="node">
<title>node_7</title>
<g id="a_node_7"><a xlink:title="4 DAY">
<polygon fill="#ffffff" stroke="black" points="1304,-352.48 1248,-352.48 1248,-314.48 1304,-314.48 1304,-352.48"/>
<text text-anchor="middle" x="1276" y="-337.28" font-family="Times,serif" font-size="14.00" fill="#000000">4 DAY</text>
<text text-anchor="middle" x="1276" y="-322.28" font-family="Times,serif" font-size="14.00" fill="#000000">True</text>
</a>
</g>
</g>
<!-- node_3&#45;&gt;node_7 -->
<g id="edge6" class="edge">
<title>node_3&#45;&gt;node_7</title>
<path fill="none" stroke="black" d="M1276,-403.18C1276,-390.91 1276,-376.26 1276,-363.65"/>
<polygon fill="black" stroke="black" points="1279.5,-363.76 1276,-353.76 1272.5,-363.76 1279.5,-363.76"/>
<text text-anchor="middle" x="1282.5" y="-374.28" font-family="Times,serif" font-size="14.00"> &#39;&#39; </text>
</g>
<!-- node_13 -->
<g id="node_13" class="node">
<title>node_13</title>
<g id="a_node_13"><a xlink:title="the PDPC does query You">
<polygon fill="#ffffff" stroke="black" points="493.5,-352.48 334.5,-352.48 334.5,-314.48 493.5,-314.48 493.5,-352.48"/>
<text text-anchor="middle" x="414" y="-337.28" font-family="Times,serif" font-size="14.00" fill="#000000">the PDPC does query You</text>
<text text-anchor="middle" x="414" y="-322.28" font-family="Times,serif" font-size="14.00" fill="#000000">True</text>
</a>
</g>
</g>
<!-- node_12 -->
<g id="node_12" class="node">
<title>node_12</title>
<g id="a_node_12"><a xlink:title="RULE Respond to PDPC PARTY Organisation MUST respond to the PDPC WITHIN INF DAY ">
<ellipse fill="#ffffff" stroke="black" cx="405" cy="-236.61" rx="388.82" ry="26.74"/>
<text text-anchor="middle" x="405" y="-240.41" font-family="Times,serif" font-size="14.00" fill="#000000">RULE Respond to PDPC PARTY Organisation MUST respond to the PDPC WITHIN INF DAY </text>
<text text-anchor="middle" x="405" y="-225.41" font-family="Times,serif" font-size="14.00" fill="#000000">{}</text>
</a>
</g>
</g>
<!-- node_13&#45;&gt;node_12 -->
<g id="edge13" class="edge">
<title>node_13&#45;&gt;node_12</title>
<path fill="none" stroke="black" d="M412.26,-314.19C411.19,-302.89 409.78,-287.98 408.48,-274.33"/>
<polygon fill="black" stroke="black" points="411.91,-274.36 407.48,-264.74 404.94,-275.02 411.91,-274.36"/>
<text text-anchor="middle" x="416.5" y="-285.28" font-family="Times,serif" font-size="14.00"> &#39;&#39; </text>
</g>
<!-- node_8 -->
<g id="node_8" class="node">
<title>node_8</title>
<g id="a_node_8"><a xlink:title="RULE PDPC prohibit notify individuals PARTY the PDPC MAY NOTIFY you WITHIN INF DAY ">
<ellipse fill="#ffffff" stroke="black" cx="2159" cy="-236.61" rx="400.86" ry="26.74"/>
<text text-anchor="middle" x="2159" y="-240.41" font-family="Times,serif" font-size="14.00" fill="#000000">RULE PDPC prohibit notify individuals PARTY the PDPC MAY NOTIFY you WITHIN INF DAY </text>
<text text-anchor="middle" x="2159" y="-225.41" font-family="Times,serif" font-size="14.00" fill="#000000">{}</text>
</a>
</g>
</g>
<!-- node_11 -->
<g id="node_11" class="node">
<title>node_11</title>
<g id="a_node_11"><a xlink:title="the PDPC does NOTIFY you">
<polygon fill="#ffffff" stroke="black" points="2220,-158.74 2044,-158.74 2044,-120.74 2220,-120.74 2220,-158.74"/>
<text text-anchor="middle" x="2132" y="-143.54" font-family="Times,serif" font-size="14.00" fill="#000000">the PDPC does NOTIFY you</text>
<text text-anchor="middle" x="2132" y="-128.54" font-family="Times,serif" font-size="14.00" fill="#000000">True</text>
</a>
</g>
</g>
<!-- node_8&#45;&gt;node_11 -->
<g id="edge10" class="edge">
<title>node_8&#45;&gt;node_11</title>
<path fill="none" stroke="black" d="M2151.55,-209.44C2148.03,-197.05 2143.81,-182.22 2140.19,-169.52"/>
<polygon fill="black" stroke="black" points="2143.31,-168.68 2137.2,-160.02 2136.57,-170.6 2143.31,-168.68"/>
<text text-anchor="middle" x="2152.5" y="-180.54" font-family="Times,serif" font-size="14.00"> &#39;&#39; </text>
</g>
<!-- node_9 -->
<g id="node_9" class="node">
<title>node_9</title>
<g id="a_node_9"><a xlink:title="Organisation does NOTIFY the PDPC">
<polygon fill="#ffffff" stroke="black" points="2263,-352.48 2037,-352.48 2037,-314.48 2263,-314.48 2263,-352.48"/>
<text text-anchor="middle" x="2150" y="-337.28" font-family="Times,serif" font-size="14.00" fill="#000000">Organisation does NOTIFY the PDPC</text>
<text text-anchor="middle" x="2150" y="-322.28" font-family="Times,serif" font-size="14.00" fill="#000000">True</text>
</a>
</g>
</g>
<!-- node_9&#45;&gt;node_8 -->
<g id="edge9" class="edge">
<title>node_9&#45;&gt;node_8</title>
<path fill="none" stroke="black" d="M2151.74,-314.19C2152.81,-302.89 2154.22,-287.98 2155.52,-274.33"/>
<polygon fill="black" stroke="black" points="2159.06,-275.02 2156.52,-264.74 2152.09,-274.36 2159.06,-275.02"/>
<text text-anchor="middle" x="2160.5" y="-285.28" font-family="Times,serif" font-size="14.00"> &#39;&#39; </text>
</g>
<!-- node_10 -->
<g id="node_10" class="node">
<title>node_10</title>
<g id="a_node_10"><a xlink:title="RULE Cannot notify individuals PARTY Organisation SHANT NOTIFY each of the Notifiable Individuals WITHIN INF DAY ">
<ellipse fill="#ffffff" stroke="black" cx="2052" cy="-42.87" rx="507.91" ry="26.74"/>
<text text-anchor="middle" x="2052" y="-46.67" font-family="Times,serif" font-size="14.00" fill="#000000">RULE Cannot notify individuals PARTY Organisation SHANT NOTIFY each of the Notifiable Individuals WITHIN INF DAY </text>
<text text-anchor="middle" x="2052" y="-31.67" font-family="Times,serif" font-size="14.00" fill="#000000">{}</text>
</a>
</g>
</g>
<!-- node_11&#45;&gt;node_10 -->
<g id="edge11" class="edge">
<title>node_11&#45;&gt;node_10</title>
<path fill="none" stroke="black" d="M2116.58,-120.45C2106.48,-108.48 2092.97,-92.46 2080.92,-78.17"/>
<polygon fill="black" stroke="black" points="2083.15,-76.39 2074.03,-71 2077.8,-80.9 2083.15,-76.39"/>
<text text-anchor="middle" x="2107.5" y="-91.54" font-family="Times,serif" font-size="14.00"> &#39;&#39; </text>
</g>
<!-- node_5 -->
<g id="node_5" class="node">
<title>node_5</title>
<g id="a_node_5"><a xlink:title="RULE Notify PDPC PARTY Organisation MUST NOTIFY the PDPC WITHIN 3 DAY ">
<ellipse fill="#ffffff" stroke="black" cx="2136" cy="-430.35" rx="354.02" ry="26.74"/>
<text text-anchor="middle" x="2136" y="-434.15" font-family="Times,serif" font-size="14.00" fill="#000000">RULE Notify PDPC PARTY Organisation MUST NOTIFY the PDPC WITHIN 3 DAY </text>
<text text-anchor="middle" x="2136" y="-419.15" font-family="Times,serif" font-size="14.00" fill="#000000">{}</text>
</a>
</g>
</g>
<!-- node_5&#45;&gt;node_9 -->
<g id="edge8" class="edge">
<title>node_5&#45;&gt;node_9</title>
<path fill="none" stroke="black" d="M2139.86,-403.18C2141.69,-390.79 2143.88,-375.96 2145.75,-363.26"/>
<polygon fill="black" stroke="black" points="2149.31,-364.16 2147.3,-353.76 2142.38,-363.14 2149.31,-364.16"/>
<text text-anchor="middle" x="2150.5" y="-374.28" font-family="Times,serif" font-size="14.00"> &#39;&#39; </text>
</g>
<!-- node_6 -->
<g id="node_6" class="node">
<title>node_6</title>
<g id="a_node_6"><a xlink:title="RULE Notify and explain PARTY Organisation MUST notify each of the Notifiable Individuals WITHIN INF DAY ">
<ellipse fill="#ffffff" stroke="black" cx="1276" cy="-236.61" rx="464.64" ry="26.74"/>
<text text-anchor="middle" x="1276" y="-240.41" font-family="Times,serif" font-size="14.00" fill="#000000">RULE Notify and explain PARTY Organisation MUST notify each of the Notifiable Individuals WITHIN INF DAY </text>
<text text-anchor="middle" x="1276" y="-225.41" font-family="Times,serif" font-size="14.00" fill="#000000">{}</text>
</a>
</g>
</g>
<!-- node_7&#45;&gt;node_6 -->
<g id="edge7" class="edge">
<title>node_7&#45;&gt;node_6</title>
<path fill="none" stroke="black" d="M1276,-314.19C1276,-303 1276,-288.28 1276,-274.73"/>
<polygon fill="black" stroke="black" points="1279.5,-274.74 1276,-264.74 1272.5,-274.74 1279.5,-274.74"/>
<text text-anchor="middle" x="1282.5" y="-285.28" font-family="Times,serif" font-size="14.00"> &#39;&#39; </text>
</g>
<!-- node_1 -->
<g id="node_1" class="node">
<title>node_1</title>
<g id="a_node_1"><a xlink:title="RULE PDPC query with demand PARTY the PDPC MAY query You WITHIN INF DAY ">
<ellipse fill="#ffffff" stroke="black" cx="429" cy="-430.35" rx="362.99" ry="26.74"/>
<text text-anchor="middle" x="429" y="-434.15" font-family="Times,serif" font-size="14.00" fill="#000000">RULE PDPC query with demand PARTY the PDPC MAY query You WITHIN INF DAY </text>
<text text-anchor="middle" x="429" y="-419.15" font-family="Times,serif" font-size="14.00" fill="#000000">{}</text>
</a>
</g>
</g>
<!-- node_1&#45;&gt;node_13 -->
<g id="edge12" class="edge">
<title>node_1&#45;&gt;node_13</title>
<path fill="none" stroke="black" d="M424.86,-403.18C422.9,-390.79 420.56,-375.96 418.55,-363.26"/>
<polygon fill="black" stroke="black" points="421.91,-363.09 416.89,-353.76 414.99,-364.18 421.91,-363.09"/>
<text text-anchor="middle" x="427.5" y="-374.28" font-family="Times,serif" font-size="14.00"> &#39;&#39; </text>
</g>
<!-- node_2 -->
<g id="node_2" class="node">
<title>node_2</title>
<g id="a_node_2"><a xlink:title="31 DAY">
<polygon fill="#ffffff" stroke="black" points="714,-546.22 652,-546.22 652,-508.22 714,-508.22 714,-546.22"/>
<text text-anchor="middle" x="683" y="-531.02" font-family="Times,serif" font-size="14.00" fill="#000000">31 DAY</text>
<text text-anchor="middle" x="683" y="-516.02" font-family="Times,serif" font-size="14.00" fill="#000000">True</text>
</a>
</g>
</g>
<!-- node_2&#45;&gt;node_1 -->
<g id="edge2" class="edge">
<title>node_2&#45;&gt;node_1</title>
<path fill="none" stroke="black" d="M651.6,-514.49C615.97,-501.19 556.53,-478.98 508.02,-460.87"/>
<polygon fill="black" stroke="black" points="509.44,-457.29 498.85,-457.07 506.99,-463.84 509.44,-457.29"/>
<text text-anchor="middle" x="592.5" y="-479.02" font-family="Times,serif" font-size="14.00"> &#39;&#39; </text>
</g>
<!-- node_0 -->
<g id="node_0" class="node">
<title>node_0</title>
<g id="a_node_0"><a xlink:title="RULE Assessment PARTY Organisation MUST assess if it is a Notifiable Data Breach WITHIN 30 DAY ">
<ellipse fill="#ffffff" stroke="black" cx="1005" cy="-624.09" rx="424.03" ry="26.74"/>
<text text-anchor="middle" x="1005" y="-627.89" font-family="Times,serif" font-size="14.00" fill="#000000">RULE Assessment PARTY Organisation MUST assess if it is a Notifiable Data Breach WITHIN 30 DAY </text>
<text text-anchor="middle" x="1005" y="-612.89" font-family="Times,serif" font-size="14.00" fill="#000000">{}</text>
</a>
</g>
</g>
<!-- node_0&#45;&gt;node_2 -->
<g id="edge1" class="edge">
<title>node_0&#45;&gt;node_2</title>
<path fill="none" stroke="black" d="M918.29,-597.54C855.6,-579.07 773.66,-554.93 724.87,-540.56"/>
<polygon fill="black" stroke="black" points="725.97,-536.94 715.39,-537.47 723.99,-543.65 725.97,-536.94"/>
<text text-anchor="middle" x="859.5" y="-568.02" font-family="Times,serif" font-size="14.00"> &#39;&#39; </text>
</g>
<!-- node_4 -->
<g id="node_4" class="node">
<title>node_4</title>
<g id="a_node_4"><a xlink:title="Organisation does assess if it is a Notifiable Data Breach">
<polygon fill="#ffffff" stroke="black" points="1439.5,-546.22 1112.5,-546.22 1112.5,-508.22 1439.5,-508.22 1439.5,-546.22"/>
<text text-anchor="middle" x="1276" y="-531.02" font-family="Times,serif" font-size="14.00" fill="#000000">Organisation does assess if it is a Notifiable Data Breach</text>
<text text-anchor="middle" x="1276" y="-516.02" font-family="Times,serif" font-size="14.00" fill="#000000">True</text>
</a>
</g>
</g>
<!-- node_0&#45;&gt;node_4 -->
<g id="edge3" class="edge">
<title>node_0&#45;&gt;node_4</title>
<path fill="none" stroke="black" d="M1078.69,-597.29C1120.8,-582.55 1173.03,-564.27 1213.17,-550.21"/>
<polygon fill="black" stroke="black" points="1214.09,-553.25 1222.37,-546.64 1211.77,-546.65 1214.09,-553.25"/>
<text text-anchor="middle" x="1178.5" y="-568.02" font-family="Times,serif" font-size="14.00"> &#39;&#39; </text>
</g>
<!-- node_4&#45;&gt;node_3 -->
<g id="edge4" class="edge">
<title>node_4&#45;&gt;node_3</title>
<path fill="none" stroke="black" d="M1276,-507.93C1276,-496.74 1276,-482.02 1276,-468.47"/>
<polygon fill="black" stroke="black" points="1279.5,-468.48 1276,-458.48 1272.5,-468.48 1279.5,-468.48"/>
<text text-anchor="middle" x="1282.5" y="-479.02" font-family="Times,serif" font-size="14.00"> &#39;&#39; </text>
</g>
<!-- node_4&#45;&gt;node_5 -->
<g id="edge5" class="edge">
<title>node_4&#45;&gt;node_5</title>
<path fill="none" stroke="black" d="M1439.78,-508.15C1578.75,-492.82 1778.88,-470.75 1928.94,-454.19"/>
<polygon fill="black" stroke="black" points="1929.1,-457.58 1938.66,-453.01 1928.34,-450.63 1929.1,-457.58"/>
<text text-anchor="middle" x="1737.5" y="-479.02" font-family="Times,serif" font-size="14.00"> &#39;&#39; </text>
</g>
</g>
</svg>
