<?xml version="1.0" encoding="UTF-8" standalone="no"?>
<!DOCTYPE svg PUBLIC "-//W3C//DTD SVG 1.1//EN"
 "http://www.w3.org/Graphics/SVG/1.1/DTD/svg11.dtd">
<!-- Generated by graphviz version 8.0.3 (0)
 -->
<!-- Pages: 1 -->
<svg width="2585pt" height="675pt"
 viewBox="0.00 0.00 2585.00 674.96" xmlns="http://www.w3.org/2000/svg" xmlns:xlink="http://www.w3.org/1999/xlink">
<g id="graph0" class="graph" transform="scale(1 1) rotate(0) translate(4 670.96)">
<polygon fill="white" stroke="none" points="-4,4 -4,-670.96 2581,-670.96 2581,4 -4,4"/>
<g id="clust1" class="cluster">
<title>cluster_140205555301728</title>
</g>
<!-- node_6 -->
<g id="node_6" class="node">
<title>node_6</title>
<g id="a_node_6"><a xlink:title="4 DAY">
<polygon fill="#ffffff" stroke="black" points="2115,-352.48 2059,-352.48 2059,-314.48 2115,-314.48 2115,-352.48"/>
<text text-anchor="middle" x="2087" y="-337.28" font-family="Times,serif" font-size="14.00" fill="#000000">4 DAY</text>
<text text-anchor="middle" x="2087" y="-322.28" font-family="Times,serif" font-size="14.00" fill="#000000">True</text>
</a>
</g>
</g>
<!-- node_7 -->
<g id="node_7" class="node">
<title>node_7</title>
<g id="a_node_7"><a xlink:title="RULE Notify and explain PARTY Organisation MUST notify each of the Notifiable Individuals WITHIN INF DAY ">
<ellipse fill="#ffffff" stroke="black" cx="2096" cy="-236.61" rx="464.64" ry="26.74"/>
<text text-anchor="middle" x="2096" y="-240.41" font-family="Times,serif" font-size="14.00" fill="#000000">RULE Notify and explain PARTY Organisation MUST notify each of the Notifiable Individuals WITHIN INF DAY </text>
<text text-anchor="middle" x="2096" y="-225.41" font-family="Times,serif" font-size="14.00" fill="#000000">{}</text>
</a>
</g>
</g>
<!-- node_6&#45;&gt;node_7 -->
<g id="edge7" class="edge">
<title>node_6&#45;&gt;node_7</title>
<path fill="none" stroke="black" d="M2088.74,-314.19C2089.81,-302.89 2091.22,-287.98 2092.52,-274.33"/>
<polygon fill="black" stroke="black" points="2096.06,-275.02 2093.52,-264.74 2089.09,-274.36 2096.06,-275.02"/>
<text text-anchor="middle" x="2097.5" y="-285.28" font-family="Times,serif" font-size="14.00"> &#39;&#39; </text>
</g>
<!-- node_9 -->
<g id="node_9" class="node">
<title>node_9</title>
<g id="a_node_9"><a xlink:title="RULE PDPC prohibit notify individuals PARTY the PDPC MAY NOTIFY you WITHIN INF DAY ">
<ellipse fill="#ffffff" stroke="black" cx="1213" cy="-236.61" rx="400.86" ry="26.74"/>
<text text-anchor="middle" x="1213" y="-240.41" font-family="Times,serif" font-size="14.00" fill="#000000">RULE PDPC prohibit notify individuals PARTY the PDPC MAY NOTIFY you WITHIN INF DAY </text>
<text text-anchor="middle" x="1213" y="-225.41" font-family="Times,serif" font-size="14.00" fill="#000000">{}</text>
</a>
</g>
</g>
<!-- node_10 -->
<g id="node_10" class="node">
<title>node_10</title>
<g id="a_node_10"><a xlink:title="the PDPC does NOTIFY you">
<polygon fill="#ffffff" stroke="black" points="1301,-158.74 1125,-158.74 1125,-120.74 1301,-120.74 1301,-158.74"/>
<text text-anchor="middle" x="1213" y="-143.54" font-family="Times,serif" font-size="14.00" fill="#000000">the PDPC does NOTIFY you</text>
<text text-anchor="middle" x="1213" y="-128.54" font-family="Times,serif" font-size="14.00" fill="#000000">True</text>
</a>
</g>
</g>
<!-- node_9&#45;&gt;node_10 -->
<g id="edge10" class="edge">
<title>node_9&#45;&gt;node_10</title>
<path fill="none" stroke="black" d="M1213,-209.44C1213,-197.17 1213,-182.52 1213,-169.91"/>
<polygon fill="black" stroke="black" points="1216.5,-170.02 1213,-160.02 1209.5,-170.02 1216.5,-170.02"/>
<text text-anchor="middle" x="1219.5" y="-180.54" font-family="Times,serif" font-size="14.00"> &#39;&#39; </text>
</g>
<!-- node_12 -->
<g id="node_12" class="node">
<title>node_12</title>
<g id="a_node_12"><a xlink:title="the PDPC does query You">
<polygon fill="#ffffff" stroke="black" points="511.5,-352.48 352.5,-352.48 352.5,-314.48 511.5,-314.48 511.5,-352.48"/>
<text text-anchor="middle" x="432" y="-337.28" font-family="Times,serif" font-size="14.00" fill="#000000">the PDPC does query You</text>
<text text-anchor="middle" x="432" y="-322.28" font-family="Times,serif" font-size="14.00" fill="#000000">True</text>
</a>
</g>
</g>
<!-- node_13 -->
<g id="node_13" class="node">
<title>node_13</title>
<g id="a_node_13"><a xlink:title="RULE Respond to PDPC PARTY Organisation MUST respond to the PDPC WITHIN INF DAY ">
<ellipse fill="#ffffff" stroke="black" cx="405" cy="-236.61" rx="388.82" ry="26.74"/>
<text text-anchor="middle" x="405" y="-240.41" font-family="Times,serif" font-size="14.00" fill="#000000">RULE Respond to PDPC PARTY Organisation MUST respond to the PDPC WITHIN INF DAY </text>
<text text-anchor="middle" x="405" y="-225.41" font-family="Times,serif" font-size="14.00" fill="#000000">{}</text>
</a>
</g>
</g>
<!-- node_12&#45;&gt;node_13 -->
<g id="edge13" class="edge">
<title>node_12&#45;&gt;node_13</title>
<path fill="none" stroke="black" d="M426.79,-314.19C423.55,-302.78 419.25,-287.69 415.33,-273.92"/>
<polygon fill="black" stroke="black" points="418.54,-273.4 412.44,-264.74 411.81,-275.31 418.54,-273.4"/>
<text text-anchor="middle" x="427.5" y="-285.28" font-family="Times,serif" font-size="14.00"> &#39;&#39; </text>
</g>
<!-- node_11 -->
<g id="node_11" class="node">
<title>node_11</title>
<g id="a_node_11"><a xlink:title="RULE Cannot notify individuals PARTY Organisation SHANT NOTIFY each of the Notifiable Individuals WITHIN INF DAY ">
<ellipse fill="#ffffff" stroke="black" cx="1213" cy="-42.87" rx="507.91" ry="26.74"/>
<text text-anchor="middle" x="1213" y="-46.67" font-family="Times,serif" font-size="14.00" fill="#000000">RULE Cannot notify individuals PARTY Organisation SHANT NOTIFY each of the Notifiable Individuals WITHIN INF DAY </text>
<text text-anchor="middle" x="1213" y="-31.67" font-family="Times,serif" font-size="14.00" fill="#000000">{}</text>
</a>
</g>
</g>
<!-- node_10&#45;&gt;node_11 -->
<g id="edge11" class="edge">
<title>node_10&#45;&gt;node_11</title>
<path fill="none" stroke="black" d="M1213,-120.45C1213,-109.26 1213,-94.54 1213,-80.99"/>
<polygon fill="black" stroke="black" points="1216.5,-81 1213,-71 1209.5,-81 1216.5,-81"/>
<text text-anchor="middle" x="1219.5" y="-91.54" font-family="Times,serif" font-size="14.00"> &#39;&#39; </text>
</g>
<!-- node_1 -->
<g id="node_1" class="node">
<title>node_1</title>
<g id="a_node_1"><a xlink:title="RULE Assessment PARTY Organisation MUST assess if it is a Notifiable Data Breach WITHIN 30 DAY ">
<ellipse fill="#ffffff" stroke="black" cx="974" cy="-624.09" rx="424.03" ry="26.74"/>
<text text-anchor="middle" x="974" y="-627.89" font-family="Times,serif" font-size="14.00" fill="#000000">RULE Assessment PARTY Organisation MUST assess if it is a Notifiable Data Breach WITHIN 30 DAY </text>
<text text-anchor="middle" x="974" y="-612.89" font-family="Times,serif" font-size="14.00" fill="#000000">{}</text>
</a>
</g>
</g>
<!-- node_0 -->
<g id="node_0" class="node">
<title>node_0</title>
<g id="a_node_0"><a xlink:title="31 DAY">
<polygon fill="#ffffff" stroke="black" points="725,-546.22 663,-546.22 663,-508.22 725,-508.22 725,-546.22"/>
<text text-anchor="middle" x="694" y="-531.02" font-family="Times,serif" font-size="14.00" fill="#000000">31 DAY</text>
<text text-anchor="middle" x="694" y="-516.02" font-family="Times,serif" font-size="14.00" fill="#000000">True</text>
</a>
</g>
</g>
<!-- node_1&#45;&gt;node_0 -->
<g id="edge1" class="edge">
<title>node_1&#45;&gt;node_0</title>
<path fill="none" stroke="black" d="M898.23,-597.42C845.97,-579.71 778.47,-556.84 735.69,-542.35"/>
<polygon fill="black" stroke="black" points="736.97,-538.74 726.37,-538.85 734.72,-545.37 736.97,-538.74"/>
<text text-anchor="middle" x="848.5" y="-568.02" font-family="Times,serif" font-size="14.00"> &#39;&#39; </text>
</g>
<!-- node_3 -->
<g id="node_3" class="node">
<title>node_3</title>
<g id="a_node_3"><a xlink:title="Organisation does assess if it is a Notifiable Data Breach">
<polygon fill="#ffffff" stroke="black" points="1376.5,-546.22 1049.5,-546.22 1049.5,-508.22 1376.5,-508.22 1376.5,-546.22"/>
<text text-anchor="middle" x="1213" y="-531.02" font-family="Times,serif" font-size="14.00" fill="#000000">Organisation does assess if it is a Notifiable Data Breach</text>
<text text-anchor="middle" x="1213" y="-516.02" font-family="Times,serif" font-size="14.00" fill="#000000">True</text>
</a>
</g>
</g>
<!-- node_1&#45;&gt;node_3 -->
<g id="edge3" class="edge">
<title>node_1&#45;&gt;node_3</title>
<path fill="none" stroke="black" d="M1038.99,-597.29C1075.73,-582.71 1121.21,-564.66 1156.46,-550.66"/>
<polygon fill="black" stroke="black" points="1157.58,-553.59 1165.58,-546.64 1155,-547.08 1157.58,-553.59"/>
<text text-anchor="middle" x="1127.5" y="-568.02" font-family="Times,serif" font-size="14.00"> &#39;&#39; </text>
</g>
<!-- node_2 -->
<g id="node_2" class="node">
<title>node_2</title>
<g id="a_node_2"><a xlink:title="RULE PDPC query with demand PARTY the PDPC MAY query You WITHIN INF DAY ">
<ellipse fill="#ffffff" stroke="black" cx="473" cy="-430.35" rx="362.99" ry="26.74"/>
<text text-anchor="middle" x="473" y="-434.15" font-family="Times,serif" font-size="14.00" fill="#000000">RULE PDPC query with demand PARTY the PDPC MAY query You WITHIN INF DAY </text>
<text text-anchor="middle" x="473" y="-419.15" font-family="Times,serif" font-size="14.00" fill="#000000">{}</text>
</a>
</g>
</g>
<!-- node_0&#45;&gt;node_2 -->
<g id="edge2" class="edge">
<title>node_0&#45;&gt;node_2</title>
<path fill="none" stroke="black" d="M662.8,-512.83C631.87,-499.55 583.42,-478.75 543.21,-461.49"/>
<polygon fill="black" stroke="black" points="544.75,-457.91 534.18,-457.18 541.99,-464.35 544.75,-457.91"/>
<text text-anchor="middle" x="615.5" y="-479.02" font-family="Times,serif" font-size="14.00"> &#39;&#39; </text>
</g>
<!-- node_5 -->
<g id="node_5" class="node">
<title>node_5</title>
<g id="a_node_5"><a xlink:title="RULE Notify PDPC PARTY Organisation MUST NOTIFY the PDPC WITHIN 3 DAY ">
<ellipse fill="#ffffff" stroke="black" cx="1213" cy="-430.35" rx="354.02" ry="26.74"/>
<text text-anchor="middle" x="1213" y="-434.15" font-family="Times,serif" font-size="14.00" fill="#000000">RULE Notify PDPC PARTY Organisation MUST NOTIFY the PDPC WITHIN 3 DAY </text>
<text text-anchor="middle" x="1213" y="-419.15" font-family="Times,serif" font-size="14.00" fill="#000000">{}</text>
</a>
</g>
</g>
<!-- node_3&#45;&gt;node_5 -->
<g id="edge5" class="edge">
<title>node_3&#45;&gt;node_5</title>
<path fill="none" stroke="black" d="M1213,-507.93C1213,-496.74 1213,-482.02 1213,-468.47"/>
<polygon fill="black" stroke="black" points="1216.5,-468.48 1213,-458.48 1209.5,-468.48 1216.5,-468.48"/>
<text text-anchor="middle" x="1219.5" y="-479.02" font-family="Times,serif" font-size="14.00"> &#39;&#39; </text>
</g>
<!-- node_4 -->
<g id="node_4" class="node">
<title>node_4</title>
<g id="a_node_4"><a xlink:title="RULE Notify Individuals PARTY Organisation MUST NOTIFY each of the Notifiable Individuals WITHIN 3 DAY ">
<ellipse fill="#ffffff" stroke="black" cx="2073" cy="-430.35" rx="464.64" ry="26.74"/>
<text text-anchor="middle" x="2073" y="-434.15" font-family="Times,serif" font-size="14.00" fill="#000000">RULE Notify Individuals PARTY Organisation MUST NOTIFY each of the Notifiable Individuals WITHIN 3 DAY </text>
<text text-anchor="middle" x="2073" y="-419.15" font-family="Times,serif" font-size="14.00" fill="#000000">{}</text>
</a>
</g>
</g>
<!-- node_3&#45;&gt;node_4 -->
<g id="edge4" class="edge">
<title>node_3&#45;&gt;node_4</title>
<path fill="none" stroke="black" d="M1376.78,-508.15C1511.35,-493.31 1703.27,-472.14 1851.53,-455.78"/>
<polygon fill="black" stroke="black" points="1851.58,-459.19 1861.13,-454.61 1850.81,-452.23 1851.58,-459.19"/>
<text text-anchor="middle" x="1674.5" y="-479.02" font-family="Times,serif" font-size="14.00"> &#39;&#39; </text>
</g>
<!-- node_2&#45;&gt;node_12 -->
<g id="edge12" class="edge">
<title>node_2&#45;&gt;node_12</title>
<path fill="none" stroke="black" d="M461.69,-403.18C456.23,-390.54 449.67,-375.36 444.11,-362.49"/>
<polygon fill="black" stroke="black" points="447.08,-361.55 439.9,-353.76 440.65,-364.33 447.08,-361.55"/>
<text text-anchor="middle" x="459.5" y="-374.28" font-family="Times,serif" font-size="14.00"> &#39;&#39; </text>
</g>
<!-- node_8 -->
<g id="node_8" class="node">
<title>node_8</title>
<g id="a_node_8"><a xlink:title="Organisation does NOTIFY the PDPC">
<polygon fill="#ffffff" stroke="black" points="1326,-352.48 1100,-352.48 1100,-314.48 1326,-314.48 1326,-352.48"/>
<text text-anchor="middle" x="1213" y="-337.28" font-family="Times,serif" font-size="14.00" fill="#000000">Organisation does NOTIFY the PDPC</text>
<text text-anchor="middle" x="1213" y="-322.28" font-family="Times,serif" font-size="14.00" fill="#000000">True</text>
</a>
</g>
</g>
<!-- node_5&#45;&gt;node_8 -->
<g id="edge8" class="edge">
<title>node_5&#45;&gt;node_8</title>
<path fill="none" stroke="black" d="M1213,-403.18C1213,-390.91 1213,-376.26 1213,-363.65"/>
<polygon fill="black" stroke="black" points="1216.5,-363.76 1213,-353.76 1209.5,-363.76 1216.5,-363.76"/>
<text text-anchor="middle" x="1219.5" y="-374.28" font-family="Times,serif" font-size="14.00"> &#39;&#39; </text>
</g>
<!-- node_4&#45;&gt;node_6 -->
<g id="edge6" class="edge">
<title>node_4&#45;&gt;node_6</title>
<path fill="none" stroke="black" d="M2076.86,-403.18C2078.69,-390.79 2080.88,-375.96 2082.75,-363.26"/>
<polygon fill="black" stroke="black" points="2086.31,-364.16 2084.3,-353.76 2079.38,-363.14 2086.31,-364.16"/>
<text text-anchor="middle" x="2087.5" y="-374.28" font-family="Times,serif" font-size="14.00"> &#39;&#39; </text>
</g>
<!-- node_8&#45;&gt;node_9 -->
<g id="edge9" class="edge">
<title>node_8&#45;&gt;node_9</title>
<path fill="none" stroke="black" d="M1213,-314.19C1213,-303 1213,-288.28 1213,-274.73"/>
<polygon fill="black" stroke="black" points="1216.5,-274.74 1213,-264.74 1209.5,-274.74 1216.5,-274.74"/>
<text text-anchor="middle" x="1219.5" y="-285.28" font-family="Times,serif" font-size="14.00"> &#39;&#39; </text>
</g>
</g>
</svg>
