<?xml version="1.0" encoding="UTF-8" standalone="no"?>
<!DOCTYPE svg PUBLIC "-//W3C//DTD SVG 1.1//EN"
 "http://www.w3.org/Graphics/SVG/1.1/DTD/svg11.dtd">
<!-- Generated by graphviz version 8.0.3 (0)
 -->
<!-- Pages: 1 -->
<svg width="1800pt" height="1302pt"
 viewBox="0.00 0.00 1800.00 1302.18" xmlns="http://www.w3.org/2000/svg" xmlns:xlink="http://www.w3.org/1999/xlink">
<g id="graph0" class="graph" transform="scale(1 1) rotate(0) translate(4 1298.18)">
<polygon fill="white" stroke="none" points="-4,4 -4,-1298.18 1796,-1298.18 1796,4 -4,4"/>
<g id="clust1" class="cluster">
<title>cluster_140321704333600</title>
</g>
<!-- node_0 -->
<g id="node_0" class="node">
<title>node_0</title>
<g id="a_node_0"><a xlink:title="RULE &#39;Avoid`default PARTY &#39;Borrower SHANT &#39;default WITHIN 60 DAY HENCE empty LEST empty">
<ellipse fill="#ffffff" stroke="black" cx="435" cy="-863.83" rx="419.13" ry="26.74"/>
<text text-anchor="middle" x="435" y="-867.63" font-family="Times,serif" font-size="14.00" fill="#000000">RULE &#39;Avoid`default PARTY &#39;Borrower SHANT &#39;default WITHIN 60 DAY HENCE empty LEST empty</text>
<text text-anchor="middle" x="435" y="-852.63" font-family="Times,serif" font-size="14.00" fill="#000000">{}</text>
</a>
</g>
</g>
<!-- node_2 -->
<g id="node_2" class="node">
<title>node_2</title>
<g id="a_node_2"><a xlink:title="done 0">
<polygon fill="#ffffff" stroke="black" points="462,-729.96 408,-729.96 408,-691.96 462,-691.96 462,-729.96"/>
<text text-anchor="middle" x="435" y="-714.76" font-family="Times,serif" font-size="14.00" fill="#000000">done 0</text>
<text text-anchor="middle" x="435" y="-699.76" font-family="Times,serif" font-size="14.00" fill="#000000">True</text>
</a>
</g>
</g>
<!-- node_0&#45;&gt;node_2 -->
<g id="edge1" class="edge">
<title>node_0&#45;&gt;node_2</title>
<path fill="none" stroke="black" d="M435,-836.9C435,-810.36 435,-769.18 435,-741.43"/>
<polygon fill="black" stroke="black" points="438.5,-741.44 435,-731.44 431.5,-741.44 438.5,-741.44"/>
<text text-anchor="middle" x="441.5" y="-807.76" font-family="Times,serif" font-size="14.00"> &#39;&#39; </text>
</g>
<!-- node_1 -->
<g id="node_1" class="node">
<title>node_1</title>
<g id="a_node_1"><a xlink:title="RULE &#39;Payment`default PARTY &#39;Lender MAY &#39;notify`Borrower WITHIN INF DAY HENCE empty LEST empty">
<ellipse fill="#ffffff" stroke="black" cx="909" cy="-430.35" rx="453.01" ry="26.74"/>
<text text-anchor="middle" x="909" y="-434.15" font-family="Times,serif" font-size="14.00" fill="#000000">RULE &#39;Payment`default PARTY &#39;Lender MAY &#39;notify`Borrower WITHIN INF DAY HENCE empty LEST empty</text>
<text text-anchor="middle" x="909" y="-419.15" font-family="Times,serif" font-size="14.00" fill="#000000">{}</text>
</a>
</g>
</g>
<!-- node_9 -->
<g id="node_9" class="node">
<title>node_9</title>
<g id="a_node_9"><a xlink:title="done 3">
<polygon fill="#ffffff" stroke="black" points="936,-352.48 882,-352.48 882,-314.48 936,-314.48 936,-352.48"/>
<text text-anchor="middle" x="909" y="-337.28" font-family="Times,serif" font-size="14.00" fill="#000000">done 3</text>
<text text-anchor="middle" x="909" y="-322.28" font-family="Times,serif" font-size="14.00" fill="#000000">True</text>
</a>
</g>
</g>
<!-- node_1&#45;&gt;node_9 -->
<g id="edge7" class="edge">
<title>node_1&#45;&gt;node_9</title>
<path fill="none" stroke="black" d="M909,-403.18C909,-390.91 909,-376.26 909,-363.65"/>
<polygon fill="black" stroke="black" points="912.5,-363.76 909,-353.76 905.5,-363.76 912.5,-363.76"/>
<text text-anchor="middle" x="915.5" y="-374.28" font-family="Times,serif" font-size="14.00"> &#39;&#39; </text>
</g>
<!-- node_10 -->
<g id="node_10" class="node">
<title>node_10</title>
<g id="a_node_10"><a xlink:title="done 4">
<polygon fill="#ffffff" stroke="black" points="923,-979.7 869,-979.7 869,-941.7 923,-941.7 923,-979.7"/>
<text text-anchor="middle" x="896" y="-964.5" font-family="Times,serif" font-size="14.00" fill="#000000">done 4</text>
<text text-anchor="middle" x="896" y="-949.5" font-family="Times,serif" font-size="14.00" fill="#000000">True</text>
</a>
</g>
</g>
<!-- node_10&#45;&gt;node_0 -->
<g id="edge10" class="edge">
<title>node_10&#45;&gt;node_0</title>
<path fill="none" stroke="black" d="M868.54,-954.05C810.54,-942.11 672.26,-913.66 567.34,-892.07"/>
<polygon fill="black" stroke="black" points="568.15,-888.45 557.65,-889.87 566.74,-895.31 568.15,-888.45"/>
<text text-anchor="middle" x="726.5" y="-912.5" font-family="Times,serif" font-size="14.00"> &#39;&#39; </text>
</g>
<!-- node_11 -->
<g id="node_11" class="node">
<title>node_11</title>
<g id="a_node_11"><a xlink:title="RULE &#39;Repay`in`two`halves PARTY &#39;Borrower MUST &#39;repay`first`half ON 30 DAY HENCE empty LEST empty">
<ellipse fill="#ffffff" stroke="black" cx="1324" cy="-863.83" rx="451.68" ry="26.74"/>
<text text-anchor="middle" x="1324" y="-867.63" font-family="Times,serif" font-size="14.00" fill="#000000">RULE &#39;Repay`in`two`halves PARTY &#39;Borrower MUST &#39;repay`first`half ON 30 DAY HENCE empty LEST empty</text>
<text text-anchor="middle" x="1324" y="-852.63" font-family="Times,serif" font-size="14.00" fill="#000000">{}</text>
</a>
</g>
</g>
<!-- node_10&#45;&gt;node_11 -->
<g id="edge11" class="edge">
<title>node_10&#45;&gt;node_11</title>
<path fill="none" stroke="black" d="M923.42,-953.62C978.02,-941.52 1103.31,-913.75 1199.34,-892.46"/>
<polygon fill="black" stroke="black" points="1200.01,-895.68 1209.01,-890.1 1198.49,-888.84 1200.01,-895.68"/>
<text text-anchor="middle" x="1128.5" y="-912.5" font-family="Times,serif" font-size="14.00"> &#39;&#39; </text>
</g>
<!-- node_13 -->
<g id="node_13" class="node">
<title>node_13</title>
<g id="a_node_13"><a xlink:title="done 6">
<polygon fill="#ffffff" stroke="black" points="1092,-785.96 1038,-785.96 1038,-747.96 1092,-747.96 1092,-785.96"/>
<text text-anchor="middle" x="1065" y="-770.76" font-family="Times,serif" font-size="14.00" fill="#000000">done 6</text>
<text text-anchor="middle" x="1065" y="-755.76" font-family="Times,serif" font-size="14.00" fill="#000000">True</text>
</a>
</g>
</g>
<!-- node_11&#45;&gt;node_13 -->
<g id="edge12" class="edge">
<title>node_11&#45;&gt;node_13</title>
<path fill="none" stroke="black" d="M1253.57,-837.03C1204.86,-819.19 1141.96,-796.15 1102.54,-781.71"/>
<polygon fill="black" stroke="black" points="1103.91,-778.12 1093.32,-777.97 1101.5,-784.69 1103.91,-778.12"/>
<text text-anchor="middle" x="1208.5" y="-807.76" font-family="Times,serif" font-size="14.00"> &#39;&#39; </text>
</g>
<!-- node_14 -->
<g id="node_14" class="node">
<title>node_14</title>
<g id="a_node_14"><a xlink:title="not done 7">
<polygon fill="#ffffff" stroke="black" points="1319,-602.22 1245,-602.22 1245,-564.22 1319,-564.22 1319,-602.22"/>
<text text-anchor="middle" x="1282" y="-587.02" font-family="Times,serif" font-size="14.00" fill="#000000">not done 7</text>
<text text-anchor="middle" x="1282" y="-572.02" font-family="Times,serif" font-size="14.00" fill="#000000">True</text>
</a>
</g>
</g>
<!-- node_11&#45;&gt;node_14 -->
<g id="edge14" class="edge">
<title>node_11&#45;&gt;node_14</title>
<path fill="none" stroke="black" d="M1340.8,-836.98C1369.16,-789.74 1419.14,-688.1 1373,-620.22 1363.03,-605.56 1346.07,-596.87 1329.48,-591.72"/>
<polygon fill="black" stroke="black" points="1330.82,-588.19 1320.26,-588.95 1328.99,-594.94 1330.82,-588.19"/>
<text text-anchor="middle" x="1386.5" y="-763.26" font-family="Times,serif" font-size="14.00"> &#39;&#39; </text>
</g>
<!-- node_12 -->
<g id="node_12" class="node">
<title>node_12</title>
<g id="a_node_12"><a xlink:title="RULE &#39;Repay`second`half PARTY &#39;Borrower MUST &#39;repay`second`half ON 30 DAY HENCE empty LEST empty">
<ellipse fill="#ffffff" stroke="black" cx="909" cy="-647.09" rx="455.25" ry="26.74"/>
<text text-anchor="middle" x="909" y="-650.89" font-family="Times,serif" font-size="14.00" fill="#000000">RULE &#39;Repay`second`half PARTY &#39;Borrower MUST &#39;repay`second`half ON 30 DAY HENCE empty LEST empty</text>
<text text-anchor="middle" x="909" y="-635.89" font-family="Times,serif" font-size="14.00" fill="#000000">{}</text>
</a>
</g>
</g>
<!-- node_15 -->
<g id="node_15" class="node">
<title>node_15</title>
<g id="a_node_15"><a xlink:title="not done 8">
<polygon fill="#ffffff" stroke="black" points="946,-546.22 872,-546.22 872,-508.22 946,-508.22 946,-546.22"/>
<text text-anchor="middle" x="909" y="-531.02" font-family="Times,serif" font-size="14.00" fill="#000000">not done 8</text>
<text text-anchor="middle" x="909" y="-516.02" font-family="Times,serif" font-size="14.00" fill="#000000">True</text>
</a>
</g>
</g>
<!-- node_12&#45;&gt;node_15 -->
<g id="edge16" class="edge">
<title>node_12&#45;&gt;node_15</title>
<path fill="none" stroke="black" d="M909,-619.93C909,-601.42 909,-576.59 909,-557.43"/>
<polygon fill="black" stroke="black" points="912.5,-557.62 909,-547.62 905.5,-557.62 912.5,-557.62"/>
<text text-anchor="middle" x="915.5" y="-579.52" font-family="Times,serif" font-size="14.00"> &#39;&#39; </text>
</g>
<!-- node_13&#45;&gt;node_12 -->
<g id="edge13" class="edge">
<title>node_13&#45;&gt;node_12</title>
<path fill="none" stroke="black" d="M1040.62,-747.54C1017.02,-729.71 980.7,-702.27 952.2,-680.73"/>
<polygon fill="black" stroke="black" points="954.71,-677.49 944.62,-674.25 950.49,-683.07 954.71,-677.49"/>
<text text-anchor="middle" x="1020.5" y="-707.26" font-family="Times,serif" font-size="14.00"> &#39;&#39; </text>
</g>
<!-- node_14&#45;&gt;node_1 -->
<g id="edge15" class="edge">
<title>node_14&#45;&gt;node_1</title>
<path fill="none" stroke="black" d="M1244.53,-567.06C1183.58,-542.41 1061.88,-493.19 983.02,-461.29"/>
<polygon fill="black" stroke="black" points="984.72,-457.8 974.14,-457.29 982.1,-464.29 984.72,-457.8"/>
<text text-anchor="middle" x="1193.5" y="-523.52" font-family="Times,serif" font-size="14.00"> &#39;&#39; </text>
</g>
<!-- node_15&#45;&gt;node_1 -->
<g id="edge17" class="edge">
<title>node_15&#45;&gt;node_1</title>
<path fill="none" stroke="black" d="M909,-507.93C909,-496.74 909,-482.02 909,-468.47"/>
<polygon fill="black" stroke="black" points="912.5,-468.48 909,-458.48 905.5,-468.48 912.5,-468.48"/>
<text text-anchor="middle" x="915.5" y="-479.02" font-family="Times,serif" font-size="14.00"> &#39;&#39; </text>
</g>
<!-- node_2&#45;&gt;node_1 -->
<g id="edge2" class="edge">
<title>node_2&#45;&gt;node_1</title>
<path fill="none" stroke="black" d="M431.94,-691.47C429.75,-671.79 429.49,-640.72 445,-620.22 513.1,-530.2 631.4,-482.91 731.5,-458.16"/>
<polygon fill="black" stroke="black" points="732.16,-461.37 741.06,-455.62 730.52,-454.56 732.16,-461.37"/>
<text text-anchor="middle" x="501.5" y="-579.52" font-family="Times,serif" font-size="14.00"> &#39;&#39; </text>
</g>
<!-- node_3 -->
<g id="node_3" class="node">
<title>node_3</title>
<g id="a_node_3"><a xlink:title="RULE &#39;Contract`Commencement PARTY &#39;Borrower MAY &#39;request`funds WITHIN 1 DAY HENCE empty LEST empty">
<ellipse fill="#ffffff" stroke="black" cx="896" cy="-1251.31" rx="478.01" ry="26.74"/>
<text text-anchor="middle" x="896" y="-1255.11" font-family="Times,serif" font-size="14.00" fill="#000000">RULE &#39;Contract`Commencement PARTY &#39;Borrower MAY &#39;request`funds WITHIN 1 DAY HENCE empty LEST empty</text>
<text text-anchor="middle" x="896" y="-1240.11" font-family="Times,serif" font-size="14.00" fill="#000000">{}</text>
</a>
</g>
</g>
<!-- node_5 -->
<g id="node_5" class="node">
<title>node_5</title>
<g id="a_node_5"><a xlink:title="done 1">
<polygon fill="#ffffff" stroke="black" points="923,-1173.44 869,-1173.44 869,-1135.44 923,-1135.44 923,-1173.44"/>
<text text-anchor="middle" x="896" y="-1158.24" font-family="Times,serif" font-size="14.00" fill="#000000">done 1</text>
<text text-anchor="middle" x="896" y="-1143.24" font-family="Times,serif" font-size="14.00" fill="#000000">True</text>
</a>
</g>
</g>
<!-- node_3&#45;&gt;node_5 -->
<g id="edge3" class="edge">
<title>node_3&#45;&gt;node_5</title>
<path fill="none" stroke="black" d="M896,-1224.14C896,-1211.87 896,-1197.22 896,-1184.61"/>
<polygon fill="black" stroke="black" points="899.5,-1184.72 896,-1174.72 892.5,-1184.72 899.5,-1184.72"/>
<text text-anchor="middle" x="902.5" y="-1195.24" font-family="Times,serif" font-size="14.00"> &#39;&#39; </text>
</g>
<!-- node_4 -->
<g id="node_4" class="node">
<title>node_4</title>
<g id="a_node_4"><a xlink:title="RULE &#39;Remit`principal PARTY &#39;Lender MUST &#39;remit`principal WITHIN 1 DAY HENCE empty LEST empty">
<ellipse fill="#ffffff" stroke="black" cx="896" cy="-1057.57" rx="439.64" ry="26.74"/>
<text text-anchor="middle" x="896" y="-1061.37" font-family="Times,serif" font-size="14.00" fill="#000000">RULE &#39;Remit`principal PARTY &#39;Lender MUST &#39;remit`principal WITHIN 1 DAY HENCE empty LEST empty</text>
<text text-anchor="middle" x="896" y="-1046.37" font-family="Times,serif" font-size="14.00" fill="#000000">{}</text>
</a>
</g>
</g>
<!-- node_4&#45;&gt;node_10 -->
<g id="edge9" class="edge">
<title>node_4&#45;&gt;node_10</title>
<path fill="none" stroke="black" d="M896,-1030.4C896,-1018.13 896,-1003.48 896,-990.87"/>
<polygon fill="black" stroke="black" points="899.5,-990.98 896,-980.98 892.5,-990.98 899.5,-990.98"/>
<text text-anchor="middle" x="902.5" y="-1001.5" font-family="Times,serif" font-size="14.00"> &#39;&#39; </text>
</g>
<!-- node_5&#45;&gt;node_4 -->
<g id="edge4" class="edge">
<title>node_5&#45;&gt;node_4</title>
<path fill="none" stroke="black" d="M896,-1135.15C896,-1123.96 896,-1109.24 896,-1095.69"/>
<polygon fill="black" stroke="black" points="899.5,-1095.7 896,-1085.7 892.5,-1095.7 899.5,-1095.7"/>
<text text-anchor="middle" x="902.5" y="-1106.24" font-family="Times,serif" font-size="14.00"> &#39;&#39; </text>
</g>
<!-- node_6 -->
<g id="node_6" class="node">
<title>node_6</title>
<g id="a_node_6"><a xlink:title="RULE &#39;Cure`default PARTY &#39;Borrower MUST &#39;resolve`default`condition WITHIN 2 DAY HENCE empty LEST empty">
<ellipse fill="#ffffff" stroke="black" cx="909" cy="-236.61" rx="475.35" ry="26.74"/>
<text text-anchor="middle" x="909" y="-240.41" font-family="Times,serif" font-size="14.00" fill="#000000">RULE &#39;Cure`default PARTY &#39;Borrower MUST &#39;resolve`default`condition WITHIN 2 DAY HENCE empty LEST empty</text>
<text text-anchor="middle" x="909" y="-225.41" font-family="Times,serif" font-size="14.00" fill="#000000">{}</text>
</a>
</g>
</g>
<!-- node_8 -->
<g id="node_8" class="node">
<title>node_8</title>
<g id="a_node_8"><a xlink:title="not done 2">
<polygon fill="#ffffff" stroke="black" points="946,-158.74 872,-158.74 872,-120.74 946,-120.74 946,-158.74"/>
<text text-anchor="middle" x="909" y="-143.54" font-family="Times,serif" font-size="14.00" fill="#000000">not done 2</text>
<text text-anchor="middle" x="909" y="-128.54" font-family="Times,serif" font-size="14.00" fill="#000000">True</text>
</a>
</g>
</g>
<!-- node_6&#45;&gt;node_8 -->
<g id="edge5" class="edge">
<title>node_6&#45;&gt;node_8</title>
<path fill="none" stroke="black" d="M909,-209.44C909,-197.17 909,-182.52 909,-169.91"/>
<polygon fill="black" stroke="black" points="912.5,-170.02 909,-160.02 905.5,-170.02 912.5,-170.02"/>
<text text-anchor="middle" x="915.5" y="-180.54" font-family="Times,serif" font-size="14.00"> &#39;&#39; </text>
</g>
<!-- node_7 -->
<g id="node_7" class="node">
<title>node_7</title>
<g id="a_node_7"><a xlink:title="RULE &#39;Accelerate`outstanding`payments PARTY &#39;Borrower MUST &#39;repay`outstanding`amount WITHIN 1 DAY HENCE empty LEST empty">
<ellipse fill="#ffffff" stroke="black" cx="909" cy="-42.87" rx="560.97" ry="26.74"/>
<text text-anchor="middle" x="909" y="-46.67" font-family="Times,serif" font-size="14.00" fill="#000000">RULE &#39;Accelerate`outstanding`payments PARTY &#39;Borrower MUST &#39;repay`outstanding`amount WITHIN 1 DAY HENCE empty LEST empty</text>
<text text-anchor="middle" x="909" y="-31.67" font-family="Times,serif" font-size="14.00" fill="#000000">{}</text>
</a>
</g>
</g>
<!-- node_8&#45;&gt;node_7 -->
<g id="edge6" class="edge">
<title>node_8&#45;&gt;node_7</title>
<path fill="none" stroke="black" d="M909,-120.45C909,-109.26 909,-94.54 909,-80.99"/>
<polygon fill="black" stroke="black" points="912.5,-81 909,-71 905.5,-81 912.5,-81"/>
<text text-anchor="middle" x="915.5" y="-91.54" font-family="Times,serif" font-size="14.00"> &#39;&#39; </text>
</g>
<!-- node_9&#45;&gt;node_6 -->
<g id="edge8" class="edge">
<title>node_9&#45;&gt;node_6</title>
<path fill="none" stroke="black" d="M909,-314.19C909,-303 909,-288.28 909,-274.73"/>
<polygon fill="black" stroke="black" points="912.5,-274.74 909,-264.74 905.5,-274.74 912.5,-274.74"/>
<text text-anchor="middle" x="915.5" y="-285.28" font-family="Times,serif" font-size="14.00"> &#39;&#39; </text>
</g>
</g>
</svg>
