<?xml version="1.0" encoding="UTF-8" standalone="no"?>
<!DOCTYPE svg PUBLIC "-//W3C//DTD SVG 1.1//EN"
 "http://www.w3.org/Graphics/SVG/1.1/DTD/svg11.dtd">
<!-- Generated by graphviz version 8.0.3 (0)
 -->
<!-- Pages: 1 -->
<svg width="2584pt" height="675pt"
 viewBox="0.00 0.00 2584.00 674.96" xmlns="http://www.w3.org/2000/svg" xmlns:xlink="http://www.w3.org/1999/xlink">
<g id="graph0" class="graph" transform="scale(1 1) rotate(0) translate(4 670.96)">
<polygon fill="white" stroke="none" points="-4,4 -4,-670.96 2580,-670.96 2580,4 -4,4"/>
<g id="clust1" class="cluster">
<title>cluster_140589286324544</title>
</g>
<!-- node_5 -->
<g id="node_5" class="node">
<title>node_5</title>
<g id="a_node_5"><a xlink:title="RULE Notify PDPC PARTY Organisation MUST NOTIFY the PDPC WITHIN 3 DAY ">
<ellipse fill="#ffffff" stroke="black" cx="460" cy="-430.35" rx="354.02" ry="26.74"/>
<text text-anchor="middle" x="460" y="-434.15" font-family="Times,serif" font-size="14.00" fill="#000000">RULE Notify PDPC PARTY Organisation MUST NOTIFY the PDPC WITHIN 3 DAY </text>
<text text-anchor="middle" x="460" y="-419.15" font-family="Times,serif" font-size="14.00" fill="#000000">{}</text>
</a>
</g>
</g>
<!-- node_8 -->
<g id="node_8" class="node">
<title>node_8</title>
<g id="a_node_8"><a xlink:title="Organisation does NOTIFY the PDPC">
<polygon fill="#ffffff" stroke="black" points="547,-352.48 321,-352.48 321,-314.48 547,-314.48 547,-352.48"/>
<text text-anchor="middle" x="434" y="-337.28" font-family="Times,serif" font-size="14.00" fill="#000000">Organisation does NOTIFY the PDPC</text>
<text text-anchor="middle" x="434" y="-322.28" font-family="Times,serif" font-size="14.00" fill="#000000">True</text>
</a>
</g>
</g>
<!-- node_5&#45;&gt;node_8 -->
<g id="edge8" class="edge">
<title>node_5&#45;&gt;node_8</title>
<path fill="none" stroke="black" d="M452.83,-403.18C449.43,-390.79 445.37,-375.96 441.89,-363.26"/>
<polygon fill="black" stroke="black" points="445.03,-362.48 439.01,-353.76 438.28,-364.33 445.03,-362.48"/>
<text text-anchor="middle" x="453.5" y="-374.28" font-family="Times,serif" font-size="14.00"> &#39;&#39; </text>
</g>
<!-- node_7 -->
<g id="node_7" class="node">
<title>node_7</title>
<g id="a_node_7"><a xlink:title="RULE Notify and explain PARTY Organisation MUST notify each of the Notifiable Individuals WITHIN INF DAY ">
<ellipse fill="#ffffff" stroke="black" cx="1300" cy="-236.61" rx="464.64" ry="26.74"/>
<text text-anchor="middle" x="1300" y="-240.41" font-family="Times,serif" font-size="14.00" fill="#000000">RULE Notify and explain PARTY Organisation MUST notify each of the Notifiable Individuals WITHIN INF DAY </text>
<text text-anchor="middle" x="1300" y="-225.41" font-family="Times,serif" font-size="14.00" fill="#000000">{}</text>
</a>
</g>
</g>
<!-- node_3 -->
<g id="node_3" class="node">
<title>node_3</title>
<g id="a_node_3"><a xlink:title="Organisation does assess if it is a Notifiable Data Breach">
<polygon fill="#ffffff" stroke="black" points="1463.5,-546.22 1136.5,-546.22 1136.5,-508.22 1463.5,-508.22 1463.5,-546.22"/>
<text text-anchor="middle" x="1300" y="-531.02" font-family="Times,serif" font-size="14.00" fill="#000000">Organisation does assess if it is a Notifiable Data Breach</text>
<text text-anchor="middle" x="1300" y="-516.02" font-family="Times,serif" font-size="14.00" fill="#000000">True</text>
</a>
</g>
</g>
<!-- node_3&#45;&gt;node_5 -->
<g id="edge5" class="edge">
<title>node_3&#45;&gt;node_5</title>
<path fill="none" stroke="black" d="M1136.54,-507.76C1001.51,-492.51 809.13,-470.78 664.02,-454.39"/>
<polygon fill="black" stroke="black" points="664.54,-450.82 654.21,-453.17 663.76,-457.77 664.54,-450.82"/>
<text text-anchor="middle" x="985.5" y="-479.02" font-family="Times,serif" font-size="14.00"> &#39;&#39; </text>
</g>
<!-- node_4 -->
<g id="node_4" class="node">
<title>node_4</title>
<g id="a_node_4"><a xlink:title="RULE Notify Individuals PARTY Organisation MUST NOTIFY each of the Notifiable Individuals WITHIN 3 DAY ">
<ellipse fill="#ffffff" stroke="black" cx="1300" cy="-430.35" rx="464.64" ry="26.74"/>
<text text-anchor="middle" x="1300" y="-434.15" font-family="Times,serif" font-size="14.00" fill="#000000">RULE Notify Individuals PARTY Organisation MUST NOTIFY each of the Notifiable Individuals WITHIN 3 DAY </text>
<text text-anchor="middle" x="1300" y="-419.15" font-family="Times,serif" font-size="14.00" fill="#000000">{}</text>
</a>
</g>
</g>
<!-- node_3&#45;&gt;node_4 -->
<g id="edge4" class="edge">
<title>node_3&#45;&gt;node_4</title>
<path fill="none" stroke="black" d="M1300,-507.93C1300,-496.74 1300,-482.02 1300,-468.47"/>
<polygon fill="black" stroke="black" points="1303.5,-468.48 1300,-458.48 1296.5,-468.48 1303.5,-468.48"/>
<text text-anchor="middle" x="1306.5" y="-479.02" font-family="Times,serif" font-size="14.00"> &#39;&#39; </text>
</g>
<!-- node_0 -->
<g id="node_0" class="node">
<title>node_0</title>
<g id="a_node_0"><a xlink:title="31 DAY">
<polygon fill="#ffffff" stroke="black" points="1860,-546.22 1798,-546.22 1798,-508.22 1860,-508.22 1860,-546.22"/>
<text text-anchor="middle" x="1829" y="-531.02" font-family="Times,serif" font-size="14.00" fill="#000000">31 DAY</text>
<text text-anchor="middle" x="1829" y="-516.02" font-family="Times,serif" font-size="14.00" fill="#000000">True</text>
</a>
</g>
</g>
<!-- node_2 -->
<g id="node_2" class="node">
<title>node_2</title>
<g id="a_node_2"><a xlink:title="RULE PDPC query with demand PARTY the PDPC MAY query You WITHIN INF DAY ">
<ellipse fill="#ffffff" stroke="black" cx="2158" cy="-430.35" rx="362.99" ry="26.74"/>
<text text-anchor="middle" x="2158" y="-434.15" font-family="Times,serif" font-size="14.00" fill="#000000">RULE PDPC query with demand PARTY the PDPC MAY query You WITHIN INF DAY </text>
<text text-anchor="middle" x="2158" y="-419.15" font-family="Times,serif" font-size="14.00" fill="#000000">{}</text>
</a>
</g>
</g>
<!-- node_0&#45;&gt;node_2 -->
<g id="edge2" class="edge">
<title>node_0&#45;&gt;node_2</title>
<path fill="none" stroke="black" d="M1860.25,-517.21C1905.64,-504.12 1991.81,-479.27 2059.81,-459.66"/>
<polygon fill="black" stroke="black" points="2060.5,-462.82 2069.13,-456.69 2058.56,-456.09 2060.5,-462.82"/>
<text text-anchor="middle" x="2009.5" y="-479.02" font-family="Times,serif" font-size="14.00"> &#39;&#39; </text>
</g>
<!-- node_1 -->
<g id="node_1" class="node">
<title>node_1</title>
<g id="a_node_1"><a xlink:title="RULE Assessment PARTY Organisation MUST assess if it is a Notifiable Data Breach WITHIN 30 DAY ">
<ellipse fill="#ffffff" stroke="black" cx="1564" cy="-624.09" rx="424.03" ry="26.74"/>
<text text-anchor="middle" x="1564" y="-627.89" font-family="Times,serif" font-size="14.00" fill="#000000">RULE Assessment PARTY Organisation MUST assess if it is a Notifiable Data Breach WITHIN 30 DAY </text>
<text text-anchor="middle" x="1564" y="-612.89" font-family="Times,serif" font-size="14.00" fill="#000000">{}</text>
</a>
</g>
</g>
<!-- node_1&#45;&gt;node_3 -->
<g id="edge3" class="edge">
<title>node_1&#45;&gt;node_3</title>
<path fill="none" stroke="black" d="M1492.21,-597.29C1451.28,-582.58 1400.53,-564.35 1361.45,-550.3"/>
<polygon fill="black" stroke="black" points="1362.87,-546.73 1352.27,-546.64 1360.5,-553.32 1362.87,-546.73"/>
<text text-anchor="middle" x="1445.5" y="-568.02" font-family="Times,serif" font-size="14.00"> &#39;&#39; </text>
</g>
<!-- node_1&#45;&gt;node_0 -->
<g id="edge1" class="edge">
<title>node_1&#45;&gt;node_0</title>
<path fill="none" stroke="black" d="M1636.06,-597.29C1684.6,-579.92 1746.91,-557.61 1787.39,-543.12"/>
<polygon fill="black" stroke="black" points="1788.45,-546.1 1796.69,-539.43 1786.09,-539.51 1788.45,-546.1"/>
<text text-anchor="middle" x="1734.5" y="-568.02" font-family="Times,serif" font-size="14.00"> &#39;&#39; </text>
</g>
<!-- node_6 -->
<g id="node_6" class="node">
<title>node_6</title>
<g id="a_node_6"><a xlink:title="4 DAY">
<polygon fill="#ffffff" stroke="black" points="1328,-352.48 1272,-352.48 1272,-314.48 1328,-314.48 1328,-352.48"/>
<text text-anchor="middle" x="1300" y="-337.28" font-family="Times,serif" font-size="14.00" fill="#000000">4 DAY</text>
<text text-anchor="middle" x="1300" y="-322.28" font-family="Times,serif" font-size="14.00" fill="#000000">True</text>
</a>
</g>
</g>
<!-- node_6&#45;&gt;node_7 -->
<g id="edge7" class="edge">
<title>node_6&#45;&gt;node_7</title>
<path fill="none" stroke="black" d="M1300,-314.19C1300,-303 1300,-288.28 1300,-274.73"/>
<polygon fill="black" stroke="black" points="1303.5,-274.74 1300,-264.74 1296.5,-274.74 1303.5,-274.74"/>
<text text-anchor="middle" x="1306.5" y="-285.28" font-family="Times,serif" font-size="14.00"> &#39;&#39; </text>
</g>
<!-- node_13 -->
<g id="node_13" class="node">
<title>node_13</title>
<g id="a_node_13"><a xlink:title="RULE Respond to PDPC PARTY Organisation MUST respond to the PDPC WITHIN INF DAY ">
<ellipse fill="#ffffff" stroke="black" cx="2171" cy="-236.61" rx="388.82" ry="26.74"/>
<text text-anchor="middle" x="2171" y="-240.41" font-family="Times,serif" font-size="14.00" fill="#000000">RULE Respond to PDPC PARTY Organisation MUST respond to the PDPC WITHIN INF DAY </text>
<text text-anchor="middle" x="2171" y="-225.41" font-family="Times,serif" font-size="14.00" fill="#000000">{}</text>
</a>
</g>
</g>
<!-- node_9 -->
<g id="node_9" class="node">
<title>node_9</title>
<g id="a_node_9"><a xlink:title="RULE PDPC prohibit notify individuals PARTY the PDPC MAY NOTIFY you WITHIN INF DAY ">
<ellipse fill="#ffffff" stroke="black" cx="417" cy="-236.61" rx="400.86" ry="26.74"/>
<text text-anchor="middle" x="417" y="-240.41" font-family="Times,serif" font-size="14.00" fill="#000000">RULE PDPC prohibit notify individuals PARTY the PDPC MAY NOTIFY you WITHIN INF DAY </text>
<text text-anchor="middle" x="417" y="-225.41" font-family="Times,serif" font-size="14.00" fill="#000000">{}</text>
</a>
</g>
</g>
<!-- node_10 -->
<g id="node_10" class="node">
<title>node_10</title>
<g id="a_node_10"><a xlink:title="the PDPC does NOTIFY you">
<polygon fill="#ffffff" stroke="black" points="571,-158.74 395,-158.74 395,-120.74 571,-120.74 571,-158.74"/>
<text text-anchor="middle" x="483" y="-143.54" font-family="Times,serif" font-size="14.00" fill="#000000">the PDPC does NOTIFY you</text>
<text text-anchor="middle" x="483" y="-128.54" font-family="Times,serif" font-size="14.00" fill="#000000">True</text>
</a>
</g>
</g>
<!-- node_9&#45;&gt;node_10 -->
<g id="edge10" class="edge">
<title>node_9&#45;&gt;node_10</title>
<path fill="none" stroke="black" d="M435.21,-209.44C444.17,-196.55 454.98,-181.02 464.04,-167.99"/>
<polygon fill="black" stroke="black" points="467.45,-170.23 470.28,-160.02 461.7,-166.23 467.45,-170.23"/>
<text text-anchor="middle" x="463.5" y="-180.54" font-family="Times,serif" font-size="14.00"> &#39;&#39; </text>
</g>
<!-- node_12 -->
<g id="node_12" class="node">
<title>node_12</title>
<g id="a_node_12"><a xlink:title="the PDPC does query You">
<polygon fill="#ffffff" stroke="black" points="2245.5,-352.48 2086.5,-352.48 2086.5,-314.48 2245.5,-314.48 2245.5,-352.48"/>
<text text-anchor="middle" x="2166" y="-337.28" font-family="Times,serif" font-size="14.00" fill="#000000">the PDPC does query You</text>
<text text-anchor="middle" x="2166" y="-322.28" font-family="Times,serif" font-size="14.00" fill="#000000">True</text>
</a>
</g>
</g>
<!-- node_2&#45;&gt;node_12 -->
<g id="edge12" class="edge">
<title>node_2&#45;&gt;node_12</title>
<path fill="none" stroke="black" d="M2160.21,-403.18C2161.24,-390.91 2162.48,-376.26 2163.54,-363.65"/>
<polygon fill="black" stroke="black" points="2167.11,-364.02 2164.46,-353.76 2160.13,-363.43 2167.11,-364.02"/>
<text text-anchor="middle" x="2168.5" y="-374.28" font-family="Times,serif" font-size="14.00"> &#39;&#39; </text>
</g>
<!-- node_11 -->
<g id="node_11" class="node">
<title>node_11</title>
<g id="a_node_11"><a xlink:title="RULE Cannot notify individuals PARTY Organisation SHANT NOTIFY each of the Notifiable Individuals WITHIN INF DAY ">
<ellipse fill="#ffffff" stroke="black" cx="524" cy="-42.87" rx="507.91" ry="26.74"/>
<text text-anchor="middle" x="524" y="-46.67" font-family="Times,serif" font-size="14.00" fill="#000000">RULE Cannot notify individuals PARTY Organisation SHANT NOTIFY each of the Notifiable Individuals WITHIN INF DAY </text>
<text text-anchor="middle" x="524" y="-31.67" font-family="Times,serif" font-size="14.00" fill="#000000">{}</text>
</a>
</g>
</g>
<!-- node_12&#45;&gt;node_13 -->
<g id="edge13" class="edge">
<title>node_12&#45;&gt;node_13</title>
<path fill="none" stroke="black" d="M2166.96,-314.19C2167.56,-302.89 2168.35,-287.98 2169.06,-274.33"/>
<polygon fill="black" stroke="black" points="2172.59,-274.91 2169.62,-264.74 2165.6,-274.54 2172.59,-274.91"/>
<text text-anchor="middle" x="2174.5" y="-285.28" font-family="Times,serif" font-size="14.00"> &#39;&#39; </text>
</g>
<!-- node_4&#45;&gt;node_6 -->
<g id="edge6" class="edge">
<title>node_4&#45;&gt;node_6</title>
<path fill="none" stroke="black" d="M1300,-403.18C1300,-390.91 1300,-376.26 1300,-363.65"/>
<polygon fill="black" stroke="black" points="1303.5,-363.76 1300,-353.76 1296.5,-363.76 1303.5,-363.76"/>
<text text-anchor="middle" x="1306.5" y="-374.28" font-family="Times,serif" font-size="14.00"> &#39;&#39; </text>
</g>
<!-- node_8&#45;&gt;node_9 -->
<g id="edge9" class="edge">
<title>node_8&#45;&gt;node_9</title>
<path fill="none" stroke="black" d="M430.72,-314.19C428.7,-302.89 426.03,-287.98 423.58,-274.33"/>
<polygon fill="black" stroke="black" points="426.89,-273.96 421.68,-264.74 420,-275.2 426.89,-273.96"/>
<text text-anchor="middle" x="433.5" y="-285.28" font-family="Times,serif" font-size="14.00"> &#39;&#39; </text>
</g>
<!-- node_10&#45;&gt;node_11 -->
<g id="edge11" class="edge">
<title>node_10&#45;&gt;node_11</title>
<path fill="none" stroke="black" d="M490.91,-120.45C495.89,-108.92 502.49,-93.65 508.48,-79.78"/>
<polygon fill="black" stroke="black" points="511.95,-81.57 512.71,-71 505.53,-78.79 511.95,-81.57"/>
<text text-anchor="middle" x="510.5" y="-91.54" font-family="Times,serif" font-size="14.00"> &#39;&#39; </text>
</g>
</g>
</svg>
