<?xml version="1.0" encoding="UTF-8" standalone="no"?>
<!DOCTYPE svg PUBLIC "-//W3C//DTD SVG 1.1//EN"
 "http://www.w3.org/Graphics/SVG/1.1/DTD/svg11.dtd">
<!-- Generated by graphviz version 5.0.1 (0)
 -->
<!-- Title: G Pages: 1 -->
<svg width="391pt" height="717pt"
 viewBox="0.00 0.00 391.38 716.74" xmlns="http://www.w3.org/2000/svg" xmlns:xlink="http://www.w3.org/1999/xlink">
<g id="graph0" class="graph" transform="scale(1 1) rotate(0) translate(4 712.74)">
<title>G</title>
<polygon fill="white" stroke="none" points="-4,4 -4,-712.74 387.38,-712.74 387.38,4 -4,4"/>
<!-- s6 -->
<g id="node1" class="node">
<title>s6</title>
<ellipse fill="none" stroke="black" cx="22.38" cy="-688.48" rx="18.29" ry="16.08"/>
<ellipse fill="none" stroke="black" cx="22.38" cy="-688.48" rx="22.27" ry="20.03"/>
<text text-anchor="middle" x="22.38" y="-684.78" font-family="Times,serif" font-size="14.00">[]</text>
</g>
<!-- s5 -->
<g id="node7" class="node">
<title>s5</title>
<ellipse fill="none" stroke="black" cx="22.38" cy="-600.95" rx="18.27" ry="16.03"/>
<text text-anchor="middle" x="22.38" y="-597.25" font-family="Times,serif" font-size="14.00">[]</text>
</g>
<!-- s6&#45;&gt;s5 -->
<g id="edge7" class="edge">
<title>s6&#45;&gt;s5</title>
<path fill="none" stroke="black" d="M22.38,-668.07C22.38,-656.06 22.38,-640.5 22.38,-627.49"/>
<polygon fill="black" stroke="black" points="25.88,-627.3 22.38,-617.3 18.88,-627.3 25.88,-627.3"/>
<text text-anchor="middle" x="69.38" y="-639.02" font-family="Times,serif" font-size="14.00">request_principal</text>
</g>
<!-- s0 -->
<g id="node2" class="node">
<title>s0</title>
<ellipse fill="none" stroke="black" cx="22.38" cy="-266.84" rx="18.27" ry="16.03"/>
<text text-anchor="middle" x="22.38" y="-263.14" font-family="Times,serif" font-size="14.00">[]</text>
</g>
<!-- s2 -->
<g id="node4" class="node">
<title>s2</title>
<ellipse fill="none" stroke="black" cx="22.38" cy="-183.32" rx="18.27" ry="16.03"/>
<text text-anchor="middle" x="22.38" y="-179.62" font-family="Times,serif" font-size="14.00">[]</text>
</g>
<!-- s0&#45;&gt;s2 -->
<g id="edge1" class="edge">
<title>s0&#45;&gt;s2</title>
<path fill="none" stroke="black" d="M22.38,-250.51C22.38,-239.01 22.38,-223.01 22.38,-209.62"/>
<polygon fill="black" stroke="black" points="25.88,-209.58 22.38,-199.58 18.88,-209.58 25.88,-209.58"/>
<text text-anchor="middle" x="30.88" y="-221.38" font-family="Times,serif" font-size="14.00">tau</text>
</g>
<!-- s1 -->
<g id="node3" class="node">
<title>s1</title>
<ellipse fill="none" stroke="black" cx="22.38" cy="-350.37" rx="18.27" ry="16.03"/>
<text text-anchor="middle" x="22.38" y="-346.67" font-family="Times,serif" font-size="14.00">[]</text>
</g>
<!-- s1&#45;&gt;s0 -->
<g id="edge2" class="edge">
<title>s1&#45;&gt;s0</title>
<path fill="none" stroke="black" d="M22.38,-334.04C22.38,-322.54 22.38,-306.54 22.38,-293.15"/>
<polygon fill="black" stroke="black" points="25.88,-293.11 22.38,-283.11 18.88,-293.11 25.88,-293.11"/>
<text text-anchor="middle" x="183.38" y="-304.91" font-family="Times,serif" font-size="14.00">dont_cure_default|pay(normal, borrower, lender, 525)|sync</text>
</g>
<!-- s7 -->
<g id="node8" class="node">
<title>s7</title>
<ellipse fill="none" stroke="black" cx="22.38" cy="-99.79" rx="18.27" ry="16.03"/>
<text text-anchor="middle" x="22.38" y="-96.09" font-family="Times,serif" font-size="14.00">[]</text>
</g>
<!-- s2&#45;&gt;s7 -->
<g id="edge3" class="edge">
<title>s2&#45;&gt;s7</title>
<path fill="none" stroke="black" d="M22.38,-166.98C22.38,-155.48 22.38,-139.48 22.38,-126.1"/>
<polygon fill="black" stroke="black" points="25.88,-126.06 22.38,-116.06 18.88,-126.06 25.88,-126.06"/>
<text text-anchor="middle" x="30.88" y="-137.85" font-family="Times,serif" font-size="14.00">tau</text>
</g>
<!-- s3 -->
<g id="node5" class="node">
<title>s3</title>
<ellipse fill="none" stroke="black" cx="22.38" cy="-433.9" rx="18.27" ry="16.03"/>
<text text-anchor="middle" x="22.38" y="-430.2" font-family="Times,serif" font-size="14.00">[]</text>
</g>
<!-- s3&#45;&gt;s1 -->
<g id="edge4" class="edge">
<title>s3&#45;&gt;s1</title>
<path fill="none" stroke="black" d="M22.38,-417.56C22.38,-406.06 22.38,-390.06 22.38,-376.68"/>
<polygon fill="black" stroke="black" points="25.88,-376.64 22.38,-366.64 18.88,-376.64 25.88,-376.64"/>
<text text-anchor="middle" x="159.38" y="-388.43" font-family="Times,serif" font-size="14.00">dont_notify_borrower|notify_borrower_of_default</text>
</g>
<!-- s4 -->
<g id="node6" class="node">
<title>s4</title>
<ellipse fill="none" stroke="black" cx="22.38" cy="-517.42" rx="18.27" ry="16.03"/>
<text text-anchor="middle" x="22.38" y="-513.72" font-family="Times,serif" font-size="14.00">[]</text>
</g>
<!-- s4&#45;&gt;s3 -->
<g id="edge5" class="edge">
<title>s4&#45;&gt;s3</title>
<path fill="none" stroke="black" d="M22.38,-501.09C22.38,-489.59 22.38,-473.59 22.38,-460.2"/>
<polygon fill="black" stroke="black" points="25.88,-460.16 22.38,-450.16 18.88,-460.16 25.88,-460.16"/>
<text text-anchor="middle" x="202.88" y="-471.96" font-family="Times,serif" font-size="14.00">borrower_default|payment_default(normal, borrower, lender, 550)</text>
</g>
<!-- s5&#45;&gt;s4 -->
<g id="edge6" class="edge">
<title>s5&#45;&gt;s4</title>
<path fill="none" stroke="black" d="M22.38,-584.62C22.38,-573.12 22.38,-557.12 22.38,-543.73"/>
<polygon fill="black" stroke="black" points="25.88,-543.69 22.38,-533.69 18.88,-543.69 25.88,-543.69"/>
<text text-anchor="middle" x="126.38" y="-555.49" font-family="Times,serif" font-size="14.00">pay(principal, lender, borrower, 1000)</text>
</g>
<!-- s8 -->
<g id="node9" class="node">
<title>s8</title>
<ellipse fill="none" stroke="black" cx="22.38" cy="-16.26" rx="18.27" ry="16.03"/>
<text text-anchor="middle" x="22.38" y="-12.56" font-family="Times,serif" font-size="14.00">[]</text>
</g>
<!-- s7&#45;&gt;s8 -->
<g id="edge8" class="edge">
<title>s7&#45;&gt;s8</title>
<path fill="none" stroke="black" d="M22.38,-83.46C22.38,-71.95 22.38,-55.96 22.38,-42.57"/>
<polygon fill="black" stroke="black" points="25.88,-42.53 22.38,-32.53 18.88,-42.53 25.88,-42.53"/>
<text text-anchor="middle" x="165.38" y="-54.33" font-family="Times,serif" font-size="14.00">payment_default(accelerated, borrower, lender, 550)</text>
</g>
<!-- s8&#45;&gt;s8 -->
<g id="edge9" class="edge">
<title>s8&#45;&gt;s8</title>
<path fill="none" stroke="black" d="M38.88,-23.5C40.92,-23.05 42.61,-22.01 42.42,-18.88"/>
<polygon fill="black" stroke="black" points="45.55,-17.26 38.88,-9.03 38.96,-19.62 45.55,-17.26"/>
<text text-anchor="middle" x="69.27" y="-12.56" font-family="Times,serif" font-size="14.00">breached</text>
</g>
</g>
</svg>
