<?xml version="1.0" encoding="UTF-8" standalone="no"?>
<!DOCTYPE svg PUBLIC "-//W3C//DTD SVG 1.1//EN"
 "http://www.w3.org/Graphics/SVG/1.1/DTD/svg11.dtd">
<!-- Generated by graphviz version 5.0.1 (0)
 -->
<!-- Title: G Pages: 1 -->
<svg width="345pt" height="466pt"
 viewBox="0.00 0.00 345.38 466.16" xmlns="http://www.w3.org/2000/svg" xmlns:xlink="http://www.w3.org/1999/xlink">
<g id="graph0" class="graph" transform="scale(1 1) rotate(0) translate(4 462.16)">
<title>G</title>
<polygon fill="white" stroke="none" points="-4,4 -4,-462.16 341.38,-462.16 341.38,4 -4,4"/>
<!-- s1 -->
<g id="node1" class="node">
<title>s1</title>
<ellipse fill="none" stroke="black" cx="22.38" cy="-437.9" rx="18.29" ry="16.08"/>
<ellipse fill="none" stroke="black" cx="22.38" cy="-437.9" rx="22.27" ry="20.03"/>
<text text-anchor="middle" x="22.38" y="-434.2" font-family="Times,serif" font-size="14.00">[]</text>
</g>
<!-- s2 -->
<g id="node3" class="node">
<title>s2</title>
<ellipse fill="none" stroke="black" cx="22.38" cy="-350.37" rx="18.27" ry="16.03"/>
<text text-anchor="middle" x="22.38" y="-346.67" font-family="Times,serif" font-size="14.00">[]</text>
</g>
<!-- s1&#45;&gt;s2 -->
<g id="edge6" class="edge">
<title>s1&#45;&gt;s2</title>
<path fill="none" stroke="black" d="M22.38,-417.49C22.38,-405.48 22.38,-389.92 22.38,-376.91"/>
<polygon fill="black" stroke="black" points="25.88,-376.72 22.38,-366.72 18.88,-376.72 25.88,-376.72"/>
<text text-anchor="middle" x="69.38" y="-388.43" font-family="Times,serif" font-size="14.00">request_principal</text>
</g>
<!-- s0 -->
<g id="node2" class="node">
<title>s0</title>
<ellipse fill="none" stroke="black" cx="22.38" cy="-183.32" rx="18.27" ry="16.03"/>
<text text-anchor="middle" x="22.38" y="-179.62" font-family="Times,serif" font-size="14.00">[]</text>
</g>
<!-- s5 -->
<g id="node6" class="node">
<title>s5</title>
<ellipse fill="none" stroke="black" cx="22.38" cy="-99.79" rx="18.27" ry="16.03"/>
<text text-anchor="middle" x="22.38" y="-96.09" font-family="Times,serif" font-size="14.00">[]</text>
</g>
<!-- s0&#45;&gt;s5 -->
<g id="edge2" class="edge">
<title>s0&#45;&gt;s5</title>
<path fill="none" stroke="black" d="M22.38,-166.98C22.38,-155.48 22.38,-139.48 22.38,-126.1"/>
<polygon fill="black" stroke="black" points="25.88,-126.06 22.38,-116.06 18.88,-126.06 25.88,-126.06"/>
<text text-anchor="middle" x="69.38" y="-137.85" font-family="Times,serif" font-size="14.00">borrower_default</text>
</g>
<!-- s4 -->
<g id="node5" class="node">
<title>s4</title>
<ellipse fill="none" stroke="black" cx="22.38" cy="-266.84" rx="18.27" ry="16.03"/>
<text text-anchor="middle" x="22.38" y="-263.14" font-family="Times,serif" font-size="14.00">[]</text>
</g>
<!-- s2&#45;&gt;s4 -->
<g id="edge5" class="edge">
<title>s2&#45;&gt;s4</title>
<path fill="none" stroke="black" d="M22.38,-334.04C22.38,-322.54 22.38,-306.54 22.38,-293.15"/>
<polygon fill="black" stroke="black" points="25.88,-293.11 22.38,-283.11 18.88,-293.11 25.88,-293.11"/>
<text text-anchor="middle" x="126.38" y="-304.91" font-family="Times,serif" font-size="14.00">pay(principal, lender, borrower, 1000)</text>
</g>
<!-- s3 -->
<g id="node4" class="node">
<title>s3</title>
<ellipse fill="none" stroke="black" cx="22.38" cy="-16.26" rx="18.27" ry="16.03"/>
<text text-anchor="middle" x="22.38" y="-12.56" font-family="Times,serif" font-size="14.00">[]</text>
</g>
<!-- s3&#45;&gt;s3 -->
<g id="edge4" class="edge">
<title>s3&#45;&gt;s3</title>
<path fill="none" stroke="black" d="M38.88,-23.5C40.92,-23.05 42.61,-22.01 42.42,-18.88"/>
<polygon fill="black" stroke="black" points="45.55,-17.26 38.88,-9.03 38.96,-19.62 45.55,-17.26"/>
<text text-anchor="middle" x="66.77" y="-12.56" font-family="Times,serif" font-size="14.00">fulfilled</text>
</g>
<!-- s4&#45;&gt;s0 -->
<g id="edge3" class="edge">
<title>s4&#45;&gt;s0</title>
<path fill="none" stroke="black" d="M22.38,-250.51C22.38,-239.01 22.38,-223.01 22.38,-209.62"/>
<polygon fill="black" stroke="black" points="25.88,-209.58 22.38,-199.58 18.88,-209.58 25.88,-209.58"/>
<text text-anchor="middle" x="118.88" y="-221.38" font-family="Times,serif" font-size="14.00">pay(normal, borrower, lender, 550)</text>
</g>
<!-- s5&#45;&gt;s3 -->
<g id="edge1" class="edge">
<title>s5&#45;&gt;s3</title>
<path fill="none" stroke="black" d="M22.38,-83.46C22.38,-71.95 22.38,-55.96 22.38,-42.57"/>
<polygon fill="black" stroke="black" points="25.88,-42.53 22.38,-32.53 18.88,-42.53 25.88,-42.53"/>
<text text-anchor="middle" x="179.88" y="-54.33" font-family="Times,serif" font-size="14.00">dont_notify_borrower|pay(normal, borrower, lender, 525)</text>
</g>
</g>
</svg>
