<?xml version="1.0" encoding="UTF-8" standalone="no"?>
<!DOCTYPE svg PUBLIC "-//W3C//DTD SVG 1.1//EN"
 "http://www.w3.org/Graphics/SVG/1.1/DTD/svg11.dtd">
<!-- Generated by graphviz version 5.0.1 (0)
 -->
<!-- Title: G Pages: 1 -->
<svg width="1863pt" height="800pt"
 viewBox="0.00 0.00 1862.89 800.27" xmlns="http://www.w3.org/2000/svg" xmlns:xlink="http://www.w3.org/1999/xlink">
<g id="graph0" class="graph" transform="scale(1 1) rotate(0) translate(4 796.27)">
<title>G</title>
<polygon fill="white" stroke="none" points="-4,4 -4,-796.27 1858.89,-796.27 1858.89,4 -4,4"/>
<!-- s15 -->
<g id="node1" class="node">
<title>s15</title>
<ellipse fill="none" stroke="black" cx="1309.46" cy="-772.01" rx="156.96" ry="16.08"/>
<ellipse fill="none" stroke="black" cx="1309.46" cy="-772.01" rx="160.96" ry="20.03"/>
<text text-anchor="middle" x="1309.46" y="-768.31" font-family="Times,serif" font-size="14.00">(3,(lambda p: Place. [])[p0 &#45;&gt; [0, 0]])</text>
</g>
<!-- s12 -->
<g id="node14" class="node">
<title>s12</title>
<ellipse fill="none" stroke="black" cx="1309.46" cy="-684.48" rx="229.62" ry="16.03"/>
<text text-anchor="middle" x="1309.46" y="-680.78" font-family="Times,serif" font-size="14.00">(4,(lambda p: Place. [])[p2 &#45;&gt; [2]][p1 &#45;&gt; [1]][p0 &#45;&gt; [0]])</text>
</g>
<!-- s15&#45;&gt;s12 -->
<g id="edge1" class="edge">
<title>s15&#45;&gt;s12</title>
<path fill="none" stroke="black" d="M1309.46,-751.6C1309.46,-739.59 1309.46,-724.02 1309.46,-711.02"/>
<polygon fill="black" stroke="black" points="1312.96,-710.82 1309.46,-700.82 1305.96,-710.82 1312.96,-710.82"/>
<text text-anchor="middle" x="1345.46" y="-722.54" font-family="Times,serif" font-size="14.00">fire_trans(t0)</text>
</g>
<!-- s0 -->
<g id="node2" class="node">
<title>s0</title>
<ellipse fill="none" stroke="black" cx="334.46" cy="-433.9" rx="334.42" ry="16.03"/>
<text text-anchor="middle" x="334.46" y="-430.2" font-family="Times,serif" font-size="14.00">(4,(lambda p: Place. [])[p5 &#45;&gt; [5]][p4 &#45;&gt; []][p3 &#45;&gt; []][p2 &#45;&gt; []][p1 &#45;&gt; []][p0 &#45;&gt; [0]])</text>
</g>
<!-- s13 -->
<g id="node15" class="node">
<title>s13</title>
<ellipse fill="none" stroke="black" cx="605.46" cy="-350.37" rx="339.32" ry="16.03"/>
<text text-anchor="middle" x="605.46" y="-346.67" font-family="Times,serif" font-size="14.00">(4,(lambda p: Place. [])[p5 &#45;&gt; [5]][p4 &#45;&gt; []][p3 &#45;&gt; []][p2 &#45;&gt; [2]][p1 &#45;&gt; [1]][p0 &#45;&gt; []])</text>
</g>
<!-- s0&#45;&gt;s13 -->
<g id="edge2" class="edge">
<title>s0&#45;&gt;s13</title>
<path fill="none" stroke="black" d="M384.8,-417.75C430.19,-404.1 497.04,-383.99 545.25,-369.49"/>
<polygon fill="black" stroke="black" points="546.37,-372.8 554.93,-366.57 544.35,-366.1 546.37,-372.8"/>
<text text-anchor="middle" x="530.46" y="-388.43" font-family="Times,serif" font-size="14.00">fire_trans(t0)</text>
</g>
<!-- s1 -->
<g id="node3" class="node">
<title>s1</title>
<ellipse fill="none" stroke="black" cx="935.46" cy="-16.26" rx="161.85" ry="16.03"/>
<text text-anchor="middle" x="935.46" y="-12.56" font-family="Times,serif" font-size="14.00">(1,(lambda p4: Place. [])[p0 &#45;&gt; [0, 0]])</text>
</g>
<!-- s2 -->
<g id="node4" class="node">
<title>s2</title>
<ellipse fill="none" stroke="black" cx="935.46" cy="-99.79" rx="340.24" ry="16.03"/>
<text text-anchor="middle" x="935.46" y="-96.09" font-family="Times,serif" font-size="14.00">(4,(lambda p: Place. [])[p5 &#45;&gt; [5, 5]][p4 &#45;&gt; []][p3 &#45;&gt; []][p2 &#45;&gt; []][p1 &#45;&gt; []][p0 &#45;&gt; []])</text>
</g>
<!-- s2&#45;&gt;s1 -->
<g id="edge20" class="edge">
<title>s2&#45;&gt;s1</title>
<path fill="none" stroke="black" d="M935.46,-83.46C935.46,-71.95 935.46,-55.96 935.46,-42.57"/>
<polygon fill="black" stroke="black" points="938.96,-42.53 935.46,-32.53 931.96,-42.53 938.96,-42.53"/>
<text text-anchor="middle" x="994.96" y="-54.33" font-family="Times,serif" font-size="14.00">get_tokens(p5, [5, 5])</text>
</g>
<!-- s3 -->
<g id="node5" class="node">
<title>s3</title>
<ellipse fill="none" stroke="black" cx="980.46" cy="-517.42" rx="302.78" ry="16.03"/>
<text text-anchor="middle" x="980.46" y="-513.72" font-family="Times,serif" font-size="14.00">(4,(lambda p: Place. [])[p4 &#45;&gt; [4]][p3 &#45;&gt; [3]][p2 &#45;&gt; []][p1 &#45;&gt; []][p0 &#45;&gt; [0]])</text>
</g>
<!-- s3&#45;&gt;s0 -->
<g id="edge17" class="edge">
<title>s3&#45;&gt;s0</title>
<path fill="none" stroke="black" d="M868.31,-502.27C753.86,-487.83 576.68,-465.47 458.21,-450.51"/>
<polygon fill="black" stroke="black" points="458.36,-447.01 448,-449.23 457.48,-453.95 458.36,-447.01"/>
<text text-anchor="middle" x="751.46" y="-471.96" font-family="Times,serif" font-size="14.00">fire_trans(t3)</text>
</g>
<!-- s14 -->
<g id="node16" class="node">
<title>s14</title>
<ellipse fill="none" stroke="black" cx="980.46" cy="-433.9" rx="307.68" ry="16.03"/>
<text text-anchor="middle" x="980.46" y="-430.2" font-family="Times,serif" font-size="14.00">(4,(lambda p: Place. [])[p4 &#45;&gt; [4]][p3 &#45;&gt; [3]][p2 &#45;&gt; [2]][p1 &#45;&gt; [1]][p0 &#45;&gt; []])</text>
</g>
<!-- s3&#45;&gt;s14 -->
<g id="edge16" class="edge">
<title>s3&#45;&gt;s14</title>
<path fill="none" stroke="black" d="M980.46,-501.09C980.46,-489.59 980.46,-473.59 980.46,-460.2"/>
<polygon fill="black" stroke="black" points="983.96,-460.16 980.46,-450.16 976.96,-460.16 983.96,-460.16"/>
<text text-anchor="middle" x="1016.46" y="-471.96" font-family="Times,serif" font-size="14.00">fire_trans(t0)</text>
</g>
<!-- s4 -->
<g id="node6" class="node">
<title>s4</title>
<ellipse fill="none" stroke="black" cx="1267.46" cy="-266.84" rx="318.4" ry="16.03"/>
<text text-anchor="middle" x="1267.46" y="-263.14" font-family="Times,serif" font-size="14.00">(4,(lambda p: Place. [])[p4 &#45;&gt; [4, 4]][p3 &#45;&gt; [3, 3]][p2 &#45;&gt; []][p1 &#45;&gt; []][p0 &#45;&gt; []])</text>
</g>
<!-- s5 -->
<g id="node7" class="node">
<title>s5</title>
<ellipse fill="none" stroke="black" cx="935.46" cy="-183.32" rx="339.32" ry="16.03"/>
<text text-anchor="middle" x="935.46" y="-179.62" font-family="Times,serif" font-size="14.00">(4,(lambda p: Place. [])[p5 &#45;&gt; [5]][p4 &#45;&gt; [4]][p3 &#45;&gt; [3]][p2 &#45;&gt; []][p1 &#45;&gt; []][p0 &#45;&gt; []])</text>
</g>
<!-- s4&#45;&gt;s5 -->
<g id="edge13" class="edge">
<title>s4&#45;&gt;s5</title>
<path fill="none" stroke="black" d="M1206.18,-250.8C1149.77,-236.94 1066.09,-216.39 1006.72,-201.81"/>
<polygon fill="black" stroke="black" points="1007.21,-198.33 996.67,-199.35 1005.54,-205.13 1007.21,-198.33"/>
<text text-anchor="middle" x="1166.46" y="-221.38" font-family="Times,serif" font-size="14.00">fire_trans(t3)</text>
</g>
<!-- s5&#45;&gt;s2 -->
<g id="edge12" class="edge">
<title>s5&#45;&gt;s2</title>
<path fill="none" stroke="black" d="M935.46,-166.98C935.46,-155.48 935.46,-139.48 935.46,-126.1"/>
<polygon fill="black" stroke="black" points="938.96,-126.06 935.46,-116.06 931.96,-126.06 938.96,-126.06"/>
<text text-anchor="middle" x="971.46" y="-137.85" font-family="Times,serif" font-size="14.00">fire_trans(t3)</text>
</g>
<!-- s6 -->
<g id="node8" class="node">
<title>s6</title>
<ellipse fill="none" stroke="black" cx="605.46" cy="-266.84" rx="339.32" ry="16.03"/>
<text text-anchor="middle" x="605.46" y="-263.14" font-family="Times,serif" font-size="14.00">(4,(lambda p: Place. [])[p5 &#45;&gt; [5]][p4 &#45;&gt; [4]][p3 &#45;&gt; []][p2 &#45;&gt; []][p1 &#45;&gt; [1]][p0 &#45;&gt; []])</text>
</g>
<!-- s6&#45;&gt;s5 -->
<g id="edge11" class="edge">
<title>s6&#45;&gt;s5</title>
<path fill="none" stroke="black" d="M666.37,-250.8C722.44,-236.94 805.62,-216.39 864.64,-201.81"/>
<polygon fill="black" stroke="black" points="865.76,-205.14 874.63,-199.35 864.08,-198.35 865.76,-205.14"/>
<text text-anchor="middle" x="836.46" y="-221.38" font-family="Times,serif" font-size="14.00">fire_trans(t1)</text>
</g>
<!-- s7 -->
<g id="node9" class="node">
<title>s7</title>
<ellipse fill="none" stroke="black" cx="1264.46" cy="-350.37" rx="313.5" ry="16.03"/>
<text text-anchor="middle" x="1264.46" y="-346.67" font-family="Times,serif" font-size="14.00">(4,(lambda p: Place. [])[p4 &#45;&gt; [4, 4]][p3 &#45;&gt; [3]][p2 &#45;&gt; []][p1 &#45;&gt; [1]][p0 &#45;&gt; []])</text>
</g>
<!-- s7&#45;&gt;s4 -->
<g id="edge19" class="edge">
<title>s7&#45;&gt;s4</title>
<path fill="none" stroke="black" d="M1265.03,-334.04C1265.45,-322.54 1266.04,-306.54 1266.53,-293.15"/>
<polygon fill="black" stroke="black" points="1270.03,-293.23 1266.9,-283.11 1263.03,-292.97 1270.03,-293.23"/>
<text text-anchor="middle" x="1301.46" y="-304.91" font-family="Times,serif" font-size="14.00">fire_trans(t1)</text>
</g>
<!-- s7&#45;&gt;s6 -->
<g id="edge18" class="edge">
<title>s7&#45;&gt;s6</title>
<path fill="none" stroke="black" d="M1150.05,-335.22C1033.09,-320.75 851.92,-298.33 731.05,-283.38"/>
<polygon fill="black" stroke="black" points="731.36,-279.89 721.01,-282.14 730.5,-286.84 731.36,-279.89"/>
<text text-anchor="middle" x="1029.46" y="-304.91" font-family="Times,serif" font-size="14.00">fire_trans(t3)</text>
</g>
<!-- s8 -->
<g id="node10" class="node">
<title>s8</title>
<ellipse fill="none" stroke="black" cx="1052.46" cy="-600.95" rx="266.66" ry="16.03"/>
<text text-anchor="middle" x="1052.46" y="-597.25" font-family="Times,serif" font-size="14.00">(4,(lambda p: Place. [])[p4 &#45;&gt; [4]][p2 &#45;&gt; []][p1 &#45;&gt; [1]][p0 &#45;&gt; [0]])</text>
</g>
<!-- s8&#45;&gt;s3 -->
<g id="edge9" class="edge">
<title>s8&#45;&gt;s3</title>
<path fill="none" stroke="black" d="M1038.92,-584.62C1028.16,-572.43 1012.94,-555.2 1000.73,-541.37"/>
<polygon fill="black" stroke="black" points="1003.19,-538.87 993.94,-533.69 997.94,-543.5 1003.19,-538.87"/>
<text text-anchor="middle" x="1058.46" y="-555.49" font-family="Times,serif" font-size="14.00">fire_trans(t1)</text>
</g>
<!-- s11 -->
<g id="node13" class="node">
<title>s11</title>
<ellipse fill="none" stroke="black" cx="1568.46" cy="-517.42" rx="276.46" ry="16.03"/>
<text text-anchor="middle" x="1568.46" y="-513.72" font-family="Times,serif" font-size="14.00">(4,(lambda p: Place. [])[p4 &#45;&gt; [4]][p2 &#45;&gt; [2]][p1 &#45;&gt; [1, 1]][p0 &#45;&gt; []])</text>
</g>
<!-- s8&#45;&gt;s11 -->
<g id="edge10" class="edge">
<title>s8&#45;&gt;s11</title>
<path fill="none" stroke="black" d="M1143.23,-585.61C1233.91,-571.28 1373.02,-549.3 1467.22,-534.42"/>
<polygon fill="black" stroke="black" points="1468,-537.84 1477.33,-532.82 1466.91,-530.93 1468,-537.84"/>
<text text-anchor="middle" x="1392.46" y="-555.49" font-family="Times,serif" font-size="14.00">fire_trans(t0)</text>
</g>
<!-- s9 -->
<g id="node11" class="node">
<title>s9</title>
<ellipse fill="none" stroke="black" cx="1573.46" cy="-433.9" rx="281.36" ry="16.03"/>
<text text-anchor="middle" x="1573.46" y="-430.2" font-family="Times,serif" font-size="14.00">(4,(lambda p: Place. [])[p4 &#45;&gt; [4, 4]][p2 &#45;&gt; []][p1 &#45;&gt; [1, 1]][p0 &#45;&gt; []])</text>
</g>
<!-- s9&#45;&gt;s7 -->
<g id="edge8" class="edge">
<title>s9&#45;&gt;s7</title>
<path fill="none" stroke="black" d="M1516.79,-417.94C1464.35,-404.11 1386.39,-383.54 1331.02,-368.93"/>
<polygon fill="black" stroke="black" points="1331.86,-365.53 1321.3,-366.37 1330.08,-372.3 1331.86,-365.53"/>
<text text-anchor="middle" x="1482.46" y="-388.43" font-family="Times,serif" font-size="14.00">fire_trans(t1)</text>
</g>
<!-- s10 -->
<g id="node12" class="node">
<title>s10</title>
<ellipse fill="none" stroke="black" cx="1568.46" cy="-600.95" rx="245.23" ry="16.03"/>
<text text-anchor="middle" x="1568.46" y="-597.25" font-family="Times,serif" font-size="14.00">(4,(lambda p: Place. [])[p2 &#45;&gt; [2, 2]][p1 &#45;&gt; [1, 1]][p0 &#45;&gt; []])</text>
</g>
<!-- s10&#45;&gt;s11 -->
<g id="edge7" class="edge">
<title>s10&#45;&gt;s11</title>
<path fill="none" stroke="black" d="M1568.46,-584.62C1568.46,-573.12 1568.46,-557.12 1568.46,-543.73"/>
<polygon fill="black" stroke="black" points="1571.96,-543.69 1568.46,-533.69 1564.96,-543.69 1571.96,-543.69"/>
<text text-anchor="middle" x="1604.46" y="-555.49" font-family="Times,serif" font-size="14.00">fire_trans(t2)</text>
</g>
<!-- s11&#45;&gt;s9 -->
<g id="edge6" class="edge">
<title>s11&#45;&gt;s9</title>
<path fill="none" stroke="black" d="M1569.4,-501.09C1570.11,-489.59 1571.09,-473.59 1571.91,-460.2"/>
<polygon fill="black" stroke="black" points="1575.41,-460.36 1572.53,-450.16 1568.42,-459.93 1575.41,-460.36"/>
<text text-anchor="middle" x="1606.46" y="-471.96" font-family="Times,serif" font-size="14.00">fire_trans(t2)</text>
</g>
<!-- s12&#45;&gt;s8 -->
<g id="edge4" class="edge">
<title>s12&#45;&gt;s8</title>
<path fill="none" stroke="black" d="M1262.32,-668.53C1219.39,-654.91 1155.88,-634.76 1109.98,-620.2"/>
<polygon fill="black" stroke="black" points="1110.76,-616.77 1100.17,-617.09 1108.64,-623.45 1110.76,-616.77"/>
<text text-anchor="middle" x="1239.46" y="-639.02" font-family="Times,serif" font-size="14.00">fire_trans(t2)</text>
</g>
<!-- s12&#45;&gt;s10 -->
<g id="edge5" class="edge">
<title>s12&#45;&gt;s10</title>
<path fill="none" stroke="black" d="M1356.97,-668.53C1400.46,-654.84 1464.91,-634.55 1511.23,-619.97"/>
<polygon fill="black" stroke="black" points="1512.33,-623.29 1520.82,-616.95 1510.23,-616.61 1512.33,-623.29"/>
<text text-anchor="middle" x="1497.46" y="-639.02" font-family="Times,serif" font-size="14.00">fire_trans(t0)</text>
</g>
<!-- s13&#45;&gt;s6 -->
<g id="edge3" class="edge">
<title>s13&#45;&gt;s6</title>
<path fill="none" stroke="black" d="M605.46,-334.04C605.46,-322.54 605.46,-306.54 605.46,-293.15"/>
<polygon fill="black" stroke="black" points="608.96,-293.11 605.46,-283.11 601.96,-293.11 608.96,-293.11"/>
<text text-anchor="middle" x="641.46" y="-304.91" font-family="Times,serif" font-size="14.00">fire_trans(t2)</text>
</g>
<!-- s14&#45;&gt;s7 -->
<g id="edge15" class="edge">
<title>s14&#45;&gt;s7</title>
<path fill="none" stroke="black" d="M1032.88,-417.85C1080.66,-404.13 1151.32,-383.85 1202.01,-369.3"/>
<polygon fill="black" stroke="black" points="1203.22,-372.59 1211.87,-366.47 1201.29,-365.86 1203.22,-372.59"/>
<text text-anchor="middle" x="1183.46" y="-388.43" font-family="Times,serif" font-size="14.00">fire_trans(t2)</text>
</g>
<!-- s14&#45;&gt;s13 -->
<g id="edge14" class="edge">
<title>s14&#45;&gt;s13</title>
<path fill="none" stroke="black" d="M912.12,-418.04C847.92,-404.08 751.89,-383.21 684.44,-368.54"/>
<polygon fill="black" stroke="black" points="684.8,-365.04 674.29,-366.33 683.32,-371.88 684.8,-365.04"/>
<text text-anchor="middle" x="863.46" y="-388.43" font-family="Times,serif" font-size="14.00">fire_trans(t3)</text>
</g>
</g>
</svg>
