<?xml version="1.0" encoding="UTF-8" standalone="no"?>
<!DOCTYPE svg PUBLIC "-//W3C//DTD SVG 1.1//EN"
 "http://www.w3.org/Graphics/SVG/1.1/DTD/svg11.dtd">
<!-- Generated by graphviz version 5.0.1 (0)
 -->
<!-- Title: G Pages: 1 -->
<svg width="372pt" height="717pt"
 viewBox="0.00 0.00 372.25 716.74" xmlns="http://www.w3.org/2000/svg" xmlns:xlink="http://www.w3.org/1999/xlink">
<g id="graph0" class="graph" transform="scale(1 1) rotate(0) translate(4 712.74)">
<title>G</title>
<polygon fill="white" stroke="none" points="-4,4 -4,-712.74 368.25,-712.74 368.25,4 -4,4"/>
<!-- s14 -->
<g id="node1" class="node">
<title>s14</title>
<ellipse fill="none" stroke="black" cx="224.63" cy="-688.48" rx="22.74" ry="16.08"/>
<ellipse fill="none" stroke="black" cx="224.63" cy="-688.48" rx="26.76" ry="20.03"/>
<text text-anchor="middle" x="224.63" y="-684.78" font-family="Times,serif" font-size="14.00">(3)</text>
</g>
<!-- s11 -->
<g id="node13" class="node">
<title>s11</title>
<ellipse fill="none" stroke="black" cx="224.63" cy="-600.95" rx="22.76" ry="16.03"/>
<text text-anchor="middle" x="224.63" y="-597.25" font-family="Times,serif" font-size="14.00">(9)</text>
</g>
<!-- s14&#45;&gt;s11 -->
<g id="edge1" class="edge">
<title>s14&#45;&gt;s11</title>
<path fill="none" stroke="black" d="M224.63,-668.07C224.63,-656.06 224.63,-640.5 224.63,-627.49"/>
<polygon fill="black" stroke="black" points="228.13,-627.3 224.63,-617.3 221.13,-627.3 228.13,-627.3"/>
<text text-anchor="middle" x="260.63" y="-639.02" font-family="Times,serif" font-size="14.00">fire_trans(t0)</text>
</g>
<!-- s0 -->
<g id="node2" class="node">
<title>s0</title>
<ellipse fill="none" stroke="black" cx="22.63" cy="-350.37" rx="22.76" ry="16.03"/>
<text text-anchor="middle" x="22.63" y="-346.67" font-family="Times,serif" font-size="14.00">(2)</text>
</g>
<!-- s12 -->
<g id="node14" class="node">
<title>s12</title>
<ellipse fill="none" stroke="black" cx="83.63" cy="-266.84" rx="27.65" ry="16.03"/>
<text text-anchor="middle" x="83.63" y="-263.14" font-family="Times,serif" font-size="14.00">(15)</text>
</g>
<!-- s0&#45;&gt;s12 -->
<g id="edge2" class="edge">
<title>s0&#45;&gt;s12</title>
<path fill="none" stroke="black" d="M18.79,-333.96C17.17,-323.92 16.81,-310.91 22.63,-301.11 28.72,-290.84 39.23,-283.54 49.82,-278.45"/>
<polygon fill="black" stroke="black" points="51.21,-281.66 59.04,-274.52 48.47,-275.22 51.21,-281.66"/>
<text text-anchor="middle" x="58.63" y="-304.91" font-family="Times,serif" font-size="14.00">fire_trans(t0)</text>
</g>
<!-- s1 -->
<g id="node3" class="node">
<title>s1</title>
<ellipse fill="none" stroke="black" cx="204.63" cy="-16.26" rx="22.76" ry="16.03"/>
<text text-anchor="middle" x="204.63" y="-12.56" font-family="Times,serif" font-size="14.00">(5)</text>
</g>
<!-- s1&#45;&gt;s1 -->
<g id="edge20" class="edge">
<title>s1&#45;&gt;s1</title>
<path fill="none" stroke="black" d="M225.17,-23.29C227.3,-22.74 229.05,-21.69 228.84,-18.67"/>
<polygon fill="black" stroke="black" points="232.06,-17.28 225.17,-9.23 225.53,-19.82 232.06,-17.28"/>
<text text-anchor="middle" x="290.75" y="-12.56" font-family="Times,serif" font-size="14.00">get_tokens(p5, [5, 5])</text>
</g>
<!-- s2 -->
<g id="node4" class="node">
<title>s2</title>
<ellipse fill="none" stroke="black" cx="103.63" cy="-433.9" rx="27.65" ry="16.03"/>
<text text-anchor="middle" x="103.63" y="-430.2" font-family="Times,serif" font-size="14.00">(11)</text>
</g>
<!-- s2&#45;&gt;s0 -->
<g id="edge17" class="edge">
<title>s2&#45;&gt;s0</title>
<path fill="none" stroke="black" d="M77.78,-427.63C61.74,-422.99 42.06,-414.56 30.63,-399.63 25.67,-393.17 23.31,-384.77 22.29,-376.79"/>
<polygon fill="black" stroke="black" points="25.77,-376.49 21.62,-366.75 18.79,-376.96 25.77,-376.49"/>
<text text-anchor="middle" x="66.63" y="-388.43" font-family="Times,serif" font-size="14.00">fire_trans(t3)</text>
</g>
<!-- s13 -->
<g id="node15" class="node">
<title>s13</title>
<ellipse fill="none" stroke="black" cx="103.63" cy="-350.37" rx="27.65" ry="16.03"/>
<text text-anchor="middle" x="103.63" y="-346.67" font-family="Times,serif" font-size="14.00">(12)</text>
</g>
<!-- s2&#45;&gt;s13 -->
<g id="edge16" class="edge">
<title>s2&#45;&gt;s13</title>
<path fill="none" stroke="black" d="M103.63,-417.56C103.63,-406.06 103.63,-390.06 103.63,-376.68"/>
<polygon fill="black" stroke="black" points="107.13,-376.64 103.63,-366.64 100.13,-376.64 107.13,-376.64"/>
<text text-anchor="middle" x="139.63" y="-388.43" font-family="Times,serif" font-size="14.00">fire_trans(t0)</text>
</g>
<!-- s3 -->
<g id="node5" class="node">
<title>s3</title>
<ellipse fill="none" stroke="black" cx="245.63" cy="-183.32" rx="22.76" ry="16.03"/>
<text text-anchor="middle" x="245.63" y="-179.62" font-family="Times,serif" font-size="14.00">(6)</text>
</g>
<!-- s4 -->
<g id="node6" class="node">
<title>s4</title>
<ellipse fill="none" stroke="black" cx="204.63" cy="-99.79" rx="22.76" ry="16.03"/>
<text text-anchor="middle" x="204.63" y="-96.09" font-family="Times,serif" font-size="14.00">(8)</text>
</g>
<!-- s3&#45;&gt;s4 -->
<g id="edge13" class="edge">
<title>s3&#45;&gt;s4</title>
<path fill="none" stroke="black" d="M245.44,-166.78C244.76,-156.93 242.81,-144.19 237.63,-134.05 234.94,-128.8 231.13,-123.86 227.05,-119.47"/>
<polygon fill="black" stroke="black" points="229.2,-116.68 219.59,-112.22 224.32,-121.7 229.2,-116.68"/>
<text text-anchor="middle" x="277.63" y="-137.85" font-family="Times,serif" font-size="14.00">fire_trans(t3)</text>
</g>
<!-- s4&#45;&gt;s1 -->
<g id="edge12" class="edge">
<title>s4&#45;&gt;s1</title>
<path fill="none" stroke="black" d="M204.63,-83.46C204.63,-71.95 204.63,-55.96 204.63,-42.57"/>
<polygon fill="black" stroke="black" points="208.13,-42.53 204.63,-32.53 201.13,-42.53 208.13,-42.53"/>
<text text-anchor="middle" x="240.63" y="-54.33" font-family="Times,serif" font-size="14.00">fire_trans(t3)</text>
</g>
<!-- s5 -->
<g id="node7" class="node">
<title>s5</title>
<ellipse fill="none" stroke="black" cx="164.63" cy="-183.32" rx="22.76" ry="16.03"/>
<text text-anchor="middle" x="164.63" y="-179.62" font-family="Times,serif" font-size="14.00">(1)</text>
</g>
<!-- s5&#45;&gt;s4 -->
<g id="edge11" class="edge">
<title>s5&#45;&gt;s4</title>
<path fill="none" stroke="black" d="M163.12,-166.78C162.82,-156.93 163.69,-144.18 168.63,-134.05 171.52,-128.13 175.95,-122.75 180.73,-118.12"/>
<polygon fill="black" stroke="black" points="183.1,-120.7 188.36,-111.5 178.51,-115.41 183.1,-120.7"/>
<text text-anchor="middle" x="204.63" y="-137.85" font-family="Times,serif" font-size="14.00">fire_trans(t1)</text>
</g>
<!-- s6 -->
<g id="node8" class="node">
<title>s6</title>
<ellipse fill="none" stroke="black" cx="204.63" cy="-266.84" rx="22.76" ry="16.03"/>
<text text-anchor="middle" x="204.63" y="-263.14" font-family="Times,serif" font-size="14.00">(7)</text>
</g>
<!-- s6&#45;&gt;s3 -->
<g id="edge19" class="edge">
<title>s6&#45;&gt;s3</title>
<path fill="none" stroke="black" d="M219.59,-254.42C226.15,-248.6 233.33,-240.98 237.63,-232.58 241.15,-225.69 243.18,-217.6 244.33,-210.03"/>
<polygon fill="black" stroke="black" points="247.84,-210.17 245.44,-199.85 240.88,-209.41 247.84,-210.17"/>
<text text-anchor="middle" x="277.63" y="-221.38" font-family="Times,serif" font-size="14.00">fire_trans(t1)</text>
</g>
<!-- s6&#45;&gt;s5 -->
<g id="edge18" class="edge">
<title>s6&#45;&gt;s5</title>
<path fill="none" stroke="black" d="M188.36,-255.14C181.02,-249.38 173.03,-241.61 168.63,-232.58 165.27,-225.7 163.8,-217.6 163.29,-210.03"/>
<polygon fill="black" stroke="black" points="166.79,-209.8 163.12,-199.85 159.79,-209.91 166.79,-209.8"/>
<text text-anchor="middle" x="204.63" y="-221.38" font-family="Times,serif" font-size="14.00">fire_trans(t3)</text>
</g>
<!-- s7 -->
<g id="node9" class="node">
<title>s7</title>
<ellipse fill="none" stroke="black" cx="184.63" cy="-517.42" rx="22.76" ry="16.03"/>
<text text-anchor="middle" x="184.63" y="-513.72" font-family="Times,serif" font-size="14.00">(4)</text>
</g>
<!-- s7&#45;&gt;s2 -->
<g id="edge9" class="edge">
<title>s7&#45;&gt;s2</title>
<path fill="none" stroke="black" d="M162.51,-513.16C144.62,-509.27 120.37,-500.9 107.63,-483.16 102.92,-476.61 101.18,-468.19 100.84,-460.22"/>
<polygon fill="black" stroke="black" points="104.34,-460.28 101.08,-450.2 97.35,-460.12 104.34,-460.28"/>
<text text-anchor="middle" x="143.63" y="-471.96" font-family="Times,serif" font-size="14.00">fire_trans(t1)</text>
</g>
<!-- s10 -->
<g id="node12" class="node">
<title>s10</title>
<ellipse fill="none" stroke="black" cx="265.63" cy="-433.9" rx="27.65" ry="16.03"/>
<text text-anchor="middle" x="265.63" y="-430.2" font-family="Times,serif" font-size="14.00">(10)</text>
</g>
<!-- s7&#45;&gt;s10 -->
<g id="edge10" class="edge">
<title>s7&#45;&gt;s10</title>
<path fill="none" stroke="black" d="M183.62,-501.05C183.73,-490.76 185.5,-477.47 192.63,-468.16 201.83,-456.15 216.37,-448.34 230.05,-443.34"/>
<polygon fill="black" stroke="black" points="231.36,-446.59 239.78,-440.16 229.19,-439.94 231.36,-446.59"/>
<text text-anchor="middle" x="228.63" y="-471.96" font-family="Times,serif" font-size="14.00">fire_trans(t0)</text>
</g>
<!-- s8 -->
<g id="node10" class="node">
<title>s8</title>
<ellipse fill="none" stroke="black" cx="265.63" cy="-350.37" rx="27.65" ry="16.03"/>
<text text-anchor="middle" x="265.63" y="-346.67" font-family="Times,serif" font-size="14.00">(13)</text>
</g>
<!-- s8&#45;&gt;s6 -->
<g id="edge8" class="edge">
<title>s8&#45;&gt;s6</title>
<path fill="none" stroke="black" d="M266.22,-333.84C265.89,-323.74 264.03,-310.72 257.63,-301.11 251.67,-292.15 242.39,-285.15 233.25,-279.93"/>
<polygon fill="black" stroke="black" points="234.78,-276.78 224.29,-275.29 231.57,-283 234.78,-276.78"/>
<text text-anchor="middle" x="299.63" y="-304.91" font-family="Times,serif" font-size="14.00">fire_trans(t1)</text>
</g>
<!-- s9 -->
<g id="node11" class="node">
<title>s9</title>
<ellipse fill="none" stroke="black" cx="265.63" cy="-517.42" rx="27.65" ry="16.03"/>
<text text-anchor="middle" x="265.63" y="-513.72" font-family="Times,serif" font-size="14.00">(14)</text>
</g>
<!-- s9&#45;&gt;s10 -->
<g id="edge7" class="edge">
<title>s9&#45;&gt;s10</title>
<path fill="none" stroke="black" d="M265.63,-501.09C265.63,-489.59 265.63,-473.59 265.63,-460.2"/>
<polygon fill="black" stroke="black" points="269.13,-460.16 265.63,-450.16 262.13,-460.16 269.13,-460.16"/>
<text text-anchor="middle" x="301.63" y="-471.96" font-family="Times,serif" font-size="14.00">fire_trans(t2)</text>
</g>
<!-- s10&#45;&gt;s8 -->
<g id="edge6" class="edge">
<title>s10&#45;&gt;s8</title>
<path fill="none" stroke="black" d="M265.63,-417.56C265.63,-406.06 265.63,-390.06 265.63,-376.68"/>
<polygon fill="black" stroke="black" points="269.13,-376.64 265.63,-366.64 262.13,-376.64 269.13,-376.64"/>
<text text-anchor="middle" x="301.63" y="-388.43" font-family="Times,serif" font-size="14.00">fire_trans(t2)</text>
</g>
<!-- s11&#45;&gt;s7 -->
<g id="edge4" class="edge">
<title>s11&#45;&gt;s7</title>
<path fill="none" stroke="black" d="M208.36,-589.24C201.02,-583.49 193.03,-575.71 188.63,-566.69 185.27,-559.81 183.8,-551.71 183.29,-544.14"/>
<polygon fill="black" stroke="black" points="186.79,-543.9 183.12,-533.96 179.79,-544.02 186.79,-543.9"/>
<text text-anchor="middle" x="224.63" y="-555.49" font-family="Times,serif" font-size="14.00">fire_trans(t2)</text>
</g>
<!-- s11&#45;&gt;s9 -->
<g id="edge5" class="edge">
<title>s11&#45;&gt;s9</title>
<path fill="none" stroke="black" d="M239.59,-588.53C246.15,-582.71 253.33,-575.09 257.63,-566.69 261.15,-559.8 263.18,-551.71 264.33,-544.13"/>
<polygon fill="black" stroke="black" points="267.84,-544.28 265.44,-533.96 260.88,-543.52 267.84,-544.28"/>
<text text-anchor="middle" x="297.63" y="-555.49" font-family="Times,serif" font-size="14.00">fire_trans(t0)</text>
</g>
<!-- s12&#45;&gt;s5 -->
<g id="edge3" class="edge">
<title>s12&#45;&gt;s5</title>
<path fill="none" stroke="black" d="M82.23,-250.48C82.11,-240.21 83.59,-226.91 90.63,-217.58 100.83,-204.06 117.77,-195.9 132.87,-191.05"/>
<polygon fill="black" stroke="black" points="134.27,-194.29 142.93,-188.2 132.36,-187.56 134.27,-194.29"/>
<text text-anchor="middle" x="126.63" y="-221.38" font-family="Times,serif" font-size="14.00">fire_trans(t2)</text>
</g>
<!-- s13&#45;&gt;s6 -->
<g id="edge15" class="edge">
<title>s13&#45;&gt;s6</title>
<path fill="none" stroke="black" d="M126.8,-341.51C140.84,-335.94 158.51,-327.46 171.63,-316.11 176.25,-312.11 183.81,-301.21 190.54,-290.78"/>
<polygon fill="black" stroke="black" points="193.52,-292.61 195.9,-282.29 187.6,-288.87 193.52,-292.61"/>
<text text-anchor="middle" x="218.63" y="-304.91" font-family="Times,serif" font-size="14.00">fire_trans(t2)</text>
</g>
<!-- s13&#45;&gt;s12 -->
<g id="edge14" class="edge">
<title>s13&#45;&gt;s12</title>
<path fill="none" stroke="black" d="M101.81,-334.01C100.5,-324.45 98.46,-311.96 95.63,-301.11 94.89,-298.27 94,-295.33 93.06,-292.43"/>
<polygon fill="black" stroke="black" points="96.33,-291.17 89.71,-282.9 89.72,-293.49 96.33,-291.17"/>
<text text-anchor="middle" x="134.63" y="-304.91" font-family="Times,serif" font-size="14.00">fire_trans(t3)</text>
</g>
</g>
</svg>
