<?xml version="1.0" encoding="UTF-8" standalone="no"?>
<!DOCTYPE svg PUBLIC "-//W3C//DTD SVG 1.1//EN"
 "http://www.w3.org/Graphics/SVG/1.1/DTD/svg11.dtd">
<!-- Generated by graphviz version 5.0.1 (0)
 -->
<!-- Title: G Pages: 1 -->
<svg width="382pt" height="466pt"
 viewBox="0.00 0.00 381.58 466.16" xmlns="http://www.w3.org/2000/svg" xmlns:xlink="http://www.w3.org/1999/xlink">
<g id="graph0" class="graph" transform="scale(1 1) rotate(0) translate(4 462.16)">
<title>G</title>
<polygon fill="white" stroke="none" points="-4,4 -4,-462.16 377.58,-462.16 377.58,4 -4,4"/>
<!-- s5 -->
<g id="node1" class="node">
<title>s5</title>
<ellipse fill="none" stroke="black" cx="27.58" cy="-437.9" rx="22.74" ry="16.08"/>
<ellipse fill="none" stroke="black" cx="27.58" cy="-437.9" rx="26.76" ry="20.03"/>
<text text-anchor="middle" x="27.58" y="-434.2" font-family="Times,serif" font-size="14.00">(1)</text>
</g>
<!-- s0 -->
<g id="node2" class="node">
<title>s0</title>
<ellipse fill="none" stroke="black" cx="27.58" cy="-350.37" rx="22.76" ry="16.03"/>
<text text-anchor="middle" x="27.58" y="-346.67" font-family="Times,serif" font-size="14.00">(2)</text>
</g>
<!-- s5&#45;&gt;s0 -->
<g id="edge1" class="edge">
<title>s5&#45;&gt;s0</title>
<path fill="none" stroke="black" d="M27.58,-417.49C27.58,-405.48 27.58,-389.92 27.58,-376.91"/>
<polygon fill="black" stroke="black" points="31.08,-376.72 27.58,-366.72 24.08,-376.72 31.08,-376.72"/>
<text text-anchor="middle" x="74.58" y="-388.43" font-family="Times,serif" font-size="14.00">request_principal</text>
</g>
<!-- s4 -->
<g id="node6" class="node">
<title>s4</title>
<ellipse fill="none" stroke="black" cx="27.58" cy="-266.84" rx="27.65" ry="16.03"/>
<text text-anchor="middle" x="27.58" y="-263.14" font-family="Times,serif" font-size="14.00">(25)</text>
</g>
<!-- s0&#45;&gt;s4 -->
<g id="edge2" class="edge">
<title>s0&#45;&gt;s4</title>
<path fill="none" stroke="black" d="M27.58,-334.04C27.58,-322.54 27.58,-306.54 27.58,-293.15"/>
<polygon fill="black" stroke="black" points="31.08,-293.11 27.58,-283.11 24.08,-293.11 31.08,-293.11"/>
<text text-anchor="middle" x="131.58" y="-304.91" font-family="Times,serif" font-size="14.00">pay(principal, lender, borrower, 1000)</text>
</g>
<!-- s1 -->
<g id="node3" class="node">
<title>s1</title>
<ellipse fill="none" stroke="black" cx="27.58" cy="-16.26" rx="27.65" ry="16.03"/>
<text text-anchor="middle" x="27.58" y="-12.56" font-family="Times,serif" font-size="14.00">(64)</text>
</g>
<!-- s2 -->
<g id="node4" class="node">
<title>s2</title>
<ellipse fill="none" stroke="black" cx="27.58" cy="-99.79" rx="27.65" ry="16.03"/>
<text text-anchor="middle" x="27.58" y="-96.09" font-family="Times,serif" font-size="14.00">(44)</text>
</g>
<!-- s2&#45;&gt;s1 -->
<g id="edge5" class="edge">
<title>s2&#45;&gt;s1</title>
<path fill="none" stroke="black" d="M27.58,-83.46C27.58,-71.95 27.58,-55.96 27.58,-42.57"/>
<polygon fill="black" stroke="black" points="31.08,-42.53 27.58,-32.53 24.08,-42.53 31.08,-42.53"/>
<text text-anchor="middle" x="174.58" y="-54.33" font-family="Times,serif" font-size="14.00">dont_cure_default|pay(normal, borrower, lender, 525)</text>
</g>
<!-- s3 -->
<g id="node5" class="node">
<title>s3</title>
<ellipse fill="none" stroke="black" cx="27.58" cy="-183.32" rx="27.65" ry="16.03"/>
<text text-anchor="middle" x="27.58" y="-179.62" font-family="Times,serif" font-size="14.00">(27)</text>
</g>
<!-- s3&#45;&gt;s2 -->
<g id="edge4" class="edge">
<title>s3&#45;&gt;s2</title>
<path fill="none" stroke="black" d="M27.58,-166.98C27.58,-155.48 27.58,-139.48 27.58,-126.1"/>
<polygon fill="black" stroke="black" points="31.08,-126.06 27.58,-116.06 24.08,-126.06 31.08,-126.06"/>
<text text-anchor="middle" x="200.58" y="-137.85" font-family="Times,serif" font-size="14.00">notify_borrower_of_default|pay(normal, borrower, lender, 550)</text>
</g>
<!-- s4&#45;&gt;s3 -->
<g id="edge3" class="edge">
<title>s4&#45;&gt;s3</title>
<path fill="none" stroke="black" d="M27.58,-250.51C27.58,-239.01 27.58,-223.01 27.58,-209.62"/>
<polygon fill="black" stroke="black" points="31.08,-209.58 27.58,-199.58 24.08,-209.58 31.08,-209.58"/>
<text text-anchor="middle" x="74.58" y="-221.38" font-family="Times,serif" font-size="14.00">borrower_default</text>
</g>
</g>
</svg>
